%TF.GenerationSoftware,KiCad,Pcbnew,9.0.6*%
%TF.CreationDate,2026-04-22T22:04:04-07:00*%
%TF.ProjectId,modulinPowerSupply,6d6f6475-6c69-46e5-906f-776572537570,rev?*%
%TF.SameCoordinates,Original*%
%TF.FileFunction,Soldermask,Top*%
%TF.FilePolarity,Negative*%
%FSLAX46Y46*%
G04 Gerber Fmt 4.6, Leading zero omitted, Abs format (unit mm)*
G04 Created by KiCad (PCBNEW 9.0.6) date 2026-04-22 22:04:04*
%MOMM*%
%LPD*%
G01*
G04 APERTURE LIST*
G04 Aperture macros list*
%AMRoundRect*
0 Rectangle with rounded corners*
0 $1 Rounding radius*
0 $2 $3 $4 $5 $6 $7 $8 $9 X,Y pos of 4 corners*
0 Add a 4 corners polygon primitive as box body*
4,1,4,$2,$3,$4,$5,$6,$7,$8,$9,$2,$3,0*
0 Add four circle primitives for the rounded corners*
1,1,$1+$1,$2,$3*
1,1,$1+$1,$4,$5*
1,1,$1+$1,$6,$7*
1,1,$1+$1,$8,$9*
0 Add four rect primitives between the rounded corners*
20,1,$1+$1,$2,$3,$4,$5,0*
20,1,$1+$1,$4,$5,$6,$7,0*
20,1,$1+$1,$6,$7,$8,$9,0*
20,1,$1+$1,$8,$9,$2,$3,0*%
G04 Aperture macros list end*
%ADD10C,1.778000*%
%ADD11R,1.727200X1.727200*%
%ADD12C,1.727200*%
%ADD13C,1.320800*%
%ADD14C,6.000000*%
%ADD15C,1.905000*%
%ADD16RoundRect,0.250000X-1.020000X0.613600X-1.020000X-0.613600X1.020000X-0.613600X1.020000X0.613600X0*%
%ADD17O,2.540000X1.727200*%
G04 APERTURE END LIST*
D10*
%TO.C,C4*%
X38160000Y-55880000D03*
X45660000Y-55880000D03*
%TD*%
D11*
%TO.C,D4*%
X41910000Y-172720000D03*
D12*
X41910000Y-162560000D03*
%TD*%
D13*
%TO.C,C10*%
X36870000Y-180340000D03*
X41870000Y-180340000D03*
%TD*%
D14*
%TO.C,REF\u002A\u002A*%
X38100000Y-97790000D03*
%TD*%
D15*
%TO.C,J1*%
X46736000Y-28230000D03*
X46736000Y-33230000D03*
%TD*%
D16*
%TO.C,U1*%
X36830000Y-142240000D03*
D17*
X36830000Y-144780000D03*
X36830000Y-147320000D03*
%TD*%
D13*
%TO.C,C8*%
X31830000Y-152400000D03*
X36830000Y-152400000D03*
%TD*%
D16*
%TO.C,U2*%
X36830000Y-165100000D03*
D17*
X36830000Y-167640000D03*
X36830000Y-170180000D03*
%TD*%
D11*
%TO.C,D1*%
X29210000Y-30480000D03*
D12*
X39370000Y-30480000D03*
%TD*%
D14*
%TO.C,REF\u002A\u002A*%
X45720000Y-20320000D03*
%TD*%
D11*
%TO.C,D3*%
X29210000Y-139700000D03*
D12*
X29210000Y-149860000D03*
%TD*%
D11*
%TO.C,D2*%
X48260000Y-38100000D03*
D12*
X48260000Y-48260000D03*
%TD*%
D14*
%TO.C,REF\u002A\u002A*%
X30480000Y-20320000D03*
%TD*%
D10*
%TO.C,C5*%
X38160000Y-86360000D03*
X45660000Y-86360000D03*
%TD*%
D13*
%TO.C,C9*%
X36830000Y-160020000D03*
X31830000Y-160020000D03*
%TD*%
D14*
%TO.C,REF\u002A\u002A*%
X29210000Y-180340000D03*
%TD*%
D10*
%TO.C,C3*%
X30540000Y-109220000D03*
X38040000Y-109220000D03*
%TD*%
D13*
%TO.C,C7*%
X31830000Y-137160000D03*
X36830000Y-137160000D03*
%TD*%
D15*
%TO.C,J2*%
X43104000Y-188119000D03*
X38104000Y-188119000D03*
X33104000Y-188119000D03*
%TD*%
D14*
%TO.C,REF\u002A\u002A*%
X46990000Y-180340000D03*
%TD*%
D10*
%TO.C,C1*%
X30540000Y-40640000D03*
X38040000Y-40640000D03*
%TD*%
%TO.C,C6*%
X38160000Y-124460000D03*
X45660000Y-124460000D03*
%TD*%
%TO.C,C2*%
X30540000Y-71120000D03*
X38040000Y-71120000D03*
%TD*%
M02*
