%TF.GenerationSoftware,KiCad,Pcbnew,9.0.6*%
%TF.CreationDate,2026-04-22T22:04:04-07:00*%
%TF.ProjectId,modulinPowerSupply,6d6f6475-6c69-46e5-906f-776572537570,rev?*%
%TF.SameCoordinates,Original*%
%TF.FileFunction,Legend,Top*%
%TF.FilePolarity,Positive*%
%FSLAX46Y46*%
G04 Gerber Fmt 4.6, Leading zero omitted, Abs format (unit mm)*
G04 Created by KiCad (PCBNEW 9.0.6) date 2026-04-22 22:04:04*
%MOMM*%
%LPD*%
G01*
G04 APERTURE LIST*
%ADD10C,0.150000*%
%ADD11C,0.120000*%
G04 APERTURE END LIST*
D10*
X31686667Y-183096819D02*
X32020000Y-184096819D01*
X32020000Y-184096819D02*
X32353333Y-183096819D01*
X33258095Y-184001580D02*
X33210476Y-184049200D01*
X33210476Y-184049200D02*
X33067619Y-184096819D01*
X33067619Y-184096819D02*
X32972381Y-184096819D01*
X32972381Y-184096819D02*
X32829524Y-184049200D01*
X32829524Y-184049200D02*
X32734286Y-183953961D01*
X32734286Y-183953961D02*
X32686667Y-183858723D01*
X32686667Y-183858723D02*
X32639048Y-183668247D01*
X32639048Y-183668247D02*
X32639048Y-183525390D01*
X32639048Y-183525390D02*
X32686667Y-183334914D01*
X32686667Y-183334914D02*
X32734286Y-183239676D01*
X32734286Y-183239676D02*
X32829524Y-183144438D01*
X32829524Y-183144438D02*
X32972381Y-183096819D01*
X32972381Y-183096819D02*
X33067619Y-183096819D01*
X33067619Y-183096819D02*
X33210476Y-183144438D01*
X33210476Y-183144438D02*
X33258095Y-183192057D01*
X34258095Y-184001580D02*
X34210476Y-184049200D01*
X34210476Y-184049200D02*
X34067619Y-184096819D01*
X34067619Y-184096819D02*
X33972381Y-184096819D01*
X33972381Y-184096819D02*
X33829524Y-184049200D01*
X33829524Y-184049200D02*
X33734286Y-183953961D01*
X33734286Y-183953961D02*
X33686667Y-183858723D01*
X33686667Y-183858723D02*
X33639048Y-183668247D01*
X33639048Y-183668247D02*
X33639048Y-183525390D01*
X33639048Y-183525390D02*
X33686667Y-183334914D01*
X33686667Y-183334914D02*
X33734286Y-183239676D01*
X33734286Y-183239676D02*
X33829524Y-183144438D01*
X33829524Y-183144438D02*
X33972381Y-183096819D01*
X33972381Y-183096819D02*
X34067619Y-183096819D01*
X34067619Y-183096819D02*
X34210476Y-183144438D01*
X34210476Y-183144438D02*
X34258095Y-183192057D01*
X41941905Y-183096819D02*
X42275238Y-184096819D01*
X42275238Y-184096819D02*
X42608571Y-183096819D01*
X42941905Y-183573009D02*
X43275238Y-183573009D01*
X43418095Y-184096819D02*
X42941905Y-184096819D01*
X42941905Y-184096819D02*
X42941905Y-183096819D01*
X42941905Y-183096819D02*
X43418095Y-183096819D01*
X43846667Y-183573009D02*
X44180000Y-183573009D01*
X44322857Y-184096819D02*
X43846667Y-184096819D01*
X43846667Y-184096819D02*
X43846667Y-183096819D01*
X43846667Y-183096819D02*
X44322857Y-183096819D01*
X37338095Y-183144438D02*
X37242857Y-183096819D01*
X37242857Y-183096819D02*
X37100000Y-183096819D01*
X37100000Y-183096819D02*
X36957143Y-183144438D01*
X36957143Y-183144438D02*
X36861905Y-183239676D01*
X36861905Y-183239676D02*
X36814286Y-183334914D01*
X36814286Y-183334914D02*
X36766667Y-183525390D01*
X36766667Y-183525390D02*
X36766667Y-183668247D01*
X36766667Y-183668247D02*
X36814286Y-183858723D01*
X36814286Y-183858723D02*
X36861905Y-183953961D01*
X36861905Y-183953961D02*
X36957143Y-184049200D01*
X36957143Y-184049200D02*
X37100000Y-184096819D01*
X37100000Y-184096819D02*
X37195238Y-184096819D01*
X37195238Y-184096819D02*
X37338095Y-184049200D01*
X37338095Y-184049200D02*
X37385714Y-184001580D01*
X37385714Y-184001580D02*
X37385714Y-183668247D01*
X37385714Y-183668247D02*
X37195238Y-183668247D01*
X37814286Y-184096819D02*
X37814286Y-183096819D01*
X37814286Y-183096819D02*
X38385714Y-184096819D01*
X38385714Y-184096819D02*
X38385714Y-183096819D01*
X38861905Y-184096819D02*
X38861905Y-183096819D01*
X38861905Y-183096819D02*
X39100000Y-183096819D01*
X39100000Y-183096819D02*
X39242857Y-183144438D01*
X39242857Y-183144438D02*
X39338095Y-183239676D01*
X39338095Y-183239676D02*
X39385714Y-183334914D01*
X39385714Y-183334914D02*
X39433333Y-183525390D01*
X39433333Y-183525390D02*
X39433333Y-183668247D01*
X39433333Y-183668247D02*
X39385714Y-183858723D01*
X39385714Y-183858723D02*
X39338095Y-183953961D01*
X39338095Y-183953961D02*
X39242857Y-184049200D01*
X39242857Y-184049200D02*
X39100000Y-184096819D01*
X39100000Y-184096819D02*
X38861905Y-184096819D01*
X37993333Y-53699580D02*
X37945714Y-53747200D01*
X37945714Y-53747200D02*
X37802857Y-53794819D01*
X37802857Y-53794819D02*
X37707619Y-53794819D01*
X37707619Y-53794819D02*
X37564762Y-53747200D01*
X37564762Y-53747200D02*
X37469524Y-53651961D01*
X37469524Y-53651961D02*
X37421905Y-53556723D01*
X37421905Y-53556723D02*
X37374286Y-53366247D01*
X37374286Y-53366247D02*
X37374286Y-53223390D01*
X37374286Y-53223390D02*
X37421905Y-53032914D01*
X37421905Y-53032914D02*
X37469524Y-52937676D01*
X37469524Y-52937676D02*
X37564762Y-52842438D01*
X37564762Y-52842438D02*
X37707619Y-52794819D01*
X37707619Y-52794819D02*
X37802857Y-52794819D01*
X37802857Y-52794819D02*
X37945714Y-52842438D01*
X37945714Y-52842438D02*
X37993333Y-52890057D01*
X38850476Y-53128152D02*
X38850476Y-53794819D01*
X38612381Y-52747200D02*
X38374286Y-53461485D01*
X38374286Y-53461485D02*
X38993333Y-53461485D01*
X42364819Y-168124094D02*
X41364819Y-168124094D01*
X41364819Y-168124094D02*
X41364819Y-167885999D01*
X41364819Y-167885999D02*
X41412438Y-167743142D01*
X41412438Y-167743142D02*
X41507676Y-167647904D01*
X41507676Y-167647904D02*
X41602914Y-167600285D01*
X41602914Y-167600285D02*
X41793390Y-167552666D01*
X41793390Y-167552666D02*
X41936247Y-167552666D01*
X41936247Y-167552666D02*
X42126723Y-167600285D01*
X42126723Y-167600285D02*
X42221961Y-167647904D01*
X42221961Y-167647904D02*
X42317200Y-167743142D01*
X42317200Y-167743142D02*
X42364819Y-167885999D01*
X42364819Y-167885999D02*
X42364819Y-168124094D01*
X41698152Y-166695523D02*
X42364819Y-166695523D01*
X41317200Y-166933618D02*
X42031485Y-167171713D01*
X42031485Y-167171713D02*
X42031485Y-166552666D01*
X38767142Y-180699580D02*
X38719523Y-180747200D01*
X38719523Y-180747200D02*
X38576666Y-180794819D01*
X38576666Y-180794819D02*
X38481428Y-180794819D01*
X38481428Y-180794819D02*
X38338571Y-180747200D01*
X38338571Y-180747200D02*
X38243333Y-180651961D01*
X38243333Y-180651961D02*
X38195714Y-180556723D01*
X38195714Y-180556723D02*
X38148095Y-180366247D01*
X38148095Y-180366247D02*
X38148095Y-180223390D01*
X38148095Y-180223390D02*
X38195714Y-180032914D01*
X38195714Y-180032914D02*
X38243333Y-179937676D01*
X38243333Y-179937676D02*
X38338571Y-179842438D01*
X38338571Y-179842438D02*
X38481428Y-179794819D01*
X38481428Y-179794819D02*
X38576666Y-179794819D01*
X38576666Y-179794819D02*
X38719523Y-179842438D01*
X38719523Y-179842438D02*
X38767142Y-179890057D01*
X39719523Y-180794819D02*
X39148095Y-180794819D01*
X39433809Y-180794819D02*
X39433809Y-179794819D01*
X39433809Y-179794819D02*
X39338571Y-179937676D01*
X39338571Y-179937676D02*
X39243333Y-180032914D01*
X39243333Y-180032914D02*
X39148095Y-180080533D01*
X40338571Y-179794819D02*
X40433809Y-179794819D01*
X40433809Y-179794819D02*
X40529047Y-179842438D01*
X40529047Y-179842438D02*
X40576666Y-179890057D01*
X40576666Y-179890057D02*
X40624285Y-179985295D01*
X40624285Y-179985295D02*
X40671904Y-180175771D01*
X40671904Y-180175771D02*
X40671904Y-180413866D01*
X40671904Y-180413866D02*
X40624285Y-180604342D01*
X40624285Y-180604342D02*
X40576666Y-180699580D01*
X40576666Y-180699580D02*
X40529047Y-180747200D01*
X40529047Y-180747200D02*
X40433809Y-180794819D01*
X40433809Y-180794819D02*
X40338571Y-180794819D01*
X40338571Y-180794819D02*
X40243333Y-180747200D01*
X40243333Y-180747200D02*
X40195714Y-180699580D01*
X40195714Y-180699580D02*
X40148095Y-180604342D01*
X40148095Y-180604342D02*
X40100476Y-180413866D01*
X40100476Y-180413866D02*
X40100476Y-180175771D01*
X40100476Y-180175771D02*
X40148095Y-179985295D01*
X40148095Y-179985295D02*
X40195714Y-179890057D01*
X40195714Y-179890057D02*
X40243333Y-179842438D01*
X40243333Y-179842438D02*
X40338571Y-179794819D01*
X48984819Y-30813333D02*
X49699104Y-30813333D01*
X49699104Y-30813333D02*
X49841961Y-30860952D01*
X49841961Y-30860952D02*
X49937200Y-30956190D01*
X49937200Y-30956190D02*
X49984819Y-31099047D01*
X49984819Y-31099047D02*
X49984819Y-31194285D01*
X49984819Y-29813333D02*
X49984819Y-30384761D01*
X49984819Y-30099047D02*
X48984819Y-30099047D01*
X48984819Y-30099047D02*
X49127676Y-30194285D01*
X49127676Y-30194285D02*
X49222914Y-30289523D01*
X49222914Y-30289523D02*
X49270533Y-30384761D01*
X38932295Y-145389523D02*
X39579914Y-145389523D01*
X39579914Y-145389523D02*
X39656104Y-145351428D01*
X39656104Y-145351428D02*
X39694200Y-145313333D01*
X39694200Y-145313333D02*
X39732295Y-145237142D01*
X39732295Y-145237142D02*
X39732295Y-145084761D01*
X39732295Y-145084761D02*
X39694200Y-145008571D01*
X39694200Y-145008571D02*
X39656104Y-144970476D01*
X39656104Y-144970476D02*
X39579914Y-144932380D01*
X39579914Y-144932380D02*
X38932295Y-144932380D01*
X39732295Y-144132381D02*
X39732295Y-144589524D01*
X39732295Y-144360952D02*
X38932295Y-144360952D01*
X38932295Y-144360952D02*
X39046580Y-144437143D01*
X39046580Y-144437143D02*
X39122771Y-144513333D01*
X39122771Y-144513333D02*
X39160866Y-144589524D01*
X34203333Y-152759580D02*
X34155714Y-152807200D01*
X34155714Y-152807200D02*
X34012857Y-152854819D01*
X34012857Y-152854819D02*
X33917619Y-152854819D01*
X33917619Y-152854819D02*
X33774762Y-152807200D01*
X33774762Y-152807200D02*
X33679524Y-152711961D01*
X33679524Y-152711961D02*
X33631905Y-152616723D01*
X33631905Y-152616723D02*
X33584286Y-152426247D01*
X33584286Y-152426247D02*
X33584286Y-152283390D01*
X33584286Y-152283390D02*
X33631905Y-152092914D01*
X33631905Y-152092914D02*
X33679524Y-151997676D01*
X33679524Y-151997676D02*
X33774762Y-151902438D01*
X33774762Y-151902438D02*
X33917619Y-151854819D01*
X33917619Y-151854819D02*
X34012857Y-151854819D01*
X34012857Y-151854819D02*
X34155714Y-151902438D01*
X34155714Y-151902438D02*
X34203333Y-151950057D01*
X34774762Y-152283390D02*
X34679524Y-152235771D01*
X34679524Y-152235771D02*
X34631905Y-152188152D01*
X34631905Y-152188152D02*
X34584286Y-152092914D01*
X34584286Y-152092914D02*
X34584286Y-152045295D01*
X34584286Y-152045295D02*
X34631905Y-151950057D01*
X34631905Y-151950057D02*
X34679524Y-151902438D01*
X34679524Y-151902438D02*
X34774762Y-151854819D01*
X34774762Y-151854819D02*
X34965238Y-151854819D01*
X34965238Y-151854819D02*
X35060476Y-151902438D01*
X35060476Y-151902438D02*
X35108095Y-151950057D01*
X35108095Y-151950057D02*
X35155714Y-152045295D01*
X35155714Y-152045295D02*
X35155714Y-152092914D01*
X35155714Y-152092914D02*
X35108095Y-152188152D01*
X35108095Y-152188152D02*
X35060476Y-152235771D01*
X35060476Y-152235771D02*
X34965238Y-152283390D01*
X34965238Y-152283390D02*
X34774762Y-152283390D01*
X34774762Y-152283390D02*
X34679524Y-152331009D01*
X34679524Y-152331009D02*
X34631905Y-152378628D01*
X34631905Y-152378628D02*
X34584286Y-152473866D01*
X34584286Y-152473866D02*
X34584286Y-152664342D01*
X34584286Y-152664342D02*
X34631905Y-152759580D01*
X34631905Y-152759580D02*
X34679524Y-152807200D01*
X34679524Y-152807200D02*
X34774762Y-152854819D01*
X34774762Y-152854819D02*
X34965238Y-152854819D01*
X34965238Y-152854819D02*
X35060476Y-152807200D01*
X35060476Y-152807200D02*
X35108095Y-152759580D01*
X35108095Y-152759580D02*
X35155714Y-152664342D01*
X35155714Y-152664342D02*
X35155714Y-152473866D01*
X35155714Y-152473866D02*
X35108095Y-152378628D01*
X35108095Y-152378628D02*
X35060476Y-152331009D01*
X35060476Y-152331009D02*
X34965238Y-152283390D01*
X38932295Y-168249523D02*
X39579914Y-168249523D01*
X39579914Y-168249523D02*
X39656104Y-168211428D01*
X39656104Y-168211428D02*
X39694200Y-168173333D01*
X39694200Y-168173333D02*
X39732295Y-168097142D01*
X39732295Y-168097142D02*
X39732295Y-167944761D01*
X39732295Y-167944761D02*
X39694200Y-167868571D01*
X39694200Y-167868571D02*
X39656104Y-167830476D01*
X39656104Y-167830476D02*
X39579914Y-167792380D01*
X39579914Y-167792380D02*
X38932295Y-167792380D01*
X39008485Y-167449524D02*
X38970390Y-167411428D01*
X38970390Y-167411428D02*
X38932295Y-167335238D01*
X38932295Y-167335238D02*
X38932295Y-167144762D01*
X38932295Y-167144762D02*
X38970390Y-167068571D01*
X38970390Y-167068571D02*
X39008485Y-167030476D01*
X39008485Y-167030476D02*
X39084676Y-166992381D01*
X39084676Y-166992381D02*
X39160866Y-166992381D01*
X39160866Y-166992381D02*
X39275152Y-167030476D01*
X39275152Y-167030476D02*
X39732295Y-167487619D01*
X39732295Y-167487619D02*
X39732295Y-166992381D01*
X33805905Y-30934819D02*
X33805905Y-29934819D01*
X33805905Y-29934819D02*
X34044000Y-29934819D01*
X34044000Y-29934819D02*
X34186857Y-29982438D01*
X34186857Y-29982438D02*
X34282095Y-30077676D01*
X34282095Y-30077676D02*
X34329714Y-30172914D01*
X34329714Y-30172914D02*
X34377333Y-30363390D01*
X34377333Y-30363390D02*
X34377333Y-30506247D01*
X34377333Y-30506247D02*
X34329714Y-30696723D01*
X34329714Y-30696723D02*
X34282095Y-30791961D01*
X34282095Y-30791961D02*
X34186857Y-30887200D01*
X34186857Y-30887200D02*
X34044000Y-30934819D01*
X34044000Y-30934819D02*
X33805905Y-30934819D01*
X35329714Y-30934819D02*
X34758286Y-30934819D01*
X35044000Y-30934819D02*
X35044000Y-29934819D01*
X35044000Y-29934819D02*
X34948762Y-30077676D01*
X34948762Y-30077676D02*
X34853524Y-30172914D01*
X34853524Y-30172914D02*
X34758286Y-30220533D01*
X29664819Y-145772094D02*
X28664819Y-145772094D01*
X28664819Y-145772094D02*
X28664819Y-145533999D01*
X28664819Y-145533999D02*
X28712438Y-145391142D01*
X28712438Y-145391142D02*
X28807676Y-145295904D01*
X28807676Y-145295904D02*
X28902914Y-145248285D01*
X28902914Y-145248285D02*
X29093390Y-145200666D01*
X29093390Y-145200666D02*
X29236247Y-145200666D01*
X29236247Y-145200666D02*
X29426723Y-145248285D01*
X29426723Y-145248285D02*
X29521961Y-145295904D01*
X29521961Y-145295904D02*
X29617200Y-145391142D01*
X29617200Y-145391142D02*
X29664819Y-145533999D01*
X29664819Y-145533999D02*
X29664819Y-145772094D01*
X28664819Y-144867332D02*
X28664819Y-144248285D01*
X28664819Y-144248285D02*
X29045771Y-144581618D01*
X29045771Y-144581618D02*
X29045771Y-144438761D01*
X29045771Y-144438761D02*
X29093390Y-144343523D01*
X29093390Y-144343523D02*
X29141009Y-144295904D01*
X29141009Y-144295904D02*
X29236247Y-144248285D01*
X29236247Y-144248285D02*
X29474342Y-144248285D01*
X29474342Y-144248285D02*
X29569580Y-144295904D01*
X29569580Y-144295904D02*
X29617200Y-144343523D01*
X29617200Y-144343523D02*
X29664819Y-144438761D01*
X29664819Y-144438761D02*
X29664819Y-144724475D01*
X29664819Y-144724475D02*
X29617200Y-144819713D01*
X29617200Y-144819713D02*
X29569580Y-144867332D01*
X48714819Y-44172094D02*
X47714819Y-44172094D01*
X47714819Y-44172094D02*
X47714819Y-43933999D01*
X47714819Y-43933999D02*
X47762438Y-43791142D01*
X47762438Y-43791142D02*
X47857676Y-43695904D01*
X47857676Y-43695904D02*
X47952914Y-43648285D01*
X47952914Y-43648285D02*
X48143390Y-43600666D01*
X48143390Y-43600666D02*
X48286247Y-43600666D01*
X48286247Y-43600666D02*
X48476723Y-43648285D01*
X48476723Y-43648285D02*
X48571961Y-43695904D01*
X48571961Y-43695904D02*
X48667200Y-43791142D01*
X48667200Y-43791142D02*
X48714819Y-43933999D01*
X48714819Y-43933999D02*
X48714819Y-44172094D01*
X47810057Y-43219713D02*
X47762438Y-43172094D01*
X47762438Y-43172094D02*
X47714819Y-43076856D01*
X47714819Y-43076856D02*
X47714819Y-42838761D01*
X47714819Y-42838761D02*
X47762438Y-42743523D01*
X47762438Y-42743523D02*
X47810057Y-42695904D01*
X47810057Y-42695904D02*
X47905295Y-42648285D01*
X47905295Y-42648285D02*
X48000533Y-42648285D01*
X48000533Y-42648285D02*
X48143390Y-42695904D01*
X48143390Y-42695904D02*
X48714819Y-43267332D01*
X48714819Y-43267332D02*
X48714819Y-42648285D01*
X37993333Y-84179580D02*
X37945714Y-84227200D01*
X37945714Y-84227200D02*
X37802857Y-84274819D01*
X37802857Y-84274819D02*
X37707619Y-84274819D01*
X37707619Y-84274819D02*
X37564762Y-84227200D01*
X37564762Y-84227200D02*
X37469524Y-84131961D01*
X37469524Y-84131961D02*
X37421905Y-84036723D01*
X37421905Y-84036723D02*
X37374286Y-83846247D01*
X37374286Y-83846247D02*
X37374286Y-83703390D01*
X37374286Y-83703390D02*
X37421905Y-83512914D01*
X37421905Y-83512914D02*
X37469524Y-83417676D01*
X37469524Y-83417676D02*
X37564762Y-83322438D01*
X37564762Y-83322438D02*
X37707619Y-83274819D01*
X37707619Y-83274819D02*
X37802857Y-83274819D01*
X37802857Y-83274819D02*
X37945714Y-83322438D01*
X37945714Y-83322438D02*
X37993333Y-83370057D01*
X38898095Y-83274819D02*
X38421905Y-83274819D01*
X38421905Y-83274819D02*
X38374286Y-83751009D01*
X38374286Y-83751009D02*
X38421905Y-83703390D01*
X38421905Y-83703390D02*
X38517143Y-83655771D01*
X38517143Y-83655771D02*
X38755238Y-83655771D01*
X38755238Y-83655771D02*
X38850476Y-83703390D01*
X38850476Y-83703390D02*
X38898095Y-83751009D01*
X38898095Y-83751009D02*
X38945714Y-83846247D01*
X38945714Y-83846247D02*
X38945714Y-84084342D01*
X38945714Y-84084342D02*
X38898095Y-84179580D01*
X38898095Y-84179580D02*
X38850476Y-84227200D01*
X38850476Y-84227200D02*
X38755238Y-84274819D01*
X38755238Y-84274819D02*
X38517143Y-84274819D01*
X38517143Y-84274819D02*
X38421905Y-84227200D01*
X38421905Y-84227200D02*
X38374286Y-84179580D01*
X34123333Y-160379580D02*
X34075714Y-160427200D01*
X34075714Y-160427200D02*
X33932857Y-160474819D01*
X33932857Y-160474819D02*
X33837619Y-160474819D01*
X33837619Y-160474819D02*
X33694762Y-160427200D01*
X33694762Y-160427200D02*
X33599524Y-160331961D01*
X33599524Y-160331961D02*
X33551905Y-160236723D01*
X33551905Y-160236723D02*
X33504286Y-160046247D01*
X33504286Y-160046247D02*
X33504286Y-159903390D01*
X33504286Y-159903390D02*
X33551905Y-159712914D01*
X33551905Y-159712914D02*
X33599524Y-159617676D01*
X33599524Y-159617676D02*
X33694762Y-159522438D01*
X33694762Y-159522438D02*
X33837619Y-159474819D01*
X33837619Y-159474819D02*
X33932857Y-159474819D01*
X33932857Y-159474819D02*
X34075714Y-159522438D01*
X34075714Y-159522438D02*
X34123333Y-159570057D01*
X34599524Y-160474819D02*
X34790000Y-160474819D01*
X34790000Y-160474819D02*
X34885238Y-160427200D01*
X34885238Y-160427200D02*
X34932857Y-160379580D01*
X34932857Y-160379580D02*
X35028095Y-160236723D01*
X35028095Y-160236723D02*
X35075714Y-160046247D01*
X35075714Y-160046247D02*
X35075714Y-159665295D01*
X35075714Y-159665295D02*
X35028095Y-159570057D01*
X35028095Y-159570057D02*
X34980476Y-159522438D01*
X34980476Y-159522438D02*
X34885238Y-159474819D01*
X34885238Y-159474819D02*
X34694762Y-159474819D01*
X34694762Y-159474819D02*
X34599524Y-159522438D01*
X34599524Y-159522438D02*
X34551905Y-159570057D01*
X34551905Y-159570057D02*
X34504286Y-159665295D01*
X34504286Y-159665295D02*
X34504286Y-159903390D01*
X34504286Y-159903390D02*
X34551905Y-159998628D01*
X34551905Y-159998628D02*
X34599524Y-160046247D01*
X34599524Y-160046247D02*
X34694762Y-160093866D01*
X34694762Y-160093866D02*
X34885238Y-160093866D01*
X34885238Y-160093866D02*
X34980476Y-160046247D01*
X34980476Y-160046247D02*
X35028095Y-159998628D01*
X35028095Y-159998628D02*
X35075714Y-159903390D01*
X30373333Y-107039580D02*
X30325714Y-107087200D01*
X30325714Y-107087200D02*
X30182857Y-107134819D01*
X30182857Y-107134819D02*
X30087619Y-107134819D01*
X30087619Y-107134819D02*
X29944762Y-107087200D01*
X29944762Y-107087200D02*
X29849524Y-106991961D01*
X29849524Y-106991961D02*
X29801905Y-106896723D01*
X29801905Y-106896723D02*
X29754286Y-106706247D01*
X29754286Y-106706247D02*
X29754286Y-106563390D01*
X29754286Y-106563390D02*
X29801905Y-106372914D01*
X29801905Y-106372914D02*
X29849524Y-106277676D01*
X29849524Y-106277676D02*
X29944762Y-106182438D01*
X29944762Y-106182438D02*
X30087619Y-106134819D01*
X30087619Y-106134819D02*
X30182857Y-106134819D01*
X30182857Y-106134819D02*
X30325714Y-106182438D01*
X30325714Y-106182438D02*
X30373333Y-106230057D01*
X30706667Y-106134819D02*
X31325714Y-106134819D01*
X31325714Y-106134819D02*
X30992381Y-106515771D01*
X30992381Y-106515771D02*
X31135238Y-106515771D01*
X31135238Y-106515771D02*
X31230476Y-106563390D01*
X31230476Y-106563390D02*
X31278095Y-106611009D01*
X31278095Y-106611009D02*
X31325714Y-106706247D01*
X31325714Y-106706247D02*
X31325714Y-106944342D01*
X31325714Y-106944342D02*
X31278095Y-107039580D01*
X31278095Y-107039580D02*
X31230476Y-107087200D01*
X31230476Y-107087200D02*
X31135238Y-107134819D01*
X31135238Y-107134819D02*
X30849524Y-107134819D01*
X30849524Y-107134819D02*
X30754286Y-107087200D01*
X30754286Y-107087200D02*
X30706667Y-107039580D01*
X34203333Y-137519580D02*
X34155714Y-137567200D01*
X34155714Y-137567200D02*
X34012857Y-137614819D01*
X34012857Y-137614819D02*
X33917619Y-137614819D01*
X33917619Y-137614819D02*
X33774762Y-137567200D01*
X33774762Y-137567200D02*
X33679524Y-137471961D01*
X33679524Y-137471961D02*
X33631905Y-137376723D01*
X33631905Y-137376723D02*
X33584286Y-137186247D01*
X33584286Y-137186247D02*
X33584286Y-137043390D01*
X33584286Y-137043390D02*
X33631905Y-136852914D01*
X33631905Y-136852914D02*
X33679524Y-136757676D01*
X33679524Y-136757676D02*
X33774762Y-136662438D01*
X33774762Y-136662438D02*
X33917619Y-136614819D01*
X33917619Y-136614819D02*
X34012857Y-136614819D01*
X34012857Y-136614819D02*
X34155714Y-136662438D01*
X34155714Y-136662438D02*
X34203333Y-136710057D01*
X34536667Y-136614819D02*
X35203333Y-136614819D01*
X35203333Y-136614819D02*
X34774762Y-137614819D01*
X37690666Y-190113819D02*
X37690666Y-190828104D01*
X37690666Y-190828104D02*
X37643047Y-190970961D01*
X37643047Y-190970961D02*
X37547809Y-191066200D01*
X37547809Y-191066200D02*
X37404952Y-191113819D01*
X37404952Y-191113819D02*
X37309714Y-191113819D01*
X38119238Y-190209057D02*
X38166857Y-190161438D01*
X38166857Y-190161438D02*
X38262095Y-190113819D01*
X38262095Y-190113819D02*
X38500190Y-190113819D01*
X38500190Y-190113819D02*
X38595428Y-190161438D01*
X38595428Y-190161438D02*
X38643047Y-190209057D01*
X38643047Y-190209057D02*
X38690666Y-190304295D01*
X38690666Y-190304295D02*
X38690666Y-190399533D01*
X38690666Y-190399533D02*
X38643047Y-190542390D01*
X38643047Y-190542390D02*
X38071619Y-191113819D01*
X38071619Y-191113819D02*
X38690666Y-191113819D01*
X30373333Y-38459580D02*
X30325714Y-38507200D01*
X30325714Y-38507200D02*
X30182857Y-38554819D01*
X30182857Y-38554819D02*
X30087619Y-38554819D01*
X30087619Y-38554819D02*
X29944762Y-38507200D01*
X29944762Y-38507200D02*
X29849524Y-38411961D01*
X29849524Y-38411961D02*
X29801905Y-38316723D01*
X29801905Y-38316723D02*
X29754286Y-38126247D01*
X29754286Y-38126247D02*
X29754286Y-37983390D01*
X29754286Y-37983390D02*
X29801905Y-37792914D01*
X29801905Y-37792914D02*
X29849524Y-37697676D01*
X29849524Y-37697676D02*
X29944762Y-37602438D01*
X29944762Y-37602438D02*
X30087619Y-37554819D01*
X30087619Y-37554819D02*
X30182857Y-37554819D01*
X30182857Y-37554819D02*
X30325714Y-37602438D01*
X30325714Y-37602438D02*
X30373333Y-37650057D01*
X31325714Y-38554819D02*
X30754286Y-38554819D01*
X31040000Y-38554819D02*
X31040000Y-37554819D01*
X31040000Y-37554819D02*
X30944762Y-37697676D01*
X30944762Y-37697676D02*
X30849524Y-37792914D01*
X30849524Y-37792914D02*
X30754286Y-37840533D01*
X37993333Y-122279580D02*
X37945714Y-122327200D01*
X37945714Y-122327200D02*
X37802857Y-122374819D01*
X37802857Y-122374819D02*
X37707619Y-122374819D01*
X37707619Y-122374819D02*
X37564762Y-122327200D01*
X37564762Y-122327200D02*
X37469524Y-122231961D01*
X37469524Y-122231961D02*
X37421905Y-122136723D01*
X37421905Y-122136723D02*
X37374286Y-121946247D01*
X37374286Y-121946247D02*
X37374286Y-121803390D01*
X37374286Y-121803390D02*
X37421905Y-121612914D01*
X37421905Y-121612914D02*
X37469524Y-121517676D01*
X37469524Y-121517676D02*
X37564762Y-121422438D01*
X37564762Y-121422438D02*
X37707619Y-121374819D01*
X37707619Y-121374819D02*
X37802857Y-121374819D01*
X37802857Y-121374819D02*
X37945714Y-121422438D01*
X37945714Y-121422438D02*
X37993333Y-121470057D01*
X38850476Y-121374819D02*
X38660000Y-121374819D01*
X38660000Y-121374819D02*
X38564762Y-121422438D01*
X38564762Y-121422438D02*
X38517143Y-121470057D01*
X38517143Y-121470057D02*
X38421905Y-121612914D01*
X38421905Y-121612914D02*
X38374286Y-121803390D01*
X38374286Y-121803390D02*
X38374286Y-122184342D01*
X38374286Y-122184342D02*
X38421905Y-122279580D01*
X38421905Y-122279580D02*
X38469524Y-122327200D01*
X38469524Y-122327200D02*
X38564762Y-122374819D01*
X38564762Y-122374819D02*
X38755238Y-122374819D01*
X38755238Y-122374819D02*
X38850476Y-122327200D01*
X38850476Y-122327200D02*
X38898095Y-122279580D01*
X38898095Y-122279580D02*
X38945714Y-122184342D01*
X38945714Y-122184342D02*
X38945714Y-121946247D01*
X38945714Y-121946247D02*
X38898095Y-121851009D01*
X38898095Y-121851009D02*
X38850476Y-121803390D01*
X38850476Y-121803390D02*
X38755238Y-121755771D01*
X38755238Y-121755771D02*
X38564762Y-121755771D01*
X38564762Y-121755771D02*
X38469524Y-121803390D01*
X38469524Y-121803390D02*
X38421905Y-121851009D01*
X38421905Y-121851009D02*
X38374286Y-121946247D01*
X30373333Y-68939580D02*
X30325714Y-68987200D01*
X30325714Y-68987200D02*
X30182857Y-69034819D01*
X30182857Y-69034819D02*
X30087619Y-69034819D01*
X30087619Y-69034819D02*
X29944762Y-68987200D01*
X29944762Y-68987200D02*
X29849524Y-68891961D01*
X29849524Y-68891961D02*
X29801905Y-68796723D01*
X29801905Y-68796723D02*
X29754286Y-68606247D01*
X29754286Y-68606247D02*
X29754286Y-68463390D01*
X29754286Y-68463390D02*
X29801905Y-68272914D01*
X29801905Y-68272914D02*
X29849524Y-68177676D01*
X29849524Y-68177676D02*
X29944762Y-68082438D01*
X29944762Y-68082438D02*
X30087619Y-68034819D01*
X30087619Y-68034819D02*
X30182857Y-68034819D01*
X30182857Y-68034819D02*
X30325714Y-68082438D01*
X30325714Y-68082438D02*
X30373333Y-68130057D01*
X30754286Y-68130057D02*
X30801905Y-68082438D01*
X30801905Y-68082438D02*
X30897143Y-68034819D01*
X30897143Y-68034819D02*
X31135238Y-68034819D01*
X31135238Y-68034819D02*
X31230476Y-68082438D01*
X31230476Y-68082438D02*
X31278095Y-68130057D01*
X31278095Y-68130057D02*
X31325714Y-68225295D01*
X31325714Y-68225295D02*
X31325714Y-68320533D01*
X31325714Y-68320533D02*
X31278095Y-68463390D01*
X31278095Y-68463390D02*
X30706667Y-69034819D01*
X30706667Y-69034819D02*
X31325714Y-69034819D01*
D11*
%TO.C,C4*%
X41910000Y-47800000D02*
X41910000Y-63960000D01*
X41950000Y-47800000D02*
X41950000Y-63960000D01*
X41990000Y-47800000D02*
X41990000Y-63960000D01*
X42030000Y-47801000D02*
X42030000Y-63959000D01*
X42070000Y-47802000D02*
X42070000Y-63958000D01*
X42110000Y-47802000D02*
X42110000Y-63958000D01*
X42150000Y-47804000D02*
X42150000Y-63956000D01*
X42190000Y-47805000D02*
X42190000Y-63955000D01*
X42230000Y-47806000D02*
X42230000Y-63954000D01*
X42270000Y-47808000D02*
X42270000Y-63952000D01*
X42310000Y-47810000D02*
X42310000Y-63950000D01*
X42350000Y-47812000D02*
X42350000Y-63948000D01*
X42390000Y-47814000D02*
X42390000Y-63946000D01*
X42430000Y-47817000D02*
X42430000Y-63943000D01*
X42470000Y-47819000D02*
X42470000Y-63941000D01*
X42510000Y-47822000D02*
X42510000Y-63938000D01*
X42550000Y-47825000D02*
X42550000Y-63935000D01*
X42590000Y-47829000D02*
X42590000Y-63931000D01*
X42630000Y-47832000D02*
X42630000Y-63928000D01*
X42670000Y-47836000D02*
X42670000Y-63924000D01*
X42710000Y-47840000D02*
X42710000Y-63920000D01*
X42750000Y-47844000D02*
X42750000Y-63916000D01*
X42790000Y-47848000D02*
X42790000Y-63912000D01*
X42830000Y-47852000D02*
X42830000Y-63908000D01*
X42870000Y-47857000D02*
X42870000Y-63903000D01*
X42910000Y-47862000D02*
X42910000Y-63898000D01*
X42950000Y-47867000D02*
X42950000Y-63893000D01*
X42990000Y-47872000D02*
X42990000Y-63888000D01*
X43030000Y-47878000D02*
X43030000Y-63882000D01*
X43070000Y-47883000D02*
X43070000Y-63877000D01*
X43110000Y-47889000D02*
X43110000Y-63871000D01*
X43150000Y-47895000D02*
X43150000Y-63865000D01*
X43190000Y-47902000D02*
X43190000Y-63858000D01*
X43230000Y-47908000D02*
X43230000Y-63852000D01*
X43270000Y-47915000D02*
X43270000Y-63845000D01*
X43310000Y-47922000D02*
X43310000Y-63838000D01*
X43350000Y-47929000D02*
X43350000Y-63831000D01*
X43390000Y-47936000D02*
X43390000Y-63824000D01*
X43430000Y-47944000D02*
X43430000Y-63816000D01*
X43470000Y-47951000D02*
X43470000Y-63809000D01*
X43510000Y-47959000D02*
X43510000Y-63801000D01*
X43550000Y-47967000D02*
X43550000Y-63793000D01*
X43590000Y-47976000D02*
X43590000Y-63784000D01*
X43630000Y-47984000D02*
X43630000Y-63776000D01*
X43670000Y-47993000D02*
X43670000Y-63767000D01*
X43710000Y-48002000D02*
X43710000Y-63758000D01*
X43750000Y-48011000D02*
X43750000Y-63749000D01*
X43790000Y-48021000D02*
X43790000Y-63739000D01*
X43830000Y-48030000D02*
X43830000Y-63730000D01*
X43870000Y-48040000D02*
X43870000Y-63720000D01*
X43910000Y-48050000D02*
X43910000Y-63710000D01*
X43950000Y-48060000D02*
X43950000Y-63700000D01*
X43990000Y-48071000D02*
X43990000Y-63689000D01*
X44030000Y-48082000D02*
X44030000Y-63678000D01*
X44070000Y-48093000D02*
X44070000Y-63667000D01*
X44110000Y-48104000D02*
X44110000Y-63656000D01*
X44150000Y-48115000D02*
X44150000Y-63645000D01*
X44190000Y-48127000D02*
X44190000Y-63633000D01*
X44230000Y-48138000D02*
X44230000Y-54440000D01*
X44230000Y-57320000D02*
X44230000Y-63622000D01*
X44270000Y-48151000D02*
X44270000Y-54440000D01*
X44270000Y-57320000D02*
X44270000Y-63609000D01*
X44310000Y-48163000D02*
X44310000Y-54440000D01*
X44310000Y-57320000D02*
X44310000Y-63597000D01*
X44350000Y-48175000D02*
X44350000Y-54440000D01*
X44350000Y-57320000D02*
X44350000Y-63585000D01*
X44390000Y-48188000D02*
X44390000Y-54440000D01*
X44390000Y-57320000D02*
X44390000Y-63572000D01*
X44430000Y-48201000D02*
X44430000Y-54440000D01*
X44430000Y-57320000D02*
X44430000Y-63559000D01*
X44470000Y-48214000D02*
X44470000Y-54440000D01*
X44470000Y-57320000D02*
X44470000Y-63546000D01*
X44510000Y-48228000D02*
X44510000Y-54440000D01*
X44510000Y-57320000D02*
X44510000Y-63532000D01*
X44550000Y-48241000D02*
X44550000Y-54440000D01*
X44550000Y-57320000D02*
X44550000Y-63519000D01*
X44590000Y-48255000D02*
X44590000Y-54440000D01*
X44590000Y-57320000D02*
X44590000Y-63505000D01*
X44630000Y-48269000D02*
X44630000Y-54440000D01*
X44630000Y-57320000D02*
X44630000Y-63491000D01*
X44670000Y-48283000D02*
X44670000Y-54440000D01*
X44670000Y-57320000D02*
X44670000Y-63477000D01*
X44710000Y-48298000D02*
X44710000Y-54440000D01*
X44710000Y-57320000D02*
X44710000Y-63462000D01*
X44750000Y-48313000D02*
X44750000Y-54440000D01*
X44750000Y-57320000D02*
X44750000Y-63447000D01*
X44790000Y-48328000D02*
X44790000Y-54440000D01*
X44790000Y-57320000D02*
X44790000Y-63432000D01*
X44830000Y-48343000D02*
X44830000Y-54440000D01*
X44830000Y-57320000D02*
X44830000Y-63417000D01*
X44870000Y-48359000D02*
X44870000Y-54440000D01*
X44870000Y-57320000D02*
X44870000Y-63401000D01*
X44910000Y-48375000D02*
X44910000Y-54440000D01*
X44910000Y-57320000D02*
X44910000Y-63385000D01*
X44950000Y-48391000D02*
X44950000Y-54440000D01*
X44950000Y-57320000D02*
X44950000Y-63369000D01*
X44990000Y-48407000D02*
X44990000Y-54440000D01*
X44990000Y-57320000D02*
X44990000Y-63353000D01*
X45030000Y-48423000D02*
X45030000Y-54440000D01*
X45030000Y-57320000D02*
X45030000Y-63337000D01*
X45070000Y-48440000D02*
X45070000Y-54440000D01*
X45070000Y-57320000D02*
X45070000Y-63320000D01*
X45110000Y-48457000D02*
X45110000Y-54440000D01*
X45110000Y-57320000D02*
X45110000Y-63303000D01*
X45150000Y-48474000D02*
X45150000Y-54440000D01*
X45150000Y-57320000D02*
X45150000Y-63286000D01*
X45190000Y-48492000D02*
X45190000Y-54440000D01*
X45190000Y-57320000D02*
X45190000Y-63268000D01*
X45230000Y-48510000D02*
X45230000Y-54440000D01*
X45230000Y-57320000D02*
X45230000Y-63250000D01*
X45270000Y-48528000D02*
X45270000Y-54440000D01*
X45270000Y-57320000D02*
X45270000Y-63232000D01*
X45310000Y-48546000D02*
X45310000Y-54440000D01*
X45310000Y-57320000D02*
X45310000Y-63214000D01*
X45350000Y-48565000D02*
X45350000Y-54440000D01*
X45350000Y-57320000D02*
X45350000Y-63195000D01*
X45390000Y-48584000D02*
X45390000Y-54440000D01*
X45390000Y-57320000D02*
X45390000Y-63176000D01*
X45430000Y-48603000D02*
X45430000Y-54440000D01*
X45430000Y-57320000D02*
X45430000Y-63157000D01*
X45470000Y-48622000D02*
X45470000Y-54440000D01*
X45470000Y-57320000D02*
X45470000Y-63138000D01*
X45510000Y-48642000D02*
X45510000Y-54440000D01*
X45510000Y-57320000D02*
X45510000Y-63118000D01*
X45550000Y-48662000D02*
X45550000Y-54440000D01*
X45550000Y-57320000D02*
X45550000Y-63098000D01*
X45590000Y-48682000D02*
X45590000Y-54440000D01*
X45590000Y-57320000D02*
X45590000Y-63078000D01*
X45630000Y-48702000D02*
X45630000Y-54440000D01*
X45630000Y-57320000D02*
X45630000Y-63058000D01*
X45670000Y-48723000D02*
X45670000Y-54440000D01*
X45670000Y-57320000D02*
X45670000Y-63037000D01*
X45710000Y-48744000D02*
X45710000Y-54440000D01*
X45710000Y-57320000D02*
X45710000Y-63016000D01*
X45750000Y-48765000D02*
X45750000Y-54440000D01*
X45750000Y-57320000D02*
X45750000Y-62995000D01*
X45790000Y-48787000D02*
X45790000Y-54440000D01*
X45790000Y-57320000D02*
X45790000Y-62973000D01*
X45830000Y-48809000D02*
X45830000Y-54440000D01*
X45830000Y-57320000D02*
X45830000Y-62951000D01*
X45870000Y-48831000D02*
X45870000Y-54440000D01*
X45870000Y-57320000D02*
X45870000Y-62929000D01*
X45910000Y-48854000D02*
X45910000Y-54440000D01*
X45910000Y-57320000D02*
X45910000Y-62906000D01*
X45950000Y-48876000D02*
X45950000Y-54440000D01*
X45950000Y-57320000D02*
X45950000Y-62884000D01*
X45990000Y-48899000D02*
X45990000Y-54440000D01*
X45990000Y-57320000D02*
X45990000Y-62861000D01*
X46030000Y-48923000D02*
X46030000Y-54440000D01*
X46030000Y-57320000D02*
X46030000Y-62837000D01*
X46070000Y-48947000D02*
X46070000Y-54440000D01*
X46070000Y-57320000D02*
X46070000Y-62813000D01*
X46110000Y-48971000D02*
X46110000Y-54440000D01*
X46110000Y-57320000D02*
X46110000Y-62789000D01*
X46150000Y-48995000D02*
X46150000Y-54440000D01*
X46150000Y-57320000D02*
X46150000Y-62765000D01*
X46190000Y-49020000D02*
X46190000Y-54440000D01*
X46190000Y-57320000D02*
X46190000Y-62740000D01*
X46230000Y-49045000D02*
X46230000Y-54440000D01*
X46230000Y-57320000D02*
X46230000Y-62715000D01*
X46270000Y-49070000D02*
X46270000Y-54440000D01*
X46270000Y-57320000D02*
X46270000Y-62690000D01*
X46310000Y-49095000D02*
X46310000Y-54440000D01*
X46310000Y-57320000D02*
X46310000Y-62665000D01*
X46350000Y-49121000D02*
X46350000Y-54440000D01*
X46350000Y-57320000D02*
X46350000Y-62639000D01*
X46390000Y-49148000D02*
X46390000Y-54440000D01*
X46390000Y-57320000D02*
X46390000Y-62612000D01*
X46430000Y-49174000D02*
X46430000Y-54440000D01*
X46430000Y-57320000D02*
X46430000Y-62586000D01*
X46470000Y-49201000D02*
X46470000Y-54440000D01*
X46470000Y-57320000D02*
X46470000Y-62559000D01*
X46510000Y-49229000D02*
X46510000Y-54440000D01*
X46510000Y-57320000D02*
X46510000Y-62531000D01*
X46550000Y-49256000D02*
X46550000Y-54440000D01*
X46550000Y-57320000D02*
X46550000Y-62504000D01*
X46590000Y-49284000D02*
X46590000Y-54440000D01*
X46590000Y-57320000D02*
X46590000Y-62476000D01*
X46630000Y-49313000D02*
X46630000Y-54440000D01*
X46630000Y-57320000D02*
X46630000Y-62447000D01*
X46670000Y-49341000D02*
X46670000Y-54440000D01*
X46670000Y-57320000D02*
X46670000Y-62419000D01*
X46710000Y-49371000D02*
X46710000Y-54440000D01*
X46710000Y-57320000D02*
X46710000Y-62389000D01*
X46750000Y-49400000D02*
X46750000Y-54440000D01*
X46750000Y-57320000D02*
X46750000Y-62360000D01*
X46790000Y-49430000D02*
X46790000Y-54440000D01*
X46790000Y-57320000D02*
X46790000Y-62330000D01*
X46830000Y-49460000D02*
X46830000Y-54440000D01*
X46830000Y-57320000D02*
X46830000Y-62300000D01*
X46870000Y-49491000D02*
X46870000Y-54440000D01*
X46870000Y-57320000D02*
X46870000Y-62269000D01*
X46910000Y-49522000D02*
X46910000Y-54440000D01*
X46910000Y-57320000D02*
X46910000Y-62238000D01*
X46950000Y-49553000D02*
X46950000Y-54440000D01*
X46950000Y-57320000D02*
X46950000Y-62207000D01*
X46990000Y-49585000D02*
X46990000Y-54440000D01*
X46990000Y-57320000D02*
X46990000Y-62175000D01*
X47030000Y-49618000D02*
X47030000Y-54440000D01*
X47030000Y-57320000D02*
X47030000Y-62142000D01*
X47070000Y-49650000D02*
X47070000Y-54440000D01*
X47070000Y-57320000D02*
X47070000Y-62110000D01*
X47110000Y-49683000D02*
X47110000Y-62077000D01*
X47150000Y-49717000D02*
X47150000Y-62043000D01*
X47190000Y-49751000D02*
X47190000Y-62009000D01*
X47230000Y-49786000D02*
X47230000Y-61974000D01*
X47270000Y-49820000D02*
X47270000Y-61940000D01*
X47310000Y-49856000D02*
X47310000Y-61904000D01*
X47350000Y-49892000D02*
X47350000Y-61868000D01*
X47390000Y-49928000D02*
X47390000Y-61832000D01*
X47430000Y-49965000D02*
X47430000Y-61795000D01*
X47470000Y-50002000D02*
X47470000Y-61758000D01*
X47510000Y-50040000D02*
X47510000Y-61720000D01*
X47550000Y-50078000D02*
X47550000Y-61682000D01*
X47590000Y-50117000D02*
X47590000Y-61643000D01*
X47630000Y-50157000D02*
X47630000Y-61603000D01*
X47670000Y-50197000D02*
X47670000Y-61563000D01*
X47710000Y-50237000D02*
X47710000Y-61523000D01*
X47750000Y-50278000D02*
X47750000Y-61482000D01*
X47790000Y-50320000D02*
X47790000Y-61440000D01*
X47830000Y-50362000D02*
X47830000Y-61398000D01*
X47870000Y-50405000D02*
X47870000Y-61355000D01*
X47910000Y-50449000D02*
X47910000Y-61311000D01*
X47950000Y-50493000D02*
X47950000Y-61267000D01*
X47990000Y-50538000D02*
X47990000Y-61222000D01*
X48030000Y-50583000D02*
X48030000Y-61177000D01*
X48070000Y-50630000D02*
X48070000Y-61130000D01*
X48110000Y-50676000D02*
X48110000Y-61084000D01*
X48150000Y-50724000D02*
X48150000Y-61036000D01*
X48190000Y-50773000D02*
X48190000Y-60987000D01*
X48230000Y-50822000D02*
X48230000Y-60938000D01*
X48270000Y-50872000D02*
X48270000Y-60888000D01*
X48310000Y-50923000D02*
X48310000Y-60837000D01*
X48350000Y-50974000D02*
X48350000Y-60786000D01*
X48390000Y-51027000D02*
X48390000Y-60733000D01*
X48430000Y-51080000D02*
X48430000Y-60680000D01*
X48470000Y-51135000D02*
X48470000Y-60625000D01*
X48510000Y-51190000D02*
X48510000Y-60570000D01*
X48550000Y-51246000D02*
X48550000Y-60514000D01*
X48590000Y-51304000D02*
X48590000Y-60456000D01*
X48630000Y-51362000D02*
X48630000Y-60398000D01*
X48670000Y-51421000D02*
X48670000Y-60339000D01*
X48710000Y-51482000D02*
X48710000Y-60278000D01*
X48750000Y-51544000D02*
X48750000Y-60216000D01*
X48790000Y-51607000D02*
X48790000Y-60153000D01*
X48830000Y-51672000D02*
X48830000Y-60088000D01*
X48870000Y-51738000D02*
X48870000Y-60022000D01*
X48910000Y-51805000D02*
X48910000Y-59955000D01*
X48950000Y-51874000D02*
X48950000Y-59886000D01*
X48990000Y-51944000D02*
X48990000Y-59816000D01*
X49030000Y-52016000D02*
X49030000Y-59744000D01*
X49070000Y-52090000D02*
X49070000Y-59670000D01*
X49110000Y-52166000D02*
X49110000Y-59594000D01*
X49150000Y-52243000D02*
X49150000Y-59517000D01*
X49190000Y-52323000D02*
X49190000Y-59437000D01*
X49230000Y-52405000D02*
X49230000Y-59355000D01*
X49270000Y-52490000D02*
X49270000Y-59270000D01*
X49310000Y-52577000D02*
X49310000Y-59183000D01*
X49350000Y-52667000D02*
X49350000Y-59093000D01*
X49390000Y-52760000D02*
X49390000Y-59000000D01*
X49430000Y-52857000D02*
X49430000Y-58903000D01*
X49470000Y-52957000D02*
X49470000Y-58803000D01*
X49510000Y-53061000D02*
X49510000Y-58699000D01*
X49550000Y-53170000D02*
X49550000Y-58590000D01*
X49590000Y-53283000D02*
X49590000Y-58477000D01*
X49630000Y-53403000D02*
X49630000Y-58357000D01*
X49670000Y-53529000D02*
X49670000Y-58231000D01*
X49710000Y-53663000D02*
X49710000Y-58097000D01*
X49750000Y-53806000D02*
X49750000Y-57954000D01*
X49790000Y-53960000D02*
X49790000Y-57800000D01*
X49830000Y-54129000D02*
X49830000Y-57631000D01*
X49870000Y-54316000D02*
X49870000Y-57444000D01*
X49910000Y-54529000D02*
X49910000Y-57231000D01*
X49950000Y-54783000D02*
X49950000Y-56977000D01*
X49990000Y-55115000D02*
X49990000Y-56645000D01*
X50030000Y-55880000D02*
G75*
G02*
X33790000Y-55880000I-8120000J0D01*
G01*
X33790000Y-55880000D02*
G75*
G02*
X50030000Y-55880000I8120000J0D01*
G01*
%TO.C,D4*%
X40790000Y-165520000D02*
X40790000Y-169760000D01*
X40790000Y-168920000D02*
X43030000Y-168920000D01*
X40790000Y-169040000D02*
X43030000Y-169040000D01*
X40790000Y-169160000D02*
X43030000Y-169160000D01*
X40790000Y-169760000D02*
X43030000Y-169760000D01*
X41910000Y-163600000D02*
X41910000Y-165520000D01*
X41910000Y-171680000D02*
X41910000Y-169760000D01*
X43030000Y-165520000D02*
X40790000Y-165520000D01*
X43030000Y-169760000D02*
X43030000Y-165520000D01*
%TO.C,C10*%
X35750000Y-178970000D02*
X35750000Y-181710000D01*
X35750000Y-178970000D02*
X42990000Y-178970000D01*
X35750000Y-181710000D02*
X42990000Y-181710000D01*
X42990000Y-178970000D02*
X42990000Y-181710000D01*
%TO.C,J1*%
X42816000Y-25110000D02*
X42816000Y-28530000D01*
X42816000Y-28530000D02*
X42816000Y-35850000D01*
X50856000Y-25110000D02*
X42816000Y-25110000D01*
X50856000Y-25110000D02*
X50856000Y-35850000D01*
X50856000Y-35850000D02*
X42816000Y-35850000D01*
%TO.C,U1*%
X35459000Y-139660000D02*
X35459000Y-149900000D01*
X38590000Y-139660000D02*
X38590000Y-149900000D01*
X40100000Y-139660000D02*
X35459000Y-139660000D01*
X40100000Y-139660000D02*
X40100000Y-149900000D01*
X40100000Y-142930000D02*
X38590000Y-142930000D01*
X40100000Y-146631000D02*
X38590000Y-146631000D01*
X40100000Y-149900000D02*
X35459000Y-149900000D01*
%TO.C,C8*%
X30710000Y-151030000D02*
X30710000Y-153770000D01*
X30710000Y-151030000D02*
X37950000Y-151030000D01*
X30710000Y-153770000D02*
X37950000Y-153770000D01*
X37950000Y-151030000D02*
X37950000Y-153770000D01*
%TO.C,U2*%
X35459000Y-162520000D02*
X35459000Y-172760000D01*
X38590000Y-162520000D02*
X38590000Y-172760000D01*
X40100000Y-162520000D02*
X35459000Y-162520000D01*
X40100000Y-162520000D02*
X40100000Y-172760000D01*
X40100000Y-165790000D02*
X38590000Y-165790000D01*
X40100000Y-169491000D02*
X38590000Y-169491000D01*
X40100000Y-172760000D02*
X35459000Y-172760000D01*
%TO.C,D1*%
X30250000Y-30480000D02*
X32170000Y-30480000D01*
X32170000Y-29360000D02*
X32170000Y-31600000D01*
X32170000Y-31600000D02*
X36410000Y-31600000D01*
X32770000Y-29360000D02*
X32770000Y-31600000D01*
X32890000Y-29360000D02*
X32890000Y-31600000D01*
X33010000Y-29360000D02*
X33010000Y-31600000D01*
X36410000Y-29360000D02*
X32170000Y-29360000D01*
X36410000Y-31600000D02*
X36410000Y-29360000D01*
X38330000Y-30480000D02*
X36410000Y-30480000D01*
%TO.C,D3*%
X28090000Y-142660000D02*
X28090000Y-146900000D01*
X28090000Y-146900000D02*
X30330000Y-146900000D01*
X29210000Y-140740000D02*
X29210000Y-142660000D01*
X29210000Y-148820000D02*
X29210000Y-146900000D01*
X30330000Y-142660000D02*
X28090000Y-142660000D01*
X30330000Y-143260000D02*
X28090000Y-143260000D01*
X30330000Y-143380000D02*
X28090000Y-143380000D01*
X30330000Y-143500000D02*
X28090000Y-143500000D01*
X30330000Y-146900000D02*
X30330000Y-142660000D01*
%TO.C,D2*%
X47140000Y-41060000D02*
X47140000Y-45300000D01*
X47140000Y-45300000D02*
X49380000Y-45300000D01*
X48260000Y-39140000D02*
X48260000Y-41060000D01*
X48260000Y-47220000D02*
X48260000Y-45300000D01*
X49380000Y-41060000D02*
X47140000Y-41060000D01*
X49380000Y-41660000D02*
X47140000Y-41660000D01*
X49380000Y-41780000D02*
X47140000Y-41780000D01*
X49380000Y-41900000D02*
X47140000Y-41900000D01*
X49380000Y-45300000D02*
X49380000Y-41060000D01*
%TO.C,C5*%
X41910000Y-78280000D02*
X41910000Y-94440000D01*
X41950000Y-78280000D02*
X41950000Y-94440000D01*
X41990000Y-78280000D02*
X41990000Y-94440000D01*
X42030000Y-78281000D02*
X42030000Y-94439000D01*
X42070000Y-78282000D02*
X42070000Y-94438000D01*
X42110000Y-78282000D02*
X42110000Y-94438000D01*
X42150000Y-78284000D02*
X42150000Y-94436000D01*
X42190000Y-78285000D02*
X42190000Y-94435000D01*
X42230000Y-78286000D02*
X42230000Y-94434000D01*
X42270000Y-78288000D02*
X42270000Y-94432000D01*
X42310000Y-78290000D02*
X42310000Y-94430000D01*
X42350000Y-78292000D02*
X42350000Y-94428000D01*
X42390000Y-78294000D02*
X42390000Y-94426000D01*
X42430000Y-78297000D02*
X42430000Y-94423000D01*
X42470000Y-78299000D02*
X42470000Y-94421000D01*
X42510000Y-78302000D02*
X42510000Y-94418000D01*
X42550000Y-78305000D02*
X42550000Y-94415000D01*
X42590000Y-78309000D02*
X42590000Y-94411000D01*
X42630000Y-78312000D02*
X42630000Y-94408000D01*
X42670000Y-78316000D02*
X42670000Y-94404000D01*
X42710000Y-78320000D02*
X42710000Y-94400000D01*
X42750000Y-78324000D02*
X42750000Y-94396000D01*
X42790000Y-78328000D02*
X42790000Y-94392000D01*
X42830000Y-78332000D02*
X42830000Y-94388000D01*
X42870000Y-78337000D02*
X42870000Y-94383000D01*
X42910000Y-78342000D02*
X42910000Y-94378000D01*
X42950000Y-78347000D02*
X42950000Y-94373000D01*
X42990000Y-78352000D02*
X42990000Y-94368000D01*
X43030000Y-78358000D02*
X43030000Y-94362000D01*
X43070000Y-78363000D02*
X43070000Y-94357000D01*
X43110000Y-78369000D02*
X43110000Y-94351000D01*
X43150000Y-78375000D02*
X43150000Y-94345000D01*
X43190000Y-78382000D02*
X43190000Y-94338000D01*
X43230000Y-78388000D02*
X43230000Y-94332000D01*
X43270000Y-78395000D02*
X43270000Y-94325000D01*
X43310000Y-78402000D02*
X43310000Y-94318000D01*
X43350000Y-78409000D02*
X43350000Y-94311000D01*
X43390000Y-78416000D02*
X43390000Y-94304000D01*
X43430000Y-78424000D02*
X43430000Y-94296000D01*
X43470000Y-78431000D02*
X43470000Y-94289000D01*
X43510000Y-78439000D02*
X43510000Y-94281000D01*
X43550000Y-78447000D02*
X43550000Y-94273000D01*
X43590000Y-78456000D02*
X43590000Y-94264000D01*
X43630000Y-78464000D02*
X43630000Y-94256000D01*
X43670000Y-78473000D02*
X43670000Y-94247000D01*
X43710000Y-78482000D02*
X43710000Y-94238000D01*
X43750000Y-78491000D02*
X43750000Y-94229000D01*
X43790000Y-78501000D02*
X43790000Y-94219000D01*
X43830000Y-78510000D02*
X43830000Y-94210000D01*
X43870000Y-78520000D02*
X43870000Y-94200000D01*
X43910000Y-78530000D02*
X43910000Y-94190000D01*
X43950000Y-78540000D02*
X43950000Y-94180000D01*
X43990000Y-78551000D02*
X43990000Y-94169000D01*
X44030000Y-78562000D02*
X44030000Y-94158000D01*
X44070000Y-78573000D02*
X44070000Y-94147000D01*
X44110000Y-78584000D02*
X44110000Y-94136000D01*
X44150000Y-78595000D02*
X44150000Y-94125000D01*
X44190000Y-78607000D02*
X44190000Y-94113000D01*
X44230000Y-78618000D02*
X44230000Y-84920000D01*
X44230000Y-87800000D02*
X44230000Y-94102000D01*
X44270000Y-78631000D02*
X44270000Y-84920000D01*
X44270000Y-87800000D02*
X44270000Y-94089000D01*
X44310000Y-78643000D02*
X44310000Y-84920000D01*
X44310000Y-87800000D02*
X44310000Y-94077000D01*
X44350000Y-78655000D02*
X44350000Y-84920000D01*
X44350000Y-87800000D02*
X44350000Y-94065000D01*
X44390000Y-78668000D02*
X44390000Y-84920000D01*
X44390000Y-87800000D02*
X44390000Y-94052000D01*
X44430000Y-78681000D02*
X44430000Y-84920000D01*
X44430000Y-87800000D02*
X44430000Y-94039000D01*
X44470000Y-78694000D02*
X44470000Y-84920000D01*
X44470000Y-87800000D02*
X44470000Y-94026000D01*
X44510000Y-78708000D02*
X44510000Y-84920000D01*
X44510000Y-87800000D02*
X44510000Y-94012000D01*
X44550000Y-78721000D02*
X44550000Y-84920000D01*
X44550000Y-87800000D02*
X44550000Y-93999000D01*
X44590000Y-78735000D02*
X44590000Y-84920000D01*
X44590000Y-87800000D02*
X44590000Y-93985000D01*
X44630000Y-78749000D02*
X44630000Y-84920000D01*
X44630000Y-87800000D02*
X44630000Y-93971000D01*
X44670000Y-78763000D02*
X44670000Y-84920000D01*
X44670000Y-87800000D02*
X44670000Y-93957000D01*
X44710000Y-78778000D02*
X44710000Y-84920000D01*
X44710000Y-87800000D02*
X44710000Y-93942000D01*
X44750000Y-78793000D02*
X44750000Y-84920000D01*
X44750000Y-87800000D02*
X44750000Y-93927000D01*
X44790000Y-78808000D02*
X44790000Y-84920000D01*
X44790000Y-87800000D02*
X44790000Y-93912000D01*
X44830000Y-78823000D02*
X44830000Y-84920000D01*
X44830000Y-87800000D02*
X44830000Y-93897000D01*
X44870000Y-78839000D02*
X44870000Y-84920000D01*
X44870000Y-87800000D02*
X44870000Y-93881000D01*
X44910000Y-78855000D02*
X44910000Y-84920000D01*
X44910000Y-87800000D02*
X44910000Y-93865000D01*
X44950000Y-78871000D02*
X44950000Y-84920000D01*
X44950000Y-87800000D02*
X44950000Y-93849000D01*
X44990000Y-78887000D02*
X44990000Y-84920000D01*
X44990000Y-87800000D02*
X44990000Y-93833000D01*
X45030000Y-78903000D02*
X45030000Y-84920000D01*
X45030000Y-87800000D02*
X45030000Y-93817000D01*
X45070000Y-78920000D02*
X45070000Y-84920000D01*
X45070000Y-87800000D02*
X45070000Y-93800000D01*
X45110000Y-78937000D02*
X45110000Y-84920000D01*
X45110000Y-87800000D02*
X45110000Y-93783000D01*
X45150000Y-78954000D02*
X45150000Y-84920000D01*
X45150000Y-87800000D02*
X45150000Y-93766000D01*
X45190000Y-78972000D02*
X45190000Y-84920000D01*
X45190000Y-87800000D02*
X45190000Y-93748000D01*
X45230000Y-78990000D02*
X45230000Y-84920000D01*
X45230000Y-87800000D02*
X45230000Y-93730000D01*
X45270000Y-79008000D02*
X45270000Y-84920000D01*
X45270000Y-87800000D02*
X45270000Y-93712000D01*
X45310000Y-79026000D02*
X45310000Y-84920000D01*
X45310000Y-87800000D02*
X45310000Y-93694000D01*
X45350000Y-79045000D02*
X45350000Y-84920000D01*
X45350000Y-87800000D02*
X45350000Y-93675000D01*
X45390000Y-79064000D02*
X45390000Y-84920000D01*
X45390000Y-87800000D02*
X45390000Y-93656000D01*
X45430000Y-79083000D02*
X45430000Y-84920000D01*
X45430000Y-87800000D02*
X45430000Y-93637000D01*
X45470000Y-79102000D02*
X45470000Y-84920000D01*
X45470000Y-87800000D02*
X45470000Y-93618000D01*
X45510000Y-79122000D02*
X45510000Y-84920000D01*
X45510000Y-87800000D02*
X45510000Y-93598000D01*
X45550000Y-79142000D02*
X45550000Y-84920000D01*
X45550000Y-87800000D02*
X45550000Y-93578000D01*
X45590000Y-79162000D02*
X45590000Y-84920000D01*
X45590000Y-87800000D02*
X45590000Y-93558000D01*
X45630000Y-79182000D02*
X45630000Y-84920000D01*
X45630000Y-87800000D02*
X45630000Y-93538000D01*
X45670000Y-79203000D02*
X45670000Y-84920000D01*
X45670000Y-87800000D02*
X45670000Y-93517000D01*
X45710000Y-79224000D02*
X45710000Y-84920000D01*
X45710000Y-87800000D02*
X45710000Y-93496000D01*
X45750000Y-79245000D02*
X45750000Y-84920000D01*
X45750000Y-87800000D02*
X45750000Y-93475000D01*
X45790000Y-79267000D02*
X45790000Y-84920000D01*
X45790000Y-87800000D02*
X45790000Y-93453000D01*
X45830000Y-79289000D02*
X45830000Y-84920000D01*
X45830000Y-87800000D02*
X45830000Y-93431000D01*
X45870000Y-79311000D02*
X45870000Y-84920000D01*
X45870000Y-87800000D02*
X45870000Y-93409000D01*
X45910000Y-79334000D02*
X45910000Y-84920000D01*
X45910000Y-87800000D02*
X45910000Y-93386000D01*
X45950000Y-79356000D02*
X45950000Y-84920000D01*
X45950000Y-87800000D02*
X45950000Y-93364000D01*
X45990000Y-79379000D02*
X45990000Y-84920000D01*
X45990000Y-87800000D02*
X45990000Y-93341000D01*
X46030000Y-79403000D02*
X46030000Y-84920000D01*
X46030000Y-87800000D02*
X46030000Y-93317000D01*
X46070000Y-79427000D02*
X46070000Y-84920000D01*
X46070000Y-87800000D02*
X46070000Y-93293000D01*
X46110000Y-79451000D02*
X46110000Y-84920000D01*
X46110000Y-87800000D02*
X46110000Y-93269000D01*
X46150000Y-79475000D02*
X46150000Y-84920000D01*
X46150000Y-87800000D02*
X46150000Y-93245000D01*
X46190000Y-79500000D02*
X46190000Y-84920000D01*
X46190000Y-87800000D02*
X46190000Y-93220000D01*
X46230000Y-79525000D02*
X46230000Y-84920000D01*
X46230000Y-87800000D02*
X46230000Y-93195000D01*
X46270000Y-79550000D02*
X46270000Y-84920000D01*
X46270000Y-87800000D02*
X46270000Y-93170000D01*
X46310000Y-79575000D02*
X46310000Y-84920000D01*
X46310000Y-87800000D02*
X46310000Y-93145000D01*
X46350000Y-79601000D02*
X46350000Y-84920000D01*
X46350000Y-87800000D02*
X46350000Y-93119000D01*
X46390000Y-79628000D02*
X46390000Y-84920000D01*
X46390000Y-87800000D02*
X46390000Y-93092000D01*
X46430000Y-79654000D02*
X46430000Y-84920000D01*
X46430000Y-87800000D02*
X46430000Y-93066000D01*
X46470000Y-79681000D02*
X46470000Y-84920000D01*
X46470000Y-87800000D02*
X46470000Y-93039000D01*
X46510000Y-79709000D02*
X46510000Y-84920000D01*
X46510000Y-87800000D02*
X46510000Y-93011000D01*
X46550000Y-79736000D02*
X46550000Y-84920000D01*
X46550000Y-87800000D02*
X46550000Y-92984000D01*
X46590000Y-79764000D02*
X46590000Y-84920000D01*
X46590000Y-87800000D02*
X46590000Y-92956000D01*
X46630000Y-79793000D02*
X46630000Y-84920000D01*
X46630000Y-87800000D02*
X46630000Y-92927000D01*
X46670000Y-79821000D02*
X46670000Y-84920000D01*
X46670000Y-87800000D02*
X46670000Y-92899000D01*
X46710000Y-79851000D02*
X46710000Y-84920000D01*
X46710000Y-87800000D02*
X46710000Y-92869000D01*
X46750000Y-79880000D02*
X46750000Y-84920000D01*
X46750000Y-87800000D02*
X46750000Y-92840000D01*
X46790000Y-79910000D02*
X46790000Y-84920000D01*
X46790000Y-87800000D02*
X46790000Y-92810000D01*
X46830000Y-79940000D02*
X46830000Y-84920000D01*
X46830000Y-87800000D02*
X46830000Y-92780000D01*
X46870000Y-79971000D02*
X46870000Y-84920000D01*
X46870000Y-87800000D02*
X46870000Y-92749000D01*
X46910000Y-80002000D02*
X46910000Y-84920000D01*
X46910000Y-87800000D02*
X46910000Y-92718000D01*
X46950000Y-80033000D02*
X46950000Y-84920000D01*
X46950000Y-87800000D02*
X46950000Y-92687000D01*
X46990000Y-80065000D02*
X46990000Y-84920000D01*
X46990000Y-87800000D02*
X46990000Y-92655000D01*
X47030000Y-80098000D02*
X47030000Y-84920000D01*
X47030000Y-87800000D02*
X47030000Y-92622000D01*
X47070000Y-80130000D02*
X47070000Y-84920000D01*
X47070000Y-87800000D02*
X47070000Y-92590000D01*
X47110000Y-80163000D02*
X47110000Y-92557000D01*
X47150000Y-80197000D02*
X47150000Y-92523000D01*
X47190000Y-80231000D02*
X47190000Y-92489000D01*
X47230000Y-80266000D02*
X47230000Y-92454000D01*
X47270000Y-80300000D02*
X47270000Y-92420000D01*
X47310000Y-80336000D02*
X47310000Y-92384000D01*
X47350000Y-80372000D02*
X47350000Y-92348000D01*
X47390000Y-80408000D02*
X47390000Y-92312000D01*
X47430000Y-80445000D02*
X47430000Y-92275000D01*
X47470000Y-80482000D02*
X47470000Y-92238000D01*
X47510000Y-80520000D02*
X47510000Y-92200000D01*
X47550000Y-80558000D02*
X47550000Y-92162000D01*
X47590000Y-80597000D02*
X47590000Y-92123000D01*
X47630000Y-80637000D02*
X47630000Y-92083000D01*
X47670000Y-80677000D02*
X47670000Y-92043000D01*
X47710000Y-80717000D02*
X47710000Y-92003000D01*
X47750000Y-80758000D02*
X47750000Y-91962000D01*
X47790000Y-80800000D02*
X47790000Y-91920000D01*
X47830000Y-80842000D02*
X47830000Y-91878000D01*
X47870000Y-80885000D02*
X47870000Y-91835000D01*
X47910000Y-80929000D02*
X47910000Y-91791000D01*
X47950000Y-80973000D02*
X47950000Y-91747000D01*
X47990000Y-81018000D02*
X47990000Y-91702000D01*
X48030000Y-81063000D02*
X48030000Y-91657000D01*
X48070000Y-81110000D02*
X48070000Y-91610000D01*
X48110000Y-81156000D02*
X48110000Y-91564000D01*
X48150000Y-81204000D02*
X48150000Y-91516000D01*
X48190000Y-81253000D02*
X48190000Y-91467000D01*
X48230000Y-81302000D02*
X48230000Y-91418000D01*
X48270000Y-81352000D02*
X48270000Y-91368000D01*
X48310000Y-81403000D02*
X48310000Y-91317000D01*
X48350000Y-81454000D02*
X48350000Y-91266000D01*
X48390000Y-81507000D02*
X48390000Y-91213000D01*
X48430000Y-81560000D02*
X48430000Y-91160000D01*
X48470000Y-81615000D02*
X48470000Y-91105000D01*
X48510000Y-81670000D02*
X48510000Y-91050000D01*
X48550000Y-81726000D02*
X48550000Y-90994000D01*
X48590000Y-81784000D02*
X48590000Y-90936000D01*
X48630000Y-81842000D02*
X48630000Y-90878000D01*
X48670000Y-81901000D02*
X48670000Y-90819000D01*
X48710000Y-81962000D02*
X48710000Y-90758000D01*
X48750000Y-82024000D02*
X48750000Y-90696000D01*
X48790000Y-82087000D02*
X48790000Y-90633000D01*
X48830000Y-82152000D02*
X48830000Y-90568000D01*
X48870000Y-82218000D02*
X48870000Y-90502000D01*
X48910000Y-82285000D02*
X48910000Y-90435000D01*
X48950000Y-82354000D02*
X48950000Y-90366000D01*
X48990000Y-82424000D02*
X48990000Y-90296000D01*
X49030000Y-82496000D02*
X49030000Y-90224000D01*
X49070000Y-82570000D02*
X49070000Y-90150000D01*
X49110000Y-82646000D02*
X49110000Y-90074000D01*
X49150000Y-82723000D02*
X49150000Y-89997000D01*
X49190000Y-82803000D02*
X49190000Y-89917000D01*
X49230000Y-82885000D02*
X49230000Y-89835000D01*
X49270000Y-82970000D02*
X49270000Y-89750000D01*
X49310000Y-83057000D02*
X49310000Y-89663000D01*
X49350000Y-83147000D02*
X49350000Y-89573000D01*
X49390000Y-83240000D02*
X49390000Y-89480000D01*
X49430000Y-83337000D02*
X49430000Y-89383000D01*
X49470000Y-83437000D02*
X49470000Y-89283000D01*
X49510000Y-83541000D02*
X49510000Y-89179000D01*
X49550000Y-83650000D02*
X49550000Y-89070000D01*
X49590000Y-83763000D02*
X49590000Y-88957000D01*
X49630000Y-83883000D02*
X49630000Y-88837000D01*
X49670000Y-84009000D02*
X49670000Y-88711000D01*
X49710000Y-84143000D02*
X49710000Y-88577000D01*
X49750000Y-84286000D02*
X49750000Y-88434000D01*
X49790000Y-84440000D02*
X49790000Y-88280000D01*
X49830000Y-84609000D02*
X49830000Y-88111000D01*
X49870000Y-84796000D02*
X49870000Y-87924000D01*
X49910000Y-85009000D02*
X49910000Y-87711000D01*
X49950000Y-85263000D02*
X49950000Y-87457000D01*
X49990000Y-85595000D02*
X49990000Y-87125000D01*
X50030000Y-86360000D02*
G75*
G02*
X33790000Y-86360000I-8120000J0D01*
G01*
X33790000Y-86360000D02*
G75*
G02*
X50030000Y-86360000I8120000J0D01*
G01*
%TO.C,C9*%
X30710000Y-161390000D02*
X30710000Y-158650000D01*
X37950000Y-158650000D02*
X30710000Y-158650000D01*
X37950000Y-161390000D02*
X30710000Y-161390000D01*
X37950000Y-161390000D02*
X37950000Y-158650000D01*
%TO.C,C3*%
X34290000Y-101140000D02*
X34290000Y-117300000D01*
X34330000Y-101140000D02*
X34330000Y-117300000D01*
X34370000Y-101140000D02*
X34370000Y-117300000D01*
X34410000Y-101141000D02*
X34410000Y-117299000D01*
X34450000Y-101142000D02*
X34450000Y-117298000D01*
X34490000Y-101142000D02*
X34490000Y-117298000D01*
X34530000Y-101144000D02*
X34530000Y-117296000D01*
X34570000Y-101145000D02*
X34570000Y-117295000D01*
X34610000Y-101146000D02*
X34610000Y-117294000D01*
X34650000Y-101148000D02*
X34650000Y-117292000D01*
X34690000Y-101150000D02*
X34690000Y-117290000D01*
X34730000Y-101152000D02*
X34730000Y-117288000D01*
X34770000Y-101154000D02*
X34770000Y-117286000D01*
X34810000Y-101157000D02*
X34810000Y-117283000D01*
X34850000Y-101159000D02*
X34850000Y-117281000D01*
X34890000Y-101162000D02*
X34890000Y-117278000D01*
X34930000Y-101165000D02*
X34930000Y-117275000D01*
X34970000Y-101169000D02*
X34970000Y-117271000D01*
X35010000Y-101172000D02*
X35010000Y-117268000D01*
X35050000Y-101176000D02*
X35050000Y-117264000D01*
X35090000Y-101180000D02*
X35090000Y-117260000D01*
X35130000Y-101184000D02*
X35130000Y-117256000D01*
X35170000Y-101188000D02*
X35170000Y-117252000D01*
X35210000Y-101192000D02*
X35210000Y-117248000D01*
X35250000Y-101197000D02*
X35250000Y-117243000D01*
X35290000Y-101202000D02*
X35290000Y-117238000D01*
X35330000Y-101207000D02*
X35330000Y-117233000D01*
X35370000Y-101212000D02*
X35370000Y-117228000D01*
X35410000Y-101218000D02*
X35410000Y-117222000D01*
X35450000Y-101223000D02*
X35450000Y-117217000D01*
X35490000Y-101229000D02*
X35490000Y-117211000D01*
X35530000Y-101235000D02*
X35530000Y-117205000D01*
X35570000Y-101242000D02*
X35570000Y-117198000D01*
X35610000Y-101248000D02*
X35610000Y-117192000D01*
X35650000Y-101255000D02*
X35650000Y-117185000D01*
X35690000Y-101262000D02*
X35690000Y-117178000D01*
X35730000Y-101269000D02*
X35730000Y-117171000D01*
X35770000Y-101276000D02*
X35770000Y-117164000D01*
X35810000Y-101284000D02*
X35810000Y-117156000D01*
X35850000Y-101291000D02*
X35850000Y-117149000D01*
X35890000Y-101299000D02*
X35890000Y-117141000D01*
X35930000Y-101307000D02*
X35930000Y-117133000D01*
X35970000Y-101316000D02*
X35970000Y-117124000D01*
X36010000Y-101324000D02*
X36010000Y-117116000D01*
X36050000Y-101333000D02*
X36050000Y-117107000D01*
X36090000Y-101342000D02*
X36090000Y-117098000D01*
X36130000Y-101351000D02*
X36130000Y-117089000D01*
X36170000Y-101361000D02*
X36170000Y-117079000D01*
X36210000Y-101370000D02*
X36210000Y-117070000D01*
X36250000Y-101380000D02*
X36250000Y-117060000D01*
X36290000Y-101390000D02*
X36290000Y-117050000D01*
X36330000Y-101400000D02*
X36330000Y-117040000D01*
X36370000Y-101411000D02*
X36370000Y-117029000D01*
X36410000Y-101422000D02*
X36410000Y-117018000D01*
X36450000Y-101433000D02*
X36450000Y-117007000D01*
X36490000Y-101444000D02*
X36490000Y-116996000D01*
X36530000Y-101455000D02*
X36530000Y-116985000D01*
X36570000Y-101467000D02*
X36570000Y-116973000D01*
X36610000Y-101478000D02*
X36610000Y-107780000D01*
X36610000Y-110660000D02*
X36610000Y-116962000D01*
X36650000Y-101491000D02*
X36650000Y-107780000D01*
X36650000Y-110660000D02*
X36650000Y-116949000D01*
X36690000Y-101503000D02*
X36690000Y-107780000D01*
X36690000Y-110660000D02*
X36690000Y-116937000D01*
X36730000Y-101515000D02*
X36730000Y-107780000D01*
X36730000Y-110660000D02*
X36730000Y-116925000D01*
X36770000Y-101528000D02*
X36770000Y-107780000D01*
X36770000Y-110660000D02*
X36770000Y-116912000D01*
X36810000Y-101541000D02*
X36810000Y-107780000D01*
X36810000Y-110660000D02*
X36810000Y-116899000D01*
X36850000Y-101554000D02*
X36850000Y-107780000D01*
X36850000Y-110660000D02*
X36850000Y-116886000D01*
X36890000Y-101568000D02*
X36890000Y-107780000D01*
X36890000Y-110660000D02*
X36890000Y-116872000D01*
X36930000Y-101581000D02*
X36930000Y-107780000D01*
X36930000Y-110660000D02*
X36930000Y-116859000D01*
X36970000Y-101595000D02*
X36970000Y-107780000D01*
X36970000Y-110660000D02*
X36970000Y-116845000D01*
X37010000Y-101609000D02*
X37010000Y-107780000D01*
X37010000Y-110660000D02*
X37010000Y-116831000D01*
X37050000Y-101623000D02*
X37050000Y-107780000D01*
X37050000Y-110660000D02*
X37050000Y-116817000D01*
X37090000Y-101638000D02*
X37090000Y-107780000D01*
X37090000Y-110660000D02*
X37090000Y-116802000D01*
X37130000Y-101653000D02*
X37130000Y-107780000D01*
X37130000Y-110660000D02*
X37130000Y-116787000D01*
X37170000Y-101668000D02*
X37170000Y-107780000D01*
X37170000Y-110660000D02*
X37170000Y-116772000D01*
X37210000Y-101683000D02*
X37210000Y-107780000D01*
X37210000Y-110660000D02*
X37210000Y-116757000D01*
X37250000Y-101699000D02*
X37250000Y-107780000D01*
X37250000Y-110660000D02*
X37250000Y-116741000D01*
X37290000Y-101715000D02*
X37290000Y-107780000D01*
X37290000Y-110660000D02*
X37290000Y-116725000D01*
X37330000Y-101731000D02*
X37330000Y-107780000D01*
X37330000Y-110660000D02*
X37330000Y-116709000D01*
X37370000Y-101747000D02*
X37370000Y-107780000D01*
X37370000Y-110660000D02*
X37370000Y-116693000D01*
X37410000Y-101763000D02*
X37410000Y-107780000D01*
X37410000Y-110660000D02*
X37410000Y-116677000D01*
X37450000Y-101780000D02*
X37450000Y-107780000D01*
X37450000Y-110660000D02*
X37450000Y-116660000D01*
X37490000Y-101797000D02*
X37490000Y-107780000D01*
X37490000Y-110660000D02*
X37490000Y-116643000D01*
X37530000Y-101814000D02*
X37530000Y-107780000D01*
X37530000Y-110660000D02*
X37530000Y-116626000D01*
X37570000Y-101832000D02*
X37570000Y-107780000D01*
X37570000Y-110660000D02*
X37570000Y-116608000D01*
X37610000Y-101850000D02*
X37610000Y-107780000D01*
X37610000Y-110660000D02*
X37610000Y-116590000D01*
X37650000Y-101868000D02*
X37650000Y-107780000D01*
X37650000Y-110660000D02*
X37650000Y-116572000D01*
X37690000Y-101886000D02*
X37690000Y-107780000D01*
X37690000Y-110660000D02*
X37690000Y-116554000D01*
X37730000Y-101905000D02*
X37730000Y-107780000D01*
X37730000Y-110660000D02*
X37730000Y-116535000D01*
X37770000Y-101924000D02*
X37770000Y-107780000D01*
X37770000Y-110660000D02*
X37770000Y-116516000D01*
X37810000Y-101943000D02*
X37810000Y-107780000D01*
X37810000Y-110660000D02*
X37810000Y-116497000D01*
X37850000Y-101962000D02*
X37850000Y-107780000D01*
X37850000Y-110660000D02*
X37850000Y-116478000D01*
X37890000Y-101982000D02*
X37890000Y-107780000D01*
X37890000Y-110660000D02*
X37890000Y-116458000D01*
X37930000Y-102002000D02*
X37930000Y-107780000D01*
X37930000Y-110660000D02*
X37930000Y-116438000D01*
X37970000Y-102022000D02*
X37970000Y-107780000D01*
X37970000Y-110660000D02*
X37970000Y-116418000D01*
X38010000Y-102042000D02*
X38010000Y-107780000D01*
X38010000Y-110660000D02*
X38010000Y-116398000D01*
X38050000Y-102063000D02*
X38050000Y-107780000D01*
X38050000Y-110660000D02*
X38050000Y-116377000D01*
X38090000Y-102084000D02*
X38090000Y-107780000D01*
X38090000Y-110660000D02*
X38090000Y-116356000D01*
X38130000Y-102105000D02*
X38130000Y-107780000D01*
X38130000Y-110660000D02*
X38130000Y-116335000D01*
X38170000Y-102127000D02*
X38170000Y-107780000D01*
X38170000Y-110660000D02*
X38170000Y-116313000D01*
X38210000Y-102149000D02*
X38210000Y-107780000D01*
X38210000Y-110660000D02*
X38210000Y-116291000D01*
X38250000Y-102171000D02*
X38250000Y-107780000D01*
X38250000Y-110660000D02*
X38250000Y-116269000D01*
X38290000Y-102194000D02*
X38290000Y-107780000D01*
X38290000Y-110660000D02*
X38290000Y-116246000D01*
X38330000Y-102216000D02*
X38330000Y-107780000D01*
X38330000Y-110660000D02*
X38330000Y-116224000D01*
X38370000Y-102239000D02*
X38370000Y-107780000D01*
X38370000Y-110660000D02*
X38370000Y-116201000D01*
X38410000Y-102263000D02*
X38410000Y-107780000D01*
X38410000Y-110660000D02*
X38410000Y-116177000D01*
X38450000Y-102287000D02*
X38450000Y-107780000D01*
X38450000Y-110660000D02*
X38450000Y-116153000D01*
X38490000Y-102311000D02*
X38490000Y-107780000D01*
X38490000Y-110660000D02*
X38490000Y-116129000D01*
X38530000Y-102335000D02*
X38530000Y-107780000D01*
X38530000Y-110660000D02*
X38530000Y-116105000D01*
X38570000Y-102360000D02*
X38570000Y-107780000D01*
X38570000Y-110660000D02*
X38570000Y-116080000D01*
X38610000Y-102385000D02*
X38610000Y-107780000D01*
X38610000Y-110660000D02*
X38610000Y-116055000D01*
X38650000Y-102410000D02*
X38650000Y-107780000D01*
X38650000Y-110660000D02*
X38650000Y-116030000D01*
X38690000Y-102435000D02*
X38690000Y-107780000D01*
X38690000Y-110660000D02*
X38690000Y-116005000D01*
X38730000Y-102461000D02*
X38730000Y-107780000D01*
X38730000Y-110660000D02*
X38730000Y-115979000D01*
X38770000Y-102488000D02*
X38770000Y-107780000D01*
X38770000Y-110660000D02*
X38770000Y-115952000D01*
X38810000Y-102514000D02*
X38810000Y-107780000D01*
X38810000Y-110660000D02*
X38810000Y-115926000D01*
X38850000Y-102541000D02*
X38850000Y-107780000D01*
X38850000Y-110660000D02*
X38850000Y-115899000D01*
X38890000Y-102569000D02*
X38890000Y-107780000D01*
X38890000Y-110660000D02*
X38890000Y-115871000D01*
X38930000Y-102596000D02*
X38930000Y-107780000D01*
X38930000Y-110660000D02*
X38930000Y-115844000D01*
X38970000Y-102624000D02*
X38970000Y-107780000D01*
X38970000Y-110660000D02*
X38970000Y-115816000D01*
X39010000Y-102653000D02*
X39010000Y-107780000D01*
X39010000Y-110660000D02*
X39010000Y-115787000D01*
X39050000Y-102681000D02*
X39050000Y-107780000D01*
X39050000Y-110660000D02*
X39050000Y-115759000D01*
X39090000Y-102711000D02*
X39090000Y-107780000D01*
X39090000Y-110660000D02*
X39090000Y-115729000D01*
X39130000Y-102740000D02*
X39130000Y-107780000D01*
X39130000Y-110660000D02*
X39130000Y-115700000D01*
X39170000Y-102770000D02*
X39170000Y-107780000D01*
X39170000Y-110660000D02*
X39170000Y-115670000D01*
X39210000Y-102800000D02*
X39210000Y-107780000D01*
X39210000Y-110660000D02*
X39210000Y-115640000D01*
X39250000Y-102831000D02*
X39250000Y-107780000D01*
X39250000Y-110660000D02*
X39250000Y-115609000D01*
X39290000Y-102862000D02*
X39290000Y-107780000D01*
X39290000Y-110660000D02*
X39290000Y-115578000D01*
X39330000Y-102893000D02*
X39330000Y-107780000D01*
X39330000Y-110660000D02*
X39330000Y-115547000D01*
X39370000Y-102925000D02*
X39370000Y-107780000D01*
X39370000Y-110660000D02*
X39370000Y-115515000D01*
X39410000Y-102958000D02*
X39410000Y-107780000D01*
X39410000Y-110660000D02*
X39410000Y-115482000D01*
X39450000Y-102990000D02*
X39450000Y-107780000D01*
X39450000Y-110660000D02*
X39450000Y-115450000D01*
X39490000Y-103023000D02*
X39490000Y-115417000D01*
X39530000Y-103057000D02*
X39530000Y-115383000D01*
X39570000Y-103091000D02*
X39570000Y-115349000D01*
X39610000Y-103126000D02*
X39610000Y-115314000D01*
X39650000Y-103160000D02*
X39650000Y-115280000D01*
X39690000Y-103196000D02*
X39690000Y-115244000D01*
X39730000Y-103232000D02*
X39730000Y-115208000D01*
X39770000Y-103268000D02*
X39770000Y-115172000D01*
X39810000Y-103305000D02*
X39810000Y-115135000D01*
X39850000Y-103342000D02*
X39850000Y-115098000D01*
X39890000Y-103380000D02*
X39890000Y-115060000D01*
X39930000Y-103418000D02*
X39930000Y-115022000D01*
X39970000Y-103457000D02*
X39970000Y-114983000D01*
X40010000Y-103497000D02*
X40010000Y-114943000D01*
X40050000Y-103537000D02*
X40050000Y-114903000D01*
X40090000Y-103577000D02*
X40090000Y-114863000D01*
X40130000Y-103618000D02*
X40130000Y-114822000D01*
X40170000Y-103660000D02*
X40170000Y-114780000D01*
X40210000Y-103702000D02*
X40210000Y-114738000D01*
X40250000Y-103745000D02*
X40250000Y-114695000D01*
X40290000Y-103789000D02*
X40290000Y-114651000D01*
X40330000Y-103833000D02*
X40330000Y-114607000D01*
X40370000Y-103878000D02*
X40370000Y-114562000D01*
X40410000Y-103923000D02*
X40410000Y-114517000D01*
X40450000Y-103970000D02*
X40450000Y-114470000D01*
X40490000Y-104016000D02*
X40490000Y-114424000D01*
X40530000Y-104064000D02*
X40530000Y-114376000D01*
X40570000Y-104113000D02*
X40570000Y-114327000D01*
X40610000Y-104162000D02*
X40610000Y-114278000D01*
X40650000Y-104212000D02*
X40650000Y-114228000D01*
X40690000Y-104263000D02*
X40690000Y-114177000D01*
X40730000Y-104314000D02*
X40730000Y-114126000D01*
X40770000Y-104367000D02*
X40770000Y-114073000D01*
X40810000Y-104420000D02*
X40810000Y-114020000D01*
X40850000Y-104475000D02*
X40850000Y-113965000D01*
X40890000Y-104530000D02*
X40890000Y-113910000D01*
X40930000Y-104586000D02*
X40930000Y-113854000D01*
X40970000Y-104644000D02*
X40970000Y-113796000D01*
X41010000Y-104702000D02*
X41010000Y-113738000D01*
X41050000Y-104761000D02*
X41050000Y-113679000D01*
X41090000Y-104822000D02*
X41090000Y-113618000D01*
X41130000Y-104884000D02*
X41130000Y-113556000D01*
X41170000Y-104947000D02*
X41170000Y-113493000D01*
X41210000Y-105012000D02*
X41210000Y-113428000D01*
X41250000Y-105078000D02*
X41250000Y-113362000D01*
X41290000Y-105145000D02*
X41290000Y-113295000D01*
X41330000Y-105214000D02*
X41330000Y-113226000D01*
X41370000Y-105284000D02*
X41370000Y-113156000D01*
X41410000Y-105356000D02*
X41410000Y-113084000D01*
X41450000Y-105430000D02*
X41450000Y-113010000D01*
X41490000Y-105506000D02*
X41490000Y-112934000D01*
X41530000Y-105583000D02*
X41530000Y-112857000D01*
X41570000Y-105663000D02*
X41570000Y-112777000D01*
X41610000Y-105745000D02*
X41610000Y-112695000D01*
X41650000Y-105830000D02*
X41650000Y-112610000D01*
X41690000Y-105917000D02*
X41690000Y-112523000D01*
X41730000Y-106007000D02*
X41730000Y-112433000D01*
X41770000Y-106100000D02*
X41770000Y-112340000D01*
X41810000Y-106197000D02*
X41810000Y-112243000D01*
X41850000Y-106297000D02*
X41850000Y-112143000D01*
X41890000Y-106401000D02*
X41890000Y-112039000D01*
X41930000Y-106510000D02*
X41930000Y-111930000D01*
X41970000Y-106623000D02*
X41970000Y-111817000D01*
X42010000Y-106743000D02*
X42010000Y-111697000D01*
X42050000Y-106869000D02*
X42050000Y-111571000D01*
X42090000Y-107003000D02*
X42090000Y-111437000D01*
X42130000Y-107146000D02*
X42130000Y-111294000D01*
X42170000Y-107300000D02*
X42170000Y-111140000D01*
X42210000Y-107469000D02*
X42210000Y-110971000D01*
X42250000Y-107656000D02*
X42250000Y-110784000D01*
X42290000Y-107869000D02*
X42290000Y-110571000D01*
X42330000Y-108123000D02*
X42330000Y-110317000D01*
X42370000Y-108455000D02*
X42370000Y-109985000D01*
X42410000Y-109220000D02*
G75*
G02*
X26170000Y-109220000I-8120000J0D01*
G01*
X26170000Y-109220000D02*
G75*
G02*
X42410000Y-109220000I8120000J0D01*
G01*
%TO.C,C7*%
X30710000Y-135790000D02*
X30710000Y-138530000D01*
X30710000Y-135790000D02*
X37950000Y-135790000D01*
X30710000Y-138530000D02*
X37950000Y-138530000D01*
X37950000Y-135790000D02*
X37950000Y-138530000D01*
%TO.C,J2*%
X30484000Y-192239000D02*
X30484000Y-184199000D01*
X42804000Y-184199000D02*
X30484000Y-184199000D01*
X46224000Y-184199000D02*
X42804000Y-184199000D01*
X46224000Y-192239000D02*
X30484000Y-192239000D01*
X46224000Y-192239000D02*
X46224000Y-184199000D01*
%TO.C,C1*%
X34290000Y-32560000D02*
X34290000Y-48720000D01*
X34330000Y-32560000D02*
X34330000Y-48720000D01*
X34370000Y-32560000D02*
X34370000Y-48720000D01*
X34410000Y-32561000D02*
X34410000Y-48719000D01*
X34450000Y-32562000D02*
X34450000Y-48718000D01*
X34490000Y-32562000D02*
X34490000Y-48718000D01*
X34530000Y-32564000D02*
X34530000Y-48716000D01*
X34570000Y-32565000D02*
X34570000Y-48715000D01*
X34610000Y-32566000D02*
X34610000Y-48714000D01*
X34650000Y-32568000D02*
X34650000Y-48712000D01*
X34690000Y-32570000D02*
X34690000Y-48710000D01*
X34730000Y-32572000D02*
X34730000Y-48708000D01*
X34770000Y-32574000D02*
X34770000Y-48706000D01*
X34810000Y-32577000D02*
X34810000Y-48703000D01*
X34850000Y-32579000D02*
X34850000Y-48701000D01*
X34890000Y-32582000D02*
X34890000Y-48698000D01*
X34930000Y-32585000D02*
X34930000Y-48695000D01*
X34970000Y-32589000D02*
X34970000Y-48691000D01*
X35010000Y-32592000D02*
X35010000Y-48688000D01*
X35050000Y-32596000D02*
X35050000Y-48684000D01*
X35090000Y-32600000D02*
X35090000Y-48680000D01*
X35130000Y-32604000D02*
X35130000Y-48676000D01*
X35170000Y-32608000D02*
X35170000Y-48672000D01*
X35210000Y-32612000D02*
X35210000Y-48668000D01*
X35250000Y-32617000D02*
X35250000Y-48663000D01*
X35290000Y-32622000D02*
X35290000Y-48658000D01*
X35330000Y-32627000D02*
X35330000Y-48653000D01*
X35370000Y-32632000D02*
X35370000Y-48648000D01*
X35410000Y-32638000D02*
X35410000Y-48642000D01*
X35450000Y-32643000D02*
X35450000Y-48637000D01*
X35490000Y-32649000D02*
X35490000Y-48631000D01*
X35530000Y-32655000D02*
X35530000Y-48625000D01*
X35570000Y-32662000D02*
X35570000Y-48618000D01*
X35610000Y-32668000D02*
X35610000Y-48612000D01*
X35650000Y-32675000D02*
X35650000Y-48605000D01*
X35690000Y-32682000D02*
X35690000Y-48598000D01*
X35730000Y-32689000D02*
X35730000Y-48591000D01*
X35770000Y-32696000D02*
X35770000Y-48584000D01*
X35810000Y-32704000D02*
X35810000Y-48576000D01*
X35850000Y-32711000D02*
X35850000Y-48569000D01*
X35890000Y-32719000D02*
X35890000Y-48561000D01*
X35930000Y-32727000D02*
X35930000Y-48553000D01*
X35970000Y-32736000D02*
X35970000Y-48544000D01*
X36010000Y-32744000D02*
X36010000Y-48536000D01*
X36050000Y-32753000D02*
X36050000Y-48527000D01*
X36090000Y-32762000D02*
X36090000Y-48518000D01*
X36130000Y-32771000D02*
X36130000Y-48509000D01*
X36170000Y-32781000D02*
X36170000Y-48499000D01*
X36210000Y-32790000D02*
X36210000Y-48490000D01*
X36250000Y-32800000D02*
X36250000Y-48480000D01*
X36290000Y-32810000D02*
X36290000Y-48470000D01*
X36330000Y-32820000D02*
X36330000Y-48460000D01*
X36370000Y-32831000D02*
X36370000Y-48449000D01*
X36410000Y-32842000D02*
X36410000Y-48438000D01*
X36450000Y-32853000D02*
X36450000Y-48427000D01*
X36490000Y-32864000D02*
X36490000Y-48416000D01*
X36530000Y-32875000D02*
X36530000Y-48405000D01*
X36570000Y-32887000D02*
X36570000Y-48393000D01*
X36610000Y-32898000D02*
X36610000Y-39200000D01*
X36610000Y-42080000D02*
X36610000Y-48382000D01*
X36650000Y-32911000D02*
X36650000Y-39200000D01*
X36650000Y-42080000D02*
X36650000Y-48369000D01*
X36690000Y-32923000D02*
X36690000Y-39200000D01*
X36690000Y-42080000D02*
X36690000Y-48357000D01*
X36730000Y-32935000D02*
X36730000Y-39200000D01*
X36730000Y-42080000D02*
X36730000Y-48345000D01*
X36770000Y-32948000D02*
X36770000Y-39200000D01*
X36770000Y-42080000D02*
X36770000Y-48332000D01*
X36810000Y-32961000D02*
X36810000Y-39200000D01*
X36810000Y-42080000D02*
X36810000Y-48319000D01*
X36850000Y-32974000D02*
X36850000Y-39200000D01*
X36850000Y-42080000D02*
X36850000Y-48306000D01*
X36890000Y-32988000D02*
X36890000Y-39200000D01*
X36890000Y-42080000D02*
X36890000Y-48292000D01*
X36930000Y-33001000D02*
X36930000Y-39200000D01*
X36930000Y-42080000D02*
X36930000Y-48279000D01*
X36970000Y-33015000D02*
X36970000Y-39200000D01*
X36970000Y-42080000D02*
X36970000Y-48265000D01*
X37010000Y-33029000D02*
X37010000Y-39200000D01*
X37010000Y-42080000D02*
X37010000Y-48251000D01*
X37050000Y-33043000D02*
X37050000Y-39200000D01*
X37050000Y-42080000D02*
X37050000Y-48237000D01*
X37090000Y-33058000D02*
X37090000Y-39200000D01*
X37090000Y-42080000D02*
X37090000Y-48222000D01*
X37130000Y-33073000D02*
X37130000Y-39200000D01*
X37130000Y-42080000D02*
X37130000Y-48207000D01*
X37170000Y-33088000D02*
X37170000Y-39200000D01*
X37170000Y-42080000D02*
X37170000Y-48192000D01*
X37210000Y-33103000D02*
X37210000Y-39200000D01*
X37210000Y-42080000D02*
X37210000Y-48177000D01*
X37250000Y-33119000D02*
X37250000Y-39200000D01*
X37250000Y-42080000D02*
X37250000Y-48161000D01*
X37290000Y-33135000D02*
X37290000Y-39200000D01*
X37290000Y-42080000D02*
X37290000Y-48145000D01*
X37330000Y-33151000D02*
X37330000Y-39200000D01*
X37330000Y-42080000D02*
X37330000Y-48129000D01*
X37370000Y-33167000D02*
X37370000Y-39200000D01*
X37370000Y-42080000D02*
X37370000Y-48113000D01*
X37410000Y-33183000D02*
X37410000Y-39200000D01*
X37410000Y-42080000D02*
X37410000Y-48097000D01*
X37450000Y-33200000D02*
X37450000Y-39200000D01*
X37450000Y-42080000D02*
X37450000Y-48080000D01*
X37490000Y-33217000D02*
X37490000Y-39200000D01*
X37490000Y-42080000D02*
X37490000Y-48063000D01*
X37530000Y-33234000D02*
X37530000Y-39200000D01*
X37530000Y-42080000D02*
X37530000Y-48046000D01*
X37570000Y-33252000D02*
X37570000Y-39200000D01*
X37570000Y-42080000D02*
X37570000Y-48028000D01*
X37610000Y-33270000D02*
X37610000Y-39200000D01*
X37610000Y-42080000D02*
X37610000Y-48010000D01*
X37650000Y-33288000D02*
X37650000Y-39200000D01*
X37650000Y-42080000D02*
X37650000Y-47992000D01*
X37690000Y-33306000D02*
X37690000Y-39200000D01*
X37690000Y-42080000D02*
X37690000Y-47974000D01*
X37730000Y-33325000D02*
X37730000Y-39200000D01*
X37730000Y-42080000D02*
X37730000Y-47955000D01*
X37770000Y-33344000D02*
X37770000Y-39200000D01*
X37770000Y-42080000D02*
X37770000Y-47936000D01*
X37810000Y-33363000D02*
X37810000Y-39200000D01*
X37810000Y-42080000D02*
X37810000Y-47917000D01*
X37850000Y-33382000D02*
X37850000Y-39200000D01*
X37850000Y-42080000D02*
X37850000Y-47898000D01*
X37890000Y-33402000D02*
X37890000Y-39200000D01*
X37890000Y-42080000D02*
X37890000Y-47878000D01*
X37930000Y-33422000D02*
X37930000Y-39200000D01*
X37930000Y-42080000D02*
X37930000Y-47858000D01*
X37970000Y-33442000D02*
X37970000Y-39200000D01*
X37970000Y-42080000D02*
X37970000Y-47838000D01*
X38010000Y-33462000D02*
X38010000Y-39200000D01*
X38010000Y-42080000D02*
X38010000Y-47818000D01*
X38050000Y-33483000D02*
X38050000Y-39200000D01*
X38050000Y-42080000D02*
X38050000Y-47797000D01*
X38090000Y-33504000D02*
X38090000Y-39200000D01*
X38090000Y-42080000D02*
X38090000Y-47776000D01*
X38130000Y-33525000D02*
X38130000Y-39200000D01*
X38130000Y-42080000D02*
X38130000Y-47755000D01*
X38170000Y-33547000D02*
X38170000Y-39200000D01*
X38170000Y-42080000D02*
X38170000Y-47733000D01*
X38210000Y-33569000D02*
X38210000Y-39200000D01*
X38210000Y-42080000D02*
X38210000Y-47711000D01*
X38250000Y-33591000D02*
X38250000Y-39200000D01*
X38250000Y-42080000D02*
X38250000Y-47689000D01*
X38290000Y-33614000D02*
X38290000Y-39200000D01*
X38290000Y-42080000D02*
X38290000Y-47666000D01*
X38330000Y-33636000D02*
X38330000Y-39200000D01*
X38330000Y-42080000D02*
X38330000Y-47644000D01*
X38370000Y-33659000D02*
X38370000Y-39200000D01*
X38370000Y-42080000D02*
X38370000Y-47621000D01*
X38410000Y-33683000D02*
X38410000Y-39200000D01*
X38410000Y-42080000D02*
X38410000Y-47597000D01*
X38450000Y-33707000D02*
X38450000Y-39200000D01*
X38450000Y-42080000D02*
X38450000Y-47573000D01*
X38490000Y-33731000D02*
X38490000Y-39200000D01*
X38490000Y-42080000D02*
X38490000Y-47549000D01*
X38530000Y-33755000D02*
X38530000Y-39200000D01*
X38530000Y-42080000D02*
X38530000Y-47525000D01*
X38570000Y-33780000D02*
X38570000Y-39200000D01*
X38570000Y-42080000D02*
X38570000Y-47500000D01*
X38610000Y-33805000D02*
X38610000Y-39200000D01*
X38610000Y-42080000D02*
X38610000Y-47475000D01*
X38650000Y-33830000D02*
X38650000Y-39200000D01*
X38650000Y-42080000D02*
X38650000Y-47450000D01*
X38690000Y-33855000D02*
X38690000Y-39200000D01*
X38690000Y-42080000D02*
X38690000Y-47425000D01*
X38730000Y-33881000D02*
X38730000Y-39200000D01*
X38730000Y-42080000D02*
X38730000Y-47399000D01*
X38770000Y-33908000D02*
X38770000Y-39200000D01*
X38770000Y-42080000D02*
X38770000Y-47372000D01*
X38810000Y-33934000D02*
X38810000Y-39200000D01*
X38810000Y-42080000D02*
X38810000Y-47346000D01*
X38850000Y-33961000D02*
X38850000Y-39200000D01*
X38850000Y-42080000D02*
X38850000Y-47319000D01*
X38890000Y-33989000D02*
X38890000Y-39200000D01*
X38890000Y-42080000D02*
X38890000Y-47291000D01*
X38930000Y-34016000D02*
X38930000Y-39200000D01*
X38930000Y-42080000D02*
X38930000Y-47264000D01*
X38970000Y-34044000D02*
X38970000Y-39200000D01*
X38970000Y-42080000D02*
X38970000Y-47236000D01*
X39010000Y-34073000D02*
X39010000Y-39200000D01*
X39010000Y-42080000D02*
X39010000Y-47207000D01*
X39050000Y-34101000D02*
X39050000Y-39200000D01*
X39050000Y-42080000D02*
X39050000Y-47179000D01*
X39090000Y-34131000D02*
X39090000Y-39200000D01*
X39090000Y-42080000D02*
X39090000Y-47149000D01*
X39130000Y-34160000D02*
X39130000Y-39200000D01*
X39130000Y-42080000D02*
X39130000Y-47120000D01*
X39170000Y-34190000D02*
X39170000Y-39200000D01*
X39170000Y-42080000D02*
X39170000Y-47090000D01*
X39210000Y-34220000D02*
X39210000Y-39200000D01*
X39210000Y-42080000D02*
X39210000Y-47060000D01*
X39250000Y-34251000D02*
X39250000Y-39200000D01*
X39250000Y-42080000D02*
X39250000Y-47029000D01*
X39290000Y-34282000D02*
X39290000Y-39200000D01*
X39290000Y-42080000D02*
X39290000Y-46998000D01*
X39330000Y-34313000D02*
X39330000Y-39200000D01*
X39330000Y-42080000D02*
X39330000Y-46967000D01*
X39370000Y-34345000D02*
X39370000Y-39200000D01*
X39370000Y-42080000D02*
X39370000Y-46935000D01*
X39410000Y-34378000D02*
X39410000Y-39200000D01*
X39410000Y-42080000D02*
X39410000Y-46902000D01*
X39450000Y-34410000D02*
X39450000Y-39200000D01*
X39450000Y-42080000D02*
X39450000Y-46870000D01*
X39490000Y-34443000D02*
X39490000Y-46837000D01*
X39530000Y-34477000D02*
X39530000Y-46803000D01*
X39570000Y-34511000D02*
X39570000Y-46769000D01*
X39610000Y-34546000D02*
X39610000Y-46734000D01*
X39650000Y-34580000D02*
X39650000Y-46700000D01*
X39690000Y-34616000D02*
X39690000Y-46664000D01*
X39730000Y-34652000D02*
X39730000Y-46628000D01*
X39770000Y-34688000D02*
X39770000Y-46592000D01*
X39810000Y-34725000D02*
X39810000Y-46555000D01*
X39850000Y-34762000D02*
X39850000Y-46518000D01*
X39890000Y-34800000D02*
X39890000Y-46480000D01*
X39930000Y-34838000D02*
X39930000Y-46442000D01*
X39970000Y-34877000D02*
X39970000Y-46403000D01*
X40010000Y-34917000D02*
X40010000Y-46363000D01*
X40050000Y-34957000D02*
X40050000Y-46323000D01*
X40090000Y-34997000D02*
X40090000Y-46283000D01*
X40130000Y-35038000D02*
X40130000Y-46242000D01*
X40170000Y-35080000D02*
X40170000Y-46200000D01*
X40210000Y-35122000D02*
X40210000Y-46158000D01*
X40250000Y-35165000D02*
X40250000Y-46115000D01*
X40290000Y-35209000D02*
X40290000Y-46071000D01*
X40330000Y-35253000D02*
X40330000Y-46027000D01*
X40370000Y-35298000D02*
X40370000Y-45982000D01*
X40410000Y-35343000D02*
X40410000Y-45937000D01*
X40450000Y-35390000D02*
X40450000Y-45890000D01*
X40490000Y-35436000D02*
X40490000Y-45844000D01*
X40530000Y-35484000D02*
X40530000Y-45796000D01*
X40570000Y-35533000D02*
X40570000Y-45747000D01*
X40610000Y-35582000D02*
X40610000Y-45698000D01*
X40650000Y-35632000D02*
X40650000Y-45648000D01*
X40690000Y-35683000D02*
X40690000Y-45597000D01*
X40730000Y-35734000D02*
X40730000Y-45546000D01*
X40770000Y-35787000D02*
X40770000Y-45493000D01*
X40810000Y-35840000D02*
X40810000Y-45440000D01*
X40850000Y-35895000D02*
X40850000Y-45385000D01*
X40890000Y-35950000D02*
X40890000Y-45330000D01*
X40930000Y-36006000D02*
X40930000Y-45274000D01*
X40970000Y-36064000D02*
X40970000Y-45216000D01*
X41010000Y-36122000D02*
X41010000Y-45158000D01*
X41050000Y-36181000D02*
X41050000Y-45099000D01*
X41090000Y-36242000D02*
X41090000Y-45038000D01*
X41130000Y-36304000D02*
X41130000Y-44976000D01*
X41170000Y-36367000D02*
X41170000Y-44913000D01*
X41210000Y-36432000D02*
X41210000Y-44848000D01*
X41250000Y-36498000D02*
X41250000Y-44782000D01*
X41290000Y-36565000D02*
X41290000Y-44715000D01*
X41330000Y-36634000D02*
X41330000Y-44646000D01*
X41370000Y-36704000D02*
X41370000Y-44576000D01*
X41410000Y-36776000D02*
X41410000Y-44504000D01*
X41450000Y-36850000D02*
X41450000Y-44430000D01*
X41490000Y-36926000D02*
X41490000Y-44354000D01*
X41530000Y-37003000D02*
X41530000Y-44277000D01*
X41570000Y-37083000D02*
X41570000Y-44197000D01*
X41610000Y-37165000D02*
X41610000Y-44115000D01*
X41650000Y-37250000D02*
X41650000Y-44030000D01*
X41690000Y-37337000D02*
X41690000Y-43943000D01*
X41730000Y-37427000D02*
X41730000Y-43853000D01*
X41770000Y-37520000D02*
X41770000Y-43760000D01*
X41810000Y-37617000D02*
X41810000Y-43663000D01*
X41850000Y-37717000D02*
X41850000Y-43563000D01*
X41890000Y-37821000D02*
X41890000Y-43459000D01*
X41930000Y-37930000D02*
X41930000Y-43350000D01*
X41970000Y-38043000D02*
X41970000Y-43237000D01*
X42010000Y-38163000D02*
X42010000Y-43117000D01*
X42050000Y-38289000D02*
X42050000Y-42991000D01*
X42090000Y-38423000D02*
X42090000Y-42857000D01*
X42130000Y-38566000D02*
X42130000Y-42714000D01*
X42170000Y-38720000D02*
X42170000Y-42560000D01*
X42210000Y-38889000D02*
X42210000Y-42391000D01*
X42250000Y-39076000D02*
X42250000Y-42204000D01*
X42290000Y-39289000D02*
X42290000Y-41991000D01*
X42330000Y-39543000D02*
X42330000Y-41737000D01*
X42370000Y-39875000D02*
X42370000Y-41405000D01*
X42410000Y-40640000D02*
G75*
G02*
X26170000Y-40640000I-8120000J0D01*
G01*
X26170000Y-40640000D02*
G75*
G02*
X42410000Y-40640000I8120000J0D01*
G01*
%TO.C,C6*%
X41910000Y-116380000D02*
X41910000Y-132540000D01*
X41950000Y-116380000D02*
X41950000Y-132540000D01*
X41990000Y-116380000D02*
X41990000Y-132540000D01*
X42030000Y-116381000D02*
X42030000Y-132539000D01*
X42070000Y-116382000D02*
X42070000Y-132538000D01*
X42110000Y-116382000D02*
X42110000Y-132538000D01*
X42150000Y-116384000D02*
X42150000Y-132536000D01*
X42190000Y-116385000D02*
X42190000Y-132535000D01*
X42230000Y-116386000D02*
X42230000Y-132534000D01*
X42270000Y-116388000D02*
X42270000Y-132532000D01*
X42310000Y-116390000D02*
X42310000Y-132530000D01*
X42350000Y-116392000D02*
X42350000Y-132528000D01*
X42390000Y-116394000D02*
X42390000Y-132526000D01*
X42430000Y-116397000D02*
X42430000Y-132523000D01*
X42470000Y-116399000D02*
X42470000Y-132521000D01*
X42510000Y-116402000D02*
X42510000Y-132518000D01*
X42550000Y-116405000D02*
X42550000Y-132515000D01*
X42590000Y-116409000D02*
X42590000Y-132511000D01*
X42630000Y-116412000D02*
X42630000Y-132508000D01*
X42670000Y-116416000D02*
X42670000Y-132504000D01*
X42710000Y-116420000D02*
X42710000Y-132500000D01*
X42750000Y-116424000D02*
X42750000Y-132496000D01*
X42790000Y-116428000D02*
X42790000Y-132492000D01*
X42830000Y-116432000D02*
X42830000Y-132488000D01*
X42870000Y-116437000D02*
X42870000Y-132483000D01*
X42910000Y-116442000D02*
X42910000Y-132478000D01*
X42950000Y-116447000D02*
X42950000Y-132473000D01*
X42990000Y-116452000D02*
X42990000Y-132468000D01*
X43030000Y-116458000D02*
X43030000Y-132462000D01*
X43070000Y-116463000D02*
X43070000Y-132457000D01*
X43110000Y-116469000D02*
X43110000Y-132451000D01*
X43150000Y-116475000D02*
X43150000Y-132445000D01*
X43190000Y-116482000D02*
X43190000Y-132438000D01*
X43230000Y-116488000D02*
X43230000Y-132432000D01*
X43270000Y-116495000D02*
X43270000Y-132425000D01*
X43310000Y-116502000D02*
X43310000Y-132418000D01*
X43350000Y-116509000D02*
X43350000Y-132411000D01*
X43390000Y-116516000D02*
X43390000Y-132404000D01*
X43430000Y-116524000D02*
X43430000Y-132396000D01*
X43470000Y-116531000D02*
X43470000Y-132389000D01*
X43510000Y-116539000D02*
X43510000Y-132381000D01*
X43550000Y-116547000D02*
X43550000Y-132373000D01*
X43590000Y-116556000D02*
X43590000Y-132364000D01*
X43630000Y-116564000D02*
X43630000Y-132356000D01*
X43670000Y-116573000D02*
X43670000Y-132347000D01*
X43710000Y-116582000D02*
X43710000Y-132338000D01*
X43750000Y-116591000D02*
X43750000Y-132329000D01*
X43790000Y-116601000D02*
X43790000Y-132319000D01*
X43830000Y-116610000D02*
X43830000Y-132310000D01*
X43870000Y-116620000D02*
X43870000Y-132300000D01*
X43910000Y-116630000D02*
X43910000Y-132290000D01*
X43950000Y-116640000D02*
X43950000Y-132280000D01*
X43990000Y-116651000D02*
X43990000Y-132269000D01*
X44030000Y-116662000D02*
X44030000Y-132258000D01*
X44070000Y-116673000D02*
X44070000Y-132247000D01*
X44110000Y-116684000D02*
X44110000Y-132236000D01*
X44150000Y-116695000D02*
X44150000Y-132225000D01*
X44190000Y-116707000D02*
X44190000Y-132213000D01*
X44230000Y-116718000D02*
X44230000Y-123020000D01*
X44230000Y-125900000D02*
X44230000Y-132202000D01*
X44270000Y-116731000D02*
X44270000Y-123020000D01*
X44270000Y-125900000D02*
X44270000Y-132189000D01*
X44310000Y-116743000D02*
X44310000Y-123020000D01*
X44310000Y-125900000D02*
X44310000Y-132177000D01*
X44350000Y-116755000D02*
X44350000Y-123020000D01*
X44350000Y-125900000D02*
X44350000Y-132165000D01*
X44390000Y-116768000D02*
X44390000Y-123020000D01*
X44390000Y-125900000D02*
X44390000Y-132152000D01*
X44430000Y-116781000D02*
X44430000Y-123020000D01*
X44430000Y-125900000D02*
X44430000Y-132139000D01*
X44470000Y-116794000D02*
X44470000Y-123020000D01*
X44470000Y-125900000D02*
X44470000Y-132126000D01*
X44510000Y-116808000D02*
X44510000Y-123020000D01*
X44510000Y-125900000D02*
X44510000Y-132112000D01*
X44550000Y-116821000D02*
X44550000Y-123020000D01*
X44550000Y-125900000D02*
X44550000Y-132099000D01*
X44590000Y-116835000D02*
X44590000Y-123020000D01*
X44590000Y-125900000D02*
X44590000Y-132085000D01*
X44630000Y-116849000D02*
X44630000Y-123020000D01*
X44630000Y-125900000D02*
X44630000Y-132071000D01*
X44670000Y-116863000D02*
X44670000Y-123020000D01*
X44670000Y-125900000D02*
X44670000Y-132057000D01*
X44710000Y-116878000D02*
X44710000Y-123020000D01*
X44710000Y-125900000D02*
X44710000Y-132042000D01*
X44750000Y-116893000D02*
X44750000Y-123020000D01*
X44750000Y-125900000D02*
X44750000Y-132027000D01*
X44790000Y-116908000D02*
X44790000Y-123020000D01*
X44790000Y-125900000D02*
X44790000Y-132012000D01*
X44830000Y-116923000D02*
X44830000Y-123020000D01*
X44830000Y-125900000D02*
X44830000Y-131997000D01*
X44870000Y-116939000D02*
X44870000Y-123020000D01*
X44870000Y-125900000D02*
X44870000Y-131981000D01*
X44910000Y-116955000D02*
X44910000Y-123020000D01*
X44910000Y-125900000D02*
X44910000Y-131965000D01*
X44950000Y-116971000D02*
X44950000Y-123020000D01*
X44950000Y-125900000D02*
X44950000Y-131949000D01*
X44990000Y-116987000D02*
X44990000Y-123020000D01*
X44990000Y-125900000D02*
X44990000Y-131933000D01*
X45030000Y-117003000D02*
X45030000Y-123020000D01*
X45030000Y-125900000D02*
X45030000Y-131917000D01*
X45070000Y-117020000D02*
X45070000Y-123020000D01*
X45070000Y-125900000D02*
X45070000Y-131900000D01*
X45110000Y-117037000D02*
X45110000Y-123020000D01*
X45110000Y-125900000D02*
X45110000Y-131883000D01*
X45150000Y-117054000D02*
X45150000Y-123020000D01*
X45150000Y-125900000D02*
X45150000Y-131866000D01*
X45190000Y-117072000D02*
X45190000Y-123020000D01*
X45190000Y-125900000D02*
X45190000Y-131848000D01*
X45230000Y-117090000D02*
X45230000Y-123020000D01*
X45230000Y-125900000D02*
X45230000Y-131830000D01*
X45270000Y-117108000D02*
X45270000Y-123020000D01*
X45270000Y-125900000D02*
X45270000Y-131812000D01*
X45310000Y-117126000D02*
X45310000Y-123020000D01*
X45310000Y-125900000D02*
X45310000Y-131794000D01*
X45350000Y-117145000D02*
X45350000Y-123020000D01*
X45350000Y-125900000D02*
X45350000Y-131775000D01*
X45390000Y-117164000D02*
X45390000Y-123020000D01*
X45390000Y-125900000D02*
X45390000Y-131756000D01*
X45430000Y-117183000D02*
X45430000Y-123020000D01*
X45430000Y-125900000D02*
X45430000Y-131737000D01*
X45470000Y-117202000D02*
X45470000Y-123020000D01*
X45470000Y-125900000D02*
X45470000Y-131718000D01*
X45510000Y-117222000D02*
X45510000Y-123020000D01*
X45510000Y-125900000D02*
X45510000Y-131698000D01*
X45550000Y-117242000D02*
X45550000Y-123020000D01*
X45550000Y-125900000D02*
X45550000Y-131678000D01*
X45590000Y-117262000D02*
X45590000Y-123020000D01*
X45590000Y-125900000D02*
X45590000Y-131658000D01*
X45630000Y-117282000D02*
X45630000Y-123020000D01*
X45630000Y-125900000D02*
X45630000Y-131638000D01*
X45670000Y-117303000D02*
X45670000Y-123020000D01*
X45670000Y-125900000D02*
X45670000Y-131617000D01*
X45710000Y-117324000D02*
X45710000Y-123020000D01*
X45710000Y-125900000D02*
X45710000Y-131596000D01*
X45750000Y-117345000D02*
X45750000Y-123020000D01*
X45750000Y-125900000D02*
X45750000Y-131575000D01*
X45790000Y-117367000D02*
X45790000Y-123020000D01*
X45790000Y-125900000D02*
X45790000Y-131553000D01*
X45830000Y-117389000D02*
X45830000Y-123020000D01*
X45830000Y-125900000D02*
X45830000Y-131531000D01*
X45870000Y-117411000D02*
X45870000Y-123020000D01*
X45870000Y-125900000D02*
X45870000Y-131509000D01*
X45910000Y-117434000D02*
X45910000Y-123020000D01*
X45910000Y-125900000D02*
X45910000Y-131486000D01*
X45950000Y-117456000D02*
X45950000Y-123020000D01*
X45950000Y-125900000D02*
X45950000Y-131464000D01*
X45990000Y-117479000D02*
X45990000Y-123020000D01*
X45990000Y-125900000D02*
X45990000Y-131441000D01*
X46030000Y-117503000D02*
X46030000Y-123020000D01*
X46030000Y-125900000D02*
X46030000Y-131417000D01*
X46070000Y-117527000D02*
X46070000Y-123020000D01*
X46070000Y-125900000D02*
X46070000Y-131393000D01*
X46110000Y-117551000D02*
X46110000Y-123020000D01*
X46110000Y-125900000D02*
X46110000Y-131369000D01*
X46150000Y-117575000D02*
X46150000Y-123020000D01*
X46150000Y-125900000D02*
X46150000Y-131345000D01*
X46190000Y-117600000D02*
X46190000Y-123020000D01*
X46190000Y-125900000D02*
X46190000Y-131320000D01*
X46230000Y-117625000D02*
X46230000Y-123020000D01*
X46230000Y-125900000D02*
X46230000Y-131295000D01*
X46270000Y-117650000D02*
X46270000Y-123020000D01*
X46270000Y-125900000D02*
X46270000Y-131270000D01*
X46310000Y-117675000D02*
X46310000Y-123020000D01*
X46310000Y-125900000D02*
X46310000Y-131245000D01*
X46350000Y-117701000D02*
X46350000Y-123020000D01*
X46350000Y-125900000D02*
X46350000Y-131219000D01*
X46390000Y-117728000D02*
X46390000Y-123020000D01*
X46390000Y-125900000D02*
X46390000Y-131192000D01*
X46430000Y-117754000D02*
X46430000Y-123020000D01*
X46430000Y-125900000D02*
X46430000Y-131166000D01*
X46470000Y-117781000D02*
X46470000Y-123020000D01*
X46470000Y-125900000D02*
X46470000Y-131139000D01*
X46510000Y-117809000D02*
X46510000Y-123020000D01*
X46510000Y-125900000D02*
X46510000Y-131111000D01*
X46550000Y-117836000D02*
X46550000Y-123020000D01*
X46550000Y-125900000D02*
X46550000Y-131084000D01*
X46590000Y-117864000D02*
X46590000Y-123020000D01*
X46590000Y-125900000D02*
X46590000Y-131056000D01*
X46630000Y-117893000D02*
X46630000Y-123020000D01*
X46630000Y-125900000D02*
X46630000Y-131027000D01*
X46670000Y-117921000D02*
X46670000Y-123020000D01*
X46670000Y-125900000D02*
X46670000Y-130999000D01*
X46710000Y-117951000D02*
X46710000Y-123020000D01*
X46710000Y-125900000D02*
X46710000Y-130969000D01*
X46750000Y-117980000D02*
X46750000Y-123020000D01*
X46750000Y-125900000D02*
X46750000Y-130940000D01*
X46790000Y-118010000D02*
X46790000Y-123020000D01*
X46790000Y-125900000D02*
X46790000Y-130910000D01*
X46830000Y-118040000D02*
X46830000Y-123020000D01*
X46830000Y-125900000D02*
X46830000Y-130880000D01*
X46870000Y-118071000D02*
X46870000Y-123020000D01*
X46870000Y-125900000D02*
X46870000Y-130849000D01*
X46910000Y-118102000D02*
X46910000Y-123020000D01*
X46910000Y-125900000D02*
X46910000Y-130818000D01*
X46950000Y-118133000D02*
X46950000Y-123020000D01*
X46950000Y-125900000D02*
X46950000Y-130787000D01*
X46990000Y-118165000D02*
X46990000Y-123020000D01*
X46990000Y-125900000D02*
X46990000Y-130755000D01*
X47030000Y-118198000D02*
X47030000Y-123020000D01*
X47030000Y-125900000D02*
X47030000Y-130722000D01*
X47070000Y-118230000D02*
X47070000Y-123020000D01*
X47070000Y-125900000D02*
X47070000Y-130690000D01*
X47110000Y-118263000D02*
X47110000Y-130657000D01*
X47150000Y-118297000D02*
X47150000Y-130623000D01*
X47190000Y-118331000D02*
X47190000Y-130589000D01*
X47230000Y-118366000D02*
X47230000Y-130554000D01*
X47270000Y-118400000D02*
X47270000Y-130520000D01*
X47310000Y-118436000D02*
X47310000Y-130484000D01*
X47350000Y-118472000D02*
X47350000Y-130448000D01*
X47390000Y-118508000D02*
X47390000Y-130412000D01*
X47430000Y-118545000D02*
X47430000Y-130375000D01*
X47470000Y-118582000D02*
X47470000Y-130338000D01*
X47510000Y-118620000D02*
X47510000Y-130300000D01*
X47550000Y-118658000D02*
X47550000Y-130262000D01*
X47590000Y-118697000D02*
X47590000Y-130223000D01*
X47630000Y-118737000D02*
X47630000Y-130183000D01*
X47670000Y-118777000D02*
X47670000Y-130143000D01*
X47710000Y-118817000D02*
X47710000Y-130103000D01*
X47750000Y-118858000D02*
X47750000Y-130062000D01*
X47790000Y-118900000D02*
X47790000Y-130020000D01*
X47830000Y-118942000D02*
X47830000Y-129978000D01*
X47870000Y-118985000D02*
X47870000Y-129935000D01*
X47910000Y-119029000D02*
X47910000Y-129891000D01*
X47950000Y-119073000D02*
X47950000Y-129847000D01*
X47990000Y-119118000D02*
X47990000Y-129802000D01*
X48030000Y-119163000D02*
X48030000Y-129757000D01*
X48070000Y-119210000D02*
X48070000Y-129710000D01*
X48110000Y-119256000D02*
X48110000Y-129664000D01*
X48150000Y-119304000D02*
X48150000Y-129616000D01*
X48190000Y-119353000D02*
X48190000Y-129567000D01*
X48230000Y-119402000D02*
X48230000Y-129518000D01*
X48270000Y-119452000D02*
X48270000Y-129468000D01*
X48310000Y-119503000D02*
X48310000Y-129417000D01*
X48350000Y-119554000D02*
X48350000Y-129366000D01*
X48390000Y-119607000D02*
X48390000Y-129313000D01*
X48430000Y-119660000D02*
X48430000Y-129260000D01*
X48470000Y-119715000D02*
X48470000Y-129205000D01*
X48510000Y-119770000D02*
X48510000Y-129150000D01*
X48550000Y-119826000D02*
X48550000Y-129094000D01*
X48590000Y-119884000D02*
X48590000Y-129036000D01*
X48630000Y-119942000D02*
X48630000Y-128978000D01*
X48670000Y-120001000D02*
X48670000Y-128919000D01*
X48710000Y-120062000D02*
X48710000Y-128858000D01*
X48750000Y-120124000D02*
X48750000Y-128796000D01*
X48790000Y-120187000D02*
X48790000Y-128733000D01*
X48830000Y-120252000D02*
X48830000Y-128668000D01*
X48870000Y-120318000D02*
X48870000Y-128602000D01*
X48910000Y-120385000D02*
X48910000Y-128535000D01*
X48950000Y-120454000D02*
X48950000Y-128466000D01*
X48990000Y-120524000D02*
X48990000Y-128396000D01*
X49030000Y-120596000D02*
X49030000Y-128324000D01*
X49070000Y-120670000D02*
X49070000Y-128250000D01*
X49110000Y-120746000D02*
X49110000Y-128174000D01*
X49150000Y-120823000D02*
X49150000Y-128097000D01*
X49190000Y-120903000D02*
X49190000Y-128017000D01*
X49230000Y-120985000D02*
X49230000Y-127935000D01*
X49270000Y-121070000D02*
X49270000Y-127850000D01*
X49310000Y-121157000D02*
X49310000Y-127763000D01*
X49350000Y-121247000D02*
X49350000Y-127673000D01*
X49390000Y-121340000D02*
X49390000Y-127580000D01*
X49430000Y-121437000D02*
X49430000Y-127483000D01*
X49470000Y-121537000D02*
X49470000Y-127383000D01*
X49510000Y-121641000D02*
X49510000Y-127279000D01*
X49550000Y-121750000D02*
X49550000Y-127170000D01*
X49590000Y-121863000D02*
X49590000Y-127057000D01*
X49630000Y-121983000D02*
X49630000Y-126937000D01*
X49670000Y-122109000D02*
X49670000Y-126811000D01*
X49710000Y-122243000D02*
X49710000Y-126677000D01*
X49750000Y-122386000D02*
X49750000Y-126534000D01*
X49790000Y-122540000D02*
X49790000Y-126380000D01*
X49830000Y-122709000D02*
X49830000Y-126211000D01*
X49870000Y-122896000D02*
X49870000Y-126024000D01*
X49910000Y-123109000D02*
X49910000Y-125811000D01*
X49950000Y-123363000D02*
X49950000Y-125557000D01*
X49990000Y-123695000D02*
X49990000Y-125225000D01*
X50030000Y-124460000D02*
G75*
G02*
X33790000Y-124460000I-8120000J0D01*
G01*
X33790000Y-124460000D02*
G75*
G02*
X50030000Y-124460000I8120000J0D01*
G01*
%TO.C,C2*%
X34290000Y-63040000D02*
X34290000Y-79200000D01*
X34330000Y-63040000D02*
X34330000Y-79200000D01*
X34370000Y-63040000D02*
X34370000Y-79200000D01*
X34410000Y-63041000D02*
X34410000Y-79199000D01*
X34450000Y-63042000D02*
X34450000Y-79198000D01*
X34490000Y-63042000D02*
X34490000Y-79198000D01*
X34530000Y-63044000D02*
X34530000Y-79196000D01*
X34570000Y-63045000D02*
X34570000Y-79195000D01*
X34610000Y-63046000D02*
X34610000Y-79194000D01*
X34650000Y-63048000D02*
X34650000Y-79192000D01*
X34690000Y-63050000D02*
X34690000Y-79190000D01*
X34730000Y-63052000D02*
X34730000Y-79188000D01*
X34770000Y-63054000D02*
X34770000Y-79186000D01*
X34810000Y-63057000D02*
X34810000Y-79183000D01*
X34850000Y-63059000D02*
X34850000Y-79181000D01*
X34890000Y-63062000D02*
X34890000Y-79178000D01*
X34930000Y-63065000D02*
X34930000Y-79175000D01*
X34970000Y-63069000D02*
X34970000Y-79171000D01*
X35010000Y-63072000D02*
X35010000Y-79168000D01*
X35050000Y-63076000D02*
X35050000Y-79164000D01*
X35090000Y-63080000D02*
X35090000Y-79160000D01*
X35130000Y-63084000D02*
X35130000Y-79156000D01*
X35170000Y-63088000D02*
X35170000Y-79152000D01*
X35210000Y-63092000D02*
X35210000Y-79148000D01*
X35250000Y-63097000D02*
X35250000Y-79143000D01*
X35290000Y-63102000D02*
X35290000Y-79138000D01*
X35330000Y-63107000D02*
X35330000Y-79133000D01*
X35370000Y-63112000D02*
X35370000Y-79128000D01*
X35410000Y-63118000D02*
X35410000Y-79122000D01*
X35450000Y-63123000D02*
X35450000Y-79117000D01*
X35490000Y-63129000D02*
X35490000Y-79111000D01*
X35530000Y-63135000D02*
X35530000Y-79105000D01*
X35570000Y-63142000D02*
X35570000Y-79098000D01*
X35610000Y-63148000D02*
X35610000Y-79092000D01*
X35650000Y-63155000D02*
X35650000Y-79085000D01*
X35690000Y-63162000D02*
X35690000Y-79078000D01*
X35730000Y-63169000D02*
X35730000Y-79071000D01*
X35770000Y-63176000D02*
X35770000Y-79064000D01*
X35810000Y-63184000D02*
X35810000Y-79056000D01*
X35850000Y-63191000D02*
X35850000Y-79049000D01*
X35890000Y-63199000D02*
X35890000Y-79041000D01*
X35930000Y-63207000D02*
X35930000Y-79033000D01*
X35970000Y-63216000D02*
X35970000Y-79024000D01*
X36010000Y-63224000D02*
X36010000Y-79016000D01*
X36050000Y-63233000D02*
X36050000Y-79007000D01*
X36090000Y-63242000D02*
X36090000Y-78998000D01*
X36130000Y-63251000D02*
X36130000Y-78989000D01*
X36170000Y-63261000D02*
X36170000Y-78979000D01*
X36210000Y-63270000D02*
X36210000Y-78970000D01*
X36250000Y-63280000D02*
X36250000Y-78960000D01*
X36290000Y-63290000D02*
X36290000Y-78950000D01*
X36330000Y-63300000D02*
X36330000Y-78940000D01*
X36370000Y-63311000D02*
X36370000Y-78929000D01*
X36410000Y-63322000D02*
X36410000Y-78918000D01*
X36450000Y-63333000D02*
X36450000Y-78907000D01*
X36490000Y-63344000D02*
X36490000Y-78896000D01*
X36530000Y-63355000D02*
X36530000Y-78885000D01*
X36570000Y-63367000D02*
X36570000Y-78873000D01*
X36610000Y-63378000D02*
X36610000Y-69680000D01*
X36610000Y-72560000D02*
X36610000Y-78862000D01*
X36650000Y-63391000D02*
X36650000Y-69680000D01*
X36650000Y-72560000D02*
X36650000Y-78849000D01*
X36690000Y-63403000D02*
X36690000Y-69680000D01*
X36690000Y-72560000D02*
X36690000Y-78837000D01*
X36730000Y-63415000D02*
X36730000Y-69680000D01*
X36730000Y-72560000D02*
X36730000Y-78825000D01*
X36770000Y-63428000D02*
X36770000Y-69680000D01*
X36770000Y-72560000D02*
X36770000Y-78812000D01*
X36810000Y-63441000D02*
X36810000Y-69680000D01*
X36810000Y-72560000D02*
X36810000Y-78799000D01*
X36850000Y-63454000D02*
X36850000Y-69680000D01*
X36850000Y-72560000D02*
X36850000Y-78786000D01*
X36890000Y-63468000D02*
X36890000Y-69680000D01*
X36890000Y-72560000D02*
X36890000Y-78772000D01*
X36930000Y-63481000D02*
X36930000Y-69680000D01*
X36930000Y-72560000D02*
X36930000Y-78759000D01*
X36970000Y-63495000D02*
X36970000Y-69680000D01*
X36970000Y-72560000D02*
X36970000Y-78745000D01*
X37010000Y-63509000D02*
X37010000Y-69680000D01*
X37010000Y-72560000D02*
X37010000Y-78731000D01*
X37050000Y-63523000D02*
X37050000Y-69680000D01*
X37050000Y-72560000D02*
X37050000Y-78717000D01*
X37090000Y-63538000D02*
X37090000Y-69680000D01*
X37090000Y-72560000D02*
X37090000Y-78702000D01*
X37130000Y-63553000D02*
X37130000Y-69680000D01*
X37130000Y-72560000D02*
X37130000Y-78687000D01*
X37170000Y-63568000D02*
X37170000Y-69680000D01*
X37170000Y-72560000D02*
X37170000Y-78672000D01*
X37210000Y-63583000D02*
X37210000Y-69680000D01*
X37210000Y-72560000D02*
X37210000Y-78657000D01*
X37250000Y-63599000D02*
X37250000Y-69680000D01*
X37250000Y-72560000D02*
X37250000Y-78641000D01*
X37290000Y-63615000D02*
X37290000Y-69680000D01*
X37290000Y-72560000D02*
X37290000Y-78625000D01*
X37330000Y-63631000D02*
X37330000Y-69680000D01*
X37330000Y-72560000D02*
X37330000Y-78609000D01*
X37370000Y-63647000D02*
X37370000Y-69680000D01*
X37370000Y-72560000D02*
X37370000Y-78593000D01*
X37410000Y-63663000D02*
X37410000Y-69680000D01*
X37410000Y-72560000D02*
X37410000Y-78577000D01*
X37450000Y-63680000D02*
X37450000Y-69680000D01*
X37450000Y-72560000D02*
X37450000Y-78560000D01*
X37490000Y-63697000D02*
X37490000Y-69680000D01*
X37490000Y-72560000D02*
X37490000Y-78543000D01*
X37530000Y-63714000D02*
X37530000Y-69680000D01*
X37530000Y-72560000D02*
X37530000Y-78526000D01*
X37570000Y-63732000D02*
X37570000Y-69680000D01*
X37570000Y-72560000D02*
X37570000Y-78508000D01*
X37610000Y-63750000D02*
X37610000Y-69680000D01*
X37610000Y-72560000D02*
X37610000Y-78490000D01*
X37650000Y-63768000D02*
X37650000Y-69680000D01*
X37650000Y-72560000D02*
X37650000Y-78472000D01*
X37690000Y-63786000D02*
X37690000Y-69680000D01*
X37690000Y-72560000D02*
X37690000Y-78454000D01*
X37730000Y-63805000D02*
X37730000Y-69680000D01*
X37730000Y-72560000D02*
X37730000Y-78435000D01*
X37770000Y-63824000D02*
X37770000Y-69680000D01*
X37770000Y-72560000D02*
X37770000Y-78416000D01*
X37810000Y-63843000D02*
X37810000Y-69680000D01*
X37810000Y-72560000D02*
X37810000Y-78397000D01*
X37850000Y-63862000D02*
X37850000Y-69680000D01*
X37850000Y-72560000D02*
X37850000Y-78378000D01*
X37890000Y-63882000D02*
X37890000Y-69680000D01*
X37890000Y-72560000D02*
X37890000Y-78358000D01*
X37930000Y-63902000D02*
X37930000Y-69680000D01*
X37930000Y-72560000D02*
X37930000Y-78338000D01*
X37970000Y-63922000D02*
X37970000Y-69680000D01*
X37970000Y-72560000D02*
X37970000Y-78318000D01*
X38010000Y-63942000D02*
X38010000Y-69680000D01*
X38010000Y-72560000D02*
X38010000Y-78298000D01*
X38050000Y-63963000D02*
X38050000Y-69680000D01*
X38050000Y-72560000D02*
X38050000Y-78277000D01*
X38090000Y-63984000D02*
X38090000Y-69680000D01*
X38090000Y-72560000D02*
X38090000Y-78256000D01*
X38130000Y-64005000D02*
X38130000Y-69680000D01*
X38130000Y-72560000D02*
X38130000Y-78235000D01*
X38170000Y-64027000D02*
X38170000Y-69680000D01*
X38170000Y-72560000D02*
X38170000Y-78213000D01*
X38210000Y-64049000D02*
X38210000Y-69680000D01*
X38210000Y-72560000D02*
X38210000Y-78191000D01*
X38250000Y-64071000D02*
X38250000Y-69680000D01*
X38250000Y-72560000D02*
X38250000Y-78169000D01*
X38290000Y-64094000D02*
X38290000Y-69680000D01*
X38290000Y-72560000D02*
X38290000Y-78146000D01*
X38330000Y-64116000D02*
X38330000Y-69680000D01*
X38330000Y-72560000D02*
X38330000Y-78124000D01*
X38370000Y-64139000D02*
X38370000Y-69680000D01*
X38370000Y-72560000D02*
X38370000Y-78101000D01*
X38410000Y-64163000D02*
X38410000Y-69680000D01*
X38410000Y-72560000D02*
X38410000Y-78077000D01*
X38450000Y-64187000D02*
X38450000Y-69680000D01*
X38450000Y-72560000D02*
X38450000Y-78053000D01*
X38490000Y-64211000D02*
X38490000Y-69680000D01*
X38490000Y-72560000D02*
X38490000Y-78029000D01*
X38530000Y-64235000D02*
X38530000Y-69680000D01*
X38530000Y-72560000D02*
X38530000Y-78005000D01*
X38570000Y-64260000D02*
X38570000Y-69680000D01*
X38570000Y-72560000D02*
X38570000Y-77980000D01*
X38610000Y-64285000D02*
X38610000Y-69680000D01*
X38610000Y-72560000D02*
X38610000Y-77955000D01*
X38650000Y-64310000D02*
X38650000Y-69680000D01*
X38650000Y-72560000D02*
X38650000Y-77930000D01*
X38690000Y-64335000D02*
X38690000Y-69680000D01*
X38690000Y-72560000D02*
X38690000Y-77905000D01*
X38730000Y-64361000D02*
X38730000Y-69680000D01*
X38730000Y-72560000D02*
X38730000Y-77879000D01*
X38770000Y-64388000D02*
X38770000Y-69680000D01*
X38770000Y-72560000D02*
X38770000Y-77852000D01*
X38810000Y-64414000D02*
X38810000Y-69680000D01*
X38810000Y-72560000D02*
X38810000Y-77826000D01*
X38850000Y-64441000D02*
X38850000Y-69680000D01*
X38850000Y-72560000D02*
X38850000Y-77799000D01*
X38890000Y-64469000D02*
X38890000Y-69680000D01*
X38890000Y-72560000D02*
X38890000Y-77771000D01*
X38930000Y-64496000D02*
X38930000Y-69680000D01*
X38930000Y-72560000D02*
X38930000Y-77744000D01*
X38970000Y-64524000D02*
X38970000Y-69680000D01*
X38970000Y-72560000D02*
X38970000Y-77716000D01*
X39010000Y-64553000D02*
X39010000Y-69680000D01*
X39010000Y-72560000D02*
X39010000Y-77687000D01*
X39050000Y-64581000D02*
X39050000Y-69680000D01*
X39050000Y-72560000D02*
X39050000Y-77659000D01*
X39090000Y-64611000D02*
X39090000Y-69680000D01*
X39090000Y-72560000D02*
X39090000Y-77629000D01*
X39130000Y-64640000D02*
X39130000Y-69680000D01*
X39130000Y-72560000D02*
X39130000Y-77600000D01*
X39170000Y-64670000D02*
X39170000Y-69680000D01*
X39170000Y-72560000D02*
X39170000Y-77570000D01*
X39210000Y-64700000D02*
X39210000Y-69680000D01*
X39210000Y-72560000D02*
X39210000Y-77540000D01*
X39250000Y-64731000D02*
X39250000Y-69680000D01*
X39250000Y-72560000D02*
X39250000Y-77509000D01*
X39290000Y-64762000D02*
X39290000Y-69680000D01*
X39290000Y-72560000D02*
X39290000Y-77478000D01*
X39330000Y-64793000D02*
X39330000Y-69680000D01*
X39330000Y-72560000D02*
X39330000Y-77447000D01*
X39370000Y-64825000D02*
X39370000Y-69680000D01*
X39370000Y-72560000D02*
X39370000Y-77415000D01*
X39410000Y-64858000D02*
X39410000Y-69680000D01*
X39410000Y-72560000D02*
X39410000Y-77382000D01*
X39450000Y-64890000D02*
X39450000Y-69680000D01*
X39450000Y-72560000D02*
X39450000Y-77350000D01*
X39490000Y-64923000D02*
X39490000Y-77317000D01*
X39530000Y-64957000D02*
X39530000Y-77283000D01*
X39570000Y-64991000D02*
X39570000Y-77249000D01*
X39610000Y-65026000D02*
X39610000Y-77214000D01*
X39650000Y-65060000D02*
X39650000Y-77180000D01*
X39690000Y-65096000D02*
X39690000Y-77144000D01*
X39730000Y-65132000D02*
X39730000Y-77108000D01*
X39770000Y-65168000D02*
X39770000Y-77072000D01*
X39810000Y-65205000D02*
X39810000Y-77035000D01*
X39850000Y-65242000D02*
X39850000Y-76998000D01*
X39890000Y-65280000D02*
X39890000Y-76960000D01*
X39930000Y-65318000D02*
X39930000Y-76922000D01*
X39970000Y-65357000D02*
X39970000Y-76883000D01*
X40010000Y-65397000D02*
X40010000Y-76843000D01*
X40050000Y-65437000D02*
X40050000Y-76803000D01*
X40090000Y-65477000D02*
X40090000Y-76763000D01*
X40130000Y-65518000D02*
X40130000Y-76722000D01*
X40170000Y-65560000D02*
X40170000Y-76680000D01*
X40210000Y-65602000D02*
X40210000Y-76638000D01*
X40250000Y-65645000D02*
X40250000Y-76595000D01*
X40290000Y-65689000D02*
X40290000Y-76551000D01*
X40330000Y-65733000D02*
X40330000Y-76507000D01*
X40370000Y-65778000D02*
X40370000Y-76462000D01*
X40410000Y-65823000D02*
X40410000Y-76417000D01*
X40450000Y-65870000D02*
X40450000Y-76370000D01*
X40490000Y-65916000D02*
X40490000Y-76324000D01*
X40530000Y-65964000D02*
X40530000Y-76276000D01*
X40570000Y-66013000D02*
X40570000Y-76227000D01*
X40610000Y-66062000D02*
X40610000Y-76178000D01*
X40650000Y-66112000D02*
X40650000Y-76128000D01*
X40690000Y-66163000D02*
X40690000Y-76077000D01*
X40730000Y-66214000D02*
X40730000Y-76026000D01*
X40770000Y-66267000D02*
X40770000Y-75973000D01*
X40810000Y-66320000D02*
X40810000Y-75920000D01*
X40850000Y-66375000D02*
X40850000Y-75865000D01*
X40890000Y-66430000D02*
X40890000Y-75810000D01*
X40930000Y-66486000D02*
X40930000Y-75754000D01*
X40970000Y-66544000D02*
X40970000Y-75696000D01*
X41010000Y-66602000D02*
X41010000Y-75638000D01*
X41050000Y-66661000D02*
X41050000Y-75579000D01*
X41090000Y-66722000D02*
X41090000Y-75518000D01*
X41130000Y-66784000D02*
X41130000Y-75456000D01*
X41170000Y-66847000D02*
X41170000Y-75393000D01*
X41210000Y-66912000D02*
X41210000Y-75328000D01*
X41250000Y-66978000D02*
X41250000Y-75262000D01*
X41290000Y-67045000D02*
X41290000Y-75195000D01*
X41330000Y-67114000D02*
X41330000Y-75126000D01*
X41370000Y-67184000D02*
X41370000Y-75056000D01*
X41410000Y-67256000D02*
X41410000Y-74984000D01*
X41450000Y-67330000D02*
X41450000Y-74910000D01*
X41490000Y-67406000D02*
X41490000Y-74834000D01*
X41530000Y-67483000D02*
X41530000Y-74757000D01*
X41570000Y-67563000D02*
X41570000Y-74677000D01*
X41610000Y-67645000D02*
X41610000Y-74595000D01*
X41650000Y-67730000D02*
X41650000Y-74510000D01*
X41690000Y-67817000D02*
X41690000Y-74423000D01*
X41730000Y-67907000D02*
X41730000Y-74333000D01*
X41770000Y-68000000D02*
X41770000Y-74240000D01*
X41810000Y-68097000D02*
X41810000Y-74143000D01*
X41850000Y-68197000D02*
X41850000Y-74043000D01*
X41890000Y-68301000D02*
X41890000Y-73939000D01*
X41930000Y-68410000D02*
X41930000Y-73830000D01*
X41970000Y-68523000D02*
X41970000Y-73717000D01*
X42010000Y-68643000D02*
X42010000Y-73597000D01*
X42050000Y-68769000D02*
X42050000Y-73471000D01*
X42090000Y-68903000D02*
X42090000Y-73337000D01*
X42130000Y-69046000D02*
X42130000Y-73194000D01*
X42170000Y-69200000D02*
X42170000Y-73040000D01*
X42210000Y-69369000D02*
X42210000Y-72871000D01*
X42250000Y-69556000D02*
X42250000Y-72684000D01*
X42290000Y-69769000D02*
X42290000Y-72471000D01*
X42330000Y-70023000D02*
X42330000Y-72217000D01*
X42370000Y-70355000D02*
X42370000Y-71885000D01*
X42410000Y-71120000D02*
G75*
G02*
X26170000Y-71120000I-8120000J0D01*
G01*
X26170000Y-71120000D02*
G75*
G02*
X42410000Y-71120000I8120000J0D01*
G01*
%TD*%
M02*
