%TF.GenerationSoftware,KiCad,Pcbnew,9.0.6*%
%TF.CreationDate,2026-04-22T22:04:04-07:00*%
%TF.ProjectId,modulinPowerSupply,6d6f6475-6c69-46e5-906f-776572537570,rev?*%
%TF.SameCoordinates,Original*%
%TF.FileFunction,Copper,L2,Bot*%
%TF.FilePolarity,Positive*%
%FSLAX46Y46*%
G04 Gerber Fmt 4.6, Leading zero omitted, Abs format (unit mm)*
G04 Created by KiCad (PCBNEW 9.0.6) date 2026-04-22 22:04:04*
%MOMM*%
%LPD*%
G01*
G04 APERTURE LIST*
G04 Aperture macros list*
%AMRoundRect*
0 Rectangle with rounded corners*
0 $1 Rounding radius*
0 $2 $3 $4 $5 $6 $7 $8 $9 X,Y pos of 4 corners*
0 Add a 4 corners polygon primitive as box body*
4,1,4,$2,$3,$4,$5,$6,$7,$8,$9,$2,$3,0*
0 Add four circle primitives for the rounded corners*
1,1,$1+$1,$2,$3*
1,1,$1+$1,$4,$5*
1,1,$1+$1,$6,$7*
1,1,$1+$1,$8,$9*
0 Add four rect primitives between the rounded corners*
20,1,$1+$1,$2,$3,$4,$5,0*
20,1,$1+$1,$4,$5,$6,$7,0*
20,1,$1+$1,$6,$7,$8,$9,0*
20,1,$1+$1,$8,$9,$2,$3,0*%
G04 Aperture macros list end*
%TA.AperFunction,ComponentPad*%
%ADD10C,1.778000*%
%TD*%
%TA.AperFunction,SMDPad,CuDef*%
%ADD11C,2.540000*%
%TD*%
%TA.AperFunction,SMDPad,CuDef*%
%ADD12R,2.540000X2.540000*%
%TD*%
%TA.AperFunction,ComponentPad*%
%ADD13R,1.727200X1.727200*%
%TD*%
%TA.AperFunction,ComponentPad*%
%ADD14C,1.727200*%
%TD*%
%TA.AperFunction,ComponentPad*%
%ADD15C,1.320800*%
%TD*%
%TA.AperFunction,SMDPad,CuDef*%
%ADD16C,1.727200*%
%TD*%
%TA.AperFunction,ComponentPad*%
%ADD17C,6.000000*%
%TD*%
%TA.AperFunction,ComponentPad*%
%ADD18C,1.905000*%
%TD*%
%TA.AperFunction,SMDPad,CuDef*%
%ADD19C,2.794000*%
%TD*%
%TA.AperFunction,ComponentPad*%
%ADD20RoundRect,0.250000X-1.020000X0.613600X-1.020000X-0.613600X1.020000X-0.613600X1.020000X0.613600X0*%
%TD*%
%TA.AperFunction,ComponentPad*%
%ADD21O,2.540000X1.727200*%
%TD*%
%TA.AperFunction,Conductor*%
%ADD22C,0.762000*%
%TD*%
G04 APERTURE END LIST*
D10*
%TO.P,C4,1*%
%TO.N,GND*%
X38160000Y-55880000D03*
D11*
X38160000Y-55880000D03*
D10*
%TO.P,C4,2*%
%TO.N,Net-(D2-A)*%
X45660000Y-55880000D03*
D12*
X45660000Y-55880000D03*
%TD*%
D13*
%TO.P,D4,1,K*%
%TO.N,-12V*%
X41910000Y-172720000D03*
D14*
%TO.P,D4,2,A*%
%TO.N,Net-(D2-A)*%
X41910000Y-162560000D03*
%TD*%
D15*
%TO.P,C10,1*%
%TO.N,GND*%
X36870000Y-180340000D03*
D16*
X36870000Y-180340000D03*
D15*
%TO.P,C10,2*%
%TO.N,-12V*%
X41870000Y-180340000D03*
D16*
X41870000Y-180340000D03*
%TD*%
D17*
%TO.P,REF\u002A\u002A,MP*%
%TO.N,N/C*%
X38100000Y-97790000D03*
%TD*%
D18*
%TO.P,J1,1,Pin_1*%
%TO.N,GND*%
X46736000Y-28230000D03*
D19*
X46736000Y-28230000D03*
D18*
%TO.P,J1,2,Pin_2*%
%TO.N,Net-(D1-A)*%
X46736000Y-33230000D03*
D19*
X46736000Y-33230000D03*
%TD*%
D20*
%TO.P,U1,1,VI*%
%TO.N,Net-(D1-K)*%
X36830000Y-142240000D03*
D21*
%TO.P,U1,2,GND*%
%TO.N,GND*%
X36830000Y-144780000D03*
%TO.P,U1,3,VO*%
%TO.N,+12V*%
X36830000Y-147320000D03*
%TD*%
D15*
%TO.P,C8,1*%
%TO.N,+12V*%
X31830000Y-152400000D03*
D16*
X31830000Y-152400000D03*
D15*
%TO.P,C8,2*%
%TO.N,GND*%
X36830000Y-152400000D03*
D16*
X36830000Y-152400000D03*
%TD*%
D20*
%TO.P,U2,1,GND*%
%TO.N,GND*%
X36830000Y-165100000D03*
D21*
%TO.P,U2,2,VI*%
%TO.N,Net-(D2-A)*%
X36830000Y-167640000D03*
%TO.P,U2,3,VO*%
%TO.N,-12V*%
X36830000Y-170180000D03*
%TD*%
D13*
%TO.P,D1,1,K*%
%TO.N,Net-(D1-K)*%
X29210000Y-30480000D03*
D14*
%TO.P,D1,2,A*%
%TO.N,Net-(D1-A)*%
X39370000Y-30480000D03*
%TD*%
D17*
%TO.P,REF\u002A\u002A,MP*%
%TO.N,N/C*%
X45720000Y-20320000D03*
%TD*%
D13*
%TO.P,D3,1,K*%
%TO.N,Net-(D1-K)*%
X29210000Y-139700000D03*
D14*
%TO.P,D3,2,A*%
%TO.N,+12V*%
X29210000Y-149860000D03*
%TD*%
D13*
%TO.P,D2,1,K*%
%TO.N,Net-(D1-A)*%
X48260000Y-38100000D03*
D14*
%TO.P,D2,2,A*%
%TO.N,Net-(D2-A)*%
X48260000Y-48260000D03*
%TD*%
D17*
%TO.P,REF\u002A\u002A,MP*%
%TO.N,N/C*%
X30480000Y-20320000D03*
%TD*%
D10*
%TO.P,C5,1*%
%TO.N,GND*%
X38160000Y-86360000D03*
D11*
X38160000Y-86360000D03*
D10*
%TO.P,C5,2*%
%TO.N,Net-(D2-A)*%
X45660000Y-86360000D03*
D12*
X45660000Y-86360000D03*
%TD*%
D15*
%TO.P,C9,1*%
%TO.N,GND*%
X36830000Y-160020000D03*
D16*
X36830000Y-160020000D03*
D15*
%TO.P,C9,2*%
%TO.N,Net-(D2-A)*%
X31830000Y-160020000D03*
D16*
X31830000Y-160020000D03*
%TD*%
D17*
%TO.P,REF\u002A\u002A,MP*%
%TO.N,N/C*%
X29210000Y-180340000D03*
%TD*%
D10*
%TO.P,C3,1*%
%TO.N,Net-(D1-K)*%
X30540000Y-109220000D03*
D11*
X30540000Y-109220000D03*
D10*
%TO.P,C3,2*%
%TO.N,GND*%
X38040000Y-109220000D03*
D12*
X38040000Y-109220000D03*
%TD*%
D15*
%TO.P,C7,1*%
%TO.N,Net-(D1-K)*%
X31830000Y-137160000D03*
D16*
X31830000Y-137160000D03*
D15*
%TO.P,C7,2*%
%TO.N,GND*%
X36830000Y-137160000D03*
D16*
X36830000Y-137160000D03*
%TD*%
D18*
%TO.P,J2,1,Pin_1*%
%TO.N,-12V*%
X43104000Y-188119000D03*
D19*
X43104000Y-188119000D03*
D18*
%TO.P,J2,2,Pin_2*%
%TO.N,GND*%
X38104000Y-188119000D03*
D19*
X38104000Y-188119000D03*
D18*
%TO.P,J2,3,Pin_3*%
%TO.N,+12V*%
X33104000Y-188119000D03*
D19*
X33104000Y-188119000D03*
%TD*%
D17*
%TO.P,REF\u002A\u002A,MP*%
%TO.N,N/C*%
X46990000Y-180340000D03*
%TD*%
D10*
%TO.P,C1,1*%
%TO.N,Net-(D1-K)*%
X30540000Y-40640000D03*
D11*
X30540000Y-40640000D03*
D10*
%TO.P,C1,2*%
%TO.N,GND*%
X38040000Y-40640000D03*
D12*
X38040000Y-40640000D03*
%TD*%
D10*
%TO.P,C6,1*%
%TO.N,GND*%
X38160000Y-124460000D03*
D11*
X38160000Y-124460000D03*
D10*
%TO.P,C6,2*%
%TO.N,Net-(D2-A)*%
X45660000Y-124460000D03*
D12*
X45660000Y-124460000D03*
%TD*%
D10*
%TO.P,C2,1*%
%TO.N,Net-(D1-K)*%
X30540000Y-71120000D03*
D11*
X30540000Y-71120000D03*
D10*
%TO.P,C2,2*%
%TO.N,GND*%
X38040000Y-71120000D03*
D12*
X38040000Y-71120000D03*
%TD*%
D22*
%TO.N,Net-(D1-K)*%
X31830000Y-110510000D02*
X30540000Y-109220000D01*
X31830000Y-137160000D02*
X31830000Y-110510000D01*
X30540000Y-109220000D02*
X30540000Y-71120000D01*
X29290000Y-139700000D02*
X31830000Y-137160000D01*
X30540000Y-40640000D02*
X30540000Y-40192000D01*
X30540000Y-71120000D02*
X30540000Y-40640000D01*
X31830000Y-137160000D02*
X31830000Y-137240000D01*
X30480000Y-40580000D02*
X30540000Y-40640000D01*
X30480000Y-31750000D02*
X30480000Y-40580000D01*
X31830000Y-137240000D02*
X36830000Y-142240000D01*
X29210000Y-139700000D02*
X29290000Y-139700000D01*
X29210000Y-30480000D02*
X30480000Y-31750000D01*
%TO.N,Net-(D2-A)*%
X48260000Y-48260000D02*
X45660000Y-50860000D01*
X45660000Y-124460000D02*
X45660000Y-86360000D01*
X41910000Y-165075657D02*
X39345657Y-167640000D01*
X45660000Y-50860000D02*
X45660000Y-55880000D01*
X35610800Y-167640000D02*
X36830000Y-167640000D01*
X45660000Y-55880000D02*
X45660000Y-54924000D01*
X41910000Y-162560000D02*
X45720000Y-158750000D01*
X45660000Y-86360000D02*
X45660000Y-55880000D01*
X31830000Y-163859200D02*
X35610800Y-167640000D01*
X39345657Y-167640000D02*
X36830000Y-167640000D01*
X41910000Y-162560000D02*
X41910000Y-165075657D01*
X45720000Y-158750000D02*
X45720000Y-124520000D01*
X31830000Y-160020000D02*
X31830000Y-163859200D01*
X45720000Y-124520000D02*
X45660000Y-124460000D01*
%TO.N,+12V*%
X33104000Y-188119000D02*
X34290000Y-186933000D01*
X34290000Y-186933000D02*
X34290000Y-176530000D01*
X29210000Y-149860000D02*
X29290000Y-149860000D01*
X31830000Y-152320000D02*
X36830000Y-147320000D01*
X34290000Y-176530000D02*
X27940000Y-170180000D01*
X27940000Y-170180000D02*
X27940000Y-156290000D01*
X27940000Y-156290000D02*
X31830000Y-152400000D01*
X29290000Y-149860000D02*
X31830000Y-152400000D01*
X31830000Y-152400000D02*
X31830000Y-152320000D01*
%TO.N,-12V*%
X41910000Y-173990000D02*
X41870000Y-174030000D01*
X41870000Y-186885000D02*
X43104000Y-188119000D01*
X39370000Y-170180000D02*
X41910000Y-172720000D01*
X41910000Y-172720000D02*
X41910000Y-173990000D01*
X36830000Y-170180000D02*
X39370000Y-170180000D01*
X41870000Y-174030000D02*
X41870000Y-180340000D01*
X41870000Y-180340000D02*
X41870000Y-186885000D01*
%TO.N,Net-(D1-A)*%
X48260000Y-34754000D02*
X46736000Y-33230000D01*
X43986000Y-30480000D02*
X46736000Y-33230000D01*
X39370000Y-30480000D02*
X43986000Y-30480000D01*
X48260000Y-38100000D02*
X48260000Y-34754000D01*
%TD*%
%TA.AperFunction,Conductor*%
%TO.N,GND*%
G36*
X43184302Y-15240647D02*
G01*
X43196973Y-15241079D01*
X43644611Y-15256371D01*
X43653875Y-15256861D01*
X43756674Y-15264214D01*
X43764430Y-15264889D01*
X44168543Y-15306432D01*
X44178658Y-15307680D01*
X44207060Y-15311763D01*
X44276907Y-15321805D01*
X44283777Y-15322891D01*
X44688642Y-15392698D01*
X44699309Y-15394776D01*
X44789671Y-15414433D01*
X44795750Y-15415836D01*
X45202036Y-15514845D01*
X45213401Y-15517896D01*
X45271261Y-15534885D01*
X45291836Y-15540927D01*
X45297092Y-15542532D01*
X45706245Y-15672391D01*
X45718111Y-15676484D01*
X45780001Y-15699568D01*
X45784072Y-15701129D01*
X46198768Y-15864663D01*
X46210930Y-15869834D01*
X46249266Y-15887342D01*
X46252561Y-15888877D01*
X46431768Y-15974105D01*
X46677017Y-16090741D01*
X46689583Y-16097153D01*
X46693201Y-16099129D01*
X46695785Y-16100561D01*
X46757369Y-16135188D01*
X46832321Y-16199425D01*
X46876988Y-16287457D01*
X46884565Y-16385881D01*
X46853901Y-16479714D01*
X46789662Y-16554668D01*
X46701630Y-16599335D01*
X46603206Y-16606912D01*
X46584017Y-16603856D01*
X46280202Y-16543424D01*
X46280197Y-16543423D01*
X45907338Y-16506700D01*
X45907335Y-16506700D01*
X45532665Y-16506700D01*
X45532661Y-16506700D01*
X45159802Y-16543423D01*
X45080894Y-16559119D01*
X44792326Y-16616519D01*
X44792324Y-16616519D01*
X44792322Y-16616520D01*
X44792317Y-16616521D01*
X44433790Y-16725279D01*
X44087644Y-16868657D01*
X44087635Y-16868661D01*
X43757208Y-17045279D01*
X43445678Y-17253436D01*
X43445675Y-17253438D01*
X43156056Y-17491122D01*
X43156056Y-17491123D01*
X42891123Y-17756056D01*
X42891122Y-17756056D01*
X42653438Y-18045675D01*
X42653436Y-18045678D01*
X42445279Y-18357208D01*
X42268661Y-18687635D01*
X42268657Y-18687644D01*
X42125279Y-19033790D01*
X42016521Y-19392317D01*
X42016520Y-19392322D01*
X42016519Y-19392326D01*
X42003856Y-19455988D01*
X41943423Y-19759802D01*
X41906700Y-20132661D01*
X41906700Y-20507338D01*
X41943423Y-20880197D01*
X42016520Y-21247677D01*
X42016521Y-21247682D01*
X42125279Y-21606209D01*
X42268657Y-21952355D01*
X42268660Y-21952362D01*
X42445279Y-22282792D01*
X42653435Y-22594320D01*
X42653436Y-22594321D01*
X42653438Y-22594324D01*
X42891122Y-22883943D01*
X42891123Y-22883944D01*
X43156056Y-23148877D01*
X43445680Y-23386565D01*
X43757208Y-23594721D01*
X44087638Y-23771340D01*
X44433789Y-23914720D01*
X44792326Y-24023481D01*
X45159798Y-24096576D01*
X45532665Y-24133300D01*
X45532666Y-24133300D01*
X45907334Y-24133300D01*
X45907335Y-24133300D01*
X46280202Y-24096576D01*
X46647674Y-24023481D01*
X47006211Y-23914720D01*
X47352362Y-23771340D01*
X47682792Y-23594721D01*
X47994320Y-23386565D01*
X48283944Y-23148877D01*
X48548877Y-22883944D01*
X48786565Y-22594320D01*
X48994721Y-22282792D01*
X49171340Y-21952362D01*
X49314720Y-21606211D01*
X49423481Y-21247674D01*
X49496576Y-20880202D01*
X49533300Y-20507335D01*
X49533300Y-20132665D01*
X49496576Y-19759798D01*
X49436143Y-19455981D01*
X49436143Y-19446146D01*
X49433087Y-19436795D01*
X49436143Y-19397097D01*
X49436143Y-19357273D01*
X49439908Y-19348181D01*
X49440664Y-19338370D01*
X49458683Y-19302856D01*
X49473920Y-19266071D01*
X49480877Y-19259113D01*
X49485330Y-19250338D01*
X49515563Y-19224426D01*
X49543722Y-19196268D01*
X49552813Y-19192502D01*
X49560285Y-19186099D01*
X49598131Y-19173730D01*
X49634924Y-19158491D01*
X49644766Y-19158491D01*
X49654117Y-19155435D01*
X49693814Y-19158491D01*
X49733639Y-19158491D01*
X49742730Y-19162256D01*
X49752542Y-19163012D01*
X49788055Y-19181031D01*
X49824841Y-19196268D01*
X49831798Y-19203225D01*
X49840574Y-19207678D01*
X49866485Y-19237911D01*
X49894644Y-19266070D01*
X49904813Y-19282633D01*
X49939407Y-19344159D01*
X49940928Y-19346904D01*
X49942831Y-19350389D01*
X49949257Y-19362981D01*
X50151081Y-19787353D01*
X50152709Y-19790845D01*
X50170148Y-19829033D01*
X50175351Y-19841269D01*
X50338825Y-20255813D01*
X50340481Y-20260130D01*
X50363511Y-20321879D01*
X50367607Y-20333753D01*
X50497466Y-20742906D01*
X50499071Y-20748162D01*
X50522098Y-20826583D01*
X50525153Y-20837962D01*
X50624162Y-21244248D01*
X50625574Y-21250367D01*
X50645208Y-21340618D01*
X50647311Y-21351412D01*
X50717095Y-21756149D01*
X50718199Y-21763134D01*
X50732318Y-21861340D01*
X50733567Y-21871470D01*
X50775106Y-22275537D01*
X50775787Y-22283359D01*
X50783134Y-22386071D01*
X50783631Y-22395484D01*
X50799352Y-22855667D01*
X50799500Y-22864305D01*
X50799500Y-178367676D01*
X50780242Y-178464495D01*
X50725398Y-178546574D01*
X50643319Y-178601418D01*
X50546500Y-178620676D01*
X50449681Y-178601418D01*
X50367602Y-178546574D01*
X50323374Y-178486940D01*
X50298881Y-178441117D01*
X50264721Y-178377208D01*
X50056565Y-178065680D01*
X49818877Y-177776056D01*
X49553944Y-177511123D01*
X49264320Y-177273435D01*
X48952792Y-177065279D01*
X48622362Y-176888660D01*
X48276211Y-176745280D01*
X48276212Y-176745280D01*
X48276209Y-176745279D01*
X47917682Y-176636521D01*
X47917677Y-176636520D01*
X47917674Y-176636519D01*
X47550202Y-176563424D01*
X47550197Y-176563423D01*
X47177338Y-176526700D01*
X47177335Y-176526700D01*
X46802665Y-176526700D01*
X46802661Y-176526700D01*
X46429802Y-176563423D01*
X46246062Y-176599971D01*
X46062326Y-176636519D01*
X46062324Y-176636519D01*
X46062322Y-176636520D01*
X46062317Y-176636521D01*
X45703790Y-176745279D01*
X45357644Y-176888657D01*
X45357635Y-176888661D01*
X45027208Y-177065279D01*
X44715678Y-177273436D01*
X44715675Y-177273438D01*
X44426056Y-177511122D01*
X44426056Y-177511123D01*
X44161123Y-177776056D01*
X44161122Y-177776056D01*
X43923438Y-178065675D01*
X43923436Y-178065678D01*
X43715279Y-178377208D01*
X43540426Y-178704334D01*
X43477801Y-178780642D01*
X43390741Y-178827176D01*
X43292501Y-178836852D01*
X43198036Y-178808196D01*
X43121728Y-178745571D01*
X43075194Y-178658511D01*
X43064300Y-178585070D01*
X43064300Y-174501294D01*
X43083558Y-174404475D01*
X43138402Y-174322396D01*
X43182698Y-174287072D01*
X43283887Y-174223491D01*
X43283891Y-174223488D01*
X43283890Y-174223488D01*
X43283893Y-174223487D01*
X43413487Y-174093893D01*
X43510994Y-173938710D01*
X43571526Y-173765721D01*
X43586900Y-173629272D01*
X43586900Y-171810728D01*
X43571526Y-171674279D01*
X43537587Y-171577288D01*
X43510995Y-171501292D01*
X43413488Y-171346108D01*
X43283891Y-171216511D01*
X43128707Y-171119004D01*
X42955722Y-171058474D01*
X42819274Y-171043100D01*
X42819272Y-171043100D01*
X42026891Y-171043100D01*
X41930072Y-171023842D01*
X41847993Y-170968998D01*
X40148035Y-169269039D01*
X40078830Y-169218759D01*
X40078829Y-169218758D01*
X40071992Y-169213791D01*
X39995950Y-169158543D01*
X39928237Y-169124041D01*
X39918566Y-169117959D01*
X39890852Y-169091735D01*
X39860882Y-169068108D01*
X39855244Y-169058040D01*
X39846863Y-169050110D01*
X39831291Y-169015269D01*
X39812648Y-168981979D01*
X39811291Y-168970521D01*
X39806583Y-168959986D01*
X39805530Y-168921840D01*
X39801045Y-168883948D01*
X39804177Y-168872841D01*
X39803859Y-168861308D01*
X39817480Y-168825671D01*
X39827840Y-168788938D01*
X39834985Y-168779874D01*
X39839104Y-168769099D01*
X39865327Y-168741385D01*
X39888955Y-168711415D01*
X39901824Y-168702816D01*
X39906953Y-168697396D01*
X39915962Y-168693369D01*
X39938404Y-168678374D01*
X39971607Y-168661457D01*
X40047649Y-168606209D01*
X40123692Y-168550961D01*
X42820961Y-165853691D01*
X42931457Y-165701607D01*
X43016801Y-165534109D01*
X43074893Y-165355322D01*
X43104300Y-165169650D01*
X43104300Y-164981663D01*
X43104300Y-163841990D01*
X43123558Y-163745171D01*
X43169857Y-163675879D01*
X43168005Y-163674255D01*
X43173457Y-163668036D01*
X43173465Y-163668029D01*
X43307283Y-163493635D01*
X43417193Y-163303265D01*
X43501314Y-163100178D01*
X43558208Y-162887849D01*
X43571863Y-162784123D01*
X43586899Y-162669922D01*
X43587441Y-162661651D01*
X43589899Y-162661812D01*
X43606158Y-162580072D01*
X43661002Y-162497993D01*
X45106188Y-161052807D01*
X46630961Y-159528034D01*
X46684535Y-159454296D01*
X46741457Y-159375950D01*
X46826801Y-159208452D01*
X46884893Y-159029665D01*
X46914300Y-158843993D01*
X46914300Y-158656006D01*
X46914300Y-126774837D01*
X46933558Y-126678018D01*
X46988402Y-126595939D01*
X47070481Y-126541095D01*
X47111018Y-126528177D01*
X47112108Y-126527927D01*
X47112121Y-126527926D01*
X47285110Y-126467394D01*
X47440293Y-126369887D01*
X47569887Y-126240293D01*
X47667394Y-126085110D01*
X47727926Y-125912121D01*
X47743300Y-125775672D01*
X47743300Y-123144328D01*
X47727926Y-123007879D01*
X47667394Y-122834890D01*
X47569887Y-122679707D01*
X47440293Y-122550113D01*
X47440291Y-122550111D01*
X47285107Y-122452604D01*
X47112123Y-122392074D01*
X47087755Y-122389328D01*
X47078970Y-122388338D01*
X46984918Y-122358361D01*
X46909496Y-122294672D01*
X46864187Y-122206968D01*
X46854300Y-122136930D01*
X46854300Y-88683069D01*
X46873558Y-88586250D01*
X46928402Y-88504171D01*
X47010481Y-88449327D01*
X47078967Y-88431661D01*
X47112121Y-88427926D01*
X47285110Y-88367394D01*
X47440293Y-88269887D01*
X47569887Y-88140293D01*
X47667394Y-87985110D01*
X47727926Y-87812121D01*
X47743300Y-87675672D01*
X47743300Y-85044328D01*
X47727926Y-84907879D01*
X47667394Y-84734890D01*
X47569887Y-84579707D01*
X47440293Y-84450113D01*
X47440291Y-84450111D01*
X47285107Y-84352604D01*
X47112123Y-84292074D01*
X47087755Y-84289328D01*
X47078970Y-84288338D01*
X46984918Y-84258361D01*
X46909496Y-84194672D01*
X46864187Y-84106968D01*
X46854300Y-84036930D01*
X46854300Y-58203069D01*
X46873558Y-58106250D01*
X46928402Y-58024171D01*
X47010481Y-57969327D01*
X47078967Y-57951661D01*
X47112121Y-57947926D01*
X47285110Y-57887394D01*
X47440293Y-57789887D01*
X47569887Y-57660293D01*
X47667394Y-57505110D01*
X47727926Y-57332121D01*
X47743300Y-57195672D01*
X47743300Y-54564328D01*
X47727926Y-54427879D01*
X47667394Y-54254890D01*
X47569887Y-54099707D01*
X47440293Y-53970113D01*
X47440291Y-53970111D01*
X47285107Y-53872604D01*
X47112123Y-53812074D01*
X47087755Y-53809328D01*
X47078970Y-53808338D01*
X46984918Y-53778361D01*
X46909496Y-53714672D01*
X46864187Y-53626968D01*
X46854300Y-53556930D01*
X46854300Y-51459492D01*
X46873558Y-51362673D01*
X46928402Y-51280594D01*
X48197994Y-50011002D01*
X48280073Y-49956158D01*
X48361812Y-49939899D01*
X48361651Y-49937441D01*
X48369907Y-49936900D01*
X48369910Y-49936900D01*
X48369913Y-49936899D01*
X48369922Y-49936899D01*
X48484123Y-49921863D01*
X48587849Y-49908208D01*
X48800178Y-49851314D01*
X49003265Y-49767193D01*
X49003272Y-49767189D01*
X49003276Y-49767187D01*
X49062673Y-49732893D01*
X49193635Y-49657283D01*
X49368029Y-49523465D01*
X49523465Y-49368029D01*
X49657283Y-49193635D01*
X49767193Y-49003265D01*
X49851314Y-48800178D01*
X49908208Y-48587849D01*
X49921863Y-48484123D01*
X49936899Y-48369922D01*
X49936900Y-48369907D01*
X49936900Y-48150092D01*
X49936899Y-48150077D01*
X49908208Y-47932154D01*
X49908208Y-47932151D01*
X49851314Y-47719822D01*
X49767193Y-47516735D01*
X49767190Y-47516730D01*
X49767189Y-47516727D01*
X49767187Y-47516723D01*
X49657288Y-47326374D01*
X49657283Y-47326365D01*
X49523465Y-47151971D01*
X49368029Y-46996535D01*
X49193635Y-46862717D01*
X49193625Y-46862711D01*
X49003276Y-46752812D01*
X49003272Y-46752810D01*
X48800178Y-46668686D01*
X48587853Y-46611793D01*
X48587845Y-46611791D01*
X48369922Y-46583100D01*
X48369910Y-46583100D01*
X48150090Y-46583100D01*
X48150077Y-46583100D01*
X47932154Y-46611791D01*
X47932146Y-46611793D01*
X47719821Y-46668686D01*
X47516727Y-46752810D01*
X47516723Y-46752812D01*
X47326374Y-46862711D01*
X47326361Y-46862720D01*
X47151971Y-46996534D01*
X46996534Y-47151971D01*
X46862720Y-47326361D01*
X46862711Y-47326374D01*
X46752812Y-47516723D01*
X46752810Y-47516727D01*
X46668686Y-47719821D01*
X46611793Y-47932146D01*
X46611791Y-47932154D01*
X46583100Y-48150077D01*
X46582559Y-48158349D01*
X46580100Y-48158187D01*
X46563842Y-48239927D01*
X46508998Y-48322006D01*
X44749039Y-50081964D01*
X44693792Y-50158007D01*
X44693791Y-50158008D01*
X44638543Y-50234048D01*
X44553201Y-50401541D01*
X44553199Y-50401547D01*
X44495106Y-50580335D01*
X44465700Y-50766002D01*
X44465700Y-53556930D01*
X44446442Y-53653749D01*
X44391598Y-53735828D01*
X44309519Y-53790672D01*
X44241029Y-53808338D01*
X44234604Y-53809062D01*
X44207876Y-53812074D01*
X44034892Y-53872604D01*
X43879708Y-53970111D01*
X43750111Y-54099708D01*
X43652604Y-54254892D01*
X43592074Y-54427876D01*
X43592074Y-54427878D01*
X43576700Y-54564325D01*
X43576700Y-57195674D01*
X43592074Y-57332121D01*
X43592074Y-57332123D01*
X43652604Y-57505107D01*
X43750111Y-57660291D01*
X43879708Y-57789888D01*
X44034892Y-57887395D01*
X44207873Y-57947924D01*
X44207879Y-57947926D01*
X44241029Y-57951661D01*
X44335078Y-57981636D01*
X44410501Y-58045323D01*
X44455811Y-58133026D01*
X44465700Y-58203069D01*
X44465700Y-84036930D01*
X44446442Y-84133749D01*
X44391598Y-84215828D01*
X44309519Y-84270672D01*
X44241029Y-84288338D01*
X44234604Y-84289062D01*
X44207876Y-84292074D01*
X44034892Y-84352604D01*
X43879708Y-84450111D01*
X43750111Y-84579708D01*
X43652604Y-84734892D01*
X43592074Y-84907876D01*
X43592074Y-84907878D01*
X43576700Y-85044325D01*
X43576700Y-87675674D01*
X43592074Y-87812121D01*
X43592074Y-87812123D01*
X43652604Y-87985107D01*
X43750111Y-88140291D01*
X43879708Y-88269888D01*
X44034892Y-88367395D01*
X44207873Y-88427924D01*
X44207879Y-88427926D01*
X44241029Y-88431661D01*
X44335078Y-88461636D01*
X44410501Y-88525323D01*
X44455811Y-88613026D01*
X44465700Y-88683069D01*
X44465700Y-122136930D01*
X44446442Y-122233749D01*
X44391598Y-122315828D01*
X44309519Y-122370672D01*
X44241029Y-122388338D01*
X44234604Y-122389062D01*
X44207876Y-122392074D01*
X44034892Y-122452604D01*
X43879708Y-122550111D01*
X43750111Y-122679708D01*
X43652604Y-122834892D01*
X43592074Y-123007876D01*
X43592074Y-123007878D01*
X43576700Y-123144325D01*
X43576700Y-125775674D01*
X43592074Y-125912121D01*
X43592074Y-125912123D01*
X43652604Y-126085107D01*
X43750111Y-126240291D01*
X43879708Y-126369888D01*
X44034892Y-126467395D01*
X44121384Y-126497660D01*
X44207879Y-126527926D01*
X44301027Y-126538421D01*
X44395081Y-126568398D01*
X44470503Y-126632087D01*
X44515812Y-126719790D01*
X44525700Y-126789830D01*
X44525700Y-158150508D01*
X44506442Y-158247327D01*
X44451598Y-158329406D01*
X41972006Y-160808998D01*
X41889927Y-160863842D01*
X41808187Y-160880100D01*
X41808349Y-160882559D01*
X41800077Y-160883100D01*
X41582154Y-160911791D01*
X41582146Y-160911793D01*
X41369821Y-160968686D01*
X41166727Y-161052810D01*
X41166723Y-161052812D01*
X40976374Y-161162711D01*
X40976361Y-161162720D01*
X40801971Y-161296534D01*
X40646534Y-161451971D01*
X40512720Y-161626361D01*
X40512711Y-161626374D01*
X40402812Y-161816723D01*
X40402810Y-161816727D01*
X40318686Y-162019821D01*
X40261793Y-162232146D01*
X40261791Y-162232154D01*
X40233100Y-162450077D01*
X40233100Y-162669922D01*
X40261791Y-162887845D01*
X40261793Y-162887853D01*
X40318686Y-163100178D01*
X40402810Y-163303272D01*
X40402812Y-163303276D01*
X40512711Y-163493625D01*
X40512717Y-163493635D01*
X40613080Y-163624430D01*
X40646534Y-163668028D01*
X40651995Y-163674255D01*
X40650142Y-163675879D01*
X40696442Y-163745171D01*
X40715700Y-163841990D01*
X40715700Y-164476165D01*
X40696442Y-164572984D01*
X40641598Y-164655063D01*
X38925063Y-166371598D01*
X38842984Y-166426442D01*
X38746165Y-166445700D01*
X38742337Y-166445700D01*
X38645518Y-166426442D01*
X38563439Y-166371598D01*
X38508595Y-166289519D01*
X38489337Y-166192700D01*
X38508595Y-166095881D01*
X38527005Y-166059881D01*
X38541655Y-166036129D01*
X38541660Y-166036119D01*
X38597392Y-165867929D01*
X38597394Y-165867921D01*
X38607999Y-165764114D01*
X38608000Y-165764107D01*
X38608000Y-165354000D01*
X37343264Y-165354000D01*
X37362553Y-165320591D01*
X37401500Y-165175239D01*
X37401500Y-165024761D01*
X37362553Y-164879409D01*
X37343264Y-164846000D01*
X38608000Y-164846000D01*
X38608000Y-164435892D01*
X38607999Y-164435885D01*
X38597394Y-164332078D01*
X38597392Y-164332070D01*
X38541660Y-164163880D01*
X38541656Y-164163872D01*
X38448637Y-164013064D01*
X38448631Y-164013057D01*
X38323342Y-163887768D01*
X38323335Y-163887762D01*
X38172527Y-163794743D01*
X38172519Y-163794739D01*
X38004329Y-163739007D01*
X38004321Y-163739005D01*
X37900514Y-163728400D01*
X37084000Y-163728400D01*
X37084000Y-164586735D01*
X37050591Y-164567447D01*
X36905239Y-164528500D01*
X36754761Y-164528500D01*
X36609409Y-164567447D01*
X36576000Y-164586735D01*
X36576000Y-163728400D01*
X35759485Y-163728400D01*
X35655678Y-163739005D01*
X35655670Y-163739007D01*
X35487480Y-163794739D01*
X35487472Y-163794743D01*
X35336664Y-163887762D01*
X35336657Y-163887768D01*
X35211368Y-164013057D01*
X35211362Y-164013064D01*
X35118343Y-164163872D01*
X35118339Y-164163880D01*
X35062607Y-164332070D01*
X35062605Y-164332078D01*
X35052000Y-164435885D01*
X35052000Y-164781408D01*
X35032742Y-164878227D01*
X34977898Y-164960306D01*
X34895819Y-165015150D01*
X34799000Y-165034408D01*
X34702181Y-165015150D01*
X34620102Y-164960306D01*
X33098402Y-163438606D01*
X33043558Y-163356527D01*
X33024300Y-163259708D01*
X33024300Y-161301990D01*
X33043558Y-161205171D01*
X33074364Y-161150907D01*
X33085368Y-161136125D01*
X33093465Y-161128029D01*
X33227283Y-160953635D01*
X33337193Y-160763265D01*
X33421314Y-160560178D01*
X33478208Y-160347849D01*
X33491863Y-160244123D01*
X33506899Y-160129922D01*
X33506900Y-160129907D01*
X33506900Y-159912051D01*
X35458400Y-159912051D01*
X35458400Y-160127948D01*
X35492173Y-160341179D01*
X35558888Y-160546508D01*
X35656905Y-160738878D01*
X35696883Y-160793904D01*
X35696884Y-160793904D01*
X36423600Y-160067188D01*
X36423600Y-160073504D01*
X36451295Y-160176865D01*
X36504799Y-160269536D01*
X36580464Y-160345201D01*
X36673135Y-160398705D01*
X36776496Y-160426400D01*
X36782810Y-160426400D01*
X36056093Y-161153115D01*
X36111121Y-161193094D01*
X36303491Y-161291111D01*
X36508820Y-161357826D01*
X36722051Y-161391599D01*
X36722055Y-161391600D01*
X36937945Y-161391600D01*
X36937948Y-161391599D01*
X37151179Y-161357826D01*
X37356511Y-161291110D01*
X37548870Y-161193099D01*
X37548879Y-161193094D01*
X37603904Y-161153115D01*
X37603904Y-161153114D01*
X36877190Y-160426400D01*
X36883504Y-160426400D01*
X36986865Y-160398705D01*
X37079536Y-160345201D01*
X37155201Y-160269536D01*
X37208705Y-160176865D01*
X37236400Y-160073504D01*
X37236400Y-160067190D01*
X37963114Y-160793904D01*
X37963115Y-160793904D01*
X38003094Y-160738879D01*
X38003099Y-160738870D01*
X38101110Y-160546511D01*
X38167826Y-160341179D01*
X38201599Y-160127948D01*
X38201600Y-160127944D01*
X38201600Y-159912055D01*
X38201599Y-159912051D01*
X38167826Y-159698820D01*
X38101111Y-159493491D01*
X38003094Y-159301121D01*
X37963115Y-159246093D01*
X37236400Y-159972808D01*
X37236400Y-159966496D01*
X37208705Y-159863135D01*
X37155201Y-159770464D01*
X37079536Y-159694799D01*
X36986865Y-159641295D01*
X36883504Y-159613600D01*
X36877188Y-159613600D01*
X37603904Y-158886884D01*
X37603904Y-158886883D01*
X37548878Y-158846905D01*
X37356508Y-158748888D01*
X37151179Y-158682173D01*
X36937948Y-158648400D01*
X36722051Y-158648400D01*
X36508820Y-158682173D01*
X36303491Y-158748888D01*
X36111120Y-158846905D01*
X36056094Y-158886883D01*
X36056094Y-158886884D01*
X36782810Y-159613600D01*
X36776496Y-159613600D01*
X36673135Y-159641295D01*
X36580464Y-159694799D01*
X36504799Y-159770464D01*
X36451295Y-159863135D01*
X36423600Y-159966496D01*
X36423600Y-159972810D01*
X35696884Y-159246094D01*
X35696883Y-159246094D01*
X35656905Y-159301120D01*
X35558888Y-159493491D01*
X35492173Y-159698820D01*
X35458400Y-159912051D01*
X33506900Y-159912051D01*
X33506900Y-159910092D01*
X33506899Y-159910077D01*
X33479086Y-159698820D01*
X33478208Y-159692151D01*
X33421314Y-159479822D01*
X33337193Y-159276735D01*
X33337190Y-159276730D01*
X33337189Y-159276727D01*
X33337187Y-159276723D01*
X33240818Y-159109808D01*
X33240817Y-159109807D01*
X33227285Y-159086369D01*
X33227283Y-159086365D01*
X33093465Y-158911971D01*
X32938029Y-158756535D01*
X32928063Y-158748888D01*
X32841119Y-158682173D01*
X32763635Y-158622717D01*
X32763625Y-158622711D01*
X32573276Y-158512812D01*
X32573272Y-158512810D01*
X32370178Y-158428686D01*
X32157853Y-158371793D01*
X32157845Y-158371791D01*
X31939922Y-158343100D01*
X31939910Y-158343100D01*
X31720090Y-158343100D01*
X31720077Y-158343100D01*
X31502154Y-158371791D01*
X31502146Y-158371793D01*
X31289821Y-158428686D01*
X31086727Y-158512810D01*
X31086723Y-158512812D01*
X30896374Y-158622711D01*
X30896361Y-158622720D01*
X30721971Y-158756534D01*
X30566534Y-158911971D01*
X30432720Y-159086361D01*
X30432711Y-159086374D01*
X30322812Y-159276723D01*
X30322810Y-159276727D01*
X30238686Y-159479821D01*
X30181793Y-159692146D01*
X30181791Y-159692154D01*
X30153100Y-159910077D01*
X30153100Y-160129922D01*
X30181791Y-160347845D01*
X30181793Y-160347853D01*
X30238686Y-160560178D01*
X30322810Y-160763272D01*
X30322812Y-160763276D01*
X30411810Y-160917423D01*
X30432717Y-160953635D01*
X30508815Y-161052807D01*
X30566534Y-161128028D01*
X30571995Y-161134255D01*
X30570142Y-161135879D01*
X30616442Y-161205171D01*
X30635700Y-161301990D01*
X30635700Y-163953197D01*
X30665106Y-164138865D01*
X30665107Y-164138866D01*
X30690681Y-164217575D01*
X30690683Y-164217579D01*
X30696961Y-164236900D01*
X30723199Y-164317652D01*
X30808543Y-164485150D01*
X30863791Y-164561192D01*
X30878154Y-164580961D01*
X30919039Y-164637235D01*
X34699839Y-168418034D01*
X34832766Y-168550961D01*
X34984848Y-168661456D01*
X34984850Y-168661457D01*
X35053167Y-168696266D01*
X35066271Y-168702943D01*
X35143796Y-168764051D01*
X35192035Y-168850177D01*
X35203643Y-168948208D01*
X35176853Y-169043219D01*
X35152141Y-169082388D01*
X35026318Y-169246363D01*
X35026311Y-169246374D01*
X34916412Y-169436723D01*
X34916410Y-169436727D01*
X34832286Y-169639821D01*
X34775393Y-169852146D01*
X34775391Y-169852154D01*
X34746700Y-170070077D01*
X34746700Y-170289922D01*
X34775391Y-170507845D01*
X34775393Y-170507853D01*
X34832286Y-170720178D01*
X34916410Y-170923272D01*
X34916412Y-170923276D01*
X35026311Y-171113625D01*
X35026317Y-171113635D01*
X35160135Y-171288029D01*
X35315571Y-171443465D01*
X35489965Y-171577283D01*
X35489974Y-171577288D01*
X35680323Y-171687187D01*
X35680327Y-171687189D01*
X35680330Y-171687190D01*
X35680335Y-171687193D01*
X35883422Y-171771314D01*
X36095751Y-171828208D01*
X36173544Y-171838449D01*
X36313677Y-171856899D01*
X36313687Y-171856899D01*
X36313690Y-171856900D01*
X36313692Y-171856900D01*
X37346308Y-171856900D01*
X37346310Y-171856900D01*
X37346312Y-171856899D01*
X37346322Y-171856899D01*
X37460523Y-171841863D01*
X37564249Y-171828208D01*
X37776578Y-171771314D01*
X37979665Y-171687193D01*
X37979672Y-171687189D01*
X37979676Y-171687187D01*
X38039073Y-171652893D01*
X38170035Y-171577283D01*
X38344429Y-171443465D01*
X38344436Y-171443457D01*
X38350655Y-171438005D01*
X38352279Y-171439857D01*
X38421571Y-171393558D01*
X38518390Y-171374300D01*
X38770508Y-171374300D01*
X38867327Y-171393558D01*
X38949406Y-171448402D01*
X40158998Y-172657993D01*
X40213841Y-172740072D01*
X40233100Y-172836891D01*
X40233100Y-173629274D01*
X40248474Y-173765721D01*
X40248474Y-173765723D01*
X40309004Y-173938707D01*
X40406511Y-174093891D01*
X40536107Y-174223487D01*
X40557300Y-174236803D01*
X40629034Y-174304619D01*
X40669356Y-174394724D01*
X40675700Y-174451027D01*
X40675700Y-179058010D01*
X40656442Y-179154829D01*
X40610142Y-179224120D01*
X40611995Y-179225745D01*
X40606534Y-179231971D01*
X40472720Y-179406361D01*
X40472711Y-179406374D01*
X40362812Y-179596723D01*
X40362810Y-179596727D01*
X40278686Y-179799821D01*
X40221793Y-180012146D01*
X40221791Y-180012154D01*
X40193100Y-180230077D01*
X40193100Y-180449922D01*
X40221791Y-180667845D01*
X40221793Y-180667853D01*
X40278686Y-180880178D01*
X40362810Y-181083272D01*
X40362812Y-181083276D01*
X40472711Y-181273625D01*
X40472717Y-181273635D01*
X40573080Y-181404430D01*
X40606534Y-181448028D01*
X40611995Y-181454255D01*
X40610142Y-181455879D01*
X40656442Y-181525171D01*
X40675700Y-181621990D01*
X40675700Y-186978997D01*
X40705106Y-187164665D01*
X40705107Y-187164666D01*
X40724814Y-187225316D01*
X40763199Y-187343452D01*
X40848543Y-187510950D01*
X40883417Y-187558950D01*
X40892688Y-187571711D01*
X40902679Y-187592627D01*
X40909247Y-187618429D01*
X40920395Y-187642611D01*
X40921689Y-187667307D01*
X40927031Y-187688292D01*
X40923918Y-187709842D01*
X40925221Y-187734694D01*
X40893700Y-187974126D01*
X40893700Y-188263873D01*
X40931517Y-188551132D01*
X40931518Y-188551137D01*
X41006505Y-188830992D01*
X41117390Y-189098693D01*
X41117391Y-189098695D01*
X41262253Y-189349602D01*
X41262259Y-189349612D01*
X41438642Y-189579479D01*
X41643521Y-189784358D01*
X41873388Y-189960741D01*
X41873397Y-189960746D01*
X42124304Y-190105608D01*
X42124306Y-190105609D01*
X42124308Y-190105610D01*
X42124312Y-190105612D01*
X42391998Y-190216491D01*
X42392002Y-190216492D01*
X42392007Y-190216494D01*
X42671862Y-190291481D01*
X42671867Y-190291482D01*
X42959129Y-190329300D01*
X42959131Y-190329300D01*
X43248869Y-190329300D01*
X43248871Y-190329300D01*
X43536133Y-190291482D01*
X43536137Y-190291481D01*
X43815992Y-190216494D01*
X43815994Y-190216493D01*
X43816002Y-190216491D01*
X44083688Y-190105612D01*
X44334612Y-189960741D01*
X44564479Y-189784358D01*
X44769358Y-189579479D01*
X44945741Y-189349612D01*
X45090612Y-189098688D01*
X45201491Y-188831002D01*
X45212302Y-188790657D01*
X45276481Y-188551137D01*
X45276482Y-188551132D01*
X45286082Y-188478210D01*
X45314300Y-188263871D01*
X45314300Y-187974129D01*
X45276482Y-187686867D01*
X45276481Y-187686862D01*
X45201494Y-187407007D01*
X45201492Y-187407002D01*
X45201491Y-187406998D01*
X45090612Y-187139312D01*
X45090609Y-187139306D01*
X45090608Y-187139304D01*
X44945746Y-186888397D01*
X44945741Y-186888388D01*
X44769358Y-186658521D01*
X44564479Y-186453642D01*
X44334612Y-186277259D01*
X44334602Y-186277253D01*
X44083695Y-186132391D01*
X44083693Y-186132390D01*
X43815992Y-186021505D01*
X43536136Y-185946518D01*
X43284277Y-185913361D01*
X43190800Y-185881630D01*
X43116582Y-185816542D01*
X43072921Y-185728007D01*
X43064300Y-185662525D01*
X43064300Y-182094929D01*
X43083558Y-181998110D01*
X43138402Y-181916031D01*
X43220481Y-181861187D01*
X43317300Y-181841929D01*
X43414119Y-181861187D01*
X43496198Y-181916031D01*
X43540424Y-181975662D01*
X43715279Y-182302792D01*
X43923435Y-182614320D01*
X44161123Y-182903944D01*
X44426056Y-183168877D01*
X44715680Y-183406565D01*
X45027208Y-183614721D01*
X45357638Y-183791340D01*
X45703789Y-183934720D01*
X46062326Y-184043481D01*
X46429798Y-184116576D01*
X46802665Y-184153300D01*
X46802666Y-184153300D01*
X47177334Y-184153300D01*
X47177335Y-184153300D01*
X47550202Y-184116576D01*
X47917674Y-184043481D01*
X48276211Y-183934720D01*
X48622362Y-183791340D01*
X48952792Y-183614721D01*
X49264320Y-183406565D01*
X49553944Y-183168877D01*
X49818877Y-182903944D01*
X50056565Y-182614320D01*
X50264721Y-182302792D01*
X50323374Y-182193059D01*
X50385998Y-182116751D01*
X50473058Y-182070217D01*
X50571298Y-182060541D01*
X50665763Y-182089197D01*
X50742072Y-182151821D01*
X50788606Y-182238881D01*
X50799500Y-182312323D01*
X50799500Y-185415694D01*
X50799352Y-185424332D01*
X50783631Y-185884514D01*
X50783134Y-185893927D01*
X50775787Y-185996639D01*
X50775106Y-186004461D01*
X50733567Y-186408528D01*
X50732318Y-186418658D01*
X50718199Y-186516864D01*
X50717095Y-186523849D01*
X50647311Y-186928586D01*
X50645208Y-186939380D01*
X50625574Y-187029631D01*
X50624162Y-187035750D01*
X50525153Y-187442036D01*
X50522098Y-187453415D01*
X50499071Y-187531836D01*
X50497466Y-187537092D01*
X50367607Y-187946245D01*
X50363511Y-187958119D01*
X50340481Y-188019868D01*
X50338797Y-188024257D01*
X50301436Y-188119000D01*
X50175362Y-188438703D01*
X50170138Y-188450990D01*
X50152740Y-188489086D01*
X50151081Y-188492645D01*
X49949257Y-188917017D01*
X49942834Y-188929604D01*
X49940912Y-188933124D01*
X49939388Y-188935874D01*
X49802335Y-189179624D01*
X49694484Y-189371438D01*
X49685511Y-189386193D01*
X49409647Y-189806781D01*
X49399684Y-189820895D01*
X49095750Y-190221691D01*
X49084849Y-190235091D01*
X48754284Y-190614200D01*
X48742492Y-190626826D01*
X48386826Y-190982492D01*
X48374200Y-190994284D01*
X47995091Y-191324849D01*
X47981691Y-191335750D01*
X47580895Y-191639684D01*
X47566781Y-191649647D01*
X47146193Y-191925511D01*
X47131445Y-191934479D01*
X46955027Y-192033674D01*
X46695874Y-192179388D01*
X46693124Y-192180912D01*
X46689604Y-192182834D01*
X46677017Y-192189257D01*
X46252645Y-192391081D01*
X46249086Y-192392740D01*
X46210990Y-192410138D01*
X46198703Y-192415362D01*
X45784272Y-192578792D01*
X45779868Y-192580481D01*
X45718119Y-192603511D01*
X45706245Y-192607607D01*
X45297092Y-192737466D01*
X45291836Y-192739071D01*
X45213415Y-192762098D01*
X45202036Y-192765153D01*
X44795750Y-192864162D01*
X44789631Y-192865574D01*
X44699380Y-192885208D01*
X44688586Y-192887311D01*
X44283849Y-192957095D01*
X44276864Y-192958199D01*
X44178658Y-192972318D01*
X44168528Y-192973567D01*
X43764461Y-193015106D01*
X43756639Y-193015787D01*
X43653927Y-193023134D01*
X43644514Y-193023631D01*
X43184332Y-193039352D01*
X43175694Y-193039500D01*
X33024306Y-193039500D01*
X33015668Y-193039352D01*
X32555484Y-193023631D01*
X32546071Y-193023134D01*
X32443359Y-193015787D01*
X32435537Y-193015106D01*
X32031470Y-192973567D01*
X32021340Y-192972318D01*
X31923134Y-192958199D01*
X31916149Y-192957095D01*
X31511412Y-192887311D01*
X31500618Y-192885208D01*
X31410367Y-192865574D01*
X31404248Y-192864162D01*
X30997962Y-192765153D01*
X30986583Y-192762098D01*
X30908162Y-192739071D01*
X30902906Y-192737466D01*
X30493753Y-192607607D01*
X30481879Y-192603511D01*
X30420130Y-192580481D01*
X30415813Y-192578825D01*
X30001269Y-192415351D01*
X29989033Y-192410148D01*
X29950845Y-192392709D01*
X29947353Y-192391081D01*
X29522981Y-192189257D01*
X29510389Y-192182831D01*
X29506904Y-192180928D01*
X29504159Y-192179406D01*
X29068561Y-191934483D01*
X29053800Y-191925507D01*
X28633218Y-191649647D01*
X28619104Y-191639684D01*
X28218308Y-191335750D01*
X28204908Y-191324849D01*
X27825799Y-190994284D01*
X27813173Y-190982492D01*
X27457507Y-190626826D01*
X27445715Y-190614200D01*
X27115150Y-190235091D01*
X27104249Y-190221691D01*
X26800315Y-189820895D01*
X26790359Y-189806792D01*
X26514485Y-189386188D01*
X26505516Y-189371438D01*
X26260592Y-188935839D01*
X26259087Y-188933124D01*
X26257153Y-188929583D01*
X26250741Y-188917017D01*
X26076735Y-188551137D01*
X26048877Y-188492561D01*
X26047342Y-188489266D01*
X26029834Y-188450930D01*
X26024663Y-188438768D01*
X25861129Y-188024072D01*
X25859568Y-188020001D01*
X25836484Y-187958111D01*
X25832391Y-187946245D01*
X25702532Y-187537092D01*
X25700927Y-187531836D01*
X25677900Y-187453415D01*
X25674845Y-187442036D01*
X25575836Y-187035750D01*
X25574433Y-187029671D01*
X25554776Y-186939309D01*
X25552698Y-186928642D01*
X25482891Y-186523777D01*
X25481805Y-186516907D01*
X25467680Y-186418658D01*
X25466431Y-186408528D01*
X25452937Y-186277262D01*
X25424889Y-186004430D01*
X25424214Y-185996674D01*
X25416861Y-185893875D01*
X25416371Y-185884611D01*
X25400647Y-185424302D01*
X25400500Y-185415665D01*
X25400500Y-182312323D01*
X25419758Y-182215504D01*
X25474602Y-182133425D01*
X25556681Y-182078581D01*
X25653500Y-182059323D01*
X25750319Y-182078581D01*
X25832398Y-182133425D01*
X25876625Y-182193059D01*
X25935279Y-182302792D01*
X26143435Y-182614320D01*
X26381123Y-182903944D01*
X26646056Y-183168877D01*
X26935680Y-183406565D01*
X27247208Y-183614721D01*
X27577638Y-183791340D01*
X27923789Y-183934720D01*
X28282326Y-184043481D01*
X28649798Y-184116576D01*
X29022665Y-184153300D01*
X29022666Y-184153300D01*
X29397334Y-184153300D01*
X29397335Y-184153300D01*
X29770202Y-184116576D01*
X30137674Y-184043481D01*
X30496211Y-183934720D01*
X30842362Y-183791340D01*
X31172792Y-183614721D01*
X31484320Y-183406565D01*
X31773944Y-183168877D01*
X32038877Y-182903944D01*
X32276565Y-182614320D01*
X32484721Y-182302792D01*
X32619574Y-182050499D01*
X32682199Y-181974192D01*
X32769258Y-181927658D01*
X32867499Y-181917982D01*
X32961964Y-181946638D01*
X33038272Y-182009263D01*
X33084806Y-182096322D01*
X33095700Y-182169764D01*
X33095700Y-185668844D01*
X33076442Y-185765663D01*
X33021598Y-185847742D01*
X32939519Y-185902586D01*
X32875723Y-185919680D01*
X32671865Y-185946518D01*
X32671862Y-185946518D01*
X32392007Y-186021505D01*
X32124306Y-186132390D01*
X32124304Y-186132391D01*
X31873397Y-186277253D01*
X31873384Y-186277262D01*
X31643518Y-186453644D01*
X31438644Y-186658518D01*
X31262262Y-186888384D01*
X31262253Y-186888397D01*
X31117391Y-187139304D01*
X31117390Y-187139306D01*
X31006505Y-187407007D01*
X30931518Y-187686862D01*
X30931517Y-187686867D01*
X30893700Y-187974126D01*
X30893700Y-188263873D01*
X30931517Y-188551132D01*
X30931518Y-188551137D01*
X31006505Y-188830992D01*
X31117390Y-189098693D01*
X31117391Y-189098695D01*
X31262253Y-189349602D01*
X31262259Y-189349612D01*
X31438642Y-189579479D01*
X31643521Y-189784358D01*
X31873388Y-189960741D01*
X31873397Y-189960746D01*
X32124304Y-190105608D01*
X32124306Y-190105609D01*
X32124308Y-190105610D01*
X32124312Y-190105612D01*
X32391998Y-190216491D01*
X32392002Y-190216492D01*
X32392007Y-190216494D01*
X32671862Y-190291481D01*
X32671867Y-190291482D01*
X32959129Y-190329300D01*
X32959131Y-190329300D01*
X33248869Y-190329300D01*
X33248871Y-190329300D01*
X33536133Y-190291482D01*
X33536137Y-190291481D01*
X33815992Y-190216494D01*
X33815994Y-190216493D01*
X33816002Y-190216491D01*
X34083688Y-190105612D01*
X34334612Y-189960741D01*
X34564479Y-189784358D01*
X34769358Y-189579479D01*
X34917667Y-189386199D01*
X34921071Y-189381763D01*
X34921072Y-189381761D01*
X34945733Y-189349622D01*
X34945741Y-189349612D01*
X35090612Y-189098688D01*
X35201491Y-188831002D01*
X35212302Y-188790657D01*
X35276481Y-188551137D01*
X35276482Y-188551132D01*
X35286082Y-188478210D01*
X35314300Y-188263871D01*
X35314300Y-187994139D01*
X36199000Y-187994139D01*
X36199000Y-188243860D01*
X36231595Y-188491446D01*
X36231595Y-188491449D01*
X36296223Y-188732645D01*
X36296225Y-188732651D01*
X36391793Y-188963373D01*
X36391794Y-188963375D01*
X36516645Y-189179622D01*
X36516654Y-189179635D01*
X36589377Y-189274410D01*
X37464180Y-188399607D01*
X37484997Y-188449864D01*
X37561439Y-188564268D01*
X37658732Y-188661561D01*
X37773136Y-188738003D01*
X37823390Y-188758819D01*
X36948588Y-189633621D01*
X37043365Y-189706347D01*
X37043366Y-189706348D01*
X37259624Y-189831205D01*
X37259626Y-189831206D01*
X37490348Y-189926774D01*
X37490354Y-189926776D01*
X37731551Y-189991404D01*
X37979139Y-190023999D01*
X37979142Y-190024000D01*
X38228858Y-190024000D01*
X38228860Y-190023999D01*
X38476446Y-189991404D01*
X38476449Y-189991404D01*
X38717645Y-189926776D01*
X38717651Y-189926774D01*
X38948373Y-189831206D01*
X38948375Y-189831205D01*
X39164624Y-189706353D01*
X39164633Y-189706347D01*
X39259411Y-189633621D01*
X38384609Y-188758819D01*
X38434864Y-188738003D01*
X38549268Y-188661561D01*
X38646561Y-188564268D01*
X38723003Y-188449864D01*
X38743819Y-188399609D01*
X39618621Y-189274411D01*
X39691347Y-189179633D01*
X39691353Y-189179624D01*
X39816205Y-188963375D01*
X39816206Y-188963373D01*
X39911774Y-188732651D01*
X39911776Y-188732645D01*
X39976404Y-188491449D01*
X39976404Y-188491446D01*
X40008999Y-188243860D01*
X40009000Y-188243857D01*
X40009000Y-187994142D01*
X40008999Y-187994139D01*
X39976404Y-187746553D01*
X39976404Y-187746550D01*
X39911776Y-187505354D01*
X39911774Y-187505348D01*
X39816206Y-187274626D01*
X39816205Y-187274624D01*
X39691348Y-187058366D01*
X39691347Y-187058365D01*
X39618621Y-186963588D01*
X38743818Y-187838390D01*
X38723003Y-187788136D01*
X38646561Y-187673732D01*
X38549268Y-187576439D01*
X38434864Y-187499997D01*
X38384607Y-187479180D01*
X39259411Y-186604377D01*
X39164635Y-186531654D01*
X39164622Y-186531645D01*
X38948375Y-186406794D01*
X38948373Y-186406793D01*
X38717651Y-186311225D01*
X38717645Y-186311223D01*
X38476448Y-186246595D01*
X38228860Y-186214000D01*
X37979139Y-186214000D01*
X37731553Y-186246595D01*
X37731550Y-186246595D01*
X37490354Y-186311223D01*
X37490348Y-186311225D01*
X37259626Y-186406793D01*
X37259624Y-186406794D01*
X37043375Y-186531646D01*
X37043355Y-186531659D01*
X36948587Y-186604377D01*
X37823390Y-187479180D01*
X37773136Y-187499997D01*
X37658732Y-187576439D01*
X37561439Y-187673732D01*
X37484997Y-187788136D01*
X37464180Y-187838390D01*
X36589377Y-186963587D01*
X36516659Y-187058355D01*
X36516646Y-187058375D01*
X36391794Y-187274624D01*
X36391793Y-187274626D01*
X36296225Y-187505348D01*
X36296223Y-187505354D01*
X36231595Y-187746550D01*
X36231595Y-187746553D01*
X36199000Y-187994139D01*
X35314300Y-187994139D01*
X35314300Y-187974129D01*
X35280294Y-187715822D01*
X35280115Y-187714322D01*
X35283824Y-187666627D01*
X35286955Y-187618873D01*
X35287667Y-187617214D01*
X35287770Y-187615903D01*
X35290764Y-187610013D01*
X35308556Y-187568629D01*
X35306944Y-187567808D01*
X35396800Y-187391454D01*
X35396801Y-187391452D01*
X35454892Y-187212666D01*
X35484300Y-187026994D01*
X35484300Y-186839007D01*
X35484300Y-181367720D01*
X35503558Y-181270901D01*
X35558402Y-181188822D01*
X35640481Y-181133978D01*
X35735763Y-181115025D01*
X36463600Y-180387188D01*
X36463600Y-180393504D01*
X36491295Y-180496865D01*
X36544799Y-180589536D01*
X36620464Y-180665201D01*
X36713135Y-180718705D01*
X36816496Y-180746400D01*
X36822810Y-180746400D01*
X36096093Y-181473115D01*
X36151121Y-181513094D01*
X36343491Y-181611111D01*
X36548820Y-181677826D01*
X36762051Y-181711599D01*
X36762055Y-181711600D01*
X36977945Y-181711600D01*
X36977948Y-181711599D01*
X37191179Y-181677826D01*
X37396511Y-181611110D01*
X37588870Y-181513099D01*
X37588879Y-181513094D01*
X37643904Y-181473115D01*
X37643904Y-181473114D01*
X36917190Y-180746400D01*
X36923504Y-180746400D01*
X37026865Y-180718705D01*
X37119536Y-180665201D01*
X37195201Y-180589536D01*
X37248705Y-180496865D01*
X37276400Y-180393504D01*
X37276400Y-180387190D01*
X38003114Y-181113904D01*
X38003115Y-181113904D01*
X38043094Y-181058879D01*
X38043099Y-181058870D01*
X38141110Y-180866511D01*
X38207826Y-180661179D01*
X38241599Y-180447948D01*
X38241600Y-180447944D01*
X38241600Y-180232055D01*
X38241599Y-180232051D01*
X38207826Y-180018820D01*
X38141111Y-179813491D01*
X38043094Y-179621121D01*
X38003115Y-179566093D01*
X37276400Y-180292808D01*
X37276400Y-180286496D01*
X37248705Y-180183135D01*
X37195201Y-180090464D01*
X37119536Y-180014799D01*
X37026865Y-179961295D01*
X36923504Y-179933600D01*
X36917188Y-179933600D01*
X37643904Y-179206884D01*
X37643904Y-179206883D01*
X37588878Y-179166905D01*
X37396508Y-179068888D01*
X37191179Y-179002173D01*
X36977948Y-178968400D01*
X36762051Y-178968400D01*
X36548820Y-179002173D01*
X36343491Y-179068888D01*
X36151120Y-179166905D01*
X36096094Y-179206883D01*
X36096094Y-179206884D01*
X36822810Y-179933600D01*
X36816496Y-179933600D01*
X36713135Y-179961295D01*
X36620464Y-180014799D01*
X36544799Y-180090464D01*
X36491295Y-180183135D01*
X36463600Y-180286496D01*
X36463600Y-180292810D01*
X35735762Y-179564972D01*
X35698447Y-179557549D01*
X35659119Y-179552895D01*
X35650346Y-179547982D01*
X35640481Y-179546020D01*
X35607543Y-179524011D01*
X35572990Y-179504661D01*
X35566763Y-179496763D01*
X35558402Y-179491176D01*
X35536397Y-179458244D01*
X35511875Y-179427138D01*
X35509145Y-179417458D01*
X35503558Y-179409097D01*
X35495830Y-179370247D01*
X35485080Y-179332128D01*
X35484300Y-179312278D01*
X35484300Y-176436009D01*
X35484299Y-176436002D01*
X35454893Y-176250335D01*
X35454893Y-176250334D01*
X35396801Y-176071548D01*
X35396799Y-176071544D01*
X35396798Y-176071541D01*
X35311456Y-175904048D01*
X35256209Y-175828008D01*
X35256208Y-175828007D01*
X35200960Y-175751964D01*
X29208402Y-169759406D01*
X29153558Y-169677327D01*
X29134300Y-169580508D01*
X29134300Y-156889491D01*
X29153558Y-156792672D01*
X29208402Y-156710593D01*
X31767993Y-154151002D01*
X31850072Y-154096158D01*
X31931812Y-154079899D01*
X31931651Y-154077441D01*
X31939907Y-154076900D01*
X31939910Y-154076900D01*
X31939913Y-154076899D01*
X31939922Y-154076899D01*
X32054123Y-154061863D01*
X32157849Y-154048208D01*
X32370178Y-153991314D01*
X32573265Y-153907193D01*
X32573272Y-153907189D01*
X32573276Y-153907187D01*
X32632673Y-153872893D01*
X32763635Y-153797283D01*
X32938029Y-153663465D01*
X33093465Y-153508029D01*
X33227283Y-153333635D01*
X33337193Y-153143265D01*
X33421314Y-152940178D01*
X33478208Y-152727849D01*
X33497818Y-152578898D01*
X33506899Y-152509922D01*
X33506900Y-152509907D01*
X33506900Y-152436891D01*
X33526158Y-152340072D01*
X33558245Y-152292051D01*
X35458400Y-152292051D01*
X35458400Y-152507948D01*
X35492173Y-152721179D01*
X35558888Y-152926508D01*
X35656905Y-153118878D01*
X35696883Y-153173904D01*
X35696884Y-153173904D01*
X36423600Y-152447188D01*
X36423600Y-152453504D01*
X36451295Y-152556865D01*
X36504799Y-152649536D01*
X36580464Y-152725201D01*
X36673135Y-152778705D01*
X36776496Y-152806400D01*
X36782810Y-152806400D01*
X36056093Y-153533115D01*
X36111121Y-153573094D01*
X36303491Y-153671111D01*
X36508820Y-153737826D01*
X36722051Y-153771599D01*
X36722055Y-153771600D01*
X36937945Y-153771600D01*
X36937948Y-153771599D01*
X37151179Y-153737826D01*
X37356511Y-153671110D01*
X37548870Y-153573099D01*
X37548879Y-153573094D01*
X37603904Y-153533115D01*
X37603904Y-153533114D01*
X36877190Y-152806400D01*
X36883504Y-152806400D01*
X36986865Y-152778705D01*
X37079536Y-152725201D01*
X37155201Y-152649536D01*
X37208705Y-152556865D01*
X37236400Y-152453504D01*
X37236400Y-152447190D01*
X37963114Y-153173904D01*
X37963115Y-153173904D01*
X38003094Y-153118879D01*
X38003099Y-153118870D01*
X38101110Y-152926511D01*
X38167826Y-152721179D01*
X38201599Y-152507948D01*
X38201600Y-152507944D01*
X38201600Y-152292055D01*
X38201599Y-152292051D01*
X38167826Y-152078820D01*
X38101111Y-151873491D01*
X38003094Y-151681121D01*
X37963115Y-151626093D01*
X37236400Y-152352808D01*
X37236400Y-152346496D01*
X37208705Y-152243135D01*
X37155201Y-152150464D01*
X37079536Y-152074799D01*
X36986865Y-152021295D01*
X36883504Y-151993600D01*
X36877188Y-151993600D01*
X37603904Y-151266884D01*
X37603904Y-151266883D01*
X37548878Y-151226905D01*
X37356508Y-151128888D01*
X37151179Y-151062173D01*
X36937948Y-151028400D01*
X36722051Y-151028400D01*
X36508820Y-151062173D01*
X36303491Y-151128888D01*
X36111120Y-151226905D01*
X36056094Y-151266883D01*
X36056094Y-151266884D01*
X36782810Y-151993600D01*
X36776496Y-151993600D01*
X36673135Y-152021295D01*
X36580464Y-152074799D01*
X36504799Y-152150464D01*
X36451295Y-152243135D01*
X36423600Y-152346496D01*
X36423600Y-152352810D01*
X35696884Y-151626094D01*
X35696883Y-151626094D01*
X35656905Y-151681120D01*
X35558888Y-151873491D01*
X35492173Y-152078820D01*
X35458400Y-152292051D01*
X33558245Y-152292051D01*
X33581002Y-152257993D01*
X36767993Y-149071002D01*
X36850072Y-149016158D01*
X36946891Y-148996900D01*
X37346308Y-148996900D01*
X37346310Y-148996900D01*
X37346312Y-148996899D01*
X37346322Y-148996899D01*
X37460523Y-148981863D01*
X37564249Y-148968208D01*
X37776578Y-148911314D01*
X37979665Y-148827193D01*
X37979672Y-148827189D01*
X37979676Y-148827187D01*
X38039073Y-148792893D01*
X38170035Y-148717283D01*
X38344429Y-148583465D01*
X38499865Y-148428029D01*
X38633683Y-148253635D01*
X38743593Y-148063265D01*
X38827714Y-147860178D01*
X38884608Y-147647849D01*
X38898263Y-147544123D01*
X38913299Y-147429922D01*
X38913300Y-147429907D01*
X38913300Y-147210092D01*
X38913299Y-147210077D01*
X38884608Y-146992154D01*
X38884608Y-146992151D01*
X38827714Y-146779822D01*
X38743593Y-146576735D01*
X38743590Y-146576730D01*
X38743589Y-146576727D01*
X38743587Y-146576723D01*
X38633688Y-146386374D01*
X38633683Y-146386365D01*
X38499865Y-146211971D01*
X38344429Y-146056535D01*
X38344428Y-146056534D01*
X38344426Y-146056532D01*
X38320981Y-146038542D01*
X38255894Y-145964323D01*
X38224163Y-145870846D01*
X38230620Y-145772342D01*
X38274282Y-145683807D01*
X38282602Y-145673532D01*
X38409491Y-145498884D01*
X38409499Y-145498870D01*
X38507510Y-145306511D01*
X38574226Y-145101180D01*
X38584867Y-145034000D01*
X37343264Y-145034000D01*
X37362553Y-145000591D01*
X37401500Y-144855239D01*
X37401500Y-144704761D01*
X37362553Y-144559409D01*
X37343264Y-144526000D01*
X38584866Y-144526000D01*
X38574226Y-144458819D01*
X38507510Y-144253488D01*
X38409501Y-144061133D01*
X38405951Y-144055340D01*
X38371779Y-143962728D01*
X38375649Y-143864088D01*
X38416972Y-143774438D01*
X38461157Y-143727567D01*
X38605505Y-143609105D01*
X38738380Y-143447196D01*
X38837114Y-143262476D01*
X38897915Y-143062043D01*
X38913300Y-142905838D01*
X38913300Y-141574162D01*
X38897915Y-141417957D01*
X38837114Y-141217524D01*
X38738380Y-141032804D01*
X38605505Y-140870895D01*
X38443596Y-140738020D01*
X38258876Y-140639286D01*
X38258870Y-140639284D01*
X38058447Y-140578486D01*
X38058445Y-140578485D01*
X38023730Y-140575066D01*
X37902238Y-140563100D01*
X37902231Y-140563100D01*
X36946891Y-140563100D01*
X36850072Y-140543842D01*
X36767993Y-140488998D01*
X34654584Y-138375588D01*
X33581002Y-137302006D01*
X33526158Y-137219927D01*
X33506900Y-137123108D01*
X33506900Y-137052051D01*
X35458400Y-137052051D01*
X35458400Y-137267948D01*
X35492173Y-137481179D01*
X35558888Y-137686508D01*
X35656905Y-137878878D01*
X35696883Y-137933904D01*
X35696884Y-137933904D01*
X36423600Y-137207188D01*
X36423600Y-137213504D01*
X36451295Y-137316865D01*
X36504799Y-137409536D01*
X36580464Y-137485201D01*
X36673135Y-137538705D01*
X36776496Y-137566400D01*
X36782810Y-137566400D01*
X36056093Y-138293115D01*
X36111121Y-138333094D01*
X36303491Y-138431111D01*
X36508820Y-138497826D01*
X36722051Y-138531599D01*
X36722055Y-138531600D01*
X36937945Y-138531600D01*
X36937948Y-138531599D01*
X37151179Y-138497826D01*
X37356511Y-138431110D01*
X37548870Y-138333099D01*
X37548879Y-138333094D01*
X37603904Y-138293115D01*
X37603904Y-138293114D01*
X36877190Y-137566400D01*
X36883504Y-137566400D01*
X36986865Y-137538705D01*
X37079536Y-137485201D01*
X37155201Y-137409536D01*
X37208705Y-137316865D01*
X37236400Y-137213504D01*
X37236400Y-137207190D01*
X37963114Y-137933904D01*
X37963115Y-137933904D01*
X38003094Y-137878879D01*
X38003099Y-137878870D01*
X38101110Y-137686511D01*
X38167826Y-137481179D01*
X38201599Y-137267948D01*
X38201600Y-137267944D01*
X38201600Y-137052055D01*
X38201599Y-137052051D01*
X38167826Y-136838820D01*
X38101111Y-136633491D01*
X38003094Y-136441121D01*
X37963115Y-136386093D01*
X37236400Y-137112808D01*
X37236400Y-137106496D01*
X37208705Y-137003135D01*
X37155201Y-136910464D01*
X37079536Y-136834799D01*
X36986865Y-136781295D01*
X36883504Y-136753600D01*
X36877188Y-136753600D01*
X37603904Y-136026884D01*
X37603904Y-136026883D01*
X37548878Y-135986905D01*
X37356508Y-135888888D01*
X37151179Y-135822173D01*
X36937948Y-135788400D01*
X36722051Y-135788400D01*
X36508820Y-135822173D01*
X36303491Y-135888888D01*
X36111120Y-135986905D01*
X36056094Y-136026883D01*
X36056094Y-136026884D01*
X36782810Y-136753600D01*
X36776496Y-136753600D01*
X36673135Y-136781295D01*
X36580464Y-136834799D01*
X36504799Y-136910464D01*
X36451295Y-137003135D01*
X36423600Y-137106496D01*
X36423600Y-137112810D01*
X35696884Y-136386094D01*
X35696883Y-136386094D01*
X35656905Y-136441120D01*
X35558888Y-136633491D01*
X35492173Y-136838820D01*
X35458400Y-137052051D01*
X33506900Y-137052051D01*
X33506900Y-137050092D01*
X33506899Y-137050077D01*
X33479086Y-136838820D01*
X33478208Y-136832151D01*
X33421314Y-136619822D01*
X33337193Y-136416735D01*
X33337190Y-136416730D01*
X33337189Y-136416727D01*
X33337187Y-136416723D01*
X33248185Y-136262568D01*
X33248184Y-136262566D01*
X33227283Y-136226365D01*
X33093465Y-136051971D01*
X33085373Y-136043879D01*
X33074365Y-136029093D01*
X33060940Y-136000843D01*
X33043558Y-135974829D01*
X33039944Y-135956660D01*
X33031995Y-135939933D01*
X33030403Y-135908692D01*
X33024300Y-135878010D01*
X33024300Y-124343450D01*
X36382000Y-124343450D01*
X36382000Y-124576549D01*
X36412422Y-124807616D01*
X36412422Y-124807619D01*
X36472742Y-125032736D01*
X36561941Y-125248082D01*
X36561942Y-125248084D01*
X36678470Y-125449915D01*
X36678477Y-125449925D01*
X36735954Y-125524832D01*
X37568781Y-124692005D01*
X37597271Y-124760785D01*
X37666764Y-124864789D01*
X37755211Y-124953236D01*
X37859215Y-125022729D01*
X37927992Y-125051217D01*
X37095165Y-125884044D01*
X37170064Y-125941516D01*
X37170084Y-125941529D01*
X37371915Y-126058057D01*
X37371917Y-126058058D01*
X37587263Y-126147257D01*
X37812382Y-126207577D01*
X38043450Y-126237999D01*
X38043465Y-126238000D01*
X38276535Y-126238000D01*
X38276549Y-126237999D01*
X38507616Y-126207577D01*
X38507619Y-126207577D01*
X38732736Y-126147257D01*
X38948082Y-126058058D01*
X38948084Y-126058057D01*
X39149924Y-125941524D01*
X39149925Y-125941523D01*
X39224832Y-125884044D01*
X39224833Y-125884043D01*
X38392007Y-125051217D01*
X38460785Y-125022729D01*
X38564789Y-124953236D01*
X38653236Y-124864789D01*
X38722729Y-124760785D01*
X38751218Y-124692007D01*
X39584043Y-125524833D01*
X39584044Y-125524832D01*
X39641523Y-125449925D01*
X39641524Y-125449924D01*
X39758057Y-125248084D01*
X39758058Y-125248082D01*
X39847257Y-125032736D01*
X39907577Y-124807619D01*
X39907577Y-124807616D01*
X39937999Y-124576549D01*
X39938000Y-124576535D01*
X39938000Y-124343464D01*
X39937999Y-124343450D01*
X39907577Y-124112383D01*
X39907577Y-124112380D01*
X39847257Y-123887263D01*
X39758058Y-123671917D01*
X39758057Y-123671915D01*
X39641529Y-123470084D01*
X39641516Y-123470064D01*
X39584044Y-123395165D01*
X38751217Y-124227991D01*
X38722729Y-124159215D01*
X38653236Y-124055211D01*
X38564789Y-123966764D01*
X38460785Y-123897271D01*
X38392005Y-123868781D01*
X39224833Y-123035955D01*
X39149925Y-122978477D01*
X39149915Y-122978470D01*
X38948084Y-122861942D01*
X38948082Y-122861941D01*
X38732736Y-122772742D01*
X38507617Y-122712422D01*
X38276549Y-122682000D01*
X38043450Y-122682000D01*
X37812383Y-122712422D01*
X37812380Y-122712422D01*
X37587263Y-122772742D01*
X37371917Y-122861941D01*
X37371914Y-122861942D01*
X37170087Y-122978468D01*
X37170085Y-122978469D01*
X37095166Y-123035955D01*
X37927992Y-123868781D01*
X37859215Y-123897271D01*
X37755211Y-123966764D01*
X37666764Y-124055211D01*
X37597271Y-124159215D01*
X37568781Y-124227992D01*
X36735955Y-123395166D01*
X36678469Y-123470085D01*
X36678468Y-123470087D01*
X36561942Y-123671914D01*
X36561941Y-123671917D01*
X36472742Y-123887263D01*
X36412422Y-124112380D01*
X36412422Y-124112383D01*
X36382000Y-124343450D01*
X33024300Y-124343450D01*
X33024300Y-110416009D01*
X33024300Y-110416007D01*
X32994892Y-110230334D01*
X32936801Y-110051548D01*
X32936800Y-110051547D01*
X32936800Y-110051545D01*
X32851456Y-109884048D01*
X32740961Y-109731966D01*
X32681535Y-109672540D01*
X32672707Y-109659328D01*
X32660696Y-109648929D01*
X32645518Y-109618637D01*
X32626691Y-109590461D01*
X32623591Y-109574875D01*
X32616474Y-109560672D01*
X32614208Y-109527705D01*
X32607433Y-109493642D01*
X32609393Y-109462211D01*
X32609472Y-109461574D01*
X32623300Y-109356547D01*
X32623300Y-109083453D01*
X32623299Y-109083439D01*
X32605738Y-108950060D01*
X32587654Y-108812696D01*
X32516972Y-108548908D01*
X32412464Y-108296603D01*
X32412461Y-108296597D01*
X32412460Y-108296595D01*
X32275922Y-108060106D01*
X32275917Y-108060097D01*
X32154140Y-107901394D01*
X36262000Y-107901394D01*
X36262000Y-108966000D01*
X37457892Y-108966000D01*
X37429403Y-109034777D01*
X37405000Y-109157458D01*
X37405000Y-109282542D01*
X37429403Y-109405223D01*
X37457892Y-109474000D01*
X36262000Y-109474000D01*
X36262000Y-110538605D01*
X36268503Y-110599089D01*
X36268505Y-110599096D01*
X36319552Y-110735959D01*
X36319555Y-110735965D01*
X36407094Y-110852902D01*
X36407097Y-110852905D01*
X36524034Y-110940444D01*
X36524040Y-110940447D01*
X36660903Y-110991494D01*
X36660910Y-110991496D01*
X36721394Y-110997999D01*
X36721412Y-110998000D01*
X37786000Y-110998000D01*
X37786000Y-109802108D01*
X37854777Y-109830597D01*
X37977458Y-109855000D01*
X38102542Y-109855000D01*
X38225223Y-109830597D01*
X38294000Y-109802108D01*
X38294000Y-110998000D01*
X39358588Y-110998000D01*
X39358605Y-110997999D01*
X39419089Y-110991496D01*
X39419096Y-110991494D01*
X39555959Y-110940447D01*
X39555965Y-110940444D01*
X39672902Y-110852905D01*
X39672905Y-110852902D01*
X39760444Y-110735965D01*
X39760447Y-110735959D01*
X39811494Y-110599096D01*
X39811496Y-110599089D01*
X39817999Y-110538605D01*
X39818000Y-110538587D01*
X39818000Y-109474000D01*
X38622108Y-109474000D01*
X38650597Y-109405223D01*
X38675000Y-109282542D01*
X38675000Y-109157458D01*
X38650597Y-109034777D01*
X38622108Y-108966000D01*
X39818000Y-108966000D01*
X39818000Y-107901412D01*
X39817999Y-107901394D01*
X39811496Y-107840910D01*
X39811494Y-107840903D01*
X39760447Y-107704040D01*
X39760444Y-107704034D01*
X39672905Y-107587097D01*
X39672902Y-107587094D01*
X39555965Y-107499555D01*
X39555959Y-107499552D01*
X39419096Y-107448505D01*
X39419089Y-107448503D01*
X39358605Y-107442000D01*
X38294000Y-107442000D01*
X38294000Y-108637891D01*
X38225223Y-108609403D01*
X38102542Y-108585000D01*
X37977458Y-108585000D01*
X37854777Y-108609403D01*
X37786000Y-108637891D01*
X37786000Y-107442000D01*
X36721394Y-107442000D01*
X36660910Y-107448503D01*
X36660903Y-107448505D01*
X36524040Y-107499552D01*
X36524034Y-107499555D01*
X36407097Y-107587094D01*
X36407094Y-107587097D01*
X36319555Y-107704034D01*
X36319552Y-107704040D01*
X36268505Y-107840903D01*
X36268503Y-107840910D01*
X36262000Y-107901394D01*
X32154140Y-107901394D01*
X32109669Y-107843438D01*
X31916562Y-107650331D01*
X31833281Y-107586427D01*
X31768195Y-107512209D01*
X31736464Y-107418732D01*
X31734300Y-107385710D01*
X31734300Y-97602661D01*
X34286700Y-97602661D01*
X34286700Y-97977338D01*
X34323423Y-98350197D01*
X34323424Y-98350202D01*
X34396519Y-98717674D01*
X34505280Y-99076211D01*
X34648660Y-99422362D01*
X34825279Y-99752792D01*
X35033435Y-100064320D01*
X35271123Y-100353944D01*
X35536056Y-100618877D01*
X35825680Y-100856565D01*
X36137208Y-101064721D01*
X36467638Y-101241340D01*
X36813789Y-101384720D01*
X37172326Y-101493481D01*
X37539798Y-101566576D01*
X37912665Y-101603300D01*
X37912666Y-101603300D01*
X38287334Y-101603300D01*
X38287335Y-101603300D01*
X38660202Y-101566576D01*
X39027674Y-101493481D01*
X39386211Y-101384720D01*
X39732362Y-101241340D01*
X40062792Y-101064721D01*
X40374320Y-100856565D01*
X40663944Y-100618877D01*
X40928877Y-100353944D01*
X41166565Y-100064320D01*
X41374721Y-99752792D01*
X41551340Y-99422362D01*
X41694720Y-99076211D01*
X41803481Y-98717674D01*
X41876576Y-98350202D01*
X41913300Y-97977335D01*
X41913300Y-97602665D01*
X41876576Y-97229798D01*
X41803481Y-96862326D01*
X41694720Y-96503789D01*
X41551340Y-96157638D01*
X41374721Y-95827208D01*
X41166565Y-95515680D01*
X40928877Y-95226056D01*
X40663944Y-94961123D01*
X40374320Y-94723435D01*
X40062792Y-94515279D01*
X39732362Y-94338660D01*
X39386211Y-94195280D01*
X39386212Y-94195280D01*
X39386209Y-94195279D01*
X39027682Y-94086521D01*
X39027677Y-94086520D01*
X39027674Y-94086519D01*
X38660202Y-94013424D01*
X38660197Y-94013423D01*
X38287338Y-93976700D01*
X38287335Y-93976700D01*
X37912665Y-93976700D01*
X37912661Y-93976700D01*
X37539802Y-94013423D01*
X37356062Y-94049971D01*
X37172326Y-94086519D01*
X37172324Y-94086519D01*
X37172322Y-94086520D01*
X37172317Y-94086521D01*
X36813790Y-94195279D01*
X36467644Y-94338657D01*
X36467635Y-94338661D01*
X36137208Y-94515279D01*
X35825678Y-94723436D01*
X35825675Y-94723438D01*
X35536056Y-94961122D01*
X35536056Y-94961123D01*
X35271123Y-95226056D01*
X35271122Y-95226056D01*
X35033438Y-95515675D01*
X35033436Y-95515678D01*
X34825279Y-95827208D01*
X34648661Y-96157635D01*
X34648657Y-96157644D01*
X34505279Y-96503790D01*
X34396521Y-96862317D01*
X34396520Y-96862322D01*
X34323423Y-97229802D01*
X34286700Y-97602661D01*
X31734300Y-97602661D01*
X31734300Y-86243450D01*
X36382000Y-86243450D01*
X36382000Y-86476549D01*
X36412422Y-86707616D01*
X36412422Y-86707619D01*
X36472742Y-86932736D01*
X36561941Y-87148082D01*
X36561942Y-87148084D01*
X36678470Y-87349915D01*
X36678477Y-87349925D01*
X36735954Y-87424832D01*
X37568781Y-86592005D01*
X37597271Y-86660785D01*
X37666764Y-86764789D01*
X37755211Y-86853236D01*
X37859215Y-86922729D01*
X37927992Y-86951217D01*
X37095165Y-87784044D01*
X37170064Y-87841516D01*
X37170084Y-87841529D01*
X37371915Y-87958057D01*
X37371917Y-87958058D01*
X37587263Y-88047257D01*
X37812382Y-88107577D01*
X38043450Y-88137999D01*
X38043465Y-88138000D01*
X38276535Y-88138000D01*
X38276549Y-88137999D01*
X38507616Y-88107577D01*
X38507619Y-88107577D01*
X38732736Y-88047257D01*
X38948082Y-87958058D01*
X38948084Y-87958057D01*
X39149924Y-87841524D01*
X39149925Y-87841523D01*
X39224832Y-87784044D01*
X39224833Y-87784043D01*
X38392007Y-86951217D01*
X38460785Y-86922729D01*
X38564789Y-86853236D01*
X38653236Y-86764789D01*
X38722729Y-86660785D01*
X38751218Y-86592007D01*
X39584043Y-87424833D01*
X39584044Y-87424832D01*
X39641523Y-87349925D01*
X39641524Y-87349924D01*
X39758057Y-87148084D01*
X39758058Y-87148082D01*
X39847257Y-86932736D01*
X39907577Y-86707619D01*
X39907577Y-86707616D01*
X39937999Y-86476549D01*
X39938000Y-86476535D01*
X39938000Y-86243464D01*
X39937999Y-86243450D01*
X39907577Y-86012383D01*
X39907577Y-86012380D01*
X39847257Y-85787263D01*
X39758058Y-85571917D01*
X39758057Y-85571915D01*
X39641529Y-85370084D01*
X39641516Y-85370064D01*
X39584044Y-85295165D01*
X38751217Y-86127991D01*
X38722729Y-86059215D01*
X38653236Y-85955211D01*
X38564789Y-85866764D01*
X38460785Y-85797271D01*
X38392005Y-85768781D01*
X39224833Y-84935955D01*
X39149925Y-84878477D01*
X39149915Y-84878470D01*
X38948084Y-84761942D01*
X38948082Y-84761941D01*
X38732736Y-84672742D01*
X38507617Y-84612422D01*
X38276549Y-84582000D01*
X38043450Y-84582000D01*
X37812383Y-84612422D01*
X37812380Y-84612422D01*
X37587263Y-84672742D01*
X37371917Y-84761941D01*
X37371914Y-84761942D01*
X37170087Y-84878468D01*
X37170085Y-84878469D01*
X37095166Y-84935955D01*
X37927992Y-85768781D01*
X37859215Y-85797271D01*
X37755211Y-85866764D01*
X37666764Y-85955211D01*
X37597271Y-86059215D01*
X37568781Y-86127992D01*
X36735955Y-85295166D01*
X36678469Y-85370085D01*
X36678468Y-85370087D01*
X36561942Y-85571914D01*
X36561941Y-85571917D01*
X36472742Y-85787263D01*
X36412422Y-86012380D01*
X36412422Y-86012383D01*
X36382000Y-86243450D01*
X31734300Y-86243450D01*
X31734300Y-72954289D01*
X31753558Y-72857470D01*
X31808402Y-72775391D01*
X31833284Y-72753570D01*
X31834155Y-72752902D01*
X31916562Y-72689669D01*
X32109669Y-72496562D01*
X32275917Y-72279903D01*
X32412464Y-72043397D01*
X32516972Y-71791092D01*
X32587654Y-71527304D01*
X32616892Y-71305223D01*
X32623299Y-71256557D01*
X32623300Y-71256549D01*
X32623300Y-70983453D01*
X32623299Y-70983439D01*
X32605738Y-70850060D01*
X32587654Y-70712696D01*
X32516972Y-70448908D01*
X32412464Y-70196603D01*
X32412461Y-70196597D01*
X32412460Y-70196595D01*
X32275922Y-69960106D01*
X32275917Y-69960097D01*
X32154140Y-69801394D01*
X36262000Y-69801394D01*
X36262000Y-70866000D01*
X37457892Y-70866000D01*
X37429403Y-70934777D01*
X37405000Y-71057458D01*
X37405000Y-71182542D01*
X37429403Y-71305223D01*
X37457892Y-71374000D01*
X36262000Y-71374000D01*
X36262000Y-72438605D01*
X36268503Y-72499089D01*
X36268505Y-72499096D01*
X36319552Y-72635959D01*
X36319555Y-72635965D01*
X36407094Y-72752902D01*
X36407097Y-72752905D01*
X36524034Y-72840444D01*
X36524040Y-72840447D01*
X36660903Y-72891494D01*
X36660910Y-72891496D01*
X36721394Y-72897999D01*
X36721412Y-72898000D01*
X37786000Y-72898000D01*
X37786000Y-71702108D01*
X37854777Y-71730597D01*
X37977458Y-71755000D01*
X38102542Y-71755000D01*
X38225223Y-71730597D01*
X38294000Y-71702108D01*
X38294000Y-72898000D01*
X39358588Y-72898000D01*
X39358605Y-72897999D01*
X39419089Y-72891496D01*
X39419096Y-72891494D01*
X39555959Y-72840447D01*
X39555965Y-72840444D01*
X39672902Y-72752905D01*
X39672905Y-72752902D01*
X39760444Y-72635965D01*
X39760447Y-72635959D01*
X39811494Y-72499096D01*
X39811496Y-72499089D01*
X39817999Y-72438605D01*
X39818000Y-72438587D01*
X39818000Y-71374000D01*
X38622108Y-71374000D01*
X38650597Y-71305223D01*
X38675000Y-71182542D01*
X38675000Y-71057458D01*
X38650597Y-70934777D01*
X38622108Y-70866000D01*
X39818000Y-70866000D01*
X39818000Y-69801412D01*
X39817999Y-69801394D01*
X39811496Y-69740910D01*
X39811494Y-69740903D01*
X39760447Y-69604040D01*
X39760444Y-69604034D01*
X39672905Y-69487097D01*
X39672902Y-69487094D01*
X39555965Y-69399555D01*
X39555959Y-69399552D01*
X39419096Y-69348505D01*
X39419089Y-69348503D01*
X39358605Y-69342000D01*
X38294000Y-69342000D01*
X38294000Y-70537891D01*
X38225223Y-70509403D01*
X38102542Y-70485000D01*
X37977458Y-70485000D01*
X37854777Y-70509403D01*
X37786000Y-70537891D01*
X37786000Y-69342000D01*
X36721394Y-69342000D01*
X36660910Y-69348503D01*
X36660903Y-69348505D01*
X36524040Y-69399552D01*
X36524034Y-69399555D01*
X36407097Y-69487094D01*
X36407094Y-69487097D01*
X36319555Y-69604034D01*
X36319552Y-69604040D01*
X36268505Y-69740903D01*
X36268503Y-69740910D01*
X36262000Y-69801394D01*
X32154140Y-69801394D01*
X32109669Y-69743438D01*
X31916562Y-69550331D01*
X31833281Y-69486427D01*
X31768195Y-69412209D01*
X31736464Y-69318732D01*
X31734300Y-69285710D01*
X31734300Y-55763450D01*
X36382000Y-55763450D01*
X36382000Y-55996549D01*
X36412422Y-56227616D01*
X36412422Y-56227619D01*
X36472742Y-56452736D01*
X36561941Y-56668082D01*
X36561942Y-56668084D01*
X36678470Y-56869915D01*
X36678477Y-56869925D01*
X36735954Y-56944832D01*
X37568781Y-56112005D01*
X37597271Y-56180785D01*
X37666764Y-56284789D01*
X37755211Y-56373236D01*
X37859215Y-56442729D01*
X37927992Y-56471217D01*
X37095165Y-57304044D01*
X37170064Y-57361516D01*
X37170084Y-57361529D01*
X37371915Y-57478057D01*
X37371917Y-57478058D01*
X37587263Y-57567257D01*
X37812382Y-57627577D01*
X38043450Y-57657999D01*
X38043465Y-57658000D01*
X38276535Y-57658000D01*
X38276549Y-57657999D01*
X38507616Y-57627577D01*
X38507619Y-57627577D01*
X38732736Y-57567257D01*
X38948082Y-57478058D01*
X38948084Y-57478057D01*
X39149924Y-57361524D01*
X39149925Y-57361523D01*
X39224832Y-57304044D01*
X39224833Y-57304043D01*
X38392007Y-56471217D01*
X38460785Y-56442729D01*
X38564789Y-56373236D01*
X38653236Y-56284789D01*
X38722729Y-56180785D01*
X38751218Y-56112007D01*
X39584043Y-56944833D01*
X39584044Y-56944832D01*
X39641523Y-56869925D01*
X39641524Y-56869924D01*
X39758057Y-56668084D01*
X39758058Y-56668082D01*
X39847257Y-56452736D01*
X39907577Y-56227619D01*
X39907577Y-56227616D01*
X39937999Y-55996549D01*
X39938000Y-55996535D01*
X39938000Y-55763464D01*
X39937999Y-55763450D01*
X39907577Y-55532383D01*
X39907577Y-55532380D01*
X39847257Y-55307263D01*
X39758058Y-55091917D01*
X39758057Y-55091915D01*
X39641529Y-54890084D01*
X39641516Y-54890064D01*
X39584044Y-54815165D01*
X38751217Y-55647991D01*
X38722729Y-55579215D01*
X38653236Y-55475211D01*
X38564789Y-55386764D01*
X38460785Y-55317271D01*
X38392005Y-55288781D01*
X39224833Y-54455955D01*
X39149925Y-54398477D01*
X39149915Y-54398470D01*
X38948084Y-54281942D01*
X38948082Y-54281941D01*
X38732736Y-54192742D01*
X38507617Y-54132422D01*
X38276549Y-54102000D01*
X38043450Y-54102000D01*
X37812383Y-54132422D01*
X37812380Y-54132422D01*
X37587263Y-54192742D01*
X37371917Y-54281941D01*
X37371914Y-54281942D01*
X37170087Y-54398468D01*
X37170085Y-54398469D01*
X37095166Y-54455955D01*
X37927992Y-55288781D01*
X37859215Y-55317271D01*
X37755211Y-55386764D01*
X37666764Y-55475211D01*
X37597271Y-55579215D01*
X37568781Y-55647992D01*
X36735955Y-54815166D01*
X36678469Y-54890085D01*
X36678468Y-54890087D01*
X36561942Y-55091914D01*
X36561941Y-55091917D01*
X36472742Y-55307263D01*
X36412422Y-55532380D01*
X36412422Y-55532383D01*
X36382000Y-55763450D01*
X31734300Y-55763450D01*
X31734300Y-42474289D01*
X31753558Y-42377470D01*
X31808402Y-42295391D01*
X31833284Y-42273570D01*
X31834155Y-42272902D01*
X31916562Y-42209669D01*
X32109669Y-42016562D01*
X32275917Y-41799903D01*
X32412464Y-41563397D01*
X32516972Y-41311092D01*
X32587654Y-41047304D01*
X32616892Y-40825223D01*
X32623299Y-40776557D01*
X32623300Y-40776549D01*
X32623300Y-40503453D01*
X32623299Y-40503439D01*
X32605738Y-40370060D01*
X32587654Y-40232696D01*
X32516972Y-39968908D01*
X32412464Y-39716603D01*
X32412461Y-39716597D01*
X32412460Y-39716595D01*
X32275922Y-39480106D01*
X32275917Y-39480097D01*
X32154140Y-39321394D01*
X36262000Y-39321394D01*
X36262000Y-40386000D01*
X37457892Y-40386000D01*
X37429403Y-40454777D01*
X37405000Y-40577458D01*
X37405000Y-40702542D01*
X37429403Y-40825223D01*
X37457892Y-40894000D01*
X36262000Y-40894000D01*
X36262000Y-41958605D01*
X36268503Y-42019089D01*
X36268505Y-42019096D01*
X36319552Y-42155959D01*
X36319555Y-42155965D01*
X36407094Y-42272902D01*
X36407097Y-42272905D01*
X36524034Y-42360444D01*
X36524040Y-42360447D01*
X36660903Y-42411494D01*
X36660910Y-42411496D01*
X36721394Y-42417999D01*
X36721412Y-42418000D01*
X37786000Y-42418000D01*
X37786000Y-41222108D01*
X37854777Y-41250597D01*
X37977458Y-41275000D01*
X38102542Y-41275000D01*
X38225223Y-41250597D01*
X38294000Y-41222108D01*
X38294000Y-42418000D01*
X39358588Y-42418000D01*
X39358605Y-42417999D01*
X39419089Y-42411496D01*
X39419096Y-42411494D01*
X39555959Y-42360447D01*
X39555965Y-42360444D01*
X39672902Y-42272905D01*
X39672905Y-42272902D01*
X39760444Y-42155965D01*
X39760447Y-42155959D01*
X39811494Y-42019096D01*
X39811496Y-42019089D01*
X39817999Y-41958605D01*
X39818000Y-41958587D01*
X39818000Y-40894000D01*
X38622108Y-40894000D01*
X38650597Y-40825223D01*
X38675000Y-40702542D01*
X38675000Y-40577458D01*
X38650597Y-40454777D01*
X38622108Y-40386000D01*
X39818000Y-40386000D01*
X39818000Y-39321412D01*
X39817999Y-39321394D01*
X39811496Y-39260910D01*
X39811494Y-39260903D01*
X39760447Y-39124040D01*
X39760444Y-39124034D01*
X39672905Y-39007097D01*
X39672902Y-39007094D01*
X39555965Y-38919555D01*
X39555959Y-38919552D01*
X39419096Y-38868505D01*
X39419089Y-38868503D01*
X39358605Y-38862000D01*
X38294000Y-38862000D01*
X38294000Y-40057891D01*
X38225223Y-40029403D01*
X38102542Y-40005000D01*
X37977458Y-40005000D01*
X37854777Y-40029403D01*
X37786000Y-40057891D01*
X37786000Y-38862000D01*
X36721394Y-38862000D01*
X36660910Y-38868503D01*
X36660903Y-38868505D01*
X36524040Y-38919552D01*
X36524034Y-38919555D01*
X36407097Y-39007094D01*
X36407094Y-39007097D01*
X36319555Y-39124034D01*
X36319552Y-39124040D01*
X36268505Y-39260903D01*
X36268503Y-39260910D01*
X36262000Y-39321394D01*
X32154140Y-39321394D01*
X32109669Y-39263438D01*
X31916562Y-39070331D01*
X31773284Y-38960390D01*
X31708196Y-38886171D01*
X31676464Y-38792694D01*
X31674300Y-38759671D01*
X31674300Y-31656007D01*
X31674299Y-31656001D01*
X31672225Y-31642902D01*
X31672225Y-31642901D01*
X31644893Y-31470335D01*
X31626470Y-31413635D01*
X31586801Y-31291548D01*
X31505767Y-31132509D01*
X31501457Y-31124050D01*
X31425642Y-31019700D01*
X31423708Y-31017038D01*
X31423697Y-31017022D01*
X31390964Y-30971968D01*
X30961002Y-30542006D01*
X30906158Y-30459927D01*
X30888286Y-30370077D01*
X37693100Y-30370077D01*
X37693100Y-30589922D01*
X37721791Y-30807845D01*
X37721793Y-30807853D01*
X37778686Y-31020178D01*
X37862810Y-31223272D01*
X37862812Y-31223276D01*
X37958066Y-31388259D01*
X37972717Y-31413635D01*
X38106535Y-31588029D01*
X38261971Y-31743465D01*
X38436365Y-31877283D01*
X38436374Y-31877288D01*
X38626723Y-31987187D01*
X38626727Y-31987189D01*
X38626730Y-31987190D01*
X38626735Y-31987193D01*
X38829822Y-32071314D01*
X39042151Y-32128208D01*
X39119944Y-32138449D01*
X39260077Y-32156899D01*
X39260087Y-32156899D01*
X39260090Y-32156900D01*
X39260092Y-32156900D01*
X39479908Y-32156900D01*
X39479910Y-32156900D01*
X39479912Y-32156899D01*
X39479922Y-32156899D01*
X39596688Y-32141526D01*
X39697849Y-32128208D01*
X39910178Y-32071314D01*
X40113265Y-31987193D01*
X40113272Y-31987189D01*
X40113276Y-31987187D01*
X40172673Y-31952893D01*
X40303635Y-31877283D01*
X40478029Y-31743465D01*
X40478036Y-31743457D01*
X40484255Y-31738005D01*
X40485879Y-31739857D01*
X40555171Y-31693558D01*
X40651990Y-31674300D01*
X43386508Y-31674300D01*
X43483327Y-31693558D01*
X43565406Y-31748402D01*
X44481269Y-32664265D01*
X44536113Y-32746344D01*
X44555371Y-32843163D01*
X44553207Y-32876185D01*
X44525700Y-33085126D01*
X44525700Y-33374873D01*
X44563517Y-33662132D01*
X44563518Y-33662137D01*
X44638505Y-33941992D01*
X44749390Y-34209693D01*
X44749391Y-34209695D01*
X44798959Y-34295548D01*
X44894259Y-34460612D01*
X45070642Y-34690479D01*
X45275521Y-34895358D01*
X45505388Y-35071741D01*
X45505397Y-35071746D01*
X45756304Y-35216608D01*
X45756306Y-35216609D01*
X45756308Y-35216610D01*
X45756312Y-35216612D01*
X46023998Y-35327491D01*
X46024002Y-35327492D01*
X46024007Y-35327494D01*
X46303862Y-35402481D01*
X46303867Y-35402482D01*
X46591129Y-35440300D01*
X46591131Y-35440300D01*
X46812700Y-35440300D01*
X46909519Y-35459558D01*
X46991598Y-35514402D01*
X47046442Y-35596481D01*
X47065700Y-35693300D01*
X47065700Y-36343839D01*
X47046442Y-36440658D01*
X46991598Y-36522737D01*
X46947303Y-36558061D01*
X46886108Y-36596511D01*
X46756511Y-36726108D01*
X46659004Y-36881292D01*
X46598474Y-37054276D01*
X46598474Y-37054278D01*
X46583100Y-37190725D01*
X46583100Y-39009274D01*
X46598474Y-39145721D01*
X46598474Y-39145723D01*
X46659004Y-39318707D01*
X46756511Y-39473891D01*
X46886108Y-39603488D01*
X47041292Y-39700995D01*
X47127784Y-39731260D01*
X47214279Y-39761526D01*
X47350726Y-39776899D01*
X47350727Y-39776900D01*
X47350728Y-39776900D01*
X49169273Y-39776900D01*
X49169273Y-39776899D01*
X49305721Y-39761526D01*
X49478710Y-39700994D01*
X49633893Y-39603487D01*
X49763487Y-39473893D01*
X49860994Y-39318710D01*
X49921526Y-39145721D01*
X49936900Y-39009272D01*
X49936900Y-37190728D01*
X49921526Y-37054279D01*
X49860994Y-36881290D01*
X49763487Y-36726107D01*
X49633893Y-36596513D01*
X49633891Y-36596511D01*
X49572697Y-36558061D01*
X49500964Y-36490244D01*
X49460644Y-36400138D01*
X49454300Y-36343839D01*
X49454300Y-34660009D01*
X49454300Y-34660007D01*
X49424892Y-34474334D01*
X49366801Y-34295548D01*
X49366800Y-34295547D01*
X49366800Y-34295545D01*
X49281456Y-34128048D01*
X49170961Y-33975966D01*
X48990730Y-33795735D01*
X48935886Y-33713656D01*
X48916628Y-33616837D01*
X48918791Y-33583824D01*
X48946300Y-33374871D01*
X48946300Y-33085129D01*
X48908482Y-32797867D01*
X48897630Y-32757366D01*
X48833494Y-32518007D01*
X48833492Y-32518002D01*
X48833491Y-32517998D01*
X48722612Y-32250312D01*
X48722609Y-32250306D01*
X48722608Y-32250304D01*
X48577746Y-31999397D01*
X48577741Y-31999388D01*
X48401358Y-31769521D01*
X48196479Y-31564642D01*
X47966612Y-31388259D01*
X47966602Y-31388253D01*
X47715695Y-31243391D01*
X47715693Y-31243390D01*
X47447992Y-31132505D01*
X47168137Y-31057518D01*
X47168132Y-31057517D01*
X46880873Y-31019700D01*
X46880871Y-31019700D01*
X46591129Y-31019700D01*
X46591126Y-31019700D01*
X46382185Y-31047207D01*
X46283681Y-31040750D01*
X46195145Y-30997089D01*
X46170265Y-30975269D01*
X45465504Y-30270508D01*
X45410660Y-30188429D01*
X45391402Y-30091610D01*
X45410660Y-29994791D01*
X45465504Y-29912712D01*
X45547583Y-29857868D01*
X45644402Y-29838610D01*
X45741221Y-29857868D01*
X45770902Y-29872506D01*
X45891624Y-29942205D01*
X45891626Y-29942206D01*
X46122348Y-30037774D01*
X46122354Y-30037776D01*
X46363551Y-30102404D01*
X46611139Y-30134999D01*
X46611142Y-30135000D01*
X46860858Y-30135000D01*
X46860860Y-30134999D01*
X47108446Y-30102404D01*
X47108449Y-30102404D01*
X47349645Y-30037776D01*
X47349651Y-30037774D01*
X47580373Y-29942206D01*
X47580375Y-29942205D01*
X47796624Y-29817353D01*
X47796633Y-29817347D01*
X47891411Y-29744621D01*
X47016609Y-28869819D01*
X47066864Y-28849003D01*
X47181268Y-28772561D01*
X47278561Y-28675268D01*
X47355003Y-28560864D01*
X47375819Y-28510609D01*
X48250621Y-29385411D01*
X48323347Y-29290633D01*
X48323353Y-29290624D01*
X48448205Y-29074375D01*
X48448206Y-29074373D01*
X48543774Y-28843651D01*
X48543776Y-28843645D01*
X48608404Y-28602449D01*
X48608404Y-28602446D01*
X48640999Y-28354860D01*
X48641000Y-28354857D01*
X48641000Y-28105142D01*
X48640999Y-28105139D01*
X48608404Y-27857553D01*
X48608404Y-27857550D01*
X48543776Y-27616354D01*
X48543774Y-27616348D01*
X48448206Y-27385626D01*
X48448205Y-27385624D01*
X48323348Y-27169366D01*
X48323347Y-27169365D01*
X48250621Y-27074588D01*
X47375818Y-27949390D01*
X47355003Y-27899136D01*
X47278561Y-27784732D01*
X47181268Y-27687439D01*
X47066864Y-27610997D01*
X47016607Y-27590180D01*
X47891411Y-26715377D01*
X47796635Y-26642654D01*
X47796622Y-26642645D01*
X47580375Y-26517794D01*
X47580373Y-26517793D01*
X47349651Y-26422225D01*
X47349645Y-26422223D01*
X47108448Y-26357595D01*
X46860860Y-26325000D01*
X46611139Y-26325000D01*
X46363553Y-26357595D01*
X46363550Y-26357595D01*
X46122354Y-26422223D01*
X46122348Y-26422225D01*
X45891626Y-26517793D01*
X45891624Y-26517794D01*
X45675375Y-26642646D01*
X45675355Y-26642659D01*
X45580587Y-26715377D01*
X46455390Y-27590180D01*
X46405136Y-27610997D01*
X46290732Y-27687439D01*
X46193439Y-27784732D01*
X46116997Y-27899136D01*
X46096180Y-27949390D01*
X45221377Y-27074587D01*
X45148659Y-27169355D01*
X45148646Y-27169375D01*
X45023794Y-27385624D01*
X45023793Y-27385626D01*
X44928225Y-27616348D01*
X44928223Y-27616354D01*
X44863595Y-27857550D01*
X44863595Y-27857553D01*
X44831000Y-28105139D01*
X44831000Y-28354860D01*
X44863595Y-28602446D01*
X44863595Y-28602449D01*
X44928223Y-28843645D01*
X44928225Y-28843651D01*
X45023791Y-29074368D01*
X45108306Y-29220752D01*
X45123134Y-29264437D01*
X45139086Y-29307673D01*
X45138953Y-29311038D01*
X45140037Y-29314229D01*
X45137020Y-29360240D01*
X45135211Y-29406313D01*
X45133800Y-29409373D01*
X45133580Y-29412733D01*
X45113194Y-29454070D01*
X45093883Y-29495961D01*
X45091408Y-29498248D01*
X45089919Y-29501269D01*
X45055244Y-29531677D01*
X45021394Y-29562969D01*
X45018235Y-29564134D01*
X45015701Y-29566357D01*
X44972015Y-29581185D01*
X44928780Y-29597137D01*
X44925414Y-29597004D01*
X44922224Y-29598088D01*
X44876212Y-29595071D01*
X44830140Y-29593262D01*
X44827079Y-29591851D01*
X44823720Y-29591631D01*
X44740492Y-29551934D01*
X44630704Y-29472169D01*
X44630700Y-29472166D01*
X44611950Y-29458542D01*
X44611948Y-29458541D01*
X44444453Y-29373199D01*
X44444451Y-29373198D01*
X44440676Y-29371972D01*
X44265666Y-29315106D01*
X44079997Y-29285700D01*
X44079994Y-29285700D01*
X44079993Y-29285700D01*
X40651990Y-29285700D01*
X40555171Y-29266442D01*
X40485879Y-29220142D01*
X40484255Y-29221995D01*
X40478028Y-29216534D01*
X40434430Y-29183080D01*
X40303635Y-29082717D01*
X40303625Y-29082711D01*
X40113276Y-28972812D01*
X40113272Y-28972810D01*
X39910178Y-28888686D01*
X39697853Y-28831793D01*
X39697845Y-28831791D01*
X39479922Y-28803100D01*
X39479910Y-28803100D01*
X39260090Y-28803100D01*
X39260077Y-28803100D01*
X39042154Y-28831791D01*
X39042146Y-28831793D01*
X38829821Y-28888686D01*
X38626727Y-28972810D01*
X38626723Y-28972812D01*
X38436374Y-29082711D01*
X38436361Y-29082720D01*
X38261971Y-29216534D01*
X38106534Y-29371971D01*
X37972720Y-29546361D01*
X37972711Y-29546374D01*
X37862812Y-29736723D01*
X37862810Y-29736727D01*
X37778686Y-29939821D01*
X37721793Y-30152146D01*
X37721791Y-30152154D01*
X37693100Y-30370077D01*
X30888286Y-30370077D01*
X30886900Y-30363108D01*
X30886900Y-29570727D01*
X30886899Y-29570726D01*
X30871526Y-29434279D01*
X30849723Y-29371971D01*
X30810995Y-29261292D01*
X30786303Y-29221995D01*
X30713487Y-29106107D01*
X30583893Y-28976513D01*
X30583891Y-28976511D01*
X30428707Y-28879004D01*
X30255722Y-28818474D01*
X30119274Y-28803100D01*
X30119272Y-28803100D01*
X28300728Y-28803100D01*
X28300725Y-28803100D01*
X28164278Y-28818474D01*
X28164276Y-28818474D01*
X27991292Y-28879004D01*
X27836108Y-28976511D01*
X27706511Y-29106108D01*
X27609004Y-29261292D01*
X27548474Y-29434276D01*
X27548474Y-29434278D01*
X27533100Y-29570725D01*
X27533100Y-31389274D01*
X27548474Y-31525721D01*
X27548474Y-31525723D01*
X27609004Y-31698707D01*
X27706511Y-31853891D01*
X27836108Y-31983488D01*
X27927900Y-32041164D01*
X27975884Y-32071314D01*
X27991292Y-32080995D01*
X28077784Y-32111260D01*
X28164279Y-32141526D01*
X28300726Y-32156899D01*
X28300727Y-32156900D01*
X28300728Y-32156900D01*
X29032700Y-32156900D01*
X29129519Y-32176158D01*
X29211598Y-32231002D01*
X29266442Y-32313081D01*
X29285700Y-32409900D01*
X29285700Y-38851750D01*
X29266442Y-38948569D01*
X29211598Y-39030648D01*
X29186718Y-39052467D01*
X29163436Y-39070331D01*
X29163434Y-39070333D01*
X28970330Y-39263438D01*
X28804084Y-39480095D01*
X28804077Y-39480106D01*
X28667539Y-39716595D01*
X28667538Y-39716597D01*
X28563026Y-39968912D01*
X28563024Y-39968919D01*
X28492346Y-40232691D01*
X28492346Y-40232695D01*
X28456700Y-40503439D01*
X28456700Y-40776560D01*
X28492346Y-41047304D01*
X28492346Y-41047308D01*
X28563024Y-41311080D01*
X28563026Y-41311087D01*
X28667538Y-41563402D01*
X28667539Y-41563404D01*
X28804077Y-41799893D01*
X28804084Y-41799904D01*
X28970330Y-42016561D01*
X29163438Y-42209669D01*
X29246716Y-42273570D01*
X29311804Y-42347788D01*
X29343535Y-42441265D01*
X29345700Y-42474289D01*
X29345700Y-69285710D01*
X29326442Y-69382529D01*
X29271598Y-69464608D01*
X29246718Y-69486428D01*
X29163435Y-69550333D01*
X28970330Y-69743438D01*
X28804084Y-69960095D01*
X28804077Y-69960106D01*
X28667539Y-70196595D01*
X28667538Y-70196597D01*
X28563026Y-70448912D01*
X28563024Y-70448919D01*
X28492346Y-70712691D01*
X28492346Y-70712695D01*
X28456700Y-70983439D01*
X28456700Y-71256560D01*
X28492346Y-71527304D01*
X28492346Y-71527308D01*
X28563024Y-71791080D01*
X28563026Y-71791087D01*
X28667538Y-72043402D01*
X28667539Y-72043404D01*
X28804077Y-72279893D01*
X28804084Y-72279904D01*
X28970330Y-72496561D01*
X29163438Y-72689669D01*
X29246716Y-72753570D01*
X29311804Y-72827788D01*
X29343535Y-72921265D01*
X29345700Y-72954289D01*
X29345700Y-107385710D01*
X29326442Y-107482529D01*
X29271598Y-107564608D01*
X29246718Y-107586428D01*
X29163435Y-107650333D01*
X28970330Y-107843438D01*
X28804084Y-108060095D01*
X28804077Y-108060106D01*
X28667539Y-108296595D01*
X28667538Y-108296597D01*
X28563026Y-108548912D01*
X28563024Y-108548919D01*
X28492346Y-108812691D01*
X28492346Y-108812695D01*
X28456700Y-109083439D01*
X28456700Y-109356560D01*
X28492346Y-109627304D01*
X28492346Y-109627308D01*
X28563024Y-109891080D01*
X28563026Y-109891087D01*
X28667538Y-110143402D01*
X28667539Y-110143404D01*
X28717731Y-110230338D01*
X28804083Y-110379903D01*
X28970331Y-110596562D01*
X29163438Y-110789669D01*
X29380097Y-110955917D01*
X29380106Y-110955922D01*
X29616595Y-111092460D01*
X29616597Y-111092461D01*
X29616599Y-111092462D01*
X29616603Y-111092464D01*
X29868908Y-111196972D01*
X30132696Y-111267654D01*
X30247536Y-111282773D01*
X30411665Y-111304382D01*
X30411413Y-111306292D01*
X30494541Y-111328545D01*
X30572873Y-111388619D01*
X30622253Y-111474097D01*
X30635700Y-111555482D01*
X30635700Y-135878010D01*
X30616442Y-135974829D01*
X30570142Y-136044120D01*
X30571995Y-136045745D01*
X30566534Y-136051971D01*
X30432720Y-136226361D01*
X30432711Y-136226374D01*
X30322812Y-136416723D01*
X30322810Y-136416727D01*
X30238686Y-136619821D01*
X30181793Y-136832146D01*
X30181791Y-136832154D01*
X30153100Y-137050077D01*
X30152559Y-137058349D01*
X30150100Y-137058187D01*
X30133842Y-137139927D01*
X30078998Y-137222006D01*
X29352006Y-137948998D01*
X29269927Y-138003842D01*
X29173108Y-138023100D01*
X28300725Y-138023100D01*
X28164278Y-138038474D01*
X28164276Y-138038474D01*
X27991292Y-138099004D01*
X27836108Y-138196511D01*
X27706511Y-138326108D01*
X27609004Y-138481292D01*
X27548474Y-138654276D01*
X27548474Y-138654278D01*
X27533100Y-138790725D01*
X27533100Y-140609274D01*
X27548474Y-140745721D01*
X27548474Y-140745723D01*
X27609004Y-140918707D01*
X27706511Y-141073891D01*
X27836108Y-141203488D01*
X27991292Y-141300995D01*
X28077784Y-141331260D01*
X28164279Y-141361526D01*
X28300726Y-141376899D01*
X28300727Y-141376900D01*
X28300728Y-141376900D01*
X30119273Y-141376900D01*
X30119273Y-141376899D01*
X30255721Y-141361526D01*
X30428710Y-141300994D01*
X30583893Y-141203487D01*
X30713487Y-141073893D01*
X30810994Y-140918710D01*
X30871526Y-140745721D01*
X30886900Y-140609272D01*
X30886900Y-139896890D01*
X30906158Y-139800071D01*
X30961000Y-139717994D01*
X31611101Y-139067892D01*
X31693180Y-139013049D01*
X31789999Y-138993791D01*
X31886818Y-139013049D01*
X31968897Y-139067893D01*
X34672598Y-141771593D01*
X34727442Y-141853672D01*
X34746700Y-141950491D01*
X34746700Y-142905838D01*
X34758666Y-143027330D01*
X34762085Y-143062045D01*
X34762086Y-143062047D01*
X34822886Y-143262476D01*
X34921620Y-143447196D01*
X34921622Y-143447199D01*
X34921623Y-143447200D01*
X35054494Y-143609104D01*
X35054495Y-143609105D01*
X35198838Y-143727564D01*
X35261463Y-143803872D01*
X35290119Y-143898337D01*
X35280443Y-143996578D01*
X35254054Y-144055329D01*
X35250505Y-144061120D01*
X35152489Y-144253488D01*
X35085773Y-144458819D01*
X35075133Y-144526000D01*
X36316736Y-144526000D01*
X36297447Y-144559409D01*
X36258500Y-144704761D01*
X36258500Y-144855239D01*
X36297447Y-145000591D01*
X36316736Y-145034000D01*
X35075133Y-145034000D01*
X35085773Y-145101180D01*
X35152489Y-145306511D01*
X35250500Y-145498870D01*
X35250508Y-145498884D01*
X35383244Y-145681579D01*
X35382288Y-145682273D01*
X35425619Y-145759648D01*
X35437220Y-145857679D01*
X35410423Y-145952688D01*
X35349307Y-146030210D01*
X35339021Y-146038540D01*
X35315572Y-146056533D01*
X35315572Y-146056534D01*
X35160134Y-146211971D01*
X35026320Y-146386361D01*
X35026311Y-146386374D01*
X34916412Y-146576723D01*
X34916410Y-146576727D01*
X34832286Y-146779821D01*
X34775393Y-146992146D01*
X34775391Y-146992154D01*
X34746700Y-147210077D01*
X34746700Y-147429910D01*
X34763500Y-147557520D01*
X34757043Y-147656025D01*
X34713382Y-147744560D01*
X34691562Y-147769441D01*
X31968897Y-150492105D01*
X31886818Y-150546949D01*
X31789999Y-150566207D01*
X31693180Y-150546949D01*
X31611101Y-150492105D01*
X30950328Y-149831332D01*
X30895484Y-149749253D01*
X30878391Y-149685464D01*
X30858208Y-149532151D01*
X30801314Y-149319822D01*
X30717193Y-149116735D01*
X30717190Y-149116730D01*
X30717189Y-149116727D01*
X30717187Y-149116723D01*
X30607288Y-148926374D01*
X30607283Y-148926365D01*
X30473465Y-148751971D01*
X30318029Y-148596535D01*
X30143635Y-148462717D01*
X30143625Y-148462711D01*
X29953276Y-148352812D01*
X29953272Y-148352810D01*
X29750178Y-148268686D01*
X29537853Y-148211793D01*
X29537845Y-148211791D01*
X29319922Y-148183100D01*
X29319910Y-148183100D01*
X29100090Y-148183100D01*
X29100077Y-148183100D01*
X28882154Y-148211791D01*
X28882146Y-148211793D01*
X28669821Y-148268686D01*
X28466727Y-148352810D01*
X28466723Y-148352812D01*
X28276374Y-148462711D01*
X28276361Y-148462720D01*
X28101971Y-148596534D01*
X27946534Y-148751971D01*
X27812720Y-148926361D01*
X27812711Y-148926374D01*
X27702812Y-149116723D01*
X27702810Y-149116727D01*
X27618686Y-149319821D01*
X27561793Y-149532146D01*
X27561791Y-149532154D01*
X27533100Y-149750077D01*
X27533100Y-149969922D01*
X27561791Y-150187845D01*
X27561793Y-150187853D01*
X27618686Y-150400178D01*
X27702810Y-150603272D01*
X27702812Y-150603276D01*
X27812711Y-150793625D01*
X27812717Y-150793635D01*
X27946535Y-150968029D01*
X28101971Y-151123465D01*
X28276365Y-151257283D01*
X28309581Y-151276460D01*
X28466723Y-151367187D01*
X28466727Y-151367189D01*
X28466730Y-151367190D01*
X28466735Y-151367193D01*
X28669822Y-151451314D01*
X28882151Y-151508208D01*
X28959944Y-151518449D01*
X29100077Y-151536899D01*
X29100087Y-151536899D01*
X29100090Y-151536900D01*
X29173108Y-151536900D01*
X29269927Y-151556158D01*
X29352006Y-151611002D01*
X29962106Y-152221102D01*
X30016950Y-152303181D01*
X30036208Y-152400000D01*
X30016950Y-152496819D01*
X29962106Y-152578898D01*
X27029039Y-155511964D01*
X26973792Y-155588007D01*
X26973791Y-155588008D01*
X26918543Y-155664048D01*
X26833201Y-155831541D01*
X26833199Y-155831547D01*
X26775106Y-156010335D01*
X26745700Y-156196002D01*
X26745700Y-170273997D01*
X26775106Y-170459664D01*
X26833199Y-170638452D01*
X26833201Y-170638458D01*
X26918544Y-170805952D01*
X26973789Y-170881989D01*
X26973790Y-170881992D01*
X26973791Y-170881992D01*
X27029039Y-170958035D01*
X33021598Y-176950594D01*
X33076442Y-177032673D01*
X33095700Y-177129492D01*
X33095700Y-178510235D01*
X33076442Y-178607054D01*
X33021598Y-178689133D01*
X32939519Y-178743977D01*
X32842700Y-178763235D01*
X32745881Y-178743977D01*
X32663802Y-178689133D01*
X32619574Y-178629499D01*
X32565416Y-178528177D01*
X32484721Y-178377208D01*
X32276565Y-178065680D01*
X32038877Y-177776056D01*
X31773944Y-177511123D01*
X31484320Y-177273435D01*
X31172792Y-177065279D01*
X30842362Y-176888660D01*
X30496211Y-176745280D01*
X30496212Y-176745280D01*
X30496209Y-176745279D01*
X30137682Y-176636521D01*
X30137677Y-176636520D01*
X30137674Y-176636519D01*
X29770202Y-176563424D01*
X29770197Y-176563423D01*
X29397338Y-176526700D01*
X29397335Y-176526700D01*
X29022665Y-176526700D01*
X29022661Y-176526700D01*
X28649802Y-176563423D01*
X28466062Y-176599971D01*
X28282326Y-176636519D01*
X28282324Y-176636519D01*
X28282322Y-176636520D01*
X28282317Y-176636521D01*
X27923790Y-176745279D01*
X27577644Y-176888657D01*
X27577635Y-176888661D01*
X27247208Y-177065279D01*
X26935678Y-177273436D01*
X26935675Y-177273438D01*
X26646056Y-177511122D01*
X26646056Y-177511123D01*
X26381123Y-177776056D01*
X26381122Y-177776056D01*
X26143438Y-178065675D01*
X26143436Y-178065678D01*
X25935279Y-178377208D01*
X25876626Y-178486940D01*
X25814001Y-178563248D01*
X25726941Y-178609782D01*
X25628701Y-178619458D01*
X25534236Y-178590802D01*
X25457928Y-178528177D01*
X25411394Y-178441117D01*
X25400500Y-178367676D01*
X25400500Y-22864334D01*
X25400647Y-22855697D01*
X25400686Y-22854535D01*
X25416371Y-22395383D01*
X25416861Y-22386129D01*
X25424214Y-22283313D01*
X25424888Y-22275581D01*
X25466434Y-21871444D01*
X25467680Y-21861340D01*
X25481809Y-21763070D01*
X25482887Y-21756244D01*
X25552701Y-21351339D01*
X25554772Y-21340708D01*
X25574440Y-21250293D01*
X25575836Y-21244248D01*
X25674845Y-20837962D01*
X25677890Y-20826620D01*
X25700939Y-20748122D01*
X25702532Y-20742906D01*
X25832398Y-20333732D01*
X25836475Y-20321912D01*
X25859595Y-20259926D01*
X25861101Y-20255999D01*
X26024674Y-19841204D01*
X26029822Y-19829096D01*
X26047387Y-19790634D01*
X26048829Y-19787541D01*
X26250752Y-19362958D01*
X26257138Y-19350445D01*
X26259204Y-19346660D01*
X26260478Y-19344361D01*
X26295191Y-19282624D01*
X26359425Y-19207677D01*
X26447457Y-19163010D01*
X26545881Y-19155433D01*
X26639714Y-19186097D01*
X26714668Y-19250336D01*
X26759335Y-19338368D01*
X26766912Y-19436792D01*
X26763856Y-19455985D01*
X26703424Y-19759800D01*
X26666700Y-20132661D01*
X26666700Y-20507338D01*
X26703423Y-20880197D01*
X26776520Y-21247677D01*
X26776521Y-21247682D01*
X26885279Y-21606209D01*
X27028657Y-21952355D01*
X27028660Y-21952362D01*
X27205279Y-22282792D01*
X27413435Y-22594320D01*
X27413436Y-22594321D01*
X27413438Y-22594324D01*
X27651122Y-22883943D01*
X27651123Y-22883944D01*
X27916056Y-23148877D01*
X28205680Y-23386565D01*
X28517208Y-23594721D01*
X28847638Y-23771340D01*
X29193789Y-23914720D01*
X29552326Y-24023481D01*
X29919798Y-24096576D01*
X30292665Y-24133300D01*
X30292666Y-24133300D01*
X30667334Y-24133300D01*
X30667335Y-24133300D01*
X31040202Y-24096576D01*
X31407674Y-24023481D01*
X31766211Y-23914720D01*
X32112362Y-23771340D01*
X32442792Y-23594721D01*
X32754320Y-23386565D01*
X33043944Y-23148877D01*
X33308877Y-22883944D01*
X33546565Y-22594320D01*
X33754721Y-22282792D01*
X33931340Y-21952362D01*
X34074720Y-21606211D01*
X34183481Y-21247674D01*
X34256576Y-20880202D01*
X34293300Y-20507335D01*
X34293300Y-20132665D01*
X34256576Y-19759798D01*
X34183481Y-19392326D01*
X34074720Y-19033789D01*
X33931340Y-18687638D01*
X33754721Y-18357208D01*
X33546565Y-18045680D01*
X33308877Y-17756056D01*
X33043944Y-17491123D01*
X33016195Y-17468350D01*
X32754324Y-17253438D01*
X32754321Y-17253436D01*
X32754320Y-17253435D01*
X32442792Y-17045279D01*
X32112362Y-16868660D01*
X31766211Y-16725280D01*
X31766212Y-16725280D01*
X31766209Y-16725279D01*
X31407682Y-16616521D01*
X31407677Y-16616520D01*
X31407674Y-16616519D01*
X31040202Y-16543424D01*
X31040197Y-16543423D01*
X30667338Y-16506700D01*
X30667335Y-16506700D01*
X30292665Y-16506700D01*
X30292661Y-16506700D01*
X30044087Y-16531182D01*
X29919798Y-16543424D01*
X29766392Y-16573938D01*
X29615985Y-16603856D01*
X29606143Y-16603856D01*
X29596792Y-16606912D01*
X29557095Y-16603856D01*
X29517270Y-16603856D01*
X29508178Y-16600090D01*
X29498368Y-16599335D01*
X29462856Y-16581316D01*
X29426068Y-16566078D01*
X29419109Y-16559119D01*
X29410336Y-16554668D01*
X29384424Y-16524434D01*
X29356266Y-16496276D01*
X29352500Y-16487185D01*
X29346097Y-16479714D01*
X29333727Y-16441863D01*
X29318489Y-16405074D01*
X29318489Y-16395232D01*
X29315433Y-16385881D01*
X29318489Y-16346184D01*
X29318489Y-16306359D01*
X29322254Y-16297267D01*
X29323010Y-16287457D01*
X29341028Y-16251945D01*
X29356267Y-16215157D01*
X29363225Y-16208198D01*
X29367677Y-16199425D01*
X29397910Y-16173513D01*
X29426069Y-16145355D01*
X29442593Y-16135209D01*
X29504361Y-16100478D01*
X29506660Y-16099204D01*
X29510445Y-16097138D01*
X29522958Y-16090752D01*
X29947541Y-15888829D01*
X29950634Y-15887387D01*
X29989096Y-15869822D01*
X30001204Y-15864674D01*
X30415999Y-15701101D01*
X30419926Y-15699595D01*
X30481912Y-15676475D01*
X30493732Y-15672398D01*
X30902945Y-15542520D01*
X30908122Y-15540939D01*
X30986620Y-15517890D01*
X30997962Y-15514845D01*
X31404248Y-15415836D01*
X31410293Y-15414440D01*
X31500708Y-15394772D01*
X31511339Y-15392701D01*
X31916244Y-15322887D01*
X31923070Y-15321809D01*
X32021341Y-15307679D01*
X32031443Y-15306434D01*
X32435581Y-15264888D01*
X32443313Y-15264214D01*
X32546129Y-15256861D01*
X32555383Y-15256371D01*
X33003628Y-15241059D01*
X33015698Y-15240647D01*
X33024335Y-15240500D01*
X43175665Y-15240500D01*
X43184302Y-15240647D01*
G37*
%TD.AperFunction*%
%TD*%
M02*
