M48
; DRILL file {KiCad 9.0.6} date 2026-04-22T22:04:06-0700
; FORMAT={-:-/ absolute / metric / decimal}
; #@! TF.CreationDate,2026-04-22T22:04:06-07:00
; #@! TF.GenerationSoftware,Kicad,Pcbnew,9.0.6
; #@! TF.FileFunction,Plated,1,2,PTH
FMAT,2
METRIC
; #@! TA.AperFunction,Plated,PTH,ComponentDrill
T1C0.813
; #@! TA.AperFunction,Plated,PTH,ComponentDrill
T2C1.016
; #@! TA.AperFunction,Plated,PTH,ComponentDrill
T3C1.143
; #@! TA.AperFunction,Plated,PTH,ComponentDrill
T4C1.270
; #@! TA.AperFunction,Plated,PTH,ComponentDrill
T5C1.397
; #@! TA.AperFunction,Plated,PTH,ComponentDrill
T6C3.300
%
G90
G05
T1
X31.83Y-137.16
X31.83Y-152.4
X31.83Y-160.02
X36.83Y-137.16
X36.83Y-152.4
X36.83Y-160.02
X36.87Y-180.34
X41.87Y-180.34
T2
X29.21Y-30.48
X29.21Y-139.7
X29.21Y-149.86
X39.37Y-30.48
X41.91Y-162.56
X41.91Y-172.72
X48.26Y-38.1
X48.26Y-48.26
T3
X36.83Y-142.24
X36.83Y-144.78
X36.83Y-147.32
X36.83Y-165.1
X36.83Y-167.64
X36.83Y-170.18
T4
X30.54Y-40.64
X30.54Y-71.12
X30.54Y-109.22
X38.04Y-40.64
X38.04Y-71.12
X38.04Y-109.22
X38.16Y-55.88
X38.16Y-86.36
X38.16Y-124.46
X45.66Y-55.88
X45.66Y-86.36
X45.66Y-124.46
T5
X33.104Y-188.119
X38.104Y-188.119
X43.104Y-188.119
X46.736Y-28.23
X46.736Y-33.23
T6
X29.21Y-180.34
X30.48Y-20.32
X38.1Y-97.79
X45.72Y-20.32
X46.99Y-180.34
M30
