%TF.GenerationSoftware,KiCad,Pcbnew,9.0.6*%
%TF.CreationDate,2026-04-22T21:58:25-07:00*%
%TF.ProjectId,modulinAmplifier,6d6f6475-6c69-46e4-916d-706c69666965,rev?*%
%TF.SameCoordinates,Original*%
%TF.FileFunction,Copper,L2,Bot*%
%TF.FilePolarity,Positive*%
%FSLAX46Y46*%
G04 Gerber Fmt 4.6, Leading zero omitted, Abs format (unit mm)*
G04 Created by KiCad (PCBNEW 9.0.6) date 2026-04-22 21:58:25*
%MOMM*%
%LPD*%
G01*
G04 APERTURE LIST*
G04 Aperture macros list*
%AMRoundRect*
0 Rectangle with rounded corners*
0 $1 Rounding radius*
0 $2 $3 $4 $5 $6 $7 $8 $9 X,Y pos of 4 corners*
0 Add a 4 corners polygon primitive as box body*
4,1,4,$2,$3,$4,$5,$6,$7,$8,$9,$2,$3,0*
0 Add four circle primitives for the rounded corners*
1,1,$1+$1,$2,$3*
1,1,$1+$1,$4,$5*
1,1,$1+$1,$6,$7*
1,1,$1+$1,$8,$9*
0 Add four rect primitives between the rounded corners*
20,1,$1+$1,$2,$3,$4,$5,0*
20,1,$1+$1,$4,$5,$6,$7,0*
20,1,$1+$1,$6,$7,$8,$9,0*
20,1,$1+$1,$8,$9,$2,$3,0*%
G04 Aperture macros list end*
%TA.AperFunction,ComponentPad*%
%ADD10C,1.727200*%
%TD*%
%TA.AperFunction,ComponentPad*%
%ADD11O,2.540000X1.727200*%
%TD*%
%TA.AperFunction,ComponentPad*%
%ADD12O,1.727200X2.540000*%
%TD*%
%TA.AperFunction,ComponentPad*%
%ADD13O,2.540000X1.676400*%
%TD*%
%TA.AperFunction,ComponentPad*%
%ADD14C,1.320800*%
%TD*%
%TA.AperFunction,SMDPad,CuDef*%
%ADD15RoundRect,0.250000X-0.613600X1.020000X-0.613600X-1.020000X0.613600X-1.020000X0.613600X1.020000X0*%
%TD*%
%TA.AperFunction,SMDPad,CuDef*%
%ADD16O,1.727200X2.540000*%
%TD*%
%TA.AperFunction,SMDPad,CuDef*%
%ADD17RoundRect,0.250000X0.613600X-1.020000X0.613600X1.020000X-0.613600X1.020000X-0.613600X-1.020000X0*%
%TD*%
%TA.AperFunction,ComponentPad*%
%ADD18C,1.778000*%
%TD*%
%TA.AperFunction,ComponentPad*%
%ADD19C,3.302000*%
%TD*%
%TA.AperFunction,ComponentPad*%
%ADD20C,12.000000*%
%TD*%
%TA.AperFunction,ComponentPad*%
%ADD21C,1.905000*%
%TD*%
%TA.AperFunction,SMDPad,CuDef*%
%ADD22C,2.794000*%
%TD*%
%TA.AperFunction,ComponentPad*%
%ADD23RoundRect,0.250001X1.149999X1.149999X-1.149999X1.149999X-1.149999X-1.149999X1.149999X-1.149999X0*%
%TD*%
%TA.AperFunction,ComponentPad*%
%ADD24C,2.800000*%
%TD*%
%TA.AperFunction,ComponentPad*%
%ADD25R,1.727200X1.727200*%
%TD*%
%TA.AperFunction,ComponentPad*%
%ADD26RoundRect,0.269875X0.593725X-0.593725X0.593725X0.593725X-0.593725X0.593725X-0.593725X-0.593725X0*%
%TD*%
%TA.AperFunction,ComponentPad*%
%ADD27RoundRect,0.269875X0.593725X0.593725X-0.593725X0.593725X-0.593725X-0.593725X0.593725X-0.593725X0*%
%TD*%
%TA.AperFunction,ComponentPad*%
%ADD28RoundRect,0.269875X-0.593725X-0.593725X0.593725X-0.593725X0.593725X0.593725X-0.593725X0.593725X0*%
%TD*%
%TA.AperFunction,ComponentPad*%
%ADD29C,6.000000*%
%TD*%
%TA.AperFunction,SMDPad,CuDef*%
%ADD30C,1.676400*%
%TD*%
%TA.AperFunction,Conductor*%
%ADD31C,0.508000*%
%TD*%
G04 APERTURE END LIST*
D10*
%TO.P,R3,1*%
%TO.N,Net-(R3-Pad1)*%
X71374000Y-48768000D03*
%TO.P,R3,2*%
%TO.N,Net-(C7-Pad1)*%
X63754000Y-48768000D03*
%TD*%
%TO.P,C7,2*%
%TO.N,Net-(C7-Pad2)*%
X61214000Y-45720000D03*
%TO.P,C7,1*%
%TO.N,Net-(C7-Pad1)*%
X66214000Y-45720000D03*
%TD*%
D11*
%TO.P,J2,R*%
%TO.N,Net-(J2-PadR)*%
X117428000Y-55800000D03*
%TO.P,J2,RN*%
X117428000Y-53300000D03*
D12*
%TO.P,J2,S*%
%TO.N,GND*%
X122428000Y-50800000D03*
D13*
%TO.P,J2,T*%
%TO.N,Net-(J2-PadT)*%
X117428000Y-45800000D03*
%TO.P,J2,TN*%
%TO.N,Net-(J2-PadTN)*%
X117428000Y-48300000D03*
%TD*%
D14*
%TO.P,U2,1,GAIN*%
%TO.N,unconnected-(U2-GAIN-Pad1)*%
X82042000Y-44958000D03*
D15*
%TO.N,unconnected-(U2-GAIN-Pad1)_1*%
X82042000Y-44958000D03*
D14*
%TO.P,U2,2,-*%
%TO.N,GND*%
X79502000Y-44958000D03*
D16*
X79502000Y-44958000D03*
D14*
%TO.P,U2,3,+*%
%TO.N,Net-(U2-+)*%
X76962000Y-44958000D03*
D16*
X76962000Y-44958000D03*
D14*
%TO.P,U2,4,GND*%
%TO.N,GND*%
X74422000Y-44958000D03*
D16*
X74422000Y-44958000D03*
D14*
%TO.P,U2,5*%
%TO.N,Net-(C7-Pad2)*%
X74422000Y-52578000D03*
D16*
X74422000Y-52578000D03*
D14*
%TO.P,U2,6,V+*%
%TO.N,VCC*%
X76962000Y-52578000D03*
D16*
X76962000Y-52578000D03*
D14*
%TO.P,U2,7,BYPASS*%
%TO.N,Net-(U2-BYPASS)*%
X79502000Y-52578000D03*
D16*
X79502000Y-52578000D03*
D14*
%TO.P,U2,8,GAIN*%
%TO.N,Net-(R3-Pad1)*%
X82042000Y-52578000D03*
D16*
X82042000Y-52578000D03*
%TD*%
D14*
%TO.P,U1,1*%
%TO.N,Net-(U1A--)*%
X95250000Y-66802000D03*
D17*
X95250000Y-66802000D03*
D14*
%TO.P,U1,2,-*%
X97790000Y-66802000D03*
D16*
X97790000Y-66802000D03*
D14*
%TO.P,U1,3,+*%
%TO.N,IN*%
X100330000Y-66802000D03*
D16*
X100330000Y-66802000D03*
D14*
%TO.P,U1,4,V-*%
%TO.N,VEE*%
X102870000Y-66802000D03*
D16*
X102870000Y-66802000D03*
D14*
%TO.P,U1,5,+*%
%TO.N,Net-(D1-A)*%
X102870000Y-59182000D03*
D16*
X102870000Y-59182000D03*
D14*
%TO.P,U1,6,-*%
%TO.N,Net-(U1B--)*%
X100330000Y-59182000D03*
D16*
X100330000Y-59182000D03*
D14*
%TO.P,U1,7*%
X97790000Y-59182000D03*
D16*
X97790000Y-59182000D03*
D14*
%TO.P,U1,8,V+*%
%TO.N,VCC*%
X95250000Y-59182000D03*
D16*
X95250000Y-59182000D03*
%TD*%
D18*
%TO.P,RV1,1,1*%
%TO.N,GND*%
X105918000Y-48768000D03*
%TO.P,RV1,2,2*%
%TO.N,Net-(D1-A)*%
X100838000Y-48768000D03*
%TO.P,RV1,3,3*%
%TO.N,Net-(R1-Pad2)*%
X95758000Y-48768000D03*
D19*
%TO.P,RV1,MP*%
%TO.N,N/C*%
X108838000Y-35768000D03*
D20*
X100838000Y-35768000D03*
%TD*%
D10*
%TO.P,R4,1*%
%TO.N,GND*%
X52070000Y-51816000D03*
%TO.P,R4,2*%
%TO.N,Net-(C8-Pad1)*%
X62230000Y-51816000D03*
%TD*%
%TO.P,R2,1*%
%TO.N,Net-(U1B--)*%
X113030000Y-55880000D03*
%TO.P,R2,2*%
%TO.N,Net-(J2-PadT)*%
X113030000Y-45720000D03*
%TD*%
%TO.P,R1,1*%
%TO.N,Net-(C5-Pad2)*%
X91694000Y-58928000D03*
%TO.P,R1,2*%
%TO.N,Net-(R1-Pad2)*%
X91694000Y-48768000D03*
%TD*%
D21*
%TO.P,J3,1,Pin_1*%
%TO.N,Net-(J3-Pin_1)*%
X68580000Y-30480000D03*
D22*
X68580000Y-30480000D03*
D21*
%TO.P,J3,2,Pin_2*%
%TO.N,GND*%
X63580000Y-30480000D03*
D22*
X63580000Y-30480000D03*
%TD*%
D23*
%TO.P,J1,1,Pin_1*%
%TO.N,IN*%
X78580000Y-71120000D03*
D24*
%TO.P,J1,2,Pin_2*%
%TO.N,VEE*%
X73580000Y-71120000D03*
%TO.P,J1,3,Pin_3*%
%TO.N,GND*%
X68580000Y-71120000D03*
%TO.P,J1,4,Pin_4*%
%TO.N,VCC*%
X63580000Y-71120000D03*
%TD*%
D25*
%TO.P,D2,1,K*%
%TO.N,Net-(D1-A)*%
X102870000Y-55880000D03*
D10*
%TO.P,D2,2,A*%
%TO.N,GND*%
X110490000Y-55880000D03*
%TD*%
D25*
%TO.P,D1,1,K*%
%TO.N,GND*%
X110490000Y-53086000D03*
D10*
%TO.P,D1,2,A*%
%TO.N,Net-(D1-A)*%
X102870000Y-53086000D03*
%TD*%
%TO.P,C10,1*%
%TO.N,GND*%
X81026000Y-61174000D03*
%TO.P,C10,2*%
%TO.N,Net-(U2-BYPASS)*%
X81026000Y-56174000D03*
%TD*%
D26*
%TO.P,C9,1*%
%TO.N,Net-(C7-Pad2)*%
X61214000Y-41524000D03*
D10*
%TO.P,C9,2*%
%TO.N,Net-(J3-Pin_1)*%
X61214000Y-37724000D03*
%TD*%
%TO.P,C8,1*%
%TO.N,Net-(C8-Pad1)*%
X56214000Y-48768000D03*
%TO.P,C8,2*%
%TO.N,Net-(C7-Pad2)*%
X61214000Y-48768000D03*
%TD*%
D27*
%TO.P,C6,1*%
%TO.N,VCC*%
X76962000Y-58674000D03*
D10*
%TO.P,C6,2*%
%TO.N,GND*%
X73162000Y-58674000D03*
%TD*%
%TO.P,C5,1*%
%TO.N,Net-(U1A--)*%
X91694000Y-66762000D03*
%TO.P,C5,2*%
%TO.N,Net-(C5-Pad2)*%
X91694000Y-61762000D03*
%TD*%
%TO.P,C4,1*%
%TO.N,GND*%
X102870000Y-74890000D03*
%TO.P,C4,2*%
%TO.N,VEE*%
X102870000Y-69890000D03*
%TD*%
%TO.P,C3,1*%
%TO.N,VCC*%
X95290000Y-55880000D03*
%TO.P,C3,2*%
%TO.N,GND*%
X100290000Y-55880000D03*
%TD*%
D28*
%TO.P,C2,1*%
%TO.N,GND*%
X64780000Y-60960000D03*
D10*
%TO.P,C2,2*%
%TO.N,VEE*%
X68580000Y-60960000D03*
%TD*%
D28*
%TO.P,C1,1*%
%TO.N,VCC*%
X55250000Y-60960000D03*
D10*
%TO.P,C1,2*%
%TO.N,GND*%
X59050000Y-60960000D03*
%TD*%
D29*
%TO.P,REF\u002A\u002A,MP*%
%TO.N,N/C*%
X121920000Y-71120000D03*
%TD*%
%TO.P,REF\u002A\u002A,MP*%
%TO.N,N/C*%
X121920000Y-30480000D03*
%TD*%
%TO.P,REF\u002A\u002A,MP*%
%TO.N,N/C*%
X55880000Y-30480000D03*
%TD*%
%TO.P,REF\u002A\u002A,MP*%
%TO.N,N/C*%
X55880000Y-71120000D03*
%TD*%
D30*
%TO.P,RV2,3,3*%
%TO.N,GND*%
X79542000Y-39116000D03*
D14*
X79542000Y-39116000D03*
D30*
%TO.P,RV2,2,2*%
%TO.N,Net-(U2-+)*%
X77002000Y-39116000D03*
D14*
X77002000Y-39116000D03*
D30*
%TO.P,RV2,1,1*%
%TO.N,Net-(J2-PadTN)*%
X74462000Y-39116000D03*
D14*
X74462000Y-39116000D03*
%TD*%
D31*
%TO.N,Net-(J2-PadTN)*%
X85347600Y-37084000D02*
X76338508Y-37084000D01*
X76338508Y-37084000D02*
X74462000Y-38960508D01*
X74462000Y-38960508D02*
X74462000Y-39116000D01*
X111546000Y-48300000D02*
X108966000Y-45720000D01*
X117428000Y-48300000D02*
X111546000Y-48300000D01*
X108966000Y-45720000D02*
X93983600Y-45720000D01*
X93983600Y-45720000D02*
X85347600Y-37084000D01*
%TO.N,GND*%
X100290000Y-51194600D02*
X100330000Y-51154600D01*
X100290000Y-55880000D02*
X100290000Y-51194600D01*
X100330000Y-51154600D02*
X84734422Y-51154600D01*
X79502000Y-47295800D02*
X75825854Y-47295800D01*
X79502000Y-44958000D02*
X79502000Y-47295800D01*
X74422000Y-45891946D02*
X74422000Y-44958000D01*
X75825854Y-47295800D02*
X74422000Y-45891946D01*
X80875622Y-47295800D02*
X79502000Y-47295800D01*
X108558600Y-51154600D02*
X100330000Y-51154600D01*
X84734422Y-51154600D02*
X80875622Y-47295800D01*
X110490000Y-53086000D02*
X108558600Y-51154600D01*
X115062000Y-56642000D02*
X118090000Y-59670000D01*
X115062000Y-55180587D02*
X115062000Y-56642000D01*
X112967413Y-53086000D02*
X115062000Y-55180587D01*
X110490000Y-53086000D02*
X112967413Y-53086000D01*
X118090000Y-59670000D02*
X120760200Y-56999800D01*
X120760200Y-52467800D02*
X122428000Y-50800000D01*
X102870000Y-74890000D02*
X118090000Y-59670000D01*
X120760200Y-56999800D02*
X120760200Y-52467800D01*
%TO.N,Net-(U2-BYPASS)*%
X79502000Y-54650000D02*
X81026000Y-56174000D01*
X79502000Y-52578000D02*
X79502000Y-54650000D01*
%TO.N,VCC*%
X89216587Y-58674000D02*
X92010587Y-55880000D01*
X92010587Y-55880000D02*
X95290000Y-55880000D01*
X76962000Y-58674000D02*
X89216587Y-58674000D01*
%TO.N,Net-(U2-+)*%
X76962000Y-40132000D02*
X76962000Y-44958000D01*
X77002000Y-40092000D02*
X76962000Y-40132000D01*
X77002000Y-39116000D02*
X77002000Y-40092000D01*
%TO.N,GND*%
X79542000Y-44918000D02*
X79502000Y-44958000D01*
X79542000Y-39116000D02*
X79542000Y-44918000D01*
%TO.N,Net-(C7-Pad2)*%
X64892000Y-41524000D02*
X61214000Y-41524000D01*
X68145400Y-48270813D02*
X68145400Y-44777400D01*
X72452587Y-52578000D02*
X68145400Y-48270813D01*
X68145400Y-44777400D02*
X64892000Y-41524000D01*
X74422000Y-52578000D02*
X72452587Y-52578000D01*
%TO.N,GND*%
X75662000Y-61174000D02*
X81026000Y-61174000D01*
X73162000Y-58674000D02*
X75662000Y-61174000D01*
X64780000Y-60960000D02*
X67066000Y-58674000D01*
X67066000Y-58674000D02*
X73162000Y-58674000D01*
%TO.N,VCC*%
X55250000Y-60960000D02*
X60330000Y-55880000D01*
X76962000Y-52578000D02*
X76962000Y-55880000D01*
X60330000Y-55880000D02*
X76962000Y-55880000D01*
X76962000Y-55880000D02*
X76962000Y-58674000D01*
%TO.N,Net-(R3-Pad1)*%
X82042000Y-51644054D02*
X82042000Y-52578000D01*
X79165946Y-48768000D02*
X82042000Y-51644054D01*
X71374000Y-48768000D02*
X79165946Y-48768000D01*
%TO.N,Net-(C7-Pad1)*%
X63754000Y-48180000D02*
X66214000Y-45720000D01*
X63754000Y-48768000D02*
X63754000Y-48180000D01*
%TO.N,Net-(C8-Pad1)*%
X59262000Y-51816000D02*
X62230000Y-51816000D01*
X56214000Y-48768000D02*
X59262000Y-51816000D01*
%TO.N,Net-(C7-Pad2)*%
X61214000Y-45720000D02*
X61214000Y-48768000D01*
X61214000Y-41524000D02*
X61214000Y-45720000D01*
%TO.N,Net-(J3-Pin_1)*%
X68458000Y-30480000D02*
X68580000Y-30480000D01*
X61214000Y-37724000D02*
X68458000Y-30480000D01*
%TO.N,Net-(U1B--)*%
X113030000Y-57101314D02*
X113030000Y-55880000D01*
X108611514Y-61519800D02*
X113030000Y-57101314D01*
X102069988Y-61519800D02*
X108611514Y-61519800D01*
X100330000Y-59779812D02*
X102069988Y-61519800D01*
X100330000Y-59182000D02*
X100330000Y-59779812D01*
%TO.N,Net-(J2-PadT)*%
X117348000Y-45720000D02*
X117428000Y-45800000D01*
X113030000Y-45720000D02*
X117348000Y-45720000D01*
%TO.N,GND*%
X110490000Y-55880000D02*
X110490000Y-53086000D01*
%TO.N,Net-(D1-A)*%
X102870000Y-59182000D02*
X102870000Y-55880000D01*
%TO.N,VCC*%
X95290000Y-55880000D02*
X95290000Y-59142000D01*
X95290000Y-59142000D02*
X95250000Y-59182000D01*
%TO.N,Net-(C5-Pad2)*%
X91694000Y-58928000D02*
X91694000Y-61762000D01*
%TO.N,Net-(U1A--)*%
X95210000Y-66762000D02*
X95250000Y-66802000D01*
X91694000Y-66762000D02*
X95210000Y-66762000D01*
%TO.N,Net-(U1B--)*%
X97790000Y-59182000D02*
X100330000Y-59182000D01*
%TO.N,VEE*%
X102870000Y-66802000D02*
X102870000Y-69890000D01*
X99100000Y-73660000D02*
X102870000Y-69890000D01*
X76120000Y-73660000D02*
X99100000Y-73660000D01*
X73580000Y-71120000D02*
X76120000Y-73660000D01*
%TO.N,GND*%
X102778200Y-74981800D02*
X102870000Y-74890000D01*
X72441800Y-74981800D02*
X102778200Y-74981800D01*
X68580000Y-71120000D02*
X72441800Y-74981800D01*
%TO.N,Net-(U1A--)*%
X95250000Y-67310000D02*
X97790000Y-67310000D01*
%TO.N,IN*%
X100330000Y-68243946D02*
X100330000Y-67310000D01*
X97453946Y-71120000D02*
X100330000Y-68243946D01*
X78580000Y-71120000D02*
X97453946Y-71120000D01*
%TO.N,GND*%
X61635000Y-30480000D02*
X63580000Y-30480000D01*
X59947800Y-71120000D02*
X59947800Y-69357108D01*
X52070000Y-61479308D02*
X52070000Y-40045000D01*
X52070000Y-40045000D02*
X61635000Y-30480000D01*
X62415600Y-73587800D02*
X59947800Y-71120000D01*
X68580000Y-71120000D02*
X66112200Y-73587800D01*
X66112200Y-73587800D02*
X62415600Y-73587800D01*
X59947800Y-69357108D02*
X52070000Y-61479308D01*
%TO.N,Net-(J2-PadR)*%
X117428000Y-53300000D02*
X117428000Y-55800000D01*
%TO.N,VEE*%
X68580000Y-66120000D02*
X73580000Y-71120000D01*
X68580000Y-60960000D02*
X68580000Y-66120000D01*
%TO.N,GND*%
X64780000Y-67320000D02*
X68580000Y-71120000D01*
X64780000Y-60960000D02*
X64780000Y-67320000D01*
X59050000Y-60960000D02*
X64780000Y-60960000D01*
%TO.N,VCC*%
X55250000Y-62790000D02*
X63580000Y-71120000D01*
X55250000Y-60960000D02*
X55250000Y-62790000D01*
%TD*%
%TA.AperFunction,Conductor*%
%TO.N,GND*%
G36*
X75455432Y-56966558D02*
G01*
X75537511Y-57021402D01*
X75592355Y-57103481D01*
X75611613Y-57200300D01*
X75592355Y-57297119D01*
X75537511Y-57379198D01*
X75529217Y-57387491D01*
X75413272Y-57558801D01*
X75413268Y-57558809D01*
X75331840Y-57748961D01*
X75287869Y-57951093D01*
X75287867Y-57951105D01*
X75285100Y-57997552D01*
X75285100Y-58198679D01*
X75265842Y-58295498D01*
X75210998Y-58377577D01*
X75128919Y-58432421D01*
X75032100Y-58451679D01*
X74935281Y-58432421D01*
X74853202Y-58377577D01*
X74798358Y-58295498D01*
X74787721Y-58264160D01*
X74752842Y-58133990D01*
X74668744Y-57930958D01*
X74668744Y-57930957D01*
X74558866Y-57740645D01*
X74558865Y-57740643D01*
X74513581Y-57681627D01*
X73568400Y-58626808D01*
X73568400Y-58620496D01*
X73540705Y-58517135D01*
X73487201Y-58424464D01*
X73411536Y-58348799D01*
X73318865Y-58295295D01*
X73215504Y-58267600D01*
X73209187Y-58267600D01*
X74154370Y-57322417D01*
X74147451Y-57216848D01*
X74160335Y-57118977D01*
X74209693Y-57033487D01*
X74288009Y-56973392D01*
X74383361Y-56947842D01*
X74399909Y-56947300D01*
X75358613Y-56947300D01*
X75455432Y-56966558D01*
G37*
%TD.AperFunction*%
%TA.AperFunction,Conductor*%
G36*
X79135600Y-39169504D02*
G01*
X79163295Y-39272865D01*
X79216799Y-39365536D01*
X79292464Y-39441201D01*
X79385135Y-39494705D01*
X79488496Y-39522400D01*
X79494808Y-39522400D01*
X78898733Y-40118475D01*
X78890368Y-40124063D01*
X78884143Y-40131961D01*
X78849592Y-40151310D01*
X78816654Y-40173319D01*
X78806787Y-40175281D01*
X78798014Y-40180195D01*
X78758683Y-40184849D01*
X78719835Y-40192577D01*
X78709970Y-40190614D01*
X78699982Y-40191797D01*
X78661866Y-40181046D01*
X78623016Y-40173319D01*
X78614651Y-40167729D01*
X78604973Y-40165000D01*
X78573875Y-40140483D01*
X78540937Y-40118475D01*
X78535348Y-40110110D01*
X78527451Y-40103885D01*
X78508101Y-40069334D01*
X78486093Y-40036396D01*
X78484130Y-40026529D01*
X78479217Y-40017756D01*
X78474562Y-39978425D01*
X78466835Y-39939577D01*
X78468797Y-39929712D01*
X78467615Y-39919724D01*
X78478365Y-39881608D01*
X78486093Y-39842758D01*
X78494396Y-39824748D01*
X78497355Y-39818941D01*
X78543875Y-39754913D01*
X79135600Y-39163188D01*
X79135600Y-39169504D01*
G37*
%TD.AperFunction*%
%TA.AperFunction,Conductor*%
G36*
X119384508Y-25654661D02*
G01*
X119896446Y-25672944D01*
X119914420Y-25674230D01*
X120419254Y-25728506D01*
X120437088Y-25731070D01*
X120936765Y-25821221D01*
X120954395Y-25825057D01*
X121446356Y-25950623D01*
X121463664Y-25955705D01*
X121904931Y-26102572D01*
X121945409Y-26116045D01*
X121962308Y-26122347D01*
X122101399Y-26179961D01*
X122183474Y-26234802D01*
X122238317Y-26316881D01*
X122257576Y-26413700D01*
X122238318Y-26510519D01*
X122183474Y-26592598D01*
X122101395Y-26647441D01*
X122004576Y-26666700D01*
X121732661Y-26666700D01*
X121359802Y-26703423D01*
X121176062Y-26739971D01*
X120992326Y-26776519D01*
X120992324Y-26776519D01*
X120992322Y-26776520D01*
X120992317Y-26776521D01*
X120633790Y-26885279D01*
X120287644Y-27028657D01*
X120287635Y-27028661D01*
X119957208Y-27205279D01*
X119645678Y-27413436D01*
X119645675Y-27413438D01*
X119356056Y-27651122D01*
X119356056Y-27651123D01*
X119091123Y-27916056D01*
X119091122Y-27916056D01*
X118853438Y-28205675D01*
X118853436Y-28205678D01*
X118645279Y-28517208D01*
X118468661Y-28847635D01*
X118468657Y-28847644D01*
X118325279Y-29193790D01*
X118216521Y-29552317D01*
X118216520Y-29552322D01*
X118143423Y-29919802D01*
X118106700Y-30292661D01*
X118106700Y-30667338D01*
X118143423Y-31040197D01*
X118143424Y-31040202D01*
X118203786Y-31343662D01*
X118216520Y-31407677D01*
X118216521Y-31407682D01*
X118325279Y-31766209D01*
X118397464Y-31940479D01*
X118468660Y-32112362D01*
X118645279Y-32442792D01*
X118851216Y-32750999D01*
X118853436Y-32754321D01*
X118853438Y-32754324D01*
X119044712Y-32987392D01*
X119091123Y-33043944D01*
X119356056Y-33308877D01*
X119645680Y-33546565D01*
X119957208Y-33754721D01*
X120287638Y-33931340D01*
X120633789Y-34074720D01*
X120992326Y-34183481D01*
X121359798Y-34256576D01*
X121732665Y-34293300D01*
X121732666Y-34293300D01*
X122107334Y-34293300D01*
X122107335Y-34293300D01*
X122480202Y-34256576D01*
X122847674Y-34183481D01*
X123206211Y-34074720D01*
X123552362Y-33931340D01*
X123882792Y-33754721D01*
X124194320Y-33546565D01*
X124483944Y-33308877D01*
X124748877Y-33043944D01*
X124986565Y-32754320D01*
X125194721Y-32442792D01*
X125371340Y-32112362D01*
X125514720Y-31766211D01*
X125623481Y-31407674D01*
X125696576Y-31040202D01*
X125733300Y-30667335D01*
X125733300Y-30395424D01*
X125752558Y-30298605D01*
X125807402Y-30216526D01*
X125889481Y-30161682D01*
X125986300Y-30142424D01*
X125986301Y-30142424D01*
X126005559Y-30146254D01*
X126083119Y-30161682D01*
X126165198Y-30216526D01*
X126220038Y-30298600D01*
X126260145Y-30395424D01*
X126277643Y-30437669D01*
X126283954Y-30454590D01*
X126444291Y-30936325D01*
X126449379Y-30953653D01*
X126574940Y-31445595D01*
X126578779Y-31463243D01*
X126668926Y-31962890D01*
X126671496Y-31980766D01*
X126725767Y-32485558D01*
X126727056Y-32503573D01*
X126745339Y-33015491D01*
X126745500Y-33024521D01*
X126745500Y-45222778D01*
X126726242Y-45319597D01*
X126671398Y-45401676D01*
X126589319Y-45456520D01*
X126492500Y-45475778D01*
X126395681Y-45456520D01*
X126313602Y-45401676D01*
X126258758Y-45319597D01*
X126251887Y-45300974D01*
X126237756Y-45257481D01*
X126136762Y-45059269D01*
X126136760Y-45059265D01*
X126136758Y-45059263D01*
X126006010Y-44879303D01*
X126006005Y-44879297D01*
X125848703Y-44721995D01*
X125848696Y-44721989D01*
X125668736Y-44591241D01*
X125668734Y-44591239D01*
X125470523Y-44490246D01*
X125470522Y-44490245D01*
X125470519Y-44490244D01*
X125258948Y-44421500D01*
X125172633Y-44407829D01*
X125039230Y-44386700D01*
X125039229Y-44386700D01*
X124816771Y-44386700D01*
X124816769Y-44386700D01*
X124597051Y-44421500D01*
X124385484Y-44490243D01*
X124385476Y-44490246D01*
X124187265Y-44591239D01*
X124187263Y-44591241D01*
X124007303Y-44721989D01*
X123856898Y-44872394D01*
X123774819Y-44927238D01*
X123678000Y-44946496D01*
X123581181Y-44927238D01*
X123499102Y-44872394D01*
X123348703Y-44721995D01*
X123348696Y-44721989D01*
X123168736Y-44591241D01*
X123168734Y-44591239D01*
X122970523Y-44490246D01*
X122970522Y-44490245D01*
X122970519Y-44490244D01*
X122758948Y-44421500D01*
X122672633Y-44407829D01*
X122539230Y-44386700D01*
X122539229Y-44386700D01*
X122316771Y-44386700D01*
X122316769Y-44386700D01*
X122097051Y-44421500D01*
X121885484Y-44490243D01*
X121885476Y-44490246D01*
X121687265Y-44591239D01*
X121687263Y-44591241D01*
X121507303Y-44721989D01*
X121349989Y-44879303D01*
X121219241Y-45059263D01*
X121219239Y-45059265D01*
X121118246Y-45257476D01*
X121118243Y-45257484D01*
X121049500Y-45469051D01*
X121014700Y-45688769D01*
X121014700Y-45911230D01*
X121033548Y-46030231D01*
X121049500Y-46130948D01*
X121080809Y-46227308D01*
X121118243Y-46342515D01*
X121118246Y-46342523D01*
X121219239Y-46540734D01*
X121219241Y-46540736D01*
X121349989Y-46720696D01*
X121349995Y-46720703D01*
X121507297Y-46878005D01*
X121507303Y-46878010D01*
X121687263Y-47008758D01*
X121687265Y-47008760D01*
X121687269Y-47008762D01*
X121885481Y-47109756D01*
X122097052Y-47178500D01*
X122316771Y-47213300D01*
X122316773Y-47213300D01*
X122539227Y-47213300D01*
X122539229Y-47213300D01*
X122758948Y-47178500D01*
X122970519Y-47109756D01*
X123168731Y-47008762D01*
X123348703Y-46878005D01*
X123499102Y-46727606D01*
X123581181Y-46672762D01*
X123678000Y-46653504D01*
X123774819Y-46672762D01*
X123856898Y-46727606D01*
X124007297Y-46878005D01*
X124007303Y-46878010D01*
X124187263Y-47008758D01*
X124187265Y-47008760D01*
X124187269Y-47008762D01*
X124385481Y-47109756D01*
X124597052Y-47178500D01*
X124816771Y-47213300D01*
X124816773Y-47213300D01*
X125039227Y-47213300D01*
X125039229Y-47213300D01*
X125258948Y-47178500D01*
X125470519Y-47109756D01*
X125668731Y-47008762D01*
X125848703Y-46878005D01*
X126006005Y-46720703D01*
X126136762Y-46540731D01*
X126237756Y-46342519D01*
X126251883Y-46299038D01*
X126300117Y-46212911D01*
X126377641Y-46151796D01*
X126472650Y-46125001D01*
X126570681Y-46136604D01*
X126656810Y-46184838D01*
X126717925Y-46262362D01*
X126744720Y-46357371D01*
X126745500Y-46377221D01*
X126745500Y-48006500D01*
X126726242Y-48103319D01*
X126671398Y-48185398D01*
X126589319Y-48240242D01*
X126492500Y-48259500D01*
X125425377Y-48259500D01*
X125331836Y-48298245D01*
X125260245Y-48369836D01*
X125233138Y-48435281D01*
X125221500Y-48463377D01*
X125221500Y-53136623D01*
X125260245Y-53230163D01*
X125331837Y-53301755D01*
X125425377Y-53340500D01*
X125526623Y-53340500D01*
X126492500Y-53340500D01*
X126589319Y-53359758D01*
X126671398Y-53414602D01*
X126726242Y-53496681D01*
X126745500Y-53593500D01*
X126745500Y-55222778D01*
X126726242Y-55319597D01*
X126671398Y-55401676D01*
X126589319Y-55456520D01*
X126492500Y-55475778D01*
X126395681Y-55456520D01*
X126313602Y-55401676D01*
X126258758Y-55319597D01*
X126251887Y-55300974D01*
X126237756Y-55257481D01*
X126136762Y-55059269D01*
X126136760Y-55059265D01*
X126136758Y-55059263D01*
X126006010Y-54879303D01*
X126006005Y-54879297D01*
X125848703Y-54721995D01*
X125848696Y-54721989D01*
X125668736Y-54591241D01*
X125668734Y-54591239D01*
X125470523Y-54490246D01*
X125470522Y-54490245D01*
X125470519Y-54490244D01*
X125258948Y-54421500D01*
X125039230Y-54386700D01*
X125039229Y-54386700D01*
X124816771Y-54386700D01*
X124816769Y-54386700D01*
X124597051Y-54421500D01*
X124385484Y-54490243D01*
X124385476Y-54490246D01*
X124187265Y-54591239D01*
X124187263Y-54591241D01*
X124007303Y-54721989D01*
X123856898Y-54872394D01*
X123774819Y-54927238D01*
X123678000Y-54946496D01*
X123581181Y-54927238D01*
X123499102Y-54872394D01*
X123348703Y-54721995D01*
X123348696Y-54721989D01*
X123168736Y-54591241D01*
X123168734Y-54591239D01*
X122970523Y-54490246D01*
X122970522Y-54490245D01*
X122970519Y-54490244D01*
X122758948Y-54421500D01*
X122539230Y-54386700D01*
X122539229Y-54386700D01*
X122316771Y-54386700D01*
X122316769Y-54386700D01*
X122097051Y-54421500D01*
X121885484Y-54490243D01*
X121885476Y-54490246D01*
X121687265Y-54591239D01*
X121687263Y-54591241D01*
X121507303Y-54721989D01*
X121349989Y-54879303D01*
X121219241Y-55059263D01*
X121219239Y-55059265D01*
X121118246Y-55257476D01*
X121118243Y-55257484D01*
X121049500Y-55469051D01*
X121014700Y-55688769D01*
X121014700Y-55911230D01*
X121022866Y-55962786D01*
X121049500Y-56130948D01*
X121117483Y-56340178D01*
X121118243Y-56342515D01*
X121118246Y-56342523D01*
X121219239Y-56540734D01*
X121219241Y-56540736D01*
X121349989Y-56720696D01*
X121349995Y-56720703D01*
X121507297Y-56878005D01*
X121507303Y-56878010D01*
X121687263Y-57008758D01*
X121687265Y-57008760D01*
X121687269Y-57008762D01*
X121885481Y-57109756D01*
X122097052Y-57178500D01*
X122316771Y-57213300D01*
X122316773Y-57213300D01*
X122539227Y-57213300D01*
X122539229Y-57213300D01*
X122758948Y-57178500D01*
X122970519Y-57109756D01*
X123168731Y-57008762D01*
X123348703Y-56878005D01*
X123499102Y-56727606D01*
X123581181Y-56672762D01*
X123678000Y-56653504D01*
X123774819Y-56672762D01*
X123856898Y-56727606D01*
X124007297Y-56878005D01*
X124007303Y-56878010D01*
X124187263Y-57008758D01*
X124187265Y-57008760D01*
X124187269Y-57008762D01*
X124385481Y-57109756D01*
X124597052Y-57178500D01*
X124816771Y-57213300D01*
X124816773Y-57213300D01*
X125039227Y-57213300D01*
X125039229Y-57213300D01*
X125258948Y-57178500D01*
X125470519Y-57109756D01*
X125668731Y-57008762D01*
X125848703Y-56878005D01*
X126006005Y-56720703D01*
X126136762Y-56540731D01*
X126237756Y-56342519D01*
X126251883Y-56299038D01*
X126300117Y-56212911D01*
X126377641Y-56151796D01*
X126472650Y-56125001D01*
X126570681Y-56136604D01*
X126656810Y-56184838D01*
X126717925Y-56262362D01*
X126744720Y-56357371D01*
X126745500Y-56377221D01*
X126745500Y-68575478D01*
X126745339Y-68584508D01*
X126727056Y-69096426D01*
X126725767Y-69114441D01*
X126671496Y-69619233D01*
X126668926Y-69637109D01*
X126578779Y-70136756D01*
X126574940Y-70154404D01*
X126449379Y-70646346D01*
X126444291Y-70663674D01*
X126283954Y-71145409D01*
X126277643Y-71162330D01*
X126244380Y-71242633D01*
X126235089Y-71265067D01*
X126220042Y-71301393D01*
X126165199Y-71383472D01*
X126083120Y-71438316D01*
X125986301Y-71457575D01*
X125889482Y-71438317D01*
X125807403Y-71383474D01*
X125752559Y-71301395D01*
X125733300Y-71204576D01*
X125733300Y-70932666D01*
X125733300Y-70932665D01*
X125696576Y-70559798D01*
X125623481Y-70192326D01*
X125514720Y-69833789D01*
X125371340Y-69487638D01*
X125194721Y-69157208D01*
X124986565Y-68845680D01*
X124968467Y-68823628D01*
X124748877Y-68556056D01*
X124483943Y-68291122D01*
X124194324Y-68053438D01*
X124194321Y-68053436D01*
X124194320Y-68053435D01*
X123882792Y-67845279D01*
X123552362Y-67668660D01*
X123552355Y-67668657D01*
X123206209Y-67525279D01*
X122847682Y-67416521D01*
X122847677Y-67416520D01*
X122847674Y-67416519D01*
X122480202Y-67343424D01*
X122480197Y-67343423D01*
X122107338Y-67306700D01*
X122107335Y-67306700D01*
X121732665Y-67306700D01*
X121732661Y-67306700D01*
X121359802Y-67343423D01*
X121176062Y-67379971D01*
X120992326Y-67416519D01*
X120992324Y-67416519D01*
X120992322Y-67416520D01*
X120992317Y-67416521D01*
X120633790Y-67525279D01*
X120287644Y-67668657D01*
X120287635Y-67668661D01*
X119957208Y-67845279D01*
X119645678Y-68053436D01*
X119645675Y-68053438D01*
X119356056Y-68291122D01*
X119356056Y-68291123D01*
X119091123Y-68556056D01*
X119091122Y-68556056D01*
X118853438Y-68845675D01*
X118853436Y-68845678D01*
X118645279Y-69157208D01*
X118468661Y-69487635D01*
X118468657Y-69487644D01*
X118325279Y-69833790D01*
X118216521Y-70192317D01*
X118216520Y-70192322D01*
X118216519Y-70192326D01*
X118189729Y-70327009D01*
X118143423Y-70559802D01*
X118106700Y-70932661D01*
X118106700Y-71307338D01*
X118143423Y-71680197D01*
X118143424Y-71680202D01*
X118211065Y-72020256D01*
X118216520Y-72047677D01*
X118216521Y-72047682D01*
X118325279Y-72406209D01*
X118398285Y-72582461D01*
X118468660Y-72752362D01*
X118645279Y-73082792D01*
X118846042Y-73383255D01*
X118853436Y-73394321D01*
X118853438Y-73394324D01*
X119091122Y-73683943D01*
X119356056Y-73948877D01*
X119602782Y-74151360D01*
X119645680Y-74186565D01*
X119957208Y-74394721D01*
X120287638Y-74571340D01*
X120633789Y-74714720D01*
X120992326Y-74823481D01*
X121359798Y-74896576D01*
X121732665Y-74933300D01*
X121732666Y-74933300D01*
X122004578Y-74933300D01*
X122043094Y-74940961D01*
X122101395Y-74952558D01*
X122101396Y-74952558D01*
X122101397Y-74952559D01*
X122119730Y-74964809D01*
X122183474Y-75007402D01*
X122238318Y-75089481D01*
X122257455Y-75185691D01*
X122257576Y-75186302D01*
X122249914Y-75224818D01*
X122238318Y-75283119D01*
X122183474Y-75365198D01*
X122101399Y-75420038D01*
X122062046Y-75436339D01*
X121962329Y-75477643D01*
X121945409Y-75483954D01*
X121463674Y-75644291D01*
X121446346Y-75649379D01*
X120954404Y-75774940D01*
X120936756Y-75778779D01*
X120437109Y-75868926D01*
X120419233Y-75871496D01*
X119914441Y-75925767D01*
X119896426Y-75927056D01*
X119384508Y-75945339D01*
X119375478Y-75945500D01*
X104625962Y-75945500D01*
X104529143Y-75926242D01*
X104447064Y-75871398D01*
X104392220Y-75789319D01*
X104372962Y-75692500D01*
X104392220Y-75595683D01*
X104460841Y-75430012D01*
X104517715Y-75217755D01*
X104517715Y-75217751D01*
X104546399Y-74999890D01*
X104546400Y-74999876D01*
X104546400Y-74780123D01*
X104546399Y-74780109D01*
X104517715Y-74562248D01*
X104517715Y-74562244D01*
X104460842Y-74349990D01*
X104376744Y-74146958D01*
X104376744Y-74146957D01*
X104266866Y-73956645D01*
X104266865Y-73956643D01*
X104221581Y-73897627D01*
X103276400Y-74842809D01*
X103276400Y-74836496D01*
X103248705Y-74733135D01*
X103195201Y-74640464D01*
X103119536Y-74564799D01*
X103026865Y-74511295D01*
X102923504Y-74483600D01*
X102917187Y-74483600D01*
X103862371Y-73538417D01*
X103862370Y-73538416D01*
X103803366Y-73493141D01*
X103803354Y-73493133D01*
X103613042Y-73383255D01*
X103410009Y-73299157D01*
X103197753Y-73242284D01*
X102979890Y-73213600D01*
X102760109Y-73213600D01*
X102542248Y-73242284D01*
X102542244Y-73242284D01*
X102329990Y-73299157D01*
X102126958Y-73383255D01*
X102126957Y-73383255D01*
X101936647Y-73493132D01*
X101936640Y-73493137D01*
X101877627Y-73538416D01*
X102822811Y-74483600D01*
X102816496Y-74483600D01*
X102713135Y-74511295D01*
X102620464Y-74564799D01*
X102544799Y-74640464D01*
X102491295Y-74733135D01*
X102463600Y-74836496D01*
X102463600Y-74842811D01*
X101518416Y-73897627D01*
X101473137Y-73956640D01*
X101473132Y-73956647D01*
X101363255Y-74146957D01*
X101363255Y-74146958D01*
X101279157Y-74349990D01*
X101222284Y-74562244D01*
X101222284Y-74562248D01*
X101193600Y-74780109D01*
X101193600Y-74999890D01*
X101222284Y-75217751D01*
X101222284Y-75217755D01*
X101279158Y-75430012D01*
X101347780Y-75595683D01*
X101367038Y-75692502D01*
X101347779Y-75789320D01*
X101292935Y-75871399D01*
X101210855Y-75926242D01*
X101114038Y-75945500D01*
X58424522Y-75945500D01*
X58415492Y-75945339D01*
X57903573Y-75927056D01*
X57885558Y-75925767D01*
X57380766Y-75871496D01*
X57362890Y-75868926D01*
X56863243Y-75778779D01*
X56845595Y-75774940D01*
X56353653Y-75649379D01*
X56336325Y-75644291D01*
X55854590Y-75483954D01*
X55837669Y-75477643D01*
X55765848Y-75447894D01*
X55698602Y-75420039D01*
X55616527Y-75365199D01*
X55561683Y-75283120D01*
X55542424Y-75186301D01*
X55561682Y-75089482D01*
X55616525Y-75007403D01*
X55698604Y-74952559D01*
X55795423Y-74933300D01*
X56067334Y-74933300D01*
X56067335Y-74933300D01*
X56440202Y-74896576D01*
X56807674Y-74823481D01*
X57166211Y-74714720D01*
X57512362Y-74571340D01*
X57842792Y-74394721D01*
X58154320Y-74186565D01*
X58443944Y-73948877D01*
X58708877Y-73683944D01*
X58946565Y-73394320D01*
X59154721Y-73082792D01*
X59331340Y-72752362D01*
X59474720Y-72406211D01*
X59583481Y-72047674D01*
X59656576Y-71680202D01*
X59693300Y-71307335D01*
X59693300Y-70932665D01*
X59656576Y-70559798D01*
X59583481Y-70192326D01*
X59474720Y-69833789D01*
X59331340Y-69487638D01*
X59154721Y-69157208D01*
X58946565Y-68845680D01*
X58928467Y-68823628D01*
X58708877Y-68556056D01*
X58443943Y-68291122D01*
X58154324Y-68053438D01*
X58154321Y-68053436D01*
X58154320Y-68053435D01*
X57842792Y-67845279D01*
X57512362Y-67668660D01*
X57512355Y-67668657D01*
X57166209Y-67525279D01*
X56807682Y-67416521D01*
X56807677Y-67416520D01*
X56807674Y-67416519D01*
X56440202Y-67343424D01*
X56440197Y-67343423D01*
X56067338Y-67306700D01*
X56067335Y-67306700D01*
X55692665Y-67306700D01*
X55692661Y-67306700D01*
X55319802Y-67343423D01*
X55136062Y-67379971D01*
X54952326Y-67416519D01*
X54952324Y-67416519D01*
X54952322Y-67416520D01*
X54952317Y-67416521D01*
X54593790Y-67525279D01*
X54247644Y-67668657D01*
X54247635Y-67668661D01*
X53917208Y-67845279D01*
X53605678Y-68053436D01*
X53605675Y-68053438D01*
X53316056Y-68291122D01*
X53316056Y-68291123D01*
X53051123Y-68556056D01*
X53051122Y-68556056D01*
X52813438Y-68845675D01*
X52813436Y-68845678D01*
X52605279Y-69157208D01*
X52428661Y-69487635D01*
X52428657Y-69487644D01*
X52285279Y-69833790D01*
X52176521Y-70192317D01*
X52176520Y-70192322D01*
X52176519Y-70192326D01*
X52149729Y-70327009D01*
X52103423Y-70559802D01*
X52066700Y-70932661D01*
X52066700Y-71204575D01*
X52047442Y-71301394D01*
X51992598Y-71383473D01*
X51910519Y-71438317D01*
X51813700Y-71457575D01*
X51716881Y-71438317D01*
X51634802Y-71383473D01*
X51579959Y-71301394D01*
X51522357Y-71162331D01*
X51522357Y-71162330D01*
X51516045Y-71145409D01*
X51502572Y-71104931D01*
X51355705Y-70663664D01*
X51350620Y-70646346D01*
X51347281Y-70633265D01*
X51225057Y-70154395D01*
X51221220Y-70136756D01*
X51220292Y-70131611D01*
X51131070Y-69637088D01*
X51128506Y-69619254D01*
X51074230Y-69114420D01*
X51072944Y-69096446D01*
X51054661Y-68584508D01*
X51054500Y-68575478D01*
X51054500Y-60283552D01*
X53573100Y-60283552D01*
X53573100Y-61636447D01*
X53575867Y-61682894D01*
X53575868Y-61682903D01*
X53575869Y-61682906D01*
X53619840Y-61885038D01*
X53648674Y-61952371D01*
X53701271Y-62075197D01*
X53723044Y-62107366D01*
X53762978Y-62166370D01*
X53817218Y-62246509D01*
X53963491Y-62392782D01*
X54071510Y-62465891D01*
X54140893Y-62536104D01*
X54178128Y-62627528D01*
X54182700Y-62675411D01*
X54182700Y-62684880D01*
X54182700Y-62895120D01*
X54223716Y-63101320D01*
X54293251Y-63269193D01*
X54304172Y-63295558D01*
X54420972Y-63470362D01*
X61350589Y-70399979D01*
X61405433Y-70482058D01*
X61424691Y-70578877D01*
X61416071Y-70644356D01*
X61404570Y-70687279D01*
X61366700Y-70974932D01*
X61366700Y-71265080D01*
X61404570Y-71552721D01*
X61404570Y-71552724D01*
X61479660Y-71832961D01*
X61479663Y-71832968D01*
X61590692Y-72101018D01*
X61590693Y-72101019D01*
X61590694Y-72101022D01*
X61616826Y-72146284D01*
X61735760Y-72352282D01*
X61912382Y-72582461D01*
X62117539Y-72787618D01*
X62347718Y-72964240D01*
X62598982Y-73109308D01*
X62867032Y-73220337D01*
X62867035Y-73220337D01*
X62867038Y-73220339D01*
X63053864Y-73270399D01*
X63147280Y-73295430D01*
X63251882Y-73309201D01*
X63434919Y-73333299D01*
X63434931Y-73333299D01*
X63434933Y-73333300D01*
X63434935Y-73333300D01*
X63725065Y-73333300D01*
X63725067Y-73333300D01*
X63725069Y-73333299D01*
X63725080Y-73333299D01*
X63854619Y-73316244D01*
X64012720Y-73295430D01*
X64012724Y-73295429D01*
X64292961Y-73220339D01*
X64292961Y-73220338D01*
X64292968Y-73220337D01*
X64561018Y-73109308D01*
X64812282Y-72964240D01*
X65042461Y-72787618D01*
X65247618Y-72582461D01*
X65424240Y-72352282D01*
X65569308Y-72101018D01*
X65680337Y-71832968D01*
X65692785Y-71786514D01*
X65755429Y-71552724D01*
X65755429Y-71552723D01*
X65755430Y-71552720D01*
X65777712Y-71383472D01*
X65793299Y-71265080D01*
X65793300Y-71265064D01*
X65793300Y-70974935D01*
X65793299Y-70974919D01*
X65757848Y-70705649D01*
X65755430Y-70687280D01*
X65744462Y-70646346D01*
X65680339Y-70407038D01*
X65680337Y-70407032D01*
X65569308Y-70138982D01*
X65424240Y-69887718D01*
X65247618Y-69657539D01*
X65042461Y-69452382D01*
X65041517Y-69451658D01*
X64851874Y-69306140D01*
X64812282Y-69275760D01*
X64606945Y-69157208D01*
X64561022Y-69130694D01*
X64561020Y-69130693D01*
X64561018Y-69130692D01*
X64292968Y-69019663D01*
X64292961Y-69019660D01*
X64012722Y-68944570D01*
X63725080Y-68906700D01*
X63725067Y-68906700D01*
X63434933Y-68906700D01*
X63434932Y-68906700D01*
X63147279Y-68944570D01*
X63104356Y-68956071D01*
X63005852Y-68962526D01*
X62912375Y-68930794D01*
X62859979Y-68890589D01*
X56628238Y-62658848D01*
X56610006Y-62631563D01*
X56588315Y-62606940D01*
X56582823Y-62590881D01*
X56573394Y-62576769D01*
X56566992Y-62544583D01*
X56556375Y-62513535D01*
X56557447Y-62496596D01*
X56554136Y-62479950D01*
X56560538Y-62447763D01*
X56562611Y-62415016D01*
X56569395Y-62403235D01*
X56573394Y-62383131D01*
X56606073Y-62326383D01*
X56616305Y-62312985D01*
X56682782Y-62246509D01*
X56798729Y-62075197D01*
X56880160Y-61885037D01*
X56924132Y-61682903D01*
X56926900Y-61636436D01*
X56926900Y-61435320D01*
X56946158Y-61338501D01*
X57001002Y-61256422D01*
X57083081Y-61201578D01*
X57179900Y-61182320D01*
X57276719Y-61201578D01*
X57358798Y-61256422D01*
X57413642Y-61338501D01*
X57424280Y-61369840D01*
X57459159Y-61500014D01*
X57543255Y-61703041D01*
X57543255Y-61703042D01*
X57653133Y-61893354D01*
X57653141Y-61893366D01*
X57698416Y-61952370D01*
X57698417Y-61952371D01*
X58643600Y-61007189D01*
X58643600Y-61013504D01*
X58671295Y-61116865D01*
X58724799Y-61209536D01*
X58800464Y-61285201D01*
X58893135Y-61338705D01*
X58996496Y-61366400D01*
X59002810Y-61366400D01*
X58057627Y-62311582D01*
X58116643Y-62356865D01*
X58116645Y-62356866D01*
X58306957Y-62466744D01*
X58509990Y-62550842D01*
X58722246Y-62607715D01*
X58940109Y-62636399D01*
X58940124Y-62636400D01*
X59159876Y-62636400D01*
X59159890Y-62636399D01*
X59377751Y-62607715D01*
X59377755Y-62607715D01*
X59590009Y-62550842D01*
X59793041Y-62466744D01*
X59793042Y-62466744D01*
X59983353Y-62356867D01*
X60042371Y-62311581D01*
X59097190Y-61366400D01*
X59103504Y-61366400D01*
X59206865Y-61338705D01*
X59299536Y-61285201D01*
X59375201Y-61209536D01*
X59428705Y-61116865D01*
X59456400Y-61013504D01*
X59456400Y-61007189D01*
X60401581Y-61952370D01*
X60446867Y-61893353D01*
X60556744Y-61703042D01*
X60556744Y-61703041D01*
X60640842Y-61500009D01*
X60697715Y-61287755D01*
X60697715Y-61287751D01*
X60725571Y-61076180D01*
X60726399Y-61069890D01*
X60726400Y-61069876D01*
X60726400Y-60850123D01*
X60726399Y-60850109D01*
X60697715Y-60632248D01*
X60697715Y-60632244D01*
X60640842Y-60419989D01*
X60622894Y-60376659D01*
X60622893Y-60376658D01*
X60622893Y-60376656D01*
X60584346Y-60283595D01*
X63103600Y-60283595D01*
X63103600Y-60706000D01*
X64459263Y-60706000D01*
X64454799Y-60710464D01*
X64401295Y-60803135D01*
X64373600Y-60906496D01*
X64373600Y-61013504D01*
X64401295Y-61116865D01*
X64454799Y-61209536D01*
X64459263Y-61214000D01*
X63103601Y-61214000D01*
X63103601Y-61636388D01*
X63106366Y-61682839D01*
X63106367Y-61682845D01*
X63150318Y-61884885D01*
X63231709Y-62074953D01*
X63347606Y-62246190D01*
X63493809Y-62392393D01*
X63665046Y-62508290D01*
X63855114Y-62589681D01*
X64057149Y-62633631D01*
X64057163Y-62633633D01*
X64103600Y-62636399D01*
X64526000Y-62636399D01*
X64526000Y-61280737D01*
X64530464Y-61285201D01*
X64623135Y-61338705D01*
X64726496Y-61366400D01*
X64833504Y-61366400D01*
X64936865Y-61338705D01*
X65029536Y-61285201D01*
X65034000Y-61280737D01*
X65034000Y-62636399D01*
X65456388Y-62636399D01*
X65456388Y-62636398D01*
X65502839Y-62633633D01*
X65502845Y-62633632D01*
X65704885Y-62589681D01*
X65894953Y-62508290D01*
X66066190Y-62392393D01*
X66212393Y-62246190D01*
X66328290Y-62074953D01*
X66409681Y-61884885D01*
X66453631Y-61682850D01*
X66453633Y-61682836D01*
X66456399Y-61636404D01*
X66456399Y-61435387D01*
X66475657Y-61338568D01*
X66530500Y-61256489D01*
X66612579Y-61201645D01*
X66709398Y-61182386D01*
X66806217Y-61201644D01*
X66888296Y-61256487D01*
X66943140Y-61338566D01*
X66953778Y-61369902D01*
X66988686Y-61500178D01*
X67051610Y-61652090D01*
X67072810Y-61703272D01*
X67072812Y-61703276D01*
X67182711Y-61893625D01*
X67182717Y-61893635D01*
X67227787Y-61952371D01*
X67316534Y-62068028D01*
X67438598Y-62190092D01*
X67493442Y-62272171D01*
X67512700Y-62368990D01*
X67512700Y-66014880D01*
X67512700Y-66225120D01*
X67524749Y-66285692D01*
X67553716Y-66431319D01*
X67634172Y-66625558D01*
X67750972Y-66800362D01*
X69551888Y-68601278D01*
X69606732Y-68683357D01*
X69625990Y-68780176D01*
X69606732Y-68876995D01*
X69551888Y-68959074D01*
X69469809Y-69013918D01*
X69372990Y-69033176D01*
X69301068Y-69021302D01*
X69300807Y-69022280D01*
X69012624Y-68945062D01*
X68725048Y-68907200D01*
X68434951Y-68907200D01*
X68147377Y-68945062D01*
X68147373Y-68945062D01*
X67867203Y-69020133D01*
X67867184Y-69020140D01*
X67599211Y-69131138D01*
X67599200Y-69131143D01*
X67348001Y-69276172D01*
X67347995Y-69276176D01*
X67205062Y-69385851D01*
X68336511Y-70517301D01*
X68272110Y-70543978D01*
X68165649Y-70615112D01*
X68075112Y-70705649D01*
X68003978Y-70812110D01*
X67977301Y-70876512D01*
X66845851Y-69745062D01*
X66736176Y-69887995D01*
X66736172Y-69888001D01*
X66591143Y-70139200D01*
X66591138Y-70139211D01*
X66480140Y-70407184D01*
X66480133Y-70407203D01*
X66405062Y-70687373D01*
X66405062Y-70687377D01*
X66367200Y-70974951D01*
X66367200Y-71265048D01*
X66405062Y-71552622D01*
X66405062Y-71552626D01*
X66480133Y-71832796D01*
X66480140Y-71832815D01*
X66591138Y-72100788D01*
X66591146Y-72100804D01*
X66736176Y-72352004D01*
X66845851Y-72494935D01*
X67977300Y-71363486D01*
X68003978Y-71427890D01*
X68075112Y-71534351D01*
X68165649Y-71624888D01*
X68272110Y-71696022D01*
X68336511Y-71722698D01*
X67205062Y-72854147D01*
X67347995Y-72963823D01*
X67599195Y-73108853D01*
X67599211Y-73108861D01*
X67867184Y-73219859D01*
X67867203Y-73219866D01*
X68147375Y-73294937D01*
X68434951Y-73332799D01*
X68434966Y-73332800D01*
X68725034Y-73332800D01*
X68725048Y-73332799D01*
X69012622Y-73294937D01*
X69012626Y-73294937D01*
X69292796Y-73219866D01*
X69292815Y-73219859D01*
X69560788Y-73108861D01*
X69560792Y-73108859D01*
X69812011Y-72963818D01*
X69954935Y-72854147D01*
X69954936Y-72854146D01*
X68823488Y-71722698D01*
X68887890Y-71696022D01*
X68994351Y-71624888D01*
X69084888Y-71534351D01*
X69156022Y-71427890D01*
X69182698Y-71363488D01*
X70314146Y-72494936D01*
X70314147Y-72494935D01*
X70423818Y-72352011D01*
X70568859Y-72100792D01*
X70568861Y-72100788D01*
X70679859Y-71832815D01*
X70679866Y-71832796D01*
X70754937Y-71552626D01*
X70754937Y-71552622D01*
X70792799Y-71265048D01*
X70792800Y-71265034D01*
X70792800Y-70974965D01*
X70792799Y-70974951D01*
X70754937Y-70687377D01*
X70754937Y-70687373D01*
X70677720Y-70399193D01*
X70679004Y-70398848D01*
X70674870Y-70367465D01*
X70666823Y-70327009D01*
X70668457Y-70318791D01*
X70667363Y-70310484D01*
X70678033Y-70270647D01*
X70686081Y-70230190D01*
X70690737Y-70223221D01*
X70692905Y-70215129D01*
X70718008Y-70182407D01*
X70740925Y-70148111D01*
X70747891Y-70143455D01*
X70752992Y-70136808D01*
X70788705Y-70116184D01*
X70823004Y-70093267D01*
X70831223Y-70091632D01*
X70838478Y-70087443D01*
X70879366Y-70082056D01*
X70919823Y-70074009D01*
X70928040Y-70075643D01*
X70936348Y-70074549D01*
X70976184Y-70085219D01*
X71016642Y-70093267D01*
X71023610Y-70097923D01*
X71031703Y-70100091D01*
X71098721Y-70148111D01*
X71350589Y-70399979D01*
X71405433Y-70482058D01*
X71424691Y-70578877D01*
X71416071Y-70644356D01*
X71404570Y-70687279D01*
X71366700Y-70974932D01*
X71366700Y-71265080D01*
X71404570Y-71552721D01*
X71404570Y-71552724D01*
X71479660Y-71832961D01*
X71479663Y-71832968D01*
X71590692Y-72101018D01*
X71590693Y-72101019D01*
X71590694Y-72101022D01*
X71616826Y-72146284D01*
X71735760Y-72352282D01*
X71912382Y-72582461D01*
X72117539Y-72787618D01*
X72347718Y-72964240D01*
X72598982Y-73109308D01*
X72867032Y-73220337D01*
X72867035Y-73220337D01*
X72867038Y-73220339D01*
X73053864Y-73270399D01*
X73147280Y-73295430D01*
X73251882Y-73309201D01*
X73434919Y-73333299D01*
X73434931Y-73333299D01*
X73434933Y-73333300D01*
X73434935Y-73333300D01*
X73725065Y-73333300D01*
X73725067Y-73333300D01*
X73725069Y-73333299D01*
X73725080Y-73333299D01*
X73908118Y-73309201D01*
X74012720Y-73295430D01*
X74055638Y-73283929D01*
X74154140Y-73277472D01*
X74247618Y-73309201D01*
X74300020Y-73349410D01*
X75439637Y-74489027D01*
X75614441Y-74605827D01*
X75614444Y-74605829D01*
X75808680Y-74686284D01*
X76014880Y-74727300D01*
X76014884Y-74727300D01*
X99205116Y-74727300D01*
X99205120Y-74727300D01*
X99411320Y-74686284D01*
X99605556Y-74605829D01*
X99780364Y-74489026D01*
X102628387Y-71641001D01*
X102710466Y-71586158D01*
X102807285Y-71566900D01*
X102979908Y-71566900D01*
X102979910Y-71566900D01*
X102979912Y-71566899D01*
X102979922Y-71566899D01*
X103094123Y-71551863D01*
X103197849Y-71538208D01*
X103410178Y-71481314D01*
X103613265Y-71397193D01*
X103613272Y-71397189D01*
X103613276Y-71397187D01*
X103672673Y-71362893D01*
X103803635Y-71287283D01*
X103978029Y-71153465D01*
X104133465Y-70998029D01*
X104267283Y-70823635D01*
X104342893Y-70692673D01*
X104377187Y-70633276D01*
X104377189Y-70633272D01*
X104377189Y-70633271D01*
X104377193Y-70633265D01*
X104461314Y-70430178D01*
X104518208Y-70217849D01*
X104533711Y-70100091D01*
X104546899Y-69999922D01*
X104546900Y-69999907D01*
X104546900Y-69780092D01*
X104546899Y-69780077D01*
X104518208Y-69562154D01*
X104518208Y-69562151D01*
X104461314Y-69349822D01*
X104377193Y-69146735D01*
X104377190Y-69146730D01*
X104377189Y-69146727D01*
X104377187Y-69146723D01*
X104267288Y-68956374D01*
X104267283Y-68956365D01*
X104133465Y-68781971D01*
X104079592Y-68728098D01*
X104024748Y-68646019D01*
X104005490Y-68549200D01*
X104024748Y-68452381D01*
X104079592Y-68370302D01*
X104096581Y-68353313D01*
X104133465Y-68316429D01*
X104267283Y-68142035D01*
X104342893Y-68011073D01*
X104377187Y-67951676D01*
X104377189Y-67951672D01*
X104377189Y-67951671D01*
X104377193Y-67951665D01*
X104461314Y-67748578D01*
X104518208Y-67536249D01*
X104543594Y-67343423D01*
X104546899Y-67318322D01*
X104546900Y-67318307D01*
X104546900Y-66285692D01*
X104546899Y-66285677D01*
X104518208Y-66067754D01*
X104518208Y-66067751D01*
X104461314Y-65855422D01*
X104377193Y-65652335D01*
X104377190Y-65652330D01*
X104377189Y-65652327D01*
X104377187Y-65652323D01*
X104267288Y-65461974D01*
X104267283Y-65461965D01*
X104133465Y-65287571D01*
X103978029Y-65132135D01*
X103954125Y-65113793D01*
X103916732Y-65085100D01*
X103803635Y-64998317D01*
X103796080Y-64993955D01*
X103613276Y-64888412D01*
X103613272Y-64888410D01*
X103410178Y-64804286D01*
X103197853Y-64747393D01*
X103197845Y-64747391D01*
X102979922Y-64718700D01*
X102979910Y-64718700D01*
X102760090Y-64718700D01*
X102760077Y-64718700D01*
X102542154Y-64747391D01*
X102542146Y-64747393D01*
X102329821Y-64804286D01*
X102126727Y-64888410D01*
X102126723Y-64888412D01*
X101936374Y-64998311D01*
X101936361Y-64998320D01*
X101755400Y-65137177D01*
X101753971Y-65135315D01*
X101681240Y-65177273D01*
X101583364Y-65190123D01*
X101488021Y-65164541D01*
X101445436Y-65136086D01*
X101444600Y-65137177D01*
X101376732Y-65085100D01*
X101263635Y-64998317D01*
X101256080Y-64993955D01*
X101073276Y-64888412D01*
X101073272Y-64888410D01*
X100870178Y-64804286D01*
X100657853Y-64747393D01*
X100657845Y-64747391D01*
X100439922Y-64718700D01*
X100439910Y-64718700D01*
X100220090Y-64718700D01*
X100220077Y-64718700D01*
X100002154Y-64747391D01*
X100002146Y-64747393D01*
X99789821Y-64804286D01*
X99586727Y-64888410D01*
X99586723Y-64888412D01*
X99396374Y-64998311D01*
X99396361Y-64998320D01*
X99215400Y-65137177D01*
X99213971Y-65135315D01*
X99141240Y-65177273D01*
X99043364Y-65190123D01*
X98948021Y-65164541D01*
X98905436Y-65136086D01*
X98904600Y-65137177D01*
X98836732Y-65085100D01*
X98723635Y-64998317D01*
X98716080Y-64993955D01*
X98533276Y-64888412D01*
X98533272Y-64888410D01*
X98330178Y-64804286D01*
X98117853Y-64747393D01*
X98117845Y-64747391D01*
X97899922Y-64718700D01*
X97899910Y-64718700D01*
X97680090Y-64718700D01*
X97680077Y-64718700D01*
X97462154Y-64747391D01*
X97462146Y-64747393D01*
X97249821Y-64804286D01*
X97046727Y-64888410D01*
X97046723Y-64888412D01*
X96849192Y-65002458D01*
X96847917Y-65000251D01*
X96771211Y-65031930D01*
X96672496Y-65031827D01*
X96581334Y-64993955D01*
X96561612Y-64979312D01*
X96457196Y-64893620D01*
X96272476Y-64794886D01*
X96272470Y-64794884D01*
X96072047Y-64734086D01*
X96072045Y-64734085D01*
X96037330Y-64730666D01*
X95915838Y-64718700D01*
X94584162Y-64718700D01*
X94480025Y-64728956D01*
X94427954Y-64734085D01*
X94427952Y-64734086D01*
X94227529Y-64794884D01*
X94227526Y-64794885D01*
X94227524Y-64794886D01*
X94042804Y-64893620D01*
X94042802Y-64893620D01*
X94042799Y-64893623D01*
X93880895Y-65026494D01*
X93880894Y-65026495D01*
X93748023Y-65188399D01*
X93748020Y-65188402D01*
X93748020Y-65188404D01*
X93649286Y-65373124D01*
X93649285Y-65373126D01*
X93649284Y-65373129D01*
X93606205Y-65515142D01*
X93600289Y-65526208D01*
X93597841Y-65538519D01*
X93577188Y-65569426D01*
X93559670Y-65602202D01*
X93549969Y-65610162D01*
X93542997Y-65620598D01*
X93512090Y-65641249D01*
X93483362Y-65664826D01*
X93471354Y-65668468D01*
X93460918Y-65675442D01*
X93424461Y-65682693D01*
X93388897Y-65693482D01*
X93364099Y-65694700D01*
X93102990Y-65694700D01*
X93006171Y-65675442D01*
X92924092Y-65620598D01*
X92802028Y-65498534D01*
X92754365Y-65461961D01*
X92627635Y-65364717D01*
X92627625Y-65364711D01*
X92437276Y-65254812D01*
X92437272Y-65254810D01*
X92234178Y-65170686D01*
X92021853Y-65113793D01*
X92021845Y-65113791D01*
X91803922Y-65085100D01*
X91803910Y-65085100D01*
X91584090Y-65085100D01*
X91584077Y-65085100D01*
X91366154Y-65113791D01*
X91366146Y-65113793D01*
X91153821Y-65170686D01*
X90950727Y-65254810D01*
X90950723Y-65254812D01*
X90760374Y-65364711D01*
X90760361Y-65364720D01*
X90585971Y-65498534D01*
X90430534Y-65653971D01*
X90296720Y-65828361D01*
X90296711Y-65828374D01*
X90186812Y-66018723D01*
X90186810Y-66018727D01*
X90102686Y-66221821D01*
X90045793Y-66434146D01*
X90045791Y-66434154D01*
X90017100Y-66652077D01*
X90017100Y-66871922D01*
X90045791Y-67089845D01*
X90045793Y-67089853D01*
X90102686Y-67302178D01*
X90186810Y-67505272D01*
X90186812Y-67505276D01*
X90296711Y-67695625D01*
X90296717Y-67695635D01*
X90337342Y-67748578D01*
X90411543Y-67845279D01*
X90430535Y-67870029D01*
X90585971Y-68025465D01*
X90760365Y-68159283D01*
X90760374Y-68159288D01*
X90950723Y-68269187D01*
X90950727Y-68269189D01*
X90950730Y-68269190D01*
X90950735Y-68269193D01*
X91153822Y-68353314D01*
X91366151Y-68410208D01*
X91443944Y-68420449D01*
X91584077Y-68438899D01*
X91584087Y-68438899D01*
X91584090Y-68438900D01*
X91584092Y-68438900D01*
X91803908Y-68438900D01*
X91803910Y-68438900D01*
X91803912Y-68438899D01*
X91803922Y-68438899D01*
X91918123Y-68423863D01*
X92021849Y-68410208D01*
X92234178Y-68353314D01*
X92437265Y-68269193D01*
X92437272Y-68269189D01*
X92437276Y-68269187D01*
X92503642Y-68230870D01*
X92627635Y-68159283D01*
X92802029Y-68025465D01*
X92924092Y-67903402D01*
X93006171Y-67848558D01*
X93102990Y-67829300D01*
X93340844Y-67829300D01*
X93437663Y-67848558D01*
X93519742Y-67903402D01*
X93574586Y-67985481D01*
X93584637Y-68018621D01*
X93584877Y-68018549D01*
X93588484Y-68030442D01*
X93588485Y-68030443D01*
X93649286Y-68230876D01*
X93748020Y-68415596D01*
X93748022Y-68415599D01*
X93748023Y-68415600D01*
X93819846Y-68503117D01*
X93880895Y-68577505D01*
X94042804Y-68710380D01*
X94227524Y-68809114D01*
X94427957Y-68869915D01*
X94584162Y-68885300D01*
X94584171Y-68885300D01*
X95915829Y-68885300D01*
X95915838Y-68885300D01*
X96072043Y-68869915D01*
X96272476Y-68809114D01*
X96457196Y-68710380D01*
X96561614Y-68624686D01*
X96648670Y-68578153D01*
X96746910Y-68568477D01*
X96841375Y-68597132D01*
X96849073Y-68601747D01*
X96849192Y-68601542D01*
X97046723Y-68715587D01*
X97046727Y-68715589D01*
X97046730Y-68715590D01*
X97046735Y-68715593D01*
X97249822Y-68799714D01*
X97421349Y-68845675D01*
X97462143Y-68856606D01*
X97462144Y-68856606D01*
X97462151Y-68856608D01*
X97612542Y-68876407D01*
X97706016Y-68908138D01*
X97780234Y-68973225D01*
X97823895Y-69061761D01*
X97830352Y-69160265D01*
X97798620Y-69253742D01*
X97758414Y-69306140D01*
X97085958Y-69978598D01*
X97003879Y-70033441D01*
X96907060Y-70052700D01*
X81035896Y-70052700D01*
X80939077Y-70033442D01*
X80856998Y-69978598D01*
X80802154Y-69896519D01*
X80784114Y-69824498D01*
X80777915Y-69761558D01*
X80746361Y-69657539D01*
X80717114Y-69561124D01*
X80618379Y-69376404D01*
X80485504Y-69214496D01*
X80323596Y-69081621D01*
X80323592Y-69081618D01*
X80323591Y-69081618D01*
X80138876Y-68982886D01*
X79938446Y-68922086D01*
X79938444Y-68922085D01*
X79907201Y-68919008D01*
X79782237Y-68906700D01*
X79782229Y-68906700D01*
X77377766Y-68906700D01*
X77377756Y-68906701D01*
X77221558Y-68922084D01*
X77021123Y-68982886D01*
X77021122Y-68982886D01*
X76836408Y-69081618D01*
X76836404Y-69081620D01*
X76836404Y-69081621D01*
X76674496Y-69214496D01*
X76549212Y-69367155D01*
X76541618Y-69376408D01*
X76442886Y-69561122D01*
X76442886Y-69561123D01*
X76382086Y-69761553D01*
X76382085Y-69761555D01*
X76376956Y-69813626D01*
X76366700Y-69917763D01*
X76366700Y-69917764D01*
X76366700Y-69917769D01*
X76366700Y-71786514D01*
X76347442Y-71883333D01*
X76292598Y-71965412D01*
X76210519Y-72020256D01*
X76113700Y-72039514D01*
X76016881Y-72020256D01*
X75934802Y-71965412D01*
X75809410Y-71840020D01*
X75754566Y-71757941D01*
X75735308Y-71661122D01*
X75743930Y-71595636D01*
X75751630Y-71566900D01*
X75755430Y-71552720D01*
X75771864Y-71427890D01*
X75793299Y-71265080D01*
X75793300Y-71265064D01*
X75793300Y-70974935D01*
X75793299Y-70974919D01*
X75757848Y-70705649D01*
X75755430Y-70687280D01*
X75744462Y-70646346D01*
X75680339Y-70407038D01*
X75680337Y-70407032D01*
X75569308Y-70138982D01*
X75424240Y-69887718D01*
X75247618Y-69657539D01*
X75042461Y-69452382D01*
X75041517Y-69451658D01*
X74851874Y-69306140D01*
X74812282Y-69275760D01*
X74606945Y-69157208D01*
X74561022Y-69130694D01*
X74561020Y-69130693D01*
X74561018Y-69130692D01*
X74292968Y-69019663D01*
X74292961Y-69019660D01*
X74012722Y-68944570D01*
X73725080Y-68906700D01*
X73725067Y-68906700D01*
X73434933Y-68906700D01*
X73434932Y-68906700D01*
X73147279Y-68944570D01*
X73104356Y-68956071D01*
X73005852Y-68962526D01*
X72912375Y-68930794D01*
X72859979Y-68890589D01*
X69721402Y-65752012D01*
X69666558Y-65669933D01*
X69647300Y-65573114D01*
X69647300Y-62368990D01*
X69666558Y-62272171D01*
X69721402Y-62190092D01*
X69745124Y-62166370D01*
X69843465Y-62068029D01*
X69977283Y-61893635D01*
X70087193Y-61703265D01*
X70171314Y-61500178D01*
X70228208Y-61287849D01*
X70243197Y-61173999D01*
X70256899Y-61069922D01*
X70256900Y-61069907D01*
X70256900Y-60850092D01*
X70256899Y-60850077D01*
X70234021Y-60676306D01*
X70228208Y-60632151D01*
X70171314Y-60419822D01*
X70087193Y-60216735D01*
X70087190Y-60216730D01*
X70087189Y-60216727D01*
X70087187Y-60216723D01*
X69993378Y-60054242D01*
X69993377Y-60054241D01*
X69977283Y-60026365D01*
X69843465Y-59851971D01*
X69688029Y-59696535D01*
X69513635Y-59562717D01*
X69507327Y-59559075D01*
X69323276Y-59452812D01*
X69323272Y-59452810D01*
X69222980Y-59411268D01*
X69120178Y-59368686D01*
X69052069Y-59350436D01*
X68907853Y-59311793D01*
X68907845Y-59311791D01*
X68689922Y-59283100D01*
X68689910Y-59283100D01*
X68470090Y-59283100D01*
X68470077Y-59283100D01*
X68252154Y-59311791D01*
X68252146Y-59311793D01*
X68039821Y-59368686D01*
X67836727Y-59452810D01*
X67836723Y-59452812D01*
X67646374Y-59562711D01*
X67646361Y-59562720D01*
X67471971Y-59696534D01*
X67316534Y-59851971D01*
X67182720Y-60026361D01*
X67182711Y-60026374D01*
X67072812Y-60216723D01*
X67072810Y-60216727D01*
X66988686Y-60419821D01*
X66953778Y-60550099D01*
X66910116Y-60638634D01*
X66835897Y-60703721D01*
X66742420Y-60735452D01*
X66643916Y-60728995D01*
X66555381Y-60685333D01*
X66490294Y-60611114D01*
X66458563Y-60517637D01*
X66456399Y-60484616D01*
X66456399Y-60283612D01*
X66456398Y-60283610D01*
X66453633Y-60237160D01*
X66453632Y-60237154D01*
X66409681Y-60035114D01*
X66328290Y-59845046D01*
X66212393Y-59673809D01*
X66066190Y-59527606D01*
X65894953Y-59411709D01*
X65704885Y-59330318D01*
X65502850Y-59286368D01*
X65502836Y-59286366D01*
X65456404Y-59283600D01*
X65034000Y-59283600D01*
X65034000Y-60639263D01*
X65029536Y-60634799D01*
X64936865Y-60581295D01*
X64833504Y-60553600D01*
X64726496Y-60553600D01*
X64623135Y-60581295D01*
X64530464Y-60634799D01*
X64526000Y-60639263D01*
X64526000Y-59283600D01*
X64103612Y-59283600D01*
X64103610Y-59283601D01*
X64057160Y-59286366D01*
X64057154Y-59286367D01*
X63855114Y-59330318D01*
X63665046Y-59411709D01*
X63493809Y-59527606D01*
X63347606Y-59673809D01*
X63231709Y-59845046D01*
X63150318Y-60035114D01*
X63106368Y-60237149D01*
X63106366Y-60237163D01*
X63103600Y-60283595D01*
X60584346Y-60283595D01*
X60556747Y-60216963D01*
X60556743Y-60216955D01*
X60446866Y-60026645D01*
X60446865Y-60026643D01*
X60401581Y-59967627D01*
X59456400Y-60912808D01*
X59456400Y-60906496D01*
X59428705Y-60803135D01*
X59375201Y-60710464D01*
X59299536Y-60634799D01*
X59206865Y-60581295D01*
X59103504Y-60553600D01*
X59097190Y-60553600D01*
X60042371Y-59608417D01*
X60042370Y-59608416D01*
X59983366Y-59563141D01*
X59983354Y-59563133D01*
X59793042Y-59453255D01*
X59590009Y-59369157D01*
X59377753Y-59312284D01*
X59159890Y-59283600D01*
X59046585Y-59283600D01*
X58949766Y-59264342D01*
X58867687Y-59209498D01*
X58812843Y-59127419D01*
X58793585Y-59030600D01*
X58812843Y-58933781D01*
X58867684Y-58851705D01*
X60697988Y-57021402D01*
X60780067Y-56966558D01*
X60876886Y-56947300D01*
X71924090Y-56947300D01*
X72020909Y-56966558D01*
X72102988Y-57021402D01*
X72157832Y-57103481D01*
X72177090Y-57200300D01*
X72176548Y-57216850D01*
X72169627Y-57322416D01*
X73114811Y-58267600D01*
X73108496Y-58267600D01*
X73005135Y-58295295D01*
X72912464Y-58348799D01*
X72836799Y-58424464D01*
X72783295Y-58517135D01*
X72755600Y-58620496D01*
X72755600Y-58626811D01*
X71810416Y-57681627D01*
X71765137Y-57740640D01*
X71765132Y-57740647D01*
X71655255Y-57930957D01*
X71655255Y-57930958D01*
X71571157Y-58133990D01*
X71514284Y-58346244D01*
X71514284Y-58346248D01*
X71485600Y-58564109D01*
X71485600Y-58783890D01*
X71514284Y-59001751D01*
X71514284Y-59001755D01*
X71571157Y-59214009D01*
X71655255Y-59417041D01*
X71655255Y-59417042D01*
X71765133Y-59607354D01*
X71765141Y-59607366D01*
X71810416Y-59666370D01*
X71810417Y-59666371D01*
X72755600Y-58721187D01*
X72755600Y-58727504D01*
X72783295Y-58830865D01*
X72836799Y-58923536D01*
X72912464Y-58999201D01*
X73005135Y-59052705D01*
X73108496Y-59080400D01*
X73114810Y-59080400D01*
X72169627Y-60025582D01*
X72228643Y-60070865D01*
X72228645Y-60070866D01*
X72418957Y-60180744D01*
X72621990Y-60264842D01*
X72834246Y-60321715D01*
X73052109Y-60350399D01*
X73052124Y-60350400D01*
X73271876Y-60350400D01*
X73271890Y-60350399D01*
X73489751Y-60321715D01*
X73489755Y-60321715D01*
X73702009Y-60264842D01*
X73905041Y-60180744D01*
X73905042Y-60180744D01*
X74095353Y-60070867D01*
X74154371Y-60025581D01*
X73209190Y-59080400D01*
X73215504Y-59080400D01*
X73318865Y-59052705D01*
X73411536Y-58999201D01*
X73487201Y-58923536D01*
X73540705Y-58830865D01*
X73568400Y-58727504D01*
X73568400Y-58721189D01*
X74513581Y-59666370D01*
X74558867Y-59607353D01*
X74668744Y-59417042D01*
X74668744Y-59417041D01*
X74752840Y-59214014D01*
X74787720Y-59083840D01*
X74831381Y-58995304D01*
X74905599Y-58930216D01*
X74999076Y-58898485D01*
X75097580Y-58904940D01*
X75186116Y-58948601D01*
X75251204Y-59022819D01*
X75282935Y-59116296D01*
X75285100Y-59149320D01*
X75285100Y-59350447D01*
X75286187Y-59368686D01*
X75287868Y-59396903D01*
X75300127Y-59453255D01*
X75331840Y-59599038D01*
X75373591Y-59696535D01*
X75413271Y-59789197D01*
X75529218Y-59960509D01*
X75675491Y-60106782D01*
X75846803Y-60222729D01*
X76036963Y-60304160D01*
X76239097Y-60348132D01*
X76285564Y-60350900D01*
X76285568Y-60350900D01*
X77638432Y-60350900D01*
X77638436Y-60350900D01*
X77684903Y-60348132D01*
X77887037Y-60304160D01*
X78077197Y-60222729D01*
X78248509Y-60106782D01*
X78394782Y-59960509D01*
X78461702Y-59861635D01*
X78467890Y-59852492D01*
X78538106Y-59783106D01*
X78629531Y-59745872D01*
X78677412Y-59741300D01*
X79847715Y-59741300D01*
X79944534Y-59760558D01*
X80026613Y-59815402D01*
X80978811Y-60767600D01*
X80972496Y-60767600D01*
X80869135Y-60795295D01*
X80776464Y-60848799D01*
X80700799Y-60924464D01*
X80647295Y-61017135D01*
X80619600Y-61120496D01*
X80619600Y-61126811D01*
X79740089Y-60247300D01*
X79625291Y-60247300D01*
X79519255Y-60430957D01*
X79519255Y-60430958D01*
X79435157Y-60633990D01*
X79378284Y-60846244D01*
X79378284Y-60846248D01*
X79349600Y-61064109D01*
X79349600Y-61283890D01*
X79378284Y-61501751D01*
X79378284Y-61501755D01*
X79435157Y-61714009D01*
X79519255Y-61917041D01*
X79519255Y-61917042D01*
X79629133Y-62107354D01*
X79629141Y-62107366D01*
X79674416Y-62166370D01*
X79674417Y-62166371D01*
X80619600Y-61221187D01*
X80619600Y-61227504D01*
X80647295Y-61330865D01*
X80700799Y-61423536D01*
X80776464Y-61499201D01*
X80869135Y-61552705D01*
X80972496Y-61580400D01*
X80978810Y-61580400D01*
X80033627Y-62525582D01*
X80092643Y-62570865D01*
X80092645Y-62570866D01*
X80282957Y-62680744D01*
X80485990Y-62764842D01*
X80698246Y-62821715D01*
X80916109Y-62850399D01*
X80916124Y-62850400D01*
X81135876Y-62850400D01*
X81135890Y-62850399D01*
X81353751Y-62821715D01*
X81353755Y-62821715D01*
X81566009Y-62764842D01*
X81769041Y-62680744D01*
X81769042Y-62680744D01*
X81959353Y-62570867D01*
X82018371Y-62525581D01*
X81073190Y-61580400D01*
X81079504Y-61580400D01*
X81182865Y-61552705D01*
X81275536Y-61499201D01*
X81351201Y-61423536D01*
X81404705Y-61330865D01*
X81432400Y-61227504D01*
X81432400Y-61221189D01*
X82377581Y-62166370D01*
X82422867Y-62107353D01*
X82532744Y-61917042D01*
X82532744Y-61917041D01*
X82616842Y-61714009D01*
X82673715Y-61501755D01*
X82673715Y-61501751D01*
X82702399Y-61283890D01*
X82702400Y-61283876D01*
X82702400Y-61064123D01*
X82702399Y-61064109D01*
X82673715Y-60846248D01*
X82673715Y-60846244D01*
X82616842Y-60633990D01*
X82532744Y-60430958D01*
X82532744Y-60430957D01*
X82422866Y-60240645D01*
X82422859Y-60240635D01*
X82377582Y-60181627D01*
X81432400Y-61126809D01*
X81432400Y-61120496D01*
X81404705Y-61017135D01*
X81351201Y-60924464D01*
X81275536Y-60848799D01*
X81182865Y-60795295D01*
X81079504Y-60767600D01*
X81073187Y-60767600D01*
X82025386Y-59815402D01*
X82107465Y-59760558D01*
X82204284Y-59741300D01*
X82207114Y-59741300D01*
X82303933Y-59760558D01*
X82381962Y-59812695D01*
X82398727Y-59793580D01*
X82487263Y-59749920D01*
X82552741Y-59741300D01*
X89321703Y-59741300D01*
X89321707Y-59741300D01*
X89527907Y-59700284D01*
X89722143Y-59619829D01*
X89813066Y-59559075D01*
X89904267Y-59521299D01*
X90002983Y-59521298D01*
X90094184Y-59559075D01*
X90163987Y-59628877D01*
X90182776Y-59664027D01*
X90183148Y-59663844D01*
X90186812Y-59671276D01*
X90287139Y-59845046D01*
X90296717Y-59861635D01*
X90372586Y-59960509D01*
X90430534Y-60036028D01*
X90552598Y-60158092D01*
X90607442Y-60240171D01*
X90626700Y-60336990D01*
X90626700Y-60353010D01*
X90607442Y-60449829D01*
X90552598Y-60531908D01*
X90430534Y-60653971D01*
X90296720Y-60828361D01*
X90296711Y-60828374D01*
X90186812Y-61018723D01*
X90186810Y-61018727D01*
X90102686Y-61221821D01*
X90045793Y-61434146D01*
X90045791Y-61434154D01*
X90017100Y-61652077D01*
X90017100Y-61871922D01*
X90045791Y-62089845D01*
X90045793Y-62089853D01*
X90050486Y-62107366D01*
X90102686Y-62302178D01*
X90170388Y-62465627D01*
X90186810Y-62505272D01*
X90186812Y-62505276D01*
X90296711Y-62695625D01*
X90296717Y-62695635D01*
X90430535Y-62870029D01*
X90585971Y-63025465D01*
X90760365Y-63159283D01*
X90760374Y-63159288D01*
X90950723Y-63269187D01*
X90950727Y-63269189D01*
X90950730Y-63269190D01*
X90950735Y-63269193D01*
X91153822Y-63353314D01*
X91366151Y-63410208D01*
X91443944Y-63420449D01*
X91584077Y-63438899D01*
X91584087Y-63438899D01*
X91584090Y-63438900D01*
X91584092Y-63438900D01*
X91803908Y-63438900D01*
X91803910Y-63438900D01*
X91803912Y-63438899D01*
X91803922Y-63438899D01*
X91918123Y-63423863D01*
X92021849Y-63410208D01*
X92234178Y-63353314D01*
X92437265Y-63269193D01*
X92437272Y-63269189D01*
X92437276Y-63269187D01*
X92496673Y-63234893D01*
X92627635Y-63159283D01*
X92802029Y-63025465D01*
X92957465Y-62870029D01*
X93091283Y-62695635D01*
X93189464Y-62525581D01*
X93201187Y-62505276D01*
X93201189Y-62505272D01*
X93201189Y-62505271D01*
X93201193Y-62505265D01*
X93285314Y-62302178D01*
X93342208Y-62089849D01*
X93360307Y-61952370D01*
X93370899Y-61871922D01*
X93370900Y-61871907D01*
X93370900Y-61652092D01*
X93370899Y-61652077D01*
X93350901Y-61500179D01*
X93342208Y-61434151D01*
X93285314Y-61221822D01*
X93201193Y-61018735D01*
X93201190Y-61018730D01*
X93201189Y-61018727D01*
X93201187Y-61018723D01*
X93103818Y-60850077D01*
X93091283Y-60828365D01*
X92957465Y-60653971D01*
X92835402Y-60531908D01*
X92780558Y-60449829D01*
X92761300Y-60353010D01*
X92761300Y-60336990D01*
X92780558Y-60240171D01*
X92835402Y-60158092D01*
X92886712Y-60106782D01*
X92957465Y-60036029D01*
X93091283Y-59861635D01*
X93128487Y-59797194D01*
X93193570Y-59722981D01*
X93282105Y-59679319D01*
X93380609Y-59672862D01*
X93474087Y-59704592D01*
X93548306Y-59769679D01*
X93591968Y-59858214D01*
X93598424Y-59890668D01*
X93601791Y-59916245D01*
X93601793Y-59916253D01*
X93643222Y-60070865D01*
X93658686Y-60128578D01*
X93705105Y-60240645D01*
X93742810Y-60331672D01*
X93742812Y-60331676D01*
X93821105Y-60467282D01*
X93852717Y-60522035D01*
X93937215Y-60632154D01*
X93979999Y-60687912D01*
X93986535Y-60696429D01*
X94141971Y-60851865D01*
X94316365Y-60985683D01*
X94316374Y-60985688D01*
X94506723Y-61095587D01*
X94506727Y-61095589D01*
X94506730Y-61095590D01*
X94506735Y-61095593D01*
X94709822Y-61179714D01*
X94922151Y-61236608D01*
X94999944Y-61246849D01*
X95140077Y-61265299D01*
X95140087Y-61265299D01*
X95140090Y-61265300D01*
X95140092Y-61265300D01*
X95359908Y-61265300D01*
X95359910Y-61265300D01*
X95359912Y-61265299D01*
X95359922Y-61265299D01*
X95474123Y-61250263D01*
X95577849Y-61236608D01*
X95790178Y-61179714D01*
X95993265Y-61095593D01*
X95993272Y-61095589D01*
X95993276Y-61095587D01*
X96052673Y-61061293D01*
X96183635Y-60985683D01*
X96358029Y-60851865D01*
X96358028Y-60851865D01*
X96364600Y-60846823D01*
X96366036Y-60848695D01*
X96438662Y-60806759D01*
X96536532Y-60793869D01*
X96631886Y-60819413D01*
X96674555Y-60847923D01*
X96675400Y-60846823D01*
X96681971Y-60851865D01*
X96856365Y-60985683D01*
X96856374Y-60985688D01*
X97046723Y-61095587D01*
X97046727Y-61095589D01*
X97046730Y-61095590D01*
X97046735Y-61095593D01*
X97249822Y-61179714D01*
X97462151Y-61236608D01*
X97539944Y-61246849D01*
X97680077Y-61265299D01*
X97680087Y-61265299D01*
X97680090Y-61265300D01*
X97680092Y-61265300D01*
X97899908Y-61265300D01*
X97899910Y-61265300D01*
X97899912Y-61265299D01*
X97899922Y-61265299D01*
X98014123Y-61250263D01*
X98117849Y-61236608D01*
X98330178Y-61179714D01*
X98533265Y-61095593D01*
X98533272Y-61095589D01*
X98533276Y-61095587D01*
X98592673Y-61061293D01*
X98723635Y-60985683D01*
X98898029Y-60851865D01*
X98898028Y-60851865D01*
X98904600Y-60846823D01*
X98906036Y-60848695D01*
X98978662Y-60806759D01*
X99076532Y-60793869D01*
X99171886Y-60819413D01*
X99214555Y-60847923D01*
X99215400Y-60846823D01*
X99221971Y-60851865D01*
X99396365Y-60985683D01*
X99396374Y-60985688D01*
X99586723Y-61095587D01*
X99586727Y-61095589D01*
X99586730Y-61095590D01*
X99586735Y-61095593D01*
X99789822Y-61179714D01*
X100002151Y-61236608D01*
X100080431Y-61246913D01*
X100228303Y-61266382D01*
X100228083Y-61268047D01*
X100312444Y-61290644D01*
X100379463Y-61338665D01*
X101389625Y-62348827D01*
X101471053Y-62403235D01*
X101564432Y-62465629D01*
X101758668Y-62546084D01*
X101964868Y-62587100D01*
X101964872Y-62587100D01*
X108716630Y-62587100D01*
X108716634Y-62587100D01*
X108922834Y-62546084D01*
X109117070Y-62465629D01*
X109291878Y-62348826D01*
X113859026Y-57781678D01*
X113975829Y-57606870D01*
X114056284Y-57412634D01*
X114087850Y-57253940D01*
X114125624Y-57162744D01*
X114157085Y-57124408D01*
X114293465Y-56988029D01*
X114427283Y-56813635D01*
X114537193Y-56623265D01*
X114621314Y-56420178D01*
X114678208Y-56207849D01*
X114691863Y-56104123D01*
X114706899Y-55989922D01*
X114706900Y-55989907D01*
X114706900Y-55770092D01*
X114706899Y-55770077D01*
X114680305Y-55568080D01*
X114678208Y-55552151D01*
X114621314Y-55339822D01*
X114537193Y-55136735D01*
X114537190Y-55136730D01*
X114537189Y-55136727D01*
X114537187Y-55136723D01*
X114427446Y-54946647D01*
X114427283Y-54946365D01*
X114293465Y-54771971D01*
X114138029Y-54616535D01*
X114131828Y-54611777D01*
X114044647Y-54544880D01*
X113963635Y-54482717D01*
X113960263Y-54480770D01*
X113773276Y-54372812D01*
X113773272Y-54372810D01*
X113595790Y-54299295D01*
X113570178Y-54288686D01*
X113514314Y-54273717D01*
X113357853Y-54231793D01*
X113357845Y-54231791D01*
X113139922Y-54203100D01*
X113139910Y-54203100D01*
X112920090Y-54203100D01*
X112920077Y-54203100D01*
X112702154Y-54231791D01*
X112702146Y-54231793D01*
X112649828Y-54245812D01*
X112489822Y-54288686D01*
X112489817Y-54288687D01*
X112481823Y-54290830D01*
X112481183Y-54288443D01*
X112398563Y-54299295D01*
X112303219Y-54273717D01*
X112224921Y-54213599D01*
X112175589Y-54128093D01*
X112162734Y-54030218D01*
X112163778Y-54018512D01*
X112166400Y-53995243D01*
X112166400Y-53340000D01*
X110929942Y-53340000D01*
X110963381Y-53282081D01*
X110998000Y-53152880D01*
X110998000Y-53019120D01*
X110963381Y-52889919D01*
X110929942Y-52832000D01*
X112166400Y-52832000D01*
X112166400Y-52176754D01*
X112151034Y-52040391D01*
X112090539Y-51867505D01*
X112090539Y-51867504D01*
X111993093Y-51712420D01*
X111863579Y-51582906D01*
X111708494Y-51485460D01*
X111535608Y-51424965D01*
X111399245Y-51409600D01*
X110744000Y-51409600D01*
X110744000Y-52646058D01*
X110686081Y-52612619D01*
X110556880Y-52578000D01*
X110423120Y-52578000D01*
X110293919Y-52612619D01*
X110236000Y-52646058D01*
X110236000Y-51409600D01*
X109580755Y-51409600D01*
X109444391Y-51424965D01*
X109271505Y-51485460D01*
X109271504Y-51485460D01*
X109116420Y-51582906D01*
X108986906Y-51712420D01*
X108889460Y-51867504D01*
X108889460Y-51867505D01*
X108828965Y-52040391D01*
X108813600Y-52176754D01*
X108813600Y-52832000D01*
X110050058Y-52832000D01*
X110016619Y-52889919D01*
X109982000Y-53019120D01*
X109982000Y-53152880D01*
X110016619Y-53282081D01*
X110050058Y-53340000D01*
X108813600Y-53340000D01*
X108813600Y-53995245D01*
X108813599Y-53995245D01*
X108828965Y-54131608D01*
X108889460Y-54304494D01*
X108889460Y-54304495D01*
X108986906Y-54459579D01*
X109101593Y-54574266D01*
X109156437Y-54656345D01*
X109175695Y-54753164D01*
X109156437Y-54849983D01*
X109123417Y-54907175D01*
X109093143Y-54946630D01*
X109093133Y-54946645D01*
X108983255Y-55136957D01*
X108983255Y-55136958D01*
X108899157Y-55339990D01*
X108842284Y-55552244D01*
X108842284Y-55552248D01*
X108813600Y-55770109D01*
X108813600Y-55989890D01*
X108842284Y-56207751D01*
X108842284Y-56207755D01*
X108899157Y-56420009D01*
X108983255Y-56623041D01*
X108983255Y-56623042D01*
X109093133Y-56813354D01*
X109093141Y-56813366D01*
X109138416Y-56872370D01*
X109138417Y-56872371D01*
X109999309Y-56011478D01*
X110016619Y-56076081D01*
X110083498Y-56191920D01*
X110178080Y-56286502D01*
X110293919Y-56353381D01*
X110358519Y-56370690D01*
X109497627Y-57231582D01*
X109556643Y-57276865D01*
X109556645Y-57276866D01*
X109746957Y-57386744D01*
X109949990Y-57470842D01*
X110162246Y-57527715D01*
X110380109Y-57556399D01*
X110380124Y-57556400D01*
X110454726Y-57556400D01*
X110551545Y-57575658D01*
X110633624Y-57630502D01*
X110688468Y-57712581D01*
X110707726Y-57809400D01*
X110688468Y-57906219D01*
X110633624Y-57988298D01*
X108243526Y-60378398D01*
X108161447Y-60433241D01*
X108064628Y-60452500D01*
X104704235Y-60452500D01*
X104607416Y-60433242D01*
X104525337Y-60378398D01*
X104470493Y-60296319D01*
X104451235Y-60199500D01*
X104459856Y-60134017D01*
X104461312Y-60128582D01*
X104461314Y-60128578D01*
X104518208Y-59916249D01*
X104534358Y-59793580D01*
X104546899Y-59698322D01*
X104546900Y-59698307D01*
X104546900Y-58665692D01*
X104546899Y-58665677D01*
X104528449Y-58525544D01*
X104518208Y-58447751D01*
X104461314Y-58235422D01*
X104377193Y-58032335D01*
X104377190Y-58032330D01*
X104377189Y-58032327D01*
X104377187Y-58032323D01*
X104267288Y-57841974D01*
X104267285Y-57841969D01*
X104267283Y-57841965D01*
X104191313Y-57742960D01*
X104147655Y-57654429D01*
X104141198Y-57555925D01*
X104172929Y-57462448D01*
X104234295Y-57391140D01*
X104243882Y-57383493D01*
X104243893Y-57383487D01*
X104373487Y-57253893D01*
X104470994Y-57098710D01*
X104531526Y-56925721D01*
X104546900Y-56789272D01*
X104546900Y-54970728D01*
X104531526Y-54834279D01*
X104503827Y-54755120D01*
X104470995Y-54661292D01*
X104373488Y-54506108D01*
X104259069Y-54391689D01*
X104204225Y-54309610D01*
X104184967Y-54212791D01*
X104204225Y-54115972D01*
X104237247Y-54058777D01*
X104267283Y-54019635D01*
X104342893Y-53888673D01*
X104377187Y-53829276D01*
X104377189Y-53829272D01*
X104377189Y-53829271D01*
X104377193Y-53829265D01*
X104461314Y-53626178D01*
X104518208Y-53413849D01*
X104532965Y-53301755D01*
X104546899Y-53195922D01*
X104546900Y-53195907D01*
X104546900Y-52976092D01*
X104546899Y-52976077D01*
X104527930Y-52832000D01*
X104518208Y-52758151D01*
X104461314Y-52545822D01*
X104377193Y-52342735D01*
X104350300Y-52296155D01*
X104350299Y-52296152D01*
X104267288Y-52152374D01*
X104267283Y-52152365D01*
X104133465Y-51977971D01*
X103978029Y-51822535D01*
X103803635Y-51688717D01*
X103803625Y-51688711D01*
X103613276Y-51578812D01*
X103613272Y-51578810D01*
X103538776Y-51547953D01*
X103410178Y-51494686D01*
X103385771Y-51488146D01*
X103197853Y-51437793D01*
X103197845Y-51437791D01*
X102979922Y-51409100D01*
X102979910Y-51409100D01*
X102760090Y-51409100D01*
X102760077Y-51409100D01*
X102542154Y-51437791D01*
X102542146Y-51437793D01*
X102329821Y-51494686D01*
X102126727Y-51578810D01*
X102126723Y-51578812D01*
X101936374Y-51688711D01*
X101936361Y-51688720D01*
X101761971Y-51822534D01*
X101606534Y-51977971D01*
X101472720Y-52152361D01*
X101472711Y-52152374D01*
X101362812Y-52342723D01*
X101362810Y-52342727D01*
X101278686Y-52545821D01*
X101221793Y-52758146D01*
X101221791Y-52758154D01*
X101193100Y-52976077D01*
X101193100Y-53195922D01*
X101221273Y-53409907D01*
X101221792Y-53413849D01*
X101278686Y-53626178D01*
X101317300Y-53719402D01*
X101362810Y-53829272D01*
X101362812Y-53829276D01*
X101472711Y-54019625D01*
X101472717Y-54019635D01*
X101490857Y-54043276D01*
X101502749Y-54058773D01*
X101517385Y-54088451D01*
X101535774Y-54115972D01*
X101539029Y-54132341D01*
X101546411Y-54147308D01*
X101548575Y-54180332D01*
X101555032Y-54212791D01*
X101551776Y-54229158D01*
X101552868Y-54245812D01*
X101542230Y-54277148D01*
X101535774Y-54309610D01*
X101526501Y-54323487D01*
X101521137Y-54339290D01*
X101480930Y-54391689D01*
X101465951Y-54406668D01*
X101383872Y-54461512D01*
X101287053Y-54480770D01*
X101190234Y-54461512D01*
X101160552Y-54446874D01*
X101033042Y-54373255D01*
X100830009Y-54289157D01*
X100617753Y-54232284D01*
X100399890Y-54203600D01*
X100180109Y-54203600D01*
X99962248Y-54232284D01*
X99962244Y-54232284D01*
X99749990Y-54289157D01*
X99546958Y-54373255D01*
X99546957Y-54373255D01*
X99356647Y-54483132D01*
X99356640Y-54483137D01*
X99297627Y-54528416D01*
X100242811Y-55473600D01*
X100236496Y-55473600D01*
X100133135Y-55501295D01*
X100040464Y-55554799D01*
X99964799Y-55630464D01*
X99911295Y-55723135D01*
X99883600Y-55826496D01*
X99883600Y-55832811D01*
X98938416Y-54887627D01*
X98893137Y-54946640D01*
X98893132Y-54946647D01*
X98783255Y-55136957D01*
X98783255Y-55136958D01*
X98699157Y-55339990D01*
X98642284Y-55552244D01*
X98642284Y-55552248D01*
X98613600Y-55770109D01*
X98613600Y-55989890D01*
X98642284Y-56207751D01*
X98642284Y-56207755D01*
X98699157Y-56420009D01*
X98783255Y-56623041D01*
X98783255Y-56623042D01*
X98893133Y-56813354D01*
X98893141Y-56813366D01*
X98938416Y-56872370D01*
X98938417Y-56872371D01*
X99883600Y-55927187D01*
X99883600Y-55933504D01*
X99911295Y-56036865D01*
X99964799Y-56129536D01*
X100040464Y-56205201D01*
X100133135Y-56258705D01*
X100236496Y-56286400D01*
X100242810Y-56286400D01*
X99297627Y-57231582D01*
X99301631Y-57292665D01*
X99288746Y-57390536D01*
X99239389Y-57476026D01*
X99161072Y-57536121D01*
X99065720Y-57561670D01*
X98967849Y-57548785D01*
X98895156Y-57509930D01*
X98814718Y-57448208D01*
X98723635Y-57378317D01*
X98703625Y-57366764D01*
X98533276Y-57268412D01*
X98533272Y-57268410D01*
X98505438Y-57256881D01*
X98330178Y-57184286D01*
X98117849Y-57127392D01*
X98117845Y-57127391D01*
X97899922Y-57098700D01*
X97899910Y-57098700D01*
X97680090Y-57098700D01*
X97680077Y-57098700D01*
X97462154Y-57127391D01*
X97462146Y-57127393D01*
X97249821Y-57184286D01*
X97046728Y-57268410D01*
X96876374Y-57366764D01*
X96782897Y-57398495D01*
X96684393Y-57392038D01*
X96595858Y-57348377D01*
X96530770Y-57274158D01*
X96499039Y-57180681D01*
X96505496Y-57082177D01*
X96549157Y-56993642D01*
X96549157Y-56993641D01*
X96553457Y-56988036D01*
X96553465Y-56988029D01*
X96687283Y-56813635D01*
X96797193Y-56623265D01*
X96881314Y-56420178D01*
X96938208Y-56207849D01*
X96951863Y-56104123D01*
X96966899Y-55989922D01*
X96966900Y-55989907D01*
X96966900Y-55770092D01*
X96966899Y-55770077D01*
X96940305Y-55568080D01*
X96938208Y-55552151D01*
X96881314Y-55339822D01*
X96797193Y-55136735D01*
X96797190Y-55136730D01*
X96797189Y-55136727D01*
X96797187Y-55136723D01*
X96687446Y-54946647D01*
X96687283Y-54946365D01*
X96553465Y-54771971D01*
X96398029Y-54616535D01*
X96391828Y-54611777D01*
X96304647Y-54544880D01*
X96223635Y-54482717D01*
X96220263Y-54480770D01*
X96033276Y-54372812D01*
X96033272Y-54372810D01*
X95855790Y-54299295D01*
X95830178Y-54288686D01*
X95774314Y-54273717D01*
X95617853Y-54231793D01*
X95617845Y-54231791D01*
X95399922Y-54203100D01*
X95399910Y-54203100D01*
X95180090Y-54203100D01*
X95180077Y-54203100D01*
X94962154Y-54231791D01*
X94962146Y-54231793D01*
X94749821Y-54288686D01*
X94546727Y-54372810D01*
X94546723Y-54372812D01*
X94356374Y-54482711D01*
X94356361Y-54482720D01*
X94181971Y-54616534D01*
X94059908Y-54738598D01*
X93977829Y-54793442D01*
X93881010Y-54812700D01*
X92115707Y-54812700D01*
X91905467Y-54812700D01*
X91718034Y-54849983D01*
X91699267Y-54853716D01*
X91505028Y-54934172D01*
X91330224Y-55050972D01*
X88848599Y-57532598D01*
X88766520Y-57587442D01*
X88669701Y-57606700D01*
X82553370Y-57606700D01*
X82456551Y-57587442D01*
X82374472Y-57532598D01*
X82319628Y-57450519D01*
X82300370Y-57353700D01*
X82319628Y-57256881D01*
X82352652Y-57199683D01*
X82380996Y-57162744D01*
X82423283Y-57107635D01*
X82510875Y-56955921D01*
X82533187Y-56917276D01*
X82533189Y-56917272D01*
X82533189Y-56917271D01*
X82533193Y-56917265D01*
X82617314Y-56714178D01*
X82674208Y-56501849D01*
X82689196Y-56388000D01*
X82702899Y-56283922D01*
X82702900Y-56283907D01*
X82702900Y-56064092D01*
X82702899Y-56064077D01*
X82682776Y-55911229D01*
X82674208Y-55846151D01*
X82617314Y-55633822D01*
X82533193Y-55430735D01*
X82533190Y-55430730D01*
X82533189Y-55430727D01*
X82533187Y-55430723D01*
X82423288Y-55240374D01*
X82423283Y-55240365D01*
X82289465Y-55065971D01*
X82274530Y-55051036D01*
X82219686Y-54968957D01*
X82200428Y-54872138D01*
X82219686Y-54775319D01*
X82274530Y-54693240D01*
X82356609Y-54638396D01*
X82387946Y-54627759D01*
X82433763Y-54615482D01*
X82582178Y-54575714D01*
X82785265Y-54491593D01*
X82785272Y-54491589D01*
X82785276Y-54491587D01*
X82862721Y-54446874D01*
X82975635Y-54381683D01*
X83150029Y-54247865D01*
X83305465Y-54092429D01*
X83439283Y-53918035D01*
X83549193Y-53727665D01*
X83633314Y-53524578D01*
X83690208Y-53312249D01*
X83706290Y-53190092D01*
X83718899Y-53094322D01*
X83718900Y-53094307D01*
X83718900Y-52061692D01*
X83718899Y-52061677D01*
X83690208Y-51843754D01*
X83690208Y-51843751D01*
X83633314Y-51631422D01*
X83549193Y-51428335D01*
X83549190Y-51428330D01*
X83549189Y-51428327D01*
X83549187Y-51428323D01*
X83439288Y-51237974D01*
X83439283Y-51237965D01*
X83305465Y-51063571D01*
X83150029Y-50908135D01*
X82975635Y-50774317D01*
X82956697Y-50763383D01*
X82785276Y-50664412D01*
X82785272Y-50664410D01*
X82785265Y-50664407D01*
X82582178Y-50580286D01*
X82518487Y-50563219D01*
X82429955Y-50519559D01*
X82405076Y-50497740D01*
X80565413Y-48658077D01*
X90017100Y-48658077D01*
X90017100Y-48877922D01*
X90045791Y-49095845D01*
X90045792Y-49095849D01*
X90102686Y-49308178D01*
X90133973Y-49383713D01*
X90186810Y-49511272D01*
X90186812Y-49511276D01*
X90296711Y-49701625D01*
X90296717Y-49701635D01*
X90395603Y-49830505D01*
X90426750Y-49871097D01*
X90430535Y-49876029D01*
X90585971Y-50031465D01*
X90760365Y-50165283D01*
X90760374Y-50165288D01*
X90950723Y-50275187D01*
X90950727Y-50275189D01*
X90950730Y-50275190D01*
X90950735Y-50275193D01*
X91153822Y-50359314D01*
X91366151Y-50416208D01*
X91443944Y-50426449D01*
X91584077Y-50444899D01*
X91584087Y-50444899D01*
X91584090Y-50444900D01*
X91584092Y-50444900D01*
X91803908Y-50444900D01*
X91803910Y-50444900D01*
X91803912Y-50444899D01*
X91803922Y-50444899D01*
X91918123Y-50429863D01*
X92021849Y-50416208D01*
X92234178Y-50359314D01*
X92437265Y-50275193D01*
X92437272Y-50275189D01*
X92437276Y-50275187D01*
X92528762Y-50222367D01*
X92627635Y-50165283D01*
X92802029Y-50031465D01*
X92957465Y-49876029D01*
X93091283Y-49701635D01*
X93194819Y-49522305D01*
X93201187Y-49511276D01*
X93201189Y-49511272D01*
X93201189Y-49511271D01*
X93201193Y-49511265D01*
X93285314Y-49308178D01*
X93342208Y-49095849D01*
X93363521Y-48933959D01*
X93370899Y-48877922D01*
X93370900Y-48877907D01*
X93370900Y-48658092D01*
X93370899Y-48658077D01*
X93345771Y-48467215D01*
X93342208Y-48440151D01*
X93285314Y-48227822D01*
X93201193Y-48024735D01*
X93201190Y-48024730D01*
X93201189Y-48024727D01*
X93201187Y-48024723D01*
X93091288Y-47834374D01*
X93091283Y-47834365D01*
X92957465Y-47659971D01*
X92802029Y-47504535D01*
X92627635Y-47370717D01*
X92627625Y-47370711D01*
X92437276Y-47260812D01*
X92437272Y-47260810D01*
X92336811Y-47219198D01*
X92234178Y-47176686D01*
X92021849Y-47119792D01*
X92021845Y-47119791D01*
X91803922Y-47091100D01*
X91803910Y-47091100D01*
X91584090Y-47091100D01*
X91584077Y-47091100D01*
X91366154Y-47119791D01*
X91366146Y-47119793D01*
X91153821Y-47176686D01*
X90950727Y-47260810D01*
X90950723Y-47260812D01*
X90760374Y-47370711D01*
X90760361Y-47370720D01*
X90585971Y-47504534D01*
X90430534Y-47659971D01*
X90296720Y-47834361D01*
X90296711Y-47834374D01*
X90186812Y-48024723D01*
X90186810Y-48024727D01*
X90102686Y-48227821D01*
X90045793Y-48440146D01*
X90045791Y-48440154D01*
X90017100Y-48658077D01*
X80565413Y-48658077D01*
X79846308Y-47938972D01*
X79671504Y-47822172D01*
X79671502Y-47822171D01*
X79477266Y-47741716D01*
X79271066Y-47700700D01*
X79271062Y-47700700D01*
X72782990Y-47700700D01*
X72686171Y-47681442D01*
X72604092Y-47626598D01*
X72482028Y-47504534D01*
X72390660Y-47434425D01*
X72307635Y-47370717D01*
X72307625Y-47370711D01*
X72117276Y-47260812D01*
X72117272Y-47260810D01*
X72016811Y-47219198D01*
X71914178Y-47176686D01*
X71701849Y-47119792D01*
X71701845Y-47119791D01*
X71483922Y-47091100D01*
X71483910Y-47091100D01*
X71264090Y-47091100D01*
X71264077Y-47091100D01*
X71046154Y-47119791D01*
X71046146Y-47119793D01*
X70833821Y-47176686D01*
X70630727Y-47260810D01*
X70630723Y-47260812D01*
X70440374Y-47370711D01*
X70440361Y-47370720D01*
X70265971Y-47504534D01*
X70110534Y-47659971D01*
X69976720Y-47834361D01*
X69976711Y-47834374D01*
X69863990Y-48029613D01*
X69842171Y-48054492D01*
X69823784Y-48082011D01*
X69809906Y-48091283D01*
X69798903Y-48103831D01*
X69769225Y-48118466D01*
X69741705Y-48136855D01*
X69725333Y-48140111D01*
X69710367Y-48147492D01*
X69677345Y-48149656D01*
X69644886Y-48156113D01*
X69628517Y-48152857D01*
X69611863Y-48153949D01*
X69580526Y-48143311D01*
X69548067Y-48136855D01*
X69534187Y-48127581D01*
X69518386Y-48122217D01*
X69465988Y-48082011D01*
X69286802Y-47902825D01*
X69231958Y-47820746D01*
X69212700Y-47723927D01*
X69212700Y-44672283D01*
X69212700Y-44672280D01*
X69171684Y-44466080D01*
X69161589Y-44441709D01*
X72745600Y-44441709D01*
X72745600Y-44704000D01*
X74101263Y-44704000D01*
X74096799Y-44708464D01*
X74043295Y-44801135D01*
X74015600Y-44904496D01*
X74015600Y-45011504D01*
X74043295Y-45114865D01*
X74096799Y-45207536D01*
X74101263Y-45212000D01*
X72745600Y-45212000D01*
X72745600Y-45474290D01*
X72774284Y-45692151D01*
X72774284Y-45692155D01*
X72831157Y-45904409D01*
X72915255Y-46107441D01*
X72915255Y-46107442D01*
X73025133Y-46297754D01*
X73025136Y-46297758D01*
X73158910Y-46472098D01*
X73314301Y-46627489D01*
X73488641Y-46761263D01*
X73488645Y-46761266D01*
X73678957Y-46871144D01*
X73881992Y-46955243D01*
X74094241Y-47012114D01*
X74094249Y-47012116D01*
X74167999Y-47021825D01*
X74168000Y-47021825D01*
X74168000Y-45278737D01*
X74172464Y-45283201D01*
X74265135Y-45336705D01*
X74368496Y-45364400D01*
X74475504Y-45364400D01*
X74578865Y-45336705D01*
X74671536Y-45283201D01*
X74676000Y-45278737D01*
X74676000Y-47021825D01*
X74749750Y-47012116D01*
X74749758Y-47012114D01*
X74962007Y-46955243D01*
X75165041Y-46871144D01*
X75165042Y-46871144D01*
X75355354Y-46761266D01*
X75355358Y-46761263D01*
X75536270Y-46622447D01*
X75537722Y-46624340D01*
X75610183Y-46582460D01*
X75708048Y-46569529D01*
X75803412Y-46595033D01*
X75846595Y-46623871D01*
X75847400Y-46622823D01*
X75853971Y-46627865D01*
X76028365Y-46761683D01*
X76060706Y-46780355D01*
X76218723Y-46871587D01*
X76218727Y-46871589D01*
X76218730Y-46871590D01*
X76218735Y-46871593D01*
X76421822Y-46955714D01*
X76634151Y-47012608D01*
X76704162Y-47021825D01*
X76852077Y-47041299D01*
X76852087Y-47041299D01*
X76852090Y-47041300D01*
X76852092Y-47041300D01*
X77071908Y-47041300D01*
X77071910Y-47041300D01*
X77071912Y-47041299D01*
X77071922Y-47041299D01*
X77186123Y-47026263D01*
X77289849Y-47012608D01*
X77502178Y-46955714D01*
X77705265Y-46871593D01*
X77705272Y-46871589D01*
X77705276Y-46871587D01*
X77817909Y-46806558D01*
X77895635Y-46761683D01*
X78070029Y-46627865D01*
X78070028Y-46627865D01*
X78076600Y-46622823D01*
X78077980Y-46624621D01*
X78150996Y-46582442D01*
X78248864Y-46569533D01*
X78344222Y-46595059D01*
X78386878Y-46623556D01*
X78387730Y-46622447D01*
X78568641Y-46761263D01*
X78568645Y-46761266D01*
X78758957Y-46871144D01*
X78961992Y-46955243D01*
X79174241Y-47012114D01*
X79174249Y-47012116D01*
X79247999Y-47021825D01*
X79248000Y-47021825D01*
X79248000Y-45278737D01*
X79252464Y-45283201D01*
X79345135Y-45336705D01*
X79448496Y-45364400D01*
X79555504Y-45364400D01*
X79658865Y-45336705D01*
X79751536Y-45283201D01*
X79756000Y-45278737D01*
X79756000Y-47021825D01*
X79829750Y-47012116D01*
X79829758Y-47012114D01*
X80042007Y-46955243D01*
X80245041Y-46871144D01*
X80245042Y-46871144D01*
X80442529Y-46757125D01*
X80443852Y-46759416D01*
X80519876Y-46727838D01*
X80618591Y-46727739D01*
X80709830Y-46765425D01*
X80729982Y-46780355D01*
X80834804Y-46866380D01*
X81019524Y-46965114D01*
X81219957Y-47025915D01*
X81376162Y-47041300D01*
X81376171Y-47041300D01*
X82707829Y-47041300D01*
X82707838Y-47041300D01*
X82864043Y-47025915D01*
X83064476Y-46965114D01*
X83249196Y-46866380D01*
X83411105Y-46733505D01*
X83543980Y-46571596D01*
X83642714Y-46386876D01*
X83703515Y-46186443D01*
X83718900Y-46030238D01*
X83718900Y-43885762D01*
X83703515Y-43729557D01*
X83642714Y-43529124D01*
X83543980Y-43344404D01*
X83498752Y-43289294D01*
X83411105Y-43182495D01*
X83411104Y-43182494D01*
X83256424Y-43055552D01*
X83249196Y-43049620D01*
X83064476Y-42950886D01*
X83064470Y-42950884D01*
X82864047Y-42890086D01*
X82864045Y-42890085D01*
X82829330Y-42886666D01*
X82707838Y-42874700D01*
X81376162Y-42874700D01*
X81272025Y-42884956D01*
X81219954Y-42890085D01*
X81219952Y-42890086D01*
X81019529Y-42950884D01*
X81019526Y-42950885D01*
X81019524Y-42950886D01*
X80834804Y-43049620D01*
X80834800Y-43049622D01*
X80834800Y-43049623D01*
X80729980Y-43135646D01*
X80642921Y-43182179D01*
X80544680Y-43191855D01*
X80450215Y-43163198D01*
X80442652Y-43158659D01*
X80442528Y-43158875D01*
X80245042Y-43044855D01*
X80042009Y-42960757D01*
X79829763Y-42903886D01*
X79829743Y-42903882D01*
X79756000Y-42894173D01*
X79756000Y-44637263D01*
X79751536Y-44632799D01*
X79658865Y-44579295D01*
X79555504Y-44551600D01*
X79448496Y-44551600D01*
X79345135Y-44579295D01*
X79252464Y-44632799D01*
X79248000Y-44637263D01*
X79248000Y-42894174D01*
X79247999Y-42894173D01*
X79174256Y-42903882D01*
X79174236Y-42903886D01*
X78961990Y-42960757D01*
X78758958Y-43044855D01*
X78758957Y-43044855D01*
X78568645Y-43154733D01*
X78568643Y-43154734D01*
X78436315Y-43256272D01*
X78347779Y-43299932D01*
X78249275Y-43306387D01*
X78155798Y-43274655D01*
X78081580Y-43209567D01*
X78037920Y-43121031D01*
X78029300Y-43055552D01*
X78029300Y-40529070D01*
X78048558Y-40432251D01*
X78103399Y-40350175D01*
X78109300Y-40344274D01*
X78138883Y-40314690D01*
X78220959Y-40259848D01*
X78317777Y-40240588D01*
X78414597Y-40259845D01*
X78496676Y-40314687D01*
X78551521Y-40396766D01*
X78563257Y-40445649D01*
X78676685Y-40528060D01*
X78676692Y-40528064D01*
X78908236Y-40646041D01*
X79155394Y-40726347D01*
X79412061Y-40766999D01*
X79412065Y-40767000D01*
X79671935Y-40767000D01*
X79671938Y-40766999D01*
X79928605Y-40726347D01*
X80175765Y-40646041D01*
X80407308Y-40528063D01*
X80515932Y-40449142D01*
X79589190Y-39522400D01*
X79595504Y-39522400D01*
X79698865Y-39494705D01*
X79791536Y-39441201D01*
X79867201Y-39365536D01*
X79920705Y-39272865D01*
X79948400Y-39169504D01*
X79948400Y-39163190D01*
X80875142Y-40089932D01*
X80954063Y-39981308D01*
X81072041Y-39749765D01*
X81152347Y-39502605D01*
X81192999Y-39245938D01*
X81193000Y-39245935D01*
X81193000Y-38986065D01*
X81192999Y-38986061D01*
X81152346Y-38729388D01*
X81072122Y-38482481D01*
X81060519Y-38384450D01*
X81087315Y-38289440D01*
X81148429Y-38211917D01*
X81234558Y-38163683D01*
X81312739Y-38151300D01*
X84800714Y-38151300D01*
X84897533Y-38170558D01*
X84979612Y-38225402D01*
X93303237Y-46549027D01*
X93372090Y-46595033D01*
X93478044Y-46665829D01*
X93672280Y-46746284D01*
X93878480Y-46787300D01*
X94088720Y-46787300D01*
X94839862Y-46787300D01*
X94936681Y-46806558D01*
X95018760Y-46861402D01*
X95073604Y-46943481D01*
X95092862Y-47040300D01*
X95073604Y-47137119D01*
X95018760Y-47219198D01*
X94966363Y-47259404D01*
X94810226Y-47349550D01*
X94810219Y-47349555D01*
X94633187Y-47485396D01*
X94475396Y-47643187D01*
X94339555Y-47820219D01*
X94339550Y-47820226D01*
X94227977Y-48013475D01*
X94142584Y-48219634D01*
X94142581Y-48219640D01*
X94084825Y-48435185D01*
X94055700Y-48656422D01*
X94055700Y-48879577D01*
X94084825Y-49100814D01*
X94142541Y-49316208D01*
X94142582Y-49316361D01*
X94227977Y-49522524D01*
X94339552Y-49715777D01*
X94475397Y-49892813D01*
X94633187Y-50050603D01*
X94810223Y-50186448D01*
X95003476Y-50298023D01*
X95209639Y-50383418D01*
X95425185Y-50441174D01*
X95425184Y-50441174D01*
X95464719Y-50446378D01*
X95646425Y-50470300D01*
X95646427Y-50470300D01*
X95869573Y-50470300D01*
X95869575Y-50470300D01*
X96090815Y-50441174D01*
X96306361Y-50383418D01*
X96512524Y-50298023D01*
X96705777Y-50186448D01*
X96882813Y-50050603D01*
X97040603Y-49892813D01*
X97176448Y-49715777D01*
X97288023Y-49522524D01*
X97373418Y-49316361D01*
X97431174Y-49100815D01*
X97460300Y-48879575D01*
X97460300Y-48656425D01*
X97431174Y-48435185D01*
X97373418Y-48219639D01*
X97288023Y-48013476D01*
X97176448Y-47820223D01*
X97040603Y-47643187D01*
X96882813Y-47485397D01*
X96882812Y-47485396D01*
X96882813Y-47485396D01*
X96767482Y-47396900D01*
X96705777Y-47349552D01*
X96570281Y-47271323D01*
X96549637Y-47259404D01*
X96475419Y-47194316D01*
X96431759Y-47105780D01*
X96425303Y-47007276D01*
X96457034Y-46913799D01*
X96522122Y-46839581D01*
X96610658Y-46795921D01*
X96676138Y-46787300D01*
X99919862Y-46787300D01*
X100016681Y-46806558D01*
X100098760Y-46861402D01*
X100153604Y-46943481D01*
X100172862Y-47040300D01*
X100153604Y-47137119D01*
X100098760Y-47219198D01*
X100046363Y-47259404D01*
X99890226Y-47349550D01*
X99890219Y-47349555D01*
X99713187Y-47485396D01*
X99555396Y-47643187D01*
X99419555Y-47820219D01*
X99419550Y-47820226D01*
X99307977Y-48013475D01*
X99222584Y-48219634D01*
X99222581Y-48219640D01*
X99164825Y-48435185D01*
X99135700Y-48656422D01*
X99135700Y-48879577D01*
X99164825Y-49100814D01*
X99222541Y-49316208D01*
X99222582Y-49316361D01*
X99307977Y-49522524D01*
X99419552Y-49715777D01*
X99555397Y-49892813D01*
X99713187Y-50050603D01*
X99890223Y-50186448D01*
X100083476Y-50298023D01*
X100289639Y-50383418D01*
X100505185Y-50441174D01*
X100505184Y-50441174D01*
X100544719Y-50446378D01*
X100726425Y-50470300D01*
X100726427Y-50470300D01*
X100949573Y-50470300D01*
X100949575Y-50470300D01*
X101170815Y-50441174D01*
X101386361Y-50383418D01*
X101592524Y-50298023D01*
X101785777Y-50186448D01*
X101962813Y-50050603D01*
X102120603Y-49892813D01*
X102256448Y-49715777D01*
X102368023Y-49522524D01*
X102453418Y-49316361D01*
X102511174Y-49100815D01*
X102540300Y-48879575D01*
X102540300Y-48656425D01*
X102511174Y-48435185D01*
X102453418Y-48219639D01*
X102368023Y-48013476D01*
X102256448Y-47820223D01*
X102120603Y-47643187D01*
X101962813Y-47485397D01*
X101962812Y-47485396D01*
X101962813Y-47485396D01*
X101847482Y-47396900D01*
X101785777Y-47349552D01*
X101650281Y-47271323D01*
X101629637Y-47259404D01*
X101555419Y-47194316D01*
X101511759Y-47105780D01*
X101505303Y-47007276D01*
X101537034Y-46913799D01*
X101602122Y-46839581D01*
X101690658Y-46795921D01*
X101756138Y-46787300D01*
X105000864Y-46787300D01*
X105097683Y-46806558D01*
X105179762Y-46861402D01*
X105234606Y-46943481D01*
X105253864Y-47040300D01*
X105234606Y-47137119D01*
X105179762Y-47219198D01*
X105127364Y-47259405D01*
X104970500Y-47349969D01*
X104970496Y-47349972D01*
X104907510Y-47398300D01*
X105685992Y-48176782D01*
X105617215Y-48205271D01*
X105513211Y-48274764D01*
X105424764Y-48363211D01*
X105355271Y-48467215D01*
X105326782Y-48535992D01*
X104548300Y-47757510D01*
X104499972Y-47820496D01*
X104499969Y-47820500D01*
X104388425Y-48013701D01*
X104388423Y-48013705D01*
X104303058Y-48219791D01*
X104303052Y-48219810D01*
X104245318Y-48435278D01*
X104245318Y-48435281D01*
X104216200Y-48656457D01*
X104216200Y-48879542D01*
X104245318Y-49100718D01*
X104245318Y-49100721D01*
X104303052Y-49316189D01*
X104303058Y-49316208D01*
X104388423Y-49522294D01*
X104388428Y-49522305D01*
X104499965Y-49715494D01*
X104499974Y-49715507D01*
X104548300Y-49778487D01*
X104548301Y-49778488D01*
X105326781Y-49000006D01*
X105355271Y-49068785D01*
X105424764Y-49172789D01*
X105513211Y-49261236D01*
X105617215Y-49330729D01*
X105685992Y-49359217D01*
X104907511Y-50137698D01*
X104970502Y-50186032D01*
X104970507Y-50186035D01*
X105163694Y-50297571D01*
X105163705Y-50297576D01*
X105369791Y-50382941D01*
X105369810Y-50382947D01*
X105585279Y-50440681D01*
X105806457Y-50469799D01*
X105806460Y-50469800D01*
X106029540Y-50469800D01*
X106029542Y-50469799D01*
X106250718Y-50440681D01*
X106250721Y-50440681D01*
X106466189Y-50382947D01*
X106466208Y-50382941D01*
X106672294Y-50297576D01*
X106672305Y-50297571D01*
X106865494Y-50186034D01*
X106865496Y-50186032D01*
X106928487Y-50137697D01*
X106150007Y-49359217D01*
X106218785Y-49330729D01*
X106322789Y-49261236D01*
X106411236Y-49172789D01*
X106480729Y-49068785D01*
X106509217Y-49000007D01*
X107287697Y-49778487D01*
X107336032Y-49715496D01*
X107336034Y-49715494D01*
X107447571Y-49522305D01*
X107447576Y-49522294D01*
X107532941Y-49316208D01*
X107532947Y-49316189D01*
X107590681Y-49100721D01*
X107590681Y-49100718D01*
X107619799Y-48879542D01*
X107619800Y-48879539D01*
X107619800Y-48656460D01*
X107619799Y-48656457D01*
X107590681Y-48435281D01*
X107590681Y-48435278D01*
X107532947Y-48219810D01*
X107532941Y-48219791D01*
X107447576Y-48013705D01*
X107447571Y-48013694D01*
X107336035Y-47820507D01*
X107336032Y-47820502D01*
X107287698Y-47757511D01*
X106509217Y-48535991D01*
X106480729Y-48467215D01*
X106411236Y-48363211D01*
X106322789Y-48274764D01*
X106218785Y-48205271D01*
X106150006Y-48176781D01*
X106928488Y-47398301D01*
X106928487Y-47398300D01*
X106865507Y-47349974D01*
X106865500Y-47349969D01*
X106708637Y-47259405D01*
X106634419Y-47194317D01*
X106590758Y-47105782D01*
X106584301Y-47007277D01*
X106616032Y-46913800D01*
X106681120Y-46839582D01*
X106769655Y-46795921D01*
X106835137Y-46787300D01*
X108419114Y-46787300D01*
X108515933Y-46806558D01*
X108598012Y-46861402D01*
X110865637Y-49129027D01*
X110920335Y-49165575D01*
X111040444Y-49245829D01*
X111234680Y-49326284D01*
X111440880Y-49367300D01*
X115623130Y-49367300D01*
X115659437Y-49374521D01*
X115696281Y-49378106D01*
X115705649Y-49383713D01*
X115719949Y-49386558D01*
X115783397Y-49424536D01*
X115793130Y-49432504D01*
X115920320Y-49559694D01*
X116130625Y-49712490D01*
X116142554Y-49718568D01*
X116161894Y-49734401D01*
X116182493Y-49759439D01*
X116206305Y-49781450D01*
X116213576Y-49797222D01*
X116224610Y-49810634D01*
X116234059Y-49841651D01*
X116247635Y-49871097D01*
X116248317Y-49888450D01*
X116253379Y-49905065D01*
X116250239Y-49937339D01*
X116251513Y-49969737D01*
X116245502Y-49986033D01*
X116243821Y-50003316D01*
X116228580Y-50031911D01*
X116222072Y-50049556D01*
X116223751Y-50050412D01*
X116118246Y-50257476D01*
X116118243Y-50257484D01*
X116049500Y-50469051D01*
X116014700Y-50688769D01*
X116014700Y-50911230D01*
X116021359Y-50953273D01*
X116049500Y-51130948D01*
X116118243Y-51342517D01*
X116118246Y-51342523D01*
X116222917Y-51547953D01*
X116249712Y-51642963D01*
X116238109Y-51740994D01*
X116189874Y-51827123D01*
X116123994Y-51881915D01*
X116087973Y-51902711D01*
X116087961Y-51902720D01*
X115913571Y-52036534D01*
X115758134Y-52191971D01*
X115624320Y-52366361D01*
X115624311Y-52366374D01*
X115514412Y-52556723D01*
X115514410Y-52556727D01*
X115430286Y-52759821D01*
X115373393Y-52972146D01*
X115373391Y-52972154D01*
X115344700Y-53190077D01*
X115344700Y-53409922D01*
X115373391Y-53627845D01*
X115373393Y-53627853D01*
X115430286Y-53840178D01*
X115514410Y-54043272D01*
X115514412Y-54043276D01*
X115624311Y-54233625D01*
X115624320Y-54233639D01*
X115748891Y-54395983D01*
X115792552Y-54484519D01*
X115799009Y-54583023D01*
X115767277Y-54676500D01*
X115748891Y-54704017D01*
X115624320Y-54866360D01*
X115624311Y-54866374D01*
X115514412Y-55056723D01*
X115514410Y-55056727D01*
X115430286Y-55259821D01*
X115373393Y-55472146D01*
X115373391Y-55472154D01*
X115344700Y-55690077D01*
X115344700Y-55909922D01*
X115373391Y-56127845D01*
X115373393Y-56127853D01*
X115403042Y-56238503D01*
X115430286Y-56340178D01*
X115513359Y-56540736D01*
X115514410Y-56543272D01*
X115514412Y-56543276D01*
X115620836Y-56727606D01*
X115624317Y-56733635D01*
X115758135Y-56908029D01*
X115913571Y-57063465D01*
X116087965Y-57197283D01*
X116087974Y-57197288D01*
X116278323Y-57307187D01*
X116278327Y-57307189D01*
X116278330Y-57307190D01*
X116278335Y-57307193D01*
X116481422Y-57391314D01*
X116693751Y-57448208D01*
X116771544Y-57458449D01*
X116911677Y-57476899D01*
X116911687Y-57476899D01*
X116911690Y-57476900D01*
X116911692Y-57476900D01*
X117944308Y-57476900D01*
X117944310Y-57476900D01*
X117944312Y-57476899D01*
X117944322Y-57476899D01*
X118058523Y-57461863D01*
X118162249Y-57448208D01*
X118374578Y-57391314D01*
X118577665Y-57307193D01*
X118577672Y-57307189D01*
X118577676Y-57307187D01*
X118664808Y-57256881D01*
X118768035Y-57197283D01*
X118942429Y-57063465D01*
X119097865Y-56908029D01*
X119231683Y-56733635D01*
X119341593Y-56543265D01*
X119425714Y-56340178D01*
X119482608Y-56127849D01*
X119508341Y-55932388D01*
X119511299Y-55909922D01*
X119511300Y-55909907D01*
X119511300Y-55690092D01*
X119511299Y-55690077D01*
X119486445Y-55501295D01*
X119482608Y-55472151D01*
X119425714Y-55259822D01*
X119341593Y-55056735D01*
X119341590Y-55056730D01*
X119341589Y-55056727D01*
X119341587Y-55056723D01*
X119231688Y-54866374D01*
X119231683Y-54866365D01*
X119107107Y-54704015D01*
X119063447Y-54615482D01*
X119056990Y-54516978D01*
X119088721Y-54423501D01*
X119107108Y-54395983D01*
X119124888Y-54372812D01*
X119231683Y-54233635D01*
X119315505Y-54088451D01*
X119341587Y-54043276D01*
X119341589Y-54043272D01*
X119341589Y-54043271D01*
X119341593Y-54043265D01*
X119425714Y-53840178D01*
X119482608Y-53627849D01*
X119496303Y-53523827D01*
X119511299Y-53409922D01*
X119511300Y-53409907D01*
X119511300Y-53190092D01*
X119511299Y-53190077D01*
X119490932Y-53035377D01*
X119482608Y-52972151D01*
X119425714Y-52759822D01*
X119341593Y-52556735D01*
X119341590Y-52556730D01*
X119341589Y-52556727D01*
X119341587Y-52556723D01*
X119231688Y-52366374D01*
X119231683Y-52366365D01*
X119097865Y-52191971D01*
X118942429Y-52036535D01*
X118768035Y-51902717D01*
X118768025Y-51902711D01*
X118768021Y-51902708D01*
X118732004Y-51881913D01*
X118657786Y-51816825D01*
X118614127Y-51728288D01*
X118607672Y-51629784D01*
X118633082Y-51547951D01*
X118636757Y-51540736D01*
X118636762Y-51540731D01*
X118737756Y-51342519D01*
X118806500Y-51130948D01*
X118841300Y-50911229D01*
X118841300Y-50688771D01*
X118806500Y-50469052D01*
X118746278Y-50283709D01*
X120751600Y-50283709D01*
X120751600Y-50546000D01*
X122021600Y-50546000D01*
X122021600Y-51054000D01*
X120751600Y-51054000D01*
X120751600Y-51316290D01*
X120780284Y-51534151D01*
X120780284Y-51534155D01*
X120837157Y-51746409D01*
X120921255Y-51949441D01*
X120921255Y-51949442D01*
X121031133Y-52139754D01*
X121031136Y-52139758D01*
X121164910Y-52314098D01*
X121320301Y-52469489D01*
X121494641Y-52603263D01*
X121494645Y-52603266D01*
X121684957Y-52713144D01*
X121887992Y-52797243D01*
X122100241Y-52854114D01*
X122100249Y-52854116D01*
X122173999Y-52863825D01*
X122174000Y-52863825D01*
X122174000Y-51527137D01*
X122178464Y-51531601D01*
X122271135Y-51585105D01*
X122374496Y-51612800D01*
X122481504Y-51612800D01*
X122584865Y-51585105D01*
X122677536Y-51531601D01*
X122682000Y-51527137D01*
X122682000Y-52863825D01*
X122755750Y-52854116D01*
X122755758Y-52854114D01*
X122968007Y-52797243D01*
X123171041Y-52713144D01*
X123171042Y-52713144D01*
X123361354Y-52603266D01*
X123361358Y-52603263D01*
X123535698Y-52469489D01*
X123691089Y-52314098D01*
X123824863Y-52139758D01*
X123824866Y-52139754D01*
X123934744Y-51949442D01*
X123934744Y-51949441D01*
X124018842Y-51746409D01*
X124075715Y-51534155D01*
X124075715Y-51534151D01*
X124104399Y-51316290D01*
X124104400Y-51316276D01*
X124104400Y-51054000D01*
X122834400Y-51054000D01*
X122834400Y-50546000D01*
X124104400Y-50546000D01*
X124104400Y-50283723D01*
X124104399Y-50283709D01*
X124075715Y-50065848D01*
X124075715Y-50065844D01*
X124018842Y-49853590D01*
X123934744Y-49650558D01*
X123934744Y-49650557D01*
X123824866Y-49460245D01*
X123824863Y-49460241D01*
X123691089Y-49285901D01*
X123535698Y-49130510D01*
X123361358Y-48996736D01*
X123361354Y-48996733D01*
X123171042Y-48886855D01*
X122968009Y-48802757D01*
X122755763Y-48745886D01*
X122755743Y-48745882D01*
X122682000Y-48736173D01*
X122682000Y-50072863D01*
X122677536Y-50068399D01*
X122584865Y-50014895D01*
X122481504Y-49987200D01*
X122374496Y-49987200D01*
X122271135Y-50014895D01*
X122178464Y-50068399D01*
X122174000Y-50072863D01*
X122174000Y-48736174D01*
X122173999Y-48736173D01*
X122100256Y-48745882D01*
X122100236Y-48745886D01*
X121887990Y-48802757D01*
X121684958Y-48886855D01*
X121684957Y-48886855D01*
X121494645Y-48996733D01*
X121494641Y-48996736D01*
X121320301Y-49130510D01*
X121164910Y-49285901D01*
X121031136Y-49460241D01*
X121031133Y-49460245D01*
X120921255Y-49650557D01*
X120921255Y-49650558D01*
X120837157Y-49853590D01*
X120780284Y-50065844D01*
X120780284Y-50065848D01*
X120751600Y-50283709D01*
X118746278Y-50283709D01*
X118737756Y-50257481D01*
X118636762Y-50059269D01*
X118632198Y-50052988D01*
X118623622Y-50033912D01*
X118616100Y-50001223D01*
X118604488Y-49969751D01*
X118605124Y-49953529D01*
X118601485Y-49937711D01*
X118607044Y-49904630D01*
X118608361Y-49871111D01*
X118615156Y-49856369D01*
X118617847Y-49840360D01*
X118635644Y-49811923D01*
X118649686Y-49781462D01*
X118661605Y-49770442D01*
X118670218Y-49756682D01*
X118697541Y-49737222D01*
X118717590Y-49718687D01*
X118717333Y-49718333D01*
X118720326Y-49716158D01*
X118722173Y-49714451D01*
X118722193Y-49714439D01*
X118725362Y-49712496D01*
X118725375Y-49712490D01*
X118935680Y-49559694D01*
X119119494Y-49375880D01*
X119272290Y-49165575D01*
X119390305Y-48933956D01*
X119470635Y-48686727D01*
X119511300Y-48429976D01*
X119511300Y-48170024D01*
X119470635Y-47913273D01*
X119390305Y-47666044D01*
X119272290Y-47434425D01*
X119265689Y-47425340D01*
X119119494Y-47224120D01*
X119113037Y-47216560D01*
X119114941Y-47214933D01*
X119069428Y-47146819D01*
X119050170Y-47050000D01*
X119069428Y-46953181D01*
X119114941Y-46885066D01*
X119113037Y-46883440D01*
X119119488Y-46875885D01*
X119119494Y-46875880D01*
X119272290Y-46665575D01*
X119390305Y-46433956D01*
X119470635Y-46186727D01*
X119511300Y-45929976D01*
X119511300Y-45670024D01*
X119470635Y-45413273D01*
X119390305Y-45166044D01*
X119272290Y-44934425D01*
X119267068Y-44927238D01*
X119119494Y-44724120D01*
X118935679Y-44540305D01*
X118725376Y-44387510D01*
X118493759Y-44269496D01*
X118246527Y-44189165D01*
X117989777Y-44148500D01*
X117989776Y-44148500D01*
X116866224Y-44148500D01*
X116866222Y-44148500D01*
X116609472Y-44189165D01*
X116362240Y-44269496D01*
X116130623Y-44387510D01*
X115920320Y-44540305D01*
X115920318Y-44540307D01*
X115882028Y-44578598D01*
X115799949Y-44633442D01*
X115703130Y-44652700D01*
X114438990Y-44652700D01*
X114342171Y-44633442D01*
X114260092Y-44578598D01*
X114138028Y-44456534D01*
X114048074Y-44387510D01*
X113963635Y-44322717D01*
X113943358Y-44311010D01*
X113773276Y-44212812D01*
X113773272Y-44212810D01*
X113570178Y-44128686D01*
X113357853Y-44071793D01*
X113357845Y-44071791D01*
X113139922Y-44043100D01*
X113139910Y-44043100D01*
X112920090Y-44043100D01*
X112920077Y-44043100D01*
X112702154Y-44071791D01*
X112702146Y-44071793D01*
X112489821Y-44128686D01*
X112286727Y-44212810D01*
X112286723Y-44212812D01*
X112096374Y-44322711D01*
X112096361Y-44322720D01*
X111921971Y-44456534D01*
X111766534Y-44611971D01*
X111632720Y-44786361D01*
X111632711Y-44786374D01*
X111522812Y-44976723D01*
X111522810Y-44976727D01*
X111438686Y-45179821D01*
X111381793Y-45392146D01*
X111381791Y-45392154D01*
X111353100Y-45610077D01*
X111353100Y-45829910D01*
X111372225Y-45975180D01*
X111365768Y-46073685D01*
X111322107Y-46162220D01*
X111247889Y-46227308D01*
X111154412Y-46259039D01*
X111055907Y-46252582D01*
X110967372Y-46208921D01*
X110942491Y-46187101D01*
X109646362Y-44890972D01*
X109471558Y-44774172D01*
X109471556Y-44774171D01*
X109277320Y-44693716D01*
X109071120Y-44652700D01*
X109071116Y-44652700D01*
X94530486Y-44652700D01*
X94433667Y-44633442D01*
X94351588Y-44578598D01*
X86027962Y-36254972D01*
X85853158Y-36138172D01*
X85839914Y-36132686D01*
X85658920Y-36057716D01*
X85452720Y-36016700D01*
X76443628Y-36016700D01*
X76233388Y-36016700D01*
X76046875Y-36053800D01*
X76027188Y-36057716D01*
X75832949Y-36138172D01*
X75658145Y-36254972D01*
X74522720Y-37390398D01*
X74440641Y-37445242D01*
X74343822Y-37464500D01*
X74332022Y-37464500D01*
X74075272Y-37505165D01*
X73828040Y-37585496D01*
X73596423Y-37703510D01*
X73386120Y-37856305D01*
X73202305Y-38040120D01*
X73049510Y-38250423D01*
X72931496Y-38482040D01*
X72851165Y-38729272D01*
X72810500Y-38986022D01*
X72810500Y-39245977D01*
X72851165Y-39502727D01*
X72931496Y-39749959D01*
X73049510Y-39981576D01*
X73202305Y-40191879D01*
X73386120Y-40375694D01*
X73596423Y-40528489D01*
X73596425Y-40528490D01*
X73828044Y-40646505D01*
X74075273Y-40726835D01*
X74332024Y-40767500D01*
X74332026Y-40767500D01*
X74591974Y-40767500D01*
X74591976Y-40767500D01*
X74848727Y-40726835D01*
X75095956Y-40646505D01*
X75327575Y-40528490D01*
X75492993Y-40408305D01*
X75582637Y-40366980D01*
X75681277Y-40363104D01*
X75773891Y-40397270D01*
X75846381Y-40464278D01*
X75887709Y-40553926D01*
X75894700Y-40612989D01*
X75894700Y-43055552D01*
X75875442Y-43152371D01*
X75820598Y-43234450D01*
X75738519Y-43289294D01*
X75641700Y-43308552D01*
X75544881Y-43289294D01*
X75487685Y-43256272D01*
X75355356Y-43154734D01*
X75355354Y-43154733D01*
X75165042Y-43044855D01*
X74962009Y-42960757D01*
X74749763Y-42903886D01*
X74749743Y-42903882D01*
X74676000Y-42894173D01*
X74676000Y-44637263D01*
X74671536Y-44632799D01*
X74578865Y-44579295D01*
X74475504Y-44551600D01*
X74368496Y-44551600D01*
X74265135Y-44579295D01*
X74172464Y-44632799D01*
X74168000Y-44637263D01*
X74168000Y-42894174D01*
X74167999Y-42894173D01*
X74094256Y-42903882D01*
X74094236Y-42903886D01*
X73881990Y-42960757D01*
X73678958Y-43044855D01*
X73678957Y-43044855D01*
X73488645Y-43154733D01*
X73488641Y-43154736D01*
X73314301Y-43288510D01*
X73158910Y-43443901D01*
X73025136Y-43618241D01*
X73025133Y-43618245D01*
X72915255Y-43808557D01*
X72915255Y-43808558D01*
X72831157Y-44011590D01*
X72774284Y-44223844D01*
X72774284Y-44223848D01*
X72745600Y-44441709D01*
X69161589Y-44441709D01*
X69091229Y-44271844D01*
X69059159Y-44223848D01*
X68974427Y-44097037D01*
X65572362Y-40694972D01*
X65397558Y-40578172D01*
X65279015Y-40529070D01*
X65203320Y-40497716D01*
X64997120Y-40456700D01*
X64997116Y-40456700D01*
X62929412Y-40456700D01*
X62832593Y-40437442D01*
X62750514Y-40382598D01*
X62719890Y-40345508D01*
X62646782Y-40237491D01*
X62500508Y-40091217D01*
X62391969Y-40017756D01*
X62329197Y-39975271D01*
X62329190Y-39975268D01*
X62139038Y-39893840D01*
X62061201Y-39876907D01*
X61936903Y-39849868D01*
X61936898Y-39849867D01*
X61936894Y-39849867D01*
X61890447Y-39847100D01*
X61890436Y-39847100D01*
X61691253Y-39847100D01*
X61594434Y-39827842D01*
X61512355Y-39772998D01*
X61457511Y-39690919D01*
X61438253Y-39594100D01*
X61457511Y-39497281D01*
X61512355Y-39415202D01*
X61594434Y-39360358D01*
X61625767Y-39349721D01*
X61754178Y-39315314D01*
X61957265Y-39231193D01*
X61957272Y-39231189D01*
X61957276Y-39231187D01*
X62016673Y-39196893D01*
X62147635Y-39121283D01*
X62322029Y-38987465D01*
X62477465Y-38832029D01*
X62611283Y-38657635D01*
X62712408Y-38482481D01*
X62721187Y-38467276D01*
X62721189Y-38467272D01*
X62721189Y-38467271D01*
X62721193Y-38467265D01*
X62805314Y-38264178D01*
X62862208Y-38051849D01*
X62881605Y-37904511D01*
X62890899Y-37833922D01*
X62890900Y-37833907D01*
X62890900Y-37661285D01*
X62910158Y-37564466D01*
X62965002Y-37482387D01*
X64922739Y-35524650D01*
X94024700Y-35524650D01*
X94024700Y-36011349D01*
X94059418Y-36496771D01*
X94059418Y-36496772D01*
X94101631Y-36790365D01*
X94126295Y-36961909D01*
X94128680Y-36978492D01*
X94128682Y-36978504D01*
X94232126Y-37454032D01*
X94232130Y-37454048D01*
X94350244Y-37856306D01*
X94369247Y-37921022D01*
X94369252Y-37921036D01*
X94539309Y-38376977D01*
X94539317Y-38376997D01*
X94587290Y-38482044D01*
X94741490Y-38819695D01*
X94974729Y-39246839D01*
X94974732Y-39246844D01*
X94974735Y-39246849D01*
X95237843Y-39656253D01*
X95237848Y-39656260D01*
X95295647Y-39733470D01*
X95529499Y-40045860D01*
X95848204Y-40413665D01*
X96192335Y-40757796D01*
X96560140Y-41076501D01*
X96949743Y-41368154D01*
X97359161Y-41631271D01*
X97786305Y-41864510D01*
X98229001Y-42066682D01*
X98229015Y-42066687D01*
X98229022Y-42066690D01*
X98684963Y-42236747D01*
X98684977Y-42236752D01*
X98684979Y-42236752D01*
X98684991Y-42236757D01*
X99151952Y-42373870D01*
X99627506Y-42477320D01*
X100109227Y-42546581D01*
X100594651Y-42581300D01*
X100594662Y-42581300D01*
X101081349Y-42581300D01*
X101492090Y-42551922D01*
X101566773Y-42546581D01*
X102048494Y-42477320D01*
X102524048Y-42373870D01*
X102991009Y-42236757D01*
X103446999Y-42066682D01*
X103889695Y-41864510D01*
X104316839Y-41631271D01*
X104726257Y-41368154D01*
X105115860Y-41076501D01*
X105483665Y-40757796D01*
X105827796Y-40413665D01*
X106146501Y-40045860D01*
X106438154Y-39656257D01*
X106701271Y-39246839D01*
X106934510Y-38819695D01*
X107136682Y-38376999D01*
X107260053Y-38046227D01*
X107311928Y-37962250D01*
X107391997Y-37904511D01*
X107488067Y-37881809D01*
X107585512Y-37897599D01*
X107631701Y-37920426D01*
X107639927Y-37925594D01*
X107644093Y-37928212D01*
X107893467Y-38048304D01*
X108154719Y-38139720D01*
X108424564Y-38201310D01*
X108699606Y-38232299D01*
X108699607Y-38232300D01*
X108699608Y-38232300D01*
X108976393Y-38232300D01*
X108976393Y-38232299D01*
X109251436Y-38201310D01*
X109521281Y-38139720D01*
X109782533Y-38048304D01*
X110031907Y-37928212D01*
X110266267Y-37780953D01*
X110482665Y-37608381D01*
X110678381Y-37412665D01*
X110850953Y-37196267D01*
X110998212Y-36961907D01*
X111118304Y-36712533D01*
X111209720Y-36451281D01*
X111271310Y-36181436D01*
X111302300Y-35906392D01*
X111302300Y-35629608D01*
X111271310Y-35354564D01*
X111209720Y-35084719D01*
X111118304Y-34823467D01*
X110998212Y-34574093D01*
X110850953Y-34339733D01*
X110678381Y-34123335D01*
X110482665Y-33927619D01*
X110266267Y-33755047D01*
X110044305Y-33615578D01*
X110031909Y-33607789D01*
X109782533Y-33487696D01*
X109521281Y-33396280D01*
X109407961Y-33370415D01*
X109251433Y-33334689D01*
X108976394Y-33303700D01*
X108976392Y-33303700D01*
X108699608Y-33303700D01*
X108699605Y-33303700D01*
X108424566Y-33334689D01*
X108154719Y-33396280D01*
X107893466Y-33487696D01*
X107644089Y-33607790D01*
X107644082Y-33607793D01*
X107631693Y-33615578D01*
X107539466Y-33650778D01*
X107440789Y-33648005D01*
X107350685Y-33607682D01*
X107282871Y-33535946D01*
X107260054Y-33489775D01*
X107136682Y-33159001D01*
X106934510Y-32716305D01*
X106701271Y-32289161D01*
X106653129Y-32214251D01*
X106438156Y-31879746D01*
X106438151Y-31879739D01*
X106353165Y-31766211D01*
X106146501Y-31490140D01*
X105827796Y-31122335D01*
X105483665Y-30778204D01*
X105115860Y-30459499D01*
X104726257Y-30167846D01*
X104726253Y-30167843D01*
X104316849Y-29904735D01*
X104316844Y-29904732D01*
X104316839Y-29904729D01*
X103889695Y-29671490D01*
X103514867Y-29500312D01*
X103446997Y-29469317D01*
X103446977Y-29469309D01*
X102991036Y-29299252D01*
X102991022Y-29299247D01*
X102991011Y-29299243D01*
X102991009Y-29299243D01*
X102524048Y-29162130D01*
X102524032Y-29162126D01*
X102048504Y-29058682D01*
X102048500Y-29058681D01*
X102048494Y-29058680D01*
X101927383Y-29041266D01*
X101566772Y-28989418D01*
X101081349Y-28954700D01*
X101081338Y-28954700D01*
X100594662Y-28954700D01*
X100594651Y-28954700D01*
X100109228Y-28989418D01*
X100109227Y-28989418D01*
X99688061Y-29049973D01*
X99627506Y-29058680D01*
X99627502Y-29058680D01*
X99627495Y-29058682D01*
X99151967Y-29162126D01*
X99151951Y-29162130D01*
X98684977Y-29299247D01*
X98684963Y-29299252D01*
X98229022Y-29469309D01*
X98229002Y-29469317D01*
X97786311Y-29671487D01*
X97786308Y-29671488D01*
X97786305Y-29671490D01*
X97535678Y-29808343D01*
X97359150Y-29904735D01*
X96949746Y-30167843D01*
X96949739Y-30167848D01*
X96726283Y-30335126D01*
X96560140Y-30459499D01*
X96536482Y-30479999D01*
X96192330Y-30778208D01*
X95848208Y-31122330D01*
X95848204Y-31122335D01*
X95529499Y-31490140D01*
X95529497Y-31490143D01*
X95237848Y-31879739D01*
X95237843Y-31879746D01*
X94974735Y-32289150D01*
X94974729Y-32289161D01*
X94755691Y-32690299D01*
X94741487Y-32716311D01*
X94539317Y-33159002D01*
X94539309Y-33159022D01*
X94369252Y-33614963D01*
X94369247Y-33614977D01*
X94232130Y-34081951D01*
X94232126Y-34081967D01*
X94128682Y-34557495D01*
X94128680Y-34557507D01*
X94059418Y-35039227D01*
X94059418Y-35039228D01*
X94024700Y-35524650D01*
X64922739Y-35524650D01*
X65106142Y-35341247D01*
X66372669Y-34074720D01*
X67766212Y-32681176D01*
X67848288Y-32626335D01*
X67945107Y-32607077D01*
X68010588Y-32615697D01*
X68147867Y-32652482D01*
X68435129Y-32690300D01*
X68435131Y-32690300D01*
X68724869Y-32690300D01*
X68724871Y-32690300D01*
X69012133Y-32652482D01*
X69013973Y-32651989D01*
X69291992Y-32577494D01*
X69291994Y-32577493D01*
X69292002Y-32577491D01*
X69559688Y-32466612D01*
X69810612Y-32321741D01*
X70040479Y-32145358D01*
X70245358Y-31940479D01*
X70421741Y-31710612D01*
X70566612Y-31459688D01*
X70677491Y-31192002D01*
X70688302Y-31151657D01*
X70752481Y-30912137D01*
X70752482Y-30912132D01*
X70770113Y-30778208D01*
X70790300Y-30624871D01*
X70790300Y-30335129D01*
X70752482Y-30047867D01*
X70752481Y-30047862D01*
X70677494Y-29768007D01*
X70677492Y-29768002D01*
X70677491Y-29767998D01*
X70566612Y-29500312D01*
X70566609Y-29500306D01*
X70566608Y-29500304D01*
X70421907Y-29249675D01*
X70421741Y-29249388D01*
X70245358Y-29019521D01*
X70040479Y-28814642D01*
X69810612Y-28638259D01*
X69810602Y-28638253D01*
X69559695Y-28493391D01*
X69559693Y-28493390D01*
X69440146Y-28443872D01*
X69292002Y-28382509D01*
X69292001Y-28382508D01*
X69291992Y-28382505D01*
X69012137Y-28307518D01*
X69012132Y-28307517D01*
X68724873Y-28269700D01*
X68724871Y-28269700D01*
X68435129Y-28269700D01*
X68435126Y-28269700D01*
X68147867Y-28307517D01*
X68147862Y-28307518D01*
X67868007Y-28382505D01*
X67600306Y-28493390D01*
X67600304Y-28493391D01*
X67349397Y-28638253D01*
X67349384Y-28638262D01*
X67119518Y-28814644D01*
X66914644Y-29019518D01*
X66738262Y-29249384D01*
X66738253Y-29249397D01*
X66593391Y-29500304D01*
X66593390Y-29500306D01*
X66482505Y-29768007D01*
X66407518Y-30047862D01*
X66407517Y-30047867D01*
X66369700Y-30335126D01*
X66369700Y-30624873D01*
X66403908Y-30884718D01*
X66402816Y-30901372D01*
X66406072Y-30917740D01*
X66399615Y-30950198D01*
X66397451Y-30983223D01*
X66390069Y-30998190D01*
X66386814Y-31014559D01*
X66368428Y-31042075D01*
X66353790Y-31071758D01*
X66331970Y-31096638D01*
X66139790Y-31288818D01*
X66057711Y-31343662D01*
X65960892Y-31362920D01*
X65864073Y-31343662D01*
X65781994Y-31288818D01*
X65727150Y-31206739D01*
X65707892Y-31109920D01*
X65716513Y-31044439D01*
X65751989Y-30912040D01*
X65751989Y-30912037D01*
X65789799Y-30624838D01*
X65789800Y-30624835D01*
X65789800Y-30335164D01*
X65789799Y-30335161D01*
X65751989Y-30047962D01*
X65751989Y-30047959D01*
X65677020Y-29768169D01*
X65677013Y-29768150D01*
X65566165Y-29500540D01*
X65566158Y-29500524D01*
X65421329Y-29249675D01*
X65421320Y-29249662D01*
X65312006Y-29107201D01*
X64219818Y-30199390D01*
X64199003Y-30149136D01*
X64122561Y-30034732D01*
X64025268Y-29937439D01*
X63910864Y-29860997D01*
X63860607Y-29840180D01*
X64952796Y-28747992D01*
X64810337Y-28638679D01*
X64810324Y-28638670D01*
X64559475Y-28493841D01*
X64559459Y-28493834D01*
X64291849Y-28382986D01*
X64291830Y-28382979D01*
X64012039Y-28308010D01*
X63724838Y-28270200D01*
X63435161Y-28270200D01*
X63147962Y-28308010D01*
X63147959Y-28308010D01*
X62868169Y-28382979D01*
X62868150Y-28382986D01*
X62600540Y-28493834D01*
X62600524Y-28493841D01*
X62349673Y-28638671D01*
X62349663Y-28638678D01*
X62207201Y-28747991D01*
X63299390Y-29840180D01*
X63249136Y-29860997D01*
X63134732Y-29937439D01*
X63037439Y-30034732D01*
X62960997Y-30149136D01*
X62940180Y-30199390D01*
X61847991Y-29107201D01*
X61738678Y-29249663D01*
X61738671Y-29249673D01*
X61593841Y-29500524D01*
X61593834Y-29500540D01*
X61482986Y-29768150D01*
X61482979Y-29768169D01*
X61408010Y-30047959D01*
X61408010Y-30047962D01*
X61370200Y-30335161D01*
X61370200Y-30624838D01*
X61408010Y-30912037D01*
X61408010Y-30912040D01*
X61482979Y-31191830D01*
X61482986Y-31191849D01*
X61593834Y-31459459D01*
X61593841Y-31459475D01*
X61738670Y-31710324D01*
X61738679Y-31710337D01*
X61847992Y-31852796D01*
X62940180Y-30760607D01*
X62960997Y-30810864D01*
X63037439Y-30925268D01*
X63134732Y-31022561D01*
X63249136Y-31099003D01*
X63299390Y-31119818D01*
X62207201Y-32212006D01*
X62349662Y-32321320D01*
X62349675Y-32321329D01*
X62600524Y-32466158D01*
X62600540Y-32466165D01*
X62868150Y-32577013D01*
X62868169Y-32577020D01*
X63147960Y-32651989D01*
X63435161Y-32689799D01*
X63435164Y-32689800D01*
X63724836Y-32689800D01*
X63724838Y-32689799D01*
X64012037Y-32651989D01*
X64012040Y-32651989D01*
X64144439Y-32616513D01*
X64242943Y-32610056D01*
X64336420Y-32641787D01*
X64410638Y-32706875D01*
X64454299Y-32795411D01*
X64460756Y-32893915D01*
X64429025Y-32987392D01*
X64388818Y-33039790D01*
X61455611Y-35972998D01*
X61373532Y-36027842D01*
X61276713Y-36047100D01*
X61104077Y-36047100D01*
X60886154Y-36075791D01*
X60886146Y-36075793D01*
X60673821Y-36132686D01*
X60470727Y-36216810D01*
X60470723Y-36216812D01*
X60280374Y-36326711D01*
X60280361Y-36326720D01*
X60105971Y-36460534D01*
X59950534Y-36615971D01*
X59816720Y-36790361D01*
X59816711Y-36790374D01*
X59706812Y-36980723D01*
X59706810Y-36980727D01*
X59622686Y-37183821D01*
X59565793Y-37396146D01*
X59565791Y-37396154D01*
X59537100Y-37614077D01*
X59537100Y-37833922D01*
X59565791Y-38051845D01*
X59565793Y-38051853D01*
X59622686Y-38264178D01*
X59706810Y-38467272D01*
X59706812Y-38467276D01*
X59816711Y-38657625D01*
X59816717Y-38657635D01*
X59950535Y-38832029D01*
X60105971Y-38987465D01*
X60280365Y-39121283D01*
X60280374Y-39121288D01*
X60470723Y-39231187D01*
X60470727Y-39231189D01*
X60470730Y-39231190D01*
X60470735Y-39231193D01*
X60673822Y-39315314D01*
X60802230Y-39349721D01*
X60890765Y-39393383D01*
X60955852Y-39467601D01*
X60987583Y-39561078D01*
X60981126Y-39659583D01*
X60937464Y-39748118D01*
X60863246Y-39813205D01*
X60769769Y-39844936D01*
X60736747Y-39847100D01*
X60537552Y-39847100D01*
X60491105Y-39849867D01*
X60491100Y-39849867D01*
X60491097Y-39849868D01*
X60444633Y-39859975D01*
X60288961Y-39893840D01*
X60098809Y-39975268D01*
X60098801Y-39975272D01*
X59927491Y-40091217D01*
X59781217Y-40237491D01*
X59665272Y-40408801D01*
X59665268Y-40408809D01*
X59583840Y-40598961D01*
X59539869Y-40801093D01*
X59539867Y-40801105D01*
X59537100Y-40847552D01*
X59537100Y-42200447D01*
X59539867Y-42246894D01*
X59539868Y-42246903D01*
X59539869Y-42246906D01*
X59583840Y-42449038D01*
X59640478Y-42581300D01*
X59665271Y-42639197D01*
X59781218Y-42810509D01*
X59927491Y-42956782D01*
X60035510Y-43029891D01*
X60104893Y-43100104D01*
X60142128Y-43191528D01*
X60146700Y-43239411D01*
X60146700Y-44311010D01*
X60127442Y-44407829D01*
X60072598Y-44489908D01*
X59950534Y-44611971D01*
X59816720Y-44786361D01*
X59816711Y-44786374D01*
X59706812Y-44976723D01*
X59706810Y-44976727D01*
X59622686Y-45179821D01*
X59565793Y-45392146D01*
X59565791Y-45392154D01*
X59537100Y-45610077D01*
X59537100Y-45829922D01*
X59563473Y-46030238D01*
X59565792Y-46047849D01*
X59622686Y-46260178D01*
X59662944Y-46357371D01*
X59706810Y-46463272D01*
X59706812Y-46463276D01*
X59816641Y-46653504D01*
X59816717Y-46653635D01*
X59902497Y-46765425D01*
X59950534Y-46828028D01*
X60072598Y-46950092D01*
X60127442Y-47032171D01*
X60146700Y-47128990D01*
X60146700Y-47359010D01*
X60127442Y-47455829D01*
X60072598Y-47537908D01*
X59950534Y-47659971D01*
X59816720Y-47834361D01*
X59816711Y-47834374D01*
X59706812Y-48024723D01*
X59706810Y-48024727D01*
X59622686Y-48227821D01*
X59565793Y-48440146D01*
X59565791Y-48440154D01*
X59537100Y-48658077D01*
X59537100Y-48877922D01*
X59565791Y-49095845D01*
X59565792Y-49095849D01*
X59622686Y-49308178D01*
X59653973Y-49383713D01*
X59706810Y-49511272D01*
X59706812Y-49511276D01*
X59816711Y-49701625D01*
X59816717Y-49701635D01*
X59915603Y-49830505D01*
X59946750Y-49871097D01*
X59950535Y-49876029D01*
X60105971Y-50031465D01*
X60280365Y-50165283D01*
X60280374Y-50165288D01*
X60473164Y-50276596D01*
X60547382Y-50341683D01*
X60591043Y-50430219D01*
X60597500Y-50528723D01*
X60565768Y-50622200D01*
X60500681Y-50696418D01*
X60412145Y-50740079D01*
X60346664Y-50748700D01*
X59808886Y-50748700D01*
X59712067Y-50729442D01*
X59629988Y-50674598D01*
X57965002Y-49009612D01*
X57910158Y-48927533D01*
X57890900Y-48830714D01*
X57890900Y-48658092D01*
X57890899Y-48658077D01*
X57865771Y-48467215D01*
X57862208Y-48440151D01*
X57805314Y-48227822D01*
X57721193Y-48024735D01*
X57721190Y-48024730D01*
X57721189Y-48024727D01*
X57721187Y-48024723D01*
X57611288Y-47834374D01*
X57611283Y-47834365D01*
X57477465Y-47659971D01*
X57322029Y-47504535D01*
X57147635Y-47370717D01*
X57147625Y-47370711D01*
X56957276Y-47260812D01*
X56957272Y-47260810D01*
X56856811Y-47219198D01*
X56754178Y-47176686D01*
X56541849Y-47119792D01*
X56541845Y-47119791D01*
X56323922Y-47091100D01*
X56323910Y-47091100D01*
X56104090Y-47091100D01*
X56104077Y-47091100D01*
X55886154Y-47119791D01*
X55886146Y-47119793D01*
X55673821Y-47176686D01*
X55470727Y-47260810D01*
X55470723Y-47260812D01*
X55280374Y-47370711D01*
X55280361Y-47370720D01*
X55105971Y-47504534D01*
X54950534Y-47659971D01*
X54816720Y-47834361D01*
X54816711Y-47834374D01*
X54706812Y-48024723D01*
X54706810Y-48024727D01*
X54622686Y-48227821D01*
X54565793Y-48440146D01*
X54565791Y-48440154D01*
X54537100Y-48658077D01*
X54537100Y-48877922D01*
X54565791Y-49095845D01*
X54565792Y-49095849D01*
X54622686Y-49308178D01*
X54653973Y-49383713D01*
X54706810Y-49511272D01*
X54706812Y-49511276D01*
X54816711Y-49701625D01*
X54816717Y-49701635D01*
X54915603Y-49830505D01*
X54946750Y-49871097D01*
X54950535Y-49876029D01*
X55105971Y-50031465D01*
X55280365Y-50165283D01*
X55280374Y-50165288D01*
X55470723Y-50275187D01*
X55470727Y-50275189D01*
X55470730Y-50275190D01*
X55470735Y-50275193D01*
X55673822Y-50359314D01*
X55886151Y-50416208D01*
X55963944Y-50426449D01*
X56104077Y-50444899D01*
X56104087Y-50444899D01*
X56104090Y-50444900D01*
X56104092Y-50444900D01*
X56276714Y-50444900D01*
X56373533Y-50464158D01*
X56455612Y-50519002D01*
X58581636Y-52645026D01*
X58756444Y-52761829D01*
X58950680Y-52842284D01*
X59156880Y-52883300D01*
X59367120Y-52883300D01*
X60821010Y-52883300D01*
X60917829Y-52902558D01*
X60999908Y-52957402D01*
X61121971Y-53079465D01*
X61296365Y-53213283D01*
X61296374Y-53213288D01*
X61486723Y-53323187D01*
X61486727Y-53323189D01*
X61486730Y-53323190D01*
X61486735Y-53323193D01*
X61689822Y-53407314D01*
X61902151Y-53464208D01*
X61979944Y-53474449D01*
X62120077Y-53492899D01*
X62120087Y-53492899D01*
X62120090Y-53492900D01*
X62120092Y-53492900D01*
X62339908Y-53492900D01*
X62339910Y-53492900D01*
X62339912Y-53492899D01*
X62339922Y-53492899D01*
X62454123Y-53477863D01*
X62557849Y-53464208D01*
X62770178Y-53407314D01*
X62973265Y-53323193D01*
X62973272Y-53323189D01*
X62973276Y-53323187D01*
X63085552Y-53258364D01*
X63163635Y-53213283D01*
X63338029Y-53079465D01*
X63493465Y-52924029D01*
X63627283Y-52749635D01*
X63711791Y-52603263D01*
X63737187Y-52559276D01*
X63737189Y-52559272D01*
X63737189Y-52559271D01*
X63737193Y-52559265D01*
X63821314Y-52356178D01*
X63878208Y-52143849D01*
X63900046Y-51977971D01*
X63906899Y-51925922D01*
X63906900Y-51925907D01*
X63906900Y-51706092D01*
X63906899Y-51706077D01*
X63883928Y-51531601D01*
X63878208Y-51488151D01*
X63821314Y-51275822D01*
X63737193Y-51072735D01*
X63737190Y-51072730D01*
X63737189Y-51072727D01*
X63737187Y-51072723D01*
X63642161Y-50908134D01*
X63627283Y-50882365D01*
X63603917Y-50851914D01*
X63560258Y-50763383D01*
X63553801Y-50664878D01*
X63585532Y-50571401D01*
X63650619Y-50497182D01*
X63739154Y-50453521D01*
X63804637Y-50444900D01*
X63863908Y-50444900D01*
X63863910Y-50444900D01*
X63863912Y-50444899D01*
X63863922Y-50444899D01*
X63978123Y-50429863D01*
X64081849Y-50416208D01*
X64294178Y-50359314D01*
X64497265Y-50275193D01*
X64497272Y-50275189D01*
X64497276Y-50275187D01*
X64588762Y-50222367D01*
X64687635Y-50165283D01*
X64862029Y-50031465D01*
X65017465Y-49876029D01*
X65151283Y-49701635D01*
X65254819Y-49522305D01*
X65261187Y-49511276D01*
X65261189Y-49511272D01*
X65261189Y-49511271D01*
X65261193Y-49511265D01*
X65345314Y-49308178D01*
X65402208Y-49095849D01*
X65423521Y-48933959D01*
X65430899Y-48877922D01*
X65430900Y-48877907D01*
X65430900Y-48658092D01*
X65430899Y-48658077D01*
X65405771Y-48467215D01*
X65402208Y-48440151D01*
X65355699Y-48266580D01*
X65349243Y-48168085D01*
X65380973Y-48074607D01*
X65421177Y-48022211D01*
X65972387Y-47471002D01*
X66054466Y-47416158D01*
X66151285Y-47396900D01*
X66323908Y-47396900D01*
X66323910Y-47396900D01*
X66323912Y-47396899D01*
X66323922Y-47396899D01*
X66438123Y-47381863D01*
X66541849Y-47368208D01*
X66754178Y-47311314D01*
X66754190Y-47311308D01*
X66759616Y-47309855D01*
X66858121Y-47303398D01*
X66951598Y-47335128D01*
X67025817Y-47400215D01*
X67069479Y-47488750D01*
X67078100Y-47554234D01*
X67078100Y-48165693D01*
X67078100Y-48375933D01*
X67119116Y-48582133D01*
X67196312Y-48768500D01*
X67199572Y-48776371D01*
X67316372Y-48951175D01*
X71772224Y-53407027D01*
X71899993Y-53492399D01*
X71947031Y-53523829D01*
X72141267Y-53604284D01*
X72347467Y-53645300D01*
X72721184Y-53645300D01*
X72818003Y-53664558D01*
X72900082Y-53719402D01*
X72940286Y-53771796D01*
X73024717Y-53918035D01*
X73083961Y-53995243D01*
X73155482Y-54088451D01*
X73158535Y-54092429D01*
X73313971Y-54247865D01*
X73380995Y-54299295D01*
X73458781Y-54358982D01*
X73523869Y-54433200D01*
X73555600Y-54526677D01*
X73549143Y-54625181D01*
X73505482Y-54713717D01*
X73431264Y-54778805D01*
X73337787Y-54810536D01*
X73304764Y-54812700D01*
X60435120Y-54812700D01*
X60224880Y-54812700D01*
X60037447Y-54849983D01*
X60018680Y-54853716D01*
X59824441Y-54934172D01*
X59649637Y-55050972D01*
X55491612Y-59208998D01*
X55409533Y-59263842D01*
X55312714Y-59283100D01*
X54573552Y-59283100D01*
X54527105Y-59285867D01*
X54527100Y-59285867D01*
X54527097Y-59285868D01*
X54524799Y-59286368D01*
X54324961Y-59329840D01*
X54134809Y-59411268D01*
X54134801Y-59411272D01*
X53963491Y-59527217D01*
X53817217Y-59673491D01*
X53701272Y-59844801D01*
X53701268Y-59844809D01*
X53619840Y-60034961D01*
X53575869Y-60237093D01*
X53575867Y-60237105D01*
X53573100Y-60283552D01*
X51054500Y-60283552D01*
X51054500Y-53588529D01*
X51073758Y-53491710D01*
X51128602Y-53409631D01*
X51210681Y-53354787D01*
X51307500Y-53335529D01*
X51404319Y-53354787D01*
X51404319Y-53354788D01*
X51529986Y-53406841D01*
X51742246Y-53463715D01*
X51960109Y-53492399D01*
X51960124Y-53492400D01*
X52179876Y-53492400D01*
X52179890Y-53492399D01*
X52397751Y-53463715D01*
X52397755Y-53463715D01*
X52610009Y-53406842D01*
X52813041Y-53322744D01*
X52813042Y-53322744D01*
X53003353Y-53212867D01*
X53062370Y-53167581D01*
X52117189Y-52222400D01*
X52123504Y-52222400D01*
X52226865Y-52194705D01*
X52319536Y-52141201D01*
X52395201Y-52065536D01*
X52448705Y-51972865D01*
X52476400Y-51869504D01*
X52476400Y-51863189D01*
X53421581Y-52808370D01*
X53466867Y-52749353D01*
X53576744Y-52559042D01*
X53576744Y-52559041D01*
X53660842Y-52356009D01*
X53717715Y-52143755D01*
X53717715Y-52143751D01*
X53746399Y-51925890D01*
X53746400Y-51925876D01*
X53746400Y-51706123D01*
X53746399Y-51706109D01*
X53717715Y-51488248D01*
X53717715Y-51488244D01*
X53660842Y-51275990D01*
X53576744Y-51072958D01*
X53576744Y-51072957D01*
X53466866Y-50882645D01*
X53466865Y-50882643D01*
X53421581Y-50823627D01*
X52476400Y-51768808D01*
X52476400Y-51762496D01*
X52448705Y-51659135D01*
X52395201Y-51566464D01*
X52319536Y-51490799D01*
X52226865Y-51437295D01*
X52123504Y-51409600D01*
X52117188Y-51409600D01*
X53062371Y-50464417D01*
X53062370Y-50464416D01*
X53003366Y-50419141D01*
X53003354Y-50419133D01*
X52813042Y-50309255D01*
X52610009Y-50225157D01*
X52397753Y-50168284D01*
X52179890Y-50139600D01*
X51960109Y-50139600D01*
X51742248Y-50168284D01*
X51742244Y-50168284D01*
X51529990Y-50225157D01*
X51404318Y-50277212D01*
X51307499Y-50296470D01*
X51210680Y-50277211D01*
X51128601Y-50222367D01*
X51073758Y-50140288D01*
X51054500Y-50043470D01*
X51054500Y-33024521D01*
X51054661Y-33015491D01*
X51072944Y-32503551D01*
X51074230Y-32485581D01*
X51128506Y-31980741D01*
X51131069Y-31962915D01*
X51221223Y-31463228D01*
X51225055Y-31445610D01*
X51350625Y-30953635D01*
X51355702Y-30936342D01*
X51516047Y-30454582D01*
X51522357Y-30437668D01*
X51564830Y-30335131D01*
X51579959Y-30298604D01*
X51634802Y-30216526D01*
X51716881Y-30161682D01*
X51813700Y-30142424D01*
X51910519Y-30161683D01*
X51992598Y-30216526D01*
X52047442Y-30298605D01*
X52066700Y-30395424D01*
X52066700Y-30667338D01*
X52103423Y-31040197D01*
X52103424Y-31040202D01*
X52163786Y-31343662D01*
X52176520Y-31407677D01*
X52176521Y-31407682D01*
X52285279Y-31766209D01*
X52357464Y-31940479D01*
X52428660Y-32112362D01*
X52605279Y-32442792D01*
X52811216Y-32750999D01*
X52813436Y-32754321D01*
X52813438Y-32754324D01*
X53004712Y-32987392D01*
X53051123Y-33043944D01*
X53316056Y-33308877D01*
X53605680Y-33546565D01*
X53917208Y-33754721D01*
X54247638Y-33931340D01*
X54593789Y-34074720D01*
X54952326Y-34183481D01*
X55319798Y-34256576D01*
X55692665Y-34293300D01*
X55692666Y-34293300D01*
X56067334Y-34293300D01*
X56067335Y-34293300D01*
X56440202Y-34256576D01*
X56807674Y-34183481D01*
X57166211Y-34074720D01*
X57512362Y-33931340D01*
X57842792Y-33754721D01*
X58154320Y-33546565D01*
X58443944Y-33308877D01*
X58708877Y-33043944D01*
X58946565Y-32754320D01*
X59154721Y-32442792D01*
X59331340Y-32112362D01*
X59474720Y-31766211D01*
X59583481Y-31407674D01*
X59656576Y-31040202D01*
X59693300Y-30667335D01*
X59693300Y-30292665D01*
X59656576Y-29919798D01*
X59583481Y-29552326D01*
X59474720Y-29193789D01*
X59331340Y-28847638D01*
X59154721Y-28517208D01*
X58946565Y-28205680D01*
X58708877Y-27916056D01*
X58443944Y-27651123D01*
X58443943Y-27651122D01*
X58154324Y-27413438D01*
X58154321Y-27413436D01*
X58154320Y-27413435D01*
X57842792Y-27205279D01*
X57512362Y-27028660D01*
X57166211Y-26885280D01*
X57166212Y-26885280D01*
X57166209Y-26885279D01*
X56807682Y-26776521D01*
X56807677Y-26776520D01*
X56807674Y-26776519D01*
X56440202Y-26703424D01*
X56440197Y-26703423D01*
X56067338Y-26666700D01*
X56067335Y-26666700D01*
X55795424Y-26666700D01*
X55698605Y-26647442D01*
X55616526Y-26592598D01*
X55561682Y-26510519D01*
X55542424Y-26413700D01*
X55561682Y-26316881D01*
X55616526Y-26234802D01*
X55698605Y-26179959D01*
X55837676Y-26122353D01*
X55854582Y-26116047D01*
X56336342Y-25955702D01*
X56353635Y-25950625D01*
X56845610Y-25825055D01*
X56863228Y-25821223D01*
X57362915Y-25731069D01*
X57380741Y-25728506D01*
X57885581Y-25674230D01*
X57903551Y-25672944D01*
X58415492Y-25654661D01*
X58424522Y-25654500D01*
X58464875Y-25654500D01*
X119335125Y-25654500D01*
X119375478Y-25654500D01*
X119384508Y-25654661D01*
G37*
%TD.AperFunction*%
%TD*%
M02*
