%TF.GenerationSoftware,KiCad,Pcbnew,9.0.6*%
%TF.CreationDate,2026-04-22T21:58:25-07:00*%
%TF.ProjectId,modulinAmplifier,6d6f6475-6c69-46e4-916d-706c69666965,rev?*%
%TF.SameCoordinates,Original*%
%TF.FileFunction,Soldermask,Top*%
%TF.FilePolarity,Negative*%
%FSLAX46Y46*%
G04 Gerber Fmt 4.6, Leading zero omitted, Abs format (unit mm)*
G04 Created by KiCad (PCBNEW 9.0.6) date 2026-04-22 21:58:25*
%MOMM*%
%LPD*%
G01*
G04 APERTURE LIST*
G04 Aperture macros list*
%AMRoundRect*
0 Rectangle with rounded corners*
0 $1 Rounding radius*
0 $2 $3 $4 $5 $6 $7 $8 $9 X,Y pos of 4 corners*
0 Add a 4 corners polygon primitive as box body*
4,1,4,$2,$3,$4,$5,$6,$7,$8,$9,$2,$3,0*
0 Add four circle primitives for the rounded corners*
1,1,$1+$1,$2,$3*
1,1,$1+$1,$4,$5*
1,1,$1+$1,$6,$7*
1,1,$1+$1,$8,$9*
0 Add four rect primitives between the rounded corners*
20,1,$1+$1,$2,$3,$4,$5,0*
20,1,$1+$1,$4,$5,$6,$7,0*
20,1,$1+$1,$6,$7,$8,$9,0*
20,1,$1+$1,$8,$9,$2,$3,0*%
G04 Aperture macros list end*
%ADD10C,1.727200*%
%ADD11C,1.200000*%
%ADD12O,2.540000X1.727200*%
%ADD13O,1.727200X2.540000*%
%ADD14O,2.540000X1.676400*%
%ADD15C,1.320800*%
%ADD16C,1.778000*%
%ADD17C,2.286000*%
%ADD18R,2.286000X2.286000*%
%ADD19C,3.302000*%
%ADD20C,12.000000*%
%ADD21O,18.000000X12.000000*%
%ADD22C,1.905000*%
%ADD23RoundRect,0.250001X1.149999X1.149999X-1.149999X1.149999X-1.149999X-1.149999X1.149999X-1.149999X0*%
%ADD24C,2.800000*%
%ADD25R,1.727200X1.727200*%
%ADD26RoundRect,0.269875X0.593725X-0.593725X0.593725X0.593725X-0.593725X0.593725X-0.593725X-0.593725X0*%
%ADD27RoundRect,0.269875X0.593725X0.593725X-0.593725X0.593725X-0.593725X-0.593725X0.593725X-0.593725X0*%
%ADD28RoundRect,0.269875X-0.593725X-0.593725X0.593725X-0.593725X0.593725X0.593725X-0.593725X0.593725X0*%
%ADD29C,6.000000*%
G04 APERTURE END LIST*
D10*
%TO.C,R3*%
X71374000Y-48768000D03*
X63754000Y-48768000D03*
%TD*%
%TO.C,C7*%
X61214000Y-45720000D03*
X66214000Y-45720000D03*
%TD*%
D11*
%TO.C,J2*%
X122428000Y-55800000D03*
X124928000Y-55800000D03*
X117428000Y-50800000D03*
X122428000Y-45800000D03*
X124928000Y-45800000D03*
D12*
X117428000Y-55800000D03*
X117428000Y-53300000D03*
D13*
X122428000Y-50800000D03*
D14*
X117428000Y-45800000D03*
X117428000Y-48300000D03*
%TD*%
D15*
%TO.C,U2*%
X82042000Y-44958000D03*
X79502000Y-44958000D03*
X76962000Y-44958000D03*
X74422000Y-44958000D03*
X74422000Y-52578000D03*
X76962000Y-52578000D03*
X79502000Y-52578000D03*
X82042000Y-52578000D03*
%TD*%
%TO.C,U1*%
X95250000Y-66802000D03*
X97790000Y-66802000D03*
X100330000Y-66802000D03*
X102870000Y-66802000D03*
X102870000Y-59182000D03*
X100330000Y-59182000D03*
X97790000Y-59182000D03*
X95250000Y-59182000D03*
%TD*%
D16*
%TO.C,RV1*%
X105918000Y-48768000D03*
D17*
X105918000Y-48768000D03*
D16*
X100838000Y-48768000D03*
D17*
X100838000Y-48768000D03*
D16*
X95758000Y-48768000D03*
D18*
X95758000Y-48768000D03*
D19*
X108838000Y-35768000D03*
D20*
X100838000Y-35768000D03*
D21*
X100838000Y-35768000D03*
%TD*%
D10*
%TO.C,R4*%
X52070000Y-51816000D03*
X62230000Y-51816000D03*
%TD*%
%TO.C,R2*%
X113030000Y-55880000D03*
X113030000Y-45720000D03*
%TD*%
%TO.C,R1*%
X91694000Y-58928000D03*
X91694000Y-48768000D03*
%TD*%
D22*
%TO.C,J3*%
X68580000Y-30480000D03*
X63580000Y-30480000D03*
%TD*%
D23*
%TO.C,J1*%
X78580000Y-71120000D03*
D24*
X73580000Y-71120000D03*
X68580000Y-71120000D03*
X63580000Y-71120000D03*
%TD*%
D25*
%TO.C,D2*%
X102870000Y-55880000D03*
D10*
X110490000Y-55880000D03*
%TD*%
D25*
%TO.C,D1*%
X110490000Y-53086000D03*
D10*
X102870000Y-53086000D03*
%TD*%
%TO.C,C10*%
X81026000Y-61174000D03*
X81026000Y-56174000D03*
%TD*%
D26*
%TO.C,C9*%
X61214000Y-41524000D03*
D10*
X61214000Y-37724000D03*
%TD*%
%TO.C,C8*%
X56214000Y-48768000D03*
X61214000Y-48768000D03*
%TD*%
D27*
%TO.C,C6*%
X76962000Y-58674000D03*
D10*
X73162000Y-58674000D03*
%TD*%
%TO.C,C5*%
X91694000Y-66762000D03*
X91694000Y-61762000D03*
%TD*%
%TO.C,C4*%
X102870000Y-74890000D03*
X102870000Y-69890000D03*
%TD*%
%TO.C,C3*%
X95290000Y-55880000D03*
X100290000Y-55880000D03*
%TD*%
D28*
%TO.C,C2*%
X64780000Y-60960000D03*
D10*
X68580000Y-60960000D03*
%TD*%
D28*
%TO.C,C1*%
X55250000Y-60960000D03*
D10*
X59050000Y-60960000D03*
%TD*%
D29*
%TO.C,REF\u002A\u002A*%
X121920000Y-71120000D03*
%TD*%
%TO.C,REF\u002A\u002A*%
X121920000Y-30480000D03*
%TD*%
%TO.C,REF\u002A\u002A*%
X55880000Y-30480000D03*
%TD*%
%TO.C,REF\u002A\u002A*%
X55880000Y-71120000D03*
%TD*%
D15*
%TO.C,RV2*%
X79542000Y-39116000D03*
X77002000Y-39116000D03*
X74462000Y-39116000D03*
%TD*%
M02*
