M48
; DRILL file {KiCad 9.0.6} date 2026-04-22T21:58:32-0700
; FORMAT={-:-/ absolute / metric / decimal}
; #@! TF.CreationDate,2026-04-22T21:58:32-07:00
; #@! TF.GenerationSoftware,Kicad,Pcbnew,9.0.6
; #@! TF.FileFunction,Plated,1,2,PTH
FMAT,2
METRIC
; #@! TA.AperFunction,Plated,PTH,ComponentDrill
T1C0.813
; #@! TA.AperFunction,Plated,PTH,ComponentDrill
T2C1.016
; #@! TA.AperFunction,Plated,PTH,ComponentDrill
T3C1.270
; #@! TA.AperFunction,Plated,PTH,ComponentDrill
T4C1.300
; #@! TA.AperFunction,Plated,PTH,ComponentDrill
T5C1.397
; #@! TA.AperFunction,Plated,PTH,ComponentDrill
T6C2.794
; #@! TA.AperFunction,Plated,PTH,ComponentDrill
T7C3.300
; #@! TA.AperFunction,Plated,PTH,ComponentDrill
T8C7.000
%
G90
G05
T1
X52.07Y-51.816
X55.25Y-60.96
X56.214Y-48.768
X59.05Y-60.96
X61.214Y-37.724
X61.214Y-41.524
X61.214Y-45.72
X61.214Y-48.768
X62.23Y-51.816
X63.754Y-48.768
X64.78Y-60.96
X66.214Y-45.72
X68.58Y-60.96
X71.374Y-48.768
X73.162Y-58.674
X74.422Y-44.958
X74.422Y-52.578
X74.462Y-39.116
X76.962Y-44.958
X76.962Y-52.578
X76.962Y-58.674
X77.002Y-39.116
X79.502Y-44.958
X79.502Y-52.578
X79.542Y-39.116
X81.026Y-56.174
X81.026Y-61.174
X82.042Y-44.958
X82.042Y-52.578
X91.694Y-48.768
X91.694Y-58.928
X91.694Y-61.762
X91.694Y-66.762
X95.25Y-59.182
X95.25Y-66.802
X95.29Y-55.88
X97.79Y-59.182
X97.79Y-66.802
X100.29Y-55.88
X100.33Y-59.182
X100.33Y-66.802
X102.87Y-59.182
X102.87Y-66.802
X102.87Y-69.89
X102.87Y-74.89
X113.03Y-45.72
X113.03Y-55.88
T2
X102.87Y-53.086
X102.87Y-55.88
X110.49Y-53.086
X110.49Y-55.88
T3
X95.758Y-48.768
X100.838Y-48.768
X105.918Y-48.768
T4
X63.58Y-71.12
X68.58Y-71.12
X73.58Y-71.12
X78.58Y-71.12
T5
X63.58Y-30.48
X68.58Y-30.48
T6
X108.838Y-35.768
T7
X55.88Y-30.48
X55.88Y-71.12
X121.92Y-30.48
X121.92Y-71.12
T8
X100.838Y-35.768
T1
G00X117.834Y-45.8
M15
G01X117.022Y-45.8
M16
G05
G00X117.834Y-48.3
M15
G01X117.022Y-48.3
M16
G05
G00X117.834Y-53.3
M15
G01X117.022Y-53.3
M16
G05
G00X117.834Y-55.8
M15
G01X117.022Y-55.8
M16
G05
G00X122.428Y-50.394
M15
G01X122.428Y-51.206
M16
G05
M30
