%TF.GenerationSoftware,KiCad,Pcbnew,9.0.6*%
%TF.CreationDate,2026-04-22T22:06:35-07:00*%
%TF.ProjectId,modulinVCO,6d6f6475-6c69-46e5-9643-4f2e6b696361,rev?*%
%TF.SameCoordinates,Original*%
%TF.FileFunction,Copper,L2,Bot*%
%TF.FilePolarity,Positive*%
%FSLAX46Y46*%
G04 Gerber Fmt 4.6, Leading zero omitted, Abs format (unit mm)*
G04 Created by KiCad (PCBNEW 9.0.6) date 2026-04-22 22:06:35*
%MOMM*%
%LPD*%
G01*
G04 APERTURE LIST*
G04 Aperture macros list*
%AMRoundRect*
0 Rectangle with rounded corners*
0 $1 Rounding radius*
0 $2 $3 $4 $5 $6 $7 $8 $9 X,Y pos of 4 corners*
0 Add a 4 corners polygon primitive as box body*
4,1,4,$2,$3,$4,$5,$6,$7,$8,$9,$2,$3,0*
0 Add four circle primitives for the rounded corners*
1,1,$1+$1,$2,$3*
1,1,$1+$1,$4,$5*
1,1,$1+$1,$6,$7*
1,1,$1+$1,$8,$9*
0 Add four rect primitives between the rounded corners*
20,1,$1+$1,$2,$3,$4,$5,0*
20,1,$1+$1,$4,$5,$6,$7,0*
20,1,$1+$1,$6,$7,$8,$9,0*
20,1,$1+$1,$8,$9,$2,$3,0*%
G04 Aperture macros list end*
%TA.AperFunction,ComponentPad*%
%ADD10C,1.320800*%
%TD*%
%TA.AperFunction,SMDPad,CuDef*%
%ADD11C,1.727200*%
%TD*%
%TA.AperFunction,ComponentPad*%
%ADD12C,6.000000*%
%TD*%
%TA.AperFunction,ComponentPad*%
%ADD13C,1.727200*%
%TD*%
%TA.AperFunction,SMDPad,CuDef*%
%ADD14RoundRect,0.250000X1.020000X0.613600X-1.020000X0.613600X-1.020000X-0.613600X1.020000X-0.613600X0*%
%TD*%
%TA.AperFunction,SMDPad,CuDef*%
%ADD15O,2.540000X1.727200*%
%TD*%
%TA.AperFunction,SMDPad,CuDef*%
%ADD16RoundRect,0.250000X-1.020000X-0.613600X1.020000X-0.613600X1.020000X0.613600X-1.020000X0.613600X0*%
%TD*%
%TA.AperFunction,ComponentPad*%
%ADD17R,1.727200X1.727200*%
%TD*%
%TA.AperFunction,SMDPad,CuDef*%
%ADD18C,1.676400*%
%TD*%
%TA.AperFunction,ComponentPad*%
%ADD19O,2.540000X1.727200*%
%TD*%
%TA.AperFunction,ComponentPad*%
%ADD20RoundRect,0.250000X1.020000X-0.613600X1.020000X0.613600X-1.020000X0.613600X-1.020000X-0.613600X0*%
%TD*%
%TA.AperFunction,ComponentPad*%
%ADD21RoundRect,0.250000X-1.020000X0.613600X-1.020000X-0.613600X1.020000X-0.613600X1.020000X0.613600X0*%
%TD*%
%TA.AperFunction,ComponentPad*%
%ADD22RoundRect,0.250000X-0.613600X-0.613600X0.613600X-0.613600X0.613600X0.613600X-0.613600X0.613600X0*%
%TD*%
%TA.AperFunction,ComponentPad*%
%ADD23C,1.676400*%
%TD*%
%TA.AperFunction,ComponentPad*%
%ADD24C,1.905000*%
%TD*%
%TA.AperFunction,SMDPad,CuDef*%
%ADD25C,2.794000*%
%TD*%
%TA.AperFunction,ComponentPad*%
%ADD26C,1.422400*%
%TD*%
%TA.AperFunction,ComponentPad*%
%ADD27O,1.727200X1.727200*%
%TD*%
%TA.AperFunction,ComponentPad*%
%ADD28RoundRect,0.250000X0.613600X0.613600X-0.613600X0.613600X-0.613600X-0.613600X0.613600X-0.613600X0*%
%TD*%
%TA.AperFunction,ComponentPad*%
%ADD29C,1.778000*%
%TD*%
%TA.AperFunction,ComponentPad*%
%ADD30C,3.302000*%
%TD*%
%TA.AperFunction,ComponentPad*%
%ADD31C,12.000000*%
%TD*%
%TA.AperFunction,ViaPad*%
%ADD32C,1.727200*%
%TD*%
%TA.AperFunction,Conductor*%
%ADD33C,0.508000*%
%TD*%
G04 APERTURE END LIST*
D10*
%TO.P,C18,1*%
%TO.N,/Osc Core*%
X61515000Y-84582000D03*
D11*
X61515000Y-84582000D03*
D10*
%TO.P,C18,2*%
%TO.N,Net-(C18-Pad2)*%
X56515000Y-84582000D03*
D11*
X56515000Y-84582000D03*
%TD*%
D12*
%TO.P,REF\u002A\u002A,MP*%
%TO.N,N/C*%
X30480000Y-20320000D03*
%TD*%
D13*
%TO.P,R33,1*%
%TO.N,GND*%
X52705000Y-50165000D03*
%TO.P,R33,2*%
%TO.N,Net-(Q4-B)*%
X62865000Y-50165000D03*
%TD*%
D10*
%TO.P,C19,1*%
%TO.N,Net-(U6B--)*%
X58547000Y-64429000D03*
D11*
X58547000Y-64429000D03*
D10*
%TO.P,C19,2*%
%TO.N,/Triangle*%
X58547000Y-69429000D03*
D11*
X58547000Y-69429000D03*
%TD*%
D10*
%TO.P,U7,1*%
%TO.N,Net-(R40-Pad2)*%
X71653400Y-37211000D03*
D14*
X71653400Y-37211000D03*
D10*
%TO.P,U7,2,-*%
%TO.N,Net-(Q4-C)*%
X71653400Y-34671000D03*
D15*
X71653400Y-34671000D03*
D10*
%TO.P,U7,3,+*%
%TO.N,Net-(Q5-C)*%
X71653400Y-32131000D03*
D15*
X71653400Y-32131000D03*
D10*
%TO.P,U7,4,V-*%
%TO.N,VEE*%
X71653400Y-29591000D03*
D15*
X71653400Y-29591000D03*
D10*
%TO.P,U7,5,+*%
%TO.N,GND*%
X64033400Y-29591000D03*
D15*
X64033400Y-29591000D03*
D10*
%TO.P,U7,6,-*%
%TO.N,Net-(U7B--)*%
X64033400Y-32131000D03*
D15*
X64033400Y-32131000D03*
D10*
%TO.P,U7,7*%
%TO.N,/Sine*%
X64033400Y-34671000D03*
D15*
X64033400Y-34671000D03*
D10*
%TO.P,U7,8,V+*%
%TO.N,VCC*%
X64033400Y-37211000D03*
D15*
X64033400Y-37211000D03*
%TD*%
D13*
%TO.P,R8,1*%
%TO.N,Net-(C1-Pad1)*%
X61214000Y-165100000D03*
%TO.P,R8,2*%
%TO.N,Net-(Q1-E)*%
X61214000Y-154940000D03*
%TD*%
%TO.P,C15,1*%
%TO.N,GND*%
X82002000Y-84074000D03*
%TO.P,C15,2*%
%TO.N,VEE*%
X77002000Y-84074000D03*
%TD*%
%TO.P,R48,1*%
%TO.N,Net-(R48-Pad1)*%
X43180000Y-173990000D03*
D10*
%TO.P,R48,2*%
%TO.N,Net-(U8B--)*%
X38100000Y-173990000D03*
D11*
X38100000Y-173990000D03*
%TD*%
D13*
%TO.P,R41,1*%
%TO.N,/Sine*%
X60579000Y-34160500D03*
D10*
%TO.P,R41,2*%
%TO.N,Net-(U7B--)*%
X60579000Y-31620500D03*
D11*
X60579000Y-31620500D03*
%TD*%
D13*
%TO.P,C3,1*%
%TO.N,Net-(C3-Pad1)*%
X79756000Y-146010000D03*
%TO.P,C3,2*%
%TO.N,Net-(U3C-+)*%
X79756000Y-141010000D03*
%TD*%
%TO.P,R16,1*%
%TO.N,/Osc Core*%
X72263000Y-115951000D03*
%TO.P,R16,2*%
%TO.N,Net-(U4A--)*%
X62103000Y-115951000D03*
%TD*%
%TO.P,R22,1*%
%TO.N,VEE*%
X86614000Y-85217000D03*
%TO.P,R22,2*%
%TO.N,Net-(R22-Pad2)*%
X96774000Y-85217000D03*
%TD*%
D10*
%TO.P,R3,1*%
%TO.N,NOTE*%
X68328500Y-182118000D03*
D11*
X68328500Y-182118000D03*
D13*
%TO.P,R3,2*%
%TO.N,Net-(U1D--)*%
X70868500Y-182118000D03*
%TD*%
%TO.P,R32,1*%
%TO.N,Net-(R32-Pad1)*%
X60706000Y-61722000D03*
%TO.P,R32,2*%
%TO.N,VCC*%
X50546000Y-61722000D03*
%TD*%
D10*
%TO.P,R18,1*%
%TO.N,Net-(R18-Pad1)*%
X61216500Y-127762000D03*
D11*
X61216500Y-127762000D03*
D13*
%TO.P,R18,2*%
%TO.N,Net-(R13-Pad1)*%
X63756500Y-127762000D03*
%TD*%
D10*
%TO.P,U4,1*%
%TO.N,Net-(SW1-C)*%
X66167000Y-97795000D03*
D16*
X66167000Y-97795000D03*
D10*
%TO.P,U4,2,-*%
%TO.N,Net-(U4A--)*%
X66167000Y-100335000D03*
D15*
X66167000Y-100335000D03*
D10*
%TO.P,U4,3,+*%
%TO.N,GND*%
X66167000Y-102875000D03*
D15*
X66167000Y-102875000D03*
D10*
%TO.P,U4,4,V+*%
%TO.N,VCC*%
X66167000Y-105415000D03*
D15*
X66167000Y-105415000D03*
D10*
%TO.P,U4,5,+*%
%TO.N,Net-(U4B-+)*%
X66167000Y-107955000D03*
D15*
X66167000Y-107955000D03*
D10*
%TO.P,U4,6,-*%
%TO.N,/PWM*%
X66167000Y-110495000D03*
D15*
X66167000Y-110495000D03*
D10*
%TO.P,U4,7*%
X66167000Y-113035000D03*
D15*
X66167000Y-113035000D03*
D10*
%TO.P,U4,8*%
%TO.N,Net-(RV9-Pad1)*%
X73787000Y-113035000D03*
D15*
X73787000Y-113035000D03*
D10*
%TO.P,U4,9,-*%
%TO.N,Net-(D1-A)*%
X73787000Y-110495000D03*
D15*
X73787000Y-110495000D03*
D10*
%TO.P,U4,10,+*%
%TO.N,/Osc Core*%
X73787000Y-107955000D03*
D15*
X73787000Y-107955000D03*
D10*
%TO.P,U4,11,V-*%
%TO.N,VEE*%
X73787000Y-105415000D03*
D15*
X73787000Y-105415000D03*
D10*
%TO.P,U4,12,+*%
%TO.N,GND*%
X73787000Y-102875000D03*
D15*
X73787000Y-102875000D03*
D10*
%TO.P,U4,13,-*%
%TO.N,Net-(U4D--)*%
X73787000Y-100335000D03*
D15*
X73787000Y-100335000D03*
D10*
%TO.P,U4,14*%
%TO.N,Net-(R24-Pad2)*%
X73787000Y-97795000D03*
D15*
X73787000Y-97795000D03*
%TD*%
D17*
%TO.P,D2,1,K*%
%TO.N,Net-(D1-K)*%
X83566000Y-110490000D03*
D13*
%TO.P,D2,2,A*%
%TO.N,GND*%
X88646000Y-110490000D03*
%TD*%
D10*
%TO.P,RV4,1,1*%
%TO.N,Net-(R5-Pad2)*%
X83820000Y-163830000D03*
D18*
X83820000Y-163830000D03*
D10*
%TO.P,RV4,2,2*%
%TO.N,Net-(Q1-B)*%
X83820000Y-161290000D03*
D18*
X83820000Y-161290000D03*
D10*
%TO.P,RV4,3,3*%
%TO.N,Net-(R6-Pad2)*%
X83820000Y-158750000D03*
D18*
X83820000Y-158750000D03*
%TD*%
D19*
%TO.P,Q4,1,C*%
%TO.N,Net-(Q4-C)*%
X70104000Y-46228000D03*
%TO.P,Q4,2,B*%
%TO.N,Net-(Q4-B)*%
X70104000Y-43688000D03*
D20*
%TO.P,Q4,3,E*%
%TO.N,Net-(Q4-E)*%
X70104000Y-41148000D03*
%TD*%
D13*
%TO.P,R19,1*%
%TO.N,GND*%
X64770000Y-134112000D03*
D10*
%TO.P,R19,2*%
%TO.N,Net-(R19-Pad2)*%
X62230000Y-134112000D03*
D11*
X62230000Y-134112000D03*
%TD*%
D20*
%TO.P,U2,1,VI*%
%TO.N,VCC*%
X65207000Y-181102000D03*
D19*
%TO.P,U2,2,GND*%
%TO.N,GND*%
X65207000Y-178562000D03*
%TO.P,U2,3,VO*%
%TO.N,Net-(U1B-+)*%
X65207000Y-176022000D03*
%TD*%
D13*
%TO.P,R44,1*%
%TO.N,Net-(U8A--)*%
X27940000Y-118110000D03*
%TO.P,R44,2*%
%TO.N,Net-(R44-Pad2)*%
X38100000Y-118110000D03*
%TD*%
%TO.P,R26,1*%
%TO.N,VEE*%
X86614000Y-80010000D03*
%TO.P,R26,2*%
%TO.N,Net-(D3-K)*%
X76454000Y-80010000D03*
%TD*%
D12*
%TO.P,REF\u002A\u002A,MP*%
%TO.N,N/C*%
X109220000Y-20320000D03*
%TD*%
D13*
%TO.P,R36,1*%
%TO.N,Net-(Q5-B)*%
X78486000Y-49657000D03*
%TO.P,R36,2*%
%TO.N,GND*%
X88646000Y-49657000D03*
%TD*%
D19*
%TO.P,Q5,1,C*%
%TO.N,Net-(Q5-C)*%
X75184000Y-41148000D03*
%TO.P,Q5,2,B*%
%TO.N,Net-(Q5-B)*%
X75184000Y-43688000D03*
D21*
%TO.P,Q5,3,E*%
%TO.N,Net-(Q5-E)*%
X75184000Y-46228000D03*
%TD*%
D13*
%TO.P,C10,1*%
%TO.N,VCC*%
X49032000Y-166878000D03*
D22*
%TO.P,C10,2*%
%TO.N,GND*%
X52832000Y-166878000D03*
%TD*%
D13*
%TO.P,C5,1*%
%TO.N,GND*%
X58634000Y-181864000D03*
%TO.P,C5,2*%
%TO.N,VCC*%
X53634000Y-181864000D03*
%TD*%
%TO.P,R42,1*%
%TO.N,Net-(U8A--)*%
X27940000Y-62230000D03*
%TO.P,R42,2*%
%TO.N,Net-(R42-Pad2)*%
X38100000Y-62230000D03*
%TD*%
D10*
%TO.P,RV5,1,1*%
%TO.N,VCC*%
X84074000Y-129032000D03*
D18*
X84074000Y-129032000D03*
D10*
%TO.P,RV5,2,2*%
%TO.N,Net-(U3D-+)*%
X84074000Y-131572000D03*
D18*
X84074000Y-131572000D03*
D10*
%TO.P,RV5,3,3*%
%TO.N,GND*%
X84074000Y-134112000D03*
D18*
X84074000Y-134112000D03*
%TD*%
D13*
%TO.P,R21,1*%
%TO.N,Net-(R21-Pad1)*%
X98298000Y-82550000D03*
%TO.P,R21,2*%
%TO.N,VCC*%
X90678000Y-82550000D03*
%TD*%
D19*
%TO.P,Q3,1,S*%
%TO.N,Net-(Q2-C)*%
X59944000Y-143256000D03*
%TO.P,Q3,2,G*%
%TO.N,Net-(Q3-G)*%
X59944000Y-145796000D03*
D21*
%TO.P,Q3,3,D*%
%TO.N,Net-(Q3-D)*%
X59944000Y-148336000D03*
%TD*%
D17*
%TO.P,D3,1,K*%
%TO.N,Net-(D3-K)*%
X66040000Y-75946000D03*
D13*
%TO.P,D3,2,A*%
%TO.N,Net-(D3-A)*%
X73660000Y-75946000D03*
%TD*%
%TO.P,R7,1*%
%TO.N,Net-(U1B--)*%
X56896000Y-171450000D03*
%TO.P,R7,2*%
%TO.N,Net-(Q1-C)*%
X56896000Y-161290000D03*
%TD*%
D10*
%TO.P,R14,1*%
%TO.N,Net-(U3D--)*%
X79756000Y-133096000D03*
D11*
X79756000Y-133096000D03*
D13*
%TO.P,R14,2*%
%TO.N,/Osc Core*%
X79756000Y-130556000D03*
%TD*%
%TO.P,C16,1*%
%TO.N,VCC*%
X62952000Y-72390000D03*
%TO.P,C16,2*%
%TO.N,GND*%
X57952000Y-72390000D03*
%TD*%
D19*
%TO.P,Q2,1,C*%
%TO.N,Net-(Q2-C)*%
X70612000Y-160020000D03*
%TO.P,Q2,2,B*%
%TO.N,GND*%
X70612000Y-157480000D03*
D20*
%TO.P,Q2,3,E*%
%TO.N,Net-(Q1-E)*%
X70612000Y-154940000D03*
%TD*%
D10*
%TO.P,RV9,1,1*%
%TO.N,Net-(RV9-Pad1)*%
X56896000Y-119253000D03*
D18*
X56896000Y-119253000D03*
D10*
%TO.P,RV9,2,2*%
%TO.N,Net-(U4B-+)*%
X56896000Y-116713000D03*
D18*
X56896000Y-116713000D03*
D10*
%TO.P,RV9,3,3*%
%TO.N,GND*%
X56896000Y-114173000D03*
D18*
X56896000Y-114173000D03*
%TD*%
D12*
%TO.P,REF\u002A\u002A,MP*%
%TO.N,N/C*%
X30480000Y-187960000D03*
%TD*%
D13*
%TO.P,C9,1*%
%TO.N,GND*%
X84502000Y-138176000D03*
%TO.P,C9,2*%
%TO.N,VEE*%
X79502000Y-138176000D03*
%TD*%
D10*
%TO.P,R47,1*%
%TO.N,Net-(U8B--)*%
X35560000Y-173990000D03*
D11*
X35560000Y-173990000D03*
D13*
%TO.P,R47,2*%
%TO.N,Net-(R46-Pad1)*%
X33020000Y-173990000D03*
%TD*%
%TO.P,R10,1*%
%TO.N,Net-(Q3-D)*%
X68834000Y-148844000D03*
%TO.P,R10,2*%
%TO.N,Net-(U3C-+)*%
X78994000Y-148844000D03*
%TD*%
%TO.P,R9,1*%
%TO.N,Net-(Q3-G)*%
X68834000Y-151638000D03*
%TO.P,R9,2*%
%TO.N,Net-(C3-Pad1)*%
X78994000Y-151638000D03*
%TD*%
%TO.P,R1,1*%
%TO.N,Net-(R1-Pad1)*%
X103632000Y-178816000D03*
%TO.P,R1,2*%
%TO.N,Net-(U1D--)*%
X93472000Y-178816000D03*
%TD*%
%TO.P,C6,1*%
%TO.N,VCC*%
X65492000Y-170688000D03*
%TO.P,C6,2*%
%TO.N,GND*%
X60492000Y-170688000D03*
%TD*%
D10*
%TO.P,RV6,1,1*%
%TO.N,Net-(R19-Pad2)*%
X56896000Y-132842000D03*
D18*
X56896000Y-132842000D03*
D10*
%TO.P,RV6,2,2*%
%TO.N,Net-(U3A--)*%
X56896000Y-130302000D03*
D18*
X56896000Y-130302000D03*
D10*
%TO.P,RV6,3,3*%
%TO.N,Net-(R18-Pad1)*%
X56896000Y-127762000D03*
D18*
X56896000Y-127762000D03*
%TD*%
D13*
%TO.P,C22,1*%
%TO.N,VCC*%
X48260000Y-177760000D03*
%TO.P,C22,2*%
%TO.N,GND*%
X48260000Y-172760000D03*
%TD*%
D10*
%TO.P,R46,1*%
%TO.N,Net-(R46-Pad1)*%
X33020000Y-177800000D03*
D11*
X33020000Y-177800000D03*
D13*
%TO.P,R46,2*%
%TO.N,Net-(U8A--)*%
X33020000Y-180340000D03*
%TD*%
D10*
%TO.P,C2,1*%
%TO.N,Net-(Q3-D)*%
X65024000Y-148296000D03*
D11*
X65024000Y-148296000D03*
D10*
%TO.P,C2,2*%
%TO.N,Net-(Q2-C)*%
X65024000Y-143296000D03*
D11*
X65024000Y-143296000D03*
%TD*%
D10*
%TO.P,R37,1*%
%TO.N,Net-(Q4-E)*%
X70104000Y-49657000D03*
D11*
X70104000Y-49657000D03*
D23*
%TO.P,R37,2*%
%TO.N,Net-(Q5-E)*%
X75184000Y-49657000D03*
%TD*%
D10*
%TO.P,R6,1*%
%TO.N,GND*%
X88646000Y-154432000D03*
D11*
X88646000Y-154432000D03*
D23*
%TO.P,R6,2*%
%TO.N,Net-(R6-Pad2)*%
X83566000Y-154432000D03*
%TD*%
D10*
%TO.P,RV11,1,1*%
%TO.N,/Triangle*%
X55880000Y-54356000D03*
D18*
X55880000Y-54356000D03*
D10*
%TO.P,RV11,2,2*%
X58420000Y-54356000D03*
D18*
X58420000Y-54356000D03*
D10*
%TO.P,RV11,3,3*%
%TO.N,Net-(Q4-B)*%
X60960000Y-54356000D03*
D18*
X60960000Y-54356000D03*
%TD*%
D10*
%TO.P,R28,1*%
%TO.N,Net-(U6A--)*%
X76962000Y-69852500D03*
D11*
X76962000Y-69852500D03*
D13*
%TO.P,R28,2*%
%TO.N,Net-(D3-A)*%
X76962000Y-72392500D03*
%TD*%
%TO.P,R39,1*%
%TO.N,Net-(Q5-C)*%
X79248000Y-37338000D03*
%TO.P,R39,2*%
%TO.N,GND*%
X89408000Y-37338000D03*
%TD*%
D24*
%TO.P,J1,1,Pin_1*%
%TO.N,VCC*%
X82100000Y-189008500D03*
D25*
X82100000Y-189008500D03*
D24*
%TO.P,J1,2,Pin_2*%
%TO.N,GND*%
X77100000Y-189008500D03*
D25*
X77100000Y-189008500D03*
D24*
%TO.P,J1,3,Pin_3*%
%TO.N,VEE*%
X72100000Y-189008500D03*
D25*
X72100000Y-189008500D03*
D24*
%TO.P,J1,4,Pin_4*%
%TO.N,NOTE*%
X67100000Y-189008500D03*
D25*
X67100000Y-189008500D03*
D24*
%TO.P,J1,5,Pin_5*%
%TO.N,LFO*%
X62100000Y-189008500D03*
D25*
X62100000Y-189008500D03*
D24*
%TO.P,J1,6,Pin_6*%
%TO.N,OUT*%
X57100000Y-189008500D03*
D25*
X57100000Y-189008500D03*
%TD*%
D10*
%TO.P,R5,1*%
%TO.N,Net-(U1D--)*%
X79502000Y-166367500D03*
D11*
X79502000Y-166367500D03*
D13*
%TO.P,R5,2*%
%TO.N,Net-(R5-Pad2)*%
X79502000Y-163827500D03*
%TD*%
%TO.P,C1,1*%
%TO.N,Net-(C1-Pad1)*%
X64770000Y-161330000D03*
%TO.P,C1,2*%
%TO.N,Net-(Q1-C)*%
X64770000Y-166330000D03*
%TD*%
%TO.P,R35,1*%
%TO.N,Net-(Q5-C)*%
X80518000Y-41148000D03*
%TO.P,R35,2*%
%TO.N,VCC*%
X90678000Y-41148000D03*
%TD*%
%TO.P,C20,1*%
%TO.N,VCC*%
X60793000Y-37211000D03*
%TO.P,C20,2*%
%TO.N,GND*%
X55793000Y-37211000D03*
%TD*%
D10*
%TO.P,R20,1*%
%TO.N,Net-(U5B--)*%
X79502000Y-95250000D03*
D11*
X79502000Y-95250000D03*
D23*
%TO.P,R20,2*%
%TO.N,Net-(U4D--)*%
X79502000Y-100330000D03*
%TD*%
D10*
%TO.P,U1,1*%
%TO.N,Net-(C1-Pad1)*%
X68834000Y-163835000D03*
D16*
X68834000Y-163835000D03*
D10*
%TO.P,U1,2,-*%
%TO.N,Net-(Q1-C)*%
X68834000Y-166375000D03*
D15*
X68834000Y-166375000D03*
D10*
%TO.P,U1,3,+*%
%TO.N,GND*%
X68834000Y-168915000D03*
D15*
X68834000Y-168915000D03*
D10*
%TO.P,U1,4,V+*%
%TO.N,VCC*%
X68834000Y-171455000D03*
D15*
X68834000Y-171455000D03*
D10*
%TO.P,U1,5,+*%
%TO.N,Net-(U1B-+)*%
X68834000Y-173995000D03*
D15*
X68834000Y-173995000D03*
D10*
%TO.P,U1,6,-*%
%TO.N,Net-(U1B--)*%
X68834000Y-176535000D03*
D15*
X68834000Y-176535000D03*
D10*
%TO.P,U1,7*%
X68834000Y-179075000D03*
D15*
X68834000Y-179075000D03*
D10*
%TO.P,U1,8*%
%TO.N,Net-(U1C--)*%
X76454000Y-179075000D03*
D15*
X76454000Y-179075000D03*
D10*
%TO.P,U1,9,-*%
X76454000Y-176535000D03*
D15*
X76454000Y-176535000D03*
D10*
%TO.P,U1,10,+*%
%TO.N,Net-(U1C-+)*%
X76454000Y-173995000D03*
D15*
X76454000Y-173995000D03*
D10*
%TO.P,U1,11,V-*%
%TO.N,VEE*%
X76454000Y-171455000D03*
D15*
X76454000Y-171455000D03*
D10*
%TO.P,U1,12,+*%
%TO.N,GND*%
X76454000Y-168915000D03*
D15*
X76454000Y-168915000D03*
D10*
%TO.P,U1,13,-*%
%TO.N,Net-(U1D--)*%
X76454000Y-166375000D03*
D15*
X76454000Y-166375000D03*
D10*
%TO.P,U1,14*%
%TO.N,Net-(R5-Pad2)*%
X76454000Y-163835000D03*
D15*
X76454000Y-163835000D03*
%TD*%
D10*
%TO.P,U5,1*%
%TO.N,Net-(U5A--)*%
X73660000Y-91694000D03*
D14*
X73660000Y-91694000D03*
D10*
%TO.P,U5,2,-*%
X73660000Y-89154000D03*
D15*
X73660000Y-89154000D03*
D10*
%TO.P,U5,3,+*%
%TO.N,Net-(U5A-+)*%
X73660000Y-86614000D03*
D15*
X73660000Y-86614000D03*
D10*
%TO.P,U5,4,V-*%
%TO.N,VEE*%
X73660000Y-84074000D03*
D15*
X73660000Y-84074000D03*
D10*
%TO.P,U5,5,+*%
%TO.N,Net-(U5B-+)*%
X66040000Y-84074000D03*
D15*
X66040000Y-84074000D03*
D10*
%TO.P,U5,6,-*%
%TO.N,Net-(U5B--)*%
X66040000Y-86614000D03*
D15*
X66040000Y-86614000D03*
D10*
%TO.P,U5,7*%
X66040000Y-89154000D03*
D15*
X66040000Y-89154000D03*
D10*
%TO.P,U5,8,V+*%
%TO.N,VCC*%
X66040000Y-91694000D03*
D15*
X66040000Y-91694000D03*
%TD*%
D12*
%TO.P,REF\u002A\u002A,MP*%
%TO.N,N/C*%
X69850000Y-121158000D03*
%TD*%
D13*
%TO.P,C21,1*%
%TO.N,GND*%
X79716000Y-29591000D03*
%TO.P,C21,2*%
%TO.N,VEE*%
X74716000Y-29591000D03*
%TD*%
%TO.P,C13,1*%
%TO.N,GND*%
X82002000Y-105410000D03*
%TO.P,C13,2*%
%TO.N,VEE*%
X77002000Y-105410000D03*
%TD*%
%TO.P,R38,1*%
%TO.N,VEE*%
X86614000Y-60452000D03*
%TO.P,R38,2*%
%TO.N,Net-(R38-Pad2)*%
X76454000Y-60452000D03*
%TD*%
D26*
%TO.P,SW1,1,A*%
%TO.N,/Osc Core*%
X56388000Y-104140000D03*
D11*
X56388000Y-104140000D03*
D26*
%TO.P,SW1,2,B*%
%TO.N,/Sawtooth*%
X56388000Y-101600000D03*
D11*
X56388000Y-101600000D03*
D26*
%TO.P,SW1,3,C*%
%TO.N,Net-(SW1-C)*%
X56388000Y-99060000D03*
D11*
X56388000Y-99060000D03*
%TD*%
D13*
%TO.P,R15,1*%
%TO.N,Net-(U1B-+)*%
X60452000Y-174752000D03*
%TO.P,R15,2*%
%TO.N,GND*%
X52832000Y-174752000D03*
%TD*%
%TO.P,R29,1*%
%TO.N,Net-(U6A--)*%
X79756000Y-69850000D03*
%TO.P,R29,2*%
%TO.N,/Osc Core*%
X79756000Y-77470000D03*
%TD*%
D17*
%TO.P,D1,1,K*%
%TO.N,Net-(D1-K)*%
X78994000Y-110490000D03*
D27*
%TO.P,D1,2,A*%
%TO.N,Net-(D1-A)*%
X76454000Y-110490000D03*
%TD*%
D13*
%TO.P,R23,1*%
%TO.N,Net-(U5A--)*%
X82042000Y-90170000D03*
%TO.P,R23,2*%
%TO.N,Net-(U4D--)*%
X82042000Y-100330000D03*
%TD*%
%TO.P,C11,1*%
%TO.N,GND*%
X86736000Y-179578000D03*
D28*
%TO.P,C11,2*%
%TO.N,VEE*%
X82936000Y-179578000D03*
%TD*%
D10*
%TO.P,R4,1*%
%TO.N,Net-(U1C--)*%
X77975500Y-182118000D03*
D11*
X77975500Y-182118000D03*
D13*
%TO.P,R4,2*%
%TO.N,Net-(U1D--)*%
X75435500Y-182118000D03*
%TD*%
D12*
%TO.P,REF\u002A\u002A,MP*%
%TO.N,N/C*%
X109220000Y-187960000D03*
%TD*%
D10*
%TO.P,U8,1*%
%TO.N,Net-(R46-Pad1)*%
X36830000Y-177800000D03*
D16*
X36830000Y-177800000D03*
D10*
%TO.P,U8,2,-*%
%TO.N,Net-(U8A--)*%
X36830000Y-180340000D03*
D15*
X36830000Y-180340000D03*
D10*
%TO.P,U8,3,+*%
%TO.N,GND*%
X36830000Y-182880000D03*
D15*
X36830000Y-182880000D03*
D10*
%TO.P,U8,4,V-*%
%TO.N,VEE*%
X36830000Y-185420000D03*
D15*
X36830000Y-185420000D03*
D10*
%TO.P,U8,5,+*%
%TO.N,GND*%
X44450000Y-185420000D03*
D15*
X44450000Y-185420000D03*
D10*
%TO.P,U8,6,-*%
%TO.N,Net-(U8B--)*%
X44450000Y-182880000D03*
D15*
X44450000Y-182880000D03*
D10*
%TO.P,U8,7*%
%TO.N,OUT*%
X44450000Y-180340000D03*
D15*
X44450000Y-180340000D03*
D10*
%TO.P,U8,8,V+*%
%TO.N,VCC*%
X44450000Y-177800000D03*
D15*
X44450000Y-177800000D03*
%TD*%
D13*
%TO.P,R27,1*%
%TO.N,Net-(D3-K)*%
X59055000Y-81534000D03*
D10*
%TO.P,R27,2*%
%TO.N,Net-(C18-Pad2)*%
X56515000Y-81534000D03*
D11*
X56515000Y-81534000D03*
%TD*%
D10*
%TO.P,R31,1*%
%TO.N,Net-(U6B--)*%
X62484000Y-66931500D03*
D11*
X62484000Y-66931500D03*
D13*
%TO.P,R31,2*%
%TO.N,/Triangle*%
X62484000Y-69471500D03*
%TD*%
D10*
%TO.P,RV13,1,1*%
%TO.N,Net-(R40-Pad2)*%
X69683000Y-24511000D03*
D18*
X69683000Y-24511000D03*
D10*
%TO.P,RV13,2,2*%
X67143000Y-24511000D03*
D18*
X67143000Y-24511000D03*
D10*
%TO.P,RV13,3,3*%
%TO.N,Net-(U7B--)*%
X64603000Y-24511000D03*
D18*
X64603000Y-24511000D03*
%TD*%
D10*
%TO.P,U6,1*%
%TO.N,Net-(D3-A)*%
X73660000Y-72390000D03*
D14*
X73660000Y-72390000D03*
D10*
%TO.P,U6,2,-*%
%TO.N,Net-(U6A--)*%
X73660000Y-69850000D03*
D15*
X73660000Y-69850000D03*
D10*
%TO.P,U6,3,+*%
%TO.N,GND*%
X73660000Y-67310000D03*
D15*
X73660000Y-67310000D03*
D10*
%TO.P,U6,4,V-*%
%TO.N,VEE*%
X73660000Y-64770000D03*
D15*
X73660000Y-64770000D03*
D10*
%TO.P,U6,5,+*%
%TO.N,Net-(U6B-+)*%
X66040000Y-64770000D03*
D15*
X66040000Y-64770000D03*
D10*
%TO.P,U6,6,-*%
%TO.N,Net-(U6B--)*%
X66040000Y-67310000D03*
D15*
X66040000Y-67310000D03*
D10*
%TO.P,U6,7*%
%TO.N,/Triangle*%
X66040000Y-69850000D03*
D15*
X66040000Y-69850000D03*
D10*
%TO.P,U6,8,V+*%
%TO.N,VCC*%
X66040000Y-72390000D03*
D15*
X66040000Y-72390000D03*
%TD*%
D13*
%TO.P,C7,1*%
%TO.N,GND*%
X84542000Y-171450000D03*
%TO.P,C7,2*%
%TO.N,VEE*%
X79542000Y-171450000D03*
%TD*%
%TO.P,R2,1*%
%TO.N,Net-(R2-Pad1)*%
X104140000Y-151384000D03*
%TO.P,R2,2*%
%TO.N,Net-(U1D--)*%
X93980000Y-151384000D03*
%TD*%
%TO.P,C8,1*%
%TO.N,VCC*%
X65786000Y-138176000D03*
%TO.P,C8,2*%
%TO.N,GND*%
X60786000Y-138176000D03*
%TD*%
%TO.P,R11,1*%
%TO.N,Net-(U3C--)*%
X83058000Y-146304000D03*
%TO.P,R11,2*%
%TO.N,VCC*%
X90678000Y-146304000D03*
%TD*%
%TO.P,C17,1*%
%TO.N,GND*%
X81748000Y-64770000D03*
%TO.P,C17,2*%
%TO.N,VEE*%
X76748000Y-64770000D03*
%TD*%
%TO.P,C23,1*%
%TO.N,GND*%
X41870000Y-189230000D03*
%TO.P,C23,2*%
%TO.N,VEE*%
X36870000Y-189230000D03*
%TD*%
%TO.P,R34,1*%
%TO.N,Net-(Q4-C)*%
X60706000Y-46228000D03*
%TO.P,R34,2*%
%TO.N,VCC*%
X50546000Y-46228000D03*
%TD*%
%TO.P,R13,1*%
%TO.N,Net-(R13-Pad1)*%
X67310000Y-127254000D03*
%TO.P,R13,2*%
%TO.N,Net-(U3D--)*%
X77470000Y-127254000D03*
%TD*%
%TO.P,C14,1*%
%TO.N,VCC*%
X62952000Y-91694000D03*
%TO.P,C14,2*%
%TO.N,GND*%
X57952000Y-91694000D03*
%TD*%
D10*
%TO.P,U3,1*%
%TO.N,Net-(R13-Pad1)*%
X68834000Y-130561000D03*
D16*
X68834000Y-130561000D03*
D10*
%TO.P,U3,2,-*%
%TO.N,Net-(U3A--)*%
X68834000Y-133101000D03*
D15*
X68834000Y-133101000D03*
D10*
%TO.P,U3,3,+*%
%TO.N,Net-(Q3-D)*%
X68834000Y-135641000D03*
D15*
X68834000Y-135641000D03*
D10*
%TO.P,U3,4,V+*%
%TO.N,VCC*%
X68834000Y-138181000D03*
D15*
X68834000Y-138181000D03*
D10*
%TO.P,U3,5,+*%
%TO.N,GND*%
X68834000Y-140721000D03*
D15*
X68834000Y-140721000D03*
D10*
%TO.P,U3,6,-*%
%TO.N,Net-(Q2-C)*%
X68834000Y-143261000D03*
D15*
X68834000Y-143261000D03*
D10*
%TO.P,U3,7*%
%TO.N,Net-(Q3-D)*%
X68834000Y-145801000D03*
D15*
X68834000Y-145801000D03*
D10*
%TO.P,U3,8*%
%TO.N,Net-(C3-Pad1)*%
X76454000Y-145801000D03*
D15*
X76454000Y-145801000D03*
D10*
%TO.P,U3,9,-*%
%TO.N,Net-(U3C--)*%
X76454000Y-143261000D03*
D15*
X76454000Y-143261000D03*
D10*
%TO.P,U3,10,+*%
%TO.N,Net-(U3C-+)*%
X76454000Y-140721000D03*
D15*
X76454000Y-140721000D03*
D10*
%TO.P,U3,11,V-*%
%TO.N,VEE*%
X76454000Y-138181000D03*
D15*
X76454000Y-138181000D03*
D10*
%TO.P,U3,12,+*%
%TO.N,Net-(U3D-+)*%
X76454000Y-135641000D03*
D15*
X76454000Y-135641000D03*
D10*
%TO.P,U3,13,-*%
%TO.N,Net-(U3D--)*%
X76454000Y-133101000D03*
D15*
X76454000Y-133101000D03*
D10*
%TO.P,U3,14*%
%TO.N,/Osc Core*%
X76454000Y-130561000D03*
D15*
X76454000Y-130561000D03*
%TD*%
D13*
%TO.P,R43,1*%
%TO.N,Net-(U8A--)*%
X27940000Y-90170000D03*
%TO.P,R43,2*%
%TO.N,Net-(R43-Pad2)*%
X38100000Y-90170000D03*
%TD*%
D10*
%TO.P,RV10,1,1*%
%TO.N,Net-(R32-Pad1)*%
X64810000Y-60198000D03*
D18*
X64810000Y-60198000D03*
D10*
%TO.P,RV10,2,2*%
%TO.N,Net-(U6B-+)*%
X67350000Y-60198000D03*
D18*
X67350000Y-60198000D03*
D10*
%TO.P,RV10,3,3*%
%TO.N,GND*%
X69890000Y-60198000D03*
D18*
X69890000Y-60198000D03*
%TD*%
D13*
%TO.P,C4,1*%
%TO.N,GND*%
X54904000Y-178054000D03*
%TO.P,C4,2*%
%TO.N,Net-(U1B-+)*%
X59904000Y-178054000D03*
%TD*%
D10*
%TO.P,R24,1*%
%TO.N,Net-(U4D--)*%
X76708000Y-100330000D03*
D11*
X76708000Y-100330000D03*
D13*
%TO.P,R24,2*%
%TO.N,Net-(R24-Pad2)*%
X76708000Y-97790000D03*
%TD*%
D17*
%TO.P,D4,1,K*%
%TO.N,Net-(D3-K)*%
X66040000Y-78740000D03*
D13*
%TO.P,D4,2,A*%
%TO.N,/Osc Core*%
X73660000Y-78740000D03*
%TD*%
%TO.P,R25,1*%
%TO.N,Net-(R24-Pad2)*%
X84582000Y-97536000D03*
%TO.P,R25,2*%
%TO.N,Net-(D1-A)*%
X84582000Y-107696000D03*
%TD*%
D10*
%TO.P,R12,1*%
%TO.N,Net-(U3C--)*%
X83566000Y-143256000D03*
D11*
X83566000Y-143256000D03*
D23*
%TO.P,R12,2*%
%TO.N,GND*%
X88646000Y-143256000D03*
%TD*%
D19*
%TO.P,Q1,1,C*%
%TO.N,Net-(Q1-C)*%
X75692000Y-154940000D03*
%TO.P,Q1,2,B*%
%TO.N,Net-(Q1-B)*%
X75692000Y-157480000D03*
D21*
%TO.P,Q1,3,E*%
%TO.N,Net-(Q1-E)*%
X75692000Y-160020000D03*
%TD*%
D13*
%TO.P,R30,1*%
%TO.N,Net-(D3-K)*%
X54864000Y-76073000D03*
%TO.P,R30,2*%
%TO.N,Net-(U6B--)*%
X54864000Y-65913000D03*
%TD*%
%TO.P,R45,1*%
%TO.N,Net-(U8A--)*%
X27940000Y-146050000D03*
%TO.P,R45,2*%
%TO.N,Net-(R45-Pad2)*%
X38100000Y-146050000D03*
%TD*%
D10*
%TO.P,RV12,1,1*%
%TO.N,Net-(Q5-E)*%
X75184000Y-54483000D03*
D18*
X75184000Y-54483000D03*
D10*
%TO.P,RV12,2,2*%
%TO.N,Net-(R38-Pad2)*%
X72644000Y-54483000D03*
D18*
X72644000Y-54483000D03*
D10*
%TO.P,RV12,3,3*%
%TO.N,Net-(Q4-E)*%
X70104000Y-54483000D03*
D18*
X70104000Y-54483000D03*
%TD*%
D10*
%TO.P,R17,1*%
%TO.N,Net-(U4A--)*%
X62738000Y-100330000D03*
D11*
X62738000Y-100330000D03*
D13*
%TO.P,R17,2*%
%TO.N,Net-(SW1-C)*%
X62738000Y-97790000D03*
%TD*%
%TO.P,R40,1*%
%TO.N,Net-(Q4-C)*%
X74803000Y-34673500D03*
D10*
%TO.P,R40,2*%
%TO.N,Net-(R40-Pad2)*%
X74803000Y-37213500D03*
D11*
X74803000Y-37213500D03*
%TD*%
D13*
%TO.P,C12,1*%
%TO.N,VCC*%
X61214000Y-105450000D03*
%TO.P,C12,2*%
%TO.N,GND*%
X61214000Y-110450000D03*
%TD*%
D29*
%TO.P,RV17,1,1*%
%TO.N,GND*%
X43180000Y-142540000D03*
%TO.P,RV17,2,2*%
%TO.N,Net-(R45-Pad2)*%
X38100000Y-142540000D03*
%TO.P,RV17,3,3*%
%TO.N,/PWM*%
X33020000Y-142540000D03*
D30*
%TO.P,RV17,MP*%
%TO.N,N/C*%
X46100000Y-129540000D03*
D31*
X38100000Y-129540000D03*
%TD*%
D29*
%TO.P,RV1,1,1*%
%TO.N,VEE*%
X106680000Y-147620000D03*
%TO.P,RV1,2,2*%
%TO.N,Net-(R2-Pad1)*%
X101600000Y-147620000D03*
%TO.P,RV1,3,3*%
%TO.N,VCC*%
X96520000Y-147620000D03*
D30*
%TO.P,RV1,MP*%
%TO.N,N/C*%
X109600000Y-134620000D03*
D31*
X101600000Y-134620000D03*
%TD*%
D29*
%TO.P,RV16,1,1*%
%TO.N,GND*%
X43180000Y-114600000D03*
%TO.P,RV16,2,2*%
%TO.N,Net-(R44-Pad2)*%
X38100000Y-114600000D03*
%TO.P,RV16,3,3*%
%TO.N,/Sawtooth*%
X33020000Y-114600000D03*
D30*
%TO.P,RV16,MP*%
%TO.N,N/C*%
X46100000Y-101600000D03*
D31*
X38100000Y-101600000D03*
%TD*%
D29*
%TO.P,RV3,1,1*%
%TO.N,LFO*%
X106680000Y-119680000D03*
%TO.P,RV3,2,2*%
%TO.N,Net-(U1C-+)*%
X101600000Y-119680000D03*
%TO.P,RV3,3,3*%
%TO.N,GND*%
X96520000Y-119680000D03*
D30*
%TO.P,RV3,MP*%
%TO.N,N/C*%
X109600000Y-106680000D03*
D31*
X101600000Y-106680000D03*
%TD*%
D29*
%TO.P,RV14,1,1*%
%TO.N,GND*%
X43180000Y-58720000D03*
%TO.P,RV14,2,2*%
%TO.N,Net-(R42-Pad2)*%
X38100000Y-58720000D03*
%TO.P,RV14,3,3*%
%TO.N,/Sine*%
X33020000Y-58720000D03*
D30*
%TO.P,RV14,MP*%
%TO.N,N/C*%
X46100000Y-45720000D03*
D31*
X38100000Y-45720000D03*
%TD*%
D29*
%TO.P,RV7,1,1*%
%TO.N,LFO*%
X106680000Y-51100000D03*
%TO.P,RV7,2,2*%
%TO.N,Net-(U5B-+)*%
X101600000Y-51100000D03*
%TO.P,RV7,3,3*%
%TO.N,GND*%
X96520000Y-51100000D03*
D30*
%TO.P,RV7,MP*%
%TO.N,N/C*%
X109600000Y-38100000D03*
D31*
X101600000Y-38100000D03*
%TD*%
D29*
%TO.P,RV18,1,1*%
%TO.N,Net-(R48-Pad1)*%
X43180000Y-170480000D03*
%TO.P,RV18,2,2*%
%TO.N,OUT*%
X38100000Y-170480000D03*
%TO.P,RV18,3,3*%
X33020000Y-170480000D03*
D30*
%TO.P,RV18,MP*%
%TO.N,N/C*%
X46100000Y-157480000D03*
D31*
X38100000Y-157480000D03*
%TD*%
D29*
%TO.P,RV2,1,1*%
%TO.N,VEE*%
X106680000Y-175560000D03*
%TO.P,RV2,2,2*%
%TO.N,Net-(R1-Pad1)*%
X101600000Y-175560000D03*
%TO.P,RV2,3,3*%
%TO.N,VCC*%
X96520000Y-175560000D03*
D30*
%TO.P,RV2,MP*%
%TO.N,N/C*%
X109600000Y-162560000D03*
D31*
X101600000Y-162560000D03*
%TD*%
D29*
%TO.P,RV8,1,1*%
%TO.N,Net-(R22-Pad2)*%
X106680000Y-79040000D03*
%TO.P,RV8,2,2*%
%TO.N,Net-(U5A-+)*%
X101600000Y-79040000D03*
%TO.P,RV8,3,3*%
%TO.N,Net-(R21-Pad1)*%
X96520000Y-79040000D03*
D30*
%TO.P,RV8,MP*%
%TO.N,N/C*%
X109600000Y-66040000D03*
D31*
X101600000Y-66040000D03*
%TD*%
D29*
%TO.P,RV15,1,1*%
%TO.N,GND*%
X43180000Y-86660000D03*
%TO.P,RV15,2,2*%
%TO.N,Net-(R43-Pad2)*%
X38100000Y-86660000D03*
%TO.P,RV15,3,3*%
%TO.N,/Triangle*%
X33020000Y-86660000D03*
D30*
%TO.P,RV15,MP*%
%TO.N,N/C*%
X46100000Y-73660000D03*
D31*
X38100000Y-73660000D03*
%TD*%
D32*
%TO.N,Net-(Q1-C)*%
X72898000Y-162814000D03*
%TO.N,GND*%
X88646000Y-171450000D03*
X96520000Y-54483000D03*
X48630233Y-140345767D03*
X52679600Y-114300000D03*
X50800000Y-182880000D03*
X52679600Y-91694000D03*
X88646000Y-105410000D03*
X52679600Y-157480000D03*
X48631233Y-55626000D03*
X88646000Y-54483000D03*
X88551001Y-64675001D03*
X48514000Y-114554000D03*
X88646000Y-138176000D03*
X82931000Y-183515000D03*
X47244000Y-86868000D03*
X88646000Y-83566000D03*
X92608400Y-119634000D03*
%TO.N,VCC*%
X50561633Y-80645000D03*
X50561633Y-94234000D03*
X50561633Y-136144000D03*
X50561633Y-108712000D03*
X90678000Y-129032000D03*
X86360000Y-183642000D03*
%TO.N,VEE*%
X101978200Y-142877800D03*
X96005527Y-170186473D03*
X86614000Y-149352000D03*
X80643233Y-182411489D03*
X86614000Y-173609000D03*
X88900000Y-187960000D03*
%TO.N,/Osc Core*%
X70358000Y-105918000D03*
%TO.N,/Triangle*%
X47244000Y-80157264D03*
%TO.N,Net-(U1B--)*%
X71981100Y-179069681D03*
%TO.N,LFO*%
X88900000Y-191770000D03*
%TO.N,Net-(U5A-+)*%
X101600000Y-82677000D03*
%TO.N,Net-(U5B-+)*%
X101600000Y-54356000D03*
%TO.N,/Sawtooth*%
X48006000Y-110744000D03*
X54610000Y-110744000D03*
%TO.N,/PWM*%
X47752000Y-136144000D03*
%TO.N,OUT*%
X41098200Y-177800000D03*
%TO.N,Net-(RV9-Pad1)*%
X60960000Y-119126000D03*
X70612000Y-113030000D03*
%TO.N,Net-(U1C-+)*%
X102489000Y-185039000D03*
%TO.N,Net-(U4A--)*%
X62738000Y-102870000D03*
%TD*%
D33*
%TO.N,Net-(Q2-C)*%
X68799000Y-143296000D02*
X68834000Y-143261000D01*
X59944000Y-143256000D02*
X64984000Y-143256000D01*
X64984000Y-143256000D02*
X65024000Y-143296000D01*
X65024000Y-143296000D02*
X68799000Y-143296000D01*
%TO.N,Net-(C1-Pad1)*%
X61214000Y-165100000D02*
X62479000Y-163835000D01*
X62479000Y-163835000D02*
X64770000Y-163835000D01*
X64770000Y-163835000D02*
X68834000Y-163835000D01*
X64770000Y-161330000D02*
X64770000Y-163835000D01*
%TO.N,Net-(Q1-C)*%
X72898000Y-163244946D02*
X72898000Y-162814000D01*
X68834000Y-166375000D02*
X69767946Y-166375000D01*
X64770000Y-166330000D02*
X68789000Y-166330000D01*
X69767946Y-166375000D02*
X72898000Y-163244946D01*
X68789000Y-166330000D02*
X68834000Y-166375000D01*
%TO.N,Net-(Q3-D)*%
X68834000Y-145801000D02*
X68834000Y-149098000D01*
X69431812Y-135641000D02*
X68834000Y-135641000D01*
X59944000Y-148336000D02*
X64984000Y-148336000D01*
X72136000Y-138345188D02*
X69431812Y-135641000D01*
X64984000Y-148336000D02*
X65024000Y-148296000D01*
X69431812Y-145801000D02*
X72136000Y-143096812D01*
X72136000Y-143096812D02*
X72136000Y-138345188D01*
X68286000Y-148296000D02*
X68834000Y-148844000D01*
X68834000Y-145801000D02*
X69431812Y-145801000D01*
X65024000Y-148296000D02*
X68286000Y-148296000D01*
%TO.N,Net-(C3-Pad1)*%
X80925400Y-149706600D02*
X80925400Y-147179400D01*
X78994000Y-151638000D02*
X80925400Y-149706600D01*
X76454000Y-145801000D02*
X79547000Y-145801000D01*
X79547000Y-145801000D02*
X79756000Y-146010000D01*
X80925400Y-147179400D02*
X79756000Y-146010000D01*
%TO.N,GND*%
X84074000Y-137748000D02*
X84502000Y-138176000D01*
X68834000Y-140721000D02*
X63331000Y-140721000D01*
X84502000Y-138176000D02*
X88646000Y-138176000D01*
X52832000Y-174752000D02*
X57190000Y-174752000D01*
X69810000Y-60198000D02*
X69810000Y-64057812D01*
X73062188Y-67310000D02*
X73660000Y-67310000D01*
X79208000Y-67310000D02*
X81748000Y-64770000D01*
X38100000Y-182880000D02*
X40640000Y-185420000D01*
X44450000Y-186650000D02*
X41870000Y-189230000D01*
X50800000Y-182158000D02*
X54904000Y-178054000D01*
X50800000Y-182880000D02*
X50800000Y-182158000D01*
X64008000Y-29591000D02*
X64605812Y-29591000D01*
X76454000Y-168915000D02*
X82007000Y-168915000D01*
X70612000Y-157480000D02*
X52679600Y-157480000D01*
X57190000Y-173950000D02*
X57190000Y-174752000D01*
X47244000Y-86868000D02*
X47853600Y-86868000D01*
X65786000Y-39624000D02*
X58206000Y-39624000D01*
X60699000Y-110450000D02*
X56896000Y-114253000D01*
X52806600Y-114173000D02*
X52679600Y-114300000D01*
X52324000Y-114300000D02*
X52679600Y-114300000D01*
X44450000Y-185420000D02*
X44450000Y-186650000D01*
X96520000Y-54483000D02*
X88646000Y-54483000D01*
X69810000Y-64057812D02*
X73062188Y-67310000D01*
X92608400Y-119634000D02*
X88646000Y-115671600D01*
X63331000Y-140721000D02*
X60786000Y-138176000D01*
X82007000Y-168915000D02*
X84542000Y-171450000D01*
X84074000Y-134112000D02*
X84074000Y-137748000D01*
X73660000Y-67310000D02*
X79208000Y-67310000D01*
X61214000Y-110450000D02*
X60699000Y-110450000D01*
X40640000Y-185420000D02*
X44450000Y-185420000D01*
X77437500Y-189008500D02*
X77100000Y-189008500D01*
X81748000Y-64770000D02*
X88456002Y-64770000D01*
X82002000Y-84074000D02*
X83526000Y-82550000D01*
X48514000Y-114554000D02*
X52425600Y-114554000D01*
X48260000Y-172760000D02*
X50840000Y-172760000D01*
X88456002Y-64770000D02*
X88551001Y-64675001D01*
X83526000Y-82550000D02*
X87630000Y-82550000D01*
X60704013Y-179985400D02*
X59103987Y-179985400D01*
X73787000Y-102875000D02*
X79467000Y-102875000D01*
X88646000Y-115671600D02*
X88646000Y-110490000D01*
X84542000Y-171450000D02*
X88646000Y-171450000D01*
X59103987Y-179985400D02*
X57190000Y-178071413D01*
X36830000Y-182880000D02*
X38100000Y-182880000D01*
X66167000Y-102875000D02*
X73787000Y-102875000D01*
X56896000Y-114173000D02*
X52806600Y-114173000D01*
X48631233Y-55626000D02*
X52705000Y-51552233D01*
X64605812Y-29591000D02*
X67056000Y-32041188D01*
X65207000Y-178562000D02*
X62127413Y-178562000D01*
X57190000Y-178071413D02*
X57190000Y-174752000D01*
X50800000Y-138176000D02*
X60786000Y-138176000D01*
X68834000Y-168915000D02*
X68321000Y-168402000D01*
X62738000Y-168402000D02*
X57190000Y-173950000D01*
X67056000Y-38354000D02*
X65786000Y-39624000D01*
X52425600Y-114554000D02*
X52679600Y-114300000D01*
X52705000Y-51552233D02*
X52705000Y-50165000D01*
X58206000Y-39624000D02*
X55793000Y-37211000D01*
X48630233Y-140345767D02*
X50800000Y-138176000D01*
X79467000Y-102875000D02*
X82002000Y-105410000D01*
X67056000Y-32041188D02*
X67056000Y-38354000D01*
X47853600Y-86868000D02*
X52679600Y-91694000D01*
X87630000Y-82550000D02*
X88646000Y-83566000D01*
X82002000Y-105410000D02*
X88646000Y-105410000D01*
X68321000Y-168402000D02*
X62738000Y-168402000D01*
X50840000Y-172760000D02*
X52832000Y-174752000D01*
X82931000Y-183515000D02*
X77437500Y-189008500D01*
X62127413Y-178562000D02*
X60704013Y-179985400D01*
%TO.N,VCC*%
X60793000Y-37211000D02*
X64008000Y-37211000D01*
X61497600Y-184811400D02*
X65207000Y-181102000D01*
X82100000Y-189008500D02*
X82100000Y-187902000D01*
X65786000Y-138176000D02*
X63754000Y-136144000D01*
X54583600Y-80671400D02*
X50588033Y-80671400D01*
X62952000Y-91694000D02*
X60412000Y-94234000D01*
X63754000Y-136144000D02*
X50561633Y-136144000D01*
X53674000Y-181864000D02*
X56621400Y-184811400D01*
X62865000Y-72390000D02*
X54583600Y-80671400D01*
X60198000Y-108712000D02*
X50561633Y-108712000D01*
X65786000Y-138176000D02*
X68829000Y-138176000D01*
X68834000Y-171455000D02*
X66259000Y-171455000D01*
X60412000Y-94234000D02*
X50561633Y-94234000D01*
X61214000Y-105450000D02*
X61214000Y-107696000D01*
X68829000Y-138176000D02*
X68834000Y-138181000D01*
X66259000Y-171455000D02*
X65492000Y-170688000D01*
X66132000Y-105450000D02*
X66167000Y-105415000D01*
X62952000Y-72390000D02*
X62865000Y-72390000D01*
X82100000Y-187902000D02*
X86360000Y-183642000D01*
X61214000Y-107696000D02*
X60198000Y-108712000D01*
X62952000Y-72390000D02*
X66040000Y-72390000D01*
X44490000Y-177760000D02*
X44450000Y-177800000D01*
X84074000Y-129032000D02*
X90678000Y-129032000D01*
X56621400Y-184811400D02*
X61497600Y-184811400D01*
X61214000Y-105450000D02*
X66132000Y-105450000D01*
X53634000Y-181864000D02*
X53674000Y-181864000D01*
X50588033Y-80671400D02*
X50561633Y-80645000D01*
X48260000Y-177760000D02*
X44490000Y-177760000D01*
X62952000Y-91694000D02*
X66040000Y-91694000D01*
%TO.N,VEE*%
X101978200Y-142877800D02*
X101848400Y-142748000D01*
X90703400Y-173609000D02*
X86614000Y-173609000D01*
X88900000Y-183450587D02*
X87059413Y-181610000D01*
X80643233Y-182411489D02*
X77380722Y-185674000D01*
X94132400Y-170180000D02*
X90703400Y-173609000D01*
X76997000Y-105415000D02*
X77002000Y-105410000D01*
X91186000Y-149352000D02*
X86614000Y-149352000D01*
X73660000Y-64770000D02*
X76748000Y-64770000D01*
X97790000Y-142748000D02*
X91186000Y-149352000D01*
X79490200Y-86562200D02*
X85268800Y-86562200D01*
X79537000Y-171455000D02*
X79542000Y-171450000D01*
X76459000Y-138176000D02*
X76454000Y-138181000D01*
X75184000Y-185674000D02*
X72100000Y-188758000D01*
X36830000Y-185420000D02*
X36830000Y-189190000D01*
X77380722Y-185674000D02*
X75184000Y-185674000D01*
X81444722Y-181610000D02*
X80643233Y-182411489D01*
X88900000Y-187960000D02*
X88900000Y-183450587D01*
X36830000Y-189190000D02*
X36870000Y-189230000D01*
X76454000Y-171455000D02*
X79537000Y-171455000D01*
X95999054Y-170180000D02*
X94132400Y-170180000D01*
X71628000Y-29591000D02*
X74716000Y-29591000D01*
X101848400Y-142748000D02*
X97790000Y-142748000D01*
X73787000Y-105415000D02*
X76997000Y-105415000D01*
X87059413Y-181610000D02*
X81444722Y-181610000D01*
X73660000Y-84074000D02*
X77002000Y-84074000D01*
X96005527Y-170186473D02*
X95999054Y-170180000D01*
X72100000Y-188758000D02*
X72100000Y-189008500D01*
X85268800Y-86562200D02*
X86614000Y-85217000D01*
X77002000Y-84074000D02*
X79490200Y-86562200D01*
X79502000Y-138176000D02*
X76459000Y-138176000D01*
%TO.N,Net-(C18-Pad2)*%
X56515000Y-81534000D02*
X56515000Y-84582000D01*
%TO.N,/Osc Core*%
X70353000Y-105923000D02*
X70358000Y-105918000D01*
X72263000Y-115951000D02*
X72263000Y-116078000D01*
X63954400Y-82142600D02*
X66102092Y-82142600D01*
X70353000Y-107955000D02*
X70353000Y-105923000D01*
X73787000Y-107955000D02*
X70353000Y-107955000D01*
X74930000Y-77470000D02*
X79756000Y-77470000D01*
X68580000Y-109728000D02*
X68580000Y-114300000D01*
X70231000Y-115951000D02*
X72263000Y-115951000D01*
X61515000Y-84582000D02*
X63954400Y-82142600D01*
X79756000Y-130556000D02*
X76459000Y-130556000D01*
X68580000Y-114300000D02*
X70231000Y-115951000D01*
X73660000Y-78740000D02*
X74930000Y-77470000D01*
X72263000Y-116078000D02*
X79756000Y-123571000D01*
X70353000Y-107955000D02*
X68580000Y-109728000D01*
X79756000Y-123571000D02*
X79756000Y-130556000D01*
X76459000Y-130556000D02*
X76454000Y-130561000D01*
X69504692Y-78740000D02*
X73660000Y-78740000D01*
X66102092Y-82142600D02*
X69504692Y-78740000D01*
%TO.N,Net-(U6B--)*%
X59981500Y-64429000D02*
X62484000Y-66931500D01*
X57063000Y-65913000D02*
X58547000Y-64429000D01*
X58547000Y-64429000D02*
X59981500Y-64429000D01*
X62484000Y-66931500D02*
X65661500Y-66931500D01*
X54864000Y-65913000D02*
X57063000Y-65913000D01*
X65661500Y-66931500D02*
X66040000Y-67310000D01*
%TO.N,/Triangle*%
X58589500Y-69471500D02*
X58547000Y-69429000D01*
X55880000Y-54356000D02*
X52932600Y-57303400D01*
X62484000Y-69471500D02*
X58589500Y-69471500D01*
X66040000Y-69850000D02*
X62862500Y-69850000D01*
X58420000Y-54356000D02*
X55880000Y-54356000D01*
X62862500Y-69850000D02*
X62484000Y-69471500D01*
X56271132Y-71130132D02*
X57972264Y-69429000D01*
X52932600Y-67791600D02*
X56271132Y-71130132D01*
X47244000Y-80157264D02*
X56271132Y-71130132D01*
X52932600Y-57303400D02*
X52932600Y-67791600D01*
X57972264Y-69429000D02*
X58547000Y-69429000D01*
%TO.N,Net-(D3-A)*%
X76959500Y-72390000D02*
X76962000Y-72392500D01*
X73660000Y-72390000D02*
X73660000Y-75946000D01*
X73660000Y-72390000D02*
X76959500Y-72390000D01*
%TO.N,Net-(Q1-E)*%
X73354200Y-156679988D02*
X73354200Y-158444200D01*
X73354200Y-158444200D02*
X74930000Y-160020000D01*
X74930000Y-160020000D02*
X75692000Y-160020000D01*
X61214000Y-154940000D02*
X70612000Y-154940000D01*
X71614212Y-154940000D02*
X73354200Y-156679988D01*
X70612000Y-154940000D02*
X71614212Y-154940000D01*
%TO.N,Net-(Q1-B)*%
X77822508Y-157480000D02*
X81632508Y-161290000D01*
X81632508Y-161290000D02*
X83820000Y-161290000D01*
X75692000Y-157480000D02*
X77822508Y-157480000D01*
%TO.N,Net-(Q4-C)*%
X71628000Y-34671000D02*
X74800500Y-34671000D01*
X74800500Y-34671000D02*
X74803000Y-34673500D01*
%TO.N,Net-(Q4-B)*%
X60960000Y-54356000D02*
X60960000Y-52070000D01*
X60960000Y-52070000D02*
X62865000Y-50165000D01*
X62865000Y-50165000D02*
X69342000Y-43688000D01*
X69342000Y-43688000D02*
X70104000Y-43688000D01*
%TO.N,Net-(Q4-E)*%
X72441800Y-42483588D02*
X72441800Y-47319200D01*
X72441800Y-47319200D02*
X70104000Y-49657000D01*
X70104000Y-54483000D02*
X70104000Y-49657000D01*
X71106212Y-41148000D02*
X72441800Y-42483588D01*
X70104000Y-41148000D02*
X71106212Y-41148000D01*
%TO.N,Net-(Q5-B)*%
X78486000Y-46024800D02*
X78486000Y-49657000D01*
X75184000Y-43688000D02*
X76149200Y-43688000D01*
X76149200Y-43688000D02*
X78486000Y-46024800D01*
%TO.N,Net-(Q5-E)*%
X75184000Y-54483000D02*
X75184000Y-49657000D01*
X75184000Y-46228000D02*
X75184000Y-49657000D01*
%TO.N,Net-(Q5-C)*%
X75184000Y-41148000D02*
X78359000Y-41148000D01*
X74991913Y-32131000D02*
X71628000Y-32131000D01*
X78359000Y-41148000D02*
X78613000Y-41148000D01*
X79248000Y-41148000D02*
X80518000Y-41148000D01*
X79248000Y-37338000D02*
X79248000Y-41148000D01*
X79248000Y-36387087D02*
X79248000Y-37338000D01*
X78613000Y-41148000D02*
X79248000Y-41148000D01*
X74991913Y-32131000D02*
X79248000Y-36387087D01*
%TO.N,NOTE*%
X67100000Y-183346500D02*
X68328500Y-182118000D01*
X67100000Y-189008500D02*
X67100000Y-183346500D01*
%TO.N,Net-(U1D--)*%
X75856188Y-166375000D02*
X76454000Y-166375000D01*
X79502000Y-166367500D02*
X93469500Y-166367500D01*
X73911500Y-182118000D02*
X73911500Y-168319688D01*
X93472000Y-178816000D02*
X95935877Y-178816000D01*
X79494500Y-166375000D02*
X79502000Y-166367500D01*
X73911500Y-168319688D02*
X75856188Y-166375000D01*
X95935877Y-178816000D02*
X98679000Y-176072877D01*
X93472000Y-151384000D02*
X93980000Y-150876000D01*
X98679000Y-176072877D02*
X98679000Y-170561000D01*
X75435500Y-182118000D02*
X73911500Y-182118000D01*
X93980000Y-165862000D02*
X93472000Y-166370000D01*
X98679000Y-170561000D02*
X93980000Y-165862000D01*
X93469500Y-166367500D02*
X93472000Y-166370000D01*
X70868500Y-182118000D02*
X73911500Y-182118000D01*
X76454000Y-166375000D02*
X79494500Y-166375000D01*
X93980000Y-151384000D02*
X93980000Y-165862000D01*
%TO.N,Net-(R5-Pad2)*%
X79494500Y-163835000D02*
X79502000Y-163827500D01*
X83817500Y-163827500D02*
X83820000Y-163830000D01*
X79502000Y-163827500D02*
X83817500Y-163827500D01*
X76454000Y-163835000D02*
X79494500Y-163835000D01*
%TO.N,Net-(R6-Pad2)*%
X83566000Y-154432000D02*
X83566000Y-158576000D01*
X83566000Y-158576000D02*
X83820000Y-158830000D01*
%TO.N,Net-(U1B--)*%
X71981100Y-179069681D02*
X68839319Y-179069681D01*
X68834000Y-176535000D02*
X68834000Y-179075000D01*
X68839319Y-179069681D02*
X68834000Y-179075000D01*
%TO.N,Net-(R13-Pad1)*%
X66418500Y-128145500D02*
X66035000Y-127762000D01*
X68834000Y-130561000D02*
X66418500Y-128145500D01*
X66035000Y-127762000D02*
X63756500Y-127762000D01*
X67310000Y-127254000D02*
X66418500Y-128145500D01*
%TO.N,Net-(U3D--)*%
X77470000Y-127254000D02*
X75438000Y-127254000D01*
X76459000Y-133096000D02*
X76454000Y-133101000D01*
X73914000Y-128778000D02*
X73914000Y-131318000D01*
X79756000Y-133096000D02*
X76459000Y-133096000D01*
X75438000Y-127254000D02*
X73914000Y-128778000D01*
X75697000Y-133101000D02*
X76454000Y-133101000D01*
X73914000Y-131318000D02*
X75697000Y-133101000D01*
%TO.N,Net-(SW1-C)*%
X62738000Y-97790000D02*
X66162000Y-97790000D01*
X66162000Y-97790000D02*
X66167000Y-97795000D01*
%TO.N,Net-(R18-Pad1)*%
X61216500Y-127762000D02*
X56976000Y-127762000D01*
X56976000Y-127762000D02*
X56896000Y-127842000D01*
%TO.N,Net-(R19-Pad2)*%
X56896000Y-132842000D02*
X60960000Y-132842000D01*
X60960000Y-132842000D02*
X62230000Y-134112000D01*
%TO.N,Net-(U5A--)*%
X73660000Y-89154000D02*
X77216000Y-89154000D01*
X77216000Y-89154000D02*
X78232000Y-90170000D01*
X78232000Y-90170000D02*
X82042000Y-90170000D01*
X73660000Y-89154000D02*
X73660000Y-91694000D01*
%TO.N,Net-(U4D--)*%
X76703000Y-100335000D02*
X76708000Y-100330000D01*
X76708000Y-100330000D02*
X79502000Y-100330000D01*
X73787000Y-100335000D02*
X76703000Y-100335000D01*
X79502000Y-100330000D02*
X82042000Y-100330000D01*
X77208500Y-100335000D02*
X77216000Y-100327500D01*
%TO.N,Net-(U5B--)*%
X67615822Y-89154000D02*
X73711822Y-95250000D01*
X66040000Y-89154000D02*
X67615822Y-89154000D01*
X66040000Y-86614000D02*
X66040000Y-89154000D01*
X73711822Y-95250000D02*
X79502000Y-95250000D01*
%TO.N,Net-(R24-Pad2)*%
X84582000Y-97536000D02*
X84328000Y-97536000D01*
X84328000Y-97536000D02*
X84069000Y-97795000D01*
X84069000Y-97795000D02*
X73787000Y-97795000D01*
%TO.N,Net-(D1-A)*%
X76454000Y-109474000D02*
X78232000Y-107696000D01*
X76957000Y-110495000D02*
X76962000Y-110490000D01*
X73787000Y-110495000D02*
X76957000Y-110495000D01*
X76454000Y-110490000D02*
X76454000Y-109474000D01*
X78232000Y-107696000D02*
X84582000Y-107696000D01*
%TO.N,Net-(U6A--)*%
X73660000Y-69850000D02*
X76959500Y-69850000D01*
X79756000Y-69850000D02*
X76964500Y-69850000D01*
X76959500Y-69850000D02*
X76962000Y-69852500D01*
X76964500Y-69850000D02*
X76962000Y-69852500D01*
%TO.N,Net-(R32-Pad1)*%
X60706000Y-61722000D02*
X63286000Y-61722000D01*
X63286000Y-61722000D02*
X64810000Y-60198000D01*
%TO.N,Net-(R38-Pad2)*%
X72684000Y-54483000D02*
X72684000Y-56682000D01*
X72684000Y-56682000D02*
X76454000Y-60452000D01*
%TO.N,Net-(R40-Pad2)*%
X67183000Y-24511000D02*
X68453000Y-24511000D01*
X70358000Y-37211000D02*
X68453000Y-35306000D01*
X68453000Y-35306000D02*
X68453000Y-24511000D01*
X71628000Y-37211000D02*
X74800500Y-37211000D01*
X68453000Y-24511000D02*
X69683000Y-24511000D01*
X71628000Y-37211000D02*
X70358000Y-37211000D01*
X74800500Y-37211000D02*
X74803000Y-37213500D01*
%TO.N,Net-(U7B--)*%
X64683000Y-24511000D02*
X60579000Y-28615000D01*
X63497500Y-31620500D02*
X64008000Y-32131000D01*
X60579000Y-28615000D02*
X60579000Y-31620500D01*
X60579000Y-31620500D02*
X63497500Y-31620500D01*
%TO.N,/Sine*%
X60579000Y-34160500D02*
X63497500Y-34160500D01*
X63497500Y-34160500D02*
X64008000Y-34671000D01*
%TO.N,Net-(U8A--)*%
X36830000Y-180340000D02*
X33020000Y-180340000D01*
%TO.N,Net-(R46-Pad1)*%
X33020000Y-173990000D02*
X33020000Y-177800000D01*
X33020000Y-177800000D02*
X36830000Y-177800000D01*
%TO.N,Net-(U8B--)*%
X41707800Y-182880000D02*
X44450000Y-182880000D01*
X39167800Y-175057800D02*
X39167800Y-180340000D01*
X35560000Y-173990000D02*
X38100000Y-173990000D01*
X39167800Y-180340000D02*
X41707800Y-182880000D01*
X38100000Y-173990000D02*
X39167800Y-175057800D01*
%TO.N,LFO*%
X88900000Y-191770000D02*
X64861500Y-191770000D01*
X64861500Y-191770000D02*
X62100000Y-189008500D01*
%TO.N,Net-(U5A-+)*%
X78942692Y-87884000D02*
X77672692Y-86614000D01*
X77672692Y-86614000D02*
X73660000Y-86614000D01*
X101600000Y-83122413D02*
X96838413Y-87884000D01*
X101600000Y-82677000D02*
X101600000Y-83122413D01*
X96838413Y-87884000D02*
X78942692Y-87884000D01*
%TO.N,Net-(U5B-+)*%
X68326000Y-81788000D02*
X81788000Y-81788000D01*
X84502493Y-79073507D02*
X84502493Y-71453507D01*
X84502493Y-71453507D02*
X101600000Y-54356000D01*
X66040000Y-84074000D02*
X68326000Y-81788000D01*
X81788000Y-81788000D02*
X84502493Y-79073507D01*
%TO.N,/Sawtooth*%
X48006000Y-110744000D02*
X54610000Y-110744000D01*
%TO.N,/PWM*%
X49276000Y-129794000D02*
X49276000Y-134620000D01*
X66167000Y-113035000D02*
X66167000Y-117475000D01*
X49276000Y-134620000D02*
X47752000Y-136144000D01*
X66167000Y-110495000D02*
X66167000Y-113035000D01*
X55626000Y-123444000D02*
X49276000Y-129794000D01*
X60198000Y-123444000D02*
X55626000Y-123444000D01*
X66167000Y-117475000D02*
X60198000Y-123444000D01*
%TO.N,OUT*%
X54113875Y-189008500D02*
X57100000Y-189008500D01*
X44450000Y-180340000D02*
X45445375Y-180340000D01*
X41098200Y-177800000D02*
X43638200Y-180340000D01*
X43638200Y-180340000D02*
X44450000Y-180340000D01*
X45445375Y-180340000D02*
X54113875Y-189008500D01*
%TO.N,Net-(U3D-+)*%
X81687400Y-134466600D02*
X80513000Y-135641000D01*
X80513000Y-135641000D02*
X76454000Y-135641000D01*
X84074000Y-131532000D02*
X82888607Y-131532000D01*
X81687400Y-132733207D02*
X81687400Y-134466600D01*
X82888607Y-131532000D02*
X81687400Y-132733207D01*
%TO.N,Net-(U3C--)*%
X83307000Y-143261000D02*
X76454000Y-143261000D01*
X83312000Y-143256000D02*
X83307000Y-143261000D01*
X83566000Y-143256000D02*
X83566000Y-145542000D01*
X83566000Y-145542000D02*
X82804000Y-146304000D01*
X83566000Y-143256000D02*
X83312000Y-143256000D01*
%TO.N,Net-(RV9-Pad1)*%
X70612000Y-113030000D02*
X73782000Y-113030000D01*
X73782000Y-113030000D02*
X73787000Y-113035000D01*
X60833000Y-119253000D02*
X60960000Y-119126000D01*
X56896000Y-119253000D02*
X60833000Y-119253000D01*
%TO.N,Net-(U4B-+)*%
X63829200Y-109694988D02*
X65569188Y-107955000D01*
X56896000Y-116753000D02*
X58442587Y-116753000D01*
X65569188Y-107955000D02*
X66167000Y-107955000D01*
X63829200Y-111366387D02*
X63829200Y-109694988D01*
X58442587Y-116753000D02*
X63829200Y-111366387D01*
%TO.N,Net-(D1-K)*%
X79502000Y-110490000D02*
X83566000Y-110490000D01*
%TO.N,Net-(U6B-+)*%
X67350000Y-60198000D02*
X67350000Y-63460000D01*
X67350000Y-63460000D02*
X66040000Y-64770000D01*
%TO.N,Net-(U1B-+)*%
X61722000Y-176022000D02*
X61936000Y-176022000D01*
X67234000Y-173995000D02*
X68834000Y-173995000D01*
X61936000Y-176022000D02*
X65207000Y-176022000D01*
X60452000Y-174752000D02*
X61722000Y-176022000D01*
X65207000Y-176022000D02*
X67234000Y-173995000D01*
X59904000Y-178054000D02*
X61936000Y-176022000D01*
%TO.N,Net-(U1C--)*%
X76454000Y-179075000D02*
X77975500Y-180596500D01*
X77975500Y-180596500D02*
X77975500Y-182118000D01*
X76454000Y-179075000D02*
X76454000Y-176535000D01*
%TO.N,Net-(U1C-+)*%
X94996000Y-185166000D02*
X83825000Y-173995000D01*
X102362000Y-185166000D02*
X94996000Y-185166000D01*
X83825000Y-173995000D02*
X76454000Y-173995000D01*
X102489000Y-185039000D02*
X102362000Y-185166000D01*
%TO.N,Net-(U3C-+)*%
X76200000Y-148844000D02*
X74041000Y-146685000D01*
X76454000Y-140721000D02*
X79467000Y-140721000D01*
X78740000Y-148844000D02*
X76200000Y-148844000D01*
X74041000Y-146685000D02*
X74041000Y-142536188D01*
X78994000Y-149098000D02*
X78740000Y-148844000D01*
X79467000Y-140721000D02*
X79756000Y-141010000D01*
X75856188Y-140721000D02*
X76454000Y-140721000D01*
X74041000Y-142536188D02*
X75856188Y-140721000D01*
%TO.N,Net-(U3A--)*%
X67869822Y-133101000D02*
X68834000Y-133101000D01*
X65110822Y-130342000D02*
X67869822Y-133101000D01*
X56896000Y-130342000D02*
X65110822Y-130342000D01*
%TO.N,Net-(U4A--)*%
X62738000Y-100330000D02*
X66162000Y-100330000D01*
X66162000Y-100330000D02*
X66167000Y-100335000D01*
X62738000Y-100330000D02*
X62738000Y-102870000D01*
%TO.N,Net-(D3-K)*%
X59944000Y-81534000D02*
X62738000Y-78740000D01*
X62738000Y-78740000D02*
X66040000Y-78740000D01*
X66040000Y-78740000D02*
X66040000Y-75946000D01*
X66037500Y-78742500D02*
X66040000Y-78740000D01*
X59055000Y-81534000D02*
X59944000Y-81534000D01*
%TD*%
M02*
