%TF.GenerationSoftware,KiCad,Pcbnew,9.0.6*%
%TF.CreationDate,2026-04-22T22:06:35-07:00*%
%TF.ProjectId,modulinVCO,6d6f6475-6c69-46e5-9643-4f2e6b696361,rev?*%
%TF.SameCoordinates,Original*%
%TF.FileFunction,Paste,Bot*%
%TF.FilePolarity,Positive*%
%FSLAX46Y46*%
G04 Gerber Fmt 4.6, Leading zero omitted, Abs format (unit mm)*
G04 Created by KiCad (PCBNEW 9.0.6) date 2026-04-22 22:06:35*
%MOMM*%
%LPD*%
G01*
G04 APERTURE LIST*
G04 Aperture macros list*
%AMRoundRect*
0 Rectangle with rounded corners*
0 $1 Rounding radius*
0 $2 $3 $4 $5 $6 $7 $8 $9 X,Y pos of 4 corners*
0 Add a 4 corners polygon primitive as box body*
4,1,4,$2,$3,$4,$5,$6,$7,$8,$9,$2,$3,0*
0 Add four circle primitives for the rounded corners*
1,1,$1+$1,$2,$3*
1,1,$1+$1,$4,$5*
1,1,$1+$1,$6,$7*
1,1,$1+$1,$8,$9*
0 Add four rect primitives between the rounded corners*
20,1,$1+$1,$2,$3,$4,$5,0*
20,1,$1+$1,$4,$5,$6,$7,0*
20,1,$1+$1,$6,$7,$8,$9,0*
20,1,$1+$1,$8,$9,$2,$3,0*%
G04 Aperture macros list end*
%ADD10C,1.727200*%
%ADD11RoundRect,0.250000X1.020000X0.613600X-1.020000X0.613600X-1.020000X-0.613600X1.020000X-0.613600X0*%
%ADD12O,2.540000X1.727200*%
%ADD13RoundRect,0.250000X-1.020000X-0.613600X1.020000X-0.613600X1.020000X0.613600X-1.020000X0.613600X0*%
%ADD14C,1.676400*%
%ADD15C,2.794000*%
G04 APERTURE END LIST*
D10*
%TO.C,C18*%
X61515000Y-84582000D03*
X56515000Y-84582000D03*
%TD*%
%TO.C,C19*%
X58547000Y-64429000D03*
X58547000Y-69429000D03*
%TD*%
D11*
%TO.C,U7*%
X71653400Y-37211000D03*
D12*
X71653400Y-34671000D03*
X71653400Y-32131000D03*
X71653400Y-29591000D03*
X64033400Y-29591000D03*
X64033400Y-32131000D03*
X64033400Y-34671000D03*
X64033400Y-37211000D03*
%TD*%
D10*
%TO.C,R48*%
X38100000Y-173990000D03*
%TD*%
%TO.C,R41*%
X60579000Y-31620500D03*
%TD*%
%TO.C,R3*%
X68328500Y-182118000D03*
%TD*%
%TO.C,R18*%
X61216500Y-127762000D03*
%TD*%
D13*
%TO.C,U4*%
X66167000Y-97795000D03*
D12*
X66167000Y-100335000D03*
X66167000Y-102875000D03*
X66167000Y-105415000D03*
X66167000Y-107955000D03*
X66167000Y-110495000D03*
X66167000Y-113035000D03*
X73787000Y-113035000D03*
X73787000Y-110495000D03*
X73787000Y-107955000D03*
X73787000Y-105415000D03*
X73787000Y-102875000D03*
X73787000Y-100335000D03*
X73787000Y-97795000D03*
%TD*%
D14*
%TO.C,RV4*%
X83820000Y-163830000D03*
X83820000Y-161290000D03*
X83820000Y-158750000D03*
%TD*%
D10*
%TO.C,R19*%
X62230000Y-134112000D03*
%TD*%
D14*
%TO.C,RV5*%
X84074000Y-129032000D03*
X84074000Y-131572000D03*
X84074000Y-134112000D03*
%TD*%
D10*
%TO.C,R14*%
X79756000Y-133096000D03*
%TD*%
D14*
%TO.C,RV9*%
X56896000Y-119253000D03*
X56896000Y-116713000D03*
X56896000Y-114173000D03*
%TD*%
D10*
%TO.C,R47*%
X35560000Y-173990000D03*
%TD*%
D14*
%TO.C,RV6*%
X56896000Y-132842000D03*
X56896000Y-130302000D03*
X56896000Y-127762000D03*
%TD*%
D10*
%TO.C,R46*%
X33020000Y-177800000D03*
%TD*%
%TO.C,C2*%
X65024000Y-148296000D03*
X65024000Y-143296000D03*
%TD*%
%TO.C,R37*%
X70104000Y-49657000D03*
%TD*%
%TO.C,R6*%
X88646000Y-154432000D03*
%TD*%
D14*
%TO.C,RV11*%
X55880000Y-54356000D03*
X58420000Y-54356000D03*
X60960000Y-54356000D03*
%TD*%
D10*
%TO.C,R28*%
X76962000Y-69852500D03*
%TD*%
D15*
%TO.C,J1*%
X82100000Y-189008500D03*
X77100000Y-189008500D03*
X72100000Y-189008500D03*
X67100000Y-189008500D03*
X62100000Y-189008500D03*
X57100000Y-189008500D03*
%TD*%
D10*
%TO.C,R5*%
X79502000Y-166367500D03*
%TD*%
%TO.C,R20*%
X79502000Y-95250000D03*
%TD*%
D13*
%TO.C,U1*%
X68834000Y-163835000D03*
D12*
X68834000Y-166375000D03*
X68834000Y-168915000D03*
X68834000Y-171455000D03*
X68834000Y-173995000D03*
X68834000Y-176535000D03*
X68834000Y-179075000D03*
X76454000Y-179075000D03*
X76454000Y-176535000D03*
X76454000Y-173995000D03*
X76454000Y-171455000D03*
X76454000Y-168915000D03*
X76454000Y-166375000D03*
X76454000Y-163835000D03*
%TD*%
D11*
%TO.C,U5*%
X73660000Y-91694000D03*
D12*
X73660000Y-89154000D03*
X73660000Y-86614000D03*
X73660000Y-84074000D03*
X66040000Y-84074000D03*
X66040000Y-86614000D03*
X66040000Y-89154000D03*
X66040000Y-91694000D03*
%TD*%
D10*
%TO.C,SW1*%
X56388000Y-104140000D03*
X56388000Y-101600000D03*
X56388000Y-99060000D03*
%TD*%
%TO.C,R4*%
X77975500Y-182118000D03*
%TD*%
D13*
%TO.C,U8*%
X36830000Y-177800000D03*
D12*
X36830000Y-180340000D03*
X36830000Y-182880000D03*
X36830000Y-185420000D03*
X44450000Y-185420000D03*
X44450000Y-182880000D03*
X44450000Y-180340000D03*
X44450000Y-177800000D03*
%TD*%
D10*
%TO.C,R27*%
X56515000Y-81534000D03*
%TD*%
%TO.C,R31*%
X62484000Y-66931500D03*
%TD*%
D14*
%TO.C,RV13*%
X69683000Y-24511000D03*
X67143000Y-24511000D03*
X64603000Y-24511000D03*
%TD*%
D11*
%TO.C,U6*%
X73660000Y-72390000D03*
D12*
X73660000Y-69850000D03*
X73660000Y-67310000D03*
X73660000Y-64770000D03*
X66040000Y-64770000D03*
X66040000Y-67310000D03*
X66040000Y-69850000D03*
X66040000Y-72390000D03*
%TD*%
D13*
%TO.C,U3*%
X68834000Y-130561000D03*
D12*
X68834000Y-133101000D03*
X68834000Y-135641000D03*
X68834000Y-138181000D03*
X68834000Y-140721000D03*
X68834000Y-143261000D03*
X68834000Y-145801000D03*
X76454000Y-145801000D03*
X76454000Y-143261000D03*
X76454000Y-140721000D03*
X76454000Y-138181000D03*
X76454000Y-135641000D03*
X76454000Y-133101000D03*
X76454000Y-130561000D03*
%TD*%
D14*
%TO.C,RV10*%
X64810000Y-60198000D03*
X67350000Y-60198000D03*
X69890000Y-60198000D03*
%TD*%
D10*
%TO.C,R24*%
X76708000Y-100330000D03*
%TD*%
%TO.C,R12*%
X83566000Y-143256000D03*
%TD*%
D14*
%TO.C,RV12*%
X75184000Y-54483000D03*
X72644000Y-54483000D03*
X70104000Y-54483000D03*
%TD*%
D10*
%TO.C,R17*%
X62738000Y-100330000D03*
%TD*%
%TO.C,R40*%
X74803000Y-37213500D03*
%TD*%
M02*
