%TF.GenerationSoftware,KiCad,Pcbnew,9.0.6*%
%TF.CreationDate,2026-04-22T22:06:35-07:00*%
%TF.ProjectId,modulinVCO,6d6f6475-6c69-46e5-9643-4f2e6b696361,rev?*%
%TF.SameCoordinates,Original*%
%TF.FileFunction,Legend,Bot*%
%TF.FilePolarity,Positive*%
%FSLAX46Y46*%
G04 Gerber Fmt 4.6, Leading zero omitted, Abs format (unit mm)*
G04 Created by KiCad (PCBNEW 9.0.6) date 2026-04-22 22:06:35*
%MOMM*%
%LPD*%
G01*
G04 APERTURE LIST*
%ADD10C,0.508000*%
%ADD11C,0.254000*%
G04 APERTURE END LIST*
D10*
X97294094Y-17442736D02*
X96447427Y-19982736D01*
X96447427Y-19982736D02*
X95600760Y-17442736D01*
X94391236Y-19982736D02*
X94633141Y-19861784D01*
X94633141Y-19861784D02*
X94754094Y-19740831D01*
X94754094Y-19740831D02*
X94875046Y-19498926D01*
X94875046Y-19498926D02*
X94875046Y-18773212D01*
X94875046Y-18773212D02*
X94754094Y-18531307D01*
X94754094Y-18531307D02*
X94633141Y-18410355D01*
X94633141Y-18410355D02*
X94391236Y-18289403D01*
X94391236Y-18289403D02*
X94028379Y-18289403D01*
X94028379Y-18289403D02*
X93786475Y-18410355D01*
X93786475Y-18410355D02*
X93665522Y-18531307D01*
X93665522Y-18531307D02*
X93544570Y-18773212D01*
X93544570Y-18773212D02*
X93544570Y-19498926D01*
X93544570Y-19498926D02*
X93665522Y-19740831D01*
X93665522Y-19740831D02*
X93786475Y-19861784D01*
X93786475Y-19861784D02*
X94028379Y-19982736D01*
X94028379Y-19982736D02*
X94391236Y-19982736D01*
X92093141Y-19982736D02*
X92335046Y-19861784D01*
X92335046Y-19861784D02*
X92455999Y-19619879D01*
X92455999Y-19619879D02*
X92455999Y-17442736D01*
X91488380Y-18289403D02*
X90520761Y-18289403D01*
X91125523Y-17442736D02*
X91125523Y-19619879D01*
X91125523Y-19619879D02*
X91004570Y-19861784D01*
X91004570Y-19861784D02*
X90762665Y-19982736D01*
X90762665Y-19982736D02*
X90520761Y-19982736D01*
X88585522Y-19982736D02*
X88585522Y-18652260D01*
X88585522Y-18652260D02*
X88706475Y-18410355D01*
X88706475Y-18410355D02*
X88948379Y-18289403D01*
X88948379Y-18289403D02*
X89432189Y-18289403D01*
X89432189Y-18289403D02*
X89674094Y-18410355D01*
X88585522Y-19861784D02*
X88827427Y-19982736D01*
X88827427Y-19982736D02*
X89432189Y-19982736D01*
X89432189Y-19982736D02*
X89674094Y-19861784D01*
X89674094Y-19861784D02*
X89795046Y-19619879D01*
X89795046Y-19619879D02*
X89795046Y-19377974D01*
X89795046Y-19377974D02*
X89674094Y-19136069D01*
X89674094Y-19136069D02*
X89432189Y-19015117D01*
X89432189Y-19015117D02*
X88827427Y-19015117D01*
X88827427Y-19015117D02*
X88585522Y-18894164D01*
X86287427Y-18289403D02*
X86287427Y-20345593D01*
X86287427Y-20345593D02*
X86408380Y-20587498D01*
X86408380Y-20587498D02*
X86529332Y-20708450D01*
X86529332Y-20708450D02*
X86771237Y-20829403D01*
X86771237Y-20829403D02*
X87134094Y-20829403D01*
X87134094Y-20829403D02*
X87375999Y-20708450D01*
X86287427Y-19861784D02*
X86529332Y-19982736D01*
X86529332Y-19982736D02*
X87013141Y-19982736D01*
X87013141Y-19982736D02*
X87255046Y-19861784D01*
X87255046Y-19861784D02*
X87375999Y-19740831D01*
X87375999Y-19740831D02*
X87496951Y-19498926D01*
X87496951Y-19498926D02*
X87496951Y-18773212D01*
X87496951Y-18773212D02*
X87375999Y-18531307D01*
X87375999Y-18531307D02*
X87255046Y-18410355D01*
X87255046Y-18410355D02*
X87013141Y-18289403D01*
X87013141Y-18289403D02*
X86529332Y-18289403D01*
X86529332Y-18289403D02*
X86287427Y-18410355D01*
X84110285Y-19861784D02*
X84352189Y-19982736D01*
X84352189Y-19982736D02*
X84835999Y-19982736D01*
X84835999Y-19982736D02*
X85077904Y-19861784D01*
X85077904Y-19861784D02*
X85198856Y-19619879D01*
X85198856Y-19619879D02*
X85198856Y-18652260D01*
X85198856Y-18652260D02*
X85077904Y-18410355D01*
X85077904Y-18410355D02*
X84835999Y-18289403D01*
X84835999Y-18289403D02*
X84352189Y-18289403D01*
X84352189Y-18289403D02*
X84110285Y-18410355D01*
X84110285Y-18410355D02*
X83989332Y-18652260D01*
X83989332Y-18652260D02*
X83989332Y-18894164D01*
X83989332Y-18894164D02*
X85198856Y-19136069D01*
X79514094Y-19740831D02*
X79635046Y-19861784D01*
X79635046Y-19861784D02*
X79997904Y-19982736D01*
X79997904Y-19982736D02*
X80239808Y-19982736D01*
X80239808Y-19982736D02*
X80602665Y-19861784D01*
X80602665Y-19861784D02*
X80844570Y-19619879D01*
X80844570Y-19619879D02*
X80965523Y-19377974D01*
X80965523Y-19377974D02*
X81086475Y-18894164D01*
X81086475Y-18894164D02*
X81086475Y-18531307D01*
X81086475Y-18531307D02*
X80965523Y-18047498D01*
X80965523Y-18047498D02*
X80844570Y-17805593D01*
X80844570Y-17805593D02*
X80602665Y-17563688D01*
X80602665Y-17563688D02*
X80239808Y-17442736D01*
X80239808Y-17442736D02*
X79997904Y-17442736D01*
X79997904Y-17442736D02*
X79635046Y-17563688D01*
X79635046Y-17563688D02*
X79514094Y-17684641D01*
X78062665Y-19982736D02*
X78304570Y-19861784D01*
X78304570Y-19861784D02*
X78425523Y-19740831D01*
X78425523Y-19740831D02*
X78546475Y-19498926D01*
X78546475Y-19498926D02*
X78546475Y-18773212D01*
X78546475Y-18773212D02*
X78425523Y-18531307D01*
X78425523Y-18531307D02*
X78304570Y-18410355D01*
X78304570Y-18410355D02*
X78062665Y-18289403D01*
X78062665Y-18289403D02*
X77699808Y-18289403D01*
X77699808Y-18289403D02*
X77457904Y-18410355D01*
X77457904Y-18410355D02*
X77336951Y-18531307D01*
X77336951Y-18531307D02*
X77215999Y-18773212D01*
X77215999Y-18773212D02*
X77215999Y-19498926D01*
X77215999Y-19498926D02*
X77336951Y-19740831D01*
X77336951Y-19740831D02*
X77457904Y-19861784D01*
X77457904Y-19861784D02*
X77699808Y-19982736D01*
X77699808Y-19982736D02*
X78062665Y-19982736D01*
X76127428Y-18289403D02*
X76127428Y-19982736D01*
X76127428Y-18531307D02*
X76006475Y-18410355D01*
X76006475Y-18410355D02*
X75764570Y-18289403D01*
X75764570Y-18289403D02*
X75401713Y-18289403D01*
X75401713Y-18289403D02*
X75159809Y-18410355D01*
X75159809Y-18410355D02*
X75038856Y-18652260D01*
X75038856Y-18652260D02*
X75038856Y-19982736D01*
X74192190Y-18289403D02*
X73224571Y-18289403D01*
X73829333Y-17442736D02*
X73829333Y-19619879D01*
X73829333Y-19619879D02*
X73708380Y-19861784D01*
X73708380Y-19861784D02*
X73466475Y-19982736D01*
X73466475Y-19982736D02*
X73224571Y-19982736D01*
X72377904Y-19982736D02*
X72377904Y-18289403D01*
X72377904Y-18773212D02*
X72256951Y-18531307D01*
X72256951Y-18531307D02*
X72135999Y-18410355D01*
X72135999Y-18410355D02*
X71894094Y-18289403D01*
X71894094Y-18289403D02*
X71652189Y-18289403D01*
X70442665Y-19982736D02*
X70684570Y-19861784D01*
X70684570Y-19861784D02*
X70805523Y-19740831D01*
X70805523Y-19740831D02*
X70926475Y-19498926D01*
X70926475Y-19498926D02*
X70926475Y-18773212D01*
X70926475Y-18773212D02*
X70805523Y-18531307D01*
X70805523Y-18531307D02*
X70684570Y-18410355D01*
X70684570Y-18410355D02*
X70442665Y-18289403D01*
X70442665Y-18289403D02*
X70079808Y-18289403D01*
X70079808Y-18289403D02*
X69837904Y-18410355D01*
X69837904Y-18410355D02*
X69716951Y-18531307D01*
X69716951Y-18531307D02*
X69595999Y-18773212D01*
X69595999Y-18773212D02*
X69595999Y-19498926D01*
X69595999Y-19498926D02*
X69716951Y-19740831D01*
X69716951Y-19740831D02*
X69837904Y-19861784D01*
X69837904Y-19861784D02*
X70079808Y-19982736D01*
X70079808Y-19982736D02*
X70442665Y-19982736D01*
X68144570Y-19982736D02*
X68386475Y-19861784D01*
X68386475Y-19861784D02*
X68507428Y-19619879D01*
X68507428Y-19619879D02*
X68507428Y-17442736D01*
X66814094Y-19982736D02*
X67055999Y-19861784D01*
X67055999Y-19861784D02*
X67176952Y-19619879D01*
X67176952Y-19619879D02*
X67176952Y-17442736D01*
X64878857Y-19861784D02*
X65120761Y-19982736D01*
X65120761Y-19982736D02*
X65604571Y-19982736D01*
X65604571Y-19982736D02*
X65846476Y-19861784D01*
X65846476Y-19861784D02*
X65967428Y-19619879D01*
X65967428Y-19619879D02*
X65967428Y-18652260D01*
X65967428Y-18652260D02*
X65846476Y-18410355D01*
X65846476Y-18410355D02*
X65604571Y-18289403D01*
X65604571Y-18289403D02*
X65120761Y-18289403D01*
X65120761Y-18289403D02*
X64878857Y-18410355D01*
X64878857Y-18410355D02*
X64757904Y-18652260D01*
X64757904Y-18652260D02*
X64757904Y-18894164D01*
X64757904Y-18894164D02*
X65967428Y-19136069D01*
X62580761Y-19982736D02*
X62580761Y-17442736D01*
X62580761Y-19861784D02*
X62822666Y-19982736D01*
X62822666Y-19982736D02*
X63306475Y-19982736D01*
X63306475Y-19982736D02*
X63548380Y-19861784D01*
X63548380Y-19861784D02*
X63669333Y-19740831D01*
X63669333Y-19740831D02*
X63790285Y-19498926D01*
X63790285Y-19498926D02*
X63790285Y-18773212D01*
X63790285Y-18773212D02*
X63669333Y-18531307D01*
X63669333Y-18531307D02*
X63548380Y-18410355D01*
X63548380Y-18410355D02*
X63306475Y-18289403D01*
X63306475Y-18289403D02*
X62822666Y-18289403D01*
X62822666Y-18289403D02*
X62580761Y-18410355D01*
X58952190Y-17442736D02*
X58468381Y-17442736D01*
X58468381Y-17442736D02*
X58226476Y-17563688D01*
X58226476Y-17563688D02*
X57984571Y-17805593D01*
X57984571Y-17805593D02*
X57863619Y-18289403D01*
X57863619Y-18289403D02*
X57863619Y-19136069D01*
X57863619Y-19136069D02*
X57984571Y-19619879D01*
X57984571Y-19619879D02*
X58226476Y-19861784D01*
X58226476Y-19861784D02*
X58468381Y-19982736D01*
X58468381Y-19982736D02*
X58952190Y-19982736D01*
X58952190Y-19982736D02*
X59194095Y-19861784D01*
X59194095Y-19861784D02*
X59436000Y-19619879D01*
X59436000Y-19619879D02*
X59556952Y-19136069D01*
X59556952Y-19136069D02*
X59556952Y-18289403D01*
X59556952Y-18289403D02*
X59436000Y-17805593D01*
X59436000Y-17805593D02*
X59194095Y-17563688D01*
X59194095Y-17563688D02*
X58952190Y-17442736D01*
X56896000Y-19861784D02*
X56654095Y-19982736D01*
X56654095Y-19982736D02*
X56170286Y-19982736D01*
X56170286Y-19982736D02*
X55928381Y-19861784D01*
X55928381Y-19861784D02*
X55807429Y-19619879D01*
X55807429Y-19619879D02*
X55807429Y-19498926D01*
X55807429Y-19498926D02*
X55928381Y-19257022D01*
X55928381Y-19257022D02*
X56170286Y-19136069D01*
X56170286Y-19136069D02*
X56533143Y-19136069D01*
X56533143Y-19136069D02*
X56775048Y-19015117D01*
X56775048Y-19015117D02*
X56896000Y-18773212D01*
X56896000Y-18773212D02*
X56896000Y-18652260D01*
X56896000Y-18652260D02*
X56775048Y-18410355D01*
X56775048Y-18410355D02*
X56533143Y-18289403D01*
X56533143Y-18289403D02*
X56170286Y-18289403D01*
X56170286Y-18289403D02*
X55928381Y-18410355D01*
X53630286Y-19861784D02*
X53872191Y-19982736D01*
X53872191Y-19982736D02*
X54356000Y-19982736D01*
X54356000Y-19982736D02*
X54597905Y-19861784D01*
X54597905Y-19861784D02*
X54718858Y-19740831D01*
X54718858Y-19740831D02*
X54839810Y-19498926D01*
X54839810Y-19498926D02*
X54839810Y-18773212D01*
X54839810Y-18773212D02*
X54718858Y-18531307D01*
X54718858Y-18531307D02*
X54597905Y-18410355D01*
X54597905Y-18410355D02*
X54356000Y-18289403D01*
X54356000Y-18289403D02*
X53872191Y-18289403D01*
X53872191Y-18289403D02*
X53630286Y-18410355D01*
X52541715Y-19982736D02*
X52541715Y-18289403D01*
X52541715Y-17442736D02*
X52662667Y-17563688D01*
X52662667Y-17563688D02*
X52541715Y-17684641D01*
X52541715Y-17684641D02*
X52420762Y-17563688D01*
X52420762Y-17563688D02*
X52541715Y-17442736D01*
X52541715Y-17442736D02*
X52541715Y-17684641D01*
X50969333Y-19982736D02*
X51211238Y-19861784D01*
X51211238Y-19861784D02*
X51332191Y-19619879D01*
X51332191Y-19619879D02*
X51332191Y-17442736D01*
X49638857Y-19982736D02*
X49880762Y-19861784D01*
X49880762Y-19861784D02*
X50001715Y-19619879D01*
X50001715Y-19619879D02*
X50001715Y-17442736D01*
X47582667Y-19982736D02*
X47582667Y-18652260D01*
X47582667Y-18652260D02*
X47703620Y-18410355D01*
X47703620Y-18410355D02*
X47945524Y-18289403D01*
X47945524Y-18289403D02*
X48429334Y-18289403D01*
X48429334Y-18289403D02*
X48671239Y-18410355D01*
X47582667Y-19861784D02*
X47824572Y-19982736D01*
X47824572Y-19982736D02*
X48429334Y-19982736D01*
X48429334Y-19982736D02*
X48671239Y-19861784D01*
X48671239Y-19861784D02*
X48792191Y-19619879D01*
X48792191Y-19619879D02*
X48792191Y-19377974D01*
X48792191Y-19377974D02*
X48671239Y-19136069D01*
X48671239Y-19136069D02*
X48429334Y-19015117D01*
X48429334Y-19015117D02*
X47824572Y-19015117D01*
X47824572Y-19015117D02*
X47582667Y-18894164D01*
X46736001Y-18289403D02*
X45768382Y-18289403D01*
X46373144Y-17442736D02*
X46373144Y-19619879D01*
X46373144Y-19619879D02*
X46252191Y-19861784D01*
X46252191Y-19861784D02*
X46010286Y-19982736D01*
X46010286Y-19982736D02*
X45768382Y-19982736D01*
X44558857Y-19982736D02*
X44800762Y-19861784D01*
X44800762Y-19861784D02*
X44921715Y-19740831D01*
X44921715Y-19740831D02*
X45042667Y-19498926D01*
X45042667Y-19498926D02*
X45042667Y-18773212D01*
X45042667Y-18773212D02*
X44921715Y-18531307D01*
X44921715Y-18531307D02*
X44800762Y-18410355D01*
X44800762Y-18410355D02*
X44558857Y-18289403D01*
X44558857Y-18289403D02*
X44196000Y-18289403D01*
X44196000Y-18289403D02*
X43954096Y-18410355D01*
X43954096Y-18410355D02*
X43833143Y-18531307D01*
X43833143Y-18531307D02*
X43712191Y-18773212D01*
X43712191Y-18773212D02*
X43712191Y-19498926D01*
X43712191Y-19498926D02*
X43833143Y-19740831D01*
X43833143Y-19740831D02*
X43954096Y-19861784D01*
X43954096Y-19861784D02*
X44196000Y-19982736D01*
X44196000Y-19982736D02*
X44558857Y-19982736D01*
X42623620Y-19982736D02*
X42623620Y-18289403D01*
X42623620Y-18773212D02*
X42502667Y-18531307D01*
X42502667Y-18531307D02*
X42381715Y-18410355D01*
X42381715Y-18410355D02*
X42139810Y-18289403D01*
X42139810Y-18289403D02*
X41897905Y-18289403D01*
D11*
X60415713Y-94480113D02*
X60415713Y-92448113D01*
X59448094Y-93125447D02*
X59448094Y-94480113D01*
X59448094Y-93318971D02*
X59351332Y-93222209D01*
X59351332Y-93222209D02*
X59157808Y-93125447D01*
X59157808Y-93125447D02*
X58867523Y-93125447D01*
X58867523Y-93125447D02*
X58673999Y-93222209D01*
X58673999Y-93222209D02*
X58577237Y-93415732D01*
X58577237Y-93415732D02*
X58577237Y-94480113D01*
X57803142Y-93125447D02*
X57319332Y-94480113D01*
X57319332Y-94480113D02*
X56835523Y-93125447D01*
X55287333Y-94383352D02*
X55480857Y-94480113D01*
X55480857Y-94480113D02*
X55867904Y-94480113D01*
X55867904Y-94480113D02*
X56061428Y-94383352D01*
X56061428Y-94383352D02*
X56158190Y-94189828D01*
X56158190Y-94189828D02*
X56158190Y-93415732D01*
X56158190Y-93415732D02*
X56061428Y-93222209D01*
X56061428Y-93222209D02*
X55867904Y-93125447D01*
X55867904Y-93125447D02*
X55480857Y-93125447D01*
X55480857Y-93125447D02*
X55287333Y-93222209D01*
X55287333Y-93222209D02*
X55190571Y-93415732D01*
X55190571Y-93415732D02*
X55190571Y-93609256D01*
X55190571Y-93609256D02*
X56158190Y-93802780D01*
X54319714Y-94480113D02*
X54319714Y-93125447D01*
X54319714Y-93512494D02*
X54222952Y-93318971D01*
X54222952Y-93318971D02*
X54126190Y-93222209D01*
X54126190Y-93222209D02*
X53932666Y-93125447D01*
X53932666Y-93125447D02*
X53739143Y-93125447D01*
X53352095Y-93125447D02*
X52577999Y-93125447D01*
X53061809Y-92448113D02*
X53061809Y-94189828D01*
X53061809Y-94189828D02*
X52965047Y-94383352D01*
X52965047Y-94383352D02*
X52771523Y-94480113D01*
X52771523Y-94480113D02*
X52577999Y-94480113D01*
X42938094Y-140357352D02*
X42647808Y-140454113D01*
X42647808Y-140454113D02*
X42163999Y-140454113D01*
X42163999Y-140454113D02*
X41970475Y-140357352D01*
X41970475Y-140357352D02*
X41873713Y-140260590D01*
X41873713Y-140260590D02*
X41776951Y-140067066D01*
X41776951Y-140067066D02*
X41776951Y-139873542D01*
X41776951Y-139873542D02*
X41873713Y-139680018D01*
X41873713Y-139680018D02*
X41970475Y-139583256D01*
X41970475Y-139583256D02*
X42163999Y-139486494D01*
X42163999Y-139486494D02*
X42551046Y-139389732D01*
X42551046Y-139389732D02*
X42744570Y-139292971D01*
X42744570Y-139292971D02*
X42841332Y-139196209D01*
X42841332Y-139196209D02*
X42938094Y-139002685D01*
X42938094Y-139002685D02*
X42938094Y-138809161D01*
X42938094Y-138809161D02*
X42841332Y-138615637D01*
X42841332Y-138615637D02*
X42744570Y-138518875D01*
X42744570Y-138518875D02*
X42551046Y-138422113D01*
X42551046Y-138422113D02*
X42067237Y-138422113D01*
X42067237Y-138422113D02*
X41776951Y-138518875D01*
X40035237Y-139099447D02*
X40035237Y-141131447D01*
X40035237Y-140357352D02*
X40228761Y-140454113D01*
X40228761Y-140454113D02*
X40615808Y-140454113D01*
X40615808Y-140454113D02*
X40809332Y-140357352D01*
X40809332Y-140357352D02*
X40906094Y-140260590D01*
X40906094Y-140260590D02*
X41002856Y-140067066D01*
X41002856Y-140067066D02*
X41002856Y-139486494D01*
X41002856Y-139486494D02*
X40906094Y-139292971D01*
X40906094Y-139292971D02*
X40809332Y-139196209D01*
X40809332Y-139196209D02*
X40615808Y-139099447D01*
X40615808Y-139099447D02*
X40228761Y-139099447D01*
X40228761Y-139099447D02*
X40035237Y-139196209D01*
X38196761Y-139099447D02*
X38196761Y-140454113D01*
X39067618Y-139099447D02*
X39067618Y-140163828D01*
X39067618Y-140163828D02*
X38970856Y-140357352D01*
X38970856Y-140357352D02*
X38777332Y-140454113D01*
X38777332Y-140454113D02*
X38487047Y-140454113D01*
X38487047Y-140454113D02*
X38293523Y-140357352D01*
X38293523Y-140357352D02*
X38196761Y-140260590D01*
X36358285Y-140454113D02*
X36358285Y-139389732D01*
X36358285Y-139389732D02*
X36455047Y-139196209D01*
X36455047Y-139196209D02*
X36648571Y-139099447D01*
X36648571Y-139099447D02*
X37035618Y-139099447D01*
X37035618Y-139099447D02*
X37229142Y-139196209D01*
X36358285Y-140357352D02*
X36551809Y-140454113D01*
X36551809Y-140454113D02*
X37035618Y-140454113D01*
X37035618Y-140454113D02*
X37229142Y-140357352D01*
X37229142Y-140357352D02*
X37325904Y-140163828D01*
X37325904Y-140163828D02*
X37325904Y-139970304D01*
X37325904Y-139970304D02*
X37229142Y-139776780D01*
X37229142Y-139776780D02*
X37035618Y-139680018D01*
X37035618Y-139680018D02*
X36551809Y-139680018D01*
X36551809Y-139680018D02*
X36358285Y-139583256D01*
X35390666Y-140454113D02*
X35390666Y-139099447D01*
X35390666Y-139486494D02*
X35293904Y-139292971D01*
X35293904Y-139292971D02*
X35197142Y-139196209D01*
X35197142Y-139196209D02*
X35003618Y-139099447D01*
X35003618Y-139099447D02*
X34810095Y-139099447D01*
X33358666Y-140357352D02*
X33552190Y-140454113D01*
X33552190Y-140454113D02*
X33939237Y-140454113D01*
X33939237Y-140454113D02*
X34132761Y-140357352D01*
X34132761Y-140357352D02*
X34229523Y-140163828D01*
X34229523Y-140163828D02*
X34229523Y-139389732D01*
X34229523Y-139389732D02*
X34132761Y-139196209D01*
X34132761Y-139196209D02*
X33939237Y-139099447D01*
X33939237Y-139099447D02*
X33552190Y-139099447D01*
X33552190Y-139099447D02*
X33358666Y-139196209D01*
X33358666Y-139196209D02*
X33261904Y-139389732D01*
X33261904Y-139389732D02*
X33261904Y-139583256D01*
X33261904Y-139583256D02*
X34229523Y-139776780D01*
X110840760Y-145340590D02*
X110937522Y-145437352D01*
X110937522Y-145437352D02*
X111227808Y-145534113D01*
X111227808Y-145534113D02*
X111421332Y-145534113D01*
X111421332Y-145534113D02*
X111711617Y-145437352D01*
X111711617Y-145437352D02*
X111905141Y-145243828D01*
X111905141Y-145243828D02*
X112001903Y-145050304D01*
X112001903Y-145050304D02*
X112098665Y-144663256D01*
X112098665Y-144663256D02*
X112098665Y-144372971D01*
X112098665Y-144372971D02*
X112001903Y-143985923D01*
X112001903Y-143985923D02*
X111905141Y-143792399D01*
X111905141Y-143792399D02*
X111711617Y-143598875D01*
X111711617Y-143598875D02*
X111421332Y-143502113D01*
X111421332Y-143502113D02*
X111227808Y-143502113D01*
X111227808Y-143502113D02*
X110937522Y-143598875D01*
X110937522Y-143598875D02*
X110840760Y-143695637D01*
X109679617Y-145534113D02*
X109873141Y-145437352D01*
X109873141Y-145437352D02*
X109969903Y-145340590D01*
X109969903Y-145340590D02*
X110066665Y-145147066D01*
X110066665Y-145147066D02*
X110066665Y-144566494D01*
X110066665Y-144566494D02*
X109969903Y-144372971D01*
X109969903Y-144372971D02*
X109873141Y-144276209D01*
X109873141Y-144276209D02*
X109679617Y-144179447D01*
X109679617Y-144179447D02*
X109389332Y-144179447D01*
X109389332Y-144179447D02*
X109195808Y-144276209D01*
X109195808Y-144276209D02*
X109099046Y-144372971D01*
X109099046Y-144372971D02*
X109002284Y-144566494D01*
X109002284Y-144566494D02*
X109002284Y-145147066D01*
X109002284Y-145147066D02*
X109099046Y-145340590D01*
X109099046Y-145340590D02*
X109195808Y-145437352D01*
X109195808Y-145437352D02*
X109389332Y-145534113D01*
X109389332Y-145534113D02*
X109679617Y-145534113D01*
X107260570Y-144179447D02*
X107260570Y-145534113D01*
X108131427Y-144179447D02*
X108131427Y-145243828D01*
X108131427Y-145243828D02*
X108034665Y-145437352D01*
X108034665Y-145437352D02*
X107841141Y-145534113D01*
X107841141Y-145534113D02*
X107550856Y-145534113D01*
X107550856Y-145534113D02*
X107357332Y-145437352D01*
X107357332Y-145437352D02*
X107260570Y-145340590D01*
X106292951Y-145534113D02*
X106292951Y-144179447D01*
X106292951Y-144566494D02*
X106196189Y-144372971D01*
X106196189Y-144372971D02*
X106099427Y-144276209D01*
X106099427Y-144276209D02*
X105905903Y-144179447D01*
X105905903Y-144179447D02*
X105712380Y-144179447D01*
X105131808Y-145437352D02*
X104938284Y-145534113D01*
X104938284Y-145534113D02*
X104551236Y-145534113D01*
X104551236Y-145534113D02*
X104357713Y-145437352D01*
X104357713Y-145437352D02*
X104260951Y-145243828D01*
X104260951Y-145243828D02*
X104260951Y-145147066D01*
X104260951Y-145147066D02*
X104357713Y-144953542D01*
X104357713Y-144953542D02*
X104551236Y-144856780D01*
X104551236Y-144856780D02*
X104841522Y-144856780D01*
X104841522Y-144856780D02*
X105035046Y-144760018D01*
X105035046Y-144760018D02*
X105131808Y-144566494D01*
X105131808Y-144566494D02*
X105131808Y-144469732D01*
X105131808Y-144469732D02*
X105035046Y-144276209D01*
X105035046Y-144276209D02*
X104841522Y-144179447D01*
X104841522Y-144179447D02*
X104551236Y-144179447D01*
X104551236Y-144179447D02*
X104357713Y-144276209D01*
X102615999Y-145437352D02*
X102809523Y-145534113D01*
X102809523Y-145534113D02*
X103196570Y-145534113D01*
X103196570Y-145534113D02*
X103390094Y-145437352D01*
X103390094Y-145437352D02*
X103486856Y-145243828D01*
X103486856Y-145243828D02*
X103486856Y-144469732D01*
X103486856Y-144469732D02*
X103390094Y-144276209D01*
X103390094Y-144276209D02*
X103196570Y-144179447D01*
X103196570Y-144179447D02*
X102809523Y-144179447D01*
X102809523Y-144179447D02*
X102615999Y-144276209D01*
X102615999Y-144276209D02*
X102519237Y-144469732D01*
X102519237Y-144469732D02*
X102519237Y-144663256D01*
X102519237Y-144663256D02*
X103486856Y-144856780D01*
X100390476Y-143502113D02*
X99229333Y-143502113D01*
X99809904Y-145534113D02*
X99809904Y-143502113D01*
X97681143Y-144179447D02*
X97681143Y-145534113D01*
X98552000Y-144179447D02*
X98552000Y-145243828D01*
X98552000Y-145243828D02*
X98455238Y-145437352D01*
X98455238Y-145437352D02*
X98261714Y-145534113D01*
X98261714Y-145534113D02*
X97971429Y-145534113D01*
X97971429Y-145534113D02*
X97777905Y-145437352D01*
X97777905Y-145437352D02*
X97681143Y-145340590D01*
X96713524Y-144179447D02*
X96713524Y-145534113D01*
X96713524Y-144372971D02*
X96616762Y-144276209D01*
X96616762Y-144276209D02*
X96423238Y-144179447D01*
X96423238Y-144179447D02*
X96132953Y-144179447D01*
X96132953Y-144179447D02*
X95939429Y-144276209D01*
X95939429Y-144276209D02*
X95842667Y-144469732D01*
X95842667Y-144469732D02*
X95842667Y-145534113D01*
X94875048Y-145534113D02*
X94875048Y-144179447D01*
X94875048Y-143502113D02*
X94971810Y-143598875D01*
X94971810Y-143598875D02*
X94875048Y-143695637D01*
X94875048Y-143695637D02*
X94778286Y-143598875D01*
X94778286Y-143598875D02*
X94875048Y-143502113D01*
X94875048Y-143502113D02*
X94875048Y-143695637D01*
X93907429Y-144179447D02*
X93907429Y-145534113D01*
X93907429Y-144372971D02*
X93810667Y-144276209D01*
X93810667Y-144276209D02*
X93617143Y-144179447D01*
X93617143Y-144179447D02*
X93326858Y-144179447D01*
X93326858Y-144179447D02*
X93133334Y-144276209D01*
X93133334Y-144276209D02*
X93036572Y-144469732D01*
X93036572Y-144469732D02*
X93036572Y-145534113D01*
X91198096Y-144179447D02*
X91198096Y-145824399D01*
X91198096Y-145824399D02*
X91294858Y-146017923D01*
X91294858Y-146017923D02*
X91391620Y-146114685D01*
X91391620Y-146114685D02*
X91585143Y-146211447D01*
X91585143Y-146211447D02*
X91875429Y-146211447D01*
X91875429Y-146211447D02*
X92068953Y-146114685D01*
X91198096Y-145437352D02*
X91391620Y-145534113D01*
X91391620Y-145534113D02*
X91778667Y-145534113D01*
X91778667Y-145534113D02*
X91972191Y-145437352D01*
X91972191Y-145437352D02*
X92068953Y-145340590D01*
X92068953Y-145340590D02*
X92165715Y-145147066D01*
X92165715Y-145147066D02*
X92165715Y-144566494D01*
X92165715Y-144566494D02*
X92068953Y-144372971D01*
X92068953Y-144372971D02*
X91972191Y-144276209D01*
X91972191Y-144276209D02*
X91778667Y-144179447D01*
X91778667Y-144179447D02*
X91391620Y-144179447D01*
X91391620Y-144179447D02*
X91198096Y-144276209D01*
X44583047Y-112417352D02*
X44292761Y-112514113D01*
X44292761Y-112514113D02*
X43808952Y-112514113D01*
X43808952Y-112514113D02*
X43615428Y-112417352D01*
X43615428Y-112417352D02*
X43518666Y-112320590D01*
X43518666Y-112320590D02*
X43421904Y-112127066D01*
X43421904Y-112127066D02*
X43421904Y-111933542D01*
X43421904Y-111933542D02*
X43518666Y-111740018D01*
X43518666Y-111740018D02*
X43615428Y-111643256D01*
X43615428Y-111643256D02*
X43808952Y-111546494D01*
X43808952Y-111546494D02*
X44195999Y-111449732D01*
X44195999Y-111449732D02*
X44389523Y-111352971D01*
X44389523Y-111352971D02*
X44486285Y-111256209D01*
X44486285Y-111256209D02*
X44583047Y-111062685D01*
X44583047Y-111062685D02*
X44583047Y-110869161D01*
X44583047Y-110869161D02*
X44486285Y-110675637D01*
X44486285Y-110675637D02*
X44389523Y-110578875D01*
X44389523Y-110578875D02*
X44195999Y-110482113D01*
X44195999Y-110482113D02*
X43712190Y-110482113D01*
X43712190Y-110482113D02*
X43421904Y-110578875D01*
X41680190Y-112514113D02*
X41680190Y-111449732D01*
X41680190Y-111449732D02*
X41776952Y-111256209D01*
X41776952Y-111256209D02*
X41970476Y-111159447D01*
X41970476Y-111159447D02*
X42357523Y-111159447D01*
X42357523Y-111159447D02*
X42551047Y-111256209D01*
X41680190Y-112417352D02*
X41873714Y-112514113D01*
X41873714Y-112514113D02*
X42357523Y-112514113D01*
X42357523Y-112514113D02*
X42551047Y-112417352D01*
X42551047Y-112417352D02*
X42647809Y-112223828D01*
X42647809Y-112223828D02*
X42647809Y-112030304D01*
X42647809Y-112030304D02*
X42551047Y-111836780D01*
X42551047Y-111836780D02*
X42357523Y-111740018D01*
X42357523Y-111740018D02*
X41873714Y-111740018D01*
X41873714Y-111740018D02*
X41680190Y-111643256D01*
X40906095Y-111159447D02*
X40519047Y-112514113D01*
X40519047Y-112514113D02*
X40132000Y-111546494D01*
X40132000Y-111546494D02*
X39744952Y-112514113D01*
X39744952Y-112514113D02*
X39357904Y-111159447D01*
X38874095Y-111159447D02*
X38099999Y-111159447D01*
X38583809Y-110482113D02*
X38583809Y-112223828D01*
X38583809Y-112223828D02*
X38487047Y-112417352D01*
X38487047Y-112417352D02*
X38293523Y-112514113D01*
X38293523Y-112514113D02*
X38099999Y-112514113D01*
X37132380Y-112514113D02*
X37325904Y-112417352D01*
X37325904Y-112417352D02*
X37422666Y-112320590D01*
X37422666Y-112320590D02*
X37519428Y-112127066D01*
X37519428Y-112127066D02*
X37519428Y-111546494D01*
X37519428Y-111546494D02*
X37422666Y-111352971D01*
X37422666Y-111352971D02*
X37325904Y-111256209D01*
X37325904Y-111256209D02*
X37132380Y-111159447D01*
X37132380Y-111159447D02*
X36842095Y-111159447D01*
X36842095Y-111159447D02*
X36648571Y-111256209D01*
X36648571Y-111256209D02*
X36551809Y-111352971D01*
X36551809Y-111352971D02*
X36455047Y-111546494D01*
X36455047Y-111546494D02*
X36455047Y-112127066D01*
X36455047Y-112127066D02*
X36551809Y-112320590D01*
X36551809Y-112320590D02*
X36648571Y-112417352D01*
X36648571Y-112417352D02*
X36842095Y-112514113D01*
X36842095Y-112514113D02*
X37132380Y-112514113D01*
X35293904Y-112514113D02*
X35487428Y-112417352D01*
X35487428Y-112417352D02*
X35584190Y-112320590D01*
X35584190Y-112320590D02*
X35680952Y-112127066D01*
X35680952Y-112127066D02*
X35680952Y-111546494D01*
X35680952Y-111546494D02*
X35584190Y-111352971D01*
X35584190Y-111352971D02*
X35487428Y-111256209D01*
X35487428Y-111256209D02*
X35293904Y-111159447D01*
X35293904Y-111159447D02*
X35003619Y-111159447D01*
X35003619Y-111159447D02*
X34810095Y-111256209D01*
X34810095Y-111256209D02*
X34713333Y-111352971D01*
X34713333Y-111352971D02*
X34616571Y-111546494D01*
X34616571Y-111546494D02*
X34616571Y-112127066D01*
X34616571Y-112127066D02*
X34713333Y-112320590D01*
X34713333Y-112320590D02*
X34810095Y-112417352D01*
X34810095Y-112417352D02*
X35003619Y-112514113D01*
X35003619Y-112514113D02*
X35293904Y-112514113D01*
X34036000Y-111159447D02*
X33261904Y-111159447D01*
X33745714Y-110482113D02*
X33745714Y-112223828D01*
X33745714Y-112223828D02*
X33648952Y-112417352D01*
X33648952Y-112417352D02*
X33455428Y-112514113D01*
X33455428Y-112514113D02*
X33261904Y-112514113D01*
X32584571Y-112514113D02*
X32584571Y-110482113D01*
X31713714Y-112514113D02*
X31713714Y-111449732D01*
X31713714Y-111449732D02*
X31810476Y-111256209D01*
X31810476Y-111256209D02*
X32004000Y-111159447D01*
X32004000Y-111159447D02*
X32294285Y-111159447D01*
X32294285Y-111159447D02*
X32487809Y-111256209D01*
X32487809Y-111256209D02*
X32584571Y-111352971D01*
X106728380Y-115562113D02*
X106051046Y-117594113D01*
X106051046Y-117594113D02*
X105373713Y-115562113D01*
X104696380Y-117594113D02*
X104696380Y-116239447D01*
X104696380Y-115562113D02*
X104793142Y-115658875D01*
X104793142Y-115658875D02*
X104696380Y-115755637D01*
X104696380Y-115755637D02*
X104599618Y-115658875D01*
X104599618Y-115658875D02*
X104696380Y-115562113D01*
X104696380Y-115562113D02*
X104696380Y-115755637D01*
X103728761Y-117594113D02*
X103728761Y-115562113D01*
X103728761Y-116336209D02*
X103535237Y-116239447D01*
X103535237Y-116239447D02*
X103148190Y-116239447D01*
X103148190Y-116239447D02*
X102954666Y-116336209D01*
X102954666Y-116336209D02*
X102857904Y-116432971D01*
X102857904Y-116432971D02*
X102761142Y-116626494D01*
X102761142Y-116626494D02*
X102761142Y-117207066D01*
X102761142Y-117207066D02*
X102857904Y-117400590D01*
X102857904Y-117400590D02*
X102954666Y-117497352D01*
X102954666Y-117497352D02*
X103148190Y-117594113D01*
X103148190Y-117594113D02*
X103535237Y-117594113D01*
X103535237Y-117594113D02*
X103728761Y-117497352D01*
X101890285Y-117594113D02*
X101890285Y-116239447D01*
X101890285Y-116626494D02*
X101793523Y-116432971D01*
X101793523Y-116432971D02*
X101696761Y-116336209D01*
X101696761Y-116336209D02*
X101503237Y-116239447D01*
X101503237Y-116239447D02*
X101309714Y-116239447D01*
X99761523Y-117594113D02*
X99761523Y-116529732D01*
X99761523Y-116529732D02*
X99858285Y-116336209D01*
X99858285Y-116336209D02*
X100051809Y-116239447D01*
X100051809Y-116239447D02*
X100438856Y-116239447D01*
X100438856Y-116239447D02*
X100632380Y-116336209D01*
X99761523Y-117497352D02*
X99955047Y-117594113D01*
X99955047Y-117594113D02*
X100438856Y-117594113D01*
X100438856Y-117594113D02*
X100632380Y-117497352D01*
X100632380Y-117497352D02*
X100729142Y-117303828D01*
X100729142Y-117303828D02*
X100729142Y-117110304D01*
X100729142Y-117110304D02*
X100632380Y-116916780D01*
X100632380Y-116916780D02*
X100438856Y-116820018D01*
X100438856Y-116820018D02*
X99955047Y-116820018D01*
X99955047Y-116820018D02*
X99761523Y-116723256D01*
X99084190Y-116239447D02*
X98310094Y-116239447D01*
X98793904Y-115562113D02*
X98793904Y-117303828D01*
X98793904Y-117303828D02*
X98697142Y-117497352D01*
X98697142Y-117497352D02*
X98503618Y-117594113D01*
X98503618Y-117594113D02*
X98310094Y-117594113D01*
X97342475Y-117594113D02*
X97535999Y-117497352D01*
X97535999Y-117497352D02*
X97632761Y-117400590D01*
X97632761Y-117400590D02*
X97729523Y-117207066D01*
X97729523Y-117207066D02*
X97729523Y-116626494D01*
X97729523Y-116626494D02*
X97632761Y-116432971D01*
X97632761Y-116432971D02*
X97535999Y-116336209D01*
X97535999Y-116336209D02*
X97342475Y-116239447D01*
X97342475Y-116239447D02*
X97052190Y-116239447D01*
X97052190Y-116239447D02*
X96858666Y-116336209D01*
X96858666Y-116336209D02*
X96761904Y-116432971D01*
X96761904Y-116432971D02*
X96665142Y-116626494D01*
X96665142Y-116626494D02*
X96665142Y-117207066D01*
X96665142Y-117207066D02*
X96761904Y-117400590D01*
X96761904Y-117400590D02*
X96858666Y-117497352D01*
X96858666Y-117497352D02*
X97052190Y-117594113D01*
X97052190Y-117594113D02*
X97342475Y-117594113D01*
X40954475Y-56537352D02*
X40664189Y-56634113D01*
X40664189Y-56634113D02*
X40180380Y-56634113D01*
X40180380Y-56634113D02*
X39986856Y-56537352D01*
X39986856Y-56537352D02*
X39890094Y-56440590D01*
X39890094Y-56440590D02*
X39793332Y-56247066D01*
X39793332Y-56247066D02*
X39793332Y-56053542D01*
X39793332Y-56053542D02*
X39890094Y-55860018D01*
X39890094Y-55860018D02*
X39986856Y-55763256D01*
X39986856Y-55763256D02*
X40180380Y-55666494D01*
X40180380Y-55666494D02*
X40567427Y-55569732D01*
X40567427Y-55569732D02*
X40760951Y-55472971D01*
X40760951Y-55472971D02*
X40857713Y-55376209D01*
X40857713Y-55376209D02*
X40954475Y-55182685D01*
X40954475Y-55182685D02*
X40954475Y-54989161D01*
X40954475Y-54989161D02*
X40857713Y-54795637D01*
X40857713Y-54795637D02*
X40760951Y-54698875D01*
X40760951Y-54698875D02*
X40567427Y-54602113D01*
X40567427Y-54602113D02*
X40083618Y-54602113D01*
X40083618Y-54602113D02*
X39793332Y-54698875D01*
X38922475Y-56634113D02*
X38922475Y-55279447D01*
X38922475Y-54602113D02*
X39019237Y-54698875D01*
X39019237Y-54698875D02*
X38922475Y-54795637D01*
X38922475Y-54795637D02*
X38825713Y-54698875D01*
X38825713Y-54698875D02*
X38922475Y-54602113D01*
X38922475Y-54602113D02*
X38922475Y-54795637D01*
X37954856Y-55279447D02*
X37954856Y-56634113D01*
X37954856Y-55472971D02*
X37858094Y-55376209D01*
X37858094Y-55376209D02*
X37664570Y-55279447D01*
X37664570Y-55279447D02*
X37374285Y-55279447D01*
X37374285Y-55279447D02*
X37180761Y-55376209D01*
X37180761Y-55376209D02*
X37083999Y-55569732D01*
X37083999Y-55569732D02*
X37083999Y-56634113D01*
X35342285Y-56537352D02*
X35535809Y-56634113D01*
X35535809Y-56634113D02*
X35922856Y-56634113D01*
X35922856Y-56634113D02*
X36116380Y-56537352D01*
X36116380Y-56537352D02*
X36213142Y-56343828D01*
X36213142Y-56343828D02*
X36213142Y-55569732D01*
X36213142Y-55569732D02*
X36116380Y-55376209D01*
X36116380Y-55376209D02*
X35922856Y-55279447D01*
X35922856Y-55279447D02*
X35535809Y-55279447D01*
X35535809Y-55279447D02*
X35342285Y-55376209D01*
X35342285Y-55376209D02*
X35245523Y-55569732D01*
X35245523Y-55569732D02*
X35245523Y-55763256D01*
X35245523Y-55763256D02*
X36213142Y-55956780D01*
X109389332Y-49014113D02*
X109389332Y-46982113D01*
X109389332Y-46982113D02*
X108711999Y-48433542D01*
X108711999Y-48433542D02*
X108034665Y-46982113D01*
X108034665Y-46982113D02*
X108034665Y-49014113D01*
X106776760Y-49014113D02*
X106970284Y-48917352D01*
X106970284Y-48917352D02*
X107067046Y-48820590D01*
X107067046Y-48820590D02*
X107163808Y-48627066D01*
X107163808Y-48627066D02*
X107163808Y-48046494D01*
X107163808Y-48046494D02*
X107067046Y-47852971D01*
X107067046Y-47852971D02*
X106970284Y-47756209D01*
X106970284Y-47756209D02*
X106776760Y-47659447D01*
X106776760Y-47659447D02*
X106486475Y-47659447D01*
X106486475Y-47659447D02*
X106292951Y-47756209D01*
X106292951Y-47756209D02*
X106196189Y-47852971D01*
X106196189Y-47852971D02*
X106099427Y-48046494D01*
X106099427Y-48046494D02*
X106099427Y-48627066D01*
X106099427Y-48627066D02*
X106196189Y-48820590D01*
X106196189Y-48820590D02*
X106292951Y-48917352D01*
X106292951Y-48917352D02*
X106486475Y-49014113D01*
X106486475Y-49014113D02*
X106776760Y-49014113D01*
X104357713Y-49014113D02*
X104357713Y-46982113D01*
X104357713Y-48917352D02*
X104551237Y-49014113D01*
X104551237Y-49014113D02*
X104938284Y-49014113D01*
X104938284Y-49014113D02*
X105131808Y-48917352D01*
X105131808Y-48917352D02*
X105228570Y-48820590D01*
X105228570Y-48820590D02*
X105325332Y-48627066D01*
X105325332Y-48627066D02*
X105325332Y-48046494D01*
X105325332Y-48046494D02*
X105228570Y-47852971D01*
X105228570Y-47852971D02*
X105131808Y-47756209D01*
X105131808Y-47756209D02*
X104938284Y-47659447D01*
X104938284Y-47659447D02*
X104551237Y-47659447D01*
X104551237Y-47659447D02*
X104357713Y-47756209D01*
X102519237Y-47659447D02*
X102519237Y-49014113D01*
X103390094Y-47659447D02*
X103390094Y-48723828D01*
X103390094Y-48723828D02*
X103293332Y-48917352D01*
X103293332Y-48917352D02*
X103099808Y-49014113D01*
X103099808Y-49014113D02*
X102809523Y-49014113D01*
X102809523Y-49014113D02*
X102615999Y-48917352D01*
X102615999Y-48917352D02*
X102519237Y-48820590D01*
X101261332Y-49014113D02*
X101454856Y-48917352D01*
X101454856Y-48917352D02*
X101551618Y-48723828D01*
X101551618Y-48723828D02*
X101551618Y-46982113D01*
X99616380Y-49014113D02*
X99616380Y-47949732D01*
X99616380Y-47949732D02*
X99713142Y-47756209D01*
X99713142Y-47756209D02*
X99906666Y-47659447D01*
X99906666Y-47659447D02*
X100293713Y-47659447D01*
X100293713Y-47659447D02*
X100487237Y-47756209D01*
X99616380Y-48917352D02*
X99809904Y-49014113D01*
X99809904Y-49014113D02*
X100293713Y-49014113D01*
X100293713Y-49014113D02*
X100487237Y-48917352D01*
X100487237Y-48917352D02*
X100583999Y-48723828D01*
X100583999Y-48723828D02*
X100583999Y-48530304D01*
X100583999Y-48530304D02*
X100487237Y-48336780D01*
X100487237Y-48336780D02*
X100293713Y-48240018D01*
X100293713Y-48240018D02*
X99809904Y-48240018D01*
X99809904Y-48240018D02*
X99616380Y-48143256D01*
X98939047Y-47659447D02*
X98164951Y-47659447D01*
X98648761Y-46982113D02*
X98648761Y-48723828D01*
X98648761Y-48723828D02*
X98551999Y-48917352D01*
X98551999Y-48917352D02*
X98358475Y-49014113D01*
X98358475Y-49014113D02*
X98164951Y-49014113D01*
X97487618Y-49014113D02*
X97487618Y-47659447D01*
X97487618Y-46982113D02*
X97584380Y-47078875D01*
X97584380Y-47078875D02*
X97487618Y-47175637D01*
X97487618Y-47175637D02*
X97390856Y-47078875D01*
X97390856Y-47078875D02*
X97487618Y-46982113D01*
X97487618Y-46982113D02*
X97487618Y-47175637D01*
X96229713Y-49014113D02*
X96423237Y-48917352D01*
X96423237Y-48917352D02*
X96519999Y-48820590D01*
X96519999Y-48820590D02*
X96616761Y-48627066D01*
X96616761Y-48627066D02*
X96616761Y-48046494D01*
X96616761Y-48046494D02*
X96519999Y-47852971D01*
X96519999Y-47852971D02*
X96423237Y-47756209D01*
X96423237Y-47756209D02*
X96229713Y-47659447D01*
X96229713Y-47659447D02*
X95939428Y-47659447D01*
X95939428Y-47659447D02*
X95745904Y-47756209D01*
X95745904Y-47756209D02*
X95649142Y-47852971D01*
X95649142Y-47852971D02*
X95552380Y-48046494D01*
X95552380Y-48046494D02*
X95552380Y-48627066D01*
X95552380Y-48627066D02*
X95649142Y-48820590D01*
X95649142Y-48820590D02*
X95745904Y-48917352D01*
X95745904Y-48917352D02*
X95939428Y-49014113D01*
X95939428Y-49014113D02*
X96229713Y-49014113D01*
X94681523Y-47659447D02*
X94681523Y-49014113D01*
X94681523Y-47852971D02*
X94584761Y-47756209D01*
X94584761Y-47756209D02*
X94391237Y-47659447D01*
X94391237Y-47659447D02*
X94100952Y-47659447D01*
X94100952Y-47659447D02*
X93907428Y-47756209D01*
X93907428Y-47756209D02*
X93810666Y-47949732D01*
X93810666Y-47949732D02*
X93810666Y-49014113D01*
X39890094Y-166458875D02*
X40083618Y-166362113D01*
X40083618Y-166362113D02*
X40373904Y-166362113D01*
X40373904Y-166362113D02*
X40664189Y-166458875D01*
X40664189Y-166458875D02*
X40857713Y-166652399D01*
X40857713Y-166652399D02*
X40954475Y-166845923D01*
X40954475Y-166845923D02*
X41051237Y-167232971D01*
X41051237Y-167232971D02*
X41051237Y-167523256D01*
X41051237Y-167523256D02*
X40954475Y-167910304D01*
X40954475Y-167910304D02*
X40857713Y-168103828D01*
X40857713Y-168103828D02*
X40664189Y-168297352D01*
X40664189Y-168297352D02*
X40373904Y-168394113D01*
X40373904Y-168394113D02*
X40180380Y-168394113D01*
X40180380Y-168394113D02*
X39890094Y-168297352D01*
X39890094Y-168297352D02*
X39793332Y-168200590D01*
X39793332Y-168200590D02*
X39793332Y-167523256D01*
X39793332Y-167523256D02*
X40180380Y-167523256D01*
X38051618Y-168394113D02*
X38051618Y-167329732D01*
X38051618Y-167329732D02*
X38148380Y-167136209D01*
X38148380Y-167136209D02*
X38341904Y-167039447D01*
X38341904Y-167039447D02*
X38728951Y-167039447D01*
X38728951Y-167039447D02*
X38922475Y-167136209D01*
X38051618Y-168297352D02*
X38245142Y-168394113D01*
X38245142Y-168394113D02*
X38728951Y-168394113D01*
X38728951Y-168394113D02*
X38922475Y-168297352D01*
X38922475Y-168297352D02*
X39019237Y-168103828D01*
X39019237Y-168103828D02*
X39019237Y-167910304D01*
X39019237Y-167910304D02*
X38922475Y-167716780D01*
X38922475Y-167716780D02*
X38728951Y-167620018D01*
X38728951Y-167620018D02*
X38245142Y-167620018D01*
X38245142Y-167620018D02*
X38051618Y-167523256D01*
X37083999Y-168394113D02*
X37083999Y-167039447D01*
X37083999Y-166362113D02*
X37180761Y-166458875D01*
X37180761Y-166458875D02*
X37083999Y-166555637D01*
X37083999Y-166555637D02*
X36987237Y-166458875D01*
X36987237Y-166458875D02*
X37083999Y-166362113D01*
X37083999Y-166362113D02*
X37083999Y-166555637D01*
X36116380Y-167039447D02*
X36116380Y-168394113D01*
X36116380Y-167232971D02*
X36019618Y-167136209D01*
X36019618Y-167136209D02*
X35826094Y-167039447D01*
X35826094Y-167039447D02*
X35535809Y-167039447D01*
X35535809Y-167039447D02*
X35342285Y-167136209D01*
X35342285Y-167136209D02*
X35245523Y-167329732D01*
X35245523Y-167329732D02*
X35245523Y-168394113D01*
X109292570Y-172409732D02*
X109969903Y-172409732D01*
X109969903Y-173474113D02*
X109969903Y-171442113D01*
X109969903Y-171442113D02*
X109002284Y-171442113D01*
X108228189Y-173474113D02*
X108228189Y-172119447D01*
X108228189Y-171442113D02*
X108324951Y-171538875D01*
X108324951Y-171538875D02*
X108228189Y-171635637D01*
X108228189Y-171635637D02*
X108131427Y-171538875D01*
X108131427Y-171538875D02*
X108228189Y-171442113D01*
X108228189Y-171442113D02*
X108228189Y-171635637D01*
X107260570Y-172119447D02*
X107260570Y-173474113D01*
X107260570Y-172312971D02*
X107163808Y-172216209D01*
X107163808Y-172216209D02*
X106970284Y-172119447D01*
X106970284Y-172119447D02*
X106679999Y-172119447D01*
X106679999Y-172119447D02*
X106486475Y-172216209D01*
X106486475Y-172216209D02*
X106389713Y-172409732D01*
X106389713Y-172409732D02*
X106389713Y-173474113D01*
X104647999Y-173377352D02*
X104841523Y-173474113D01*
X104841523Y-173474113D02*
X105228570Y-173474113D01*
X105228570Y-173474113D02*
X105422094Y-173377352D01*
X105422094Y-173377352D02*
X105518856Y-173183828D01*
X105518856Y-173183828D02*
X105518856Y-172409732D01*
X105518856Y-172409732D02*
X105422094Y-172216209D01*
X105422094Y-172216209D02*
X105228570Y-172119447D01*
X105228570Y-172119447D02*
X104841523Y-172119447D01*
X104841523Y-172119447D02*
X104647999Y-172216209D01*
X104647999Y-172216209D02*
X104551237Y-172409732D01*
X104551237Y-172409732D02*
X104551237Y-172603256D01*
X104551237Y-172603256D02*
X105518856Y-172796780D01*
X102422476Y-171442113D02*
X101261333Y-171442113D01*
X101841904Y-173474113D02*
X101841904Y-171442113D01*
X99713143Y-172119447D02*
X99713143Y-173474113D01*
X100584000Y-172119447D02*
X100584000Y-173183828D01*
X100584000Y-173183828D02*
X100487238Y-173377352D01*
X100487238Y-173377352D02*
X100293714Y-173474113D01*
X100293714Y-173474113D02*
X100003429Y-173474113D01*
X100003429Y-173474113D02*
X99809905Y-173377352D01*
X99809905Y-173377352D02*
X99713143Y-173280590D01*
X98745524Y-172119447D02*
X98745524Y-173474113D01*
X98745524Y-172312971D02*
X98648762Y-172216209D01*
X98648762Y-172216209D02*
X98455238Y-172119447D01*
X98455238Y-172119447D02*
X98164953Y-172119447D01*
X98164953Y-172119447D02*
X97971429Y-172216209D01*
X97971429Y-172216209D02*
X97874667Y-172409732D01*
X97874667Y-172409732D02*
X97874667Y-173474113D01*
X96907048Y-173474113D02*
X96907048Y-172119447D01*
X96907048Y-171442113D02*
X97003810Y-171538875D01*
X97003810Y-171538875D02*
X96907048Y-171635637D01*
X96907048Y-171635637D02*
X96810286Y-171538875D01*
X96810286Y-171538875D02*
X96907048Y-171442113D01*
X96907048Y-171442113D02*
X96907048Y-171635637D01*
X95939429Y-172119447D02*
X95939429Y-173474113D01*
X95939429Y-172312971D02*
X95842667Y-172216209D01*
X95842667Y-172216209D02*
X95649143Y-172119447D01*
X95649143Y-172119447D02*
X95358858Y-172119447D01*
X95358858Y-172119447D02*
X95165334Y-172216209D01*
X95165334Y-172216209D02*
X95068572Y-172409732D01*
X95068572Y-172409732D02*
X95068572Y-173474113D01*
X93230096Y-172119447D02*
X93230096Y-173764399D01*
X93230096Y-173764399D02*
X93326858Y-173957923D01*
X93326858Y-173957923D02*
X93423620Y-174054685D01*
X93423620Y-174054685D02*
X93617143Y-174151447D01*
X93617143Y-174151447D02*
X93907429Y-174151447D01*
X93907429Y-174151447D02*
X94100953Y-174054685D01*
X93230096Y-173377352D02*
X93423620Y-173474113D01*
X93423620Y-173474113D02*
X93810667Y-173474113D01*
X93810667Y-173474113D02*
X94004191Y-173377352D01*
X94004191Y-173377352D02*
X94100953Y-173280590D01*
X94100953Y-173280590D02*
X94197715Y-173087066D01*
X94197715Y-173087066D02*
X94197715Y-172506494D01*
X94197715Y-172506494D02*
X94100953Y-172312971D01*
X94100953Y-172312971D02*
X94004191Y-172216209D01*
X94004191Y-172216209D02*
X93810667Y-172119447D01*
X93810667Y-172119447D02*
X93423620Y-172119447D01*
X93423620Y-172119447D02*
X93230096Y-172216209D01*
X110115046Y-76954113D02*
X110115046Y-74922113D01*
X110115046Y-74922113D02*
X109340951Y-74922113D01*
X109340951Y-74922113D02*
X109147427Y-75018875D01*
X109147427Y-75018875D02*
X109050665Y-75115637D01*
X109050665Y-75115637D02*
X108953903Y-75309161D01*
X108953903Y-75309161D02*
X108953903Y-75599447D01*
X108953903Y-75599447D02*
X109050665Y-75792971D01*
X109050665Y-75792971D02*
X109147427Y-75889732D01*
X109147427Y-75889732D02*
X109340951Y-75986494D01*
X109340951Y-75986494D02*
X110115046Y-75986494D01*
X107212189Y-75599447D02*
X107212189Y-76954113D01*
X108083046Y-75599447D02*
X108083046Y-76663828D01*
X108083046Y-76663828D02*
X107986284Y-76857352D01*
X107986284Y-76857352D02*
X107792760Y-76954113D01*
X107792760Y-76954113D02*
X107502475Y-76954113D01*
X107502475Y-76954113D02*
X107308951Y-76857352D01*
X107308951Y-76857352D02*
X107212189Y-76760590D01*
X105954284Y-76954113D02*
X106147808Y-76857352D01*
X106147808Y-76857352D02*
X106244570Y-76663828D01*
X106244570Y-76663828D02*
X106244570Y-74922113D01*
X105276951Y-76857352D02*
X105083427Y-76954113D01*
X105083427Y-76954113D02*
X104696379Y-76954113D01*
X104696379Y-76954113D02*
X104502856Y-76857352D01*
X104502856Y-76857352D02*
X104406094Y-76663828D01*
X104406094Y-76663828D02*
X104406094Y-76567066D01*
X104406094Y-76567066D02*
X104502856Y-76373542D01*
X104502856Y-76373542D02*
X104696379Y-76276780D01*
X104696379Y-76276780D02*
X104986665Y-76276780D01*
X104986665Y-76276780D02*
X105180189Y-76180018D01*
X105180189Y-76180018D02*
X105276951Y-75986494D01*
X105276951Y-75986494D02*
X105276951Y-75889732D01*
X105276951Y-75889732D02*
X105180189Y-75696209D01*
X105180189Y-75696209D02*
X104986665Y-75599447D01*
X104986665Y-75599447D02*
X104696379Y-75599447D01*
X104696379Y-75599447D02*
X104502856Y-75696209D01*
X102761142Y-76857352D02*
X102954666Y-76954113D01*
X102954666Y-76954113D02*
X103341713Y-76954113D01*
X103341713Y-76954113D02*
X103535237Y-76857352D01*
X103535237Y-76857352D02*
X103631999Y-76663828D01*
X103631999Y-76663828D02*
X103631999Y-75889732D01*
X103631999Y-75889732D02*
X103535237Y-75696209D01*
X103535237Y-75696209D02*
X103341713Y-75599447D01*
X103341713Y-75599447D02*
X102954666Y-75599447D01*
X102954666Y-75599447D02*
X102761142Y-75696209D01*
X102761142Y-75696209D02*
X102664380Y-75889732D01*
X102664380Y-75889732D02*
X102664380Y-76083256D01*
X102664380Y-76083256D02*
X103631999Y-76276780D01*
X100438857Y-74922113D02*
X99955047Y-76954113D01*
X99955047Y-76954113D02*
X99568000Y-75502685D01*
X99568000Y-75502685D02*
X99180952Y-76954113D01*
X99180952Y-76954113D02*
X98697143Y-74922113D01*
X97923047Y-76954113D02*
X97923047Y-75599447D01*
X97923047Y-74922113D02*
X98019809Y-75018875D01*
X98019809Y-75018875D02*
X97923047Y-75115637D01*
X97923047Y-75115637D02*
X97826285Y-75018875D01*
X97826285Y-75018875D02*
X97923047Y-74922113D01*
X97923047Y-74922113D02*
X97923047Y-75115637D01*
X96084571Y-76954113D02*
X96084571Y-74922113D01*
X96084571Y-76857352D02*
X96278095Y-76954113D01*
X96278095Y-76954113D02*
X96665142Y-76954113D01*
X96665142Y-76954113D02*
X96858666Y-76857352D01*
X96858666Y-76857352D02*
X96955428Y-76760590D01*
X96955428Y-76760590D02*
X97052190Y-76567066D01*
X97052190Y-76567066D02*
X97052190Y-75986494D01*
X97052190Y-75986494D02*
X96955428Y-75792971D01*
X96955428Y-75792971D02*
X96858666Y-75696209D01*
X96858666Y-75696209D02*
X96665142Y-75599447D01*
X96665142Y-75599447D02*
X96278095Y-75599447D01*
X96278095Y-75599447D02*
X96084571Y-75696209D01*
X95407238Y-75599447D02*
X94633142Y-75599447D01*
X95116952Y-74922113D02*
X95116952Y-76663828D01*
X95116952Y-76663828D02*
X95020190Y-76857352D01*
X95020190Y-76857352D02*
X94826666Y-76954113D01*
X94826666Y-76954113D02*
X94633142Y-76954113D01*
X93955809Y-76954113D02*
X93955809Y-74922113D01*
X93084952Y-76954113D02*
X93084952Y-75889732D01*
X93084952Y-75889732D02*
X93181714Y-75696209D01*
X93181714Y-75696209D02*
X93375238Y-75599447D01*
X93375238Y-75599447D02*
X93665523Y-75599447D01*
X93665523Y-75599447D02*
X93859047Y-75696209D01*
X93859047Y-75696209D02*
X93955809Y-75792971D01*
X43954094Y-82542113D02*
X42792951Y-82542113D01*
X43373522Y-84574113D02*
X43373522Y-82542113D01*
X42115618Y-84574113D02*
X42115618Y-83219447D01*
X42115618Y-83606494D02*
X42018856Y-83412971D01*
X42018856Y-83412971D02*
X41922094Y-83316209D01*
X41922094Y-83316209D02*
X41728570Y-83219447D01*
X41728570Y-83219447D02*
X41535047Y-83219447D01*
X40857713Y-84574113D02*
X40857713Y-83219447D01*
X40857713Y-82542113D02*
X40954475Y-82638875D01*
X40954475Y-82638875D02*
X40857713Y-82735637D01*
X40857713Y-82735637D02*
X40760951Y-82638875D01*
X40760951Y-82638875D02*
X40857713Y-82542113D01*
X40857713Y-82542113D02*
X40857713Y-82735637D01*
X39019237Y-84574113D02*
X39019237Y-83509732D01*
X39019237Y-83509732D02*
X39115999Y-83316209D01*
X39115999Y-83316209D02*
X39309523Y-83219447D01*
X39309523Y-83219447D02*
X39696570Y-83219447D01*
X39696570Y-83219447D02*
X39890094Y-83316209D01*
X39019237Y-84477352D02*
X39212761Y-84574113D01*
X39212761Y-84574113D02*
X39696570Y-84574113D01*
X39696570Y-84574113D02*
X39890094Y-84477352D01*
X39890094Y-84477352D02*
X39986856Y-84283828D01*
X39986856Y-84283828D02*
X39986856Y-84090304D01*
X39986856Y-84090304D02*
X39890094Y-83896780D01*
X39890094Y-83896780D02*
X39696570Y-83800018D01*
X39696570Y-83800018D02*
X39212761Y-83800018D01*
X39212761Y-83800018D02*
X39019237Y-83703256D01*
X38051618Y-83219447D02*
X38051618Y-84574113D01*
X38051618Y-83412971D02*
X37954856Y-83316209D01*
X37954856Y-83316209D02*
X37761332Y-83219447D01*
X37761332Y-83219447D02*
X37471047Y-83219447D01*
X37471047Y-83219447D02*
X37277523Y-83316209D01*
X37277523Y-83316209D02*
X37180761Y-83509732D01*
X37180761Y-83509732D02*
X37180761Y-84574113D01*
X35342285Y-83219447D02*
X35342285Y-84864399D01*
X35342285Y-84864399D02*
X35439047Y-85057923D01*
X35439047Y-85057923D02*
X35535809Y-85154685D01*
X35535809Y-85154685D02*
X35729332Y-85251447D01*
X35729332Y-85251447D02*
X36019618Y-85251447D01*
X36019618Y-85251447D02*
X36213142Y-85154685D01*
X35342285Y-84477352D02*
X35535809Y-84574113D01*
X35535809Y-84574113D02*
X35922856Y-84574113D01*
X35922856Y-84574113D02*
X36116380Y-84477352D01*
X36116380Y-84477352D02*
X36213142Y-84380590D01*
X36213142Y-84380590D02*
X36309904Y-84187066D01*
X36309904Y-84187066D02*
X36309904Y-83606494D01*
X36309904Y-83606494D02*
X36213142Y-83412971D01*
X36213142Y-83412971D02*
X36116380Y-83316209D01*
X36116380Y-83316209D02*
X35922856Y-83219447D01*
X35922856Y-83219447D02*
X35535809Y-83219447D01*
X35535809Y-83219447D02*
X35342285Y-83316209D01*
X34084380Y-84574113D02*
X34277904Y-84477352D01*
X34277904Y-84477352D02*
X34374666Y-84283828D01*
X34374666Y-84283828D02*
X34374666Y-82542113D01*
X32536190Y-84477352D02*
X32729714Y-84574113D01*
X32729714Y-84574113D02*
X33116761Y-84574113D01*
X33116761Y-84574113D02*
X33310285Y-84477352D01*
X33310285Y-84477352D02*
X33407047Y-84283828D01*
X33407047Y-84283828D02*
X33407047Y-83509732D01*
X33407047Y-83509732D02*
X33310285Y-83316209D01*
X33310285Y-83316209D02*
X33116761Y-83219447D01*
X33116761Y-83219447D02*
X32729714Y-83219447D01*
X32729714Y-83219447D02*
X32536190Y-83316209D01*
X32536190Y-83316209D02*
X32439428Y-83509732D01*
X32439428Y-83509732D02*
X32439428Y-83703256D01*
X32439428Y-83703256D02*
X33407047Y-83896780D01*
M02*
