%TF.GenerationSoftware,KiCad,Pcbnew,9.0.6*%
%TF.CreationDate,2026-04-22T22:06:35-07:00*%
%TF.ProjectId,modulinVCO,6d6f6475-6c69-46e5-9643-4f2e6b696361,rev?*%
%TF.SameCoordinates,Original*%
%TF.FileFunction,Paste,Top*%
%TF.FilePolarity,Positive*%
%FSLAX46Y46*%
G04 Gerber Fmt 4.6, Leading zero omitted, Abs format (unit mm)*
G04 Created by KiCad (PCBNEW 9.0.6) date 2026-04-22 22:06:35*
%MOMM*%
%LPD*%
G01*
G04 APERTURE LIST*
%ADD10C,2.286000*%
%ADD11R,2.286000X2.286000*%
%ADD12O,18.000000X12.000000*%
G04 APERTURE END LIST*
D10*
%TO.C,RV17*%
X43180000Y-142540000D03*
X38100000Y-142540000D03*
D11*
X33020000Y-142540000D03*
D12*
X38100000Y-129540000D03*
%TD*%
D10*
%TO.C,RV1*%
X106680000Y-147620000D03*
X101600000Y-147620000D03*
D11*
X96520000Y-147620000D03*
D12*
X101600000Y-134620000D03*
%TD*%
D10*
%TO.C,RV16*%
X43180000Y-114600000D03*
X38100000Y-114600000D03*
D11*
X33020000Y-114600000D03*
D12*
X38100000Y-101600000D03*
%TD*%
D10*
%TO.C,RV3*%
X106680000Y-119680000D03*
X101600000Y-119680000D03*
D11*
X96520000Y-119680000D03*
D12*
X101600000Y-106680000D03*
%TD*%
D10*
%TO.C,RV14*%
X43180000Y-58720000D03*
X38100000Y-58720000D03*
D11*
X33020000Y-58720000D03*
D12*
X38100000Y-45720000D03*
%TD*%
D10*
%TO.C,RV7*%
X106680000Y-51100000D03*
X101600000Y-51100000D03*
D11*
X96520000Y-51100000D03*
D12*
X101600000Y-38100000D03*
%TD*%
D10*
%TO.C,RV18*%
X43180000Y-170480000D03*
X38100000Y-170480000D03*
D11*
X33020000Y-170480000D03*
D12*
X38100000Y-157480000D03*
%TD*%
D10*
%TO.C,RV2*%
X106680000Y-175560000D03*
X101600000Y-175560000D03*
D11*
X96520000Y-175560000D03*
D12*
X101600000Y-162560000D03*
%TD*%
D10*
%TO.C,RV8*%
X106680000Y-79040000D03*
X101600000Y-79040000D03*
D11*
X96520000Y-79040000D03*
D12*
X101600000Y-66040000D03*
%TD*%
D10*
%TO.C,RV15*%
X43180000Y-86660000D03*
X38100000Y-86660000D03*
D11*
X33020000Y-86660000D03*
D12*
X38100000Y-73660000D03*
%TD*%
M02*
