M48
; DRILL file {KiCad 9.0.6} date 2026-04-22T22:06:37-0700
; FORMAT={-:-/ absolute / metric / decimal}
; #@! TF.CreationDate,2026-04-22T22:06:37-07:00
; #@! TF.GenerationSoftware,Kicad,Pcbnew,9.0.6
; #@! TF.FileFunction,Plated,1,2,PTH
FMAT,2
METRIC
; #@! TA.AperFunction,Plated,PTH,ViaDrill
T1C0.813
; #@! TA.AperFunction,Plated,PTH,ComponentDrill
T2C0.813
; #@! TA.AperFunction,Plated,PTH,ComponentDrill
T3C0.900
; #@! TA.AperFunction,Plated,PTH,ComponentDrill
T4C1.016
; #@! TA.AperFunction,Plated,PTH,ComponentDrill
T5C1.143
; #@! TA.AperFunction,Plated,PTH,ComponentDrill
T6C1.270
; #@! TA.AperFunction,Plated,PTH,ComponentDrill
T7C1.397
; #@! TA.AperFunction,Plated,PTH,ComponentDrill
T8C2.794
; #@! TA.AperFunction,Plated,PTH,ComponentDrill
T9C3.300
; #@! TA.AperFunction,Plated,PTH,ComponentDrill
T10C7.000
%
G90
G05
T1
X41.098Y-177.8
X47.244Y-80.157
X47.244Y-86.868
X47.752Y-136.144
X48.006Y-110.744
X48.514Y-114.554
X48.63Y-140.346
X48.631Y-55.626
X50.562Y-80.645
X50.562Y-94.234
X50.562Y-108.712
X50.562Y-136.144
X50.8Y-182.88
X52.68Y-91.694
X52.68Y-114.3
X52.68Y-157.48
X54.61Y-110.744
X60.96Y-119.126
X62.738Y-102.87
X70.358Y-105.918
X70.612Y-113.03
X71.981Y-179.07
X72.898Y-162.814
X80.643Y-182.411
X82.931Y-183.515
X86.36Y-183.642
X86.614Y-149.352
X86.614Y-173.609
X88.551Y-64.675
X88.646Y-54.483
X88.646Y-83.566
X88.646Y-105.41
X88.646Y-138.176
X88.646Y-171.45
X88.9Y-187.96
X88.9Y-191.77
X90.678Y-129.032
X92.608Y-119.634
X96.006Y-170.186
X96.52Y-54.483
X101.6Y-54.356
X101.6Y-82.677
X101.978Y-142.878
X102.489Y-185.039
T2
X27.94Y-62.23
X27.94Y-90.17
X27.94Y-118.11
X27.94Y-146.05
X33.02Y-173.99
X33.02Y-177.8
X33.02Y-180.34
X35.56Y-173.99
X36.83Y-177.8
X36.83Y-180.34
X36.83Y-182.88
X36.83Y-185.42
X36.87Y-189.23
X38.1Y-62.23
X38.1Y-90.17
X38.1Y-118.11
X38.1Y-146.05
X38.1Y-173.99
X41.87Y-189.23
X43.18Y-173.99
X44.45Y-177.8
X44.45Y-180.34
X44.45Y-182.88
X44.45Y-185.42
X48.26Y-172.76
X48.26Y-177.76
X49.032Y-166.878
X50.546Y-46.228
X50.546Y-61.722
X52.705Y-50.165
X52.832Y-166.878
X52.832Y-174.752
X53.634Y-181.864
X54.864Y-65.913
X54.864Y-76.073
X54.904Y-178.054
X55.793Y-37.211
X55.88Y-54.356
X56.515Y-81.534
X56.515Y-84.582
X56.896Y-114.173
X56.896Y-116.713
X56.896Y-119.253
X56.896Y-127.762
X56.896Y-130.302
X56.896Y-132.842
X56.896Y-161.29
X56.896Y-171.45
X57.952Y-72.39
X57.952Y-91.694
X58.42Y-54.356
X58.547Y-64.429
X58.547Y-69.429
X58.634Y-181.864
X59.055Y-81.534
X59.904Y-178.054
X59.944Y-143.256
X59.944Y-145.796
X59.944Y-148.336
X60.452Y-174.752
X60.492Y-170.688
X60.579Y-31.62
X60.579Y-34.16
X60.706Y-46.228
X60.706Y-61.722
X60.786Y-138.176
X60.793Y-37.211
X60.96Y-54.356
X61.214Y-105.45
X61.214Y-110.45
X61.214Y-154.94
X61.214Y-165.1
X61.216Y-127.762
X61.515Y-84.582
X62.103Y-115.951
X62.23Y-134.112
X62.484Y-66.931
X62.484Y-69.471
X62.738Y-97.79
X62.738Y-100.33
X62.865Y-50.165
X62.952Y-72.39
X62.952Y-91.694
X63.756Y-127.762
X64.033Y-29.591
X64.033Y-32.131
X64.033Y-34.671
X64.033Y-37.211
X64.603Y-24.511
X64.77Y-134.112
X64.77Y-161.33
X64.77Y-166.33
X64.81Y-60.198
X65.024Y-143.296
X65.024Y-148.296
X65.492Y-170.688
X65.786Y-138.176
X66.04Y-64.77
X66.04Y-67.31
X66.04Y-69.85
X66.04Y-72.39
X66.04Y-84.074
X66.04Y-86.614
X66.04Y-89.154
X66.04Y-91.694
X66.167Y-97.795
X66.167Y-100.335
X66.167Y-102.875
X66.167Y-105.415
X66.167Y-107.955
X66.167Y-110.495
X66.167Y-113.035
X67.143Y-24.511
X67.31Y-127.254
X67.35Y-60.198
X68.328Y-182.118
X68.834Y-130.561
X68.834Y-133.101
X68.834Y-135.641
X68.834Y-138.181
X68.834Y-140.721
X68.834Y-143.261
X68.834Y-145.801
X68.834Y-148.844
X68.834Y-151.638
X68.834Y-163.835
X68.834Y-166.375
X68.834Y-168.915
X68.834Y-171.455
X68.834Y-173.995
X68.834Y-176.535
X68.834Y-179.075
X69.683Y-24.511
X69.89Y-60.198
X70.104Y-41.148
X70.104Y-43.688
X70.104Y-46.228
X70.104Y-49.657
X70.104Y-54.483
X70.612Y-154.94
X70.612Y-157.48
X70.612Y-160.02
X70.868Y-182.118
X71.653Y-29.591
X71.653Y-32.131
X71.653Y-34.671
X71.653Y-37.211
X72.263Y-115.951
X72.644Y-54.483
X73.66Y-64.77
X73.66Y-67.31
X73.66Y-69.85
X73.66Y-72.39
X73.66Y-84.074
X73.66Y-86.614
X73.66Y-89.154
X73.66Y-91.694
X73.787Y-97.795
X73.787Y-100.335
X73.787Y-102.875
X73.787Y-105.415
X73.787Y-107.955
X73.787Y-110.495
X73.787Y-113.035
X74.716Y-29.591
X74.803Y-34.673
X74.803Y-37.213
X75.184Y-41.148
X75.184Y-43.688
X75.184Y-46.228
X75.184Y-49.657
X75.184Y-54.483
X75.435Y-182.118
X75.692Y-154.94
X75.692Y-157.48
X75.692Y-160.02
X76.454Y-60.452
X76.454Y-80.01
X76.454Y-130.561
X76.454Y-133.101
X76.454Y-135.641
X76.454Y-138.181
X76.454Y-140.721
X76.454Y-143.261
X76.454Y-145.801
X76.454Y-163.835
X76.454Y-166.375
X76.454Y-168.915
X76.454Y-171.455
X76.454Y-173.995
X76.454Y-176.535
X76.454Y-179.075
X76.708Y-97.79
X76.708Y-100.33
X76.748Y-64.77
X76.962Y-69.852
X76.962Y-72.392
X77.002Y-84.074
X77.002Y-105.41
X77.47Y-127.254
X77.975Y-182.118
X78.486Y-49.657
X78.994Y-148.844
X78.994Y-151.638
X79.248Y-37.338
X79.502Y-95.25
X79.502Y-100.33
X79.502Y-138.176
X79.502Y-163.827
X79.502Y-166.367
X79.542Y-171.45
X79.716Y-29.591
X79.756Y-69.85
X79.756Y-77.47
X79.756Y-130.556
X79.756Y-133.096
X79.756Y-141.01
X79.756Y-146.01
X80.518Y-41.148
X81.748Y-64.77
X82.002Y-84.074
X82.002Y-105.41
X82.042Y-90.17
X82.042Y-100.33
X82.936Y-179.578
X83.058Y-146.304
X83.566Y-143.256
X83.566Y-154.432
X83.82Y-158.75
X83.82Y-161.29
X83.82Y-163.83
X84.074Y-129.032
X84.074Y-131.572
X84.074Y-134.112
X84.502Y-138.176
X84.542Y-171.45
X84.582Y-97.536
X84.582Y-107.696
X86.614Y-60.452
X86.614Y-80.01
X86.614Y-85.217
X86.736Y-179.578
X88.646Y-49.657
X88.646Y-143.256
X88.646Y-154.432
X89.408Y-37.338
X90.678Y-41.148
X90.678Y-82.55
X90.678Y-146.304
X93.472Y-178.816
X93.98Y-151.384
X96.774Y-85.217
X98.298Y-82.55
X103.632Y-178.816
X104.14Y-151.384
T3
X56.388Y-99.06
X56.388Y-101.6
X56.388Y-104.14
T4
X66.04Y-75.946
X66.04Y-78.74
X73.66Y-75.946
X73.66Y-78.74
X76.454Y-110.49
X78.994Y-110.49
X83.566Y-110.49
X88.646Y-110.49
T5
X65.207Y-176.022
X65.207Y-178.562
X65.207Y-181.102
T6
X33.02Y-58.72
X33.02Y-86.66
X33.02Y-114.6
X33.02Y-142.54
X33.02Y-170.48
X38.1Y-58.72
X38.1Y-86.66
X38.1Y-114.6
X38.1Y-142.54
X38.1Y-170.48
X43.18Y-58.72
X43.18Y-86.66
X43.18Y-114.6
X43.18Y-142.54
X43.18Y-170.48
X96.52Y-51.1
X96.52Y-79.04
X96.52Y-119.68
X96.52Y-147.62
X96.52Y-175.56
X101.6Y-51.1
X101.6Y-79.04
X101.6Y-119.68
X101.6Y-147.62
X101.6Y-175.56
X106.68Y-51.1
X106.68Y-79.04
X106.68Y-119.68
X106.68Y-147.62
X106.68Y-175.56
T7
X57.1Y-189.008
X62.1Y-189.008
X67.1Y-189.008
X72.1Y-189.008
X77.1Y-189.008
X82.1Y-189.008
T8
X46.1Y-45.72
X46.1Y-73.66
X46.1Y-101.6
X46.1Y-129.54
X46.1Y-157.48
X109.6Y-38.1
X109.6Y-66.04
X109.6Y-106.68
X109.6Y-134.62
X109.6Y-162.56
T9
X30.48Y-20.32
X30.48Y-187.96
X69.85Y-121.158
X109.22Y-20.32
X109.22Y-187.96
T10
X38.1Y-45.72
X38.1Y-73.66
X38.1Y-101.6
X38.1Y-129.54
X38.1Y-157.48
X101.6Y-38.1
X101.6Y-66.04
X101.6Y-106.68
X101.6Y-134.62
X101.6Y-162.56
M30
