%TF.GenerationSoftware,KiCad,Pcbnew,9.0.6*%
%TF.CreationDate,2026-04-22T22:06:35-07:00*%
%TF.ProjectId,modulinVCO,6d6f6475-6c69-46e5-9643-4f2e6b696361,rev?*%
%TF.SameCoordinates,Original*%
%TF.FileFunction,Legend,Top*%
%TF.FilePolarity,Positive*%
%FSLAX46Y46*%
G04 Gerber Fmt 4.6, Leading zero omitted, Abs format (unit mm)*
G04 Created by KiCad (PCBNEW 9.0.6) date 2026-04-22 22:06:35*
%MOMM*%
%LPD*%
G01*
G04 APERTURE LIST*
%ADD10C,0.150000*%
%ADD11C,0.120000*%
%ADD12C,0.100000*%
G04 APERTURE END LIST*
D10*
X80708667Y-183858819D02*
X81042000Y-184858819D01*
X81042000Y-184858819D02*
X81375333Y-183858819D01*
X82280095Y-184763580D02*
X82232476Y-184811200D01*
X82232476Y-184811200D02*
X82089619Y-184858819D01*
X82089619Y-184858819D02*
X81994381Y-184858819D01*
X81994381Y-184858819D02*
X81851524Y-184811200D01*
X81851524Y-184811200D02*
X81756286Y-184715961D01*
X81756286Y-184715961D02*
X81708667Y-184620723D01*
X81708667Y-184620723D02*
X81661048Y-184430247D01*
X81661048Y-184430247D02*
X81661048Y-184287390D01*
X81661048Y-184287390D02*
X81708667Y-184096914D01*
X81708667Y-184096914D02*
X81756286Y-184001676D01*
X81756286Y-184001676D02*
X81851524Y-183906438D01*
X81851524Y-183906438D02*
X81994381Y-183858819D01*
X81994381Y-183858819D02*
X82089619Y-183858819D01*
X82089619Y-183858819D02*
X82232476Y-183906438D01*
X82232476Y-183906438D02*
X82280095Y-183954057D01*
X83280095Y-184763580D02*
X83232476Y-184811200D01*
X83232476Y-184811200D02*
X83089619Y-184858819D01*
X83089619Y-184858819D02*
X82994381Y-184858819D01*
X82994381Y-184858819D02*
X82851524Y-184811200D01*
X82851524Y-184811200D02*
X82756286Y-184715961D01*
X82756286Y-184715961D02*
X82708667Y-184620723D01*
X82708667Y-184620723D02*
X82661048Y-184430247D01*
X82661048Y-184430247D02*
X82661048Y-184287390D01*
X82661048Y-184287390D02*
X82708667Y-184096914D01*
X82708667Y-184096914D02*
X82756286Y-184001676D01*
X82756286Y-184001676D02*
X82851524Y-183906438D01*
X82851524Y-183906438D02*
X82994381Y-183858819D01*
X82994381Y-183858819D02*
X83089619Y-183858819D01*
X83089619Y-183858819D02*
X83232476Y-183906438D01*
X83232476Y-183906438D02*
X83280095Y-183954057D01*
X61333142Y-184858819D02*
X60856952Y-184858819D01*
X60856952Y-184858819D02*
X60856952Y-183858819D01*
X61999809Y-184335009D02*
X61666476Y-184335009D01*
X61666476Y-184858819D02*
X61666476Y-183858819D01*
X61666476Y-183858819D02*
X62142666Y-183858819D01*
X62714095Y-183858819D02*
X62904571Y-183858819D01*
X62904571Y-183858819D02*
X62999809Y-183906438D01*
X62999809Y-183906438D02*
X63095047Y-184001676D01*
X63095047Y-184001676D02*
X63142666Y-184192152D01*
X63142666Y-184192152D02*
X63142666Y-184525485D01*
X63142666Y-184525485D02*
X63095047Y-184715961D01*
X63095047Y-184715961D02*
X62999809Y-184811200D01*
X62999809Y-184811200D02*
X62904571Y-184858819D01*
X62904571Y-184858819D02*
X62714095Y-184858819D01*
X62714095Y-184858819D02*
X62618857Y-184811200D01*
X62618857Y-184811200D02*
X62523619Y-184715961D01*
X62523619Y-184715961D02*
X62476000Y-184525485D01*
X62476000Y-184525485D02*
X62476000Y-184192152D01*
X62476000Y-184192152D02*
X62523619Y-184001676D01*
X62523619Y-184001676D02*
X62618857Y-183906438D01*
X62618857Y-183906438D02*
X62714095Y-183858819D01*
X65413143Y-184858819D02*
X65413143Y-183858819D01*
X65413143Y-183858819D02*
X65984571Y-184858819D01*
X65984571Y-184858819D02*
X65984571Y-183858819D01*
X66651238Y-183858819D02*
X66841714Y-183858819D01*
X66841714Y-183858819D02*
X66936952Y-183906438D01*
X66936952Y-183906438D02*
X67032190Y-184001676D01*
X67032190Y-184001676D02*
X67079809Y-184192152D01*
X67079809Y-184192152D02*
X67079809Y-184525485D01*
X67079809Y-184525485D02*
X67032190Y-184715961D01*
X67032190Y-184715961D02*
X66936952Y-184811200D01*
X66936952Y-184811200D02*
X66841714Y-184858819D01*
X66841714Y-184858819D02*
X66651238Y-184858819D01*
X66651238Y-184858819D02*
X66556000Y-184811200D01*
X66556000Y-184811200D02*
X66460762Y-184715961D01*
X66460762Y-184715961D02*
X66413143Y-184525485D01*
X66413143Y-184525485D02*
X66413143Y-184192152D01*
X66413143Y-184192152D02*
X66460762Y-184001676D01*
X66460762Y-184001676D02*
X66556000Y-183906438D01*
X66556000Y-183906438D02*
X66651238Y-183858819D01*
X67365524Y-183858819D02*
X67936952Y-183858819D01*
X67651238Y-184858819D02*
X67651238Y-183858819D01*
X68270286Y-184335009D02*
X68603619Y-184335009D01*
X68746476Y-184858819D02*
X68270286Y-184858819D01*
X68270286Y-184858819D02*
X68270286Y-183858819D01*
X68270286Y-183858819D02*
X68746476Y-183858819D01*
X70897905Y-183858819D02*
X71231238Y-184858819D01*
X71231238Y-184858819D02*
X71564571Y-183858819D01*
X71897905Y-184335009D02*
X72231238Y-184335009D01*
X72374095Y-184858819D02*
X71897905Y-184858819D01*
X71897905Y-184858819D02*
X71897905Y-183858819D01*
X71897905Y-183858819D02*
X72374095Y-183858819D01*
X72802667Y-184335009D02*
X73136000Y-184335009D01*
X73278857Y-184858819D02*
X72802667Y-184858819D01*
X72802667Y-184858819D02*
X72802667Y-183858819D01*
X72802667Y-183858819D02*
X73278857Y-183858819D01*
X76454095Y-183906438D02*
X76358857Y-183858819D01*
X76358857Y-183858819D02*
X76216000Y-183858819D01*
X76216000Y-183858819D02*
X76073143Y-183906438D01*
X76073143Y-183906438D02*
X75977905Y-184001676D01*
X75977905Y-184001676D02*
X75930286Y-184096914D01*
X75930286Y-184096914D02*
X75882667Y-184287390D01*
X75882667Y-184287390D02*
X75882667Y-184430247D01*
X75882667Y-184430247D02*
X75930286Y-184620723D01*
X75930286Y-184620723D02*
X75977905Y-184715961D01*
X75977905Y-184715961D02*
X76073143Y-184811200D01*
X76073143Y-184811200D02*
X76216000Y-184858819D01*
X76216000Y-184858819D02*
X76311238Y-184858819D01*
X76311238Y-184858819D02*
X76454095Y-184811200D01*
X76454095Y-184811200D02*
X76501714Y-184763580D01*
X76501714Y-184763580D02*
X76501714Y-184430247D01*
X76501714Y-184430247D02*
X76311238Y-184430247D01*
X76930286Y-184858819D02*
X76930286Y-183858819D01*
X76930286Y-183858819D02*
X77501714Y-184858819D01*
X77501714Y-184858819D02*
X77501714Y-183858819D01*
X77977905Y-184858819D02*
X77977905Y-183858819D01*
X77977905Y-183858819D02*
X78216000Y-183858819D01*
X78216000Y-183858819D02*
X78358857Y-183906438D01*
X78358857Y-183906438D02*
X78454095Y-184001676D01*
X78454095Y-184001676D02*
X78501714Y-184096914D01*
X78501714Y-184096914D02*
X78549333Y-184287390D01*
X78549333Y-184287390D02*
X78549333Y-184430247D01*
X78549333Y-184430247D02*
X78501714Y-184620723D01*
X78501714Y-184620723D02*
X78454095Y-184715961D01*
X78454095Y-184715961D02*
X78358857Y-184811200D01*
X78358857Y-184811200D02*
X78216000Y-184858819D01*
X78216000Y-184858819D02*
X77977905Y-184858819D01*
X56150000Y-183858819D02*
X56340476Y-183858819D01*
X56340476Y-183858819D02*
X56435714Y-183906438D01*
X56435714Y-183906438D02*
X56530952Y-184001676D01*
X56530952Y-184001676D02*
X56578571Y-184192152D01*
X56578571Y-184192152D02*
X56578571Y-184525485D01*
X56578571Y-184525485D02*
X56530952Y-184715961D01*
X56530952Y-184715961D02*
X56435714Y-184811200D01*
X56435714Y-184811200D02*
X56340476Y-184858819D01*
X56340476Y-184858819D02*
X56150000Y-184858819D01*
X56150000Y-184858819D02*
X56054762Y-184811200D01*
X56054762Y-184811200D02*
X55959524Y-184715961D01*
X55959524Y-184715961D02*
X55911905Y-184525485D01*
X55911905Y-184525485D02*
X55911905Y-184192152D01*
X55911905Y-184192152D02*
X55959524Y-184001676D01*
X55959524Y-184001676D02*
X56054762Y-183906438D01*
X56054762Y-183906438D02*
X56150000Y-183858819D01*
X57007143Y-183858819D02*
X57007143Y-184668342D01*
X57007143Y-184668342D02*
X57054762Y-184763580D01*
X57054762Y-184763580D02*
X57102381Y-184811200D01*
X57102381Y-184811200D02*
X57197619Y-184858819D01*
X57197619Y-184858819D02*
X57388095Y-184858819D01*
X57388095Y-184858819D02*
X57483333Y-184811200D01*
X57483333Y-184811200D02*
X57530952Y-184763580D01*
X57530952Y-184763580D02*
X57578571Y-184668342D01*
X57578571Y-184668342D02*
X57578571Y-183858819D01*
X57911905Y-183858819D02*
X58483333Y-183858819D01*
X58197619Y-184858819D02*
X58197619Y-183858819D01*
X58332142Y-84941580D02*
X58284523Y-84989200D01*
X58284523Y-84989200D02*
X58141666Y-85036819D01*
X58141666Y-85036819D02*
X58046428Y-85036819D01*
X58046428Y-85036819D02*
X57903571Y-84989200D01*
X57903571Y-84989200D02*
X57808333Y-84893961D01*
X57808333Y-84893961D02*
X57760714Y-84798723D01*
X57760714Y-84798723D02*
X57713095Y-84608247D01*
X57713095Y-84608247D02*
X57713095Y-84465390D01*
X57713095Y-84465390D02*
X57760714Y-84274914D01*
X57760714Y-84274914D02*
X57808333Y-84179676D01*
X57808333Y-84179676D02*
X57903571Y-84084438D01*
X57903571Y-84084438D02*
X58046428Y-84036819D01*
X58046428Y-84036819D02*
X58141666Y-84036819D01*
X58141666Y-84036819D02*
X58284523Y-84084438D01*
X58284523Y-84084438D02*
X58332142Y-84132057D01*
X59284523Y-85036819D02*
X58713095Y-85036819D01*
X58998809Y-85036819D02*
X58998809Y-84036819D01*
X58998809Y-84036819D02*
X58903571Y-84179676D01*
X58903571Y-84179676D02*
X58808333Y-84274914D01*
X58808333Y-84274914D02*
X58713095Y-84322533D01*
X59855952Y-84465390D02*
X59760714Y-84417771D01*
X59760714Y-84417771D02*
X59713095Y-84370152D01*
X59713095Y-84370152D02*
X59665476Y-84274914D01*
X59665476Y-84274914D02*
X59665476Y-84227295D01*
X59665476Y-84227295D02*
X59713095Y-84132057D01*
X59713095Y-84132057D02*
X59760714Y-84084438D01*
X59760714Y-84084438D02*
X59855952Y-84036819D01*
X59855952Y-84036819D02*
X60046428Y-84036819D01*
X60046428Y-84036819D02*
X60141666Y-84084438D01*
X60141666Y-84084438D02*
X60189285Y-84132057D01*
X60189285Y-84132057D02*
X60236904Y-84227295D01*
X60236904Y-84227295D02*
X60236904Y-84274914D01*
X60236904Y-84274914D02*
X60189285Y-84370152D01*
X60189285Y-84370152D02*
X60141666Y-84417771D01*
X60141666Y-84417771D02*
X60046428Y-84465390D01*
X60046428Y-84465390D02*
X59855952Y-84465390D01*
X59855952Y-84465390D02*
X59760714Y-84513009D01*
X59760714Y-84513009D02*
X59713095Y-84560628D01*
X59713095Y-84560628D02*
X59665476Y-84655866D01*
X59665476Y-84655866D02*
X59665476Y-84846342D01*
X59665476Y-84846342D02*
X59713095Y-84941580D01*
X59713095Y-84941580D02*
X59760714Y-84989200D01*
X59760714Y-84989200D02*
X59855952Y-85036819D01*
X59855952Y-85036819D02*
X60046428Y-85036819D01*
X60046428Y-85036819D02*
X60141666Y-84989200D01*
X60141666Y-84989200D02*
X60189285Y-84941580D01*
X60189285Y-84941580D02*
X60236904Y-84846342D01*
X60236904Y-84846342D02*
X60236904Y-84655866D01*
X60236904Y-84655866D02*
X60189285Y-84560628D01*
X60189285Y-84560628D02*
X60141666Y-84513009D01*
X60141666Y-84513009D02*
X60046428Y-84465390D01*
X57142142Y-50619819D02*
X56808809Y-50143628D01*
X56570714Y-50619819D02*
X56570714Y-49619819D01*
X56570714Y-49619819D02*
X56951666Y-49619819D01*
X56951666Y-49619819D02*
X57046904Y-49667438D01*
X57046904Y-49667438D02*
X57094523Y-49715057D01*
X57094523Y-49715057D02*
X57142142Y-49810295D01*
X57142142Y-49810295D02*
X57142142Y-49953152D01*
X57142142Y-49953152D02*
X57094523Y-50048390D01*
X57094523Y-50048390D02*
X57046904Y-50096009D01*
X57046904Y-50096009D02*
X56951666Y-50143628D01*
X56951666Y-50143628D02*
X56570714Y-50143628D01*
X57475476Y-49619819D02*
X58094523Y-49619819D01*
X58094523Y-49619819D02*
X57761190Y-50000771D01*
X57761190Y-50000771D02*
X57904047Y-50000771D01*
X57904047Y-50000771D02*
X57999285Y-50048390D01*
X57999285Y-50048390D02*
X58046904Y-50096009D01*
X58046904Y-50096009D02*
X58094523Y-50191247D01*
X58094523Y-50191247D02*
X58094523Y-50429342D01*
X58094523Y-50429342D02*
X58046904Y-50524580D01*
X58046904Y-50524580D02*
X57999285Y-50572200D01*
X57999285Y-50572200D02*
X57904047Y-50619819D01*
X57904047Y-50619819D02*
X57618333Y-50619819D01*
X57618333Y-50619819D02*
X57523095Y-50572200D01*
X57523095Y-50572200D02*
X57475476Y-50524580D01*
X58427857Y-49619819D02*
X59046904Y-49619819D01*
X59046904Y-49619819D02*
X58713571Y-50000771D01*
X58713571Y-50000771D02*
X58856428Y-50000771D01*
X58856428Y-50000771D02*
X58951666Y-50048390D01*
X58951666Y-50048390D02*
X58999285Y-50096009D01*
X58999285Y-50096009D02*
X59046904Y-50191247D01*
X59046904Y-50191247D02*
X59046904Y-50429342D01*
X59046904Y-50429342D02*
X58999285Y-50524580D01*
X58999285Y-50524580D02*
X58951666Y-50572200D01*
X58951666Y-50572200D02*
X58856428Y-50619819D01*
X58856428Y-50619819D02*
X58570714Y-50619819D01*
X58570714Y-50619819D02*
X58475476Y-50572200D01*
X58475476Y-50572200D02*
X58427857Y-50524580D01*
X58906580Y-67611857D02*
X58954200Y-67659476D01*
X58954200Y-67659476D02*
X59001819Y-67802333D01*
X59001819Y-67802333D02*
X59001819Y-67897571D01*
X59001819Y-67897571D02*
X58954200Y-68040428D01*
X58954200Y-68040428D02*
X58858961Y-68135666D01*
X58858961Y-68135666D02*
X58763723Y-68183285D01*
X58763723Y-68183285D02*
X58573247Y-68230904D01*
X58573247Y-68230904D02*
X58430390Y-68230904D01*
X58430390Y-68230904D02*
X58239914Y-68183285D01*
X58239914Y-68183285D02*
X58144676Y-68135666D01*
X58144676Y-68135666D02*
X58049438Y-68040428D01*
X58049438Y-68040428D02*
X58001819Y-67897571D01*
X58001819Y-67897571D02*
X58001819Y-67802333D01*
X58001819Y-67802333D02*
X58049438Y-67659476D01*
X58049438Y-67659476D02*
X58097057Y-67611857D01*
X59001819Y-66659476D02*
X59001819Y-67230904D01*
X59001819Y-66945190D02*
X58001819Y-66945190D01*
X58001819Y-66945190D02*
X58144676Y-67040428D01*
X58144676Y-67040428D02*
X58239914Y-67135666D01*
X58239914Y-67135666D02*
X58287533Y-67230904D01*
X59001819Y-66183285D02*
X59001819Y-65992809D01*
X59001819Y-65992809D02*
X58954200Y-65897571D01*
X58954200Y-65897571D02*
X58906580Y-65849952D01*
X58906580Y-65849952D02*
X58763723Y-65754714D01*
X58763723Y-65754714D02*
X58573247Y-65707095D01*
X58573247Y-65707095D02*
X58192295Y-65707095D01*
X58192295Y-65707095D02*
X58097057Y-65754714D01*
X58097057Y-65754714D02*
X58049438Y-65802333D01*
X58049438Y-65802333D02*
X58001819Y-65897571D01*
X58001819Y-65897571D02*
X58001819Y-66088047D01*
X58001819Y-66088047D02*
X58049438Y-66183285D01*
X58049438Y-66183285D02*
X58097057Y-66230904D01*
X58097057Y-66230904D02*
X58192295Y-66278523D01*
X58192295Y-66278523D02*
X58430390Y-66278523D01*
X58430390Y-66278523D02*
X58525628Y-66230904D01*
X58525628Y-66230904D02*
X58573247Y-66183285D01*
X58573247Y-66183285D02*
X58620866Y-66088047D01*
X58620866Y-66088047D02*
X58620866Y-65897571D01*
X58620866Y-65897571D02*
X58573247Y-65802333D01*
X58573247Y-65802333D02*
X58525628Y-65754714D01*
X58525628Y-65754714D02*
X58430390Y-65707095D01*
X67081495Y-35395819D02*
X67081495Y-36205342D01*
X67081495Y-36205342D02*
X67129114Y-36300580D01*
X67129114Y-36300580D02*
X67176733Y-36348200D01*
X67176733Y-36348200D02*
X67271971Y-36395819D01*
X67271971Y-36395819D02*
X67462447Y-36395819D01*
X67462447Y-36395819D02*
X67557685Y-36348200D01*
X67557685Y-36348200D02*
X67605304Y-36300580D01*
X67605304Y-36300580D02*
X67652923Y-36205342D01*
X67652923Y-36205342D02*
X67652923Y-35395819D01*
X68033876Y-35395819D02*
X68700542Y-35395819D01*
X68700542Y-35395819D02*
X68271971Y-36395819D01*
X61668819Y-160186666D02*
X61192628Y-160519999D01*
X61668819Y-160758094D02*
X60668819Y-160758094D01*
X60668819Y-160758094D02*
X60668819Y-160377142D01*
X60668819Y-160377142D02*
X60716438Y-160281904D01*
X60716438Y-160281904D02*
X60764057Y-160234285D01*
X60764057Y-160234285D02*
X60859295Y-160186666D01*
X60859295Y-160186666D02*
X61002152Y-160186666D01*
X61002152Y-160186666D02*
X61097390Y-160234285D01*
X61097390Y-160234285D02*
X61145009Y-160281904D01*
X61145009Y-160281904D02*
X61192628Y-160377142D01*
X61192628Y-160377142D02*
X61192628Y-160758094D01*
X61097390Y-159615237D02*
X61049771Y-159710475D01*
X61049771Y-159710475D02*
X61002152Y-159758094D01*
X61002152Y-159758094D02*
X60906914Y-159805713D01*
X60906914Y-159805713D02*
X60859295Y-159805713D01*
X60859295Y-159805713D02*
X60764057Y-159758094D01*
X60764057Y-159758094D02*
X60716438Y-159710475D01*
X60716438Y-159710475D02*
X60668819Y-159615237D01*
X60668819Y-159615237D02*
X60668819Y-159424761D01*
X60668819Y-159424761D02*
X60716438Y-159329523D01*
X60716438Y-159329523D02*
X60764057Y-159281904D01*
X60764057Y-159281904D02*
X60859295Y-159234285D01*
X60859295Y-159234285D02*
X60906914Y-159234285D01*
X60906914Y-159234285D02*
X61002152Y-159281904D01*
X61002152Y-159281904D02*
X61049771Y-159329523D01*
X61049771Y-159329523D02*
X61097390Y-159424761D01*
X61097390Y-159424761D02*
X61097390Y-159615237D01*
X61097390Y-159615237D02*
X61145009Y-159710475D01*
X61145009Y-159710475D02*
X61192628Y-159758094D01*
X61192628Y-159758094D02*
X61287866Y-159805713D01*
X61287866Y-159805713D02*
X61478342Y-159805713D01*
X61478342Y-159805713D02*
X61573580Y-159758094D01*
X61573580Y-159758094D02*
X61621200Y-159710475D01*
X61621200Y-159710475D02*
X61668819Y-159615237D01*
X61668819Y-159615237D02*
X61668819Y-159424761D01*
X61668819Y-159424761D02*
X61621200Y-159329523D01*
X61621200Y-159329523D02*
X61573580Y-159281904D01*
X61573580Y-159281904D02*
X61478342Y-159234285D01*
X61478342Y-159234285D02*
X61287866Y-159234285D01*
X61287866Y-159234285D02*
X61192628Y-159281904D01*
X61192628Y-159281904D02*
X61145009Y-159329523D01*
X61145009Y-159329523D02*
X61097390Y-159424761D01*
X78819142Y-84433580D02*
X78771523Y-84481200D01*
X78771523Y-84481200D02*
X78628666Y-84528819D01*
X78628666Y-84528819D02*
X78533428Y-84528819D01*
X78533428Y-84528819D02*
X78390571Y-84481200D01*
X78390571Y-84481200D02*
X78295333Y-84385961D01*
X78295333Y-84385961D02*
X78247714Y-84290723D01*
X78247714Y-84290723D02*
X78200095Y-84100247D01*
X78200095Y-84100247D02*
X78200095Y-83957390D01*
X78200095Y-83957390D02*
X78247714Y-83766914D01*
X78247714Y-83766914D02*
X78295333Y-83671676D01*
X78295333Y-83671676D02*
X78390571Y-83576438D01*
X78390571Y-83576438D02*
X78533428Y-83528819D01*
X78533428Y-83528819D02*
X78628666Y-83528819D01*
X78628666Y-83528819D02*
X78771523Y-83576438D01*
X78771523Y-83576438D02*
X78819142Y-83624057D01*
X79771523Y-84528819D02*
X79200095Y-84528819D01*
X79485809Y-84528819D02*
X79485809Y-83528819D01*
X79485809Y-83528819D02*
X79390571Y-83671676D01*
X79390571Y-83671676D02*
X79295333Y-83766914D01*
X79295333Y-83766914D02*
X79200095Y-83814533D01*
X80676285Y-83528819D02*
X80200095Y-83528819D01*
X80200095Y-83528819D02*
X80152476Y-84005009D01*
X80152476Y-84005009D02*
X80200095Y-83957390D01*
X80200095Y-83957390D02*
X80295333Y-83909771D01*
X80295333Y-83909771D02*
X80533428Y-83909771D01*
X80533428Y-83909771D02*
X80628666Y-83957390D01*
X80628666Y-83957390D02*
X80676285Y-84005009D01*
X80676285Y-84005009D02*
X80723904Y-84100247D01*
X80723904Y-84100247D02*
X80723904Y-84338342D01*
X80723904Y-84338342D02*
X80676285Y-84433580D01*
X80676285Y-84433580D02*
X80628666Y-84481200D01*
X80628666Y-84481200D02*
X80533428Y-84528819D01*
X80533428Y-84528819D02*
X80295333Y-84528819D01*
X80295333Y-84528819D02*
X80200095Y-84481200D01*
X80200095Y-84481200D02*
X80152476Y-84433580D01*
X40037142Y-174444819D02*
X39703809Y-173968628D01*
X39465714Y-174444819D02*
X39465714Y-173444819D01*
X39465714Y-173444819D02*
X39846666Y-173444819D01*
X39846666Y-173444819D02*
X39941904Y-173492438D01*
X39941904Y-173492438D02*
X39989523Y-173540057D01*
X39989523Y-173540057D02*
X40037142Y-173635295D01*
X40037142Y-173635295D02*
X40037142Y-173778152D01*
X40037142Y-173778152D02*
X39989523Y-173873390D01*
X39989523Y-173873390D02*
X39941904Y-173921009D01*
X39941904Y-173921009D02*
X39846666Y-173968628D01*
X39846666Y-173968628D02*
X39465714Y-173968628D01*
X40894285Y-173778152D02*
X40894285Y-174444819D01*
X40656190Y-173397200D02*
X40418095Y-174111485D01*
X40418095Y-174111485D02*
X41037142Y-174111485D01*
X41560952Y-173873390D02*
X41465714Y-173825771D01*
X41465714Y-173825771D02*
X41418095Y-173778152D01*
X41418095Y-173778152D02*
X41370476Y-173682914D01*
X41370476Y-173682914D02*
X41370476Y-173635295D01*
X41370476Y-173635295D02*
X41418095Y-173540057D01*
X41418095Y-173540057D02*
X41465714Y-173492438D01*
X41465714Y-173492438D02*
X41560952Y-173444819D01*
X41560952Y-173444819D02*
X41751428Y-173444819D01*
X41751428Y-173444819D02*
X41846666Y-173492438D01*
X41846666Y-173492438D02*
X41894285Y-173540057D01*
X41894285Y-173540057D02*
X41941904Y-173635295D01*
X41941904Y-173635295D02*
X41941904Y-173682914D01*
X41941904Y-173682914D02*
X41894285Y-173778152D01*
X41894285Y-173778152D02*
X41846666Y-173825771D01*
X41846666Y-173825771D02*
X41751428Y-173873390D01*
X41751428Y-173873390D02*
X41560952Y-173873390D01*
X41560952Y-173873390D02*
X41465714Y-173921009D01*
X41465714Y-173921009D02*
X41418095Y-173968628D01*
X41418095Y-173968628D02*
X41370476Y-174063866D01*
X41370476Y-174063866D02*
X41370476Y-174254342D01*
X41370476Y-174254342D02*
X41418095Y-174349580D01*
X41418095Y-174349580D02*
X41465714Y-174397200D01*
X41465714Y-174397200D02*
X41560952Y-174444819D01*
X41560952Y-174444819D02*
X41751428Y-174444819D01*
X41751428Y-174444819D02*
X41846666Y-174397200D01*
X41846666Y-174397200D02*
X41894285Y-174349580D01*
X41894285Y-174349580D02*
X41941904Y-174254342D01*
X41941904Y-174254342D02*
X41941904Y-174063866D01*
X41941904Y-174063866D02*
X41894285Y-173968628D01*
X41894285Y-173968628D02*
X41846666Y-173921009D01*
X41846666Y-173921009D02*
X41751428Y-173873390D01*
X59128819Y-33662857D02*
X58652628Y-33996190D01*
X59128819Y-34234285D02*
X58128819Y-34234285D01*
X58128819Y-34234285D02*
X58128819Y-33853333D01*
X58128819Y-33853333D02*
X58176438Y-33758095D01*
X58176438Y-33758095D02*
X58224057Y-33710476D01*
X58224057Y-33710476D02*
X58319295Y-33662857D01*
X58319295Y-33662857D02*
X58462152Y-33662857D01*
X58462152Y-33662857D02*
X58557390Y-33710476D01*
X58557390Y-33710476D02*
X58605009Y-33758095D01*
X58605009Y-33758095D02*
X58652628Y-33853333D01*
X58652628Y-33853333D02*
X58652628Y-34234285D01*
X58462152Y-32805714D02*
X59128819Y-32805714D01*
X58081200Y-33043809D02*
X58795485Y-33281904D01*
X58795485Y-33281904D02*
X58795485Y-32662857D01*
X59128819Y-31758095D02*
X59128819Y-32329523D01*
X59128819Y-32043809D02*
X58128819Y-32043809D01*
X58128819Y-32043809D02*
X58271676Y-32139047D01*
X58271676Y-32139047D02*
X58366914Y-32234285D01*
X58366914Y-32234285D02*
X58414533Y-32329523D01*
X80115580Y-143636666D02*
X80163200Y-143684285D01*
X80163200Y-143684285D02*
X80210819Y-143827142D01*
X80210819Y-143827142D02*
X80210819Y-143922380D01*
X80210819Y-143922380D02*
X80163200Y-144065237D01*
X80163200Y-144065237D02*
X80067961Y-144160475D01*
X80067961Y-144160475D02*
X79972723Y-144208094D01*
X79972723Y-144208094D02*
X79782247Y-144255713D01*
X79782247Y-144255713D02*
X79639390Y-144255713D01*
X79639390Y-144255713D02*
X79448914Y-144208094D01*
X79448914Y-144208094D02*
X79353676Y-144160475D01*
X79353676Y-144160475D02*
X79258438Y-144065237D01*
X79258438Y-144065237D02*
X79210819Y-143922380D01*
X79210819Y-143922380D02*
X79210819Y-143827142D01*
X79210819Y-143827142D02*
X79258438Y-143684285D01*
X79258438Y-143684285D02*
X79306057Y-143636666D01*
X79210819Y-143303332D02*
X79210819Y-142684285D01*
X79210819Y-142684285D02*
X79591771Y-143017618D01*
X79591771Y-143017618D02*
X79591771Y-142874761D01*
X79591771Y-142874761D02*
X79639390Y-142779523D01*
X79639390Y-142779523D02*
X79687009Y-142731904D01*
X79687009Y-142731904D02*
X79782247Y-142684285D01*
X79782247Y-142684285D02*
X80020342Y-142684285D01*
X80020342Y-142684285D02*
X80115580Y-142731904D01*
X80115580Y-142731904D02*
X80163200Y-142779523D01*
X80163200Y-142779523D02*
X80210819Y-142874761D01*
X80210819Y-142874761D02*
X80210819Y-143160475D01*
X80210819Y-143160475D02*
X80163200Y-143255713D01*
X80163200Y-143255713D02*
X80115580Y-143303332D01*
X66540142Y-116405819D02*
X66206809Y-115929628D01*
X65968714Y-116405819D02*
X65968714Y-115405819D01*
X65968714Y-115405819D02*
X66349666Y-115405819D01*
X66349666Y-115405819D02*
X66444904Y-115453438D01*
X66444904Y-115453438D02*
X66492523Y-115501057D01*
X66492523Y-115501057D02*
X66540142Y-115596295D01*
X66540142Y-115596295D02*
X66540142Y-115739152D01*
X66540142Y-115739152D02*
X66492523Y-115834390D01*
X66492523Y-115834390D02*
X66444904Y-115882009D01*
X66444904Y-115882009D02*
X66349666Y-115929628D01*
X66349666Y-115929628D02*
X65968714Y-115929628D01*
X67492523Y-116405819D02*
X66921095Y-116405819D01*
X67206809Y-116405819D02*
X67206809Y-115405819D01*
X67206809Y-115405819D02*
X67111571Y-115548676D01*
X67111571Y-115548676D02*
X67016333Y-115643914D01*
X67016333Y-115643914D02*
X66921095Y-115691533D01*
X68349666Y-115405819D02*
X68159190Y-115405819D01*
X68159190Y-115405819D02*
X68063952Y-115453438D01*
X68063952Y-115453438D02*
X68016333Y-115501057D01*
X68016333Y-115501057D02*
X67921095Y-115643914D01*
X67921095Y-115643914D02*
X67873476Y-115834390D01*
X67873476Y-115834390D02*
X67873476Y-116215342D01*
X67873476Y-116215342D02*
X67921095Y-116310580D01*
X67921095Y-116310580D02*
X67968714Y-116358200D01*
X67968714Y-116358200D02*
X68063952Y-116405819D01*
X68063952Y-116405819D02*
X68254428Y-116405819D01*
X68254428Y-116405819D02*
X68349666Y-116358200D01*
X68349666Y-116358200D02*
X68397285Y-116310580D01*
X68397285Y-116310580D02*
X68444904Y-116215342D01*
X68444904Y-116215342D02*
X68444904Y-115977247D01*
X68444904Y-115977247D02*
X68397285Y-115882009D01*
X68397285Y-115882009D02*
X68349666Y-115834390D01*
X68349666Y-115834390D02*
X68254428Y-115786771D01*
X68254428Y-115786771D02*
X68063952Y-115786771D01*
X68063952Y-115786771D02*
X67968714Y-115834390D01*
X67968714Y-115834390D02*
X67921095Y-115882009D01*
X67921095Y-115882009D02*
X67873476Y-115977247D01*
X91051142Y-85671819D02*
X90717809Y-85195628D01*
X90479714Y-85671819D02*
X90479714Y-84671819D01*
X90479714Y-84671819D02*
X90860666Y-84671819D01*
X90860666Y-84671819D02*
X90955904Y-84719438D01*
X90955904Y-84719438D02*
X91003523Y-84767057D01*
X91003523Y-84767057D02*
X91051142Y-84862295D01*
X91051142Y-84862295D02*
X91051142Y-85005152D01*
X91051142Y-85005152D02*
X91003523Y-85100390D01*
X91003523Y-85100390D02*
X90955904Y-85148009D01*
X90955904Y-85148009D02*
X90860666Y-85195628D01*
X90860666Y-85195628D02*
X90479714Y-85195628D01*
X91432095Y-84767057D02*
X91479714Y-84719438D01*
X91479714Y-84719438D02*
X91574952Y-84671819D01*
X91574952Y-84671819D02*
X91813047Y-84671819D01*
X91813047Y-84671819D02*
X91908285Y-84719438D01*
X91908285Y-84719438D02*
X91955904Y-84767057D01*
X91955904Y-84767057D02*
X92003523Y-84862295D01*
X92003523Y-84862295D02*
X92003523Y-84957533D01*
X92003523Y-84957533D02*
X91955904Y-85100390D01*
X91955904Y-85100390D02*
X91384476Y-85671819D01*
X91384476Y-85671819D02*
X92003523Y-85671819D01*
X92384476Y-84767057D02*
X92432095Y-84719438D01*
X92432095Y-84719438D02*
X92527333Y-84671819D01*
X92527333Y-84671819D02*
X92765428Y-84671819D01*
X92765428Y-84671819D02*
X92860666Y-84719438D01*
X92860666Y-84719438D02*
X92908285Y-84767057D01*
X92908285Y-84767057D02*
X92955904Y-84862295D01*
X92955904Y-84862295D02*
X92955904Y-84957533D01*
X92955904Y-84957533D02*
X92908285Y-85100390D01*
X92908285Y-85100390D02*
X92336857Y-85671819D01*
X92336857Y-85671819D02*
X92955904Y-85671819D01*
X72731333Y-182572819D02*
X72398000Y-182096628D01*
X72159905Y-182572819D02*
X72159905Y-181572819D01*
X72159905Y-181572819D02*
X72540857Y-181572819D01*
X72540857Y-181572819D02*
X72636095Y-181620438D01*
X72636095Y-181620438D02*
X72683714Y-181668057D01*
X72683714Y-181668057D02*
X72731333Y-181763295D01*
X72731333Y-181763295D02*
X72731333Y-181906152D01*
X72731333Y-181906152D02*
X72683714Y-182001390D01*
X72683714Y-182001390D02*
X72636095Y-182049009D01*
X72636095Y-182049009D02*
X72540857Y-182096628D01*
X72540857Y-182096628D02*
X72159905Y-182096628D01*
X73064667Y-181572819D02*
X73683714Y-181572819D01*
X73683714Y-181572819D02*
X73350381Y-181953771D01*
X73350381Y-181953771D02*
X73493238Y-181953771D01*
X73493238Y-181953771D02*
X73588476Y-182001390D01*
X73588476Y-182001390D02*
X73636095Y-182049009D01*
X73636095Y-182049009D02*
X73683714Y-182144247D01*
X73683714Y-182144247D02*
X73683714Y-182382342D01*
X73683714Y-182382342D02*
X73636095Y-182477580D01*
X73636095Y-182477580D02*
X73588476Y-182525200D01*
X73588476Y-182525200D02*
X73493238Y-182572819D01*
X73493238Y-182572819D02*
X73207524Y-182572819D01*
X73207524Y-182572819D02*
X73112286Y-182525200D01*
X73112286Y-182525200D02*
X73064667Y-182477580D01*
X54983142Y-62176819D02*
X54649809Y-61700628D01*
X54411714Y-62176819D02*
X54411714Y-61176819D01*
X54411714Y-61176819D02*
X54792666Y-61176819D01*
X54792666Y-61176819D02*
X54887904Y-61224438D01*
X54887904Y-61224438D02*
X54935523Y-61272057D01*
X54935523Y-61272057D02*
X54983142Y-61367295D01*
X54983142Y-61367295D02*
X54983142Y-61510152D01*
X54983142Y-61510152D02*
X54935523Y-61605390D01*
X54935523Y-61605390D02*
X54887904Y-61653009D01*
X54887904Y-61653009D02*
X54792666Y-61700628D01*
X54792666Y-61700628D02*
X54411714Y-61700628D01*
X55316476Y-61176819D02*
X55935523Y-61176819D01*
X55935523Y-61176819D02*
X55602190Y-61557771D01*
X55602190Y-61557771D02*
X55745047Y-61557771D01*
X55745047Y-61557771D02*
X55840285Y-61605390D01*
X55840285Y-61605390D02*
X55887904Y-61653009D01*
X55887904Y-61653009D02*
X55935523Y-61748247D01*
X55935523Y-61748247D02*
X55935523Y-61986342D01*
X55935523Y-61986342D02*
X55887904Y-62081580D01*
X55887904Y-62081580D02*
X55840285Y-62129200D01*
X55840285Y-62129200D02*
X55745047Y-62176819D01*
X55745047Y-62176819D02*
X55459333Y-62176819D01*
X55459333Y-62176819D02*
X55364095Y-62129200D01*
X55364095Y-62129200D02*
X55316476Y-62081580D01*
X56316476Y-61272057D02*
X56364095Y-61224438D01*
X56364095Y-61224438D02*
X56459333Y-61176819D01*
X56459333Y-61176819D02*
X56697428Y-61176819D01*
X56697428Y-61176819D02*
X56792666Y-61224438D01*
X56792666Y-61224438D02*
X56840285Y-61272057D01*
X56840285Y-61272057D02*
X56887904Y-61367295D01*
X56887904Y-61367295D02*
X56887904Y-61462533D01*
X56887904Y-61462533D02*
X56840285Y-61605390D01*
X56840285Y-61605390D02*
X56268857Y-62176819D01*
X56268857Y-62176819D02*
X56887904Y-62176819D01*
X61841142Y-129994819D02*
X61507809Y-129518628D01*
X61269714Y-129994819D02*
X61269714Y-128994819D01*
X61269714Y-128994819D02*
X61650666Y-128994819D01*
X61650666Y-128994819D02*
X61745904Y-129042438D01*
X61745904Y-129042438D02*
X61793523Y-129090057D01*
X61793523Y-129090057D02*
X61841142Y-129185295D01*
X61841142Y-129185295D02*
X61841142Y-129328152D01*
X61841142Y-129328152D02*
X61793523Y-129423390D01*
X61793523Y-129423390D02*
X61745904Y-129471009D01*
X61745904Y-129471009D02*
X61650666Y-129518628D01*
X61650666Y-129518628D02*
X61269714Y-129518628D01*
X62793523Y-129994819D02*
X62222095Y-129994819D01*
X62507809Y-129994819D02*
X62507809Y-128994819D01*
X62507809Y-128994819D02*
X62412571Y-129137676D01*
X62412571Y-129137676D02*
X62317333Y-129232914D01*
X62317333Y-129232914D02*
X62222095Y-129280533D01*
X63364952Y-129423390D02*
X63269714Y-129375771D01*
X63269714Y-129375771D02*
X63222095Y-129328152D01*
X63222095Y-129328152D02*
X63174476Y-129232914D01*
X63174476Y-129232914D02*
X63174476Y-129185295D01*
X63174476Y-129185295D02*
X63222095Y-129090057D01*
X63222095Y-129090057D02*
X63269714Y-129042438D01*
X63269714Y-129042438D02*
X63364952Y-128994819D01*
X63364952Y-128994819D02*
X63555428Y-128994819D01*
X63555428Y-128994819D02*
X63650666Y-129042438D01*
X63650666Y-129042438D02*
X63698285Y-129090057D01*
X63698285Y-129090057D02*
X63745904Y-129185295D01*
X63745904Y-129185295D02*
X63745904Y-129232914D01*
X63745904Y-129232914D02*
X63698285Y-129328152D01*
X63698285Y-129328152D02*
X63650666Y-129375771D01*
X63650666Y-129375771D02*
X63555428Y-129423390D01*
X63555428Y-129423390D02*
X63364952Y-129423390D01*
X63364952Y-129423390D02*
X63269714Y-129471009D01*
X63269714Y-129471009D02*
X63222095Y-129518628D01*
X63222095Y-129518628D02*
X63174476Y-129613866D01*
X63174476Y-129613866D02*
X63174476Y-129804342D01*
X63174476Y-129804342D02*
X63222095Y-129899580D01*
X63222095Y-129899580D02*
X63269714Y-129947200D01*
X63269714Y-129947200D02*
X63364952Y-129994819D01*
X63364952Y-129994819D02*
X63555428Y-129994819D01*
X63555428Y-129994819D02*
X63650666Y-129947200D01*
X63650666Y-129947200D02*
X63698285Y-129899580D01*
X63698285Y-129899580D02*
X63745904Y-129804342D01*
X63745904Y-129804342D02*
X63745904Y-129613866D01*
X63745904Y-129613866D02*
X63698285Y-129518628D01*
X63698285Y-129518628D02*
X63650666Y-129471009D01*
X63650666Y-129471009D02*
X63555428Y-129423390D01*
X69215095Y-98519819D02*
X69215095Y-99329342D01*
X69215095Y-99329342D02*
X69262714Y-99424580D01*
X69262714Y-99424580D02*
X69310333Y-99472200D01*
X69310333Y-99472200D02*
X69405571Y-99519819D01*
X69405571Y-99519819D02*
X69596047Y-99519819D01*
X69596047Y-99519819D02*
X69691285Y-99472200D01*
X69691285Y-99472200D02*
X69738904Y-99424580D01*
X69738904Y-99424580D02*
X69786523Y-99329342D01*
X69786523Y-99329342D02*
X69786523Y-98519819D01*
X70691285Y-98853152D02*
X70691285Y-99519819D01*
X70453190Y-98472200D02*
X70215095Y-99186485D01*
X70215095Y-99186485D02*
X70834142Y-99186485D01*
X85113905Y-110944819D02*
X85113905Y-109944819D01*
X85113905Y-109944819D02*
X85352000Y-109944819D01*
X85352000Y-109944819D02*
X85494857Y-109992438D01*
X85494857Y-109992438D02*
X85590095Y-110087676D01*
X85590095Y-110087676D02*
X85637714Y-110182914D01*
X85637714Y-110182914D02*
X85685333Y-110373390D01*
X85685333Y-110373390D02*
X85685333Y-110516247D01*
X85685333Y-110516247D02*
X85637714Y-110706723D01*
X85637714Y-110706723D02*
X85590095Y-110801961D01*
X85590095Y-110801961D02*
X85494857Y-110897200D01*
X85494857Y-110897200D02*
X85352000Y-110944819D01*
X85352000Y-110944819D02*
X85113905Y-110944819D01*
X86066286Y-110040057D02*
X86113905Y-109992438D01*
X86113905Y-109992438D02*
X86209143Y-109944819D01*
X86209143Y-109944819D02*
X86447238Y-109944819D01*
X86447238Y-109944819D02*
X86542476Y-109992438D01*
X86542476Y-109992438D02*
X86590095Y-110040057D01*
X86590095Y-110040057D02*
X86637714Y-110135295D01*
X86637714Y-110135295D02*
X86637714Y-110230533D01*
X86637714Y-110230533D02*
X86590095Y-110373390D01*
X86590095Y-110373390D02*
X86018667Y-110944819D01*
X86018667Y-110944819D02*
X86637714Y-110944819D01*
X85798819Y-161885238D02*
X85322628Y-162218571D01*
X85798819Y-162456666D02*
X84798819Y-162456666D01*
X84798819Y-162456666D02*
X84798819Y-162075714D01*
X84798819Y-162075714D02*
X84846438Y-161980476D01*
X84846438Y-161980476D02*
X84894057Y-161932857D01*
X84894057Y-161932857D02*
X84989295Y-161885238D01*
X84989295Y-161885238D02*
X85132152Y-161885238D01*
X85132152Y-161885238D02*
X85227390Y-161932857D01*
X85227390Y-161932857D02*
X85275009Y-161980476D01*
X85275009Y-161980476D02*
X85322628Y-162075714D01*
X85322628Y-162075714D02*
X85322628Y-162456666D01*
X84798819Y-161599523D02*
X85798819Y-161266190D01*
X85798819Y-161266190D02*
X84798819Y-160932857D01*
X85132152Y-160170952D02*
X85798819Y-160170952D01*
X84751200Y-160409047D02*
X85465485Y-160647142D01*
X85465485Y-160647142D02*
X85465485Y-160028095D01*
X68764485Y-43764190D02*
X68726390Y-43840380D01*
X68726390Y-43840380D02*
X68650200Y-43916571D01*
X68650200Y-43916571D02*
X68535914Y-44030857D01*
X68535914Y-44030857D02*
X68497819Y-44107047D01*
X68497819Y-44107047D02*
X68497819Y-44183238D01*
X68688295Y-44145142D02*
X68650200Y-44221333D01*
X68650200Y-44221333D02*
X68574009Y-44297523D01*
X68574009Y-44297523D02*
X68421628Y-44335619D01*
X68421628Y-44335619D02*
X68154961Y-44335619D01*
X68154961Y-44335619D02*
X68002580Y-44297523D01*
X68002580Y-44297523D02*
X67926390Y-44221333D01*
X67926390Y-44221333D02*
X67888295Y-44145142D01*
X67888295Y-44145142D02*
X67888295Y-43992761D01*
X67888295Y-43992761D02*
X67926390Y-43916571D01*
X67926390Y-43916571D02*
X68002580Y-43840380D01*
X68002580Y-43840380D02*
X68154961Y-43802285D01*
X68154961Y-43802285D02*
X68421628Y-43802285D01*
X68421628Y-43802285D02*
X68574009Y-43840380D01*
X68574009Y-43840380D02*
X68650200Y-43916571D01*
X68650200Y-43916571D02*
X68688295Y-43992761D01*
X68688295Y-43992761D02*
X68688295Y-44145142D01*
X68154961Y-43116571D02*
X68688295Y-43116571D01*
X67850200Y-43307047D02*
X68421628Y-43497524D01*
X68421628Y-43497524D02*
X68421628Y-43002285D01*
X62857142Y-132788819D02*
X62523809Y-132312628D01*
X62285714Y-132788819D02*
X62285714Y-131788819D01*
X62285714Y-131788819D02*
X62666666Y-131788819D01*
X62666666Y-131788819D02*
X62761904Y-131836438D01*
X62761904Y-131836438D02*
X62809523Y-131884057D01*
X62809523Y-131884057D02*
X62857142Y-131979295D01*
X62857142Y-131979295D02*
X62857142Y-132122152D01*
X62857142Y-132122152D02*
X62809523Y-132217390D01*
X62809523Y-132217390D02*
X62761904Y-132265009D01*
X62761904Y-132265009D02*
X62666666Y-132312628D01*
X62666666Y-132312628D02*
X62285714Y-132312628D01*
X63809523Y-132788819D02*
X63238095Y-132788819D01*
X63523809Y-132788819D02*
X63523809Y-131788819D01*
X63523809Y-131788819D02*
X63428571Y-131931676D01*
X63428571Y-131931676D02*
X63333333Y-132026914D01*
X63333333Y-132026914D02*
X63238095Y-132074533D01*
X64285714Y-132788819D02*
X64476190Y-132788819D01*
X64476190Y-132788819D02*
X64571428Y-132741200D01*
X64571428Y-132741200D02*
X64619047Y-132693580D01*
X64619047Y-132693580D02*
X64714285Y-132550723D01*
X64714285Y-132550723D02*
X64761904Y-132360247D01*
X64761904Y-132360247D02*
X64761904Y-131979295D01*
X64761904Y-131979295D02*
X64714285Y-131884057D01*
X64714285Y-131884057D02*
X64666666Y-131836438D01*
X64666666Y-131836438D02*
X64571428Y-131788819D01*
X64571428Y-131788819D02*
X64380952Y-131788819D01*
X64380952Y-131788819D02*
X64285714Y-131836438D01*
X64285714Y-131836438D02*
X64238095Y-131884057D01*
X64238095Y-131884057D02*
X64190476Y-131979295D01*
X64190476Y-131979295D02*
X64190476Y-132217390D01*
X64190476Y-132217390D02*
X64238095Y-132312628D01*
X64238095Y-132312628D02*
X64285714Y-132360247D01*
X64285714Y-132360247D02*
X64380952Y-132407866D01*
X64380952Y-132407866D02*
X64571428Y-132407866D01*
X64571428Y-132407866D02*
X64666666Y-132360247D01*
X64666666Y-132360247D02*
X64714285Y-132312628D01*
X64714285Y-132312628D02*
X64761904Y-132217390D01*
X62229295Y-179171523D02*
X62876914Y-179171523D01*
X62876914Y-179171523D02*
X62953104Y-179133428D01*
X62953104Y-179133428D02*
X62991200Y-179095333D01*
X62991200Y-179095333D02*
X63029295Y-179019142D01*
X63029295Y-179019142D02*
X63029295Y-178866761D01*
X63029295Y-178866761D02*
X62991200Y-178790571D01*
X62991200Y-178790571D02*
X62953104Y-178752476D01*
X62953104Y-178752476D02*
X62876914Y-178714380D01*
X62876914Y-178714380D02*
X62229295Y-178714380D01*
X62305485Y-178371524D02*
X62267390Y-178333428D01*
X62267390Y-178333428D02*
X62229295Y-178257238D01*
X62229295Y-178257238D02*
X62229295Y-178066762D01*
X62229295Y-178066762D02*
X62267390Y-177990571D01*
X62267390Y-177990571D02*
X62305485Y-177952476D01*
X62305485Y-177952476D02*
X62381676Y-177914381D01*
X62381676Y-177914381D02*
X62457866Y-177914381D01*
X62457866Y-177914381D02*
X62572152Y-177952476D01*
X62572152Y-177952476D02*
X63029295Y-178409619D01*
X63029295Y-178409619D02*
X63029295Y-177914381D01*
X32377142Y-118564819D02*
X32043809Y-118088628D01*
X31805714Y-118564819D02*
X31805714Y-117564819D01*
X31805714Y-117564819D02*
X32186666Y-117564819D01*
X32186666Y-117564819D02*
X32281904Y-117612438D01*
X32281904Y-117612438D02*
X32329523Y-117660057D01*
X32329523Y-117660057D02*
X32377142Y-117755295D01*
X32377142Y-117755295D02*
X32377142Y-117898152D01*
X32377142Y-117898152D02*
X32329523Y-117993390D01*
X32329523Y-117993390D02*
X32281904Y-118041009D01*
X32281904Y-118041009D02*
X32186666Y-118088628D01*
X32186666Y-118088628D02*
X31805714Y-118088628D01*
X33234285Y-117898152D02*
X33234285Y-118564819D01*
X32996190Y-117517200D02*
X32758095Y-118231485D01*
X32758095Y-118231485D02*
X33377142Y-118231485D01*
X34186666Y-117898152D02*
X34186666Y-118564819D01*
X33948571Y-117517200D02*
X33710476Y-118231485D01*
X33710476Y-118231485D02*
X34329523Y-118231485D01*
X80891142Y-80464819D02*
X80557809Y-79988628D01*
X80319714Y-80464819D02*
X80319714Y-79464819D01*
X80319714Y-79464819D02*
X80700666Y-79464819D01*
X80700666Y-79464819D02*
X80795904Y-79512438D01*
X80795904Y-79512438D02*
X80843523Y-79560057D01*
X80843523Y-79560057D02*
X80891142Y-79655295D01*
X80891142Y-79655295D02*
X80891142Y-79798152D01*
X80891142Y-79798152D02*
X80843523Y-79893390D01*
X80843523Y-79893390D02*
X80795904Y-79941009D01*
X80795904Y-79941009D02*
X80700666Y-79988628D01*
X80700666Y-79988628D02*
X80319714Y-79988628D01*
X81272095Y-79560057D02*
X81319714Y-79512438D01*
X81319714Y-79512438D02*
X81414952Y-79464819D01*
X81414952Y-79464819D02*
X81653047Y-79464819D01*
X81653047Y-79464819D02*
X81748285Y-79512438D01*
X81748285Y-79512438D02*
X81795904Y-79560057D01*
X81795904Y-79560057D02*
X81843523Y-79655295D01*
X81843523Y-79655295D02*
X81843523Y-79750533D01*
X81843523Y-79750533D02*
X81795904Y-79893390D01*
X81795904Y-79893390D02*
X81224476Y-80464819D01*
X81224476Y-80464819D02*
X81843523Y-80464819D01*
X82700666Y-79464819D02*
X82510190Y-79464819D01*
X82510190Y-79464819D02*
X82414952Y-79512438D01*
X82414952Y-79512438D02*
X82367333Y-79560057D01*
X82367333Y-79560057D02*
X82272095Y-79702914D01*
X82272095Y-79702914D02*
X82224476Y-79893390D01*
X82224476Y-79893390D02*
X82224476Y-80274342D01*
X82224476Y-80274342D02*
X82272095Y-80369580D01*
X82272095Y-80369580D02*
X82319714Y-80417200D01*
X82319714Y-80417200D02*
X82414952Y-80464819D01*
X82414952Y-80464819D02*
X82605428Y-80464819D01*
X82605428Y-80464819D02*
X82700666Y-80417200D01*
X82700666Y-80417200D02*
X82748285Y-80369580D01*
X82748285Y-80369580D02*
X82795904Y-80274342D01*
X82795904Y-80274342D02*
X82795904Y-80036247D01*
X82795904Y-80036247D02*
X82748285Y-79941009D01*
X82748285Y-79941009D02*
X82700666Y-79893390D01*
X82700666Y-79893390D02*
X82605428Y-79845771D01*
X82605428Y-79845771D02*
X82414952Y-79845771D01*
X82414952Y-79845771D02*
X82319714Y-79893390D01*
X82319714Y-79893390D02*
X82272095Y-79941009D01*
X82272095Y-79941009D02*
X82224476Y-80036247D01*
X82923142Y-50111819D02*
X82589809Y-49635628D01*
X82351714Y-50111819D02*
X82351714Y-49111819D01*
X82351714Y-49111819D02*
X82732666Y-49111819D01*
X82732666Y-49111819D02*
X82827904Y-49159438D01*
X82827904Y-49159438D02*
X82875523Y-49207057D01*
X82875523Y-49207057D02*
X82923142Y-49302295D01*
X82923142Y-49302295D02*
X82923142Y-49445152D01*
X82923142Y-49445152D02*
X82875523Y-49540390D01*
X82875523Y-49540390D02*
X82827904Y-49588009D01*
X82827904Y-49588009D02*
X82732666Y-49635628D01*
X82732666Y-49635628D02*
X82351714Y-49635628D01*
X83256476Y-49111819D02*
X83875523Y-49111819D01*
X83875523Y-49111819D02*
X83542190Y-49492771D01*
X83542190Y-49492771D02*
X83685047Y-49492771D01*
X83685047Y-49492771D02*
X83780285Y-49540390D01*
X83780285Y-49540390D02*
X83827904Y-49588009D01*
X83827904Y-49588009D02*
X83875523Y-49683247D01*
X83875523Y-49683247D02*
X83875523Y-49921342D01*
X83875523Y-49921342D02*
X83827904Y-50016580D01*
X83827904Y-50016580D02*
X83780285Y-50064200D01*
X83780285Y-50064200D02*
X83685047Y-50111819D01*
X83685047Y-50111819D02*
X83399333Y-50111819D01*
X83399333Y-50111819D02*
X83304095Y-50064200D01*
X83304095Y-50064200D02*
X83256476Y-50016580D01*
X84732666Y-49111819D02*
X84542190Y-49111819D01*
X84542190Y-49111819D02*
X84446952Y-49159438D01*
X84446952Y-49159438D02*
X84399333Y-49207057D01*
X84399333Y-49207057D02*
X84304095Y-49349914D01*
X84304095Y-49349914D02*
X84256476Y-49540390D01*
X84256476Y-49540390D02*
X84256476Y-49921342D01*
X84256476Y-49921342D02*
X84304095Y-50016580D01*
X84304095Y-50016580D02*
X84351714Y-50064200D01*
X84351714Y-50064200D02*
X84446952Y-50111819D01*
X84446952Y-50111819D02*
X84637428Y-50111819D01*
X84637428Y-50111819D02*
X84732666Y-50064200D01*
X84732666Y-50064200D02*
X84780285Y-50016580D01*
X84780285Y-50016580D02*
X84827904Y-49921342D01*
X84827904Y-49921342D02*
X84827904Y-49683247D01*
X84827904Y-49683247D02*
X84780285Y-49588009D01*
X84780285Y-49588009D02*
X84732666Y-49540390D01*
X84732666Y-49540390D02*
X84637428Y-49492771D01*
X84637428Y-49492771D02*
X84446952Y-49492771D01*
X84446952Y-49492771D02*
X84351714Y-49540390D01*
X84351714Y-49540390D02*
X84304095Y-49588009D01*
X84304095Y-49588009D02*
X84256476Y-49683247D01*
X77400485Y-43764190D02*
X77362390Y-43840380D01*
X77362390Y-43840380D02*
X77286200Y-43916571D01*
X77286200Y-43916571D02*
X77171914Y-44030857D01*
X77171914Y-44030857D02*
X77133819Y-44107047D01*
X77133819Y-44107047D02*
X77133819Y-44183238D01*
X77324295Y-44145142D02*
X77286200Y-44221333D01*
X77286200Y-44221333D02*
X77210009Y-44297523D01*
X77210009Y-44297523D02*
X77057628Y-44335619D01*
X77057628Y-44335619D02*
X76790961Y-44335619D01*
X76790961Y-44335619D02*
X76638580Y-44297523D01*
X76638580Y-44297523D02*
X76562390Y-44221333D01*
X76562390Y-44221333D02*
X76524295Y-44145142D01*
X76524295Y-44145142D02*
X76524295Y-43992761D01*
X76524295Y-43992761D02*
X76562390Y-43916571D01*
X76562390Y-43916571D02*
X76638580Y-43840380D01*
X76638580Y-43840380D02*
X76790961Y-43802285D01*
X76790961Y-43802285D02*
X77057628Y-43802285D01*
X77057628Y-43802285D02*
X77210009Y-43840380D01*
X77210009Y-43840380D02*
X77286200Y-43916571D01*
X77286200Y-43916571D02*
X77324295Y-43992761D01*
X77324295Y-43992761D02*
X77324295Y-44145142D01*
X76524295Y-43078476D02*
X76524295Y-43459428D01*
X76524295Y-43459428D02*
X76905247Y-43497524D01*
X76905247Y-43497524D02*
X76867152Y-43459428D01*
X76867152Y-43459428D02*
X76829057Y-43383238D01*
X76829057Y-43383238D02*
X76829057Y-43192762D01*
X76829057Y-43192762D02*
X76867152Y-43116571D01*
X76867152Y-43116571D02*
X76905247Y-43078476D01*
X76905247Y-43078476D02*
X76981438Y-43040381D01*
X76981438Y-43040381D02*
X77171914Y-43040381D01*
X77171914Y-43040381D02*
X77248104Y-43078476D01*
X77248104Y-43078476D02*
X77286200Y-43116571D01*
X77286200Y-43116571D02*
X77324295Y-43192762D01*
X77324295Y-43192762D02*
X77324295Y-43383238D01*
X77324295Y-43383238D02*
X77286200Y-43459428D01*
X77286200Y-43459428D02*
X77248104Y-43497524D01*
X50289142Y-161987580D02*
X50241523Y-162035200D01*
X50241523Y-162035200D02*
X50098666Y-162082819D01*
X50098666Y-162082819D02*
X50003428Y-162082819D01*
X50003428Y-162082819D02*
X49860571Y-162035200D01*
X49860571Y-162035200D02*
X49765333Y-161939961D01*
X49765333Y-161939961D02*
X49717714Y-161844723D01*
X49717714Y-161844723D02*
X49670095Y-161654247D01*
X49670095Y-161654247D02*
X49670095Y-161511390D01*
X49670095Y-161511390D02*
X49717714Y-161320914D01*
X49717714Y-161320914D02*
X49765333Y-161225676D01*
X49765333Y-161225676D02*
X49860571Y-161130438D01*
X49860571Y-161130438D02*
X50003428Y-161082819D01*
X50003428Y-161082819D02*
X50098666Y-161082819D01*
X50098666Y-161082819D02*
X50241523Y-161130438D01*
X50241523Y-161130438D02*
X50289142Y-161178057D01*
X51241523Y-162082819D02*
X50670095Y-162082819D01*
X50955809Y-162082819D02*
X50955809Y-161082819D01*
X50955809Y-161082819D02*
X50860571Y-161225676D01*
X50860571Y-161225676D02*
X50765333Y-161320914D01*
X50765333Y-161320914D02*
X50670095Y-161368533D01*
X51860571Y-161082819D02*
X51955809Y-161082819D01*
X51955809Y-161082819D02*
X52051047Y-161130438D01*
X52051047Y-161130438D02*
X52098666Y-161178057D01*
X52098666Y-161178057D02*
X52146285Y-161273295D01*
X52146285Y-161273295D02*
X52193904Y-161463771D01*
X52193904Y-161463771D02*
X52193904Y-161701866D01*
X52193904Y-161701866D02*
X52146285Y-161892342D01*
X52146285Y-161892342D02*
X52098666Y-161987580D01*
X52098666Y-161987580D02*
X52051047Y-162035200D01*
X52051047Y-162035200D02*
X51955809Y-162082819D01*
X51955809Y-162082819D02*
X51860571Y-162082819D01*
X51860571Y-162082819D02*
X51765333Y-162035200D01*
X51765333Y-162035200D02*
X51717714Y-161987580D01*
X51717714Y-161987580D02*
X51670095Y-161892342D01*
X51670095Y-161892342D02*
X51622476Y-161701866D01*
X51622476Y-161701866D02*
X51622476Y-161463771D01*
X51622476Y-161463771D02*
X51670095Y-161273295D01*
X51670095Y-161273295D02*
X51717714Y-161178057D01*
X51717714Y-161178057D02*
X51765333Y-161130438D01*
X51765333Y-161130438D02*
X51860571Y-161082819D01*
X55927333Y-182223580D02*
X55879714Y-182271200D01*
X55879714Y-182271200D02*
X55736857Y-182318819D01*
X55736857Y-182318819D02*
X55641619Y-182318819D01*
X55641619Y-182318819D02*
X55498762Y-182271200D01*
X55498762Y-182271200D02*
X55403524Y-182175961D01*
X55403524Y-182175961D02*
X55355905Y-182080723D01*
X55355905Y-182080723D02*
X55308286Y-181890247D01*
X55308286Y-181890247D02*
X55308286Y-181747390D01*
X55308286Y-181747390D02*
X55355905Y-181556914D01*
X55355905Y-181556914D02*
X55403524Y-181461676D01*
X55403524Y-181461676D02*
X55498762Y-181366438D01*
X55498762Y-181366438D02*
X55641619Y-181318819D01*
X55641619Y-181318819D02*
X55736857Y-181318819D01*
X55736857Y-181318819D02*
X55879714Y-181366438D01*
X55879714Y-181366438D02*
X55927333Y-181414057D01*
X56832095Y-181318819D02*
X56355905Y-181318819D01*
X56355905Y-181318819D02*
X56308286Y-181795009D01*
X56308286Y-181795009D02*
X56355905Y-181747390D01*
X56355905Y-181747390D02*
X56451143Y-181699771D01*
X56451143Y-181699771D02*
X56689238Y-181699771D01*
X56689238Y-181699771D02*
X56784476Y-181747390D01*
X56784476Y-181747390D02*
X56832095Y-181795009D01*
X56832095Y-181795009D02*
X56879714Y-181890247D01*
X56879714Y-181890247D02*
X56879714Y-182128342D01*
X56879714Y-182128342D02*
X56832095Y-182223580D01*
X56832095Y-182223580D02*
X56784476Y-182271200D01*
X56784476Y-182271200D02*
X56689238Y-182318819D01*
X56689238Y-182318819D02*
X56451143Y-182318819D01*
X56451143Y-182318819D02*
X56355905Y-182271200D01*
X56355905Y-182271200D02*
X56308286Y-182223580D01*
X32377142Y-62684819D02*
X32043809Y-62208628D01*
X31805714Y-62684819D02*
X31805714Y-61684819D01*
X31805714Y-61684819D02*
X32186666Y-61684819D01*
X32186666Y-61684819D02*
X32281904Y-61732438D01*
X32281904Y-61732438D02*
X32329523Y-61780057D01*
X32329523Y-61780057D02*
X32377142Y-61875295D01*
X32377142Y-61875295D02*
X32377142Y-62018152D01*
X32377142Y-62018152D02*
X32329523Y-62113390D01*
X32329523Y-62113390D02*
X32281904Y-62161009D01*
X32281904Y-62161009D02*
X32186666Y-62208628D01*
X32186666Y-62208628D02*
X31805714Y-62208628D01*
X33234285Y-62018152D02*
X33234285Y-62684819D01*
X32996190Y-61637200D02*
X32758095Y-62351485D01*
X32758095Y-62351485D02*
X33377142Y-62351485D01*
X33710476Y-61780057D02*
X33758095Y-61732438D01*
X33758095Y-61732438D02*
X33853333Y-61684819D01*
X33853333Y-61684819D02*
X34091428Y-61684819D01*
X34091428Y-61684819D02*
X34186666Y-61732438D01*
X34186666Y-61732438D02*
X34234285Y-61780057D01*
X34234285Y-61780057D02*
X34281904Y-61875295D01*
X34281904Y-61875295D02*
X34281904Y-61970533D01*
X34281904Y-61970533D02*
X34234285Y-62113390D01*
X34234285Y-62113390D02*
X33662857Y-62684819D01*
X33662857Y-62684819D02*
X34281904Y-62684819D01*
X83004819Y-132167238D02*
X82528628Y-132500571D01*
X83004819Y-132738666D02*
X82004819Y-132738666D01*
X82004819Y-132738666D02*
X82004819Y-132357714D01*
X82004819Y-132357714D02*
X82052438Y-132262476D01*
X82052438Y-132262476D02*
X82100057Y-132214857D01*
X82100057Y-132214857D02*
X82195295Y-132167238D01*
X82195295Y-132167238D02*
X82338152Y-132167238D01*
X82338152Y-132167238D02*
X82433390Y-132214857D01*
X82433390Y-132214857D02*
X82481009Y-132262476D01*
X82481009Y-132262476D02*
X82528628Y-132357714D01*
X82528628Y-132357714D02*
X82528628Y-132738666D01*
X82004819Y-131881523D02*
X83004819Y-131548190D01*
X83004819Y-131548190D02*
X82004819Y-131214857D01*
X82004819Y-130405333D02*
X82004819Y-130881523D01*
X82004819Y-130881523D02*
X82481009Y-130929142D01*
X82481009Y-130929142D02*
X82433390Y-130881523D01*
X82433390Y-130881523D02*
X82385771Y-130786285D01*
X82385771Y-130786285D02*
X82385771Y-130548190D01*
X82385771Y-130548190D02*
X82433390Y-130452952D01*
X82433390Y-130452952D02*
X82481009Y-130405333D01*
X82481009Y-130405333D02*
X82576247Y-130357714D01*
X82576247Y-130357714D02*
X82814342Y-130357714D01*
X82814342Y-130357714D02*
X82909580Y-130405333D01*
X82909580Y-130405333D02*
X82957200Y-130452952D01*
X82957200Y-130452952D02*
X83004819Y-130548190D01*
X83004819Y-130548190D02*
X83004819Y-130786285D01*
X83004819Y-130786285D02*
X82957200Y-130881523D01*
X82957200Y-130881523D02*
X82909580Y-130929142D01*
X93845142Y-83004819D02*
X93511809Y-82528628D01*
X93273714Y-83004819D02*
X93273714Y-82004819D01*
X93273714Y-82004819D02*
X93654666Y-82004819D01*
X93654666Y-82004819D02*
X93749904Y-82052438D01*
X93749904Y-82052438D02*
X93797523Y-82100057D01*
X93797523Y-82100057D02*
X93845142Y-82195295D01*
X93845142Y-82195295D02*
X93845142Y-82338152D01*
X93845142Y-82338152D02*
X93797523Y-82433390D01*
X93797523Y-82433390D02*
X93749904Y-82481009D01*
X93749904Y-82481009D02*
X93654666Y-82528628D01*
X93654666Y-82528628D02*
X93273714Y-82528628D01*
X94226095Y-82100057D02*
X94273714Y-82052438D01*
X94273714Y-82052438D02*
X94368952Y-82004819D01*
X94368952Y-82004819D02*
X94607047Y-82004819D01*
X94607047Y-82004819D02*
X94702285Y-82052438D01*
X94702285Y-82052438D02*
X94749904Y-82100057D01*
X94749904Y-82100057D02*
X94797523Y-82195295D01*
X94797523Y-82195295D02*
X94797523Y-82290533D01*
X94797523Y-82290533D02*
X94749904Y-82433390D01*
X94749904Y-82433390D02*
X94178476Y-83004819D01*
X94178476Y-83004819D02*
X94797523Y-83004819D01*
X95749904Y-83004819D02*
X95178476Y-83004819D01*
X95464190Y-83004819D02*
X95464190Y-82004819D01*
X95464190Y-82004819D02*
X95368952Y-82147676D01*
X95368952Y-82147676D02*
X95273714Y-82242914D01*
X95273714Y-82242914D02*
X95178476Y-82290533D01*
X62160485Y-145872190D02*
X62122390Y-145948380D01*
X62122390Y-145948380D02*
X62046200Y-146024571D01*
X62046200Y-146024571D02*
X61931914Y-146138857D01*
X61931914Y-146138857D02*
X61893819Y-146215047D01*
X61893819Y-146215047D02*
X61893819Y-146291238D01*
X62084295Y-146253142D02*
X62046200Y-146329333D01*
X62046200Y-146329333D02*
X61970009Y-146405523D01*
X61970009Y-146405523D02*
X61817628Y-146443619D01*
X61817628Y-146443619D02*
X61550961Y-146443619D01*
X61550961Y-146443619D02*
X61398580Y-146405523D01*
X61398580Y-146405523D02*
X61322390Y-146329333D01*
X61322390Y-146329333D02*
X61284295Y-146253142D01*
X61284295Y-146253142D02*
X61284295Y-146100761D01*
X61284295Y-146100761D02*
X61322390Y-146024571D01*
X61322390Y-146024571D02*
X61398580Y-145948380D01*
X61398580Y-145948380D02*
X61550961Y-145910285D01*
X61550961Y-145910285D02*
X61817628Y-145910285D01*
X61817628Y-145910285D02*
X61970009Y-145948380D01*
X61970009Y-145948380D02*
X62046200Y-146024571D01*
X62046200Y-146024571D02*
X62084295Y-146100761D01*
X62084295Y-146100761D02*
X62084295Y-146253142D01*
X61284295Y-145643619D02*
X61284295Y-145148381D01*
X61284295Y-145148381D02*
X61589057Y-145415047D01*
X61589057Y-145415047D02*
X61589057Y-145300762D01*
X61589057Y-145300762D02*
X61627152Y-145224571D01*
X61627152Y-145224571D02*
X61665247Y-145186476D01*
X61665247Y-145186476D02*
X61741438Y-145148381D01*
X61741438Y-145148381D02*
X61931914Y-145148381D01*
X61931914Y-145148381D02*
X62008104Y-145186476D01*
X62008104Y-145186476D02*
X62046200Y-145224571D01*
X62046200Y-145224571D02*
X62084295Y-145300762D01*
X62084295Y-145300762D02*
X62084295Y-145529333D01*
X62084295Y-145529333D02*
X62046200Y-145605524D01*
X62046200Y-145605524D02*
X62008104Y-145643619D01*
X69619905Y-76400819D02*
X69619905Y-75400819D01*
X69619905Y-75400819D02*
X69858000Y-75400819D01*
X69858000Y-75400819D02*
X70000857Y-75448438D01*
X70000857Y-75448438D02*
X70096095Y-75543676D01*
X70096095Y-75543676D02*
X70143714Y-75638914D01*
X70143714Y-75638914D02*
X70191333Y-75829390D01*
X70191333Y-75829390D02*
X70191333Y-75972247D01*
X70191333Y-75972247D02*
X70143714Y-76162723D01*
X70143714Y-76162723D02*
X70096095Y-76257961D01*
X70096095Y-76257961D02*
X70000857Y-76353200D01*
X70000857Y-76353200D02*
X69858000Y-76400819D01*
X69858000Y-76400819D02*
X69619905Y-76400819D01*
X70524667Y-75400819D02*
X71143714Y-75400819D01*
X71143714Y-75400819D02*
X70810381Y-75781771D01*
X70810381Y-75781771D02*
X70953238Y-75781771D01*
X70953238Y-75781771D02*
X71048476Y-75829390D01*
X71048476Y-75829390D02*
X71096095Y-75877009D01*
X71096095Y-75877009D02*
X71143714Y-75972247D01*
X71143714Y-75972247D02*
X71143714Y-76210342D01*
X71143714Y-76210342D02*
X71096095Y-76305580D01*
X71096095Y-76305580D02*
X71048476Y-76353200D01*
X71048476Y-76353200D02*
X70953238Y-76400819D01*
X70953238Y-76400819D02*
X70667524Y-76400819D01*
X70667524Y-76400819D02*
X70572286Y-76353200D01*
X70572286Y-76353200D02*
X70524667Y-76305580D01*
X57350819Y-166536666D02*
X56874628Y-166869999D01*
X57350819Y-167108094D02*
X56350819Y-167108094D01*
X56350819Y-167108094D02*
X56350819Y-166727142D01*
X56350819Y-166727142D02*
X56398438Y-166631904D01*
X56398438Y-166631904D02*
X56446057Y-166584285D01*
X56446057Y-166584285D02*
X56541295Y-166536666D01*
X56541295Y-166536666D02*
X56684152Y-166536666D01*
X56684152Y-166536666D02*
X56779390Y-166584285D01*
X56779390Y-166584285D02*
X56827009Y-166631904D01*
X56827009Y-166631904D02*
X56874628Y-166727142D01*
X56874628Y-166727142D02*
X56874628Y-167108094D01*
X56350819Y-166203332D02*
X56350819Y-165536666D01*
X56350819Y-165536666D02*
X57350819Y-165965237D01*
X80210819Y-128658857D02*
X79734628Y-128992190D01*
X80210819Y-129230285D02*
X79210819Y-129230285D01*
X79210819Y-129230285D02*
X79210819Y-128849333D01*
X79210819Y-128849333D02*
X79258438Y-128754095D01*
X79258438Y-128754095D02*
X79306057Y-128706476D01*
X79306057Y-128706476D02*
X79401295Y-128658857D01*
X79401295Y-128658857D02*
X79544152Y-128658857D01*
X79544152Y-128658857D02*
X79639390Y-128706476D01*
X79639390Y-128706476D02*
X79687009Y-128754095D01*
X79687009Y-128754095D02*
X79734628Y-128849333D01*
X79734628Y-128849333D02*
X79734628Y-129230285D01*
X80210819Y-127706476D02*
X80210819Y-128277904D01*
X80210819Y-127992190D02*
X79210819Y-127992190D01*
X79210819Y-127992190D02*
X79353676Y-128087428D01*
X79353676Y-128087428D02*
X79448914Y-128182666D01*
X79448914Y-128182666D02*
X79496533Y-128277904D01*
X79544152Y-126849333D02*
X80210819Y-126849333D01*
X79163200Y-127087428D02*
X79877485Y-127325523D01*
X79877485Y-127325523D02*
X79877485Y-126706476D01*
X59769142Y-72749580D02*
X59721523Y-72797200D01*
X59721523Y-72797200D02*
X59578666Y-72844819D01*
X59578666Y-72844819D02*
X59483428Y-72844819D01*
X59483428Y-72844819D02*
X59340571Y-72797200D01*
X59340571Y-72797200D02*
X59245333Y-72701961D01*
X59245333Y-72701961D02*
X59197714Y-72606723D01*
X59197714Y-72606723D02*
X59150095Y-72416247D01*
X59150095Y-72416247D02*
X59150095Y-72273390D01*
X59150095Y-72273390D02*
X59197714Y-72082914D01*
X59197714Y-72082914D02*
X59245333Y-71987676D01*
X59245333Y-71987676D02*
X59340571Y-71892438D01*
X59340571Y-71892438D02*
X59483428Y-71844819D01*
X59483428Y-71844819D02*
X59578666Y-71844819D01*
X59578666Y-71844819D02*
X59721523Y-71892438D01*
X59721523Y-71892438D02*
X59769142Y-71940057D01*
X60721523Y-72844819D02*
X60150095Y-72844819D01*
X60435809Y-72844819D02*
X60435809Y-71844819D01*
X60435809Y-71844819D02*
X60340571Y-71987676D01*
X60340571Y-71987676D02*
X60245333Y-72082914D01*
X60245333Y-72082914D02*
X60150095Y-72130533D01*
X61578666Y-71844819D02*
X61388190Y-71844819D01*
X61388190Y-71844819D02*
X61292952Y-71892438D01*
X61292952Y-71892438D02*
X61245333Y-71940057D01*
X61245333Y-71940057D02*
X61150095Y-72082914D01*
X61150095Y-72082914D02*
X61102476Y-72273390D01*
X61102476Y-72273390D02*
X61102476Y-72654342D01*
X61102476Y-72654342D02*
X61150095Y-72749580D01*
X61150095Y-72749580D02*
X61197714Y-72797200D01*
X61197714Y-72797200D02*
X61292952Y-72844819D01*
X61292952Y-72844819D02*
X61483428Y-72844819D01*
X61483428Y-72844819D02*
X61578666Y-72797200D01*
X61578666Y-72797200D02*
X61626285Y-72749580D01*
X61626285Y-72749580D02*
X61673904Y-72654342D01*
X61673904Y-72654342D02*
X61673904Y-72416247D01*
X61673904Y-72416247D02*
X61626285Y-72321009D01*
X61626285Y-72321009D02*
X61578666Y-72273390D01*
X61578666Y-72273390D02*
X61483428Y-72225771D01*
X61483428Y-72225771D02*
X61292952Y-72225771D01*
X61292952Y-72225771D02*
X61197714Y-72273390D01*
X61197714Y-72273390D02*
X61150095Y-72321009D01*
X61150095Y-72321009D02*
X61102476Y-72416247D01*
X69272485Y-157556190D02*
X69234390Y-157632380D01*
X69234390Y-157632380D02*
X69158200Y-157708571D01*
X69158200Y-157708571D02*
X69043914Y-157822857D01*
X69043914Y-157822857D02*
X69005819Y-157899047D01*
X69005819Y-157899047D02*
X69005819Y-157975238D01*
X69196295Y-157937142D02*
X69158200Y-158013333D01*
X69158200Y-158013333D02*
X69082009Y-158089523D01*
X69082009Y-158089523D02*
X68929628Y-158127619D01*
X68929628Y-158127619D02*
X68662961Y-158127619D01*
X68662961Y-158127619D02*
X68510580Y-158089523D01*
X68510580Y-158089523D02*
X68434390Y-158013333D01*
X68434390Y-158013333D02*
X68396295Y-157937142D01*
X68396295Y-157937142D02*
X68396295Y-157784761D01*
X68396295Y-157784761D02*
X68434390Y-157708571D01*
X68434390Y-157708571D02*
X68510580Y-157632380D01*
X68510580Y-157632380D02*
X68662961Y-157594285D01*
X68662961Y-157594285D02*
X68929628Y-157594285D01*
X68929628Y-157594285D02*
X69082009Y-157632380D01*
X69082009Y-157632380D02*
X69158200Y-157708571D01*
X69158200Y-157708571D02*
X69196295Y-157784761D01*
X69196295Y-157784761D02*
X69196295Y-157937142D01*
X68472485Y-157289524D02*
X68434390Y-157251428D01*
X68434390Y-157251428D02*
X68396295Y-157175238D01*
X68396295Y-157175238D02*
X68396295Y-156984762D01*
X68396295Y-156984762D02*
X68434390Y-156908571D01*
X68434390Y-156908571D02*
X68472485Y-156870476D01*
X68472485Y-156870476D02*
X68548676Y-156832381D01*
X68548676Y-156832381D02*
X68624866Y-156832381D01*
X68624866Y-156832381D02*
X68739152Y-156870476D01*
X68739152Y-156870476D02*
X69196295Y-157327619D01*
X69196295Y-157327619D02*
X69196295Y-156832381D01*
X58874819Y-117308238D02*
X58398628Y-117641571D01*
X58874819Y-117879666D02*
X57874819Y-117879666D01*
X57874819Y-117879666D02*
X57874819Y-117498714D01*
X57874819Y-117498714D02*
X57922438Y-117403476D01*
X57922438Y-117403476D02*
X57970057Y-117355857D01*
X57970057Y-117355857D02*
X58065295Y-117308238D01*
X58065295Y-117308238D02*
X58208152Y-117308238D01*
X58208152Y-117308238D02*
X58303390Y-117355857D01*
X58303390Y-117355857D02*
X58351009Y-117403476D01*
X58351009Y-117403476D02*
X58398628Y-117498714D01*
X58398628Y-117498714D02*
X58398628Y-117879666D01*
X57874819Y-117022523D02*
X58874819Y-116689190D01*
X58874819Y-116689190D02*
X57874819Y-116355857D01*
X58874819Y-115974904D02*
X58874819Y-115784428D01*
X58874819Y-115784428D02*
X58827200Y-115689190D01*
X58827200Y-115689190D02*
X58779580Y-115641571D01*
X58779580Y-115641571D02*
X58636723Y-115546333D01*
X58636723Y-115546333D02*
X58446247Y-115498714D01*
X58446247Y-115498714D02*
X58065295Y-115498714D01*
X58065295Y-115498714D02*
X57970057Y-115546333D01*
X57970057Y-115546333D02*
X57922438Y-115593952D01*
X57922438Y-115593952D02*
X57874819Y-115689190D01*
X57874819Y-115689190D02*
X57874819Y-115879666D01*
X57874819Y-115879666D02*
X57922438Y-115974904D01*
X57922438Y-115974904D02*
X57970057Y-116022523D01*
X57970057Y-116022523D02*
X58065295Y-116070142D01*
X58065295Y-116070142D02*
X58303390Y-116070142D01*
X58303390Y-116070142D02*
X58398628Y-116022523D01*
X58398628Y-116022523D02*
X58446247Y-115974904D01*
X58446247Y-115974904D02*
X58493866Y-115879666D01*
X58493866Y-115879666D02*
X58493866Y-115689190D01*
X58493866Y-115689190D02*
X58446247Y-115593952D01*
X58446247Y-115593952D02*
X58398628Y-115546333D01*
X58398628Y-115546333D02*
X58303390Y-115498714D01*
X81795333Y-138535580D02*
X81747714Y-138583200D01*
X81747714Y-138583200D02*
X81604857Y-138630819D01*
X81604857Y-138630819D02*
X81509619Y-138630819D01*
X81509619Y-138630819D02*
X81366762Y-138583200D01*
X81366762Y-138583200D02*
X81271524Y-138487961D01*
X81271524Y-138487961D02*
X81223905Y-138392723D01*
X81223905Y-138392723D02*
X81176286Y-138202247D01*
X81176286Y-138202247D02*
X81176286Y-138059390D01*
X81176286Y-138059390D02*
X81223905Y-137868914D01*
X81223905Y-137868914D02*
X81271524Y-137773676D01*
X81271524Y-137773676D02*
X81366762Y-137678438D01*
X81366762Y-137678438D02*
X81509619Y-137630819D01*
X81509619Y-137630819D02*
X81604857Y-137630819D01*
X81604857Y-137630819D02*
X81747714Y-137678438D01*
X81747714Y-137678438D02*
X81795333Y-137726057D01*
X82271524Y-138630819D02*
X82462000Y-138630819D01*
X82462000Y-138630819D02*
X82557238Y-138583200D01*
X82557238Y-138583200D02*
X82604857Y-138535580D01*
X82604857Y-138535580D02*
X82700095Y-138392723D01*
X82700095Y-138392723D02*
X82747714Y-138202247D01*
X82747714Y-138202247D02*
X82747714Y-137821295D01*
X82747714Y-137821295D02*
X82700095Y-137726057D01*
X82700095Y-137726057D02*
X82652476Y-137678438D01*
X82652476Y-137678438D02*
X82557238Y-137630819D01*
X82557238Y-137630819D02*
X82366762Y-137630819D01*
X82366762Y-137630819D02*
X82271524Y-137678438D01*
X82271524Y-137678438D02*
X82223905Y-137726057D01*
X82223905Y-137726057D02*
X82176286Y-137821295D01*
X82176286Y-137821295D02*
X82176286Y-138059390D01*
X82176286Y-138059390D02*
X82223905Y-138154628D01*
X82223905Y-138154628D02*
X82271524Y-138202247D01*
X82271524Y-138202247D02*
X82366762Y-138249866D01*
X82366762Y-138249866D02*
X82557238Y-138249866D01*
X82557238Y-138249866D02*
X82652476Y-138202247D01*
X82652476Y-138202247D02*
X82700095Y-138154628D01*
X82700095Y-138154628D02*
X82747714Y-138059390D01*
X33901142Y-176222819D02*
X33567809Y-175746628D01*
X33329714Y-176222819D02*
X33329714Y-175222819D01*
X33329714Y-175222819D02*
X33710666Y-175222819D01*
X33710666Y-175222819D02*
X33805904Y-175270438D01*
X33805904Y-175270438D02*
X33853523Y-175318057D01*
X33853523Y-175318057D02*
X33901142Y-175413295D01*
X33901142Y-175413295D02*
X33901142Y-175556152D01*
X33901142Y-175556152D02*
X33853523Y-175651390D01*
X33853523Y-175651390D02*
X33805904Y-175699009D01*
X33805904Y-175699009D02*
X33710666Y-175746628D01*
X33710666Y-175746628D02*
X33329714Y-175746628D01*
X34758285Y-175556152D02*
X34758285Y-176222819D01*
X34520190Y-175175200D02*
X34282095Y-175889485D01*
X34282095Y-175889485D02*
X34901142Y-175889485D01*
X35186857Y-175222819D02*
X35853523Y-175222819D01*
X35853523Y-175222819D02*
X35424952Y-176222819D01*
X73271142Y-149298819D02*
X72937809Y-148822628D01*
X72699714Y-149298819D02*
X72699714Y-148298819D01*
X72699714Y-148298819D02*
X73080666Y-148298819D01*
X73080666Y-148298819D02*
X73175904Y-148346438D01*
X73175904Y-148346438D02*
X73223523Y-148394057D01*
X73223523Y-148394057D02*
X73271142Y-148489295D01*
X73271142Y-148489295D02*
X73271142Y-148632152D01*
X73271142Y-148632152D02*
X73223523Y-148727390D01*
X73223523Y-148727390D02*
X73175904Y-148775009D01*
X73175904Y-148775009D02*
X73080666Y-148822628D01*
X73080666Y-148822628D02*
X72699714Y-148822628D01*
X74223523Y-149298819D02*
X73652095Y-149298819D01*
X73937809Y-149298819D02*
X73937809Y-148298819D01*
X73937809Y-148298819D02*
X73842571Y-148441676D01*
X73842571Y-148441676D02*
X73747333Y-148536914D01*
X73747333Y-148536914D02*
X73652095Y-148584533D01*
X74842571Y-148298819D02*
X74937809Y-148298819D01*
X74937809Y-148298819D02*
X75033047Y-148346438D01*
X75033047Y-148346438D02*
X75080666Y-148394057D01*
X75080666Y-148394057D02*
X75128285Y-148489295D01*
X75128285Y-148489295D02*
X75175904Y-148679771D01*
X75175904Y-148679771D02*
X75175904Y-148917866D01*
X75175904Y-148917866D02*
X75128285Y-149108342D01*
X75128285Y-149108342D02*
X75080666Y-149203580D01*
X75080666Y-149203580D02*
X75033047Y-149251200D01*
X75033047Y-149251200D02*
X74937809Y-149298819D01*
X74937809Y-149298819D02*
X74842571Y-149298819D01*
X74842571Y-149298819D02*
X74747333Y-149251200D01*
X74747333Y-149251200D02*
X74699714Y-149203580D01*
X74699714Y-149203580D02*
X74652095Y-149108342D01*
X74652095Y-149108342D02*
X74604476Y-148917866D01*
X74604476Y-148917866D02*
X74604476Y-148679771D01*
X74604476Y-148679771D02*
X74652095Y-148489295D01*
X74652095Y-148489295D02*
X74699714Y-148394057D01*
X74699714Y-148394057D02*
X74747333Y-148346438D01*
X74747333Y-148346438D02*
X74842571Y-148298819D01*
X73747333Y-152092819D02*
X73414000Y-151616628D01*
X73175905Y-152092819D02*
X73175905Y-151092819D01*
X73175905Y-151092819D02*
X73556857Y-151092819D01*
X73556857Y-151092819D02*
X73652095Y-151140438D01*
X73652095Y-151140438D02*
X73699714Y-151188057D01*
X73699714Y-151188057D02*
X73747333Y-151283295D01*
X73747333Y-151283295D02*
X73747333Y-151426152D01*
X73747333Y-151426152D02*
X73699714Y-151521390D01*
X73699714Y-151521390D02*
X73652095Y-151569009D01*
X73652095Y-151569009D02*
X73556857Y-151616628D01*
X73556857Y-151616628D02*
X73175905Y-151616628D01*
X74223524Y-152092819D02*
X74414000Y-152092819D01*
X74414000Y-152092819D02*
X74509238Y-152045200D01*
X74509238Y-152045200D02*
X74556857Y-151997580D01*
X74556857Y-151997580D02*
X74652095Y-151854723D01*
X74652095Y-151854723D02*
X74699714Y-151664247D01*
X74699714Y-151664247D02*
X74699714Y-151283295D01*
X74699714Y-151283295D02*
X74652095Y-151188057D01*
X74652095Y-151188057D02*
X74604476Y-151140438D01*
X74604476Y-151140438D02*
X74509238Y-151092819D01*
X74509238Y-151092819D02*
X74318762Y-151092819D01*
X74318762Y-151092819D02*
X74223524Y-151140438D01*
X74223524Y-151140438D02*
X74175905Y-151188057D01*
X74175905Y-151188057D02*
X74128286Y-151283295D01*
X74128286Y-151283295D02*
X74128286Y-151521390D01*
X74128286Y-151521390D02*
X74175905Y-151616628D01*
X74175905Y-151616628D02*
X74223524Y-151664247D01*
X74223524Y-151664247D02*
X74318762Y-151711866D01*
X74318762Y-151711866D02*
X74509238Y-151711866D01*
X74509238Y-151711866D02*
X74604476Y-151664247D01*
X74604476Y-151664247D02*
X74652095Y-151616628D01*
X74652095Y-151616628D02*
X74699714Y-151521390D01*
X98385333Y-179270819D02*
X98052000Y-178794628D01*
X97813905Y-179270819D02*
X97813905Y-178270819D01*
X97813905Y-178270819D02*
X98194857Y-178270819D01*
X98194857Y-178270819D02*
X98290095Y-178318438D01*
X98290095Y-178318438D02*
X98337714Y-178366057D01*
X98337714Y-178366057D02*
X98385333Y-178461295D01*
X98385333Y-178461295D02*
X98385333Y-178604152D01*
X98385333Y-178604152D02*
X98337714Y-178699390D01*
X98337714Y-178699390D02*
X98290095Y-178747009D01*
X98290095Y-178747009D02*
X98194857Y-178794628D01*
X98194857Y-178794628D02*
X97813905Y-178794628D01*
X99337714Y-179270819D02*
X98766286Y-179270819D01*
X99052000Y-179270819D02*
X99052000Y-178270819D01*
X99052000Y-178270819D02*
X98956762Y-178413676D01*
X98956762Y-178413676D02*
X98861524Y-178508914D01*
X98861524Y-178508914D02*
X98766286Y-178556533D01*
X62785333Y-171047580D02*
X62737714Y-171095200D01*
X62737714Y-171095200D02*
X62594857Y-171142819D01*
X62594857Y-171142819D02*
X62499619Y-171142819D01*
X62499619Y-171142819D02*
X62356762Y-171095200D01*
X62356762Y-171095200D02*
X62261524Y-170999961D01*
X62261524Y-170999961D02*
X62213905Y-170904723D01*
X62213905Y-170904723D02*
X62166286Y-170714247D01*
X62166286Y-170714247D02*
X62166286Y-170571390D01*
X62166286Y-170571390D02*
X62213905Y-170380914D01*
X62213905Y-170380914D02*
X62261524Y-170285676D01*
X62261524Y-170285676D02*
X62356762Y-170190438D01*
X62356762Y-170190438D02*
X62499619Y-170142819D01*
X62499619Y-170142819D02*
X62594857Y-170142819D01*
X62594857Y-170142819D02*
X62737714Y-170190438D01*
X62737714Y-170190438D02*
X62785333Y-170238057D01*
X63642476Y-170142819D02*
X63452000Y-170142819D01*
X63452000Y-170142819D02*
X63356762Y-170190438D01*
X63356762Y-170190438D02*
X63309143Y-170238057D01*
X63309143Y-170238057D02*
X63213905Y-170380914D01*
X63213905Y-170380914D02*
X63166286Y-170571390D01*
X63166286Y-170571390D02*
X63166286Y-170952342D01*
X63166286Y-170952342D02*
X63213905Y-171047580D01*
X63213905Y-171047580D02*
X63261524Y-171095200D01*
X63261524Y-171095200D02*
X63356762Y-171142819D01*
X63356762Y-171142819D02*
X63547238Y-171142819D01*
X63547238Y-171142819D02*
X63642476Y-171095200D01*
X63642476Y-171095200D02*
X63690095Y-171047580D01*
X63690095Y-171047580D02*
X63737714Y-170952342D01*
X63737714Y-170952342D02*
X63737714Y-170714247D01*
X63737714Y-170714247D02*
X63690095Y-170619009D01*
X63690095Y-170619009D02*
X63642476Y-170571390D01*
X63642476Y-170571390D02*
X63547238Y-170523771D01*
X63547238Y-170523771D02*
X63356762Y-170523771D01*
X63356762Y-170523771D02*
X63261524Y-170571390D01*
X63261524Y-170571390D02*
X63213905Y-170619009D01*
X63213905Y-170619009D02*
X63166286Y-170714247D01*
X58874819Y-130897238D02*
X58398628Y-131230571D01*
X58874819Y-131468666D02*
X57874819Y-131468666D01*
X57874819Y-131468666D02*
X57874819Y-131087714D01*
X57874819Y-131087714D02*
X57922438Y-130992476D01*
X57922438Y-130992476D02*
X57970057Y-130944857D01*
X57970057Y-130944857D02*
X58065295Y-130897238D01*
X58065295Y-130897238D02*
X58208152Y-130897238D01*
X58208152Y-130897238D02*
X58303390Y-130944857D01*
X58303390Y-130944857D02*
X58351009Y-130992476D01*
X58351009Y-130992476D02*
X58398628Y-131087714D01*
X58398628Y-131087714D02*
X58398628Y-131468666D01*
X57874819Y-130611523D02*
X58874819Y-130278190D01*
X58874819Y-130278190D02*
X57874819Y-129944857D01*
X57874819Y-129182952D02*
X57874819Y-129373428D01*
X57874819Y-129373428D02*
X57922438Y-129468666D01*
X57922438Y-129468666D02*
X57970057Y-129516285D01*
X57970057Y-129516285D02*
X58112914Y-129611523D01*
X58112914Y-129611523D02*
X58303390Y-129659142D01*
X58303390Y-129659142D02*
X58684342Y-129659142D01*
X58684342Y-129659142D02*
X58779580Y-129611523D01*
X58779580Y-129611523D02*
X58827200Y-129563904D01*
X58827200Y-129563904D02*
X58874819Y-129468666D01*
X58874819Y-129468666D02*
X58874819Y-129278190D01*
X58874819Y-129278190D02*
X58827200Y-129182952D01*
X58827200Y-129182952D02*
X58779580Y-129135333D01*
X58779580Y-129135333D02*
X58684342Y-129087714D01*
X58684342Y-129087714D02*
X58446247Y-129087714D01*
X58446247Y-129087714D02*
X58351009Y-129135333D01*
X58351009Y-129135333D02*
X58303390Y-129182952D01*
X58303390Y-129182952D02*
X58255771Y-129278190D01*
X58255771Y-129278190D02*
X58255771Y-129468666D01*
X58255771Y-129468666D02*
X58303390Y-129563904D01*
X58303390Y-129563904D02*
X58351009Y-129611523D01*
X58351009Y-129611523D02*
X58446247Y-129659142D01*
X48619580Y-175862857D02*
X48667200Y-175910476D01*
X48667200Y-175910476D02*
X48714819Y-176053333D01*
X48714819Y-176053333D02*
X48714819Y-176148571D01*
X48714819Y-176148571D02*
X48667200Y-176291428D01*
X48667200Y-176291428D02*
X48571961Y-176386666D01*
X48571961Y-176386666D02*
X48476723Y-176434285D01*
X48476723Y-176434285D02*
X48286247Y-176481904D01*
X48286247Y-176481904D02*
X48143390Y-176481904D01*
X48143390Y-176481904D02*
X47952914Y-176434285D01*
X47952914Y-176434285D02*
X47857676Y-176386666D01*
X47857676Y-176386666D02*
X47762438Y-176291428D01*
X47762438Y-176291428D02*
X47714819Y-176148571D01*
X47714819Y-176148571D02*
X47714819Y-176053333D01*
X47714819Y-176053333D02*
X47762438Y-175910476D01*
X47762438Y-175910476D02*
X47810057Y-175862857D01*
X47810057Y-175481904D02*
X47762438Y-175434285D01*
X47762438Y-175434285D02*
X47714819Y-175339047D01*
X47714819Y-175339047D02*
X47714819Y-175100952D01*
X47714819Y-175100952D02*
X47762438Y-175005714D01*
X47762438Y-175005714D02*
X47810057Y-174958095D01*
X47810057Y-174958095D02*
X47905295Y-174910476D01*
X47905295Y-174910476D02*
X48000533Y-174910476D01*
X48000533Y-174910476D02*
X48143390Y-174958095D01*
X48143390Y-174958095D02*
X48714819Y-175529523D01*
X48714819Y-175529523D02*
X48714819Y-174910476D01*
X47810057Y-174529523D02*
X47762438Y-174481904D01*
X47762438Y-174481904D02*
X47714819Y-174386666D01*
X47714819Y-174386666D02*
X47714819Y-174148571D01*
X47714819Y-174148571D02*
X47762438Y-174053333D01*
X47762438Y-174053333D02*
X47810057Y-174005714D01*
X47810057Y-174005714D02*
X47905295Y-173958095D01*
X47905295Y-173958095D02*
X48000533Y-173958095D01*
X48000533Y-173958095D02*
X48143390Y-174005714D01*
X48143390Y-174005714D02*
X48714819Y-174577142D01*
X48714819Y-174577142D02*
X48714819Y-173958095D01*
X31442819Y-179712857D02*
X30966628Y-180046190D01*
X31442819Y-180284285D02*
X30442819Y-180284285D01*
X30442819Y-180284285D02*
X30442819Y-179903333D01*
X30442819Y-179903333D02*
X30490438Y-179808095D01*
X30490438Y-179808095D02*
X30538057Y-179760476D01*
X30538057Y-179760476D02*
X30633295Y-179712857D01*
X30633295Y-179712857D02*
X30776152Y-179712857D01*
X30776152Y-179712857D02*
X30871390Y-179760476D01*
X30871390Y-179760476D02*
X30919009Y-179808095D01*
X30919009Y-179808095D02*
X30966628Y-179903333D01*
X30966628Y-179903333D02*
X30966628Y-180284285D01*
X30776152Y-178855714D02*
X31442819Y-178855714D01*
X30395200Y-179093809D02*
X31109485Y-179331904D01*
X31109485Y-179331904D02*
X31109485Y-178712857D01*
X30442819Y-177903333D02*
X30442819Y-178093809D01*
X30442819Y-178093809D02*
X30490438Y-178189047D01*
X30490438Y-178189047D02*
X30538057Y-178236666D01*
X30538057Y-178236666D02*
X30680914Y-178331904D01*
X30680914Y-178331904D02*
X30871390Y-178379523D01*
X30871390Y-178379523D02*
X31252342Y-178379523D01*
X31252342Y-178379523D02*
X31347580Y-178331904D01*
X31347580Y-178331904D02*
X31395200Y-178284285D01*
X31395200Y-178284285D02*
X31442819Y-178189047D01*
X31442819Y-178189047D02*
X31442819Y-177998571D01*
X31442819Y-177998571D02*
X31395200Y-177903333D01*
X31395200Y-177903333D02*
X31347580Y-177855714D01*
X31347580Y-177855714D02*
X31252342Y-177808095D01*
X31252342Y-177808095D02*
X31014247Y-177808095D01*
X31014247Y-177808095D02*
X30919009Y-177855714D01*
X30919009Y-177855714D02*
X30871390Y-177903333D01*
X30871390Y-177903333D02*
X30823771Y-177998571D01*
X30823771Y-177998571D02*
X30823771Y-178189047D01*
X30823771Y-178189047D02*
X30871390Y-178284285D01*
X30871390Y-178284285D02*
X30919009Y-178331904D01*
X30919009Y-178331904D02*
X31014247Y-178379523D01*
X65383580Y-145922666D02*
X65431200Y-145970285D01*
X65431200Y-145970285D02*
X65478819Y-146113142D01*
X65478819Y-146113142D02*
X65478819Y-146208380D01*
X65478819Y-146208380D02*
X65431200Y-146351237D01*
X65431200Y-146351237D02*
X65335961Y-146446475D01*
X65335961Y-146446475D02*
X65240723Y-146494094D01*
X65240723Y-146494094D02*
X65050247Y-146541713D01*
X65050247Y-146541713D02*
X64907390Y-146541713D01*
X64907390Y-146541713D02*
X64716914Y-146494094D01*
X64716914Y-146494094D02*
X64621676Y-146446475D01*
X64621676Y-146446475D02*
X64526438Y-146351237D01*
X64526438Y-146351237D02*
X64478819Y-146208380D01*
X64478819Y-146208380D02*
X64478819Y-146113142D01*
X64478819Y-146113142D02*
X64526438Y-145970285D01*
X64526438Y-145970285D02*
X64574057Y-145922666D01*
X64574057Y-145541713D02*
X64526438Y-145494094D01*
X64526438Y-145494094D02*
X64478819Y-145398856D01*
X64478819Y-145398856D02*
X64478819Y-145160761D01*
X64478819Y-145160761D02*
X64526438Y-145065523D01*
X64526438Y-145065523D02*
X64574057Y-145017904D01*
X64574057Y-145017904D02*
X64669295Y-144970285D01*
X64669295Y-144970285D02*
X64764533Y-144970285D01*
X64764533Y-144970285D02*
X64907390Y-145017904D01*
X64907390Y-145017904D02*
X65478819Y-145589332D01*
X65478819Y-145589332D02*
X65478819Y-144970285D01*
X71961142Y-50111819D02*
X71627809Y-49635628D01*
X71389714Y-50111819D02*
X71389714Y-49111819D01*
X71389714Y-49111819D02*
X71770666Y-49111819D01*
X71770666Y-49111819D02*
X71865904Y-49159438D01*
X71865904Y-49159438D02*
X71913523Y-49207057D01*
X71913523Y-49207057D02*
X71961142Y-49302295D01*
X71961142Y-49302295D02*
X71961142Y-49445152D01*
X71961142Y-49445152D02*
X71913523Y-49540390D01*
X71913523Y-49540390D02*
X71865904Y-49588009D01*
X71865904Y-49588009D02*
X71770666Y-49635628D01*
X71770666Y-49635628D02*
X71389714Y-49635628D01*
X72294476Y-49111819D02*
X72913523Y-49111819D01*
X72913523Y-49111819D02*
X72580190Y-49492771D01*
X72580190Y-49492771D02*
X72723047Y-49492771D01*
X72723047Y-49492771D02*
X72818285Y-49540390D01*
X72818285Y-49540390D02*
X72865904Y-49588009D01*
X72865904Y-49588009D02*
X72913523Y-49683247D01*
X72913523Y-49683247D02*
X72913523Y-49921342D01*
X72913523Y-49921342D02*
X72865904Y-50016580D01*
X72865904Y-50016580D02*
X72818285Y-50064200D01*
X72818285Y-50064200D02*
X72723047Y-50111819D01*
X72723047Y-50111819D02*
X72437333Y-50111819D01*
X72437333Y-50111819D02*
X72342095Y-50064200D01*
X72342095Y-50064200D02*
X72294476Y-50016580D01*
X73246857Y-49111819D02*
X73913523Y-49111819D01*
X73913523Y-49111819D02*
X73484952Y-50111819D01*
X85979333Y-154886819D02*
X85646000Y-154410628D01*
X85407905Y-154886819D02*
X85407905Y-153886819D01*
X85407905Y-153886819D02*
X85788857Y-153886819D01*
X85788857Y-153886819D02*
X85884095Y-153934438D01*
X85884095Y-153934438D02*
X85931714Y-153982057D01*
X85931714Y-153982057D02*
X85979333Y-154077295D01*
X85979333Y-154077295D02*
X85979333Y-154220152D01*
X85979333Y-154220152D02*
X85931714Y-154315390D01*
X85931714Y-154315390D02*
X85884095Y-154363009D01*
X85884095Y-154363009D02*
X85788857Y-154410628D01*
X85788857Y-154410628D02*
X85407905Y-154410628D01*
X86836476Y-153886819D02*
X86646000Y-153886819D01*
X86646000Y-153886819D02*
X86550762Y-153934438D01*
X86550762Y-153934438D02*
X86503143Y-153982057D01*
X86503143Y-153982057D02*
X86407905Y-154124914D01*
X86407905Y-154124914D02*
X86360286Y-154315390D01*
X86360286Y-154315390D02*
X86360286Y-154696342D01*
X86360286Y-154696342D02*
X86407905Y-154791580D01*
X86407905Y-154791580D02*
X86455524Y-154839200D01*
X86455524Y-154839200D02*
X86550762Y-154886819D01*
X86550762Y-154886819D02*
X86741238Y-154886819D01*
X86741238Y-154886819D02*
X86836476Y-154839200D01*
X86836476Y-154839200D02*
X86884095Y-154791580D01*
X86884095Y-154791580D02*
X86931714Y-154696342D01*
X86931714Y-154696342D02*
X86931714Y-154458247D01*
X86931714Y-154458247D02*
X86884095Y-154363009D01*
X86884095Y-154363009D02*
X86836476Y-154315390D01*
X86836476Y-154315390D02*
X86741238Y-154267771D01*
X86741238Y-154267771D02*
X86550762Y-154267771D01*
X86550762Y-154267771D02*
X86455524Y-154315390D01*
X86455524Y-154315390D02*
X86407905Y-154363009D01*
X86407905Y-154363009D02*
X86360286Y-154458247D01*
X57348571Y-56334819D02*
X57015238Y-55858628D01*
X56777143Y-56334819D02*
X56777143Y-55334819D01*
X56777143Y-55334819D02*
X57158095Y-55334819D01*
X57158095Y-55334819D02*
X57253333Y-55382438D01*
X57253333Y-55382438D02*
X57300952Y-55430057D01*
X57300952Y-55430057D02*
X57348571Y-55525295D01*
X57348571Y-55525295D02*
X57348571Y-55668152D01*
X57348571Y-55668152D02*
X57300952Y-55763390D01*
X57300952Y-55763390D02*
X57253333Y-55811009D01*
X57253333Y-55811009D02*
X57158095Y-55858628D01*
X57158095Y-55858628D02*
X56777143Y-55858628D01*
X57634286Y-55334819D02*
X57967619Y-56334819D01*
X57967619Y-56334819D02*
X58300952Y-55334819D01*
X59158095Y-56334819D02*
X58586667Y-56334819D01*
X58872381Y-56334819D02*
X58872381Y-55334819D01*
X58872381Y-55334819D02*
X58777143Y-55477676D01*
X58777143Y-55477676D02*
X58681905Y-55572914D01*
X58681905Y-55572914D02*
X58586667Y-55620533D01*
X60110476Y-56334819D02*
X59539048Y-56334819D01*
X59824762Y-56334819D02*
X59824762Y-55334819D01*
X59824762Y-55334819D02*
X59729524Y-55477676D01*
X59729524Y-55477676D02*
X59634286Y-55572914D01*
X59634286Y-55572914D02*
X59539048Y-55620533D01*
X77416819Y-75826857D02*
X76940628Y-76160190D01*
X77416819Y-76398285D02*
X76416819Y-76398285D01*
X76416819Y-76398285D02*
X76416819Y-76017333D01*
X76416819Y-76017333D02*
X76464438Y-75922095D01*
X76464438Y-75922095D02*
X76512057Y-75874476D01*
X76512057Y-75874476D02*
X76607295Y-75826857D01*
X76607295Y-75826857D02*
X76750152Y-75826857D01*
X76750152Y-75826857D02*
X76845390Y-75874476D01*
X76845390Y-75874476D02*
X76893009Y-75922095D01*
X76893009Y-75922095D02*
X76940628Y-76017333D01*
X76940628Y-76017333D02*
X76940628Y-76398285D01*
X76512057Y-75445904D02*
X76464438Y-75398285D01*
X76464438Y-75398285D02*
X76416819Y-75303047D01*
X76416819Y-75303047D02*
X76416819Y-75064952D01*
X76416819Y-75064952D02*
X76464438Y-74969714D01*
X76464438Y-74969714D02*
X76512057Y-74922095D01*
X76512057Y-74922095D02*
X76607295Y-74874476D01*
X76607295Y-74874476D02*
X76702533Y-74874476D01*
X76702533Y-74874476D02*
X76845390Y-74922095D01*
X76845390Y-74922095D02*
X77416819Y-75493523D01*
X77416819Y-75493523D02*
X77416819Y-74874476D01*
X76845390Y-74303047D02*
X76797771Y-74398285D01*
X76797771Y-74398285D02*
X76750152Y-74445904D01*
X76750152Y-74445904D02*
X76654914Y-74493523D01*
X76654914Y-74493523D02*
X76607295Y-74493523D01*
X76607295Y-74493523D02*
X76512057Y-74445904D01*
X76512057Y-74445904D02*
X76464438Y-74398285D01*
X76464438Y-74398285D02*
X76416819Y-74303047D01*
X76416819Y-74303047D02*
X76416819Y-74112571D01*
X76416819Y-74112571D02*
X76464438Y-74017333D01*
X76464438Y-74017333D02*
X76512057Y-73969714D01*
X76512057Y-73969714D02*
X76607295Y-73922095D01*
X76607295Y-73922095D02*
X76654914Y-73922095D01*
X76654914Y-73922095D02*
X76750152Y-73969714D01*
X76750152Y-73969714D02*
X76797771Y-74017333D01*
X76797771Y-74017333D02*
X76845390Y-74112571D01*
X76845390Y-74112571D02*
X76845390Y-74303047D01*
X76845390Y-74303047D02*
X76893009Y-74398285D01*
X76893009Y-74398285D02*
X76940628Y-74445904D01*
X76940628Y-74445904D02*
X77035866Y-74493523D01*
X77035866Y-74493523D02*
X77226342Y-74493523D01*
X77226342Y-74493523D02*
X77321580Y-74445904D01*
X77321580Y-74445904D02*
X77369200Y-74398285D01*
X77369200Y-74398285D02*
X77416819Y-74303047D01*
X77416819Y-74303047D02*
X77416819Y-74112571D01*
X77416819Y-74112571D02*
X77369200Y-74017333D01*
X77369200Y-74017333D02*
X77321580Y-73969714D01*
X77321580Y-73969714D02*
X77226342Y-73922095D01*
X77226342Y-73922095D02*
X77035866Y-73922095D01*
X77035866Y-73922095D02*
X76940628Y-73969714D01*
X76940628Y-73969714D02*
X76893009Y-74017333D01*
X76893009Y-74017333D02*
X76845390Y-74112571D01*
X83685142Y-37792819D02*
X83351809Y-37316628D01*
X83113714Y-37792819D02*
X83113714Y-36792819D01*
X83113714Y-36792819D02*
X83494666Y-36792819D01*
X83494666Y-36792819D02*
X83589904Y-36840438D01*
X83589904Y-36840438D02*
X83637523Y-36888057D01*
X83637523Y-36888057D02*
X83685142Y-36983295D01*
X83685142Y-36983295D02*
X83685142Y-37126152D01*
X83685142Y-37126152D02*
X83637523Y-37221390D01*
X83637523Y-37221390D02*
X83589904Y-37269009D01*
X83589904Y-37269009D02*
X83494666Y-37316628D01*
X83494666Y-37316628D02*
X83113714Y-37316628D01*
X84018476Y-36792819D02*
X84637523Y-36792819D01*
X84637523Y-36792819D02*
X84304190Y-37173771D01*
X84304190Y-37173771D02*
X84447047Y-37173771D01*
X84447047Y-37173771D02*
X84542285Y-37221390D01*
X84542285Y-37221390D02*
X84589904Y-37269009D01*
X84589904Y-37269009D02*
X84637523Y-37364247D01*
X84637523Y-37364247D02*
X84637523Y-37602342D01*
X84637523Y-37602342D02*
X84589904Y-37697580D01*
X84589904Y-37697580D02*
X84542285Y-37745200D01*
X84542285Y-37745200D02*
X84447047Y-37792819D01*
X84447047Y-37792819D02*
X84161333Y-37792819D01*
X84161333Y-37792819D02*
X84066095Y-37745200D01*
X84066095Y-37745200D02*
X84018476Y-37697580D01*
X85113714Y-37792819D02*
X85304190Y-37792819D01*
X85304190Y-37792819D02*
X85399428Y-37745200D01*
X85399428Y-37745200D02*
X85447047Y-37697580D01*
X85447047Y-37697580D02*
X85542285Y-37554723D01*
X85542285Y-37554723D02*
X85589904Y-37364247D01*
X85589904Y-37364247D02*
X85589904Y-36983295D01*
X85589904Y-36983295D02*
X85542285Y-36888057D01*
X85542285Y-36888057D02*
X85494666Y-36840438D01*
X85494666Y-36840438D02*
X85399428Y-36792819D01*
X85399428Y-36792819D02*
X85208952Y-36792819D01*
X85208952Y-36792819D02*
X85113714Y-36840438D01*
X85113714Y-36840438D02*
X85066095Y-36888057D01*
X85066095Y-36888057D02*
X85018476Y-36983295D01*
X85018476Y-36983295D02*
X85018476Y-37221390D01*
X85018476Y-37221390D02*
X85066095Y-37316628D01*
X85066095Y-37316628D02*
X85113714Y-37364247D01*
X85113714Y-37364247D02*
X85208952Y-37411866D01*
X85208952Y-37411866D02*
X85399428Y-37411866D01*
X85399428Y-37411866D02*
X85494666Y-37364247D01*
X85494666Y-37364247D02*
X85542285Y-37316628D01*
X85542285Y-37316628D02*
X85589904Y-37221390D01*
X69516666Y-191478819D02*
X69516666Y-192193104D01*
X69516666Y-192193104D02*
X69469047Y-192335961D01*
X69469047Y-192335961D02*
X69373809Y-192431200D01*
X69373809Y-192431200D02*
X69230952Y-192478819D01*
X69230952Y-192478819D02*
X69135714Y-192478819D01*
X70516666Y-192478819D02*
X69945238Y-192478819D01*
X70230952Y-192478819D02*
X70230952Y-191478819D01*
X70230952Y-191478819D02*
X70135714Y-191621676D01*
X70135714Y-191621676D02*
X70040476Y-191716914D01*
X70040476Y-191716914D02*
X69945238Y-191764533D01*
X81988819Y-165266666D02*
X81512628Y-165599999D01*
X81988819Y-165838094D02*
X80988819Y-165838094D01*
X80988819Y-165838094D02*
X80988819Y-165457142D01*
X80988819Y-165457142D02*
X81036438Y-165361904D01*
X81036438Y-165361904D02*
X81084057Y-165314285D01*
X81084057Y-165314285D02*
X81179295Y-165266666D01*
X81179295Y-165266666D02*
X81322152Y-165266666D01*
X81322152Y-165266666D02*
X81417390Y-165314285D01*
X81417390Y-165314285D02*
X81465009Y-165361904D01*
X81465009Y-165361904D02*
X81512628Y-165457142D01*
X81512628Y-165457142D02*
X81512628Y-165838094D01*
X80988819Y-164361904D02*
X80988819Y-164838094D01*
X80988819Y-164838094D02*
X81465009Y-164885713D01*
X81465009Y-164885713D02*
X81417390Y-164838094D01*
X81417390Y-164838094D02*
X81369771Y-164742856D01*
X81369771Y-164742856D02*
X81369771Y-164504761D01*
X81369771Y-164504761D02*
X81417390Y-164409523D01*
X81417390Y-164409523D02*
X81465009Y-164361904D01*
X81465009Y-164361904D02*
X81560247Y-164314285D01*
X81560247Y-164314285D02*
X81798342Y-164314285D01*
X81798342Y-164314285D02*
X81893580Y-164361904D01*
X81893580Y-164361904D02*
X81941200Y-164409523D01*
X81941200Y-164409523D02*
X81988819Y-164504761D01*
X81988819Y-164504761D02*
X81988819Y-164742856D01*
X81988819Y-164742856D02*
X81941200Y-164838094D01*
X81941200Y-164838094D02*
X81893580Y-164885713D01*
X65129580Y-164036666D02*
X65177200Y-164084285D01*
X65177200Y-164084285D02*
X65224819Y-164227142D01*
X65224819Y-164227142D02*
X65224819Y-164322380D01*
X65224819Y-164322380D02*
X65177200Y-164465237D01*
X65177200Y-164465237D02*
X65081961Y-164560475D01*
X65081961Y-164560475D02*
X64986723Y-164608094D01*
X64986723Y-164608094D02*
X64796247Y-164655713D01*
X64796247Y-164655713D02*
X64653390Y-164655713D01*
X64653390Y-164655713D02*
X64462914Y-164608094D01*
X64462914Y-164608094D02*
X64367676Y-164560475D01*
X64367676Y-164560475D02*
X64272438Y-164465237D01*
X64272438Y-164465237D02*
X64224819Y-164322380D01*
X64224819Y-164322380D02*
X64224819Y-164227142D01*
X64224819Y-164227142D02*
X64272438Y-164084285D01*
X64272438Y-164084285D02*
X64320057Y-164036666D01*
X65224819Y-163084285D02*
X65224819Y-163655713D01*
X65224819Y-163369999D02*
X64224819Y-163369999D01*
X64224819Y-163369999D02*
X64367676Y-163465237D01*
X64367676Y-163465237D02*
X64462914Y-163560475D01*
X64462914Y-163560475D02*
X64510533Y-163655713D01*
X84955142Y-41602819D02*
X84621809Y-41126628D01*
X84383714Y-41602819D02*
X84383714Y-40602819D01*
X84383714Y-40602819D02*
X84764666Y-40602819D01*
X84764666Y-40602819D02*
X84859904Y-40650438D01*
X84859904Y-40650438D02*
X84907523Y-40698057D01*
X84907523Y-40698057D02*
X84955142Y-40793295D01*
X84955142Y-40793295D02*
X84955142Y-40936152D01*
X84955142Y-40936152D02*
X84907523Y-41031390D01*
X84907523Y-41031390D02*
X84859904Y-41079009D01*
X84859904Y-41079009D02*
X84764666Y-41126628D01*
X84764666Y-41126628D02*
X84383714Y-41126628D01*
X85288476Y-40602819D02*
X85907523Y-40602819D01*
X85907523Y-40602819D02*
X85574190Y-40983771D01*
X85574190Y-40983771D02*
X85717047Y-40983771D01*
X85717047Y-40983771D02*
X85812285Y-41031390D01*
X85812285Y-41031390D02*
X85859904Y-41079009D01*
X85859904Y-41079009D02*
X85907523Y-41174247D01*
X85907523Y-41174247D02*
X85907523Y-41412342D01*
X85907523Y-41412342D02*
X85859904Y-41507580D01*
X85859904Y-41507580D02*
X85812285Y-41555200D01*
X85812285Y-41555200D02*
X85717047Y-41602819D01*
X85717047Y-41602819D02*
X85431333Y-41602819D01*
X85431333Y-41602819D02*
X85336095Y-41555200D01*
X85336095Y-41555200D02*
X85288476Y-41507580D01*
X86812285Y-40602819D02*
X86336095Y-40602819D01*
X86336095Y-40602819D02*
X86288476Y-41079009D01*
X86288476Y-41079009D02*
X86336095Y-41031390D01*
X86336095Y-41031390D02*
X86431333Y-40983771D01*
X86431333Y-40983771D02*
X86669428Y-40983771D01*
X86669428Y-40983771D02*
X86764666Y-41031390D01*
X86764666Y-41031390D02*
X86812285Y-41079009D01*
X86812285Y-41079009D02*
X86859904Y-41174247D01*
X86859904Y-41174247D02*
X86859904Y-41412342D01*
X86859904Y-41412342D02*
X86812285Y-41507580D01*
X86812285Y-41507580D02*
X86764666Y-41555200D01*
X86764666Y-41555200D02*
X86669428Y-41602819D01*
X86669428Y-41602819D02*
X86431333Y-41602819D01*
X86431333Y-41602819D02*
X86336095Y-41555200D01*
X86336095Y-41555200D02*
X86288476Y-41507580D01*
X57610142Y-37570580D02*
X57562523Y-37618200D01*
X57562523Y-37618200D02*
X57419666Y-37665819D01*
X57419666Y-37665819D02*
X57324428Y-37665819D01*
X57324428Y-37665819D02*
X57181571Y-37618200D01*
X57181571Y-37618200D02*
X57086333Y-37522961D01*
X57086333Y-37522961D02*
X57038714Y-37427723D01*
X57038714Y-37427723D02*
X56991095Y-37237247D01*
X56991095Y-37237247D02*
X56991095Y-37094390D01*
X56991095Y-37094390D02*
X57038714Y-36903914D01*
X57038714Y-36903914D02*
X57086333Y-36808676D01*
X57086333Y-36808676D02*
X57181571Y-36713438D01*
X57181571Y-36713438D02*
X57324428Y-36665819D01*
X57324428Y-36665819D02*
X57419666Y-36665819D01*
X57419666Y-36665819D02*
X57562523Y-36713438D01*
X57562523Y-36713438D02*
X57610142Y-36761057D01*
X57991095Y-36761057D02*
X58038714Y-36713438D01*
X58038714Y-36713438D02*
X58133952Y-36665819D01*
X58133952Y-36665819D02*
X58372047Y-36665819D01*
X58372047Y-36665819D02*
X58467285Y-36713438D01*
X58467285Y-36713438D02*
X58514904Y-36761057D01*
X58514904Y-36761057D02*
X58562523Y-36856295D01*
X58562523Y-36856295D02*
X58562523Y-36951533D01*
X58562523Y-36951533D02*
X58514904Y-37094390D01*
X58514904Y-37094390D02*
X57943476Y-37665819D01*
X57943476Y-37665819D02*
X58562523Y-37665819D01*
X59181571Y-36665819D02*
X59276809Y-36665819D01*
X59276809Y-36665819D02*
X59372047Y-36713438D01*
X59372047Y-36713438D02*
X59419666Y-36761057D01*
X59419666Y-36761057D02*
X59467285Y-36856295D01*
X59467285Y-36856295D02*
X59514904Y-37046771D01*
X59514904Y-37046771D02*
X59514904Y-37284866D01*
X59514904Y-37284866D02*
X59467285Y-37475342D01*
X59467285Y-37475342D02*
X59419666Y-37570580D01*
X59419666Y-37570580D02*
X59372047Y-37618200D01*
X59372047Y-37618200D02*
X59276809Y-37665819D01*
X59276809Y-37665819D02*
X59181571Y-37665819D01*
X59181571Y-37665819D02*
X59086333Y-37618200D01*
X59086333Y-37618200D02*
X59038714Y-37570580D01*
X59038714Y-37570580D02*
X58991095Y-37475342D01*
X58991095Y-37475342D02*
X58943476Y-37284866D01*
X58943476Y-37284866D02*
X58943476Y-37046771D01*
X58943476Y-37046771D02*
X58991095Y-36856295D01*
X58991095Y-36856295D02*
X59038714Y-36761057D01*
X59038714Y-36761057D02*
X59086333Y-36713438D01*
X59086333Y-36713438D02*
X59181571Y-36665819D01*
X79956819Y-98392857D02*
X79480628Y-98726190D01*
X79956819Y-98964285D02*
X78956819Y-98964285D01*
X78956819Y-98964285D02*
X78956819Y-98583333D01*
X78956819Y-98583333D02*
X79004438Y-98488095D01*
X79004438Y-98488095D02*
X79052057Y-98440476D01*
X79052057Y-98440476D02*
X79147295Y-98392857D01*
X79147295Y-98392857D02*
X79290152Y-98392857D01*
X79290152Y-98392857D02*
X79385390Y-98440476D01*
X79385390Y-98440476D02*
X79433009Y-98488095D01*
X79433009Y-98488095D02*
X79480628Y-98583333D01*
X79480628Y-98583333D02*
X79480628Y-98964285D01*
X79052057Y-98011904D02*
X79004438Y-97964285D01*
X79004438Y-97964285D02*
X78956819Y-97869047D01*
X78956819Y-97869047D02*
X78956819Y-97630952D01*
X78956819Y-97630952D02*
X79004438Y-97535714D01*
X79004438Y-97535714D02*
X79052057Y-97488095D01*
X79052057Y-97488095D02*
X79147295Y-97440476D01*
X79147295Y-97440476D02*
X79242533Y-97440476D01*
X79242533Y-97440476D02*
X79385390Y-97488095D01*
X79385390Y-97488095D02*
X79956819Y-98059523D01*
X79956819Y-98059523D02*
X79956819Y-97440476D01*
X78956819Y-96821428D02*
X78956819Y-96726190D01*
X78956819Y-96726190D02*
X79004438Y-96630952D01*
X79004438Y-96630952D02*
X79052057Y-96583333D01*
X79052057Y-96583333D02*
X79147295Y-96535714D01*
X79147295Y-96535714D02*
X79337771Y-96488095D01*
X79337771Y-96488095D02*
X79575866Y-96488095D01*
X79575866Y-96488095D02*
X79766342Y-96535714D01*
X79766342Y-96535714D02*
X79861580Y-96583333D01*
X79861580Y-96583333D02*
X79909200Y-96630952D01*
X79909200Y-96630952D02*
X79956819Y-96726190D01*
X79956819Y-96726190D02*
X79956819Y-96821428D01*
X79956819Y-96821428D02*
X79909200Y-96916666D01*
X79909200Y-96916666D02*
X79861580Y-96964285D01*
X79861580Y-96964285D02*
X79766342Y-97011904D01*
X79766342Y-97011904D02*
X79575866Y-97059523D01*
X79575866Y-97059523D02*
X79337771Y-97059523D01*
X79337771Y-97059523D02*
X79147295Y-97011904D01*
X79147295Y-97011904D02*
X79052057Y-96964285D01*
X79052057Y-96964285D02*
X79004438Y-96916666D01*
X79004438Y-96916666D02*
X78956819Y-96821428D01*
X71882095Y-164559819D02*
X71882095Y-165369342D01*
X71882095Y-165369342D02*
X71929714Y-165464580D01*
X71929714Y-165464580D02*
X71977333Y-165512200D01*
X71977333Y-165512200D02*
X72072571Y-165559819D01*
X72072571Y-165559819D02*
X72263047Y-165559819D01*
X72263047Y-165559819D02*
X72358285Y-165512200D01*
X72358285Y-165512200D02*
X72405904Y-165464580D01*
X72405904Y-165464580D02*
X72453523Y-165369342D01*
X72453523Y-165369342D02*
X72453523Y-164559819D01*
X73453523Y-165559819D02*
X72882095Y-165559819D01*
X73167809Y-165559819D02*
X73167809Y-164559819D01*
X73167809Y-164559819D02*
X73072571Y-164702676D01*
X73072571Y-164702676D02*
X72977333Y-164797914D01*
X72977333Y-164797914D02*
X72882095Y-164845533D01*
X69088095Y-89878819D02*
X69088095Y-90688342D01*
X69088095Y-90688342D02*
X69135714Y-90783580D01*
X69135714Y-90783580D02*
X69183333Y-90831200D01*
X69183333Y-90831200D02*
X69278571Y-90878819D01*
X69278571Y-90878819D02*
X69469047Y-90878819D01*
X69469047Y-90878819D02*
X69564285Y-90831200D01*
X69564285Y-90831200D02*
X69611904Y-90783580D01*
X69611904Y-90783580D02*
X69659523Y-90688342D01*
X69659523Y-90688342D02*
X69659523Y-89878819D01*
X70611904Y-89878819D02*
X70135714Y-89878819D01*
X70135714Y-89878819D02*
X70088095Y-90355009D01*
X70088095Y-90355009D02*
X70135714Y-90307390D01*
X70135714Y-90307390D02*
X70230952Y-90259771D01*
X70230952Y-90259771D02*
X70469047Y-90259771D01*
X70469047Y-90259771D02*
X70564285Y-90307390D01*
X70564285Y-90307390D02*
X70611904Y-90355009D01*
X70611904Y-90355009D02*
X70659523Y-90450247D01*
X70659523Y-90450247D02*
X70659523Y-90688342D01*
X70659523Y-90688342D02*
X70611904Y-90783580D01*
X70611904Y-90783580D02*
X70564285Y-90831200D01*
X70564285Y-90831200D02*
X70469047Y-90878819D01*
X70469047Y-90878819D02*
X70230952Y-90878819D01*
X70230952Y-90878819D02*
X70135714Y-90831200D01*
X70135714Y-90831200D02*
X70088095Y-90783580D01*
X76533142Y-29950580D02*
X76485523Y-29998200D01*
X76485523Y-29998200D02*
X76342666Y-30045819D01*
X76342666Y-30045819D02*
X76247428Y-30045819D01*
X76247428Y-30045819D02*
X76104571Y-29998200D01*
X76104571Y-29998200D02*
X76009333Y-29902961D01*
X76009333Y-29902961D02*
X75961714Y-29807723D01*
X75961714Y-29807723D02*
X75914095Y-29617247D01*
X75914095Y-29617247D02*
X75914095Y-29474390D01*
X75914095Y-29474390D02*
X75961714Y-29283914D01*
X75961714Y-29283914D02*
X76009333Y-29188676D01*
X76009333Y-29188676D02*
X76104571Y-29093438D01*
X76104571Y-29093438D02*
X76247428Y-29045819D01*
X76247428Y-29045819D02*
X76342666Y-29045819D01*
X76342666Y-29045819D02*
X76485523Y-29093438D01*
X76485523Y-29093438D02*
X76533142Y-29141057D01*
X76914095Y-29141057D02*
X76961714Y-29093438D01*
X76961714Y-29093438D02*
X77056952Y-29045819D01*
X77056952Y-29045819D02*
X77295047Y-29045819D01*
X77295047Y-29045819D02*
X77390285Y-29093438D01*
X77390285Y-29093438D02*
X77437904Y-29141057D01*
X77437904Y-29141057D02*
X77485523Y-29236295D01*
X77485523Y-29236295D02*
X77485523Y-29331533D01*
X77485523Y-29331533D02*
X77437904Y-29474390D01*
X77437904Y-29474390D02*
X76866476Y-30045819D01*
X76866476Y-30045819D02*
X77485523Y-30045819D01*
X78437904Y-30045819D02*
X77866476Y-30045819D01*
X78152190Y-30045819D02*
X78152190Y-29045819D01*
X78152190Y-29045819D02*
X78056952Y-29188676D01*
X78056952Y-29188676D02*
X77961714Y-29283914D01*
X77961714Y-29283914D02*
X77866476Y-29331533D01*
X78819142Y-105769580D02*
X78771523Y-105817200D01*
X78771523Y-105817200D02*
X78628666Y-105864819D01*
X78628666Y-105864819D02*
X78533428Y-105864819D01*
X78533428Y-105864819D02*
X78390571Y-105817200D01*
X78390571Y-105817200D02*
X78295333Y-105721961D01*
X78295333Y-105721961D02*
X78247714Y-105626723D01*
X78247714Y-105626723D02*
X78200095Y-105436247D01*
X78200095Y-105436247D02*
X78200095Y-105293390D01*
X78200095Y-105293390D02*
X78247714Y-105102914D01*
X78247714Y-105102914D02*
X78295333Y-105007676D01*
X78295333Y-105007676D02*
X78390571Y-104912438D01*
X78390571Y-104912438D02*
X78533428Y-104864819D01*
X78533428Y-104864819D02*
X78628666Y-104864819D01*
X78628666Y-104864819D02*
X78771523Y-104912438D01*
X78771523Y-104912438D02*
X78819142Y-104960057D01*
X79771523Y-105864819D02*
X79200095Y-105864819D01*
X79485809Y-105864819D02*
X79485809Y-104864819D01*
X79485809Y-104864819D02*
X79390571Y-105007676D01*
X79390571Y-105007676D02*
X79295333Y-105102914D01*
X79295333Y-105102914D02*
X79200095Y-105150533D01*
X80104857Y-104864819D02*
X80723904Y-104864819D01*
X80723904Y-104864819D02*
X80390571Y-105245771D01*
X80390571Y-105245771D02*
X80533428Y-105245771D01*
X80533428Y-105245771D02*
X80628666Y-105293390D01*
X80628666Y-105293390D02*
X80676285Y-105341009D01*
X80676285Y-105341009D02*
X80723904Y-105436247D01*
X80723904Y-105436247D02*
X80723904Y-105674342D01*
X80723904Y-105674342D02*
X80676285Y-105769580D01*
X80676285Y-105769580D02*
X80628666Y-105817200D01*
X80628666Y-105817200D02*
X80533428Y-105864819D01*
X80533428Y-105864819D02*
X80247714Y-105864819D01*
X80247714Y-105864819D02*
X80152476Y-105817200D01*
X80152476Y-105817200D02*
X80104857Y-105769580D01*
X80891142Y-60906819D02*
X80557809Y-60430628D01*
X80319714Y-60906819D02*
X80319714Y-59906819D01*
X80319714Y-59906819D02*
X80700666Y-59906819D01*
X80700666Y-59906819D02*
X80795904Y-59954438D01*
X80795904Y-59954438D02*
X80843523Y-60002057D01*
X80843523Y-60002057D02*
X80891142Y-60097295D01*
X80891142Y-60097295D02*
X80891142Y-60240152D01*
X80891142Y-60240152D02*
X80843523Y-60335390D01*
X80843523Y-60335390D02*
X80795904Y-60383009D01*
X80795904Y-60383009D02*
X80700666Y-60430628D01*
X80700666Y-60430628D02*
X80319714Y-60430628D01*
X81224476Y-59906819D02*
X81843523Y-59906819D01*
X81843523Y-59906819D02*
X81510190Y-60287771D01*
X81510190Y-60287771D02*
X81653047Y-60287771D01*
X81653047Y-60287771D02*
X81748285Y-60335390D01*
X81748285Y-60335390D02*
X81795904Y-60383009D01*
X81795904Y-60383009D02*
X81843523Y-60478247D01*
X81843523Y-60478247D02*
X81843523Y-60716342D01*
X81843523Y-60716342D02*
X81795904Y-60811580D01*
X81795904Y-60811580D02*
X81748285Y-60859200D01*
X81748285Y-60859200D02*
X81653047Y-60906819D01*
X81653047Y-60906819D02*
X81367333Y-60906819D01*
X81367333Y-60906819D02*
X81272095Y-60859200D01*
X81272095Y-60859200D02*
X81224476Y-60811580D01*
X82414952Y-60335390D02*
X82319714Y-60287771D01*
X82319714Y-60287771D02*
X82272095Y-60240152D01*
X82272095Y-60240152D02*
X82224476Y-60144914D01*
X82224476Y-60144914D02*
X82224476Y-60097295D01*
X82224476Y-60097295D02*
X82272095Y-60002057D01*
X82272095Y-60002057D02*
X82319714Y-59954438D01*
X82319714Y-59954438D02*
X82414952Y-59906819D01*
X82414952Y-59906819D02*
X82605428Y-59906819D01*
X82605428Y-59906819D02*
X82700666Y-59954438D01*
X82700666Y-59954438D02*
X82748285Y-60002057D01*
X82748285Y-60002057D02*
X82795904Y-60097295D01*
X82795904Y-60097295D02*
X82795904Y-60144914D01*
X82795904Y-60144914D02*
X82748285Y-60240152D01*
X82748285Y-60240152D02*
X82700666Y-60287771D01*
X82700666Y-60287771D02*
X82605428Y-60335390D01*
X82605428Y-60335390D02*
X82414952Y-60335390D01*
X82414952Y-60335390D02*
X82319714Y-60383009D01*
X82319714Y-60383009D02*
X82272095Y-60430628D01*
X82272095Y-60430628D02*
X82224476Y-60525866D01*
X82224476Y-60525866D02*
X82224476Y-60716342D01*
X82224476Y-60716342D02*
X82272095Y-60811580D01*
X82272095Y-60811580D02*
X82319714Y-60859200D01*
X82319714Y-60859200D02*
X82414952Y-60906819D01*
X82414952Y-60906819D02*
X82605428Y-60906819D01*
X82605428Y-60906819D02*
X82700666Y-60859200D01*
X82700666Y-60859200D02*
X82748285Y-60811580D01*
X82748285Y-60811580D02*
X82795904Y-60716342D01*
X82795904Y-60716342D02*
X82795904Y-60525866D01*
X82795904Y-60525866D02*
X82748285Y-60430628D01*
X82748285Y-60430628D02*
X82700666Y-60383009D01*
X82700666Y-60383009D02*
X82605428Y-60335390D01*
X55194200Y-102933332D02*
X55241819Y-102790475D01*
X55241819Y-102790475D02*
X55241819Y-102552380D01*
X55241819Y-102552380D02*
X55194200Y-102457142D01*
X55194200Y-102457142D02*
X55146580Y-102409523D01*
X55146580Y-102409523D02*
X55051342Y-102361904D01*
X55051342Y-102361904D02*
X54956104Y-102361904D01*
X54956104Y-102361904D02*
X54860866Y-102409523D01*
X54860866Y-102409523D02*
X54813247Y-102457142D01*
X54813247Y-102457142D02*
X54765628Y-102552380D01*
X54765628Y-102552380D02*
X54718009Y-102742856D01*
X54718009Y-102742856D02*
X54670390Y-102838094D01*
X54670390Y-102838094D02*
X54622771Y-102885713D01*
X54622771Y-102885713D02*
X54527533Y-102933332D01*
X54527533Y-102933332D02*
X54432295Y-102933332D01*
X54432295Y-102933332D02*
X54337057Y-102885713D01*
X54337057Y-102885713D02*
X54289438Y-102838094D01*
X54289438Y-102838094D02*
X54241819Y-102742856D01*
X54241819Y-102742856D02*
X54241819Y-102504761D01*
X54241819Y-102504761D02*
X54289438Y-102361904D01*
X54241819Y-102028570D02*
X55241819Y-101790475D01*
X55241819Y-101790475D02*
X54527533Y-101599999D01*
X54527533Y-101599999D02*
X55241819Y-101409523D01*
X55241819Y-101409523D02*
X54241819Y-101171428D01*
X55241819Y-100266666D02*
X55241819Y-100838094D01*
X55241819Y-100552380D02*
X54241819Y-100552380D01*
X54241819Y-100552380D02*
X54384676Y-100647618D01*
X54384676Y-100647618D02*
X54479914Y-100742856D01*
X54479914Y-100742856D02*
X54527533Y-100838094D01*
X55999142Y-175206819D02*
X55665809Y-174730628D01*
X55427714Y-175206819D02*
X55427714Y-174206819D01*
X55427714Y-174206819D02*
X55808666Y-174206819D01*
X55808666Y-174206819D02*
X55903904Y-174254438D01*
X55903904Y-174254438D02*
X55951523Y-174302057D01*
X55951523Y-174302057D02*
X55999142Y-174397295D01*
X55999142Y-174397295D02*
X55999142Y-174540152D01*
X55999142Y-174540152D02*
X55951523Y-174635390D01*
X55951523Y-174635390D02*
X55903904Y-174683009D01*
X55903904Y-174683009D02*
X55808666Y-174730628D01*
X55808666Y-174730628D02*
X55427714Y-174730628D01*
X56951523Y-175206819D02*
X56380095Y-175206819D01*
X56665809Y-175206819D02*
X56665809Y-174206819D01*
X56665809Y-174206819D02*
X56570571Y-174349676D01*
X56570571Y-174349676D02*
X56475333Y-174444914D01*
X56475333Y-174444914D02*
X56380095Y-174492533D01*
X57856285Y-174206819D02*
X57380095Y-174206819D01*
X57380095Y-174206819D02*
X57332476Y-174683009D01*
X57332476Y-174683009D02*
X57380095Y-174635390D01*
X57380095Y-174635390D02*
X57475333Y-174587771D01*
X57475333Y-174587771D02*
X57713428Y-174587771D01*
X57713428Y-174587771D02*
X57808666Y-174635390D01*
X57808666Y-174635390D02*
X57856285Y-174683009D01*
X57856285Y-174683009D02*
X57903904Y-174778247D01*
X57903904Y-174778247D02*
X57903904Y-175016342D01*
X57903904Y-175016342D02*
X57856285Y-175111580D01*
X57856285Y-175111580D02*
X57808666Y-175159200D01*
X57808666Y-175159200D02*
X57713428Y-175206819D01*
X57713428Y-175206819D02*
X57475333Y-175206819D01*
X57475333Y-175206819D02*
X57380095Y-175159200D01*
X57380095Y-175159200D02*
X57332476Y-175111580D01*
X80210819Y-74302857D02*
X79734628Y-74636190D01*
X80210819Y-74874285D02*
X79210819Y-74874285D01*
X79210819Y-74874285D02*
X79210819Y-74493333D01*
X79210819Y-74493333D02*
X79258438Y-74398095D01*
X79258438Y-74398095D02*
X79306057Y-74350476D01*
X79306057Y-74350476D02*
X79401295Y-74302857D01*
X79401295Y-74302857D02*
X79544152Y-74302857D01*
X79544152Y-74302857D02*
X79639390Y-74350476D01*
X79639390Y-74350476D02*
X79687009Y-74398095D01*
X79687009Y-74398095D02*
X79734628Y-74493333D01*
X79734628Y-74493333D02*
X79734628Y-74874285D01*
X79306057Y-73921904D02*
X79258438Y-73874285D01*
X79258438Y-73874285D02*
X79210819Y-73779047D01*
X79210819Y-73779047D02*
X79210819Y-73540952D01*
X79210819Y-73540952D02*
X79258438Y-73445714D01*
X79258438Y-73445714D02*
X79306057Y-73398095D01*
X79306057Y-73398095D02*
X79401295Y-73350476D01*
X79401295Y-73350476D02*
X79496533Y-73350476D01*
X79496533Y-73350476D02*
X79639390Y-73398095D01*
X79639390Y-73398095D02*
X80210819Y-73969523D01*
X80210819Y-73969523D02*
X80210819Y-73350476D01*
X80210819Y-72874285D02*
X80210819Y-72683809D01*
X80210819Y-72683809D02*
X80163200Y-72588571D01*
X80163200Y-72588571D02*
X80115580Y-72540952D01*
X80115580Y-72540952D02*
X79972723Y-72445714D01*
X79972723Y-72445714D02*
X79782247Y-72398095D01*
X79782247Y-72398095D02*
X79401295Y-72398095D01*
X79401295Y-72398095D02*
X79306057Y-72445714D01*
X79306057Y-72445714D02*
X79258438Y-72493333D01*
X79258438Y-72493333D02*
X79210819Y-72588571D01*
X79210819Y-72588571D02*
X79210819Y-72779047D01*
X79210819Y-72779047D02*
X79258438Y-72874285D01*
X79258438Y-72874285D02*
X79306057Y-72921904D01*
X79306057Y-72921904D02*
X79401295Y-72969523D01*
X79401295Y-72969523D02*
X79639390Y-72969523D01*
X79639390Y-72969523D02*
X79734628Y-72921904D01*
X79734628Y-72921904D02*
X79782247Y-72874285D01*
X79782247Y-72874285D02*
X79829866Y-72779047D01*
X79829866Y-72779047D02*
X79829866Y-72588571D01*
X79829866Y-72588571D02*
X79782247Y-72493333D01*
X79782247Y-72493333D02*
X79734628Y-72445714D01*
X79734628Y-72445714D02*
X79639390Y-72398095D01*
X76985905Y-113230819D02*
X76985905Y-112230819D01*
X76985905Y-112230819D02*
X77224000Y-112230819D01*
X77224000Y-112230819D02*
X77366857Y-112278438D01*
X77366857Y-112278438D02*
X77462095Y-112373676D01*
X77462095Y-112373676D02*
X77509714Y-112468914D01*
X77509714Y-112468914D02*
X77557333Y-112659390D01*
X77557333Y-112659390D02*
X77557333Y-112802247D01*
X77557333Y-112802247D02*
X77509714Y-112992723D01*
X77509714Y-112992723D02*
X77462095Y-113087961D01*
X77462095Y-113087961D02*
X77366857Y-113183200D01*
X77366857Y-113183200D02*
X77224000Y-113230819D01*
X77224000Y-113230819D02*
X76985905Y-113230819D01*
X78509714Y-113230819D02*
X77938286Y-113230819D01*
X78224000Y-113230819D02*
X78224000Y-112230819D01*
X78224000Y-112230819D02*
X78128762Y-112373676D01*
X78128762Y-112373676D02*
X78033524Y-112468914D01*
X78033524Y-112468914D02*
X77938286Y-112516533D01*
X82496819Y-95892857D02*
X82020628Y-96226190D01*
X82496819Y-96464285D02*
X81496819Y-96464285D01*
X81496819Y-96464285D02*
X81496819Y-96083333D01*
X81496819Y-96083333D02*
X81544438Y-95988095D01*
X81544438Y-95988095D02*
X81592057Y-95940476D01*
X81592057Y-95940476D02*
X81687295Y-95892857D01*
X81687295Y-95892857D02*
X81830152Y-95892857D01*
X81830152Y-95892857D02*
X81925390Y-95940476D01*
X81925390Y-95940476D02*
X81973009Y-95988095D01*
X81973009Y-95988095D02*
X82020628Y-96083333D01*
X82020628Y-96083333D02*
X82020628Y-96464285D01*
X81592057Y-95511904D02*
X81544438Y-95464285D01*
X81544438Y-95464285D02*
X81496819Y-95369047D01*
X81496819Y-95369047D02*
X81496819Y-95130952D01*
X81496819Y-95130952D02*
X81544438Y-95035714D01*
X81544438Y-95035714D02*
X81592057Y-94988095D01*
X81592057Y-94988095D02*
X81687295Y-94940476D01*
X81687295Y-94940476D02*
X81782533Y-94940476D01*
X81782533Y-94940476D02*
X81925390Y-94988095D01*
X81925390Y-94988095D02*
X82496819Y-95559523D01*
X82496819Y-95559523D02*
X82496819Y-94940476D01*
X81496819Y-94607142D02*
X81496819Y-93988095D01*
X81496819Y-93988095D02*
X81877771Y-94321428D01*
X81877771Y-94321428D02*
X81877771Y-94178571D01*
X81877771Y-94178571D02*
X81925390Y-94083333D01*
X81925390Y-94083333D02*
X81973009Y-94035714D01*
X81973009Y-94035714D02*
X82068247Y-93988095D01*
X82068247Y-93988095D02*
X82306342Y-93988095D01*
X82306342Y-93988095D02*
X82401580Y-94035714D01*
X82401580Y-94035714D02*
X82449200Y-94083333D01*
X82449200Y-94083333D02*
X82496819Y-94178571D01*
X82496819Y-94178571D02*
X82496819Y-94464285D01*
X82496819Y-94464285D02*
X82449200Y-94559523D01*
X82449200Y-94559523D02*
X82401580Y-94607142D01*
X84193142Y-185187580D02*
X84145523Y-185235200D01*
X84145523Y-185235200D02*
X84002666Y-185282819D01*
X84002666Y-185282819D02*
X83907428Y-185282819D01*
X83907428Y-185282819D02*
X83764571Y-185235200D01*
X83764571Y-185235200D02*
X83669333Y-185139961D01*
X83669333Y-185139961D02*
X83621714Y-185044723D01*
X83621714Y-185044723D02*
X83574095Y-184854247D01*
X83574095Y-184854247D02*
X83574095Y-184711390D01*
X83574095Y-184711390D02*
X83621714Y-184520914D01*
X83621714Y-184520914D02*
X83669333Y-184425676D01*
X83669333Y-184425676D02*
X83764571Y-184330438D01*
X83764571Y-184330438D02*
X83907428Y-184282819D01*
X83907428Y-184282819D02*
X84002666Y-184282819D01*
X84002666Y-184282819D02*
X84145523Y-184330438D01*
X84145523Y-184330438D02*
X84193142Y-184378057D01*
X85145523Y-185282819D02*
X84574095Y-185282819D01*
X84859809Y-185282819D02*
X84859809Y-184282819D01*
X84859809Y-184282819D02*
X84764571Y-184425676D01*
X84764571Y-184425676D02*
X84669333Y-184520914D01*
X84669333Y-184520914D02*
X84574095Y-184568533D01*
X86097904Y-185282819D02*
X85526476Y-185282819D01*
X85812190Y-185282819D02*
X85812190Y-184282819D01*
X85812190Y-184282819D02*
X85716952Y-184425676D01*
X85716952Y-184425676D02*
X85621714Y-184520914D01*
X85621714Y-184520914D02*
X85526476Y-184568533D01*
X80097333Y-182572819D02*
X79764000Y-182096628D01*
X79525905Y-182572819D02*
X79525905Y-181572819D01*
X79525905Y-181572819D02*
X79906857Y-181572819D01*
X79906857Y-181572819D02*
X80002095Y-181620438D01*
X80002095Y-181620438D02*
X80049714Y-181668057D01*
X80049714Y-181668057D02*
X80097333Y-181763295D01*
X80097333Y-181763295D02*
X80097333Y-181906152D01*
X80097333Y-181906152D02*
X80049714Y-182001390D01*
X80049714Y-182001390D02*
X80002095Y-182049009D01*
X80002095Y-182049009D02*
X79906857Y-182096628D01*
X79906857Y-182096628D02*
X79525905Y-182096628D01*
X80954476Y-181906152D02*
X80954476Y-182572819D01*
X80716381Y-181525200D02*
X80478286Y-182239485D01*
X80478286Y-182239485D02*
X81097333Y-182239485D01*
X39878095Y-178524819D02*
X39878095Y-179334342D01*
X39878095Y-179334342D02*
X39925714Y-179429580D01*
X39925714Y-179429580D02*
X39973333Y-179477200D01*
X39973333Y-179477200D02*
X40068571Y-179524819D01*
X40068571Y-179524819D02*
X40259047Y-179524819D01*
X40259047Y-179524819D02*
X40354285Y-179477200D01*
X40354285Y-179477200D02*
X40401904Y-179429580D01*
X40401904Y-179429580D02*
X40449523Y-179334342D01*
X40449523Y-179334342D02*
X40449523Y-178524819D01*
X41068571Y-178953390D02*
X40973333Y-178905771D01*
X40973333Y-178905771D02*
X40925714Y-178858152D01*
X40925714Y-178858152D02*
X40878095Y-178762914D01*
X40878095Y-178762914D02*
X40878095Y-178715295D01*
X40878095Y-178715295D02*
X40925714Y-178620057D01*
X40925714Y-178620057D02*
X40973333Y-178572438D01*
X40973333Y-178572438D02*
X41068571Y-178524819D01*
X41068571Y-178524819D02*
X41259047Y-178524819D01*
X41259047Y-178524819D02*
X41354285Y-178572438D01*
X41354285Y-178572438D02*
X41401904Y-178620057D01*
X41401904Y-178620057D02*
X41449523Y-178715295D01*
X41449523Y-178715295D02*
X41449523Y-178762914D01*
X41449523Y-178762914D02*
X41401904Y-178858152D01*
X41401904Y-178858152D02*
X41354285Y-178905771D01*
X41354285Y-178905771D02*
X41259047Y-178953390D01*
X41259047Y-178953390D02*
X41068571Y-178953390D01*
X41068571Y-178953390D02*
X40973333Y-179001009D01*
X40973333Y-179001009D02*
X40925714Y-179048628D01*
X40925714Y-179048628D02*
X40878095Y-179143866D01*
X40878095Y-179143866D02*
X40878095Y-179334342D01*
X40878095Y-179334342D02*
X40925714Y-179429580D01*
X40925714Y-179429580D02*
X40973333Y-179477200D01*
X40973333Y-179477200D02*
X41068571Y-179524819D01*
X41068571Y-179524819D02*
X41259047Y-179524819D01*
X41259047Y-179524819D02*
X41354285Y-179477200D01*
X41354285Y-179477200D02*
X41401904Y-179429580D01*
X41401904Y-179429580D02*
X41449523Y-179334342D01*
X41449523Y-179334342D02*
X41449523Y-179143866D01*
X41449523Y-179143866D02*
X41401904Y-179048628D01*
X41401904Y-179048628D02*
X41354285Y-179001009D01*
X41354285Y-179001009D02*
X41259047Y-178953390D01*
X57142142Y-79956819D02*
X56808809Y-79480628D01*
X56570714Y-79956819D02*
X56570714Y-78956819D01*
X56570714Y-78956819D02*
X56951666Y-78956819D01*
X56951666Y-78956819D02*
X57046904Y-79004438D01*
X57046904Y-79004438D02*
X57094523Y-79052057D01*
X57094523Y-79052057D02*
X57142142Y-79147295D01*
X57142142Y-79147295D02*
X57142142Y-79290152D01*
X57142142Y-79290152D02*
X57094523Y-79385390D01*
X57094523Y-79385390D02*
X57046904Y-79433009D01*
X57046904Y-79433009D02*
X56951666Y-79480628D01*
X56951666Y-79480628D02*
X56570714Y-79480628D01*
X57523095Y-79052057D02*
X57570714Y-79004438D01*
X57570714Y-79004438D02*
X57665952Y-78956819D01*
X57665952Y-78956819D02*
X57904047Y-78956819D01*
X57904047Y-78956819D02*
X57999285Y-79004438D01*
X57999285Y-79004438D02*
X58046904Y-79052057D01*
X58046904Y-79052057D02*
X58094523Y-79147295D01*
X58094523Y-79147295D02*
X58094523Y-79242533D01*
X58094523Y-79242533D02*
X58046904Y-79385390D01*
X58046904Y-79385390D02*
X57475476Y-79956819D01*
X57475476Y-79956819D02*
X58094523Y-79956819D01*
X58427857Y-78956819D02*
X59094523Y-78956819D01*
X59094523Y-78956819D02*
X58665952Y-79956819D01*
X62938819Y-65158857D02*
X62462628Y-65492190D01*
X62938819Y-65730285D02*
X61938819Y-65730285D01*
X61938819Y-65730285D02*
X61938819Y-65349333D01*
X61938819Y-65349333D02*
X61986438Y-65254095D01*
X61986438Y-65254095D02*
X62034057Y-65206476D01*
X62034057Y-65206476D02*
X62129295Y-65158857D01*
X62129295Y-65158857D02*
X62272152Y-65158857D01*
X62272152Y-65158857D02*
X62367390Y-65206476D01*
X62367390Y-65206476D02*
X62415009Y-65254095D01*
X62415009Y-65254095D02*
X62462628Y-65349333D01*
X62462628Y-65349333D02*
X62462628Y-65730285D01*
X61938819Y-64825523D02*
X61938819Y-64206476D01*
X61938819Y-64206476D02*
X62319771Y-64539809D01*
X62319771Y-64539809D02*
X62319771Y-64396952D01*
X62319771Y-64396952D02*
X62367390Y-64301714D01*
X62367390Y-64301714D02*
X62415009Y-64254095D01*
X62415009Y-64254095D02*
X62510247Y-64206476D01*
X62510247Y-64206476D02*
X62748342Y-64206476D01*
X62748342Y-64206476D02*
X62843580Y-64254095D01*
X62843580Y-64254095D02*
X62891200Y-64301714D01*
X62891200Y-64301714D02*
X62938819Y-64396952D01*
X62938819Y-64396952D02*
X62938819Y-64682666D01*
X62938819Y-64682666D02*
X62891200Y-64777904D01*
X62891200Y-64777904D02*
X62843580Y-64825523D01*
X62938819Y-63254095D02*
X62938819Y-63825523D01*
X62938819Y-63539809D02*
X61938819Y-63539809D01*
X61938819Y-63539809D02*
X62081676Y-63635047D01*
X62081676Y-63635047D02*
X62176914Y-63730285D01*
X62176914Y-63730285D02*
X62224533Y-63825523D01*
X66071571Y-23441819D02*
X65738238Y-22965628D01*
X65500143Y-23441819D02*
X65500143Y-22441819D01*
X65500143Y-22441819D02*
X65881095Y-22441819D01*
X65881095Y-22441819D02*
X65976333Y-22489438D01*
X65976333Y-22489438D02*
X66023952Y-22537057D01*
X66023952Y-22537057D02*
X66071571Y-22632295D01*
X66071571Y-22632295D02*
X66071571Y-22775152D01*
X66071571Y-22775152D02*
X66023952Y-22870390D01*
X66023952Y-22870390D02*
X65976333Y-22918009D01*
X65976333Y-22918009D02*
X65881095Y-22965628D01*
X65881095Y-22965628D02*
X65500143Y-22965628D01*
X66357286Y-22441819D02*
X66690619Y-23441819D01*
X66690619Y-23441819D02*
X67023952Y-22441819D01*
X67881095Y-23441819D02*
X67309667Y-23441819D01*
X67595381Y-23441819D02*
X67595381Y-22441819D01*
X67595381Y-22441819D02*
X67500143Y-22584676D01*
X67500143Y-22584676D02*
X67404905Y-22679914D01*
X67404905Y-22679914D02*
X67309667Y-22727533D01*
X68214429Y-22441819D02*
X68833476Y-22441819D01*
X68833476Y-22441819D02*
X68500143Y-22822771D01*
X68500143Y-22822771D02*
X68643000Y-22822771D01*
X68643000Y-22822771D02*
X68738238Y-22870390D01*
X68738238Y-22870390D02*
X68785857Y-22918009D01*
X68785857Y-22918009D02*
X68833476Y-23013247D01*
X68833476Y-23013247D02*
X68833476Y-23251342D01*
X68833476Y-23251342D02*
X68785857Y-23346580D01*
X68785857Y-23346580D02*
X68738238Y-23394200D01*
X68738238Y-23394200D02*
X68643000Y-23441819D01*
X68643000Y-23441819D02*
X68357286Y-23441819D01*
X68357286Y-23441819D02*
X68262048Y-23394200D01*
X68262048Y-23394200D02*
X68214429Y-23346580D01*
X69088095Y-70574819D02*
X69088095Y-71384342D01*
X69088095Y-71384342D02*
X69135714Y-71479580D01*
X69135714Y-71479580D02*
X69183333Y-71527200D01*
X69183333Y-71527200D02*
X69278571Y-71574819D01*
X69278571Y-71574819D02*
X69469047Y-71574819D01*
X69469047Y-71574819D02*
X69564285Y-71527200D01*
X69564285Y-71527200D02*
X69611904Y-71479580D01*
X69611904Y-71479580D02*
X69659523Y-71384342D01*
X69659523Y-71384342D02*
X69659523Y-70574819D01*
X70564285Y-70574819D02*
X70373809Y-70574819D01*
X70373809Y-70574819D02*
X70278571Y-70622438D01*
X70278571Y-70622438D02*
X70230952Y-70670057D01*
X70230952Y-70670057D02*
X70135714Y-70812914D01*
X70135714Y-70812914D02*
X70088095Y-71003390D01*
X70088095Y-71003390D02*
X70088095Y-71384342D01*
X70088095Y-71384342D02*
X70135714Y-71479580D01*
X70135714Y-71479580D02*
X70183333Y-71527200D01*
X70183333Y-71527200D02*
X70278571Y-71574819D01*
X70278571Y-71574819D02*
X70469047Y-71574819D01*
X70469047Y-71574819D02*
X70564285Y-71527200D01*
X70564285Y-71527200D02*
X70611904Y-71479580D01*
X70611904Y-71479580D02*
X70659523Y-71384342D01*
X70659523Y-71384342D02*
X70659523Y-71146247D01*
X70659523Y-71146247D02*
X70611904Y-71051009D01*
X70611904Y-71051009D02*
X70564285Y-71003390D01*
X70564285Y-71003390D02*
X70469047Y-70955771D01*
X70469047Y-70955771D02*
X70278571Y-70955771D01*
X70278571Y-70955771D02*
X70183333Y-71003390D01*
X70183333Y-71003390D02*
X70135714Y-71051009D01*
X70135714Y-71051009D02*
X70088095Y-71146247D01*
X81835333Y-171809580D02*
X81787714Y-171857200D01*
X81787714Y-171857200D02*
X81644857Y-171904819D01*
X81644857Y-171904819D02*
X81549619Y-171904819D01*
X81549619Y-171904819D02*
X81406762Y-171857200D01*
X81406762Y-171857200D02*
X81311524Y-171761961D01*
X81311524Y-171761961D02*
X81263905Y-171666723D01*
X81263905Y-171666723D02*
X81216286Y-171476247D01*
X81216286Y-171476247D02*
X81216286Y-171333390D01*
X81216286Y-171333390D02*
X81263905Y-171142914D01*
X81263905Y-171142914D02*
X81311524Y-171047676D01*
X81311524Y-171047676D02*
X81406762Y-170952438D01*
X81406762Y-170952438D02*
X81549619Y-170904819D01*
X81549619Y-170904819D02*
X81644857Y-170904819D01*
X81644857Y-170904819D02*
X81787714Y-170952438D01*
X81787714Y-170952438D02*
X81835333Y-171000057D01*
X82168667Y-170904819D02*
X82835333Y-170904819D01*
X82835333Y-170904819D02*
X82406762Y-171904819D01*
X98893333Y-151838819D02*
X98560000Y-151362628D01*
X98321905Y-151838819D02*
X98321905Y-150838819D01*
X98321905Y-150838819D02*
X98702857Y-150838819D01*
X98702857Y-150838819D02*
X98798095Y-150886438D01*
X98798095Y-150886438D02*
X98845714Y-150934057D01*
X98845714Y-150934057D02*
X98893333Y-151029295D01*
X98893333Y-151029295D02*
X98893333Y-151172152D01*
X98893333Y-151172152D02*
X98845714Y-151267390D01*
X98845714Y-151267390D02*
X98798095Y-151315009D01*
X98798095Y-151315009D02*
X98702857Y-151362628D01*
X98702857Y-151362628D02*
X98321905Y-151362628D01*
X99274286Y-150934057D02*
X99321905Y-150886438D01*
X99321905Y-150886438D02*
X99417143Y-150838819D01*
X99417143Y-150838819D02*
X99655238Y-150838819D01*
X99655238Y-150838819D02*
X99750476Y-150886438D01*
X99750476Y-150886438D02*
X99798095Y-150934057D01*
X99798095Y-150934057D02*
X99845714Y-151029295D01*
X99845714Y-151029295D02*
X99845714Y-151124533D01*
X99845714Y-151124533D02*
X99798095Y-151267390D01*
X99798095Y-151267390D02*
X99226667Y-151838819D01*
X99226667Y-151838819D02*
X99845714Y-151838819D01*
X63079333Y-138535580D02*
X63031714Y-138583200D01*
X63031714Y-138583200D02*
X62888857Y-138630819D01*
X62888857Y-138630819D02*
X62793619Y-138630819D01*
X62793619Y-138630819D02*
X62650762Y-138583200D01*
X62650762Y-138583200D02*
X62555524Y-138487961D01*
X62555524Y-138487961D02*
X62507905Y-138392723D01*
X62507905Y-138392723D02*
X62460286Y-138202247D01*
X62460286Y-138202247D02*
X62460286Y-138059390D01*
X62460286Y-138059390D02*
X62507905Y-137868914D01*
X62507905Y-137868914D02*
X62555524Y-137773676D01*
X62555524Y-137773676D02*
X62650762Y-137678438D01*
X62650762Y-137678438D02*
X62793619Y-137630819D01*
X62793619Y-137630819D02*
X62888857Y-137630819D01*
X62888857Y-137630819D02*
X63031714Y-137678438D01*
X63031714Y-137678438D02*
X63079333Y-137726057D01*
X63650762Y-138059390D02*
X63555524Y-138011771D01*
X63555524Y-138011771D02*
X63507905Y-137964152D01*
X63507905Y-137964152D02*
X63460286Y-137868914D01*
X63460286Y-137868914D02*
X63460286Y-137821295D01*
X63460286Y-137821295D02*
X63507905Y-137726057D01*
X63507905Y-137726057D02*
X63555524Y-137678438D01*
X63555524Y-137678438D02*
X63650762Y-137630819D01*
X63650762Y-137630819D02*
X63841238Y-137630819D01*
X63841238Y-137630819D02*
X63936476Y-137678438D01*
X63936476Y-137678438D02*
X63984095Y-137726057D01*
X63984095Y-137726057D02*
X64031714Y-137821295D01*
X64031714Y-137821295D02*
X64031714Y-137868914D01*
X64031714Y-137868914D02*
X63984095Y-137964152D01*
X63984095Y-137964152D02*
X63936476Y-138011771D01*
X63936476Y-138011771D02*
X63841238Y-138059390D01*
X63841238Y-138059390D02*
X63650762Y-138059390D01*
X63650762Y-138059390D02*
X63555524Y-138107009D01*
X63555524Y-138107009D02*
X63507905Y-138154628D01*
X63507905Y-138154628D02*
X63460286Y-138249866D01*
X63460286Y-138249866D02*
X63460286Y-138440342D01*
X63460286Y-138440342D02*
X63507905Y-138535580D01*
X63507905Y-138535580D02*
X63555524Y-138583200D01*
X63555524Y-138583200D02*
X63650762Y-138630819D01*
X63650762Y-138630819D02*
X63841238Y-138630819D01*
X63841238Y-138630819D02*
X63936476Y-138583200D01*
X63936476Y-138583200D02*
X63984095Y-138535580D01*
X63984095Y-138535580D02*
X64031714Y-138440342D01*
X64031714Y-138440342D02*
X64031714Y-138249866D01*
X64031714Y-138249866D02*
X63984095Y-138154628D01*
X63984095Y-138154628D02*
X63936476Y-138107009D01*
X63936476Y-138107009D02*
X63841238Y-138059390D01*
X86225142Y-146758819D02*
X85891809Y-146282628D01*
X85653714Y-146758819D02*
X85653714Y-145758819D01*
X85653714Y-145758819D02*
X86034666Y-145758819D01*
X86034666Y-145758819D02*
X86129904Y-145806438D01*
X86129904Y-145806438D02*
X86177523Y-145854057D01*
X86177523Y-145854057D02*
X86225142Y-145949295D01*
X86225142Y-145949295D02*
X86225142Y-146092152D01*
X86225142Y-146092152D02*
X86177523Y-146187390D01*
X86177523Y-146187390D02*
X86129904Y-146235009D01*
X86129904Y-146235009D02*
X86034666Y-146282628D01*
X86034666Y-146282628D02*
X85653714Y-146282628D01*
X87177523Y-146758819D02*
X86606095Y-146758819D01*
X86891809Y-146758819D02*
X86891809Y-145758819D01*
X86891809Y-145758819D02*
X86796571Y-145901676D01*
X86796571Y-145901676D02*
X86701333Y-145996914D01*
X86701333Y-145996914D02*
X86606095Y-146044533D01*
X88129904Y-146758819D02*
X87558476Y-146758819D01*
X87844190Y-146758819D02*
X87844190Y-145758819D01*
X87844190Y-145758819D02*
X87748952Y-145901676D01*
X87748952Y-145901676D02*
X87653714Y-145996914D01*
X87653714Y-145996914D02*
X87558476Y-146044533D01*
X78565142Y-65129580D02*
X78517523Y-65177200D01*
X78517523Y-65177200D02*
X78374666Y-65224819D01*
X78374666Y-65224819D02*
X78279428Y-65224819D01*
X78279428Y-65224819D02*
X78136571Y-65177200D01*
X78136571Y-65177200D02*
X78041333Y-65081961D01*
X78041333Y-65081961D02*
X77993714Y-64986723D01*
X77993714Y-64986723D02*
X77946095Y-64796247D01*
X77946095Y-64796247D02*
X77946095Y-64653390D01*
X77946095Y-64653390D02*
X77993714Y-64462914D01*
X77993714Y-64462914D02*
X78041333Y-64367676D01*
X78041333Y-64367676D02*
X78136571Y-64272438D01*
X78136571Y-64272438D02*
X78279428Y-64224819D01*
X78279428Y-64224819D02*
X78374666Y-64224819D01*
X78374666Y-64224819D02*
X78517523Y-64272438D01*
X78517523Y-64272438D02*
X78565142Y-64320057D01*
X79517523Y-65224819D02*
X78946095Y-65224819D01*
X79231809Y-65224819D02*
X79231809Y-64224819D01*
X79231809Y-64224819D02*
X79136571Y-64367676D01*
X79136571Y-64367676D02*
X79041333Y-64462914D01*
X79041333Y-64462914D02*
X78946095Y-64510533D01*
X79850857Y-64224819D02*
X80517523Y-64224819D01*
X80517523Y-64224819D02*
X80088952Y-65224819D01*
X38687142Y-189589580D02*
X38639523Y-189637200D01*
X38639523Y-189637200D02*
X38496666Y-189684819D01*
X38496666Y-189684819D02*
X38401428Y-189684819D01*
X38401428Y-189684819D02*
X38258571Y-189637200D01*
X38258571Y-189637200D02*
X38163333Y-189541961D01*
X38163333Y-189541961D02*
X38115714Y-189446723D01*
X38115714Y-189446723D02*
X38068095Y-189256247D01*
X38068095Y-189256247D02*
X38068095Y-189113390D01*
X38068095Y-189113390D02*
X38115714Y-188922914D01*
X38115714Y-188922914D02*
X38163333Y-188827676D01*
X38163333Y-188827676D02*
X38258571Y-188732438D01*
X38258571Y-188732438D02*
X38401428Y-188684819D01*
X38401428Y-188684819D02*
X38496666Y-188684819D01*
X38496666Y-188684819D02*
X38639523Y-188732438D01*
X38639523Y-188732438D02*
X38687142Y-188780057D01*
X39068095Y-188780057D02*
X39115714Y-188732438D01*
X39115714Y-188732438D02*
X39210952Y-188684819D01*
X39210952Y-188684819D02*
X39449047Y-188684819D01*
X39449047Y-188684819D02*
X39544285Y-188732438D01*
X39544285Y-188732438D02*
X39591904Y-188780057D01*
X39591904Y-188780057D02*
X39639523Y-188875295D01*
X39639523Y-188875295D02*
X39639523Y-188970533D01*
X39639523Y-188970533D02*
X39591904Y-189113390D01*
X39591904Y-189113390D02*
X39020476Y-189684819D01*
X39020476Y-189684819D02*
X39639523Y-189684819D01*
X39972857Y-188684819D02*
X40591904Y-188684819D01*
X40591904Y-188684819D02*
X40258571Y-189065771D01*
X40258571Y-189065771D02*
X40401428Y-189065771D01*
X40401428Y-189065771D02*
X40496666Y-189113390D01*
X40496666Y-189113390D02*
X40544285Y-189161009D01*
X40544285Y-189161009D02*
X40591904Y-189256247D01*
X40591904Y-189256247D02*
X40591904Y-189494342D01*
X40591904Y-189494342D02*
X40544285Y-189589580D01*
X40544285Y-189589580D02*
X40496666Y-189637200D01*
X40496666Y-189637200D02*
X40401428Y-189684819D01*
X40401428Y-189684819D02*
X40115714Y-189684819D01*
X40115714Y-189684819D02*
X40020476Y-189637200D01*
X40020476Y-189637200D02*
X39972857Y-189589580D01*
X54983142Y-46682819D02*
X54649809Y-46206628D01*
X54411714Y-46682819D02*
X54411714Y-45682819D01*
X54411714Y-45682819D02*
X54792666Y-45682819D01*
X54792666Y-45682819D02*
X54887904Y-45730438D01*
X54887904Y-45730438D02*
X54935523Y-45778057D01*
X54935523Y-45778057D02*
X54983142Y-45873295D01*
X54983142Y-45873295D02*
X54983142Y-46016152D01*
X54983142Y-46016152D02*
X54935523Y-46111390D01*
X54935523Y-46111390D02*
X54887904Y-46159009D01*
X54887904Y-46159009D02*
X54792666Y-46206628D01*
X54792666Y-46206628D02*
X54411714Y-46206628D01*
X55316476Y-45682819D02*
X55935523Y-45682819D01*
X55935523Y-45682819D02*
X55602190Y-46063771D01*
X55602190Y-46063771D02*
X55745047Y-46063771D01*
X55745047Y-46063771D02*
X55840285Y-46111390D01*
X55840285Y-46111390D02*
X55887904Y-46159009D01*
X55887904Y-46159009D02*
X55935523Y-46254247D01*
X55935523Y-46254247D02*
X55935523Y-46492342D01*
X55935523Y-46492342D02*
X55887904Y-46587580D01*
X55887904Y-46587580D02*
X55840285Y-46635200D01*
X55840285Y-46635200D02*
X55745047Y-46682819D01*
X55745047Y-46682819D02*
X55459333Y-46682819D01*
X55459333Y-46682819D02*
X55364095Y-46635200D01*
X55364095Y-46635200D02*
X55316476Y-46587580D01*
X56792666Y-46016152D02*
X56792666Y-46682819D01*
X56554571Y-45635200D02*
X56316476Y-46349485D01*
X56316476Y-46349485D02*
X56935523Y-46349485D01*
X71747142Y-127708819D02*
X71413809Y-127232628D01*
X71175714Y-127708819D02*
X71175714Y-126708819D01*
X71175714Y-126708819D02*
X71556666Y-126708819D01*
X71556666Y-126708819D02*
X71651904Y-126756438D01*
X71651904Y-126756438D02*
X71699523Y-126804057D01*
X71699523Y-126804057D02*
X71747142Y-126899295D01*
X71747142Y-126899295D02*
X71747142Y-127042152D01*
X71747142Y-127042152D02*
X71699523Y-127137390D01*
X71699523Y-127137390D02*
X71651904Y-127185009D01*
X71651904Y-127185009D02*
X71556666Y-127232628D01*
X71556666Y-127232628D02*
X71175714Y-127232628D01*
X72699523Y-127708819D02*
X72128095Y-127708819D01*
X72413809Y-127708819D02*
X72413809Y-126708819D01*
X72413809Y-126708819D02*
X72318571Y-126851676D01*
X72318571Y-126851676D02*
X72223333Y-126946914D01*
X72223333Y-126946914D02*
X72128095Y-126994533D01*
X73032857Y-126708819D02*
X73651904Y-126708819D01*
X73651904Y-126708819D02*
X73318571Y-127089771D01*
X73318571Y-127089771D02*
X73461428Y-127089771D01*
X73461428Y-127089771D02*
X73556666Y-127137390D01*
X73556666Y-127137390D02*
X73604285Y-127185009D01*
X73604285Y-127185009D02*
X73651904Y-127280247D01*
X73651904Y-127280247D02*
X73651904Y-127518342D01*
X73651904Y-127518342D02*
X73604285Y-127613580D01*
X73604285Y-127613580D02*
X73556666Y-127661200D01*
X73556666Y-127661200D02*
X73461428Y-127708819D01*
X73461428Y-127708819D02*
X73175714Y-127708819D01*
X73175714Y-127708819D02*
X73080476Y-127661200D01*
X73080476Y-127661200D02*
X73032857Y-127613580D01*
X59769142Y-92053580D02*
X59721523Y-92101200D01*
X59721523Y-92101200D02*
X59578666Y-92148819D01*
X59578666Y-92148819D02*
X59483428Y-92148819D01*
X59483428Y-92148819D02*
X59340571Y-92101200D01*
X59340571Y-92101200D02*
X59245333Y-92005961D01*
X59245333Y-92005961D02*
X59197714Y-91910723D01*
X59197714Y-91910723D02*
X59150095Y-91720247D01*
X59150095Y-91720247D02*
X59150095Y-91577390D01*
X59150095Y-91577390D02*
X59197714Y-91386914D01*
X59197714Y-91386914D02*
X59245333Y-91291676D01*
X59245333Y-91291676D02*
X59340571Y-91196438D01*
X59340571Y-91196438D02*
X59483428Y-91148819D01*
X59483428Y-91148819D02*
X59578666Y-91148819D01*
X59578666Y-91148819D02*
X59721523Y-91196438D01*
X59721523Y-91196438D02*
X59769142Y-91244057D01*
X60721523Y-92148819D02*
X60150095Y-92148819D01*
X60435809Y-92148819D02*
X60435809Y-91148819D01*
X60435809Y-91148819D02*
X60340571Y-91291676D01*
X60340571Y-91291676D02*
X60245333Y-91386914D01*
X60245333Y-91386914D02*
X60150095Y-91434533D01*
X61578666Y-91482152D02*
X61578666Y-92148819D01*
X61340571Y-91101200D02*
X61102476Y-91815485D01*
X61102476Y-91815485D02*
X61721523Y-91815485D01*
X71882095Y-131285819D02*
X71882095Y-132095342D01*
X71882095Y-132095342D02*
X71929714Y-132190580D01*
X71929714Y-132190580D02*
X71977333Y-132238200D01*
X71977333Y-132238200D02*
X72072571Y-132285819D01*
X72072571Y-132285819D02*
X72263047Y-132285819D01*
X72263047Y-132285819D02*
X72358285Y-132238200D01*
X72358285Y-132238200D02*
X72405904Y-132190580D01*
X72405904Y-132190580D02*
X72453523Y-132095342D01*
X72453523Y-132095342D02*
X72453523Y-131285819D01*
X72834476Y-131285819D02*
X73453523Y-131285819D01*
X73453523Y-131285819D02*
X73120190Y-131666771D01*
X73120190Y-131666771D02*
X73263047Y-131666771D01*
X73263047Y-131666771D02*
X73358285Y-131714390D01*
X73358285Y-131714390D02*
X73405904Y-131762009D01*
X73405904Y-131762009D02*
X73453523Y-131857247D01*
X73453523Y-131857247D02*
X73453523Y-132095342D01*
X73453523Y-132095342D02*
X73405904Y-132190580D01*
X73405904Y-132190580D02*
X73358285Y-132238200D01*
X73358285Y-132238200D02*
X73263047Y-132285819D01*
X73263047Y-132285819D02*
X72977333Y-132285819D01*
X72977333Y-132285819D02*
X72882095Y-132238200D01*
X72882095Y-132238200D02*
X72834476Y-132190580D01*
X32377142Y-90624819D02*
X32043809Y-90148628D01*
X31805714Y-90624819D02*
X31805714Y-89624819D01*
X31805714Y-89624819D02*
X32186666Y-89624819D01*
X32186666Y-89624819D02*
X32281904Y-89672438D01*
X32281904Y-89672438D02*
X32329523Y-89720057D01*
X32329523Y-89720057D02*
X32377142Y-89815295D01*
X32377142Y-89815295D02*
X32377142Y-89958152D01*
X32377142Y-89958152D02*
X32329523Y-90053390D01*
X32329523Y-90053390D02*
X32281904Y-90101009D01*
X32281904Y-90101009D02*
X32186666Y-90148628D01*
X32186666Y-90148628D02*
X31805714Y-90148628D01*
X33234285Y-89958152D02*
X33234285Y-90624819D01*
X32996190Y-89577200D02*
X32758095Y-90291485D01*
X32758095Y-90291485D02*
X33377142Y-90291485D01*
X33662857Y-89624819D02*
X34281904Y-89624819D01*
X34281904Y-89624819D02*
X33948571Y-90005771D01*
X33948571Y-90005771D02*
X34091428Y-90005771D01*
X34091428Y-90005771D02*
X34186666Y-90053390D01*
X34186666Y-90053390D02*
X34234285Y-90101009D01*
X34234285Y-90101009D02*
X34281904Y-90196247D01*
X34281904Y-90196247D02*
X34281904Y-90434342D01*
X34281904Y-90434342D02*
X34234285Y-90529580D01*
X34234285Y-90529580D02*
X34186666Y-90577200D01*
X34186666Y-90577200D02*
X34091428Y-90624819D01*
X34091428Y-90624819D02*
X33805714Y-90624819D01*
X33805714Y-90624819D02*
X33710476Y-90577200D01*
X33710476Y-90577200D02*
X33662857Y-90529580D01*
X66278571Y-62176819D02*
X65945238Y-61700628D01*
X65707143Y-62176819D02*
X65707143Y-61176819D01*
X65707143Y-61176819D02*
X66088095Y-61176819D01*
X66088095Y-61176819D02*
X66183333Y-61224438D01*
X66183333Y-61224438D02*
X66230952Y-61272057D01*
X66230952Y-61272057D02*
X66278571Y-61367295D01*
X66278571Y-61367295D02*
X66278571Y-61510152D01*
X66278571Y-61510152D02*
X66230952Y-61605390D01*
X66230952Y-61605390D02*
X66183333Y-61653009D01*
X66183333Y-61653009D02*
X66088095Y-61700628D01*
X66088095Y-61700628D02*
X65707143Y-61700628D01*
X66564286Y-61176819D02*
X66897619Y-62176819D01*
X66897619Y-62176819D02*
X67230952Y-61176819D01*
X68088095Y-62176819D02*
X67516667Y-62176819D01*
X67802381Y-62176819D02*
X67802381Y-61176819D01*
X67802381Y-61176819D02*
X67707143Y-61319676D01*
X67707143Y-61319676D02*
X67611905Y-61414914D01*
X67611905Y-61414914D02*
X67516667Y-61462533D01*
X68707143Y-61176819D02*
X68802381Y-61176819D01*
X68802381Y-61176819D02*
X68897619Y-61224438D01*
X68897619Y-61224438D02*
X68945238Y-61272057D01*
X68945238Y-61272057D02*
X68992857Y-61367295D01*
X68992857Y-61367295D02*
X69040476Y-61557771D01*
X69040476Y-61557771D02*
X69040476Y-61795866D01*
X69040476Y-61795866D02*
X68992857Y-61986342D01*
X68992857Y-61986342D02*
X68945238Y-62081580D01*
X68945238Y-62081580D02*
X68897619Y-62129200D01*
X68897619Y-62129200D02*
X68802381Y-62176819D01*
X68802381Y-62176819D02*
X68707143Y-62176819D01*
X68707143Y-62176819D02*
X68611905Y-62129200D01*
X68611905Y-62129200D02*
X68564286Y-62081580D01*
X68564286Y-62081580D02*
X68516667Y-61986342D01*
X68516667Y-61986342D02*
X68469048Y-61795866D01*
X68469048Y-61795866D02*
X68469048Y-61557771D01*
X68469048Y-61557771D02*
X68516667Y-61367295D01*
X68516667Y-61367295D02*
X68564286Y-61272057D01*
X68564286Y-61272057D02*
X68611905Y-61224438D01*
X68611905Y-61224438D02*
X68707143Y-61176819D01*
X57277333Y-178413580D02*
X57229714Y-178461200D01*
X57229714Y-178461200D02*
X57086857Y-178508819D01*
X57086857Y-178508819D02*
X56991619Y-178508819D01*
X56991619Y-178508819D02*
X56848762Y-178461200D01*
X56848762Y-178461200D02*
X56753524Y-178365961D01*
X56753524Y-178365961D02*
X56705905Y-178270723D01*
X56705905Y-178270723D02*
X56658286Y-178080247D01*
X56658286Y-178080247D02*
X56658286Y-177937390D01*
X56658286Y-177937390D02*
X56705905Y-177746914D01*
X56705905Y-177746914D02*
X56753524Y-177651676D01*
X56753524Y-177651676D02*
X56848762Y-177556438D01*
X56848762Y-177556438D02*
X56991619Y-177508819D01*
X56991619Y-177508819D02*
X57086857Y-177508819D01*
X57086857Y-177508819D02*
X57229714Y-177556438D01*
X57229714Y-177556438D02*
X57277333Y-177604057D01*
X58134476Y-177842152D02*
X58134476Y-178508819D01*
X57896381Y-177461200D02*
X57658286Y-178175485D01*
X57658286Y-178175485D02*
X58277333Y-178175485D01*
X77162819Y-95892857D02*
X76686628Y-96226190D01*
X77162819Y-96464285D02*
X76162819Y-96464285D01*
X76162819Y-96464285D02*
X76162819Y-96083333D01*
X76162819Y-96083333D02*
X76210438Y-95988095D01*
X76210438Y-95988095D02*
X76258057Y-95940476D01*
X76258057Y-95940476D02*
X76353295Y-95892857D01*
X76353295Y-95892857D02*
X76496152Y-95892857D01*
X76496152Y-95892857D02*
X76591390Y-95940476D01*
X76591390Y-95940476D02*
X76639009Y-95988095D01*
X76639009Y-95988095D02*
X76686628Y-96083333D01*
X76686628Y-96083333D02*
X76686628Y-96464285D01*
X76258057Y-95511904D02*
X76210438Y-95464285D01*
X76210438Y-95464285D02*
X76162819Y-95369047D01*
X76162819Y-95369047D02*
X76162819Y-95130952D01*
X76162819Y-95130952D02*
X76210438Y-95035714D01*
X76210438Y-95035714D02*
X76258057Y-94988095D01*
X76258057Y-94988095D02*
X76353295Y-94940476D01*
X76353295Y-94940476D02*
X76448533Y-94940476D01*
X76448533Y-94940476D02*
X76591390Y-94988095D01*
X76591390Y-94988095D02*
X77162819Y-95559523D01*
X77162819Y-95559523D02*
X77162819Y-94940476D01*
X76496152Y-94083333D02*
X77162819Y-94083333D01*
X76115200Y-94321428D02*
X76829485Y-94559523D01*
X76829485Y-94559523D02*
X76829485Y-93940476D01*
X69619905Y-79194819D02*
X69619905Y-78194819D01*
X69619905Y-78194819D02*
X69858000Y-78194819D01*
X69858000Y-78194819D02*
X70000857Y-78242438D01*
X70000857Y-78242438D02*
X70096095Y-78337676D01*
X70096095Y-78337676D02*
X70143714Y-78432914D01*
X70143714Y-78432914D02*
X70191333Y-78623390D01*
X70191333Y-78623390D02*
X70191333Y-78766247D01*
X70191333Y-78766247D02*
X70143714Y-78956723D01*
X70143714Y-78956723D02*
X70096095Y-79051961D01*
X70096095Y-79051961D02*
X70000857Y-79147200D01*
X70000857Y-79147200D02*
X69858000Y-79194819D01*
X69858000Y-79194819D02*
X69619905Y-79194819D01*
X71048476Y-78528152D02*
X71048476Y-79194819D01*
X70810381Y-78147200D02*
X70572286Y-78861485D01*
X70572286Y-78861485D02*
X71191333Y-78861485D01*
X85036819Y-103258857D02*
X84560628Y-103592190D01*
X85036819Y-103830285D02*
X84036819Y-103830285D01*
X84036819Y-103830285D02*
X84036819Y-103449333D01*
X84036819Y-103449333D02*
X84084438Y-103354095D01*
X84084438Y-103354095D02*
X84132057Y-103306476D01*
X84132057Y-103306476D02*
X84227295Y-103258857D01*
X84227295Y-103258857D02*
X84370152Y-103258857D01*
X84370152Y-103258857D02*
X84465390Y-103306476D01*
X84465390Y-103306476D02*
X84513009Y-103354095D01*
X84513009Y-103354095D02*
X84560628Y-103449333D01*
X84560628Y-103449333D02*
X84560628Y-103830285D01*
X84132057Y-102877904D02*
X84084438Y-102830285D01*
X84084438Y-102830285D02*
X84036819Y-102735047D01*
X84036819Y-102735047D02*
X84036819Y-102496952D01*
X84036819Y-102496952D02*
X84084438Y-102401714D01*
X84084438Y-102401714D02*
X84132057Y-102354095D01*
X84132057Y-102354095D02*
X84227295Y-102306476D01*
X84227295Y-102306476D02*
X84322533Y-102306476D01*
X84322533Y-102306476D02*
X84465390Y-102354095D01*
X84465390Y-102354095D02*
X85036819Y-102925523D01*
X85036819Y-102925523D02*
X85036819Y-102306476D01*
X84036819Y-101401714D02*
X84036819Y-101877904D01*
X84036819Y-101877904D02*
X84513009Y-101925523D01*
X84513009Y-101925523D02*
X84465390Y-101877904D01*
X84465390Y-101877904D02*
X84417771Y-101782666D01*
X84417771Y-101782666D02*
X84417771Y-101544571D01*
X84417771Y-101544571D02*
X84465390Y-101449333D01*
X84465390Y-101449333D02*
X84513009Y-101401714D01*
X84513009Y-101401714D02*
X84608247Y-101354095D01*
X84608247Y-101354095D02*
X84846342Y-101354095D01*
X84846342Y-101354095D02*
X84941580Y-101401714D01*
X84941580Y-101401714D02*
X84989200Y-101449333D01*
X84989200Y-101449333D02*
X85036819Y-101544571D01*
X85036819Y-101544571D02*
X85036819Y-101782666D01*
X85036819Y-101782666D02*
X84989200Y-101877904D01*
X84989200Y-101877904D02*
X84941580Y-101925523D01*
X85423142Y-143710819D02*
X85089809Y-143234628D01*
X84851714Y-143710819D02*
X84851714Y-142710819D01*
X84851714Y-142710819D02*
X85232666Y-142710819D01*
X85232666Y-142710819D02*
X85327904Y-142758438D01*
X85327904Y-142758438D02*
X85375523Y-142806057D01*
X85375523Y-142806057D02*
X85423142Y-142901295D01*
X85423142Y-142901295D02*
X85423142Y-143044152D01*
X85423142Y-143044152D02*
X85375523Y-143139390D01*
X85375523Y-143139390D02*
X85327904Y-143187009D01*
X85327904Y-143187009D02*
X85232666Y-143234628D01*
X85232666Y-143234628D02*
X84851714Y-143234628D01*
X86375523Y-143710819D02*
X85804095Y-143710819D01*
X86089809Y-143710819D02*
X86089809Y-142710819D01*
X86089809Y-142710819D02*
X85994571Y-142853676D01*
X85994571Y-142853676D02*
X85899333Y-142948914D01*
X85899333Y-142948914D02*
X85804095Y-142996533D01*
X86756476Y-142806057D02*
X86804095Y-142758438D01*
X86804095Y-142758438D02*
X86899333Y-142710819D01*
X86899333Y-142710819D02*
X87137428Y-142710819D01*
X87137428Y-142710819D02*
X87232666Y-142758438D01*
X87232666Y-142758438D02*
X87280285Y-142806057D01*
X87280285Y-142806057D02*
X87327904Y-142901295D01*
X87327904Y-142901295D02*
X87327904Y-142996533D01*
X87327904Y-142996533D02*
X87280285Y-143139390D01*
X87280285Y-143139390D02*
X86708857Y-143710819D01*
X86708857Y-143710819D02*
X87327904Y-143710819D01*
X77908485Y-157556190D02*
X77870390Y-157632380D01*
X77870390Y-157632380D02*
X77794200Y-157708571D01*
X77794200Y-157708571D02*
X77679914Y-157822857D01*
X77679914Y-157822857D02*
X77641819Y-157899047D01*
X77641819Y-157899047D02*
X77641819Y-157975238D01*
X77832295Y-157937142D02*
X77794200Y-158013333D01*
X77794200Y-158013333D02*
X77718009Y-158089523D01*
X77718009Y-158089523D02*
X77565628Y-158127619D01*
X77565628Y-158127619D02*
X77298961Y-158127619D01*
X77298961Y-158127619D02*
X77146580Y-158089523D01*
X77146580Y-158089523D02*
X77070390Y-158013333D01*
X77070390Y-158013333D02*
X77032295Y-157937142D01*
X77032295Y-157937142D02*
X77032295Y-157784761D01*
X77032295Y-157784761D02*
X77070390Y-157708571D01*
X77070390Y-157708571D02*
X77146580Y-157632380D01*
X77146580Y-157632380D02*
X77298961Y-157594285D01*
X77298961Y-157594285D02*
X77565628Y-157594285D01*
X77565628Y-157594285D02*
X77718009Y-157632380D01*
X77718009Y-157632380D02*
X77794200Y-157708571D01*
X77794200Y-157708571D02*
X77832295Y-157784761D01*
X77832295Y-157784761D02*
X77832295Y-157937142D01*
X77832295Y-156832381D02*
X77832295Y-157289524D01*
X77832295Y-157060952D02*
X77032295Y-157060952D01*
X77032295Y-157060952D02*
X77146580Y-157137143D01*
X77146580Y-157137143D02*
X77222771Y-157213333D01*
X77222771Y-157213333D02*
X77260866Y-157289524D01*
X55318819Y-71635857D02*
X54842628Y-71969190D01*
X55318819Y-72207285D02*
X54318819Y-72207285D01*
X54318819Y-72207285D02*
X54318819Y-71826333D01*
X54318819Y-71826333D02*
X54366438Y-71731095D01*
X54366438Y-71731095D02*
X54414057Y-71683476D01*
X54414057Y-71683476D02*
X54509295Y-71635857D01*
X54509295Y-71635857D02*
X54652152Y-71635857D01*
X54652152Y-71635857D02*
X54747390Y-71683476D01*
X54747390Y-71683476D02*
X54795009Y-71731095D01*
X54795009Y-71731095D02*
X54842628Y-71826333D01*
X54842628Y-71826333D02*
X54842628Y-72207285D01*
X54318819Y-71302523D02*
X54318819Y-70683476D01*
X54318819Y-70683476D02*
X54699771Y-71016809D01*
X54699771Y-71016809D02*
X54699771Y-70873952D01*
X54699771Y-70873952D02*
X54747390Y-70778714D01*
X54747390Y-70778714D02*
X54795009Y-70731095D01*
X54795009Y-70731095D02*
X54890247Y-70683476D01*
X54890247Y-70683476D02*
X55128342Y-70683476D01*
X55128342Y-70683476D02*
X55223580Y-70731095D01*
X55223580Y-70731095D02*
X55271200Y-70778714D01*
X55271200Y-70778714D02*
X55318819Y-70873952D01*
X55318819Y-70873952D02*
X55318819Y-71159666D01*
X55318819Y-71159666D02*
X55271200Y-71254904D01*
X55271200Y-71254904D02*
X55223580Y-71302523D01*
X54318819Y-70064428D02*
X54318819Y-69969190D01*
X54318819Y-69969190D02*
X54366438Y-69873952D01*
X54366438Y-69873952D02*
X54414057Y-69826333D01*
X54414057Y-69826333D02*
X54509295Y-69778714D01*
X54509295Y-69778714D02*
X54699771Y-69731095D01*
X54699771Y-69731095D02*
X54937866Y-69731095D01*
X54937866Y-69731095D02*
X55128342Y-69778714D01*
X55128342Y-69778714D02*
X55223580Y-69826333D01*
X55223580Y-69826333D02*
X55271200Y-69873952D01*
X55271200Y-69873952D02*
X55318819Y-69969190D01*
X55318819Y-69969190D02*
X55318819Y-70064428D01*
X55318819Y-70064428D02*
X55271200Y-70159666D01*
X55271200Y-70159666D02*
X55223580Y-70207285D01*
X55223580Y-70207285D02*
X55128342Y-70254904D01*
X55128342Y-70254904D02*
X54937866Y-70302523D01*
X54937866Y-70302523D02*
X54699771Y-70302523D01*
X54699771Y-70302523D02*
X54509295Y-70254904D01*
X54509295Y-70254904D02*
X54414057Y-70207285D01*
X54414057Y-70207285D02*
X54366438Y-70159666D01*
X54366438Y-70159666D02*
X54318819Y-70064428D01*
X32377142Y-146504819D02*
X32043809Y-146028628D01*
X31805714Y-146504819D02*
X31805714Y-145504819D01*
X31805714Y-145504819D02*
X32186666Y-145504819D01*
X32186666Y-145504819D02*
X32281904Y-145552438D01*
X32281904Y-145552438D02*
X32329523Y-145600057D01*
X32329523Y-145600057D02*
X32377142Y-145695295D01*
X32377142Y-145695295D02*
X32377142Y-145838152D01*
X32377142Y-145838152D02*
X32329523Y-145933390D01*
X32329523Y-145933390D02*
X32281904Y-145981009D01*
X32281904Y-145981009D02*
X32186666Y-146028628D01*
X32186666Y-146028628D02*
X31805714Y-146028628D01*
X33234285Y-145838152D02*
X33234285Y-146504819D01*
X32996190Y-145457200D02*
X32758095Y-146171485D01*
X32758095Y-146171485D02*
X33377142Y-146171485D01*
X34234285Y-145504819D02*
X33758095Y-145504819D01*
X33758095Y-145504819D02*
X33710476Y-145981009D01*
X33710476Y-145981009D02*
X33758095Y-145933390D01*
X33758095Y-145933390D02*
X33853333Y-145885771D01*
X33853333Y-145885771D02*
X34091428Y-145885771D01*
X34091428Y-145885771D02*
X34186666Y-145933390D01*
X34186666Y-145933390D02*
X34234285Y-145981009D01*
X34234285Y-145981009D02*
X34281904Y-146076247D01*
X34281904Y-146076247D02*
X34281904Y-146314342D01*
X34281904Y-146314342D02*
X34234285Y-146409580D01*
X34234285Y-146409580D02*
X34186666Y-146457200D01*
X34186666Y-146457200D02*
X34091428Y-146504819D01*
X34091428Y-146504819D02*
X33853333Y-146504819D01*
X33853333Y-146504819D02*
X33758095Y-146457200D01*
X33758095Y-146457200D02*
X33710476Y-146409580D01*
X71572571Y-53413819D02*
X71239238Y-52937628D01*
X71001143Y-53413819D02*
X71001143Y-52413819D01*
X71001143Y-52413819D02*
X71382095Y-52413819D01*
X71382095Y-52413819D02*
X71477333Y-52461438D01*
X71477333Y-52461438D02*
X71524952Y-52509057D01*
X71524952Y-52509057D02*
X71572571Y-52604295D01*
X71572571Y-52604295D02*
X71572571Y-52747152D01*
X71572571Y-52747152D02*
X71524952Y-52842390D01*
X71524952Y-52842390D02*
X71477333Y-52890009D01*
X71477333Y-52890009D02*
X71382095Y-52937628D01*
X71382095Y-52937628D02*
X71001143Y-52937628D01*
X71858286Y-52413819D02*
X72191619Y-53413819D01*
X72191619Y-53413819D02*
X72524952Y-52413819D01*
X73382095Y-53413819D02*
X72810667Y-53413819D01*
X73096381Y-53413819D02*
X73096381Y-52413819D01*
X73096381Y-52413819D02*
X73001143Y-52556676D01*
X73001143Y-52556676D02*
X72905905Y-52651914D01*
X72905905Y-52651914D02*
X72810667Y-52699533D01*
X73763048Y-52509057D02*
X73810667Y-52461438D01*
X73810667Y-52461438D02*
X73905905Y-52413819D01*
X73905905Y-52413819D02*
X74144000Y-52413819D01*
X74144000Y-52413819D02*
X74239238Y-52461438D01*
X74239238Y-52461438D02*
X74286857Y-52509057D01*
X74286857Y-52509057D02*
X74334476Y-52604295D01*
X74334476Y-52604295D02*
X74334476Y-52699533D01*
X74334476Y-52699533D02*
X74286857Y-52842390D01*
X74286857Y-52842390D02*
X73715429Y-53413819D01*
X73715429Y-53413819D02*
X74334476Y-53413819D01*
X61160819Y-99702857D02*
X60684628Y-100036190D01*
X61160819Y-100274285D02*
X60160819Y-100274285D01*
X60160819Y-100274285D02*
X60160819Y-99893333D01*
X60160819Y-99893333D02*
X60208438Y-99798095D01*
X60208438Y-99798095D02*
X60256057Y-99750476D01*
X60256057Y-99750476D02*
X60351295Y-99702857D01*
X60351295Y-99702857D02*
X60494152Y-99702857D01*
X60494152Y-99702857D02*
X60589390Y-99750476D01*
X60589390Y-99750476D02*
X60637009Y-99798095D01*
X60637009Y-99798095D02*
X60684628Y-99893333D01*
X60684628Y-99893333D02*
X60684628Y-100274285D01*
X61160819Y-98750476D02*
X61160819Y-99321904D01*
X61160819Y-99036190D02*
X60160819Y-99036190D01*
X60160819Y-99036190D02*
X60303676Y-99131428D01*
X60303676Y-99131428D02*
X60398914Y-99226666D01*
X60398914Y-99226666D02*
X60446533Y-99321904D01*
X60160819Y-98417142D02*
X60160819Y-97750476D01*
X60160819Y-97750476D02*
X61160819Y-98179047D01*
X77416819Y-36586357D02*
X76940628Y-36919690D01*
X77416819Y-37157785D02*
X76416819Y-37157785D01*
X76416819Y-37157785D02*
X76416819Y-36776833D01*
X76416819Y-36776833D02*
X76464438Y-36681595D01*
X76464438Y-36681595D02*
X76512057Y-36633976D01*
X76512057Y-36633976D02*
X76607295Y-36586357D01*
X76607295Y-36586357D02*
X76750152Y-36586357D01*
X76750152Y-36586357D02*
X76845390Y-36633976D01*
X76845390Y-36633976D02*
X76893009Y-36681595D01*
X76893009Y-36681595D02*
X76940628Y-36776833D01*
X76940628Y-36776833D02*
X76940628Y-37157785D01*
X76750152Y-35729214D02*
X77416819Y-35729214D01*
X76369200Y-35967309D02*
X77083485Y-36205404D01*
X77083485Y-36205404D02*
X77083485Y-35586357D01*
X76416819Y-35014928D02*
X76416819Y-34919690D01*
X76416819Y-34919690D02*
X76464438Y-34824452D01*
X76464438Y-34824452D02*
X76512057Y-34776833D01*
X76512057Y-34776833D02*
X76607295Y-34729214D01*
X76607295Y-34729214D02*
X76797771Y-34681595D01*
X76797771Y-34681595D02*
X77035866Y-34681595D01*
X77035866Y-34681595D02*
X77226342Y-34729214D01*
X77226342Y-34729214D02*
X77321580Y-34776833D01*
X77321580Y-34776833D02*
X77369200Y-34824452D01*
X77369200Y-34824452D02*
X77416819Y-34919690D01*
X77416819Y-34919690D02*
X77416819Y-35014928D01*
X77416819Y-35014928D02*
X77369200Y-35110166D01*
X77369200Y-35110166D02*
X77321580Y-35157785D01*
X77321580Y-35157785D02*
X77226342Y-35205404D01*
X77226342Y-35205404D02*
X77035866Y-35253023D01*
X77035866Y-35253023D02*
X76797771Y-35253023D01*
X76797771Y-35253023D02*
X76607295Y-35205404D01*
X76607295Y-35205404D02*
X76512057Y-35157785D01*
X76512057Y-35157785D02*
X76464438Y-35110166D01*
X76464438Y-35110166D02*
X76416819Y-35014928D01*
X61573580Y-108632857D02*
X61621200Y-108680476D01*
X61621200Y-108680476D02*
X61668819Y-108823333D01*
X61668819Y-108823333D02*
X61668819Y-108918571D01*
X61668819Y-108918571D02*
X61621200Y-109061428D01*
X61621200Y-109061428D02*
X61525961Y-109156666D01*
X61525961Y-109156666D02*
X61430723Y-109204285D01*
X61430723Y-109204285D02*
X61240247Y-109251904D01*
X61240247Y-109251904D02*
X61097390Y-109251904D01*
X61097390Y-109251904D02*
X60906914Y-109204285D01*
X60906914Y-109204285D02*
X60811676Y-109156666D01*
X60811676Y-109156666D02*
X60716438Y-109061428D01*
X60716438Y-109061428D02*
X60668819Y-108918571D01*
X60668819Y-108918571D02*
X60668819Y-108823333D01*
X60668819Y-108823333D02*
X60716438Y-108680476D01*
X60716438Y-108680476D02*
X60764057Y-108632857D01*
X61668819Y-107680476D02*
X61668819Y-108251904D01*
X61668819Y-107966190D02*
X60668819Y-107966190D01*
X60668819Y-107966190D02*
X60811676Y-108061428D01*
X60811676Y-108061428D02*
X60906914Y-108156666D01*
X60906914Y-108156666D02*
X60954533Y-108251904D01*
X60764057Y-107299523D02*
X60716438Y-107251904D01*
X60716438Y-107251904D02*
X60668819Y-107156666D01*
X60668819Y-107156666D02*
X60668819Y-106918571D01*
X60668819Y-106918571D02*
X60716438Y-106823333D01*
X60716438Y-106823333D02*
X60764057Y-106775714D01*
X60764057Y-106775714D02*
X60859295Y-106728095D01*
X60859295Y-106728095D02*
X60954533Y-106728095D01*
X60954533Y-106728095D02*
X61097390Y-106775714D01*
X61097390Y-106775714D02*
X61668819Y-107347142D01*
X61668819Y-107347142D02*
X61668819Y-106728095D01*
D11*
%TO.C,C18*%
X55395000Y-85952000D02*
X55395000Y-83212000D01*
X62635000Y-83212000D02*
X55395000Y-83212000D01*
X62635000Y-85952000D02*
X55395000Y-85952000D01*
X62635000Y-85952000D02*
X62635000Y-83212000D01*
%TO.C,R33*%
X53745000Y-50165000D02*
X54515000Y-50165000D01*
X54515000Y-49149000D02*
X54515000Y-51181000D01*
X54515000Y-51181000D02*
X61055000Y-51181000D01*
X61055000Y-49149000D02*
X54515000Y-49149000D01*
X61055000Y-51181000D02*
X61055000Y-49149000D01*
X61825000Y-50165000D02*
X61055000Y-50165000D01*
%TO.C,C19*%
X57177000Y-63309000D02*
X57177000Y-70549000D01*
X59917000Y-63309000D02*
X57177000Y-63309000D01*
X59917000Y-63309000D02*
X59917000Y-70549000D01*
X59917000Y-70549000D02*
X57177000Y-70549000D01*
%TO.C,U7*%
X65593400Y-28261000D02*
X65593400Y-38541000D01*
X65593400Y-38541000D02*
X66843400Y-38541000D01*
X68843400Y-38541000D02*
X70093400Y-38541000D01*
X70093400Y-28261000D02*
X65593400Y-28261000D01*
X70093400Y-38541000D02*
X70093400Y-28261000D01*
X73093400Y-38601000D02*
X62593400Y-38601000D01*
X62593400Y-28201000D01*
X73093400Y-28201000D01*
X73093400Y-38601000D01*
X66843400Y-38541000D02*
G75*
G02*
X68843400Y-38541000I1000000J0D01*
G01*
%TO.C,R8*%
X60198000Y-156750000D02*
X60198000Y-163290000D01*
X60198000Y-163290000D02*
X62230000Y-163290000D01*
X61214000Y-155980000D02*
X61214000Y-156750000D01*
X61214000Y-164060000D02*
X61214000Y-163290000D01*
X62230000Y-156750000D02*
X60198000Y-156750000D01*
X62230000Y-163290000D02*
X62230000Y-156750000D01*
%TO.C,C15*%
X75882000Y-85444000D02*
X75882000Y-82704000D01*
X83122000Y-82704000D02*
X75882000Y-82704000D01*
X83122000Y-85444000D02*
X75882000Y-85444000D01*
X83122000Y-85444000D02*
X83122000Y-82704000D01*
D12*
%TO.C,R48*%
X42418000Y-172974000D02*
X38862000Y-172974000D01*
X42418000Y-175006000D02*
X38862000Y-175006000D01*
%TO.C,R41*%
X59563000Y-33398500D02*
X59563000Y-32382500D01*
X61595000Y-33398500D02*
X61595000Y-32382500D01*
D11*
%TO.C,C3*%
X78386000Y-139890000D02*
X81126000Y-139890000D01*
X78386000Y-147130000D02*
X78386000Y-139890000D01*
X78386000Y-147130000D02*
X81126000Y-147130000D01*
X81126000Y-147130000D02*
X81126000Y-139890000D01*
%TO.C,R16*%
X63143000Y-115951000D02*
X63913000Y-115951000D01*
X63913000Y-114935000D02*
X63913000Y-116967000D01*
X63913000Y-116967000D02*
X70453000Y-116967000D01*
X70453000Y-114935000D02*
X63913000Y-114935000D01*
X70453000Y-116967000D02*
X70453000Y-114935000D01*
X71223000Y-115951000D02*
X70453000Y-115951000D01*
%TO.C,R22*%
X87654000Y-85217000D02*
X88424000Y-85217000D01*
X88424000Y-84201000D02*
X88424000Y-86233000D01*
X88424000Y-86233000D02*
X94964000Y-86233000D01*
X94964000Y-84201000D02*
X88424000Y-84201000D01*
X94964000Y-86233000D02*
X94964000Y-84201000D01*
X95734000Y-85217000D02*
X94964000Y-85217000D01*
D12*
%TO.C,R3*%
X69090500Y-181102000D02*
X70106500Y-181102000D01*
X69090500Y-183134000D02*
X70106500Y-183134000D01*
D11*
%TO.C,R32*%
X51586000Y-61722000D02*
X52356000Y-61722000D01*
X52356000Y-60706000D02*
X52356000Y-62738000D01*
X52356000Y-62738000D02*
X58896000Y-62738000D01*
X58896000Y-60706000D02*
X52356000Y-60706000D01*
X58896000Y-62738000D02*
X58896000Y-60706000D01*
X59666000Y-61722000D02*
X58896000Y-61722000D01*
D12*
%TO.C,R18*%
X61978500Y-126746000D02*
X62994500Y-126746000D01*
X61978500Y-128778000D02*
X62994500Y-128778000D01*
D11*
%TO.C,U4*%
X67727000Y-96465000D02*
X67727000Y-114365000D01*
X67727000Y-114365000D02*
X72227000Y-114365000D01*
X68977000Y-96465000D02*
X67727000Y-96465000D01*
X72227000Y-96465000D02*
X70977000Y-96465000D01*
X72227000Y-114365000D02*
X72227000Y-96465000D01*
X64727000Y-96405000D02*
X75227000Y-96405000D01*
X75227000Y-114425000D01*
X64727000Y-114425000D01*
X64727000Y-96405000D01*
X70977000Y-96465000D02*
G75*
G02*
X68977000Y-96465000I-1000000J0D01*
G01*
%TO.C,RV4*%
X81290000Y-156415000D02*
X81290000Y-166165000D01*
X86340000Y-156415000D02*
X81290000Y-156415000D01*
X86340000Y-156415000D02*
X86340000Y-166165000D01*
X86340000Y-166165000D02*
X81290000Y-166165000D01*
%TO.C,Q4*%
X71954000Y-45488000D02*
X71954000Y-41888000D01*
X67504000Y-43688000D02*
G75*
G02*
X69005193Y-41331600I2600000J0D01*
G01*
X69005193Y-46044400D02*
G75*
G02*
X67504000Y-43688000I1098809J2356402D01*
G01*
X71226795Y-41363816D02*
G75*
G02*
X71954000Y-41888000I-1122795J-2324184D01*
G01*
X71954000Y-45488000D02*
G75*
G02*
X71226795Y-46012184I-1849994J1799991D01*
G01*
D12*
%TO.C,R19*%
X64008000Y-133096000D02*
X62992000Y-133096000D01*
X64008000Y-135128000D02*
X62992000Y-135128000D01*
D11*
%TO.C,U2*%
X61937000Y-173442000D02*
X66578000Y-173442000D01*
X61937000Y-176711000D02*
X63447000Y-176711000D01*
X61937000Y-180412000D02*
X63447000Y-180412000D01*
X61937000Y-183682000D02*
X61937000Y-173442000D01*
X61937000Y-183682000D02*
X66578000Y-183682000D01*
X63447000Y-183682000D02*
X63447000Y-173442000D01*
X66578000Y-183682000D02*
X66578000Y-173442000D01*
%TO.C,R44*%
X28980000Y-118110000D02*
X29750000Y-118110000D01*
X29750000Y-117094000D02*
X29750000Y-119126000D01*
X29750000Y-119126000D02*
X36290000Y-119126000D01*
X36290000Y-117094000D02*
X29750000Y-117094000D01*
X36290000Y-119126000D02*
X36290000Y-117094000D01*
X37060000Y-118110000D02*
X36290000Y-118110000D01*
%TO.C,R26*%
X77494000Y-80010000D02*
X78264000Y-80010000D01*
X78264000Y-78994000D02*
X78264000Y-81026000D01*
X78264000Y-81026000D02*
X84804000Y-81026000D01*
X84804000Y-78994000D02*
X78264000Y-78994000D01*
X84804000Y-81026000D02*
X84804000Y-78994000D01*
X85574000Y-80010000D02*
X84804000Y-80010000D01*
%TO.C,R36*%
X79526000Y-49657000D02*
X80296000Y-49657000D01*
X80296000Y-48641000D02*
X80296000Y-50673000D01*
X80296000Y-50673000D02*
X86836000Y-50673000D01*
X86836000Y-48641000D02*
X80296000Y-48641000D01*
X86836000Y-50673000D02*
X86836000Y-48641000D01*
X87606000Y-49657000D02*
X86836000Y-49657000D01*
%TO.C,Q5*%
X73334000Y-41888000D02*
X73334000Y-45488000D01*
X73334000Y-41888000D02*
G75*
G02*
X74061205Y-41363816I1849994J-1799991D01*
G01*
X74061205Y-46012184D02*
G75*
G02*
X73334000Y-45488000I1122795J2324184D01*
G01*
X76282807Y-41331600D02*
G75*
G02*
X77784000Y-43688000I-1098809J-2356402D01*
G01*
X77784000Y-43688000D02*
G75*
G02*
X76282807Y-46044400I-2600000J0D01*
G01*
%TO.C,C10*%
X50932000Y-162798000D02*
X50932000Y-170958000D01*
X50972000Y-162798000D02*
X50972000Y-170958000D01*
X51012000Y-162799000D02*
X51012000Y-170957000D01*
X51052000Y-162800000D02*
X51052000Y-170956000D01*
X51092000Y-162801000D02*
X51092000Y-170955000D01*
X51132000Y-162803000D02*
X51132000Y-170953000D01*
X51172000Y-162805000D02*
X51172000Y-170951000D01*
X51212000Y-162808000D02*
X51212000Y-170948000D01*
X51252000Y-162810000D02*
X51252000Y-170946000D01*
X51292000Y-162814000D02*
X51292000Y-170942000D01*
X51332000Y-162817000D02*
X51332000Y-170939000D01*
X51372000Y-162822000D02*
X51372000Y-170934000D01*
X51412000Y-162826000D02*
X51412000Y-170930000D01*
X51452000Y-162831000D02*
X51452000Y-170925000D01*
X51492000Y-162836000D02*
X51492000Y-170920000D01*
X51532000Y-162842000D02*
X51532000Y-170914000D01*
X51572000Y-162848000D02*
X51572000Y-170908000D01*
X51612000Y-162855000D02*
X51612000Y-170901000D01*
X51652000Y-162861000D02*
X51652000Y-170895000D01*
X51692000Y-162869000D02*
X51692000Y-170887000D01*
X51732000Y-162876000D02*
X51732000Y-170880000D01*
X51772000Y-162885000D02*
X51772000Y-170871000D01*
X51812000Y-162893000D02*
X51812000Y-165838000D01*
X51812000Y-167918000D02*
X51812000Y-170863000D01*
X51852000Y-162902000D02*
X51852000Y-165838000D01*
X51852000Y-167918000D02*
X51852000Y-170854000D01*
X51892000Y-162911000D02*
X51892000Y-165838000D01*
X51892000Y-167918000D02*
X51892000Y-170845000D01*
X51932000Y-162921000D02*
X51932000Y-165838000D01*
X51932000Y-167918000D02*
X51932000Y-170835000D01*
X51972000Y-162931000D02*
X51972000Y-165838000D01*
X51972000Y-167918000D02*
X51972000Y-170825000D01*
X52012000Y-162942000D02*
X52012000Y-165838000D01*
X52012000Y-167918000D02*
X52012000Y-170814000D01*
X52052000Y-162953000D02*
X52052000Y-165838000D01*
X52052000Y-167918000D02*
X52052000Y-170803000D01*
X52092000Y-162965000D02*
X52092000Y-165838000D01*
X52092000Y-167918000D02*
X52092000Y-170791000D01*
X52132000Y-162977000D02*
X52132000Y-165838000D01*
X52132000Y-167918000D02*
X52132000Y-170779000D01*
X52172000Y-162989000D02*
X52172000Y-165838000D01*
X52172000Y-167918000D02*
X52172000Y-170767000D01*
X52212000Y-163002000D02*
X52212000Y-165838000D01*
X52212000Y-167918000D02*
X52212000Y-170754000D01*
X52252000Y-163015000D02*
X52252000Y-165838000D01*
X52252000Y-167918000D02*
X52252000Y-170741000D01*
X52292000Y-163029000D02*
X52292000Y-165838000D01*
X52292000Y-167918000D02*
X52292000Y-170727000D01*
X52332000Y-163043000D02*
X52332000Y-165838000D01*
X52332000Y-167918000D02*
X52332000Y-170713000D01*
X52372000Y-163058000D02*
X52372000Y-165838000D01*
X52372000Y-167918000D02*
X52372000Y-170698000D01*
X52412000Y-163073000D02*
X52412000Y-165838000D01*
X52412000Y-167918000D02*
X52412000Y-170683000D01*
X52452000Y-163089000D02*
X52452000Y-165838000D01*
X52452000Y-167918000D02*
X52452000Y-170667000D01*
X52492000Y-163105000D02*
X52492000Y-165838000D01*
X52492000Y-167918000D02*
X52492000Y-170651000D01*
X52532000Y-163121000D02*
X52532000Y-165838000D01*
X52532000Y-167918000D02*
X52532000Y-170635000D01*
X52572000Y-163138000D02*
X52572000Y-165838000D01*
X52572000Y-167918000D02*
X52572000Y-170618000D01*
X52612000Y-163156000D02*
X52612000Y-165838000D01*
X52612000Y-167918000D02*
X52612000Y-170600000D01*
X52652000Y-163174000D02*
X52652000Y-165838000D01*
X52652000Y-167918000D02*
X52652000Y-170582000D01*
X52692000Y-163193000D02*
X52692000Y-165838000D01*
X52692000Y-167918000D02*
X52692000Y-170563000D01*
X52732000Y-163212000D02*
X52732000Y-165838000D01*
X52732000Y-167918000D02*
X52732000Y-170544000D01*
X52772000Y-163232000D02*
X52772000Y-165838000D01*
X52772000Y-167918000D02*
X52772000Y-170524000D01*
X52812000Y-163252000D02*
X52812000Y-165838000D01*
X52812000Y-167918000D02*
X52812000Y-170504000D01*
X52852000Y-163273000D02*
X52852000Y-165838000D01*
X52852000Y-167918000D02*
X52852000Y-170483000D01*
X52892000Y-163294000D02*
X52892000Y-165838000D01*
X52892000Y-167918000D02*
X52892000Y-170462000D01*
X52932000Y-163316000D02*
X52932000Y-165838000D01*
X52932000Y-167918000D02*
X52932000Y-170440000D01*
X52972000Y-163339000D02*
X52972000Y-165838000D01*
X52972000Y-167918000D02*
X52972000Y-170417000D01*
X53012000Y-163362000D02*
X53012000Y-165838000D01*
X53012000Y-167918000D02*
X53012000Y-170394000D01*
X53052000Y-163385000D02*
X53052000Y-165838000D01*
X53052000Y-167918000D02*
X53052000Y-170371000D01*
X53092000Y-163410000D02*
X53092000Y-165838000D01*
X53092000Y-167918000D02*
X53092000Y-170346000D01*
X53132000Y-163435000D02*
X53132000Y-165838000D01*
X53132000Y-167918000D02*
X53132000Y-170321000D01*
X53172000Y-163460000D02*
X53172000Y-165838000D01*
X53172000Y-167918000D02*
X53172000Y-170296000D01*
X53212000Y-163486000D02*
X53212000Y-165838000D01*
X53212000Y-167918000D02*
X53212000Y-170270000D01*
X53252000Y-163513000D02*
X53252000Y-165838000D01*
X53252000Y-167918000D02*
X53252000Y-170243000D01*
X53292000Y-163541000D02*
X53292000Y-165838000D01*
X53292000Y-167918000D02*
X53292000Y-170215000D01*
X53332000Y-163569000D02*
X53332000Y-165838000D01*
X53332000Y-167918000D02*
X53332000Y-170187000D01*
X53372000Y-163598000D02*
X53372000Y-165838000D01*
X53372000Y-167918000D02*
X53372000Y-170158000D01*
X53412000Y-163628000D02*
X53412000Y-165838000D01*
X53412000Y-167918000D02*
X53412000Y-170128000D01*
X53452000Y-163659000D02*
X53452000Y-165838000D01*
X53452000Y-167918000D02*
X53452000Y-170097000D01*
X53492000Y-163690000D02*
X53492000Y-165838000D01*
X53492000Y-167918000D02*
X53492000Y-170066000D01*
X53532000Y-163722000D02*
X53532000Y-165838000D01*
X53532000Y-167918000D02*
X53532000Y-170034000D01*
X53572000Y-163755000D02*
X53572000Y-165838000D01*
X53572000Y-167918000D02*
X53572000Y-170001000D01*
X53612000Y-163789000D02*
X53612000Y-165838000D01*
X53612000Y-167918000D02*
X53612000Y-169967000D01*
X53652000Y-163823000D02*
X53652000Y-165838000D01*
X53652000Y-167918000D02*
X53652000Y-169933000D01*
X53692000Y-163859000D02*
X53692000Y-165838000D01*
X53692000Y-167918000D02*
X53692000Y-169897000D01*
X53732000Y-163896000D02*
X53732000Y-165838000D01*
X53732000Y-167918000D02*
X53732000Y-169860000D01*
X53772000Y-163933000D02*
X53772000Y-165838000D01*
X53772000Y-167918000D02*
X53772000Y-169823000D01*
X53812000Y-163972000D02*
X53812000Y-165838000D01*
X53812000Y-167918000D02*
X53812000Y-169784000D01*
X53852000Y-164011000D02*
X53852000Y-165838000D01*
X53852000Y-167918000D02*
X53852000Y-169745000D01*
X53892000Y-164052000D02*
X53892000Y-169704000D01*
X53932000Y-164094000D02*
X53932000Y-169662000D01*
X53972000Y-164137000D02*
X53972000Y-169619000D01*
X54012000Y-164182000D02*
X54012000Y-169574000D01*
X54052000Y-164227000D02*
X54052000Y-169529000D01*
X54092000Y-164274000D02*
X54092000Y-169482000D01*
X54132000Y-164323000D02*
X54132000Y-169433000D01*
X54172000Y-164373000D02*
X54172000Y-169383000D01*
X54212000Y-164425000D02*
X54212000Y-169331000D01*
X54252000Y-164478000D02*
X54252000Y-169278000D01*
X54292000Y-164534000D02*
X54292000Y-169222000D01*
X54332000Y-164591000D02*
X54332000Y-169165000D01*
X54372000Y-164651000D02*
X54372000Y-169105000D01*
X54412000Y-164713000D02*
X54412000Y-169043000D01*
X54452000Y-164777000D02*
X54452000Y-168979000D01*
X54492000Y-164844000D02*
X54492000Y-168912000D01*
X54532000Y-164914000D02*
X54532000Y-168842000D01*
X54572000Y-164988000D02*
X54572000Y-168768000D01*
X54612000Y-165065000D02*
X54612000Y-168691000D01*
X54652000Y-165147000D02*
X54652000Y-168609000D01*
X54692000Y-165234000D02*
X54692000Y-168522000D01*
X54732000Y-165326000D02*
X54732000Y-168430000D01*
X54772000Y-165425000D02*
X54772000Y-168331000D01*
X54812000Y-165532000D02*
X54812000Y-168224000D01*
X54852000Y-165650000D02*
X54852000Y-168106000D01*
X54892000Y-165781000D02*
X54892000Y-167975000D01*
X54932000Y-165931000D02*
X54932000Y-167825000D01*
X54972000Y-166110000D02*
X54972000Y-167646000D01*
X55012000Y-166345000D02*
X55012000Y-167411000D01*
X55052000Y-166878000D02*
G75*
G02*
X46812000Y-166878000I-4120000J0D01*
G01*
X46812000Y-166878000D02*
G75*
G02*
X55052000Y-166878000I4120000J0D01*
G01*
%TO.C,C5*%
X52514000Y-183234000D02*
X52514000Y-180494000D01*
X59754000Y-180494000D02*
X52514000Y-180494000D01*
X59754000Y-183234000D02*
X52514000Y-183234000D01*
X59754000Y-183234000D02*
X59754000Y-180494000D01*
%TO.C,R42*%
X28980000Y-62230000D02*
X29750000Y-62230000D01*
X29750000Y-61214000D02*
X29750000Y-63246000D01*
X29750000Y-63246000D02*
X36290000Y-63246000D01*
X36290000Y-61214000D02*
X29750000Y-61214000D01*
X36290000Y-63246000D02*
X36290000Y-61214000D01*
X37060000Y-62230000D02*
X36290000Y-62230000D01*
%TO.C,RV5*%
X81554000Y-126697000D02*
X86604000Y-126697000D01*
X81554000Y-136447000D02*
X81554000Y-126697000D01*
X81554000Y-136447000D02*
X86604000Y-136447000D01*
X86604000Y-136447000D02*
X86604000Y-126697000D01*
%TO.C,R21*%
X97758000Y-81534000D02*
X91218000Y-81534000D01*
X97758000Y-83566000D02*
X91218000Y-83566000D01*
%TO.C,Q3*%
X58094000Y-143996000D02*
X58094000Y-147596000D01*
X58094000Y-143996000D02*
G75*
G02*
X58821205Y-143471816I1849994J-1799991D01*
G01*
X58821205Y-148120184D02*
G75*
G02*
X58094000Y-147596000I1122795J2324184D01*
G01*
X61042807Y-143439600D02*
G75*
G02*
X62544000Y-145796000I-1098809J-2356402D01*
G01*
X62544000Y-145796000D02*
G75*
G02*
X61042807Y-148152400I-2600000J0D01*
G01*
%TO.C,D3*%
X67080000Y-75946000D02*
X67730000Y-75946000D01*
X67730000Y-74826000D02*
X67730000Y-77066000D01*
X67730000Y-77066000D02*
X71970000Y-77066000D01*
X68330000Y-74826000D02*
X68330000Y-77066000D01*
X68450000Y-74826000D02*
X68450000Y-77066000D01*
X68570000Y-74826000D02*
X68570000Y-77066000D01*
X71970000Y-74826000D02*
X67730000Y-74826000D01*
X71970000Y-77066000D02*
X71970000Y-74826000D01*
X72620000Y-75946000D02*
X71970000Y-75946000D01*
%TO.C,R7*%
X55880000Y-163100000D02*
X55880000Y-169640000D01*
X55880000Y-169640000D02*
X57912000Y-169640000D01*
X56896000Y-162330000D02*
X56896000Y-163100000D01*
X56896000Y-170410000D02*
X56896000Y-169640000D01*
X57912000Y-163100000D02*
X55880000Y-163100000D01*
X57912000Y-169640000D02*
X57912000Y-163100000D01*
D12*
%TO.C,R14*%
X78740000Y-132334000D02*
X78740000Y-131318000D01*
X80772000Y-132334000D02*
X80772000Y-131318000D01*
D11*
%TO.C,C16*%
X56832000Y-73760000D02*
X56832000Y-71020000D01*
X64072000Y-71020000D02*
X56832000Y-71020000D01*
X64072000Y-73760000D02*
X56832000Y-73760000D01*
X64072000Y-73760000D02*
X64072000Y-71020000D01*
%TO.C,Q2*%
X72462000Y-159280000D02*
X72462000Y-155680000D01*
X68012000Y-157480000D02*
G75*
G02*
X69513193Y-155123600I2600000J0D01*
G01*
X69513193Y-159836400D02*
G75*
G02*
X68012000Y-157480000I1098809J2356402D01*
G01*
X71734795Y-155155816D02*
G75*
G02*
X72462000Y-155680000I-1122795J-2324184D01*
G01*
X72462000Y-159280000D02*
G75*
G02*
X71734795Y-159804184I-1849994J1799991D01*
G01*
%TO.C,RV9*%
X54366000Y-111838000D02*
X54366000Y-121588000D01*
X59416000Y-111838000D02*
X54366000Y-111838000D01*
X59416000Y-111838000D02*
X59416000Y-121588000D01*
X59416000Y-121588000D02*
X54366000Y-121588000D01*
%TO.C,C9*%
X78382000Y-139546000D02*
X78382000Y-136806000D01*
X85622000Y-136806000D02*
X78382000Y-136806000D01*
X85622000Y-139546000D02*
X78382000Y-139546000D01*
X85622000Y-139546000D02*
X85622000Y-136806000D01*
D12*
%TO.C,R47*%
X34798000Y-172974000D02*
X33782000Y-172974000D01*
X34798000Y-175006000D02*
X33782000Y-175006000D01*
D11*
%TO.C,R10*%
X69874000Y-148844000D02*
X70644000Y-148844000D01*
X70644000Y-147828000D02*
X70644000Y-149860000D01*
X70644000Y-149860000D02*
X77184000Y-149860000D01*
X77184000Y-147828000D02*
X70644000Y-147828000D01*
X77184000Y-149860000D02*
X77184000Y-147828000D01*
X77954000Y-148844000D02*
X77184000Y-148844000D01*
%TO.C,R9*%
X69874000Y-151638000D02*
X70644000Y-151638000D01*
X70644000Y-150622000D02*
X70644000Y-152654000D01*
X70644000Y-152654000D02*
X77184000Y-152654000D01*
X77184000Y-150622000D02*
X70644000Y-150622000D01*
X77184000Y-152654000D02*
X77184000Y-150622000D01*
X77954000Y-151638000D02*
X77184000Y-151638000D01*
%TO.C,R1*%
X94512000Y-178816000D02*
X95282000Y-178816000D01*
X95282000Y-177800000D02*
X95282000Y-179832000D01*
X95282000Y-179832000D02*
X101822000Y-179832000D01*
X101822000Y-177800000D02*
X95282000Y-177800000D01*
X101822000Y-179832000D02*
X101822000Y-177800000D01*
X102592000Y-178816000D02*
X101822000Y-178816000D01*
%TO.C,C6*%
X59372000Y-172058000D02*
X59372000Y-169318000D01*
X66612000Y-169318000D02*
X59372000Y-169318000D01*
X66612000Y-172058000D02*
X59372000Y-172058000D01*
X66612000Y-172058000D02*
X66612000Y-169318000D01*
%TO.C,RV6*%
X54366000Y-125427000D02*
X54366000Y-135177000D01*
X59416000Y-125427000D02*
X54366000Y-125427000D01*
X59416000Y-125427000D02*
X59416000Y-135177000D01*
X59416000Y-135177000D02*
X54366000Y-135177000D01*
%TO.C,C22*%
X46890000Y-171640000D02*
X49630000Y-171640000D01*
X46890000Y-178880000D02*
X46890000Y-171640000D01*
X46890000Y-178880000D02*
X49630000Y-178880000D01*
X49630000Y-178880000D02*
X49630000Y-171640000D01*
D12*
%TO.C,R46*%
X32004000Y-178562000D02*
X32004000Y-179578000D01*
X34036000Y-178562000D02*
X34036000Y-179578000D01*
D11*
%TO.C,C2*%
X63654000Y-142176000D02*
X66394000Y-142176000D01*
X63654000Y-149416000D02*
X63654000Y-142176000D01*
X63654000Y-149416000D02*
X66394000Y-149416000D01*
X66394000Y-149416000D02*
X66394000Y-142176000D01*
D12*
%TO.C,R37*%
X70866000Y-48641000D02*
X74422000Y-48641000D01*
X70866000Y-50673000D02*
X74422000Y-50673000D01*
%TO.C,R6*%
X87884000Y-153416000D02*
X84328000Y-153416000D01*
X87884000Y-155448000D02*
X84328000Y-155448000D01*
D11*
%TO.C,RV11*%
X53545000Y-56876000D02*
X53545000Y-51826000D01*
X63295000Y-51826000D02*
X53545000Y-51826000D01*
X63295000Y-56876000D02*
X53545000Y-56876000D01*
X63295000Y-56876000D02*
X63295000Y-51826000D01*
D12*
%TO.C,R28*%
X75946000Y-70614500D02*
X75946000Y-71630500D01*
X77978000Y-70614500D02*
X77978000Y-71630500D01*
D11*
%TO.C,R39*%
X80288000Y-37338000D02*
X81058000Y-37338000D01*
X81058000Y-36322000D02*
X81058000Y-38354000D01*
X81058000Y-38354000D02*
X87598000Y-38354000D01*
X87598000Y-36322000D02*
X81058000Y-36322000D01*
X87598000Y-38354000D02*
X87598000Y-36322000D01*
X88368000Y-37338000D02*
X87598000Y-37338000D01*
%TO.C,J1*%
X54480000Y-185088500D02*
X81800000Y-185088500D01*
X54480000Y-193128500D02*
X54480000Y-185088500D01*
X55288000Y-188508500D02*
X54480000Y-188508500D01*
X55288000Y-189508500D02*
X54480000Y-189508500D01*
X56557000Y-187208500D02*
X54480000Y-187208500D01*
X60288000Y-188508500D02*
X58912000Y-188508500D01*
X60288000Y-189508500D02*
X58912000Y-189508500D01*
X61557000Y-187208500D02*
X57643000Y-187208500D01*
X65288000Y-188508500D02*
X63912000Y-188508500D01*
X65288000Y-189508500D02*
X63912000Y-189508500D01*
X66557000Y-187208500D02*
X62643000Y-187208500D01*
X70288000Y-188508500D02*
X68912000Y-188508500D01*
X70288000Y-189508500D02*
X68912000Y-189508500D01*
X71557000Y-187208500D02*
X67643000Y-187208500D01*
X75288000Y-188508500D02*
X73912000Y-188508500D01*
X75288000Y-189508500D02*
X73912000Y-189508500D01*
X76557000Y-187208500D02*
X72643000Y-187208500D01*
X80220000Y-187208500D02*
X77643000Y-187208500D01*
X80220000Y-188508500D02*
X78912000Y-188508500D01*
X80220000Y-189508500D02*
X78912000Y-189508500D01*
X82400000Y-185088500D02*
X85220000Y-185088500D01*
X85220000Y-185088500D02*
X85220000Y-193128500D01*
X85220000Y-187208500D02*
X83980000Y-187208500D01*
X85220000Y-188508500D02*
X83980000Y-188508500D01*
X85220000Y-189508500D02*
X83980000Y-189508500D01*
X85220000Y-193128500D02*
X54480000Y-193128500D01*
D12*
%TO.C,R5*%
X78486000Y-165605500D02*
X78486000Y-164589500D01*
X80518000Y-165605500D02*
X80518000Y-164589500D01*
D11*
%TO.C,C1*%
X63400000Y-160210000D02*
X63400000Y-167450000D01*
X66140000Y-160210000D02*
X63400000Y-160210000D01*
X66140000Y-160210000D02*
X66140000Y-167450000D01*
X66140000Y-167450000D02*
X63400000Y-167450000D01*
%TO.C,R35*%
X81558000Y-41148000D02*
X82328000Y-41148000D01*
X82328000Y-40132000D02*
X82328000Y-42164000D01*
X82328000Y-42164000D02*
X88868000Y-42164000D01*
X88868000Y-40132000D02*
X82328000Y-40132000D01*
X88868000Y-42164000D02*
X88868000Y-40132000D01*
X89638000Y-41148000D02*
X88868000Y-41148000D01*
%TO.C,C20*%
X54673000Y-38581000D02*
X54673000Y-35841000D01*
X61913000Y-35841000D02*
X54673000Y-35841000D01*
X61913000Y-38581000D02*
X54673000Y-38581000D01*
X61913000Y-38581000D02*
X61913000Y-35841000D01*
D12*
%TO.C,R20*%
X78486000Y-96012000D02*
X78486000Y-99568000D01*
X80518000Y-96012000D02*
X80518000Y-99568000D01*
D11*
%TO.C,U1*%
X70394000Y-162505000D02*
X70394000Y-180405000D01*
X70394000Y-180405000D02*
X74894000Y-180405000D01*
X71644000Y-162505000D02*
X70394000Y-162505000D01*
X74894000Y-162505000D02*
X73644000Y-162505000D01*
X74894000Y-180405000D02*
X74894000Y-162505000D01*
X67394000Y-162445000D02*
X77894000Y-162445000D01*
X77894000Y-180465000D01*
X67394000Y-180465000D01*
X67394000Y-162445000D01*
X73644000Y-162505000D02*
G75*
G02*
X71644000Y-162505000I-1000000J0D01*
G01*
%TO.C,U5*%
X67600000Y-82744000D02*
X67600000Y-93024000D01*
X67600000Y-93024000D02*
X68850000Y-93024000D01*
X70850000Y-93024000D02*
X72100000Y-93024000D01*
X72100000Y-82744000D02*
X67600000Y-82744000D01*
X72100000Y-93024000D02*
X72100000Y-82744000D01*
X75100000Y-93084000D02*
X64600000Y-93084000D01*
X64600000Y-82684000D01*
X75100000Y-82684000D01*
X75100000Y-93084000D01*
X68850000Y-93024000D02*
G75*
G02*
X70850000Y-93024000I1000000J0D01*
G01*
%TO.C,C21*%
X73596000Y-30961000D02*
X73596000Y-28221000D01*
X80836000Y-28221000D02*
X73596000Y-28221000D01*
X80836000Y-30961000D02*
X73596000Y-30961000D01*
X80836000Y-30961000D02*
X80836000Y-28221000D01*
%TO.C,C13*%
X75882000Y-106780000D02*
X75882000Y-104040000D01*
X83122000Y-104040000D02*
X75882000Y-104040000D01*
X83122000Y-106780000D02*
X75882000Y-106780000D01*
X83122000Y-106780000D02*
X83122000Y-104040000D01*
%TO.C,R38*%
X77494000Y-60452000D02*
X78264000Y-60452000D01*
X78264000Y-59436000D02*
X78264000Y-61468000D01*
X78264000Y-61468000D02*
X84804000Y-61468000D01*
X84804000Y-59436000D02*
X78264000Y-59436000D01*
X84804000Y-61468000D02*
X84804000Y-59436000D01*
X85574000Y-60452000D02*
X84804000Y-60452000D01*
%TO.C,SW1*%
D12*
X53388000Y-108100000D02*
X59388000Y-108100000D01*
X59388000Y-95100000D01*
X53388000Y-95100000D01*
X53388000Y-108100000D01*
D11*
%TO.C,R15*%
X59912000Y-173736000D02*
X53372000Y-173736000D01*
X59912000Y-175768000D02*
X53372000Y-175768000D01*
%TO.C,R29*%
X78740000Y-70390000D02*
X78740000Y-76930000D01*
X80772000Y-70390000D02*
X80772000Y-76930000D01*
%TO.C,R23*%
X81026000Y-91980000D02*
X81026000Y-98520000D01*
X81026000Y-98520000D02*
X83058000Y-98520000D01*
X82042000Y-91210000D02*
X82042000Y-91980000D01*
X82042000Y-99290000D02*
X82042000Y-98520000D01*
X83058000Y-91980000D02*
X81026000Y-91980000D01*
X83058000Y-98520000D02*
X83058000Y-91980000D01*
%TO.C,C11*%
X80756000Y-180111000D02*
X80756000Y-179045000D01*
X80796000Y-180346000D02*
X80796000Y-178810000D01*
X80836000Y-180525000D02*
X80836000Y-178631000D01*
X80876000Y-180675000D02*
X80876000Y-178481000D01*
X80916000Y-180806000D02*
X80916000Y-178350000D01*
X80956000Y-180924000D02*
X80956000Y-178232000D01*
X80996000Y-181031000D02*
X80996000Y-178125000D01*
X81036000Y-181130000D02*
X81036000Y-178026000D01*
X81076000Y-181222000D02*
X81076000Y-177934000D01*
X81116000Y-181309000D02*
X81116000Y-177847000D01*
X81156000Y-181391000D02*
X81156000Y-177765000D01*
X81196000Y-181468000D02*
X81196000Y-177688000D01*
X81236000Y-181542000D02*
X81236000Y-177614000D01*
X81276000Y-181612000D02*
X81276000Y-177544000D01*
X81316000Y-181679000D02*
X81316000Y-177477000D01*
X81356000Y-181743000D02*
X81356000Y-177413000D01*
X81396000Y-181805000D02*
X81396000Y-177351000D01*
X81436000Y-181865000D02*
X81436000Y-177291000D01*
X81476000Y-181922000D02*
X81476000Y-177234000D01*
X81516000Y-181978000D02*
X81516000Y-177178000D01*
X81556000Y-182031000D02*
X81556000Y-177125000D01*
X81596000Y-182083000D02*
X81596000Y-177073000D01*
X81636000Y-182133000D02*
X81636000Y-177023000D01*
X81676000Y-182182000D02*
X81676000Y-176974000D01*
X81716000Y-182229000D02*
X81716000Y-176927000D01*
X81756000Y-182274000D02*
X81756000Y-176882000D01*
X81796000Y-182319000D02*
X81796000Y-176837000D01*
X81836000Y-182362000D02*
X81836000Y-176794000D01*
X81876000Y-182404000D02*
X81876000Y-176752000D01*
X81916000Y-178538000D02*
X81916000Y-176711000D01*
X81916000Y-182445000D02*
X81916000Y-180618000D01*
X81956000Y-178538000D02*
X81956000Y-176672000D01*
X81956000Y-182484000D02*
X81956000Y-180618000D01*
X81996000Y-178538000D02*
X81996000Y-176633000D01*
X81996000Y-182523000D02*
X81996000Y-180618000D01*
X82036000Y-178538000D02*
X82036000Y-176596000D01*
X82036000Y-182560000D02*
X82036000Y-180618000D01*
X82076000Y-178538000D02*
X82076000Y-176559000D01*
X82076000Y-182597000D02*
X82076000Y-180618000D01*
X82116000Y-178538000D02*
X82116000Y-176523000D01*
X82116000Y-182633000D02*
X82116000Y-180618000D01*
X82156000Y-178538000D02*
X82156000Y-176489000D01*
X82156000Y-182667000D02*
X82156000Y-180618000D01*
X82196000Y-178538000D02*
X82196000Y-176455000D01*
X82196000Y-182701000D02*
X82196000Y-180618000D01*
X82236000Y-178538000D02*
X82236000Y-176422000D01*
X82236000Y-182734000D02*
X82236000Y-180618000D01*
X82276000Y-178538000D02*
X82276000Y-176390000D01*
X82276000Y-182766000D02*
X82276000Y-180618000D01*
X82316000Y-178538000D02*
X82316000Y-176359000D01*
X82316000Y-182797000D02*
X82316000Y-180618000D01*
X82356000Y-178538000D02*
X82356000Y-176328000D01*
X82356000Y-182828000D02*
X82356000Y-180618000D01*
X82396000Y-178538000D02*
X82396000Y-176298000D01*
X82396000Y-182858000D02*
X82396000Y-180618000D01*
X82436000Y-178538000D02*
X82436000Y-176269000D01*
X82436000Y-182887000D02*
X82436000Y-180618000D01*
X82476000Y-178538000D02*
X82476000Y-176241000D01*
X82476000Y-182915000D02*
X82476000Y-180618000D01*
X82516000Y-178538000D02*
X82516000Y-176213000D01*
X82516000Y-182943000D02*
X82516000Y-180618000D01*
X82556000Y-178538000D02*
X82556000Y-176186000D01*
X82556000Y-182970000D02*
X82556000Y-180618000D01*
X82596000Y-178538000D02*
X82596000Y-176160000D01*
X82596000Y-182996000D02*
X82596000Y-180618000D01*
X82636000Y-178538000D02*
X82636000Y-176135000D01*
X82636000Y-183021000D02*
X82636000Y-180618000D01*
X82676000Y-178538000D02*
X82676000Y-176110000D01*
X82676000Y-183046000D02*
X82676000Y-180618000D01*
X82716000Y-178538000D02*
X82716000Y-176085000D01*
X82716000Y-183071000D02*
X82716000Y-180618000D01*
X82756000Y-178538000D02*
X82756000Y-176062000D01*
X82756000Y-183094000D02*
X82756000Y-180618000D01*
X82796000Y-178538000D02*
X82796000Y-176039000D01*
X82796000Y-183117000D02*
X82796000Y-180618000D01*
X82836000Y-178538000D02*
X82836000Y-176016000D01*
X82836000Y-183140000D02*
X82836000Y-180618000D01*
X82876000Y-178538000D02*
X82876000Y-175994000D01*
X82876000Y-183162000D02*
X82876000Y-180618000D01*
X82916000Y-178538000D02*
X82916000Y-175973000D01*
X82916000Y-183183000D02*
X82916000Y-180618000D01*
X82956000Y-178538000D02*
X82956000Y-175952000D01*
X82956000Y-183204000D02*
X82956000Y-180618000D01*
X82996000Y-178538000D02*
X82996000Y-175932000D01*
X82996000Y-183224000D02*
X82996000Y-180618000D01*
X83036000Y-178538000D02*
X83036000Y-175912000D01*
X83036000Y-183244000D02*
X83036000Y-180618000D01*
X83076000Y-178538000D02*
X83076000Y-175893000D01*
X83076000Y-183263000D02*
X83076000Y-180618000D01*
X83116000Y-178538000D02*
X83116000Y-175874000D01*
X83116000Y-183282000D02*
X83116000Y-180618000D01*
X83156000Y-178538000D02*
X83156000Y-175856000D01*
X83156000Y-183300000D02*
X83156000Y-180618000D01*
X83196000Y-178538000D02*
X83196000Y-175838000D01*
X83196000Y-183318000D02*
X83196000Y-180618000D01*
X83236000Y-178538000D02*
X83236000Y-175821000D01*
X83236000Y-183335000D02*
X83236000Y-180618000D01*
X83276000Y-178538000D02*
X83276000Y-175805000D01*
X83276000Y-183351000D02*
X83276000Y-180618000D01*
X83316000Y-178538000D02*
X83316000Y-175789000D01*
X83316000Y-183367000D02*
X83316000Y-180618000D01*
X83356000Y-178538000D02*
X83356000Y-175773000D01*
X83356000Y-183383000D02*
X83356000Y-180618000D01*
X83396000Y-178538000D02*
X83396000Y-175758000D01*
X83396000Y-183398000D02*
X83396000Y-180618000D01*
X83436000Y-178538000D02*
X83436000Y-175743000D01*
X83436000Y-183413000D02*
X83436000Y-180618000D01*
X83476000Y-178538000D02*
X83476000Y-175729000D01*
X83476000Y-183427000D02*
X83476000Y-180618000D01*
X83516000Y-178538000D02*
X83516000Y-175715000D01*
X83516000Y-183441000D02*
X83516000Y-180618000D01*
X83556000Y-178538000D02*
X83556000Y-175702000D01*
X83556000Y-183454000D02*
X83556000Y-180618000D01*
X83596000Y-178538000D02*
X83596000Y-175689000D01*
X83596000Y-183467000D02*
X83596000Y-180618000D01*
X83636000Y-178538000D02*
X83636000Y-175677000D01*
X83636000Y-183479000D02*
X83636000Y-180618000D01*
X83676000Y-178538000D02*
X83676000Y-175665000D01*
X83676000Y-183491000D02*
X83676000Y-180618000D01*
X83716000Y-178538000D02*
X83716000Y-175653000D01*
X83716000Y-183503000D02*
X83716000Y-180618000D01*
X83756000Y-178538000D02*
X83756000Y-175642000D01*
X83756000Y-183514000D02*
X83756000Y-180618000D01*
X83796000Y-178538000D02*
X83796000Y-175631000D01*
X83796000Y-183525000D02*
X83796000Y-180618000D01*
X83836000Y-178538000D02*
X83836000Y-175621000D01*
X83836000Y-183535000D02*
X83836000Y-180618000D01*
X83876000Y-178538000D02*
X83876000Y-175611000D01*
X83876000Y-183545000D02*
X83876000Y-180618000D01*
X83916000Y-178538000D02*
X83916000Y-175602000D01*
X83916000Y-183554000D02*
X83916000Y-180618000D01*
X83956000Y-178538000D02*
X83956000Y-175593000D01*
X83956000Y-183563000D02*
X83956000Y-180618000D01*
X83996000Y-183571000D02*
X83996000Y-175585000D01*
X84036000Y-183580000D02*
X84036000Y-175576000D01*
X84076000Y-183587000D02*
X84076000Y-175569000D01*
X84116000Y-183595000D02*
X84116000Y-175561000D01*
X84156000Y-183601000D02*
X84156000Y-175555000D01*
X84196000Y-183608000D02*
X84196000Y-175548000D01*
X84236000Y-183614000D02*
X84236000Y-175542000D01*
X84276000Y-183620000D02*
X84276000Y-175536000D01*
X84316000Y-183625000D02*
X84316000Y-175531000D01*
X84356000Y-183630000D02*
X84356000Y-175526000D01*
X84396000Y-183634000D02*
X84396000Y-175522000D01*
X84436000Y-183639000D02*
X84436000Y-175517000D01*
X84476000Y-183642000D02*
X84476000Y-175514000D01*
X84516000Y-183646000D02*
X84516000Y-175510000D01*
X84556000Y-183648000D02*
X84556000Y-175508000D01*
X84596000Y-183651000D02*
X84596000Y-175505000D01*
X84636000Y-183653000D02*
X84636000Y-175503000D01*
X84676000Y-183655000D02*
X84676000Y-175501000D01*
X84716000Y-183656000D02*
X84716000Y-175500000D01*
X84756000Y-183657000D02*
X84756000Y-175499000D01*
X84796000Y-183658000D02*
X84796000Y-175498000D01*
X84836000Y-183658000D02*
X84836000Y-175498000D01*
X88956000Y-179578000D02*
G75*
G02*
X80716000Y-179578000I-4120000J0D01*
G01*
X80716000Y-179578000D02*
G75*
G02*
X88956000Y-179578000I4120000J0D01*
G01*
D12*
%TO.C,R4*%
X77213500Y-181102000D02*
X76197500Y-181102000D01*
X77213500Y-183134000D02*
X76197500Y-183134000D01*
D11*
%TO.C,U8*%
X38390000Y-176470000D02*
X38390000Y-186750000D01*
X38390000Y-186750000D02*
X42890000Y-186750000D01*
X39640000Y-176470000D02*
X38390000Y-176470000D01*
X42890000Y-176470000D02*
X41640000Y-176470000D01*
X42890000Y-186750000D02*
X42890000Y-176470000D01*
X35390000Y-176410000D02*
X45890000Y-176410000D01*
X45890000Y-186810000D01*
X35390000Y-186810000D01*
X35390000Y-176410000D01*
X41640000Y-176470000D02*
G75*
G02*
X39640000Y-176470000I-1000000J0D01*
G01*
D12*
%TO.C,R27*%
X58293000Y-80518000D02*
X57277000Y-80518000D01*
X58293000Y-82550000D02*
X57277000Y-82550000D01*
%TO.C,R31*%
X61468000Y-67693500D02*
X61468000Y-68709500D01*
X63500000Y-67693500D02*
X63500000Y-68709500D01*
D11*
%TO.C,RV13*%
X62268000Y-21991000D02*
X62268000Y-27041000D01*
X62268000Y-21991000D02*
X72018000Y-21991000D01*
X62268000Y-27041000D02*
X72018000Y-27041000D01*
X72018000Y-21991000D02*
X72018000Y-27041000D01*
%TO.C,U6*%
X67600000Y-63440000D02*
X67600000Y-73720000D01*
X67600000Y-73720000D02*
X68850000Y-73720000D01*
X70850000Y-73720000D02*
X72100000Y-73720000D01*
X72100000Y-63440000D02*
X67600000Y-63440000D01*
X72100000Y-73720000D02*
X72100000Y-63440000D01*
X75100000Y-73780000D02*
X64600000Y-73780000D01*
X64600000Y-63380000D01*
X75100000Y-63380000D01*
X75100000Y-73780000D01*
X68850000Y-73720000D02*
G75*
G02*
X70850000Y-73720000I1000000J0D01*
G01*
%TO.C,C7*%
X78422000Y-172820000D02*
X78422000Y-170080000D01*
X85662000Y-170080000D02*
X78422000Y-170080000D01*
X85662000Y-172820000D02*
X78422000Y-172820000D01*
X85662000Y-172820000D02*
X85662000Y-170080000D01*
%TO.C,R2*%
X95020000Y-151384000D02*
X95790000Y-151384000D01*
X95790000Y-150368000D02*
X95790000Y-152400000D01*
X95790000Y-152400000D02*
X102330000Y-152400000D01*
X102330000Y-150368000D02*
X95790000Y-150368000D01*
X102330000Y-152400000D02*
X102330000Y-150368000D01*
X103100000Y-151384000D02*
X102330000Y-151384000D01*
%TO.C,C8*%
X59666000Y-139546000D02*
X59666000Y-136806000D01*
X66906000Y-136806000D02*
X59666000Y-136806000D01*
X66906000Y-139546000D02*
X59666000Y-139546000D01*
X66906000Y-139546000D02*
X66906000Y-136806000D01*
%TO.C,R11*%
X83598000Y-145288000D02*
X90138000Y-145288000D01*
X83598000Y-147320000D02*
X90138000Y-147320000D01*
%TO.C,C17*%
X75628000Y-66140000D02*
X75628000Y-63400000D01*
X82868000Y-63400000D02*
X75628000Y-63400000D01*
X82868000Y-66140000D02*
X75628000Y-66140000D01*
X82868000Y-66140000D02*
X82868000Y-63400000D01*
%TO.C,C23*%
X35750000Y-190600000D02*
X35750000Y-187860000D01*
X42990000Y-187860000D02*
X35750000Y-187860000D01*
X42990000Y-190600000D02*
X35750000Y-190600000D01*
X42990000Y-190600000D02*
X42990000Y-187860000D01*
%TO.C,R34*%
X51586000Y-46228000D02*
X52356000Y-46228000D01*
X52356000Y-45212000D02*
X52356000Y-47244000D01*
X52356000Y-47244000D02*
X58896000Y-47244000D01*
X58896000Y-45212000D02*
X52356000Y-45212000D01*
X58896000Y-47244000D02*
X58896000Y-45212000D01*
X59666000Y-46228000D02*
X58896000Y-46228000D01*
%TO.C,R13*%
X68350000Y-127254000D02*
X69120000Y-127254000D01*
X69120000Y-126238000D02*
X69120000Y-128270000D01*
X69120000Y-128270000D02*
X75660000Y-128270000D01*
X75660000Y-126238000D02*
X69120000Y-126238000D01*
X75660000Y-128270000D02*
X75660000Y-126238000D01*
X76430000Y-127254000D02*
X75660000Y-127254000D01*
%TO.C,C14*%
X56832000Y-93064000D02*
X56832000Y-90324000D01*
X64072000Y-90324000D02*
X56832000Y-90324000D01*
X64072000Y-93064000D02*
X56832000Y-93064000D01*
X64072000Y-93064000D02*
X64072000Y-90324000D01*
%TO.C,U3*%
X70394000Y-129231000D02*
X70394000Y-147131000D01*
X70394000Y-147131000D02*
X74894000Y-147131000D01*
X71644000Y-129231000D02*
X70394000Y-129231000D01*
X74894000Y-129231000D02*
X73644000Y-129231000D01*
X74894000Y-147131000D02*
X74894000Y-129231000D01*
X67394000Y-129171000D02*
X77894000Y-129171000D01*
X77894000Y-147191000D01*
X67394000Y-147191000D01*
X67394000Y-129171000D01*
X73644000Y-129231000D02*
G75*
G02*
X71644000Y-129231000I-1000000J0D01*
G01*
%TO.C,R43*%
X28980000Y-90170000D02*
X29750000Y-90170000D01*
X29750000Y-89154000D02*
X29750000Y-91186000D01*
X29750000Y-91186000D02*
X36290000Y-91186000D01*
X36290000Y-89154000D02*
X29750000Y-89154000D01*
X36290000Y-91186000D02*
X36290000Y-89154000D01*
X37060000Y-90170000D02*
X36290000Y-90170000D01*
%TO.C,RV10*%
X62475000Y-62718000D02*
X62475000Y-57668000D01*
X72225000Y-57668000D02*
X62475000Y-57668000D01*
X72225000Y-62718000D02*
X62475000Y-62718000D01*
X72225000Y-62718000D02*
X72225000Y-57668000D01*
%TO.C,C4*%
X53784000Y-176684000D02*
X53784000Y-179424000D01*
X53784000Y-176684000D02*
X61024000Y-176684000D01*
X53784000Y-179424000D02*
X61024000Y-179424000D01*
X61024000Y-176684000D02*
X61024000Y-179424000D01*
D12*
%TO.C,R24*%
X75692000Y-99568000D02*
X75692000Y-98552000D01*
X77724000Y-99568000D02*
X77724000Y-98552000D01*
D11*
%TO.C,D4*%
X67080000Y-78740000D02*
X67730000Y-78740000D01*
X67730000Y-77620000D02*
X67730000Y-79860000D01*
X67730000Y-79860000D02*
X71970000Y-79860000D01*
X68330000Y-77620000D02*
X68330000Y-79860000D01*
X68450000Y-77620000D02*
X68450000Y-79860000D01*
X68570000Y-77620000D02*
X68570000Y-79860000D01*
X71970000Y-77620000D02*
X67730000Y-77620000D01*
X71970000Y-79860000D02*
X71970000Y-77620000D01*
X72620000Y-78740000D02*
X71970000Y-78740000D01*
%TO.C,R25*%
X83566000Y-99346000D02*
X83566000Y-105886000D01*
X83566000Y-105886000D02*
X85598000Y-105886000D01*
X84582000Y-98576000D02*
X84582000Y-99346000D01*
X84582000Y-106656000D02*
X84582000Y-105886000D01*
X85598000Y-99346000D02*
X83566000Y-99346000D01*
X85598000Y-105886000D02*
X85598000Y-99346000D01*
D12*
%TO.C,R12*%
X84328000Y-142240000D02*
X87884000Y-142240000D01*
X84328000Y-144272000D02*
X87884000Y-144272000D01*
D11*
%TO.C,Q1*%
X73842000Y-155680000D02*
X73842000Y-159280000D01*
X73842000Y-155680000D02*
G75*
G02*
X74569205Y-155155816I1849994J-1799991D01*
G01*
X74569205Y-159804184D02*
G75*
G02*
X73842000Y-159280000I1122795J2324184D01*
G01*
X76790807Y-155123600D02*
G75*
G02*
X78292000Y-157480000I-1098809J-2356402D01*
G01*
X78292000Y-157480000D02*
G75*
G02*
X76790807Y-159836400I-2600000J0D01*
G01*
%TO.C,R30*%
X53848000Y-67723000D02*
X53848000Y-74263000D01*
X53848000Y-74263000D02*
X55880000Y-74263000D01*
X54864000Y-66953000D02*
X54864000Y-67723000D01*
X54864000Y-75033000D02*
X54864000Y-74263000D01*
X55880000Y-67723000D02*
X53848000Y-67723000D01*
X55880000Y-74263000D02*
X55880000Y-67723000D01*
%TO.C,R45*%
X28980000Y-146050000D02*
X29750000Y-146050000D01*
X29750000Y-145034000D02*
X29750000Y-147066000D01*
X29750000Y-147066000D02*
X36290000Y-147066000D01*
X36290000Y-145034000D02*
X29750000Y-145034000D01*
X36290000Y-147066000D02*
X36290000Y-145034000D01*
X37060000Y-146050000D02*
X36290000Y-146050000D01*
%TO.C,RV12*%
X67769000Y-51963000D02*
X67769000Y-57013000D01*
X67769000Y-51963000D02*
X77519000Y-51963000D01*
X67769000Y-57013000D02*
X77519000Y-57013000D01*
X77519000Y-51963000D02*
X77519000Y-57013000D01*
D12*
%TO.C,R17*%
X61722000Y-99568000D02*
X61722000Y-98552000D01*
X63754000Y-99568000D02*
X63754000Y-98552000D01*
%TO.C,R40*%
X73787000Y-35435500D02*
X73787000Y-36451500D01*
X75819000Y-35435500D02*
X75819000Y-36451500D01*
D11*
%TO.C,C12*%
X59844000Y-104330000D02*
X59844000Y-111570000D01*
X62584000Y-104330000D02*
X59844000Y-104330000D01*
X62584000Y-104330000D02*
X62584000Y-111570000D01*
X62584000Y-111570000D02*
X59844000Y-111570000D01*
%TD*%
M02*
