%TF.GenerationSoftware,KiCad,Pcbnew,9.0.6*%
%TF.CreationDate,2026-04-22T22:04:51-07:00*%
%TF.ProjectId,modulinVCA,6d6f6475-6c69-46e5-9643-412e6b696361,rev?*%
%TF.SameCoordinates,Original*%
%TF.FileFunction,Legend,Bot*%
%TF.FilePolarity,Positive*%
%FSLAX46Y46*%
G04 Gerber Fmt 4.6, Leading zero omitted, Abs format (unit mm)*
G04 Created by KiCad (PCBNEW 9.0.6) date 2026-04-22 22:04:51*
%MOMM*%
%LPD*%
G01*
G04 APERTURE LIST*
%ADD10C,0.508000*%
%ADD11C,0.254000*%
G04 APERTURE END LIST*
D10*
X106438094Y-26053478D02*
X105591427Y-28593478D01*
X105591427Y-28593478D02*
X104744760Y-26053478D01*
X103535236Y-28593478D02*
X103777141Y-28472526D01*
X103777141Y-28472526D02*
X103898094Y-28351573D01*
X103898094Y-28351573D02*
X104019046Y-28109668D01*
X104019046Y-28109668D02*
X104019046Y-27383954D01*
X104019046Y-27383954D02*
X103898094Y-27142049D01*
X103898094Y-27142049D02*
X103777141Y-27021097D01*
X103777141Y-27021097D02*
X103535236Y-26900145D01*
X103535236Y-26900145D02*
X103172379Y-26900145D01*
X103172379Y-26900145D02*
X102930475Y-27021097D01*
X102930475Y-27021097D02*
X102809522Y-27142049D01*
X102809522Y-27142049D02*
X102688570Y-27383954D01*
X102688570Y-27383954D02*
X102688570Y-28109668D01*
X102688570Y-28109668D02*
X102809522Y-28351573D01*
X102809522Y-28351573D02*
X102930475Y-28472526D01*
X102930475Y-28472526D02*
X103172379Y-28593478D01*
X103172379Y-28593478D02*
X103535236Y-28593478D01*
X101237141Y-28593478D02*
X101479046Y-28472526D01*
X101479046Y-28472526D02*
X101599999Y-28230621D01*
X101599999Y-28230621D02*
X101599999Y-26053478D01*
X100632380Y-26900145D02*
X99664761Y-26900145D01*
X100269523Y-26053478D02*
X100269523Y-28230621D01*
X100269523Y-28230621D02*
X100148570Y-28472526D01*
X100148570Y-28472526D02*
X99906665Y-28593478D01*
X99906665Y-28593478D02*
X99664761Y-28593478D01*
X97729522Y-28593478D02*
X97729522Y-27263002D01*
X97729522Y-27263002D02*
X97850475Y-27021097D01*
X97850475Y-27021097D02*
X98092379Y-26900145D01*
X98092379Y-26900145D02*
X98576189Y-26900145D01*
X98576189Y-26900145D02*
X98818094Y-27021097D01*
X97729522Y-28472526D02*
X97971427Y-28593478D01*
X97971427Y-28593478D02*
X98576189Y-28593478D01*
X98576189Y-28593478D02*
X98818094Y-28472526D01*
X98818094Y-28472526D02*
X98939046Y-28230621D01*
X98939046Y-28230621D02*
X98939046Y-27988716D01*
X98939046Y-27988716D02*
X98818094Y-27746811D01*
X98818094Y-27746811D02*
X98576189Y-27625859D01*
X98576189Y-27625859D02*
X97971427Y-27625859D01*
X97971427Y-27625859D02*
X97729522Y-27504906D01*
X95431427Y-26900145D02*
X95431427Y-28956335D01*
X95431427Y-28956335D02*
X95552380Y-29198240D01*
X95552380Y-29198240D02*
X95673332Y-29319192D01*
X95673332Y-29319192D02*
X95915237Y-29440145D01*
X95915237Y-29440145D02*
X96278094Y-29440145D01*
X96278094Y-29440145D02*
X96519999Y-29319192D01*
X95431427Y-28472526D02*
X95673332Y-28593478D01*
X95673332Y-28593478D02*
X96157141Y-28593478D01*
X96157141Y-28593478D02*
X96399046Y-28472526D01*
X96399046Y-28472526D02*
X96519999Y-28351573D01*
X96519999Y-28351573D02*
X96640951Y-28109668D01*
X96640951Y-28109668D02*
X96640951Y-27383954D01*
X96640951Y-27383954D02*
X96519999Y-27142049D01*
X96519999Y-27142049D02*
X96399046Y-27021097D01*
X96399046Y-27021097D02*
X96157141Y-26900145D01*
X96157141Y-26900145D02*
X95673332Y-26900145D01*
X95673332Y-26900145D02*
X95431427Y-27021097D01*
X93254285Y-28472526D02*
X93496189Y-28593478D01*
X93496189Y-28593478D02*
X93979999Y-28593478D01*
X93979999Y-28593478D02*
X94221904Y-28472526D01*
X94221904Y-28472526D02*
X94342856Y-28230621D01*
X94342856Y-28230621D02*
X94342856Y-27263002D01*
X94342856Y-27263002D02*
X94221904Y-27021097D01*
X94221904Y-27021097D02*
X93979999Y-26900145D01*
X93979999Y-26900145D02*
X93496189Y-26900145D01*
X93496189Y-26900145D02*
X93254285Y-27021097D01*
X93254285Y-27021097D02*
X93133332Y-27263002D01*
X93133332Y-27263002D02*
X93133332Y-27504906D01*
X93133332Y-27504906D02*
X94342856Y-27746811D01*
X88658094Y-28351573D02*
X88779046Y-28472526D01*
X88779046Y-28472526D02*
X89141904Y-28593478D01*
X89141904Y-28593478D02*
X89383808Y-28593478D01*
X89383808Y-28593478D02*
X89746665Y-28472526D01*
X89746665Y-28472526D02*
X89988570Y-28230621D01*
X89988570Y-28230621D02*
X90109523Y-27988716D01*
X90109523Y-27988716D02*
X90230475Y-27504906D01*
X90230475Y-27504906D02*
X90230475Y-27142049D01*
X90230475Y-27142049D02*
X90109523Y-26658240D01*
X90109523Y-26658240D02*
X89988570Y-26416335D01*
X89988570Y-26416335D02*
X89746665Y-26174430D01*
X89746665Y-26174430D02*
X89383808Y-26053478D01*
X89383808Y-26053478D02*
X89141904Y-26053478D01*
X89141904Y-26053478D02*
X88779046Y-26174430D01*
X88779046Y-26174430D02*
X88658094Y-26295383D01*
X87206665Y-28593478D02*
X87448570Y-28472526D01*
X87448570Y-28472526D02*
X87569523Y-28351573D01*
X87569523Y-28351573D02*
X87690475Y-28109668D01*
X87690475Y-28109668D02*
X87690475Y-27383954D01*
X87690475Y-27383954D02*
X87569523Y-27142049D01*
X87569523Y-27142049D02*
X87448570Y-27021097D01*
X87448570Y-27021097D02*
X87206665Y-26900145D01*
X87206665Y-26900145D02*
X86843808Y-26900145D01*
X86843808Y-26900145D02*
X86601904Y-27021097D01*
X86601904Y-27021097D02*
X86480951Y-27142049D01*
X86480951Y-27142049D02*
X86359999Y-27383954D01*
X86359999Y-27383954D02*
X86359999Y-28109668D01*
X86359999Y-28109668D02*
X86480951Y-28351573D01*
X86480951Y-28351573D02*
X86601904Y-28472526D01*
X86601904Y-28472526D02*
X86843808Y-28593478D01*
X86843808Y-28593478D02*
X87206665Y-28593478D01*
X85271428Y-26900145D02*
X85271428Y-28593478D01*
X85271428Y-27142049D02*
X85150475Y-27021097D01*
X85150475Y-27021097D02*
X84908570Y-26900145D01*
X84908570Y-26900145D02*
X84545713Y-26900145D01*
X84545713Y-26900145D02*
X84303809Y-27021097D01*
X84303809Y-27021097D02*
X84182856Y-27263002D01*
X84182856Y-27263002D02*
X84182856Y-28593478D01*
X83336190Y-26900145D02*
X82368571Y-26900145D01*
X82973333Y-26053478D02*
X82973333Y-28230621D01*
X82973333Y-28230621D02*
X82852380Y-28472526D01*
X82852380Y-28472526D02*
X82610475Y-28593478D01*
X82610475Y-28593478D02*
X82368571Y-28593478D01*
X81521904Y-28593478D02*
X81521904Y-26900145D01*
X81521904Y-27383954D02*
X81400951Y-27142049D01*
X81400951Y-27142049D02*
X81279999Y-27021097D01*
X81279999Y-27021097D02*
X81038094Y-26900145D01*
X81038094Y-26900145D02*
X80796189Y-26900145D01*
X79586665Y-28593478D02*
X79828570Y-28472526D01*
X79828570Y-28472526D02*
X79949523Y-28351573D01*
X79949523Y-28351573D02*
X80070475Y-28109668D01*
X80070475Y-28109668D02*
X80070475Y-27383954D01*
X80070475Y-27383954D02*
X79949523Y-27142049D01*
X79949523Y-27142049D02*
X79828570Y-27021097D01*
X79828570Y-27021097D02*
X79586665Y-26900145D01*
X79586665Y-26900145D02*
X79223808Y-26900145D01*
X79223808Y-26900145D02*
X78981904Y-27021097D01*
X78981904Y-27021097D02*
X78860951Y-27142049D01*
X78860951Y-27142049D02*
X78739999Y-27383954D01*
X78739999Y-27383954D02*
X78739999Y-28109668D01*
X78739999Y-28109668D02*
X78860951Y-28351573D01*
X78860951Y-28351573D02*
X78981904Y-28472526D01*
X78981904Y-28472526D02*
X79223808Y-28593478D01*
X79223808Y-28593478D02*
X79586665Y-28593478D01*
X77288570Y-28593478D02*
X77530475Y-28472526D01*
X77530475Y-28472526D02*
X77651428Y-28230621D01*
X77651428Y-28230621D02*
X77651428Y-26053478D01*
X75958094Y-28593478D02*
X76199999Y-28472526D01*
X76199999Y-28472526D02*
X76320952Y-28230621D01*
X76320952Y-28230621D02*
X76320952Y-26053478D01*
X74022857Y-28472526D02*
X74264761Y-28593478D01*
X74264761Y-28593478D02*
X74748571Y-28593478D01*
X74748571Y-28593478D02*
X74990476Y-28472526D01*
X74990476Y-28472526D02*
X75111428Y-28230621D01*
X75111428Y-28230621D02*
X75111428Y-27263002D01*
X75111428Y-27263002D02*
X74990476Y-27021097D01*
X74990476Y-27021097D02*
X74748571Y-26900145D01*
X74748571Y-26900145D02*
X74264761Y-26900145D01*
X74264761Y-26900145D02*
X74022857Y-27021097D01*
X74022857Y-27021097D02*
X73901904Y-27263002D01*
X73901904Y-27263002D02*
X73901904Y-27504906D01*
X73901904Y-27504906D02*
X75111428Y-27746811D01*
X71724761Y-28593478D02*
X71724761Y-26053478D01*
X71724761Y-28472526D02*
X71966666Y-28593478D01*
X71966666Y-28593478D02*
X72450475Y-28593478D01*
X72450475Y-28593478D02*
X72692380Y-28472526D01*
X72692380Y-28472526D02*
X72813333Y-28351573D01*
X72813333Y-28351573D02*
X72934285Y-28109668D01*
X72934285Y-28109668D02*
X72934285Y-27383954D01*
X72934285Y-27383954D02*
X72813333Y-27142049D01*
X72813333Y-27142049D02*
X72692380Y-27021097D01*
X72692380Y-27021097D02*
X72450475Y-26900145D01*
X72450475Y-26900145D02*
X71966666Y-26900145D01*
X71966666Y-26900145D02*
X71724761Y-27021097D01*
X96822381Y-31957022D02*
X95612857Y-31957022D01*
X97064286Y-32682736D02*
X96217619Y-30142736D01*
X96217619Y-30142736D02*
X95370952Y-32682736D01*
X94524286Y-32682736D02*
X94524286Y-30989403D01*
X94524286Y-31231307D02*
X94403333Y-31110355D01*
X94403333Y-31110355D02*
X94161428Y-30989403D01*
X94161428Y-30989403D02*
X93798571Y-30989403D01*
X93798571Y-30989403D02*
X93556667Y-31110355D01*
X93556667Y-31110355D02*
X93435714Y-31352260D01*
X93435714Y-31352260D02*
X93435714Y-32682736D01*
X93435714Y-31352260D02*
X93314762Y-31110355D01*
X93314762Y-31110355D02*
X93072857Y-30989403D01*
X93072857Y-30989403D02*
X92710000Y-30989403D01*
X92710000Y-30989403D02*
X92468095Y-31110355D01*
X92468095Y-31110355D02*
X92347143Y-31352260D01*
X92347143Y-31352260D02*
X92347143Y-32682736D01*
X91137619Y-30989403D02*
X91137619Y-33529403D01*
X91137619Y-31110355D02*
X90895714Y-30989403D01*
X90895714Y-30989403D02*
X90411904Y-30989403D01*
X90411904Y-30989403D02*
X90170000Y-31110355D01*
X90170000Y-31110355D02*
X90049047Y-31231307D01*
X90049047Y-31231307D02*
X89928095Y-31473212D01*
X89928095Y-31473212D02*
X89928095Y-32198926D01*
X89928095Y-32198926D02*
X90049047Y-32440831D01*
X90049047Y-32440831D02*
X90170000Y-32561784D01*
X90170000Y-32561784D02*
X90411904Y-32682736D01*
X90411904Y-32682736D02*
X90895714Y-32682736D01*
X90895714Y-32682736D02*
X91137619Y-32561784D01*
X88476666Y-32682736D02*
X88718571Y-32561784D01*
X88718571Y-32561784D02*
X88839524Y-32319879D01*
X88839524Y-32319879D02*
X88839524Y-30142736D01*
X87509048Y-32682736D02*
X87509048Y-30989403D01*
X87509048Y-30142736D02*
X87630000Y-30263688D01*
X87630000Y-30263688D02*
X87509048Y-30384641D01*
X87509048Y-30384641D02*
X87388095Y-30263688D01*
X87388095Y-30263688D02*
X87509048Y-30142736D01*
X87509048Y-30142736D02*
X87509048Y-30384641D01*
X86662381Y-30989403D02*
X85694762Y-30989403D01*
X86299524Y-32682736D02*
X86299524Y-30505593D01*
X86299524Y-30505593D02*
X86178571Y-30263688D01*
X86178571Y-30263688D02*
X85936666Y-30142736D01*
X85936666Y-30142736D02*
X85694762Y-30142736D01*
X84848095Y-32682736D02*
X84848095Y-30989403D01*
X84848095Y-30142736D02*
X84969047Y-30263688D01*
X84969047Y-30263688D02*
X84848095Y-30384641D01*
X84848095Y-30384641D02*
X84727142Y-30263688D01*
X84727142Y-30263688D02*
X84848095Y-30142736D01*
X84848095Y-30142736D02*
X84848095Y-30384641D01*
X82670952Y-32561784D02*
X82912856Y-32682736D01*
X82912856Y-32682736D02*
X83396666Y-32682736D01*
X83396666Y-32682736D02*
X83638571Y-32561784D01*
X83638571Y-32561784D02*
X83759523Y-32319879D01*
X83759523Y-32319879D02*
X83759523Y-31352260D01*
X83759523Y-31352260D02*
X83638571Y-31110355D01*
X83638571Y-31110355D02*
X83396666Y-30989403D01*
X83396666Y-30989403D02*
X82912856Y-30989403D01*
X82912856Y-30989403D02*
X82670952Y-31110355D01*
X82670952Y-31110355D02*
X82549999Y-31352260D01*
X82549999Y-31352260D02*
X82549999Y-31594164D01*
X82549999Y-31594164D02*
X83759523Y-31836069D01*
X81461428Y-32682736D02*
X81461428Y-30989403D01*
X81461428Y-31473212D02*
X81340475Y-31231307D01*
X81340475Y-31231307D02*
X81219523Y-31110355D01*
X81219523Y-31110355D02*
X80977618Y-30989403D01*
X80977618Y-30989403D02*
X80735713Y-30989403D01*
D11*
X66717332Y-57650113D02*
X65556189Y-57650113D01*
X66136760Y-59682113D02*
X66136760Y-57650113D01*
X64878856Y-59682113D02*
X64878856Y-58327447D01*
X64878856Y-58714494D02*
X64782094Y-58520971D01*
X64782094Y-58520971D02*
X64685332Y-58424209D01*
X64685332Y-58424209D02*
X64491808Y-58327447D01*
X64491808Y-58327447D02*
X64298285Y-58327447D01*
X62846856Y-59585352D02*
X63040380Y-59682113D01*
X63040380Y-59682113D02*
X63427427Y-59682113D01*
X63427427Y-59682113D02*
X63620951Y-59585352D01*
X63620951Y-59585352D02*
X63717713Y-59391828D01*
X63717713Y-59391828D02*
X63717713Y-58617732D01*
X63717713Y-58617732D02*
X63620951Y-58424209D01*
X63620951Y-58424209D02*
X63427427Y-58327447D01*
X63427427Y-58327447D02*
X63040380Y-58327447D01*
X63040380Y-58327447D02*
X62846856Y-58424209D01*
X62846856Y-58424209D02*
X62750094Y-58617732D01*
X62750094Y-58617732D02*
X62750094Y-58811256D01*
X62750094Y-58811256D02*
X63717713Y-59004780D01*
X61879237Y-59682113D02*
X61879237Y-58327447D01*
X61879237Y-58520971D02*
X61782475Y-58424209D01*
X61782475Y-58424209D02*
X61588951Y-58327447D01*
X61588951Y-58327447D02*
X61298666Y-58327447D01*
X61298666Y-58327447D02*
X61105142Y-58424209D01*
X61105142Y-58424209D02*
X61008380Y-58617732D01*
X61008380Y-58617732D02*
X61008380Y-59682113D01*
X61008380Y-58617732D02*
X60911618Y-58424209D01*
X60911618Y-58424209D02*
X60718094Y-58327447D01*
X60718094Y-58327447D02*
X60427808Y-58327447D01*
X60427808Y-58327447D02*
X60234285Y-58424209D01*
X60234285Y-58424209D02*
X60137523Y-58617732D01*
X60137523Y-58617732D02*
X60137523Y-59682113D01*
X58395809Y-59585352D02*
X58589333Y-59682113D01*
X58589333Y-59682113D02*
X58976380Y-59682113D01*
X58976380Y-59682113D02*
X59169904Y-59585352D01*
X59169904Y-59585352D02*
X59266666Y-59391828D01*
X59266666Y-59391828D02*
X59266666Y-58617732D01*
X59266666Y-58617732D02*
X59169904Y-58424209D01*
X59169904Y-58424209D02*
X58976380Y-58327447D01*
X58976380Y-58327447D02*
X58589333Y-58327447D01*
X58589333Y-58327447D02*
X58395809Y-58424209D01*
X58395809Y-58424209D02*
X58299047Y-58617732D01*
X58299047Y-58617732D02*
X58299047Y-58811256D01*
X58299047Y-58811256D02*
X59266666Y-59004780D01*
X57137904Y-59682113D02*
X57331428Y-59585352D01*
X57331428Y-59585352D02*
X57428190Y-59391828D01*
X57428190Y-59391828D02*
X57428190Y-57650113D01*
X56073523Y-59682113D02*
X56267047Y-59585352D01*
X56267047Y-59585352D02*
X56363809Y-59488590D01*
X56363809Y-59488590D02*
X56460571Y-59295066D01*
X56460571Y-59295066D02*
X56460571Y-58714494D01*
X56460571Y-58714494D02*
X56363809Y-58520971D01*
X56363809Y-58520971D02*
X56267047Y-58424209D01*
X56267047Y-58424209D02*
X56073523Y-58327447D01*
X56073523Y-58327447D02*
X55783238Y-58327447D01*
X55783238Y-58327447D02*
X55589714Y-58424209D01*
X55589714Y-58424209D02*
X55492952Y-58520971D01*
X55492952Y-58520971D02*
X55396190Y-58714494D01*
X55396190Y-58714494D02*
X55396190Y-59295066D01*
X55396190Y-59295066D02*
X55492952Y-59488590D01*
X55492952Y-59488590D02*
X55589714Y-59585352D01*
X55589714Y-59585352D02*
X55783238Y-59682113D01*
X55783238Y-59682113D02*
X56073523Y-59682113D01*
X122548951Y-57650113D02*
X121871617Y-59682113D01*
X121871617Y-59682113D02*
X121194284Y-57650113D01*
X119742856Y-59585352D02*
X119936380Y-59682113D01*
X119936380Y-59682113D02*
X120323427Y-59682113D01*
X120323427Y-59682113D02*
X120516951Y-59585352D01*
X120516951Y-59585352D02*
X120613713Y-59391828D01*
X120613713Y-59391828D02*
X120613713Y-58617732D01*
X120613713Y-58617732D02*
X120516951Y-58424209D01*
X120516951Y-58424209D02*
X120323427Y-58327447D01*
X120323427Y-58327447D02*
X119936380Y-58327447D01*
X119936380Y-58327447D02*
X119742856Y-58424209D01*
X119742856Y-58424209D02*
X119646094Y-58617732D01*
X119646094Y-58617732D02*
X119646094Y-58811256D01*
X119646094Y-58811256D02*
X120613713Y-59004780D01*
X118484951Y-59682113D02*
X118678475Y-59585352D01*
X118678475Y-59585352D02*
X118775237Y-59391828D01*
X118775237Y-59391828D02*
X118775237Y-57650113D01*
X117420570Y-59682113D02*
X117614094Y-59585352D01*
X117614094Y-59585352D02*
X117710856Y-59488590D01*
X117710856Y-59488590D02*
X117807618Y-59295066D01*
X117807618Y-59295066D02*
X117807618Y-58714494D01*
X117807618Y-58714494D02*
X117710856Y-58520971D01*
X117710856Y-58520971D02*
X117614094Y-58424209D01*
X117614094Y-58424209D02*
X117420570Y-58327447D01*
X117420570Y-58327447D02*
X117130285Y-58327447D01*
X117130285Y-58327447D02*
X116936761Y-58424209D01*
X116936761Y-58424209D02*
X116839999Y-58520971D01*
X116839999Y-58520971D02*
X116743237Y-58714494D01*
X116743237Y-58714494D02*
X116743237Y-59295066D01*
X116743237Y-59295066D02*
X116839999Y-59488590D01*
X116839999Y-59488590D02*
X116936761Y-59585352D01*
X116936761Y-59585352D02*
X117130285Y-59682113D01*
X117130285Y-59682113D02*
X117420570Y-59682113D01*
X115001523Y-59585352D02*
X115195047Y-59682113D01*
X115195047Y-59682113D02*
X115582094Y-59682113D01*
X115582094Y-59682113D02*
X115775618Y-59585352D01*
X115775618Y-59585352D02*
X115872380Y-59488590D01*
X115872380Y-59488590D02*
X115969142Y-59295066D01*
X115969142Y-59295066D02*
X115969142Y-58714494D01*
X115969142Y-58714494D02*
X115872380Y-58520971D01*
X115872380Y-58520971D02*
X115775618Y-58424209D01*
X115775618Y-58424209D02*
X115582094Y-58327447D01*
X115582094Y-58327447D02*
X115195047Y-58327447D01*
X115195047Y-58327447D02*
X115001523Y-58424209D01*
X114130666Y-59682113D02*
X114130666Y-58327447D01*
X114130666Y-57650113D02*
X114227428Y-57746875D01*
X114227428Y-57746875D02*
X114130666Y-57843637D01*
X114130666Y-57843637D02*
X114033904Y-57746875D01*
X114033904Y-57746875D02*
X114130666Y-57650113D01*
X114130666Y-57650113D02*
X114130666Y-57843637D01*
X113453333Y-58327447D02*
X112679237Y-58327447D01*
X113163047Y-57650113D02*
X113163047Y-59391828D01*
X113163047Y-59391828D02*
X113066285Y-59585352D01*
X113066285Y-59585352D02*
X112872761Y-59682113D01*
X112872761Y-59682113D02*
X112679237Y-59682113D01*
X112195428Y-58327447D02*
X111711618Y-59682113D01*
X111227809Y-58327447D02*
X111711618Y-59682113D01*
X111711618Y-59682113D02*
X111905142Y-60165923D01*
X111905142Y-60165923D02*
X112001904Y-60262685D01*
X112001904Y-60262685D02*
X112195428Y-60359447D01*
M02*
