%TF.GenerationSoftware,KiCad,Pcbnew,9.0.6*%
%TF.CreationDate,2026-04-22T22:04:51-07:00*%
%TF.ProjectId,modulinVCA,6d6f6475-6c69-46e5-9643-412e6b696361,rev?*%
%TF.SameCoordinates,Original*%
%TF.FileFunction,Soldermask,Bot*%
%TF.FilePolarity,Negative*%
%FSLAX46Y46*%
G04 Gerber Fmt 4.6, Leading zero omitted, Abs format (unit mm)*
G04 Created by KiCad (PCBNEW 9.0.6) date 2026-04-22 22:04:51*
%MOMM*%
%LPD*%
G01*
G04 APERTURE LIST*
G04 Aperture macros list*
%AMRoundRect*
0 Rectangle with rounded corners*
0 $1 Rounding radius*
0 $2 $3 $4 $5 $6 $7 $8 $9 X,Y pos of 4 corners*
0 Add a 4 corners polygon primitive as box body*
4,1,4,$2,$3,$4,$5,$6,$7,$8,$9,$2,$3,0*
0 Add four circle primitives for the rounded corners*
1,1,$1+$1,$2,$3*
1,1,$1+$1,$4,$5*
1,1,$1+$1,$6,$7*
1,1,$1+$1,$8,$9*
0 Add four rect primitives between the rounded corners*
20,1,$1+$1,$2,$3,$4,$5,0*
20,1,$1+$1,$4,$5,$6,$7,0*
20,1,$1+$1,$6,$7,$8,$9,0*
20,1,$1+$1,$8,$9,$2,$3,0*%
G04 Aperture macros list end*
%ADD10C,1.727200*%
%ADD11C,1.320800*%
%ADD12C,1.676400*%
%ADD13RoundRect,0.250001X1.149999X1.149999X-1.149999X1.149999X-1.149999X-1.149999X1.149999X-1.149999X0*%
%ADD14C,2.800000*%
%ADD15C,6.000000*%
%ADD16O,2.540000X1.727200*%
%ADD17RoundRect,0.250000X-1.020000X0.613600X-1.020000X-0.613600X1.020000X-0.613600X1.020000X0.613600X0*%
%ADD18RoundRect,0.250000X1.020000X-0.613600X1.020000X0.613600X-1.020000X0.613600X-1.020000X-0.613600X0*%
%ADD19O,1.727200X2.540000*%
%ADD20RoundRect,0.250000X-0.613600X-1.020000X0.613600X-1.020000X0.613600X1.020000X-0.613600X1.020000X0*%
%ADD21RoundRect,0.250000X0.613600X1.020000X-0.613600X1.020000X-0.613600X-1.020000X0.613600X-1.020000X0*%
%ADD22RoundRect,0.250000X-1.020000X-0.613600X1.020000X-0.613600X1.020000X0.613600X-1.020000X0.613600X0*%
%ADD23C,1.778000*%
%ADD24C,3.302000*%
%ADD25C,12.000000*%
G04 APERTURE END LIST*
D10*
%TO.C,R17*%
X105918000Y-56388000D03*
X105918000Y-46228000D03*
%TD*%
D11*
%TO.C,RV1*%
X69985806Y-28702000D03*
D12*
X69985806Y-28702000D03*
D11*
X72525806Y-28702000D03*
D12*
X72525806Y-28702000D03*
D11*
X75065806Y-28702000D03*
D12*
X75065806Y-28702000D03*
%TD*%
D13*
%TO.C,J1*%
X106520000Y-71120000D03*
D14*
X101520000Y-71120000D03*
X96520000Y-71120000D03*
X91520000Y-71120000D03*
X86520000Y-71120000D03*
X81520000Y-71120000D03*
X76520000Y-71120000D03*
X71520000Y-71120000D03*
%TD*%
D11*
%TO.C,R8*%
X82042000Y-58168500D03*
D10*
X82042000Y-58168500D03*
X82042000Y-60708500D03*
%TD*%
D15*
%TO.C,REF\u002A\u002A*%
X55880000Y-71120000D03*
%TD*%
%TO.C,REF\u002A\u002A*%
X55880000Y-30480000D03*
%TD*%
D11*
%TO.C,RV2*%
X72898000Y-60452000D03*
D12*
X72898000Y-60452000D03*
D11*
X75438000Y-60452000D03*
D12*
X75438000Y-60452000D03*
D11*
X77978000Y-60452000D03*
D12*
X77978000Y-60452000D03*
%TD*%
D11*
%TO.C,R10*%
X82039500Y-43434000D03*
D10*
X82039500Y-43434000D03*
X79499500Y-43434000D03*
%TD*%
D16*
%TO.C,Q2*%
X75127806Y-32619994D03*
X75127806Y-35159994D03*
D17*
X75127806Y-37699994D03*
%TD*%
D10*
%TO.C,R25*%
X111760000Y-64516000D03*
X101600000Y-64516000D03*
%TD*%
%TO.C,C2*%
X77764000Y-64770000D03*
X82764000Y-64770000D03*
%TD*%
D16*
%TO.C,Q1*%
X70259806Y-37699994D03*
X70259806Y-35159994D03*
D18*
X70259806Y-32619994D03*
%TD*%
D15*
%TO.C,REF\u002A\u002A*%
X121920000Y-30480000D03*
%TD*%
D10*
%TO.C,R3*%
X65921806Y-37699994D03*
X65921806Y-30079994D03*
%TD*%
D11*
%TO.C,R1*%
X62992000Y-34800500D03*
D10*
X62992000Y-34800500D03*
X62992000Y-37340500D03*
%TD*%
D11*
%TO.C,R12*%
X76962000Y-43688000D03*
D10*
X76962000Y-43688000D03*
D12*
X71882000Y-43688000D03*
%TD*%
D11*
%TO.C,R14*%
X96012000Y-58422500D03*
D10*
X96012000Y-58422500D03*
X96012000Y-60962500D03*
%TD*%
%TO.C,R5*%
X71882000Y-56388000D03*
X71882000Y-46228000D03*
%TD*%
%TO.C,R20*%
X98648200Y-37846000D03*
X98648200Y-30226000D03*
%TD*%
D11*
%TO.C,R19*%
X112014000Y-32766000D03*
D10*
X112014000Y-32766000D03*
X112014000Y-30226000D03*
%TD*%
D16*
%TO.C,Q5*%
X107590000Y-32619994D03*
X107590000Y-35159994D03*
D17*
X107590000Y-37699994D03*
%TD*%
D19*
%TO.C,Q4*%
X95758000Y-55118000D03*
X98298000Y-55118000D03*
D20*
X100838000Y-55118000D03*
%TD*%
D11*
%TO.C,RV5*%
X100076000Y-60452000D03*
D12*
X100076000Y-60452000D03*
D11*
X102616000Y-60452000D03*
D12*
X102616000Y-60452000D03*
D11*
X105156000Y-60452000D03*
D12*
X105156000Y-60452000D03*
%TD*%
D10*
%TO.C,R6*%
X74422000Y-53850500D03*
D11*
X74422000Y-56390500D03*
D10*
X74422000Y-56390500D03*
%TD*%
D15*
%TO.C,REF\u002A\u002A*%
X121920000Y-71120000D03*
%TD*%
D11*
%TO.C,R2*%
X62992000Y-29718000D03*
D10*
X62992000Y-29718000D03*
X62992000Y-32258000D03*
%TD*%
D11*
%TO.C,R11*%
X82042000Y-38102500D03*
D10*
X82042000Y-38102500D03*
X82042000Y-40642500D03*
%TD*%
%TO.C,C4*%
X100544000Y-46482000D03*
X95544000Y-46482000D03*
%TD*%
%TO.C,R21*%
X98298000Y-40640000D03*
X105918000Y-40640000D03*
%TD*%
D11*
%TO.C,R24*%
X95758000Y-38100000D03*
D10*
X95758000Y-38100000D03*
X95758000Y-40640000D03*
%TD*%
D11*
%TO.C,R23*%
X100838000Y-43688000D03*
D10*
X100838000Y-43688000D03*
D12*
X105918000Y-43688000D03*
%TD*%
D10*
%TO.C,C3*%
X82256000Y-46736000D03*
X77256000Y-46736000D03*
%TD*%
D11*
%TO.C,R22*%
X95758000Y-43180000D03*
D10*
X95758000Y-43180000D03*
X98298000Y-43180000D03*
%TD*%
D11*
%TO.C,R7*%
X77216000Y-50800000D03*
D10*
X77216000Y-50800000D03*
D12*
X82296000Y-50800000D03*
%TD*%
D10*
%TO.C,C1*%
X70184000Y-64770000D03*
X75184000Y-64770000D03*
%TD*%
D11*
%TO.C,R15*%
X112014000Y-35308500D03*
D10*
X112014000Y-35308500D03*
X112014000Y-37848500D03*
%TD*%
%TO.C,R9*%
X79502000Y-40640000D03*
X69342000Y-40640000D03*
%TD*%
D19*
%TO.C,Q3*%
X82042000Y-54102000D03*
X79502000Y-54102000D03*
D21*
X76962000Y-54102000D03*
%TD*%
D11*
%TO.C,R4*%
X79383806Y-32619994D03*
D10*
X79383806Y-32619994D03*
X79383806Y-30079994D03*
%TD*%
%TO.C,R18*%
X103378000Y-52578000D03*
D11*
X103378000Y-55118000D03*
D10*
X103378000Y-55118000D03*
%TD*%
D16*
%TO.C,Q6*%
X102870000Y-37699994D03*
X102870000Y-35159994D03*
D18*
X102870000Y-32619994D03*
%TD*%
D10*
%TO.C,R16*%
X114808000Y-32766000D03*
D11*
X114808000Y-35306000D03*
D10*
X114808000Y-35306000D03*
%TD*%
D11*
%TO.C,R13*%
X100838000Y-50800000D03*
D10*
X100838000Y-50800000D03*
D12*
X95758000Y-50800000D03*
%TD*%
D10*
%TO.C,R26*%
X124460000Y-64516000D03*
X114300000Y-64516000D03*
%TD*%
D11*
%TO.C,U1*%
X85090000Y-38105000D03*
D22*
X85090000Y-38105000D03*
D11*
X85090000Y-40645000D03*
D16*
X85090000Y-40645000D03*
D11*
X85090000Y-43185000D03*
D16*
X85090000Y-43185000D03*
D10*
X85090000Y-45725000D03*
D16*
X85090000Y-45725000D03*
D11*
X85090000Y-48265000D03*
D16*
X85090000Y-48265000D03*
D11*
X85090000Y-50805000D03*
D16*
X85090000Y-50805000D03*
D11*
X85090000Y-53345000D03*
D16*
X85090000Y-53345000D03*
D11*
X92710000Y-53345000D03*
D16*
X92710000Y-53345000D03*
D11*
X92710000Y-50805000D03*
D16*
X92710000Y-50805000D03*
D11*
X92710000Y-48265000D03*
D16*
X92710000Y-48265000D03*
D10*
X92710000Y-45725000D03*
D16*
X92710000Y-45725000D03*
D11*
X92710000Y-43185000D03*
D16*
X92710000Y-43185000D03*
D11*
X92710000Y-40645000D03*
D16*
X92710000Y-40645000D03*
D11*
X92710000Y-38105000D03*
D16*
X92710000Y-38105000D03*
%TD*%
D11*
%TO.C,RV6*%
X107792200Y-28702000D03*
D12*
X107792200Y-28702000D03*
D11*
X105252200Y-28702000D03*
D12*
X105252200Y-28702000D03*
D11*
X102712200Y-28702000D03*
D12*
X102712200Y-28702000D03*
%TD*%
D23*
%TO.C,RV3*%
X66040000Y-61260000D03*
X60960000Y-61260000D03*
X55880000Y-61260000D03*
D24*
X68960000Y-48260000D03*
D25*
X60960000Y-48260000D03*
%TD*%
D23*
%TO.C,RV4*%
X121920000Y-61260000D03*
X116840000Y-61260000D03*
X111760000Y-61260000D03*
D24*
X124840000Y-48260000D03*
D25*
X116840000Y-48260000D03*
%TD*%
M02*
