%TF.GenerationSoftware,KiCad,Pcbnew,9.0.6*%
%TF.CreationDate,2026-04-22T22:04:51-07:00*%
%TF.ProjectId,modulinVCA,6d6f6475-6c69-46e5-9643-412e6b696361,rev?*%
%TF.SameCoordinates,Original*%
%TF.FileFunction,Copper,L1,Top*%
%TF.FilePolarity,Positive*%
%FSLAX46Y46*%
G04 Gerber Fmt 4.6, Leading zero omitted, Abs format (unit mm)*
G04 Created by KiCad (PCBNEW 9.0.6) date 2026-04-22 22:04:51*
%MOMM*%
%LPD*%
G01*
G04 APERTURE LIST*
G04 Aperture macros list*
%AMRoundRect*
0 Rectangle with rounded corners*
0 $1 Rounding radius*
0 $2 $3 $4 $5 $6 $7 $8 $9 X,Y pos of 4 corners*
0 Add a 4 corners polygon primitive as box body*
4,1,4,$2,$3,$4,$5,$6,$7,$8,$9,$2,$3,0*
0 Add four circle primitives for the rounded corners*
1,1,$1+$1,$2,$3*
1,1,$1+$1,$4,$5*
1,1,$1+$1,$6,$7*
1,1,$1+$1,$8,$9*
0 Add four rect primitives between the rounded corners*
20,1,$1+$1,$2,$3,$4,$5,0*
20,1,$1+$1,$4,$5,$6,$7,0*
20,1,$1+$1,$6,$7,$8,$9,0*
20,1,$1+$1,$8,$9,$2,$3,0*%
G04 Aperture macros list end*
%TA.AperFunction,ComponentPad*%
%ADD10C,1.727200*%
%TD*%
%TA.AperFunction,ComponentPad*%
%ADD11C,1.320800*%
%TD*%
%TA.AperFunction,ComponentPad*%
%ADD12RoundRect,0.250001X1.149999X1.149999X-1.149999X1.149999X-1.149999X-1.149999X1.149999X-1.149999X0*%
%TD*%
%TA.AperFunction,ComponentPad*%
%ADD13C,2.800000*%
%TD*%
%TA.AperFunction,ComponentPad*%
%ADD14C,6.000000*%
%TD*%
%TA.AperFunction,ComponentPad*%
%ADD15O,2.540000X1.727200*%
%TD*%
%TA.AperFunction,ComponentPad*%
%ADD16RoundRect,0.250000X-1.020000X0.613600X-1.020000X-0.613600X1.020000X-0.613600X1.020000X0.613600X0*%
%TD*%
%TA.AperFunction,ComponentPad*%
%ADD17RoundRect,0.250000X1.020000X-0.613600X1.020000X0.613600X-1.020000X0.613600X-1.020000X-0.613600X0*%
%TD*%
%TA.AperFunction,ComponentPad*%
%ADD18C,1.676400*%
%TD*%
%TA.AperFunction,ComponentPad*%
%ADD19O,1.727200X2.540000*%
%TD*%
%TA.AperFunction,ComponentPad*%
%ADD20RoundRect,0.250000X-0.613600X-1.020000X0.613600X-1.020000X0.613600X1.020000X-0.613600X1.020000X0*%
%TD*%
%TA.AperFunction,ComponentPad*%
%ADD21RoundRect,0.250000X0.613600X1.020000X-0.613600X1.020000X-0.613600X-1.020000X0.613600X-1.020000X0*%
%TD*%
%TA.AperFunction,ComponentPad*%
%ADD22C,1.778000*%
%TD*%
%TA.AperFunction,SMDPad,CuDef*%
%ADD23C,2.286000*%
%TD*%
%TA.AperFunction,SMDPad,CuDef*%
%ADD24R,2.286000X2.286000*%
%TD*%
%TA.AperFunction,ComponentPad*%
%ADD25C,3.302000*%
%TD*%
%TA.AperFunction,ComponentPad*%
%ADD26C,12.000000*%
%TD*%
%TA.AperFunction,SMDPad,CuDef*%
%ADD27O,18.000000X12.000000*%
%TD*%
%TA.AperFunction,ViaPad*%
%ADD28C,1.727200*%
%TD*%
%TA.AperFunction,Conductor*%
%ADD29C,0.508000*%
%TD*%
G04 APERTURE END LIST*
D10*
%TO.P,R17,1*%
%TO.N,Net-(Q4-E)*%
X105918000Y-56388000D03*
%TO.P,R17,2*%
%TO.N,Net-(Q5-E)*%
X105918000Y-46228000D03*
%TD*%
D11*
%TO.P,RV1,1,1*%
%TO.N,Net-(R3-Pad2)*%
X69985806Y-28702000D03*
%TO.P,RV1,2,2*%
%TO.N,VCC*%
X72525806Y-28702000D03*
%TO.P,RV1,3,3*%
%TO.N,Net-(R4-Pad2)*%
X75065806Y-28702000D03*
%TD*%
D12*
%TO.P,J1,1,Pin_1*%
%TO.N,EXP*%
X106520000Y-71120000D03*
D13*
%TO.P,J1,2,Pin_2*%
%TO.N,IN*%
X101520000Y-71120000D03*
%TO.P,J1,3,Pin_3*%
%TO.N,LFO*%
X96520000Y-71120000D03*
%TO.P,J1,4,Pin_4*%
%TO.N,OUT2*%
X91520000Y-71120000D03*
%TO.P,J1,5,Pin_5*%
%TO.N,OUT1*%
X86520000Y-71120000D03*
%TO.P,J1,6,Pin_6*%
%TO.N,VEE*%
X81520000Y-71120000D03*
%TO.P,J1,7,Pin_7*%
%TO.N,GND*%
X76520000Y-71120000D03*
%TO.P,J1,8,Pin_8*%
%TO.N,VCC*%
X71520000Y-71120000D03*
%TD*%
D11*
%TO.P,R8,1*%
%TO.N,Net-(Q3-B)*%
X82042000Y-58168500D03*
D10*
%TO.P,R8,2*%
%TO.N,Net-(R8-Pad2)*%
X82042000Y-60708500D03*
%TD*%
D14*
%TO.P,REF\u002A\u002A,MP*%
%TO.N,N/C*%
X55880000Y-71120000D03*
%TD*%
%TO.P,REF\u002A\u002A,MP*%
%TO.N,N/C*%
X55880000Y-30480000D03*
%TD*%
D11*
%TO.P,RV2,1,1*%
%TO.N,VCC*%
X72898000Y-60452000D03*
%TO.P,RV2,2,2*%
%TO.N,Net-(R8-Pad2)*%
X75438000Y-60452000D03*
%TO.P,RV2,3,3*%
%TO.N,VEE*%
X77978000Y-60452000D03*
%TD*%
%TO.P,R10,1*%
%TO.N,Net-(U1A-+)*%
X82039500Y-43434000D03*
D10*
%TO.P,R10,2*%
%TO.N,Net-(Q2-C)*%
X79499500Y-43434000D03*
%TD*%
D15*
%TO.P,Q2,1,C*%
%TO.N,Net-(Q2-C)*%
X75127806Y-32619994D03*
%TO.P,Q2,2,B*%
%TO.N,GND*%
X75127806Y-35159994D03*
D16*
%TO.P,Q2,3,E*%
%TO.N,Net-(Q1-E)*%
X75127806Y-37699994D03*
%TD*%
D10*
%TO.P,R25,1*%
%TO.N,Net-(R25-Pad1)*%
X111760000Y-64516000D03*
%TO.P,R25,2*%
%TO.N,VCC*%
X101600000Y-64516000D03*
%TD*%
%TO.P,C2,1*%
%TO.N,GND*%
X77764000Y-64770000D03*
%TO.P,C2,2*%
%TO.N,VEE*%
X82764000Y-64770000D03*
%TD*%
D15*
%TO.P,Q1,1,C*%
%TO.N,Net-(Q1-C)*%
X70259806Y-37699994D03*
%TO.P,Q1,2,B*%
%TO.N,Net-(Q1-B)*%
X70259806Y-35159994D03*
D17*
%TO.P,Q1,3,E*%
%TO.N,Net-(Q1-E)*%
X70259806Y-32619994D03*
%TD*%
D14*
%TO.P,REF\u002A\u002A,MP*%
%TO.N,N/C*%
X121920000Y-30480000D03*
%TD*%
D10*
%TO.P,R3,1*%
%TO.N,Net-(Q1-C)*%
X65921806Y-37699994D03*
%TO.P,R3,2*%
%TO.N,Net-(R3-Pad2)*%
X65921806Y-30079994D03*
%TD*%
D11*
%TO.P,R1,1*%
%TO.N,Net-(Q1-B)*%
X62992000Y-34800500D03*
D10*
%TO.P,R1,2*%
%TO.N,IN*%
X62992000Y-37340500D03*
%TD*%
D11*
%TO.P,R12,1*%
%TO.N,Net-(U1A-+)*%
X76962000Y-43688000D03*
D18*
%TO.P,R12,2*%
%TO.N,GND*%
X71882000Y-43688000D03*
%TD*%
D11*
%TO.P,R14,1*%
%TO.N,Net-(Q4-B)*%
X96012000Y-58422500D03*
D10*
%TO.P,R14,2*%
%TO.N,Net-(R14-Pad2)*%
X96012000Y-60962500D03*
%TD*%
%TO.P,R5,1*%
%TO.N,Net-(Q3-E)*%
X71882000Y-56388000D03*
%TO.P,R5,2*%
%TO.N,Net-(Q1-E)*%
X71882000Y-46228000D03*
%TD*%
%TO.P,R20,1*%
%TO.N,Net-(Q6-C)*%
X98648200Y-37846000D03*
%TO.P,R20,2*%
%TO.N,Net-(R20-Pad2)*%
X98648200Y-30226000D03*
%TD*%
D11*
%TO.P,R19,1*%
%TO.N,Net-(Q5-C)*%
X112014000Y-32766000D03*
D10*
%TO.P,R19,2*%
%TO.N,Net-(R19-Pad2)*%
X112014000Y-30226000D03*
%TD*%
D15*
%TO.P,Q5,1,C*%
%TO.N,Net-(Q5-C)*%
X107590000Y-32619994D03*
%TO.P,Q5,2,B*%
%TO.N,Net-(Q5-B)*%
X107590000Y-35159994D03*
D16*
%TO.P,Q5,3,E*%
%TO.N,Net-(Q5-E)*%
X107590000Y-37699994D03*
%TD*%
D19*
%TO.P,Q4,1,C*%
%TO.N,GND*%
X95758000Y-55118000D03*
%TO.P,Q4,2,B*%
%TO.N,Net-(Q4-B)*%
X98298000Y-55118000D03*
D20*
%TO.P,Q4,3,E*%
%TO.N,Net-(Q4-E)*%
X100838000Y-55118000D03*
%TD*%
D11*
%TO.P,RV5,1,1*%
%TO.N,VCC*%
X100076000Y-60452000D03*
%TO.P,RV5,2,2*%
%TO.N,Net-(R14-Pad2)*%
X102616000Y-60452000D03*
%TO.P,RV5,3,3*%
%TO.N,VEE*%
X105156000Y-60452000D03*
%TD*%
D10*
%TO.P,R6,1*%
%TO.N,VEE*%
X74422000Y-53850500D03*
D11*
%TO.P,R6,2*%
%TO.N,Net-(Q3-E)*%
X74422000Y-56390500D03*
%TD*%
D14*
%TO.P,REF\u002A\u002A,MP*%
%TO.N,N/C*%
X121920000Y-71120000D03*
%TD*%
D11*
%TO.P,R2,1*%
%TO.N,GND*%
X62992000Y-29718000D03*
D10*
%TO.P,R2,2*%
%TO.N,Net-(Q1-B)*%
X62992000Y-32258000D03*
%TD*%
D11*
%TO.P,R11,1*%
%TO.N,OUT1*%
X82042000Y-38102500D03*
D10*
%TO.P,R11,2*%
%TO.N,Net-(U1A--)*%
X82042000Y-40642500D03*
%TD*%
%TO.P,C4,1*%
%TO.N,GND*%
X100544000Y-46482000D03*
%TO.P,C4,2*%
%TO.N,VEE*%
X95544000Y-46482000D03*
%TD*%
%TO.P,R21,1*%
%TO.N,Net-(U1D--)*%
X98298000Y-40640000D03*
%TO.P,R21,2*%
%TO.N,Net-(Q5-C)*%
X105918000Y-40640000D03*
%TD*%
D11*
%TO.P,R24,1*%
%TO.N,OUT2*%
X95758000Y-38100000D03*
D10*
%TO.P,R24,2*%
%TO.N,Net-(U1D--)*%
X95758000Y-40640000D03*
%TD*%
D11*
%TO.P,R23,1*%
%TO.N,Net-(U1D-+)*%
X100838000Y-43688000D03*
D18*
%TO.P,R23,2*%
%TO.N,GND*%
X105918000Y-43688000D03*
%TD*%
D10*
%TO.P,C3,1*%
%TO.N,VCC*%
X82256000Y-46736000D03*
%TO.P,C3,2*%
%TO.N,GND*%
X77256000Y-46736000D03*
%TD*%
D11*
%TO.P,R22,1*%
%TO.N,Net-(U1D-+)*%
X95758000Y-43180000D03*
D10*
%TO.P,R22,2*%
%TO.N,Net-(Q6-C)*%
X98298000Y-43180000D03*
%TD*%
D11*
%TO.P,R7,1*%
%TO.N,Net-(Q3-B)*%
X77216000Y-50800000D03*
D18*
%TO.P,R7,2*%
%TO.N,Net-(U1B--)*%
X82296000Y-50800000D03*
%TD*%
D10*
%TO.P,C1,1*%
%TO.N,VCC*%
X70184000Y-64770000D03*
%TO.P,C1,2*%
%TO.N,GND*%
X75184000Y-64770000D03*
%TD*%
D11*
%TO.P,R15,1*%
%TO.N,Net-(Q5-B)*%
X112014000Y-35308500D03*
D10*
%TO.P,R15,2*%
%TO.N,OUT1*%
X112014000Y-37848500D03*
%TD*%
%TO.P,R9,1*%
%TO.N,Net-(U1A--)*%
X79502000Y-40640000D03*
%TO.P,R9,2*%
%TO.N,Net-(Q1-C)*%
X69342000Y-40640000D03*
%TD*%
D19*
%TO.P,Q3,1,C*%
%TO.N,GND*%
X82042000Y-54102000D03*
%TO.P,Q3,2,B*%
%TO.N,Net-(Q3-B)*%
X79502000Y-54102000D03*
D21*
%TO.P,Q3,3,E*%
%TO.N,Net-(Q3-E)*%
X76962000Y-54102000D03*
%TD*%
D11*
%TO.P,R4,1*%
%TO.N,Net-(Q2-C)*%
X79383806Y-32619994D03*
D10*
%TO.P,R4,2*%
%TO.N,Net-(R4-Pad2)*%
X79383806Y-30079994D03*
%TD*%
%TO.P,R18,1*%
%TO.N,VEE*%
X103378000Y-52578000D03*
D11*
%TO.P,R18,2*%
%TO.N,Net-(Q4-E)*%
X103378000Y-55118000D03*
%TD*%
D15*
%TO.P,Q6,1,C*%
%TO.N,Net-(Q6-C)*%
X102870000Y-37699994D03*
%TO.P,Q6,2,B*%
%TO.N,GND*%
X102870000Y-35159994D03*
D17*
%TO.P,Q6,3,E*%
%TO.N,Net-(Q5-E)*%
X102870000Y-32619994D03*
%TD*%
D10*
%TO.P,R16,1*%
%TO.N,GND*%
X114808000Y-32766000D03*
D11*
%TO.P,R16,2*%
%TO.N,Net-(Q5-B)*%
X114808000Y-35306000D03*
%TD*%
%TO.P,R13,1*%
%TO.N,Net-(Q4-B)*%
X100838000Y-50800000D03*
D18*
%TO.P,R13,2*%
%TO.N,Net-(U1C--)*%
X95758000Y-50800000D03*
%TD*%
D10*
%TO.P,R26,1*%
%TO.N,GND*%
X124460000Y-64516000D03*
%TO.P,R26,2*%
%TO.N,Net-(R25-Pad1)*%
X114300000Y-64516000D03*
%TD*%
D11*
%TO.P,U1,1*%
%TO.N,OUT1*%
X85090000Y-38105000D03*
%TO.P,U1,2,-*%
%TO.N,Net-(U1A--)*%
X85090000Y-40645000D03*
%TO.P,U1,3,+*%
%TO.N,Net-(U1A-+)*%
X85090000Y-43185000D03*
D10*
%TO.P,U1,4,V+*%
%TO.N,VCC*%
X85090000Y-45725000D03*
D11*
%TO.P,U1,5,+*%
%TO.N,Net-(U1B-+)*%
X85090000Y-48265000D03*
%TO.P,U1,6,-*%
%TO.N,Net-(U1B--)*%
X85090000Y-50805000D03*
%TO.P,U1,7*%
X85090000Y-53345000D03*
%TO.P,U1,8*%
%TO.N,Net-(U1C--)*%
X92710000Y-53345000D03*
%TO.P,U1,9,-*%
X92710000Y-50805000D03*
%TO.P,U1,10,+*%
%TO.N,Net-(U1C-+)*%
X92710000Y-48265000D03*
D10*
%TO.P,U1,11,V-*%
%TO.N,VEE*%
X92710000Y-45725000D03*
D11*
%TO.P,U1,12,+*%
%TO.N,Net-(U1D-+)*%
X92710000Y-43185000D03*
%TO.P,U1,13,-*%
%TO.N,Net-(U1D--)*%
X92710000Y-40645000D03*
%TO.P,U1,14*%
%TO.N,OUT2*%
X92710000Y-38105000D03*
%TD*%
%TO.P,RV6,1,1*%
%TO.N,Net-(R19-Pad2)*%
X107792200Y-28702000D03*
%TO.P,RV6,2,2*%
%TO.N,VCC*%
X105252200Y-28702000D03*
%TO.P,RV6,3,3*%
%TO.N,Net-(R20-Pad2)*%
X102712200Y-28702000D03*
%TD*%
D22*
%TO.P,RV3,1,1*%
%TO.N,GND*%
X66040000Y-61260000D03*
D23*
X66040000Y-61260000D03*
D22*
%TO.P,RV3,2,2*%
%TO.N,Net-(U1B-+)*%
X60960000Y-61260000D03*
D23*
X60960000Y-61260000D03*
D22*
%TO.P,RV3,3,3*%
%TO.N,LFO*%
X55880000Y-61260000D03*
D24*
X55880000Y-61260000D03*
D25*
%TO.P,RV3,MP*%
%TO.N,N/C*%
X68960000Y-48260000D03*
D26*
X60960000Y-48260000D03*
D27*
X60960000Y-48260000D03*
%TD*%
D22*
%TO.P,RV4,1,1*%
%TO.N,Net-(R25-Pad1)*%
X121920000Y-61260000D03*
D23*
X121920000Y-61260000D03*
D22*
%TO.P,RV4,2,2*%
%TO.N,Net-(U1C-+)*%
X116840000Y-61260000D03*
D23*
X116840000Y-61260000D03*
D22*
%TO.P,RV4,3,3*%
%TO.N,EXP*%
X111760000Y-61260000D03*
D24*
X111760000Y-61260000D03*
D25*
%TO.P,RV4,MP*%
%TO.N,N/C*%
X124840000Y-48260000D03*
D26*
X116840000Y-48260000D03*
D27*
X116840000Y-48260000D03*
%TD*%
D28*
%TO.N,GND*%
X93980000Y-66294000D03*
X115062000Y-40132000D03*
X60198000Y-35410100D03*
%TO.N,VCC*%
X74168000Y-51054000D03*
X82296000Y-28956000D03*
%TO.N,VEE*%
X85497400Y-59690000D03*
%TO.N,Net-(U1B-+)*%
X65633600Y-56538000D03*
%TO.N,LFO*%
X58674000Y-64008000D03*
%TO.N,EXP*%
X111760000Y-69342000D03*
%TD*%
D29*
%TO.N,GND*%
X79706200Y-63335800D02*
X79706200Y-57911000D01*
X107629486Y-43180000D02*
X105918000Y-43180000D01*
X102870000Y-35159994D02*
X104648000Y-35159994D01*
X117094000Y-38100000D02*
X117094000Y-34544000D01*
X105918000Y-43180000D02*
X103846000Y-43180000D01*
X74422000Y-46736000D02*
X74422000Y-48068587D01*
X71882000Y-43688000D02*
X72720199Y-42849801D01*
X74162606Y-35159994D02*
X75127806Y-35159994D01*
X82296000Y-53495492D02*
X82296000Y-54356000D01*
X72720199Y-42849801D02*
X72720199Y-36602401D01*
X105207800Y-35719794D02*
X105207800Y-38618787D01*
X74422000Y-45720000D02*
X74422000Y-46736000D01*
X66040000Y-61260000D02*
X67010000Y-61260000D01*
X74422000Y-48068587D02*
X67564000Y-54926587D01*
X105207800Y-38618787D02*
X103846000Y-39980587D01*
X72390000Y-43688000D02*
X74422000Y-45720000D01*
X77764000Y-65278000D02*
X80304000Y-62738000D01*
X103846000Y-39980587D02*
X103846000Y-43180000D01*
X60198000Y-37277913D02*
X62551481Y-39631394D01*
X93980000Y-66294000D02*
X93064600Y-67209400D01*
X80304000Y-62738000D02*
X88138000Y-62738000D01*
X62551481Y-39631394D02*
X65326773Y-39631394D01*
X67564000Y-54926587D02*
X67564000Y-57658000D01*
X69088000Y-59182000D02*
X75184000Y-65278000D01*
X77764000Y-65278000D02*
X79706200Y-63335800D01*
X77256000Y-46736000D02*
X74422000Y-46736000D01*
X88138000Y-62738000D02*
X95758000Y-55118000D01*
X67010000Y-61260000D02*
X69088000Y-59182000D01*
X93064600Y-67209400D02*
X79695400Y-67209400D01*
X72720199Y-36602401D02*
X74162606Y-35159994D01*
X115062000Y-40132000D02*
X110677486Y-40132000D01*
X69383379Y-43688000D02*
X71882000Y-43688000D01*
X117094000Y-34544000D02*
X115316000Y-32766000D01*
X79706200Y-57911000D02*
X82042000Y-55575200D01*
X82042000Y-55575200D02*
X82042000Y-54356000D01*
X71882000Y-43688000D02*
X72390000Y-43688000D01*
X60198000Y-35410100D02*
X60198000Y-37277913D01*
X103846000Y-43180000D02*
X100544000Y-46482000D01*
X65326773Y-39631394D02*
X69383379Y-43688000D01*
X110677486Y-40132000D02*
X107629486Y-43180000D01*
X79695400Y-67209400D02*
X77764000Y-65278000D01*
X115062000Y-40132000D02*
X117094000Y-38100000D01*
X115316000Y-32766000D02*
X114808000Y-32766000D01*
X104648000Y-35159994D02*
X105207800Y-35719794D01*
X67564000Y-57658000D02*
X69088000Y-59182000D01*
%TO.N,VCC*%
X73987800Y-68652200D02*
X97463800Y-68652200D01*
X103886000Y-26924000D02*
X105252200Y-28290200D01*
X76554600Y-48667400D02*
X80324600Y-48667400D01*
X97463800Y-68652200D02*
X101600000Y-64516000D01*
X74168000Y-51054000D02*
X76554600Y-48667400D01*
X88900000Y-28956000D02*
X90932000Y-26924000D01*
X105252200Y-28290200D02*
X105252200Y-28702000D01*
X90932000Y-26924000D02*
X103886000Y-26924000D01*
X88900000Y-28956000D02*
X82296000Y-28956000D01*
X89154000Y-41661000D02*
X89154000Y-28956000D01*
X80324600Y-48667400D02*
X82256000Y-46736000D01*
X71520000Y-71120000D02*
X73987800Y-68652200D01*
X85090000Y-45725000D02*
X89154000Y-41661000D01*
X89154000Y-28956000D02*
X88900000Y-28956000D01*
%TO.N,VEE*%
X71371500Y-53850500D02*
X69596000Y-55626000D01*
X97475400Y-48413400D02*
X95544000Y-46482000D01*
X90678000Y-47757000D02*
X92710000Y-45725000D01*
X103378000Y-52578000D02*
X103378000Y-50447387D01*
X70765400Y-58319400D02*
X75845400Y-58319400D01*
X69596000Y-55626000D02*
X69596000Y-57150000D01*
X74676000Y-53850500D02*
X71371500Y-53850500D01*
X101344013Y-48413400D02*
X97475400Y-48413400D01*
X69596000Y-57150000D02*
X70765400Y-58319400D01*
X75845400Y-58319400D02*
X77978000Y-60452000D01*
X85497400Y-59690000D02*
X90678000Y-54509400D01*
X103378000Y-50447387D02*
X101344013Y-48413400D01*
X90678000Y-54509400D02*
X90678000Y-47757000D01*
%TO.N,Net-(U1B-+)*%
X65633600Y-56538000D02*
X65633600Y-56586400D01*
X65633600Y-56586400D02*
X60960000Y-61260000D01*
%TO.N,LFO*%
X58628000Y-64008000D02*
X55880000Y-61260000D01*
X58674000Y-64008000D02*
X58628000Y-64008000D01*
%TO.N,Net-(Q5-C)*%
X109982000Y-38812172D02*
X109982000Y-33889994D01*
X109982000Y-33889994D02*
X108712000Y-32619994D01*
X105918000Y-40640000D02*
X108300178Y-40640000D01*
X108712000Y-32619994D02*
X107590000Y-32619994D01*
X108300178Y-40640000D02*
X109982000Y-38958178D01*
%TO.N,Net-(R25-Pad1)*%
X111760000Y-64516000D02*
X114300000Y-64516000D01*
X114554000Y-64770000D02*
X118410000Y-64770000D01*
X118410000Y-64770000D02*
X121920000Y-61260000D01*
X114300000Y-64516000D02*
X114554000Y-64770000D01*
%TO.N,EXP*%
X109828600Y-67410600D02*
X109828600Y-63191400D01*
X109828600Y-63191400D02*
X111760000Y-61260000D01*
X111760000Y-69342000D02*
X109828600Y-67410600D01*
%TD*%
M02*
