M48
; DRILL file {KiCad 9.0.6} date 2026-04-22T22:04:53-0700
; FORMAT={-:-/ absolute / metric / decimal}
; #@! TF.CreationDate,2026-04-22T22:04:53-07:00
; #@! TF.GenerationSoftware,Kicad,Pcbnew,9.0.6
; #@! TF.FileFunction,Plated,1,2,PTH
FMAT,2
METRIC
; #@! TA.AperFunction,Plated,PTH,ViaDrill
T1C0.813
; #@! TA.AperFunction,Plated,PTH,ComponentDrill
T2C0.813
; #@! TA.AperFunction,Plated,PTH,ComponentDrill
T3C1.270
; #@! TA.AperFunction,Plated,PTH,ComponentDrill
T4C1.300
; #@! TA.AperFunction,Plated,PTH,ComponentDrill
T5C2.794
; #@! TA.AperFunction,Plated,PTH,ComponentDrill
T6C3.300
; #@! TA.AperFunction,Plated,PTH,ComponentDrill
T7C7.000
%
G90
G05
T1
X58.674Y-64.008
X60.198Y-35.41
X65.634Y-56.538
X74.168Y-51.054
X82.296Y-28.956
X85.497Y-59.69
X93.98Y-66.294
X111.76Y-69.342
X115.062Y-40.132
T2
X62.992Y-29.718
X62.992Y-32.258
X62.992Y-34.8
X62.992Y-37.34
X65.922Y-30.08
X65.922Y-37.7
X69.342Y-40.64
X69.986Y-28.702
X70.184Y-64.77
X70.26Y-32.62
X70.26Y-35.16
X70.26Y-37.7
X71.882Y-43.688
X71.882Y-46.228
X71.882Y-56.388
X72.526Y-28.702
X72.898Y-60.452
X74.422Y-53.85
X74.422Y-56.39
X75.066Y-28.702
X75.128Y-32.62
X75.128Y-35.16
X75.128Y-37.7
X75.184Y-64.77
X75.438Y-60.452
X76.962Y-43.688
X76.962Y-54.102
X77.216Y-50.8
X77.256Y-46.736
X77.764Y-64.77
X77.978Y-60.452
X79.384Y-30.08
X79.384Y-32.62
X79.499Y-43.434
X79.502Y-40.64
X79.502Y-54.102
X82.039Y-43.434
X82.042Y-38.102
X82.042Y-40.642
X82.042Y-54.102
X82.042Y-58.168
X82.042Y-60.709
X82.256Y-46.736
X82.296Y-50.8
X82.764Y-64.77
X85.09Y-38.105
X85.09Y-40.645
X85.09Y-43.185
X85.09Y-45.725
X85.09Y-48.265
X85.09Y-50.805
X85.09Y-53.345
X92.71Y-38.105
X92.71Y-40.645
X92.71Y-43.185
X92.71Y-45.725
X92.71Y-48.265
X92.71Y-50.805
X92.71Y-53.345
X95.544Y-46.482
X95.758Y-38.1
X95.758Y-40.64
X95.758Y-43.18
X95.758Y-50.8
X95.758Y-55.118
X96.012Y-58.422
X96.012Y-60.962
X98.298Y-40.64
X98.298Y-43.18
X98.298Y-55.118
X98.648Y-30.226
X98.648Y-37.846
X100.076Y-60.452
X100.544Y-46.482
X100.838Y-43.688
X100.838Y-50.8
X100.838Y-55.118
X101.6Y-64.516
X102.616Y-60.452
X102.712Y-28.702
X102.87Y-32.62
X102.87Y-35.16
X102.87Y-37.7
X103.378Y-52.578
X103.378Y-55.118
X105.156Y-60.452
X105.252Y-28.702
X105.918Y-40.64
X105.918Y-43.688
X105.918Y-46.228
X105.918Y-56.388
X107.59Y-32.62
X107.59Y-35.16
X107.59Y-37.7
X107.792Y-28.702
X111.76Y-64.516
X112.014Y-30.226
X112.014Y-32.766
X112.014Y-35.308
X112.014Y-37.849
X114.3Y-64.516
X114.808Y-32.766
X114.808Y-35.306
X124.46Y-64.516
T3
X55.88Y-61.26
X60.96Y-61.26
X66.04Y-61.26
X111.76Y-61.26
X116.84Y-61.26
X121.92Y-61.26
T4
X71.52Y-71.12
X76.52Y-71.12
X81.52Y-71.12
X86.52Y-71.12
X91.52Y-71.12
X96.52Y-71.12
X101.52Y-71.12
X106.52Y-71.12
T5
X68.96Y-48.26
X124.84Y-48.26
T6
X55.88Y-30.48
X55.88Y-71.12
X121.92Y-30.48
X121.92Y-71.12
T7
X60.96Y-48.26
X116.84Y-48.26
M30
