%TF.GenerationSoftware,KiCad,Pcbnew,9.0.6*%
%TF.CreationDate,2026-04-22T22:04:51-07:00*%
%TF.ProjectId,modulinVCA,6d6f6475-6c69-46e5-9643-412e6b696361,rev?*%
%TF.SameCoordinates,Original*%
%TF.FileFunction,Legend,Top*%
%TF.FilePolarity,Positive*%
%FSLAX46Y46*%
G04 Gerber Fmt 4.6, Leading zero omitted, Abs format (unit mm)*
G04 Created by KiCad (PCBNEW 9.0.6) date 2026-04-22 22:04:51*
%MOMM*%
%LPD*%
G01*
G04 APERTURE LIST*
%ADD10C,0.150000*%
%ADD11C,0.095250*%
%ADD12C,0.125000*%
%ADD13C,0.120000*%
%ADD14C,0.100000*%
G04 APERTURE END LIST*
D10*
X70781333Y-66452963D02*
X70992999Y-67087963D01*
X70992999Y-67087963D02*
X71204666Y-66452963D01*
X71779190Y-67027486D02*
X71748952Y-67057725D01*
X71748952Y-67057725D02*
X71658238Y-67087963D01*
X71658238Y-67087963D02*
X71597762Y-67087963D01*
X71597762Y-67087963D02*
X71507047Y-67057725D01*
X71507047Y-67057725D02*
X71446571Y-66997248D01*
X71446571Y-66997248D02*
X71416333Y-66936772D01*
X71416333Y-66936772D02*
X71386095Y-66815820D01*
X71386095Y-66815820D02*
X71386095Y-66725105D01*
X71386095Y-66725105D02*
X71416333Y-66604153D01*
X71416333Y-66604153D02*
X71446571Y-66543677D01*
X71446571Y-66543677D02*
X71507047Y-66483201D01*
X71507047Y-66483201D02*
X71597762Y-66452963D01*
X71597762Y-66452963D02*
X71658238Y-66452963D01*
X71658238Y-66452963D02*
X71748952Y-66483201D01*
X71748952Y-66483201D02*
X71779190Y-66513439D01*
X72414190Y-67027486D02*
X72383952Y-67057725D01*
X72383952Y-67057725D02*
X72293238Y-67087963D01*
X72293238Y-67087963D02*
X72232762Y-67087963D01*
X72232762Y-67087963D02*
X72142047Y-67057725D01*
X72142047Y-67057725D02*
X72081571Y-66997248D01*
X72081571Y-66997248D02*
X72051333Y-66936772D01*
X72051333Y-66936772D02*
X72021095Y-66815820D01*
X72021095Y-66815820D02*
X72021095Y-66725105D01*
X72021095Y-66725105D02*
X72051333Y-66604153D01*
X72051333Y-66604153D02*
X72081571Y-66543677D01*
X72081571Y-66543677D02*
X72142047Y-66483201D01*
X72142047Y-66483201D02*
X72232762Y-66452963D01*
X72232762Y-66452963D02*
X72293238Y-66452963D01*
X72293238Y-66452963D02*
X72383952Y-66483201D01*
X72383952Y-66483201D02*
X72414190Y-66513439D01*
X90804999Y-66452963D02*
X90925952Y-66452963D01*
X90925952Y-66452963D02*
X90986428Y-66483201D01*
X90986428Y-66483201D02*
X91046904Y-66543677D01*
X91046904Y-66543677D02*
X91077142Y-66664629D01*
X91077142Y-66664629D02*
X91077142Y-66876296D01*
X91077142Y-66876296D02*
X91046904Y-66997248D01*
X91046904Y-66997248D02*
X90986428Y-67057725D01*
X90986428Y-67057725D02*
X90925952Y-67087963D01*
X90925952Y-67087963D02*
X90804999Y-67087963D01*
X90804999Y-67087963D02*
X90744523Y-67057725D01*
X90744523Y-67057725D02*
X90684047Y-66997248D01*
X90684047Y-66997248D02*
X90653809Y-66876296D01*
X90653809Y-66876296D02*
X90653809Y-66664629D01*
X90653809Y-66664629D02*
X90684047Y-66543677D01*
X90684047Y-66543677D02*
X90744523Y-66483201D01*
X90744523Y-66483201D02*
X90804999Y-66452963D01*
X91349285Y-66452963D02*
X91349285Y-66967010D01*
X91349285Y-66967010D02*
X91379523Y-67027486D01*
X91379523Y-67027486D02*
X91409761Y-67057725D01*
X91409761Y-67057725D02*
X91470237Y-67087963D01*
X91470237Y-67087963D02*
X91591190Y-67087963D01*
X91591190Y-67087963D02*
X91651666Y-67057725D01*
X91651666Y-67057725D02*
X91681904Y-67027486D01*
X91681904Y-67027486D02*
X91712142Y-66967010D01*
X91712142Y-66967010D02*
X91712142Y-66452963D01*
X91923809Y-66452963D02*
X92286666Y-66452963D01*
X92105237Y-67087963D02*
X92105237Y-66452963D01*
X105416047Y-66755344D02*
X105627714Y-66755344D01*
X105718428Y-67087963D02*
X105416047Y-67087963D01*
X105416047Y-67087963D02*
X105416047Y-66452963D01*
X105416047Y-66452963D02*
X105718428Y-66452963D01*
X105930095Y-66452963D02*
X106353428Y-67087963D01*
X106353428Y-66452963D02*
X105930095Y-67087963D01*
X106595333Y-67087963D02*
X106595333Y-66452963D01*
X106595333Y-66452963D02*
X106837238Y-66452963D01*
X106837238Y-66452963D02*
X106897714Y-66483201D01*
X106897714Y-66483201D02*
X106927952Y-66513439D01*
X106927952Y-66513439D02*
X106958190Y-66573915D01*
X106958190Y-66573915D02*
X106958190Y-66664629D01*
X106958190Y-66664629D02*
X106927952Y-66725105D01*
X106927952Y-66725105D02*
X106897714Y-66755344D01*
X106897714Y-66755344D02*
X106837238Y-66785582D01*
X106837238Y-66785582D02*
X106595333Y-66785582D01*
X101013381Y-67087963D02*
X101013381Y-66452963D01*
X101315762Y-67087963D02*
X101315762Y-66452963D01*
X101315762Y-66452963D02*
X101678619Y-67087963D01*
X101678619Y-67087963D02*
X101678619Y-66452963D01*
X75970190Y-66483201D02*
X75909714Y-66452963D01*
X75909714Y-66452963D02*
X75819000Y-66452963D01*
X75819000Y-66452963D02*
X75728285Y-66483201D01*
X75728285Y-66483201D02*
X75667809Y-66543677D01*
X75667809Y-66543677D02*
X75637571Y-66604153D01*
X75637571Y-66604153D02*
X75607333Y-66725105D01*
X75607333Y-66725105D02*
X75607333Y-66815820D01*
X75607333Y-66815820D02*
X75637571Y-66936772D01*
X75637571Y-66936772D02*
X75667809Y-66997248D01*
X75667809Y-66997248D02*
X75728285Y-67057725D01*
X75728285Y-67057725D02*
X75819000Y-67087963D01*
X75819000Y-67087963D02*
X75879476Y-67087963D01*
X75879476Y-67087963D02*
X75970190Y-67057725D01*
X75970190Y-67057725D02*
X76000428Y-67027486D01*
X76000428Y-67027486D02*
X76000428Y-66815820D01*
X76000428Y-66815820D02*
X75879476Y-66815820D01*
X76272571Y-67087963D02*
X76272571Y-66452963D01*
X76272571Y-66452963D02*
X76635428Y-67087963D01*
X76635428Y-67087963D02*
X76635428Y-66452963D01*
X76937809Y-67087963D02*
X76937809Y-66452963D01*
X76937809Y-66452963D02*
X77088999Y-66452963D01*
X77088999Y-66452963D02*
X77179714Y-66483201D01*
X77179714Y-66483201D02*
X77240190Y-66543677D01*
X77240190Y-66543677D02*
X77270428Y-66604153D01*
X77270428Y-66604153D02*
X77300666Y-66725105D01*
X77300666Y-66725105D02*
X77300666Y-66815820D01*
X77300666Y-66815820D02*
X77270428Y-66936772D01*
X77270428Y-66936772D02*
X77240190Y-66997248D01*
X77240190Y-66997248D02*
X77179714Y-67057725D01*
X77179714Y-67057725D02*
X77088999Y-67087963D01*
X77088999Y-67087963D02*
X76937809Y-67087963D01*
X96111785Y-67087963D02*
X95809404Y-67087963D01*
X95809404Y-67087963D02*
X95809404Y-66452963D01*
X96535119Y-66755344D02*
X96323452Y-66755344D01*
X96323452Y-67087963D02*
X96323452Y-66452963D01*
X96323452Y-66452963D02*
X96625833Y-66452963D01*
X96988690Y-66452963D02*
X97109643Y-66452963D01*
X97109643Y-66452963D02*
X97170119Y-66483201D01*
X97170119Y-66483201D02*
X97230595Y-66543677D01*
X97230595Y-66543677D02*
X97260833Y-66664629D01*
X97260833Y-66664629D02*
X97260833Y-66876296D01*
X97260833Y-66876296D02*
X97230595Y-66997248D01*
X97230595Y-66997248D02*
X97170119Y-67057725D01*
X97170119Y-67057725D02*
X97109643Y-67087963D01*
X97109643Y-67087963D02*
X96988690Y-67087963D01*
X96988690Y-67087963D02*
X96928214Y-67057725D01*
X96928214Y-67057725D02*
X96867738Y-66997248D01*
X96867738Y-66997248D02*
X96837500Y-66876296D01*
X96837500Y-66876296D02*
X96837500Y-66664629D01*
X96837500Y-66664629D02*
X96867738Y-66543677D01*
X96867738Y-66543677D02*
X96928214Y-66483201D01*
X96928214Y-66483201D02*
X96988690Y-66452963D01*
X80747809Y-66452963D02*
X80959475Y-67087963D01*
X80959475Y-67087963D02*
X81171142Y-66452963D01*
X81382809Y-66755344D02*
X81594476Y-66755344D01*
X81685190Y-67087963D02*
X81382809Y-67087963D01*
X81382809Y-67087963D02*
X81382809Y-66452963D01*
X81382809Y-66452963D02*
X81685190Y-66452963D01*
X81957333Y-66755344D02*
X82169000Y-66755344D01*
X82259714Y-67087963D02*
X81957333Y-67087963D01*
X81957333Y-67087963D02*
X81957333Y-66452963D01*
X81957333Y-66452963D02*
X82259714Y-66452963D01*
X84938809Y-66755344D02*
X85029523Y-66785582D01*
X85029523Y-66785582D02*
X85059761Y-66815820D01*
X85059761Y-66815820D02*
X85089999Y-66876296D01*
X85089999Y-66876296D02*
X85089999Y-66967010D01*
X85089999Y-66967010D02*
X85059761Y-67027486D01*
X85059761Y-67027486D02*
X85029523Y-67057725D01*
X85029523Y-67057725D02*
X84969047Y-67087963D01*
X84969047Y-67087963D02*
X84727142Y-67087963D01*
X84727142Y-67087963D02*
X84727142Y-66452963D01*
X84727142Y-66452963D02*
X84938809Y-66452963D01*
X84938809Y-66452963D02*
X84999285Y-66483201D01*
X84999285Y-66483201D02*
X85029523Y-66513439D01*
X85029523Y-66513439D02*
X85059761Y-66573915D01*
X85059761Y-66573915D02*
X85059761Y-66634391D01*
X85059761Y-66634391D02*
X85029523Y-66694867D01*
X85029523Y-66694867D02*
X84999285Y-66725105D01*
X84999285Y-66725105D02*
X84938809Y-66755344D01*
X84938809Y-66755344D02*
X84727142Y-66755344D01*
X85483094Y-66785582D02*
X85483094Y-67087963D01*
X85271428Y-66452963D02*
X85483094Y-66785582D01*
X85483094Y-66785582D02*
X85694761Y-66452963D01*
X85906428Y-67087963D02*
X85906428Y-66452963D01*
X85906428Y-66452963D02*
X86148333Y-66452963D01*
X86148333Y-66452963D02*
X86208809Y-66483201D01*
X86208809Y-66483201D02*
X86239047Y-66513439D01*
X86239047Y-66513439D02*
X86269285Y-66573915D01*
X86269285Y-66573915D02*
X86269285Y-66664629D01*
X86269285Y-66664629D02*
X86239047Y-66725105D01*
X86239047Y-66725105D02*
X86208809Y-66755344D01*
X86208809Y-66755344D02*
X86148333Y-66785582D01*
X86148333Y-66785582D02*
X85906428Y-66785582D01*
X86511190Y-66906534D02*
X86813571Y-66906534D01*
X86450714Y-67087963D02*
X86662380Y-66452963D01*
X86662380Y-66452963D02*
X86874047Y-67087963D01*
X87055476Y-67057725D02*
X87146190Y-67087963D01*
X87146190Y-67087963D02*
X87297381Y-67087963D01*
X87297381Y-67087963D02*
X87357857Y-67057725D01*
X87357857Y-67057725D02*
X87388095Y-67027486D01*
X87388095Y-67027486D02*
X87418333Y-66967010D01*
X87418333Y-66967010D02*
X87418333Y-66906534D01*
X87418333Y-66906534D02*
X87388095Y-66846058D01*
X87388095Y-66846058D02*
X87357857Y-66815820D01*
X87357857Y-66815820D02*
X87297381Y-66785582D01*
X87297381Y-66785582D02*
X87176428Y-66755344D01*
X87176428Y-66755344D02*
X87115952Y-66725105D01*
X87115952Y-66725105D02*
X87085714Y-66694867D01*
X87085714Y-66694867D02*
X87055476Y-66634391D01*
X87055476Y-66634391D02*
X87055476Y-66573915D01*
X87055476Y-66573915D02*
X87085714Y-66513439D01*
X87085714Y-66513439D02*
X87115952Y-66483201D01*
X87115952Y-66483201D02*
X87176428Y-66452963D01*
X87176428Y-66452963D02*
X87327619Y-66452963D01*
X87327619Y-66452963D02*
X87418333Y-66483201D01*
X87660238Y-67057725D02*
X87750952Y-67087963D01*
X87750952Y-67087963D02*
X87902143Y-67087963D01*
X87902143Y-67087963D02*
X87962619Y-67057725D01*
X87962619Y-67057725D02*
X87992857Y-67027486D01*
X87992857Y-67027486D02*
X88023095Y-66967010D01*
X88023095Y-66967010D02*
X88023095Y-66906534D01*
X88023095Y-66906534D02*
X87992857Y-66846058D01*
X87992857Y-66846058D02*
X87962619Y-66815820D01*
X87962619Y-66815820D02*
X87902143Y-66785582D01*
X87902143Y-66785582D02*
X87781190Y-66755344D01*
X87781190Y-66755344D02*
X87720714Y-66725105D01*
X87720714Y-66725105D02*
X87690476Y-66694867D01*
X87690476Y-66694867D02*
X87660238Y-66634391D01*
X87660238Y-66634391D02*
X87660238Y-66573915D01*
X87660238Y-66573915D02*
X87690476Y-66513439D01*
X87690476Y-66513439D02*
X87720714Y-66483201D01*
X87720714Y-66483201D02*
X87781190Y-66452963D01*
X87781190Y-66452963D02*
X87932381Y-66452963D01*
X87932381Y-66452963D02*
X88023095Y-66483201D01*
X106372819Y-51950857D02*
X105896628Y-52284190D01*
X106372819Y-52522285D02*
X105372819Y-52522285D01*
X105372819Y-52522285D02*
X105372819Y-52141333D01*
X105372819Y-52141333D02*
X105420438Y-52046095D01*
X105420438Y-52046095D02*
X105468057Y-51998476D01*
X105468057Y-51998476D02*
X105563295Y-51950857D01*
X105563295Y-51950857D02*
X105706152Y-51950857D01*
X105706152Y-51950857D02*
X105801390Y-51998476D01*
X105801390Y-51998476D02*
X105849009Y-52046095D01*
X105849009Y-52046095D02*
X105896628Y-52141333D01*
X105896628Y-52141333D02*
X105896628Y-52522285D01*
X106372819Y-50998476D02*
X106372819Y-51569904D01*
X106372819Y-51284190D02*
X105372819Y-51284190D01*
X105372819Y-51284190D02*
X105515676Y-51379428D01*
X105515676Y-51379428D02*
X105610914Y-51474666D01*
X105610914Y-51474666D02*
X105658533Y-51569904D01*
X105372819Y-50665142D02*
X105372819Y-49998476D01*
X105372819Y-49998476D02*
X106372819Y-50427047D01*
X71930567Y-30680819D02*
X71597234Y-30204628D01*
X71359139Y-30680819D02*
X71359139Y-29680819D01*
X71359139Y-29680819D02*
X71740091Y-29680819D01*
X71740091Y-29680819D02*
X71835329Y-29728438D01*
X71835329Y-29728438D02*
X71882948Y-29776057D01*
X71882948Y-29776057D02*
X71930567Y-29871295D01*
X71930567Y-29871295D02*
X71930567Y-30014152D01*
X71930567Y-30014152D02*
X71882948Y-30109390D01*
X71882948Y-30109390D02*
X71835329Y-30157009D01*
X71835329Y-30157009D02*
X71740091Y-30204628D01*
X71740091Y-30204628D02*
X71359139Y-30204628D01*
X72216282Y-29680819D02*
X72549615Y-30680819D01*
X72549615Y-30680819D02*
X72882948Y-29680819D01*
X73740091Y-30680819D02*
X73168663Y-30680819D01*
X73454377Y-30680819D02*
X73454377Y-29680819D01*
X73454377Y-29680819D02*
X73359139Y-29823676D01*
X73359139Y-29823676D02*
X73263901Y-29918914D01*
X73263901Y-29918914D02*
X73168663Y-29966533D01*
X88936666Y-73114819D02*
X88936666Y-73829104D01*
X88936666Y-73829104D02*
X88889047Y-73971961D01*
X88889047Y-73971961D02*
X88793809Y-74067200D01*
X88793809Y-74067200D02*
X88650952Y-74114819D01*
X88650952Y-74114819D02*
X88555714Y-74114819D01*
X89936666Y-74114819D02*
X89365238Y-74114819D01*
X89650952Y-74114819D02*
X89650952Y-73114819D01*
X89650952Y-73114819D02*
X89555714Y-73257676D01*
X89555714Y-73257676D02*
X89460476Y-73352914D01*
X89460476Y-73352914D02*
X89365238Y-73400533D01*
X81936166Y-59721963D02*
X81724499Y-59419582D01*
X81573309Y-59721963D02*
X81573309Y-59086963D01*
X81573309Y-59086963D02*
X81815214Y-59086963D01*
X81815214Y-59086963D02*
X81875690Y-59117201D01*
X81875690Y-59117201D02*
X81905928Y-59147439D01*
X81905928Y-59147439D02*
X81936166Y-59207915D01*
X81936166Y-59207915D02*
X81936166Y-59298629D01*
X81936166Y-59298629D02*
X81905928Y-59359105D01*
X81905928Y-59359105D02*
X81875690Y-59389344D01*
X81875690Y-59389344D02*
X81815214Y-59419582D01*
X81815214Y-59419582D02*
X81573309Y-59419582D01*
X82299023Y-59359105D02*
X82238547Y-59328867D01*
X82238547Y-59328867D02*
X82208309Y-59298629D01*
X82208309Y-59298629D02*
X82178071Y-59238153D01*
X82178071Y-59238153D02*
X82178071Y-59207915D01*
X82178071Y-59207915D02*
X82208309Y-59147439D01*
X82208309Y-59147439D02*
X82238547Y-59117201D01*
X82238547Y-59117201D02*
X82299023Y-59086963D01*
X82299023Y-59086963D02*
X82419976Y-59086963D01*
X82419976Y-59086963D02*
X82480452Y-59117201D01*
X82480452Y-59117201D02*
X82510690Y-59147439D01*
X82510690Y-59147439D02*
X82540928Y-59207915D01*
X82540928Y-59207915D02*
X82540928Y-59238153D01*
X82540928Y-59238153D02*
X82510690Y-59298629D01*
X82510690Y-59298629D02*
X82480452Y-59328867D01*
X82480452Y-59328867D02*
X82419976Y-59359105D01*
X82419976Y-59359105D02*
X82299023Y-59359105D01*
X82299023Y-59359105D02*
X82238547Y-59389344D01*
X82238547Y-59389344D02*
X82208309Y-59419582D01*
X82208309Y-59419582D02*
X82178071Y-59480058D01*
X82178071Y-59480058D02*
X82178071Y-59601010D01*
X82178071Y-59601010D02*
X82208309Y-59661486D01*
X82208309Y-59661486D02*
X82238547Y-59691725D01*
X82238547Y-59691725D02*
X82299023Y-59721963D01*
X82299023Y-59721963D02*
X82419976Y-59721963D01*
X82419976Y-59721963D02*
X82480452Y-59691725D01*
X82480452Y-59691725D02*
X82510690Y-59661486D01*
X82510690Y-59661486D02*
X82540928Y-59601010D01*
X82540928Y-59601010D02*
X82540928Y-59480058D01*
X82540928Y-59480058D02*
X82510690Y-59419582D01*
X82510690Y-59419582D02*
X82480452Y-59389344D01*
X82480452Y-59389344D02*
X82419976Y-59359105D01*
X74842761Y-62430819D02*
X74509428Y-61954628D01*
X74271333Y-62430819D02*
X74271333Y-61430819D01*
X74271333Y-61430819D02*
X74652285Y-61430819D01*
X74652285Y-61430819D02*
X74747523Y-61478438D01*
X74747523Y-61478438D02*
X74795142Y-61526057D01*
X74795142Y-61526057D02*
X74842761Y-61621295D01*
X74842761Y-61621295D02*
X74842761Y-61764152D01*
X74842761Y-61764152D02*
X74795142Y-61859390D01*
X74795142Y-61859390D02*
X74747523Y-61907009D01*
X74747523Y-61907009D02*
X74652285Y-61954628D01*
X74652285Y-61954628D02*
X74271333Y-61954628D01*
X75128476Y-61430819D02*
X75461809Y-62430819D01*
X75461809Y-62430819D02*
X75795142Y-61430819D01*
X76080857Y-61526057D02*
X76128476Y-61478438D01*
X76128476Y-61478438D02*
X76223714Y-61430819D01*
X76223714Y-61430819D02*
X76461809Y-61430819D01*
X76461809Y-61430819D02*
X76557047Y-61478438D01*
X76557047Y-61478438D02*
X76604666Y-61526057D01*
X76604666Y-61526057D02*
X76652285Y-61621295D01*
X76652285Y-61621295D02*
X76652285Y-61716533D01*
X76652285Y-61716533D02*
X76604666Y-61859390D01*
X76604666Y-61859390D02*
X76033238Y-62430819D01*
X76033238Y-62430819D02*
X76652285Y-62430819D01*
X81055463Y-43842214D02*
X80753082Y-44053881D01*
X81055463Y-44205071D02*
X80420463Y-44205071D01*
X80420463Y-44205071D02*
X80420463Y-43963166D01*
X80420463Y-43963166D02*
X80450701Y-43902690D01*
X80450701Y-43902690D02*
X80480939Y-43872452D01*
X80480939Y-43872452D02*
X80541415Y-43842214D01*
X80541415Y-43842214D02*
X80632129Y-43842214D01*
X80632129Y-43842214D02*
X80692605Y-43872452D01*
X80692605Y-43872452D02*
X80722844Y-43902690D01*
X80722844Y-43902690D02*
X80753082Y-43963166D01*
X80753082Y-43963166D02*
X80753082Y-44205071D01*
X81055463Y-43237452D02*
X81055463Y-43600309D01*
X81055463Y-43418881D02*
X80420463Y-43418881D01*
X80420463Y-43418881D02*
X80511177Y-43479357D01*
X80511177Y-43479357D02*
X80571653Y-43539833D01*
X80571653Y-43539833D02*
X80601891Y-43600309D01*
X80420463Y-42844357D02*
X80420463Y-42783880D01*
X80420463Y-42783880D02*
X80450701Y-42723404D01*
X80450701Y-42723404D02*
X80480939Y-42693166D01*
X80480939Y-42693166D02*
X80541415Y-42662928D01*
X80541415Y-42662928D02*
X80662367Y-42632690D01*
X80662367Y-42632690D02*
X80813558Y-42632690D01*
X80813558Y-42632690D02*
X80934510Y-42662928D01*
X80934510Y-42662928D02*
X80994986Y-42693166D01*
X80994986Y-42693166D02*
X81025225Y-42723404D01*
X81025225Y-42723404D02*
X81055463Y-42783880D01*
X81055463Y-42783880D02*
X81055463Y-42844357D01*
X81055463Y-42844357D02*
X81025225Y-42904833D01*
X81025225Y-42904833D02*
X80994986Y-42935071D01*
X80994986Y-42935071D02*
X80934510Y-42965309D01*
X80934510Y-42965309D02*
X80813558Y-42995547D01*
X80813558Y-42995547D02*
X80662367Y-42995547D01*
X80662367Y-42995547D02*
X80541415Y-42965309D01*
X80541415Y-42965309D02*
X80480939Y-42935071D01*
X80480939Y-42935071D02*
X80450701Y-42904833D01*
X80450701Y-42904833D02*
X80420463Y-42844357D01*
X77344291Y-35236184D02*
X77306196Y-35312374D01*
X77306196Y-35312374D02*
X77230006Y-35388565D01*
X77230006Y-35388565D02*
X77115720Y-35502851D01*
X77115720Y-35502851D02*
X77077625Y-35579041D01*
X77077625Y-35579041D02*
X77077625Y-35655232D01*
X77268101Y-35617136D02*
X77230006Y-35693327D01*
X77230006Y-35693327D02*
X77153815Y-35769517D01*
X77153815Y-35769517D02*
X77001434Y-35807613D01*
X77001434Y-35807613D02*
X76734767Y-35807613D01*
X76734767Y-35807613D02*
X76582386Y-35769517D01*
X76582386Y-35769517D02*
X76506196Y-35693327D01*
X76506196Y-35693327D02*
X76468101Y-35617136D01*
X76468101Y-35617136D02*
X76468101Y-35464755D01*
X76468101Y-35464755D02*
X76506196Y-35388565D01*
X76506196Y-35388565D02*
X76582386Y-35312374D01*
X76582386Y-35312374D02*
X76734767Y-35274279D01*
X76734767Y-35274279D02*
X77001434Y-35274279D01*
X77001434Y-35274279D02*
X77153815Y-35312374D01*
X77153815Y-35312374D02*
X77230006Y-35388565D01*
X77230006Y-35388565D02*
X77268101Y-35464755D01*
X77268101Y-35464755D02*
X77268101Y-35617136D01*
X76544291Y-34969518D02*
X76506196Y-34931422D01*
X76506196Y-34931422D02*
X76468101Y-34855232D01*
X76468101Y-34855232D02*
X76468101Y-34664756D01*
X76468101Y-34664756D02*
X76506196Y-34588565D01*
X76506196Y-34588565D02*
X76544291Y-34550470D01*
X76544291Y-34550470D02*
X76620482Y-34512375D01*
X76620482Y-34512375D02*
X76696672Y-34512375D01*
X76696672Y-34512375D02*
X76810958Y-34550470D01*
X76810958Y-34550470D02*
X77268101Y-35007613D01*
X77268101Y-35007613D02*
X77268101Y-34512375D01*
X106037142Y-64970819D02*
X105703809Y-64494628D01*
X105465714Y-64970819D02*
X105465714Y-63970819D01*
X105465714Y-63970819D02*
X105846666Y-63970819D01*
X105846666Y-63970819D02*
X105941904Y-64018438D01*
X105941904Y-64018438D02*
X105989523Y-64066057D01*
X105989523Y-64066057D02*
X106037142Y-64161295D01*
X106037142Y-64161295D02*
X106037142Y-64304152D01*
X106037142Y-64304152D02*
X105989523Y-64399390D01*
X105989523Y-64399390D02*
X105941904Y-64447009D01*
X105941904Y-64447009D02*
X105846666Y-64494628D01*
X105846666Y-64494628D02*
X105465714Y-64494628D01*
X106418095Y-64066057D02*
X106465714Y-64018438D01*
X106465714Y-64018438D02*
X106560952Y-63970819D01*
X106560952Y-63970819D02*
X106799047Y-63970819D01*
X106799047Y-63970819D02*
X106894285Y-64018438D01*
X106894285Y-64018438D02*
X106941904Y-64066057D01*
X106941904Y-64066057D02*
X106989523Y-64161295D01*
X106989523Y-64161295D02*
X106989523Y-64256533D01*
X106989523Y-64256533D02*
X106941904Y-64399390D01*
X106941904Y-64399390D02*
X106370476Y-64970819D01*
X106370476Y-64970819D02*
X106989523Y-64970819D01*
X107894285Y-63970819D02*
X107418095Y-63970819D01*
X107418095Y-63970819D02*
X107370476Y-64447009D01*
X107370476Y-64447009D02*
X107418095Y-64399390D01*
X107418095Y-64399390D02*
X107513333Y-64351771D01*
X107513333Y-64351771D02*
X107751428Y-64351771D01*
X107751428Y-64351771D02*
X107846666Y-64399390D01*
X107846666Y-64399390D02*
X107894285Y-64447009D01*
X107894285Y-64447009D02*
X107941904Y-64542247D01*
X107941904Y-64542247D02*
X107941904Y-64780342D01*
X107941904Y-64780342D02*
X107894285Y-64875580D01*
X107894285Y-64875580D02*
X107846666Y-64923200D01*
X107846666Y-64923200D02*
X107751428Y-64970819D01*
X107751428Y-64970819D02*
X107513333Y-64970819D01*
X107513333Y-64970819D02*
X107418095Y-64923200D01*
X107418095Y-64923200D02*
X107370476Y-64875580D01*
X80137333Y-65129580D02*
X80089714Y-65177200D01*
X80089714Y-65177200D02*
X79946857Y-65224819D01*
X79946857Y-65224819D02*
X79851619Y-65224819D01*
X79851619Y-65224819D02*
X79708762Y-65177200D01*
X79708762Y-65177200D02*
X79613524Y-65081961D01*
X79613524Y-65081961D02*
X79565905Y-64986723D01*
X79565905Y-64986723D02*
X79518286Y-64796247D01*
X79518286Y-64796247D02*
X79518286Y-64653390D01*
X79518286Y-64653390D02*
X79565905Y-64462914D01*
X79565905Y-64462914D02*
X79613524Y-64367676D01*
X79613524Y-64367676D02*
X79708762Y-64272438D01*
X79708762Y-64272438D02*
X79851619Y-64224819D01*
X79851619Y-64224819D02*
X79946857Y-64224819D01*
X79946857Y-64224819D02*
X80089714Y-64272438D01*
X80089714Y-64272438D02*
X80137333Y-64320057D01*
X80518286Y-64320057D02*
X80565905Y-64272438D01*
X80565905Y-64272438D02*
X80661143Y-64224819D01*
X80661143Y-64224819D02*
X80899238Y-64224819D01*
X80899238Y-64224819D02*
X80994476Y-64272438D01*
X80994476Y-64272438D02*
X81042095Y-64320057D01*
X81042095Y-64320057D02*
X81089714Y-64415295D01*
X81089714Y-64415295D02*
X81089714Y-64510533D01*
X81089714Y-64510533D02*
X81042095Y-64653390D01*
X81042095Y-64653390D02*
X80470667Y-65224819D01*
X80470667Y-65224819D02*
X81089714Y-65224819D01*
X68920291Y-35236184D02*
X68882196Y-35312374D01*
X68882196Y-35312374D02*
X68806006Y-35388565D01*
X68806006Y-35388565D02*
X68691720Y-35502851D01*
X68691720Y-35502851D02*
X68653625Y-35579041D01*
X68653625Y-35579041D02*
X68653625Y-35655232D01*
X68844101Y-35617136D02*
X68806006Y-35693327D01*
X68806006Y-35693327D02*
X68729815Y-35769517D01*
X68729815Y-35769517D02*
X68577434Y-35807613D01*
X68577434Y-35807613D02*
X68310767Y-35807613D01*
X68310767Y-35807613D02*
X68158386Y-35769517D01*
X68158386Y-35769517D02*
X68082196Y-35693327D01*
X68082196Y-35693327D02*
X68044101Y-35617136D01*
X68044101Y-35617136D02*
X68044101Y-35464755D01*
X68044101Y-35464755D02*
X68082196Y-35388565D01*
X68082196Y-35388565D02*
X68158386Y-35312374D01*
X68158386Y-35312374D02*
X68310767Y-35274279D01*
X68310767Y-35274279D02*
X68577434Y-35274279D01*
X68577434Y-35274279D02*
X68729815Y-35312374D01*
X68729815Y-35312374D02*
X68806006Y-35388565D01*
X68806006Y-35388565D02*
X68844101Y-35464755D01*
X68844101Y-35464755D02*
X68844101Y-35617136D01*
X68844101Y-34512375D02*
X68844101Y-34969518D01*
X68844101Y-34740946D02*
X68044101Y-34740946D01*
X68044101Y-34740946D02*
X68158386Y-34817137D01*
X68158386Y-34817137D02*
X68234577Y-34893327D01*
X68234577Y-34893327D02*
X68272672Y-34969518D01*
X66376625Y-34056660D02*
X65900434Y-34389993D01*
X66376625Y-34628088D02*
X65376625Y-34628088D01*
X65376625Y-34628088D02*
X65376625Y-34247136D01*
X65376625Y-34247136D02*
X65424244Y-34151898D01*
X65424244Y-34151898D02*
X65471863Y-34104279D01*
X65471863Y-34104279D02*
X65567101Y-34056660D01*
X65567101Y-34056660D02*
X65709958Y-34056660D01*
X65709958Y-34056660D02*
X65805196Y-34104279D01*
X65805196Y-34104279D02*
X65852815Y-34151898D01*
X65852815Y-34151898D02*
X65900434Y-34247136D01*
X65900434Y-34247136D02*
X65900434Y-34628088D01*
X65376625Y-33723326D02*
X65376625Y-33104279D01*
X65376625Y-33104279D02*
X65757577Y-33437612D01*
X65757577Y-33437612D02*
X65757577Y-33294755D01*
X65757577Y-33294755D02*
X65805196Y-33199517D01*
X65805196Y-33199517D02*
X65852815Y-33151898D01*
X65852815Y-33151898D02*
X65948053Y-33104279D01*
X65948053Y-33104279D02*
X66186148Y-33104279D01*
X66186148Y-33104279D02*
X66281386Y-33151898D01*
X66281386Y-33151898D02*
X66329006Y-33199517D01*
X66329006Y-33199517D02*
X66376625Y-33294755D01*
X66376625Y-33294755D02*
X66376625Y-33580469D01*
X66376625Y-33580469D02*
X66329006Y-33675707D01*
X66329006Y-33675707D02*
X66281386Y-33723326D01*
X62886166Y-36356463D02*
X62674499Y-36054082D01*
X62523309Y-36356463D02*
X62523309Y-35721463D01*
X62523309Y-35721463D02*
X62765214Y-35721463D01*
X62765214Y-35721463D02*
X62825690Y-35751701D01*
X62825690Y-35751701D02*
X62855928Y-35781939D01*
X62855928Y-35781939D02*
X62886166Y-35842415D01*
X62886166Y-35842415D02*
X62886166Y-35933129D01*
X62886166Y-35933129D02*
X62855928Y-35993605D01*
X62855928Y-35993605D02*
X62825690Y-36023844D01*
X62825690Y-36023844D02*
X62765214Y-36054082D01*
X62765214Y-36054082D02*
X62523309Y-36054082D01*
X63490928Y-36356463D02*
X63128071Y-36356463D01*
X63309499Y-36356463D02*
X63309499Y-35721463D01*
X63309499Y-35721463D02*
X63249023Y-35812177D01*
X63249023Y-35812177D02*
X63188547Y-35872653D01*
X63188547Y-35872653D02*
X63128071Y-35902891D01*
X73819142Y-44142819D02*
X73485809Y-43666628D01*
X73247714Y-44142819D02*
X73247714Y-43142819D01*
X73247714Y-43142819D02*
X73628666Y-43142819D01*
X73628666Y-43142819D02*
X73723904Y-43190438D01*
X73723904Y-43190438D02*
X73771523Y-43238057D01*
X73771523Y-43238057D02*
X73819142Y-43333295D01*
X73819142Y-43333295D02*
X73819142Y-43476152D01*
X73819142Y-43476152D02*
X73771523Y-43571390D01*
X73771523Y-43571390D02*
X73723904Y-43619009D01*
X73723904Y-43619009D02*
X73628666Y-43666628D01*
X73628666Y-43666628D02*
X73247714Y-43666628D01*
X74771523Y-44142819D02*
X74200095Y-44142819D01*
X74485809Y-44142819D02*
X74485809Y-43142819D01*
X74485809Y-43142819D02*
X74390571Y-43285676D01*
X74390571Y-43285676D02*
X74295333Y-43380914D01*
X74295333Y-43380914D02*
X74200095Y-43428533D01*
X75152476Y-43238057D02*
X75200095Y-43190438D01*
X75200095Y-43190438D02*
X75295333Y-43142819D01*
X75295333Y-43142819D02*
X75533428Y-43142819D01*
X75533428Y-43142819D02*
X75628666Y-43190438D01*
X75628666Y-43190438D02*
X75676285Y-43238057D01*
X75676285Y-43238057D02*
X75723904Y-43333295D01*
X75723904Y-43333295D02*
X75723904Y-43428533D01*
X75723904Y-43428533D02*
X75676285Y-43571390D01*
X75676285Y-43571390D02*
X75104857Y-44142819D01*
X75104857Y-44142819D02*
X75723904Y-44142819D01*
X95603785Y-59978463D02*
X95392118Y-59676082D01*
X95240928Y-59978463D02*
X95240928Y-59343463D01*
X95240928Y-59343463D02*
X95482833Y-59343463D01*
X95482833Y-59343463D02*
X95543309Y-59373701D01*
X95543309Y-59373701D02*
X95573547Y-59403939D01*
X95573547Y-59403939D02*
X95603785Y-59464415D01*
X95603785Y-59464415D02*
X95603785Y-59555129D01*
X95603785Y-59555129D02*
X95573547Y-59615605D01*
X95573547Y-59615605D02*
X95543309Y-59645844D01*
X95543309Y-59645844D02*
X95482833Y-59676082D01*
X95482833Y-59676082D02*
X95240928Y-59676082D01*
X96208547Y-59978463D02*
X95845690Y-59978463D01*
X96027118Y-59978463D02*
X96027118Y-59343463D01*
X96027118Y-59343463D02*
X95966642Y-59434177D01*
X95966642Y-59434177D02*
X95906166Y-59494653D01*
X95906166Y-59494653D02*
X95845690Y-59524891D01*
X96752833Y-59555129D02*
X96752833Y-59978463D01*
X96601642Y-59313225D02*
X96450452Y-59766796D01*
X96450452Y-59766796D02*
X96843547Y-59766796D01*
X72336819Y-51474666D02*
X71860628Y-51807999D01*
X72336819Y-52046094D02*
X71336819Y-52046094D01*
X71336819Y-52046094D02*
X71336819Y-51665142D01*
X71336819Y-51665142D02*
X71384438Y-51569904D01*
X71384438Y-51569904D02*
X71432057Y-51522285D01*
X71432057Y-51522285D02*
X71527295Y-51474666D01*
X71527295Y-51474666D02*
X71670152Y-51474666D01*
X71670152Y-51474666D02*
X71765390Y-51522285D01*
X71765390Y-51522285D02*
X71813009Y-51569904D01*
X71813009Y-51569904D02*
X71860628Y-51665142D01*
X71860628Y-51665142D02*
X71860628Y-52046094D01*
X71336819Y-50569904D02*
X71336819Y-51046094D01*
X71336819Y-51046094D02*
X71813009Y-51093713D01*
X71813009Y-51093713D02*
X71765390Y-51046094D01*
X71765390Y-51046094D02*
X71717771Y-50950856D01*
X71717771Y-50950856D02*
X71717771Y-50712761D01*
X71717771Y-50712761D02*
X71765390Y-50617523D01*
X71765390Y-50617523D02*
X71813009Y-50569904D01*
X71813009Y-50569904D02*
X71908247Y-50522285D01*
X71908247Y-50522285D02*
X72146342Y-50522285D01*
X72146342Y-50522285D02*
X72241580Y-50569904D01*
X72241580Y-50569904D02*
X72289200Y-50617523D01*
X72289200Y-50617523D02*
X72336819Y-50712761D01*
X72336819Y-50712761D02*
X72336819Y-50950856D01*
X72336819Y-50950856D02*
X72289200Y-51046094D01*
X72289200Y-51046094D02*
X72241580Y-51093713D01*
X99103019Y-34678857D02*
X98626828Y-35012190D01*
X99103019Y-35250285D02*
X98103019Y-35250285D01*
X98103019Y-35250285D02*
X98103019Y-34869333D01*
X98103019Y-34869333D02*
X98150638Y-34774095D01*
X98150638Y-34774095D02*
X98198257Y-34726476D01*
X98198257Y-34726476D02*
X98293495Y-34678857D01*
X98293495Y-34678857D02*
X98436352Y-34678857D01*
X98436352Y-34678857D02*
X98531590Y-34726476D01*
X98531590Y-34726476D02*
X98579209Y-34774095D01*
X98579209Y-34774095D02*
X98626828Y-34869333D01*
X98626828Y-34869333D02*
X98626828Y-35250285D01*
X98198257Y-34297904D02*
X98150638Y-34250285D01*
X98150638Y-34250285D02*
X98103019Y-34155047D01*
X98103019Y-34155047D02*
X98103019Y-33916952D01*
X98103019Y-33916952D02*
X98150638Y-33821714D01*
X98150638Y-33821714D02*
X98198257Y-33774095D01*
X98198257Y-33774095D02*
X98293495Y-33726476D01*
X98293495Y-33726476D02*
X98388733Y-33726476D01*
X98388733Y-33726476D02*
X98531590Y-33774095D01*
X98531590Y-33774095D02*
X99103019Y-34345523D01*
X99103019Y-34345523D02*
X99103019Y-33726476D01*
X98103019Y-33107428D02*
X98103019Y-33012190D01*
X98103019Y-33012190D02*
X98150638Y-32916952D01*
X98150638Y-32916952D02*
X98198257Y-32869333D01*
X98198257Y-32869333D02*
X98293495Y-32821714D01*
X98293495Y-32821714D02*
X98483971Y-32774095D01*
X98483971Y-32774095D02*
X98722066Y-32774095D01*
X98722066Y-32774095D02*
X98912542Y-32821714D01*
X98912542Y-32821714D02*
X99007780Y-32869333D01*
X99007780Y-32869333D02*
X99055400Y-32916952D01*
X99055400Y-32916952D02*
X99103019Y-33012190D01*
X99103019Y-33012190D02*
X99103019Y-33107428D01*
X99103019Y-33107428D02*
X99055400Y-33202666D01*
X99055400Y-33202666D02*
X99007780Y-33250285D01*
X99007780Y-33250285D02*
X98912542Y-33297904D01*
X98912542Y-33297904D02*
X98722066Y-33345523D01*
X98722066Y-33345523D02*
X98483971Y-33345523D01*
X98483971Y-33345523D02*
X98293495Y-33297904D01*
X98293495Y-33297904D02*
X98198257Y-33250285D01*
X98198257Y-33250285D02*
X98150638Y-33202666D01*
X98150638Y-33202666D02*
X98103019Y-33107428D01*
X111605785Y-31781963D02*
X111394118Y-31479582D01*
X111242928Y-31781963D02*
X111242928Y-31146963D01*
X111242928Y-31146963D02*
X111484833Y-31146963D01*
X111484833Y-31146963D02*
X111545309Y-31177201D01*
X111545309Y-31177201D02*
X111575547Y-31207439D01*
X111575547Y-31207439D02*
X111605785Y-31267915D01*
X111605785Y-31267915D02*
X111605785Y-31358629D01*
X111605785Y-31358629D02*
X111575547Y-31419105D01*
X111575547Y-31419105D02*
X111545309Y-31449344D01*
X111545309Y-31449344D02*
X111484833Y-31479582D01*
X111484833Y-31479582D02*
X111242928Y-31479582D01*
X112210547Y-31781963D02*
X111847690Y-31781963D01*
X112029118Y-31781963D02*
X112029118Y-31146963D01*
X112029118Y-31146963D02*
X111968642Y-31237677D01*
X111968642Y-31237677D02*
X111908166Y-31298153D01*
X111908166Y-31298153D02*
X111847690Y-31328391D01*
X112512928Y-31781963D02*
X112633880Y-31781963D01*
X112633880Y-31781963D02*
X112694357Y-31751725D01*
X112694357Y-31751725D02*
X112724595Y-31721486D01*
X112724595Y-31721486D02*
X112785071Y-31630772D01*
X112785071Y-31630772D02*
X112815309Y-31509820D01*
X112815309Y-31509820D02*
X112815309Y-31267915D01*
X112815309Y-31267915D02*
X112785071Y-31207439D01*
X112785071Y-31207439D02*
X112754833Y-31177201D01*
X112754833Y-31177201D02*
X112694357Y-31146963D01*
X112694357Y-31146963D02*
X112573404Y-31146963D01*
X112573404Y-31146963D02*
X112512928Y-31177201D01*
X112512928Y-31177201D02*
X112482690Y-31207439D01*
X112482690Y-31207439D02*
X112452452Y-31267915D01*
X112452452Y-31267915D02*
X112452452Y-31419105D01*
X112452452Y-31419105D02*
X112482690Y-31479582D01*
X112482690Y-31479582D02*
X112512928Y-31509820D01*
X112512928Y-31509820D02*
X112573404Y-31540058D01*
X112573404Y-31540058D02*
X112694357Y-31540058D01*
X112694357Y-31540058D02*
X112754833Y-31509820D01*
X112754833Y-31509820D02*
X112785071Y-31479582D01*
X112785071Y-31479582D02*
X112815309Y-31419105D01*
X109806485Y-35236184D02*
X109768390Y-35312374D01*
X109768390Y-35312374D02*
X109692200Y-35388565D01*
X109692200Y-35388565D02*
X109577914Y-35502851D01*
X109577914Y-35502851D02*
X109539819Y-35579041D01*
X109539819Y-35579041D02*
X109539819Y-35655232D01*
X109730295Y-35617136D02*
X109692200Y-35693327D01*
X109692200Y-35693327D02*
X109616009Y-35769517D01*
X109616009Y-35769517D02*
X109463628Y-35807613D01*
X109463628Y-35807613D02*
X109196961Y-35807613D01*
X109196961Y-35807613D02*
X109044580Y-35769517D01*
X109044580Y-35769517D02*
X108968390Y-35693327D01*
X108968390Y-35693327D02*
X108930295Y-35617136D01*
X108930295Y-35617136D02*
X108930295Y-35464755D01*
X108930295Y-35464755D02*
X108968390Y-35388565D01*
X108968390Y-35388565D02*
X109044580Y-35312374D01*
X109044580Y-35312374D02*
X109196961Y-35274279D01*
X109196961Y-35274279D02*
X109463628Y-35274279D01*
X109463628Y-35274279D02*
X109616009Y-35312374D01*
X109616009Y-35312374D02*
X109692200Y-35388565D01*
X109692200Y-35388565D02*
X109730295Y-35464755D01*
X109730295Y-35464755D02*
X109730295Y-35617136D01*
X108930295Y-34550470D02*
X108930295Y-34931422D01*
X108930295Y-34931422D02*
X109311247Y-34969518D01*
X109311247Y-34969518D02*
X109273152Y-34931422D01*
X109273152Y-34931422D02*
X109235057Y-34855232D01*
X109235057Y-34855232D02*
X109235057Y-34664756D01*
X109235057Y-34664756D02*
X109273152Y-34588565D01*
X109273152Y-34588565D02*
X109311247Y-34550470D01*
X109311247Y-34550470D02*
X109387438Y-34512375D01*
X109387438Y-34512375D02*
X109577914Y-34512375D01*
X109577914Y-34512375D02*
X109654104Y-34550470D01*
X109654104Y-34550470D02*
X109692200Y-34588565D01*
X109692200Y-34588565D02*
X109730295Y-34664756D01*
X109730295Y-34664756D02*
X109730295Y-34855232D01*
X109730295Y-34855232D02*
X109692200Y-34931422D01*
X109692200Y-34931422D02*
X109654104Y-34969518D01*
X98221809Y-53778485D02*
X98145619Y-53740390D01*
X98145619Y-53740390D02*
X98069428Y-53664200D01*
X98069428Y-53664200D02*
X97955142Y-53549914D01*
X97955142Y-53549914D02*
X97878952Y-53511819D01*
X97878952Y-53511819D02*
X97802761Y-53511819D01*
X97840857Y-53702295D02*
X97764666Y-53664200D01*
X97764666Y-53664200D02*
X97688476Y-53588009D01*
X97688476Y-53588009D02*
X97650380Y-53435628D01*
X97650380Y-53435628D02*
X97650380Y-53168961D01*
X97650380Y-53168961D02*
X97688476Y-53016580D01*
X97688476Y-53016580D02*
X97764666Y-52940390D01*
X97764666Y-52940390D02*
X97840857Y-52902295D01*
X97840857Y-52902295D02*
X97993238Y-52902295D01*
X97993238Y-52902295D02*
X98069428Y-52940390D01*
X98069428Y-52940390D02*
X98145619Y-53016580D01*
X98145619Y-53016580D02*
X98183714Y-53168961D01*
X98183714Y-53168961D02*
X98183714Y-53435628D01*
X98183714Y-53435628D02*
X98145619Y-53588009D01*
X98145619Y-53588009D02*
X98069428Y-53664200D01*
X98069428Y-53664200D02*
X97993238Y-53702295D01*
X97993238Y-53702295D02*
X97840857Y-53702295D01*
X98869428Y-53168961D02*
X98869428Y-53702295D01*
X98678952Y-52864200D02*
X98488475Y-53435628D01*
X98488475Y-53435628D02*
X98983714Y-53435628D01*
X102020761Y-62430819D02*
X101687428Y-61954628D01*
X101449333Y-62430819D02*
X101449333Y-61430819D01*
X101449333Y-61430819D02*
X101830285Y-61430819D01*
X101830285Y-61430819D02*
X101925523Y-61478438D01*
X101925523Y-61478438D02*
X101973142Y-61526057D01*
X101973142Y-61526057D02*
X102020761Y-61621295D01*
X102020761Y-61621295D02*
X102020761Y-61764152D01*
X102020761Y-61764152D02*
X101973142Y-61859390D01*
X101973142Y-61859390D02*
X101925523Y-61907009D01*
X101925523Y-61907009D02*
X101830285Y-61954628D01*
X101830285Y-61954628D02*
X101449333Y-61954628D01*
X102306476Y-61430819D02*
X102639809Y-62430819D01*
X102639809Y-62430819D02*
X102973142Y-61430819D01*
X103782666Y-61430819D02*
X103306476Y-61430819D01*
X103306476Y-61430819D02*
X103258857Y-61907009D01*
X103258857Y-61907009D02*
X103306476Y-61859390D01*
X103306476Y-61859390D02*
X103401714Y-61811771D01*
X103401714Y-61811771D02*
X103639809Y-61811771D01*
X103639809Y-61811771D02*
X103735047Y-61859390D01*
X103735047Y-61859390D02*
X103782666Y-61907009D01*
X103782666Y-61907009D02*
X103830285Y-62002247D01*
X103830285Y-62002247D02*
X103830285Y-62240342D01*
X103830285Y-62240342D02*
X103782666Y-62335580D01*
X103782666Y-62335580D02*
X103735047Y-62383200D01*
X103735047Y-62383200D02*
X103639809Y-62430819D01*
X103639809Y-62430819D02*
X103401714Y-62430819D01*
X103401714Y-62430819D02*
X103306476Y-62383200D01*
X103306476Y-62383200D02*
X103258857Y-62335580D01*
D11*
X74316166Y-55406810D02*
X74104499Y-55104429D01*
X73953309Y-55406810D02*
X73953309Y-54771810D01*
X73953309Y-54771810D02*
X74195214Y-54771810D01*
X74195214Y-54771810D02*
X74255690Y-54802048D01*
X74255690Y-54802048D02*
X74285928Y-54832286D01*
X74285928Y-54832286D02*
X74316166Y-54892762D01*
X74316166Y-54892762D02*
X74316166Y-54983476D01*
X74316166Y-54983476D02*
X74285928Y-55043952D01*
X74285928Y-55043952D02*
X74255690Y-55074191D01*
X74255690Y-55074191D02*
X74195214Y-55104429D01*
X74195214Y-55104429D02*
X73953309Y-55104429D01*
X74860452Y-54771810D02*
X74739499Y-54771810D01*
X74739499Y-54771810D02*
X74679023Y-54802048D01*
X74679023Y-54802048D02*
X74648785Y-54832286D01*
X74648785Y-54832286D02*
X74588309Y-54923000D01*
X74588309Y-54923000D02*
X74558071Y-55043952D01*
X74558071Y-55043952D02*
X74558071Y-55285857D01*
X74558071Y-55285857D02*
X74588309Y-55346333D01*
X74588309Y-55346333D02*
X74618547Y-55376572D01*
X74618547Y-55376572D02*
X74679023Y-55406810D01*
X74679023Y-55406810D02*
X74799976Y-55406810D01*
X74799976Y-55406810D02*
X74860452Y-55376572D01*
X74860452Y-55376572D02*
X74890690Y-55346333D01*
X74890690Y-55346333D02*
X74920928Y-55285857D01*
X74920928Y-55285857D02*
X74920928Y-55134667D01*
X74920928Y-55134667D02*
X74890690Y-55074191D01*
X74890690Y-55074191D02*
X74860452Y-55043952D01*
X74860452Y-55043952D02*
X74799976Y-55013714D01*
X74799976Y-55013714D02*
X74679023Y-55013714D01*
X74679023Y-55013714D02*
X74618547Y-55043952D01*
X74618547Y-55043952D02*
X74588309Y-55074191D01*
X74588309Y-55074191D02*
X74558071Y-55134667D01*
D10*
X62886166Y-31273963D02*
X62674499Y-30971582D01*
X62523309Y-31273963D02*
X62523309Y-30638963D01*
X62523309Y-30638963D02*
X62765214Y-30638963D01*
X62765214Y-30638963D02*
X62825690Y-30669201D01*
X62825690Y-30669201D02*
X62855928Y-30699439D01*
X62855928Y-30699439D02*
X62886166Y-30759915D01*
X62886166Y-30759915D02*
X62886166Y-30850629D01*
X62886166Y-30850629D02*
X62855928Y-30911105D01*
X62855928Y-30911105D02*
X62825690Y-30941344D01*
X62825690Y-30941344D02*
X62765214Y-30971582D01*
X62765214Y-30971582D02*
X62523309Y-30971582D01*
X63128071Y-30699439D02*
X63158309Y-30669201D01*
X63158309Y-30669201D02*
X63218785Y-30638963D01*
X63218785Y-30638963D02*
X63369976Y-30638963D01*
X63369976Y-30638963D02*
X63430452Y-30669201D01*
X63430452Y-30669201D02*
X63460690Y-30699439D01*
X63460690Y-30699439D02*
X63490928Y-30759915D01*
X63490928Y-30759915D02*
X63490928Y-30820391D01*
X63490928Y-30820391D02*
X63460690Y-30911105D01*
X63460690Y-30911105D02*
X63097833Y-31273963D01*
X63097833Y-31273963D02*
X63490928Y-31273963D01*
D12*
X81633785Y-39659763D02*
X81422118Y-39357382D01*
X81270928Y-39659763D02*
X81270928Y-39024763D01*
X81270928Y-39024763D02*
X81512833Y-39024763D01*
X81512833Y-39024763D02*
X81573309Y-39055001D01*
X81573309Y-39055001D02*
X81603547Y-39085239D01*
X81603547Y-39085239D02*
X81633785Y-39145715D01*
X81633785Y-39145715D02*
X81633785Y-39236429D01*
X81633785Y-39236429D02*
X81603547Y-39296905D01*
X81603547Y-39296905D02*
X81573309Y-39327144D01*
X81573309Y-39327144D02*
X81512833Y-39357382D01*
X81512833Y-39357382D02*
X81270928Y-39357382D01*
X82238547Y-39659763D02*
X81875690Y-39659763D01*
X82057118Y-39659763D02*
X82057118Y-39024763D01*
X82057118Y-39024763D02*
X81996642Y-39115477D01*
X81996642Y-39115477D02*
X81936166Y-39175953D01*
X81936166Y-39175953D02*
X81875690Y-39206191D01*
X82843309Y-39659763D02*
X82480452Y-39659763D01*
X82661880Y-39659763D02*
X82661880Y-39024763D01*
X82661880Y-39024763D02*
X82601404Y-39115477D01*
X82601404Y-39115477D02*
X82540928Y-39175953D01*
X82540928Y-39175953D02*
X82480452Y-39206191D01*
D10*
X97837333Y-46841580D02*
X97789714Y-46889200D01*
X97789714Y-46889200D02*
X97646857Y-46936819D01*
X97646857Y-46936819D02*
X97551619Y-46936819D01*
X97551619Y-46936819D02*
X97408762Y-46889200D01*
X97408762Y-46889200D02*
X97313524Y-46793961D01*
X97313524Y-46793961D02*
X97265905Y-46698723D01*
X97265905Y-46698723D02*
X97218286Y-46508247D01*
X97218286Y-46508247D02*
X97218286Y-46365390D01*
X97218286Y-46365390D02*
X97265905Y-46174914D01*
X97265905Y-46174914D02*
X97313524Y-46079676D01*
X97313524Y-46079676D02*
X97408762Y-45984438D01*
X97408762Y-45984438D02*
X97551619Y-45936819D01*
X97551619Y-45936819D02*
X97646857Y-45936819D01*
X97646857Y-45936819D02*
X97789714Y-45984438D01*
X97789714Y-45984438D02*
X97837333Y-46032057D01*
X98694476Y-46270152D02*
X98694476Y-46936819D01*
X98456381Y-45889200D02*
X98218286Y-46603485D01*
X98218286Y-46603485D02*
X98837333Y-46603485D01*
X101465142Y-38578813D02*
X101131809Y-38102622D01*
X100893714Y-38578813D02*
X100893714Y-37578813D01*
X100893714Y-37578813D02*
X101274666Y-37578813D01*
X101274666Y-37578813D02*
X101369904Y-37626432D01*
X101369904Y-37626432D02*
X101417523Y-37674051D01*
X101417523Y-37674051D02*
X101465142Y-37769289D01*
X101465142Y-37769289D02*
X101465142Y-37912146D01*
X101465142Y-37912146D02*
X101417523Y-38007384D01*
X101417523Y-38007384D02*
X101369904Y-38055003D01*
X101369904Y-38055003D02*
X101274666Y-38102622D01*
X101274666Y-38102622D02*
X100893714Y-38102622D01*
X101846095Y-37674051D02*
X101893714Y-37626432D01*
X101893714Y-37626432D02*
X101988952Y-37578813D01*
X101988952Y-37578813D02*
X102227047Y-37578813D01*
X102227047Y-37578813D02*
X102322285Y-37626432D01*
X102322285Y-37626432D02*
X102369904Y-37674051D01*
X102369904Y-37674051D02*
X102417523Y-37769289D01*
X102417523Y-37769289D02*
X102417523Y-37864527D01*
X102417523Y-37864527D02*
X102369904Y-38007384D01*
X102369904Y-38007384D02*
X101798476Y-38578813D01*
X101798476Y-38578813D02*
X102417523Y-38578813D01*
X103369904Y-38578813D02*
X102798476Y-38578813D01*
X103084190Y-38578813D02*
X103084190Y-37578813D01*
X103084190Y-37578813D02*
X102988952Y-37721670D01*
X102988952Y-37721670D02*
X102893714Y-37816908D01*
X102893714Y-37816908D02*
X102798476Y-37864527D01*
X101465142Y-41094819D02*
X101131809Y-40618628D01*
X100893714Y-41094819D02*
X100893714Y-40094819D01*
X100893714Y-40094819D02*
X101274666Y-40094819D01*
X101274666Y-40094819D02*
X101369904Y-40142438D01*
X101369904Y-40142438D02*
X101417523Y-40190057D01*
X101417523Y-40190057D02*
X101465142Y-40285295D01*
X101465142Y-40285295D02*
X101465142Y-40428152D01*
X101465142Y-40428152D02*
X101417523Y-40523390D01*
X101417523Y-40523390D02*
X101369904Y-40571009D01*
X101369904Y-40571009D02*
X101274666Y-40618628D01*
X101274666Y-40618628D02*
X100893714Y-40618628D01*
X101846095Y-40190057D02*
X101893714Y-40142438D01*
X101893714Y-40142438D02*
X101988952Y-40094819D01*
X101988952Y-40094819D02*
X102227047Y-40094819D01*
X102227047Y-40094819D02*
X102322285Y-40142438D01*
X102322285Y-40142438D02*
X102369904Y-40190057D01*
X102369904Y-40190057D02*
X102417523Y-40285295D01*
X102417523Y-40285295D02*
X102417523Y-40380533D01*
X102417523Y-40380533D02*
X102369904Y-40523390D01*
X102369904Y-40523390D02*
X101798476Y-41094819D01*
X101798476Y-41094819D02*
X102417523Y-41094819D01*
X103369904Y-41094819D02*
X102798476Y-41094819D01*
X103084190Y-41094819D02*
X103084190Y-40094819D01*
X103084190Y-40094819D02*
X102988952Y-40237676D01*
X102988952Y-40237676D02*
X102893714Y-40332914D01*
X102893714Y-40332914D02*
X102798476Y-40380533D01*
X95349785Y-39655963D02*
X95138118Y-39353582D01*
X94986928Y-39655963D02*
X94986928Y-39020963D01*
X94986928Y-39020963D02*
X95228833Y-39020963D01*
X95228833Y-39020963D02*
X95289309Y-39051201D01*
X95289309Y-39051201D02*
X95319547Y-39081439D01*
X95319547Y-39081439D02*
X95349785Y-39141915D01*
X95349785Y-39141915D02*
X95349785Y-39232629D01*
X95349785Y-39232629D02*
X95319547Y-39293105D01*
X95319547Y-39293105D02*
X95289309Y-39323344D01*
X95289309Y-39323344D02*
X95228833Y-39353582D01*
X95228833Y-39353582D02*
X94986928Y-39353582D01*
X95591690Y-39081439D02*
X95621928Y-39051201D01*
X95621928Y-39051201D02*
X95682404Y-39020963D01*
X95682404Y-39020963D02*
X95833595Y-39020963D01*
X95833595Y-39020963D02*
X95894071Y-39051201D01*
X95894071Y-39051201D02*
X95924309Y-39081439D01*
X95924309Y-39081439D02*
X95954547Y-39141915D01*
X95954547Y-39141915D02*
X95954547Y-39202391D01*
X95954547Y-39202391D02*
X95924309Y-39293105D01*
X95924309Y-39293105D02*
X95561452Y-39655963D01*
X95561452Y-39655963D02*
X95954547Y-39655963D01*
X96498833Y-39232629D02*
X96498833Y-39655963D01*
X96347642Y-38990725D02*
X96196452Y-39444296D01*
X96196452Y-39444296D02*
X96589547Y-39444296D01*
X102695142Y-44142819D02*
X102361809Y-43666628D01*
X102123714Y-44142819D02*
X102123714Y-43142819D01*
X102123714Y-43142819D02*
X102504666Y-43142819D01*
X102504666Y-43142819D02*
X102599904Y-43190438D01*
X102599904Y-43190438D02*
X102647523Y-43238057D01*
X102647523Y-43238057D02*
X102695142Y-43333295D01*
X102695142Y-43333295D02*
X102695142Y-43476152D01*
X102695142Y-43476152D02*
X102647523Y-43571390D01*
X102647523Y-43571390D02*
X102599904Y-43619009D01*
X102599904Y-43619009D02*
X102504666Y-43666628D01*
X102504666Y-43666628D02*
X102123714Y-43666628D01*
X103076095Y-43238057D02*
X103123714Y-43190438D01*
X103123714Y-43190438D02*
X103218952Y-43142819D01*
X103218952Y-43142819D02*
X103457047Y-43142819D01*
X103457047Y-43142819D02*
X103552285Y-43190438D01*
X103552285Y-43190438D02*
X103599904Y-43238057D01*
X103599904Y-43238057D02*
X103647523Y-43333295D01*
X103647523Y-43333295D02*
X103647523Y-43428533D01*
X103647523Y-43428533D02*
X103599904Y-43571390D01*
X103599904Y-43571390D02*
X103028476Y-44142819D01*
X103028476Y-44142819D02*
X103647523Y-44142819D01*
X103980857Y-43142819D02*
X104599904Y-43142819D01*
X104599904Y-43142819D02*
X104266571Y-43523771D01*
X104266571Y-43523771D02*
X104409428Y-43523771D01*
X104409428Y-43523771D02*
X104504666Y-43571390D01*
X104504666Y-43571390D02*
X104552285Y-43619009D01*
X104552285Y-43619009D02*
X104599904Y-43714247D01*
X104599904Y-43714247D02*
X104599904Y-43952342D01*
X104599904Y-43952342D02*
X104552285Y-44047580D01*
X104552285Y-44047580D02*
X104504666Y-44095200D01*
X104504666Y-44095200D02*
X104409428Y-44142819D01*
X104409428Y-44142819D02*
X104123714Y-44142819D01*
X104123714Y-44142819D02*
X104028476Y-44095200D01*
X104028476Y-44095200D02*
X103980857Y-44047580D01*
X79549333Y-47095580D02*
X79501714Y-47143200D01*
X79501714Y-47143200D02*
X79358857Y-47190819D01*
X79358857Y-47190819D02*
X79263619Y-47190819D01*
X79263619Y-47190819D02*
X79120762Y-47143200D01*
X79120762Y-47143200D02*
X79025524Y-47047961D01*
X79025524Y-47047961D02*
X78977905Y-46952723D01*
X78977905Y-46952723D02*
X78930286Y-46762247D01*
X78930286Y-46762247D02*
X78930286Y-46619390D01*
X78930286Y-46619390D02*
X78977905Y-46428914D01*
X78977905Y-46428914D02*
X79025524Y-46333676D01*
X79025524Y-46333676D02*
X79120762Y-46238438D01*
X79120762Y-46238438D02*
X79263619Y-46190819D01*
X79263619Y-46190819D02*
X79358857Y-46190819D01*
X79358857Y-46190819D02*
X79501714Y-46238438D01*
X79501714Y-46238438D02*
X79549333Y-46286057D01*
X79882667Y-46190819D02*
X80501714Y-46190819D01*
X80501714Y-46190819D02*
X80168381Y-46571771D01*
X80168381Y-46571771D02*
X80311238Y-46571771D01*
X80311238Y-46571771D02*
X80406476Y-46619390D01*
X80406476Y-46619390D02*
X80454095Y-46667009D01*
X80454095Y-46667009D02*
X80501714Y-46762247D01*
X80501714Y-46762247D02*
X80501714Y-47000342D01*
X80501714Y-47000342D02*
X80454095Y-47095580D01*
X80454095Y-47095580D02*
X80406476Y-47143200D01*
X80406476Y-47143200D02*
X80311238Y-47190819D01*
X80311238Y-47190819D02*
X80025524Y-47190819D01*
X80025524Y-47190819D02*
X79930286Y-47143200D01*
X79930286Y-47143200D02*
X79882667Y-47095580D01*
X97313963Y-43588214D02*
X97011582Y-43799881D01*
X97313963Y-43951071D02*
X96678963Y-43951071D01*
X96678963Y-43951071D02*
X96678963Y-43709166D01*
X96678963Y-43709166D02*
X96709201Y-43648690D01*
X96709201Y-43648690D02*
X96739439Y-43618452D01*
X96739439Y-43618452D02*
X96799915Y-43588214D01*
X96799915Y-43588214D02*
X96890629Y-43588214D01*
X96890629Y-43588214D02*
X96951105Y-43618452D01*
X96951105Y-43618452D02*
X96981344Y-43648690D01*
X96981344Y-43648690D02*
X97011582Y-43709166D01*
X97011582Y-43709166D02*
X97011582Y-43951071D01*
X96739439Y-43346309D02*
X96709201Y-43316071D01*
X96709201Y-43316071D02*
X96678963Y-43255595D01*
X96678963Y-43255595D02*
X96678963Y-43104404D01*
X96678963Y-43104404D02*
X96709201Y-43043928D01*
X96709201Y-43043928D02*
X96739439Y-43013690D01*
X96739439Y-43013690D02*
X96799915Y-42983452D01*
X96799915Y-42983452D02*
X96860391Y-42983452D01*
X96860391Y-42983452D02*
X96951105Y-43013690D01*
X96951105Y-43013690D02*
X97313963Y-43376547D01*
X97313963Y-43376547D02*
X97313963Y-42983452D01*
X96739439Y-42741547D02*
X96709201Y-42711309D01*
X96709201Y-42711309D02*
X96678963Y-42650833D01*
X96678963Y-42650833D02*
X96678963Y-42499642D01*
X96678963Y-42499642D02*
X96709201Y-42439166D01*
X96709201Y-42439166D02*
X96739439Y-42408928D01*
X96739439Y-42408928D02*
X96799915Y-42378690D01*
X96799915Y-42378690D02*
X96860391Y-42378690D01*
X96860391Y-42378690D02*
X96951105Y-42408928D01*
X96951105Y-42408928D02*
X97313963Y-42771785D01*
X97313963Y-42771785D02*
X97313963Y-42378690D01*
X79549333Y-51254819D02*
X79216000Y-50778628D01*
X78977905Y-51254819D02*
X78977905Y-50254819D01*
X78977905Y-50254819D02*
X79358857Y-50254819D01*
X79358857Y-50254819D02*
X79454095Y-50302438D01*
X79454095Y-50302438D02*
X79501714Y-50350057D01*
X79501714Y-50350057D02*
X79549333Y-50445295D01*
X79549333Y-50445295D02*
X79549333Y-50588152D01*
X79549333Y-50588152D02*
X79501714Y-50683390D01*
X79501714Y-50683390D02*
X79454095Y-50731009D01*
X79454095Y-50731009D02*
X79358857Y-50778628D01*
X79358857Y-50778628D02*
X78977905Y-50778628D01*
X79882667Y-50254819D02*
X80549333Y-50254819D01*
X80549333Y-50254819D02*
X80120762Y-51254819D01*
X72557333Y-65129580D02*
X72509714Y-65177200D01*
X72509714Y-65177200D02*
X72366857Y-65224819D01*
X72366857Y-65224819D02*
X72271619Y-65224819D01*
X72271619Y-65224819D02*
X72128762Y-65177200D01*
X72128762Y-65177200D02*
X72033524Y-65081961D01*
X72033524Y-65081961D02*
X71985905Y-64986723D01*
X71985905Y-64986723D02*
X71938286Y-64796247D01*
X71938286Y-64796247D02*
X71938286Y-64653390D01*
X71938286Y-64653390D02*
X71985905Y-64462914D01*
X71985905Y-64462914D02*
X72033524Y-64367676D01*
X72033524Y-64367676D02*
X72128762Y-64272438D01*
X72128762Y-64272438D02*
X72271619Y-64224819D01*
X72271619Y-64224819D02*
X72366857Y-64224819D01*
X72366857Y-64224819D02*
X72509714Y-64272438D01*
X72509714Y-64272438D02*
X72557333Y-64320057D01*
X73509714Y-65224819D02*
X72938286Y-65224819D01*
X73224000Y-65224819D02*
X73224000Y-64224819D01*
X73224000Y-64224819D02*
X73128762Y-64367676D01*
X73128762Y-64367676D02*
X73033524Y-64462914D01*
X73033524Y-64462914D02*
X72938286Y-64510533D01*
X111605785Y-36864463D02*
X111394118Y-36562082D01*
X111242928Y-36864463D02*
X111242928Y-36229463D01*
X111242928Y-36229463D02*
X111484833Y-36229463D01*
X111484833Y-36229463D02*
X111545309Y-36259701D01*
X111545309Y-36259701D02*
X111575547Y-36289939D01*
X111575547Y-36289939D02*
X111605785Y-36350415D01*
X111605785Y-36350415D02*
X111605785Y-36441129D01*
X111605785Y-36441129D02*
X111575547Y-36501605D01*
X111575547Y-36501605D02*
X111545309Y-36531844D01*
X111545309Y-36531844D02*
X111484833Y-36562082D01*
X111484833Y-36562082D02*
X111242928Y-36562082D01*
X112210547Y-36864463D02*
X111847690Y-36864463D01*
X112029118Y-36864463D02*
X112029118Y-36229463D01*
X112029118Y-36229463D02*
X111968642Y-36320177D01*
X111968642Y-36320177D02*
X111908166Y-36380653D01*
X111908166Y-36380653D02*
X111847690Y-36410891D01*
X112785071Y-36229463D02*
X112482690Y-36229463D01*
X112482690Y-36229463D02*
X112452452Y-36531844D01*
X112452452Y-36531844D02*
X112482690Y-36501605D01*
X112482690Y-36501605D02*
X112543166Y-36471367D01*
X112543166Y-36471367D02*
X112694357Y-36471367D01*
X112694357Y-36471367D02*
X112754833Y-36501605D01*
X112754833Y-36501605D02*
X112785071Y-36531844D01*
X112785071Y-36531844D02*
X112815309Y-36592320D01*
X112815309Y-36592320D02*
X112815309Y-36743510D01*
X112815309Y-36743510D02*
X112785071Y-36803986D01*
X112785071Y-36803986D02*
X112754833Y-36834225D01*
X112754833Y-36834225D02*
X112694357Y-36864463D01*
X112694357Y-36864463D02*
X112543166Y-36864463D01*
X112543166Y-36864463D02*
X112482690Y-36834225D01*
X112482690Y-36834225D02*
X112452452Y-36803986D01*
X74255333Y-41094819D02*
X73922000Y-40618628D01*
X73683905Y-41094819D02*
X73683905Y-40094819D01*
X73683905Y-40094819D02*
X74064857Y-40094819D01*
X74064857Y-40094819D02*
X74160095Y-40142438D01*
X74160095Y-40142438D02*
X74207714Y-40190057D01*
X74207714Y-40190057D02*
X74255333Y-40285295D01*
X74255333Y-40285295D02*
X74255333Y-40428152D01*
X74255333Y-40428152D02*
X74207714Y-40523390D01*
X74207714Y-40523390D02*
X74160095Y-40571009D01*
X74160095Y-40571009D02*
X74064857Y-40618628D01*
X74064857Y-40618628D02*
X73683905Y-40618628D01*
X74731524Y-41094819D02*
X74922000Y-41094819D01*
X74922000Y-41094819D02*
X75017238Y-41047200D01*
X75017238Y-41047200D02*
X75064857Y-40999580D01*
X75064857Y-40999580D02*
X75160095Y-40856723D01*
X75160095Y-40856723D02*
X75207714Y-40666247D01*
X75207714Y-40666247D02*
X75207714Y-40285295D01*
X75207714Y-40285295D02*
X75160095Y-40190057D01*
X75160095Y-40190057D02*
X75112476Y-40142438D01*
X75112476Y-40142438D02*
X75017238Y-40094819D01*
X75017238Y-40094819D02*
X74826762Y-40094819D01*
X74826762Y-40094819D02*
X74731524Y-40142438D01*
X74731524Y-40142438D02*
X74683905Y-40190057D01*
X74683905Y-40190057D02*
X74636286Y-40285295D01*
X74636286Y-40285295D02*
X74636286Y-40523390D01*
X74636286Y-40523390D02*
X74683905Y-40618628D01*
X74683905Y-40618628D02*
X74731524Y-40666247D01*
X74731524Y-40666247D02*
X74826762Y-40713866D01*
X74826762Y-40713866D02*
X75017238Y-40713866D01*
X75017238Y-40713866D02*
X75112476Y-40666247D01*
X75112476Y-40666247D02*
X75160095Y-40618628D01*
X75160095Y-40618628D02*
X75207714Y-40523390D01*
X79425809Y-56318485D02*
X79349619Y-56280390D01*
X79349619Y-56280390D02*
X79273428Y-56204200D01*
X79273428Y-56204200D02*
X79159142Y-56089914D01*
X79159142Y-56089914D02*
X79082952Y-56051819D01*
X79082952Y-56051819D02*
X79006761Y-56051819D01*
X79044857Y-56242295D02*
X78968666Y-56204200D01*
X78968666Y-56204200D02*
X78892476Y-56128009D01*
X78892476Y-56128009D02*
X78854380Y-55975628D01*
X78854380Y-55975628D02*
X78854380Y-55708961D01*
X78854380Y-55708961D02*
X78892476Y-55556580D01*
X78892476Y-55556580D02*
X78968666Y-55480390D01*
X78968666Y-55480390D02*
X79044857Y-55442295D01*
X79044857Y-55442295D02*
X79197238Y-55442295D01*
X79197238Y-55442295D02*
X79273428Y-55480390D01*
X79273428Y-55480390D02*
X79349619Y-55556580D01*
X79349619Y-55556580D02*
X79387714Y-55708961D01*
X79387714Y-55708961D02*
X79387714Y-55975628D01*
X79387714Y-55975628D02*
X79349619Y-56128009D01*
X79349619Y-56128009D02*
X79273428Y-56204200D01*
X79273428Y-56204200D02*
X79197238Y-56242295D01*
X79197238Y-56242295D02*
X79044857Y-56242295D01*
X79654380Y-55442295D02*
X80149618Y-55442295D01*
X80149618Y-55442295D02*
X79882952Y-55747057D01*
X79882952Y-55747057D02*
X79997237Y-55747057D01*
X79997237Y-55747057D02*
X80073428Y-55785152D01*
X80073428Y-55785152D02*
X80111523Y-55823247D01*
X80111523Y-55823247D02*
X80149618Y-55899438D01*
X80149618Y-55899438D02*
X80149618Y-56089914D01*
X80149618Y-56089914D02*
X80111523Y-56166104D01*
X80111523Y-56166104D02*
X80073428Y-56204200D01*
X80073428Y-56204200D02*
X79997237Y-56242295D01*
X79997237Y-56242295D02*
X79768666Y-56242295D01*
X79768666Y-56242295D02*
X79692475Y-56204200D01*
X79692475Y-56204200D02*
X79654380Y-56166104D01*
X79277972Y-31635957D02*
X79066305Y-31333576D01*
X78915115Y-31635957D02*
X78915115Y-31000957D01*
X78915115Y-31000957D02*
X79157020Y-31000957D01*
X79157020Y-31000957D02*
X79217496Y-31031195D01*
X79217496Y-31031195D02*
X79247734Y-31061433D01*
X79247734Y-31061433D02*
X79277972Y-31121909D01*
X79277972Y-31121909D02*
X79277972Y-31212623D01*
X79277972Y-31212623D02*
X79247734Y-31273099D01*
X79247734Y-31273099D02*
X79217496Y-31303338D01*
X79217496Y-31303338D02*
X79157020Y-31333576D01*
X79157020Y-31333576D02*
X78915115Y-31333576D01*
X79822258Y-31212623D02*
X79822258Y-31635957D01*
X79671067Y-30970719D02*
X79519877Y-31424290D01*
X79519877Y-31424290D02*
X79912972Y-31424290D01*
X102969785Y-54133963D02*
X102758118Y-53831582D01*
X102606928Y-54133963D02*
X102606928Y-53498963D01*
X102606928Y-53498963D02*
X102848833Y-53498963D01*
X102848833Y-53498963D02*
X102909309Y-53529201D01*
X102909309Y-53529201D02*
X102939547Y-53559439D01*
X102939547Y-53559439D02*
X102969785Y-53619915D01*
X102969785Y-53619915D02*
X102969785Y-53710629D01*
X102969785Y-53710629D02*
X102939547Y-53771105D01*
X102939547Y-53771105D02*
X102909309Y-53801344D01*
X102909309Y-53801344D02*
X102848833Y-53831582D01*
X102848833Y-53831582D02*
X102606928Y-53831582D01*
X103574547Y-54133963D02*
X103211690Y-54133963D01*
X103393118Y-54133963D02*
X103393118Y-53498963D01*
X103393118Y-53498963D02*
X103332642Y-53589677D01*
X103332642Y-53589677D02*
X103272166Y-53650153D01*
X103272166Y-53650153D02*
X103211690Y-53680391D01*
X103937404Y-53771105D02*
X103876928Y-53740867D01*
X103876928Y-53740867D02*
X103846690Y-53710629D01*
X103846690Y-53710629D02*
X103816452Y-53650153D01*
X103816452Y-53650153D02*
X103816452Y-53619915D01*
X103816452Y-53619915D02*
X103846690Y-53559439D01*
X103846690Y-53559439D02*
X103876928Y-53529201D01*
X103876928Y-53529201D02*
X103937404Y-53498963D01*
X103937404Y-53498963D02*
X104058357Y-53498963D01*
X104058357Y-53498963D02*
X104118833Y-53529201D01*
X104118833Y-53529201D02*
X104149071Y-53559439D01*
X104149071Y-53559439D02*
X104179309Y-53619915D01*
X104179309Y-53619915D02*
X104179309Y-53650153D01*
X104179309Y-53650153D02*
X104149071Y-53710629D01*
X104149071Y-53710629D02*
X104118833Y-53740867D01*
X104118833Y-53740867D02*
X104058357Y-53771105D01*
X104058357Y-53771105D02*
X103937404Y-53771105D01*
X103937404Y-53771105D02*
X103876928Y-53801344D01*
X103876928Y-53801344D02*
X103846690Y-53831582D01*
X103846690Y-53831582D02*
X103816452Y-53892058D01*
X103816452Y-53892058D02*
X103816452Y-54013010D01*
X103816452Y-54013010D02*
X103846690Y-54073486D01*
X103846690Y-54073486D02*
X103876928Y-54103725D01*
X103876928Y-54103725D02*
X103937404Y-54133963D01*
X103937404Y-54133963D02*
X104058357Y-54133963D01*
X104058357Y-54133963D02*
X104118833Y-54103725D01*
X104118833Y-54103725D02*
X104149071Y-54073486D01*
X104149071Y-54073486D02*
X104179309Y-54013010D01*
X104179309Y-54013010D02*
X104179309Y-53892058D01*
X104179309Y-53892058D02*
X104149071Y-53831582D01*
X104149071Y-53831582D02*
X104118833Y-53801344D01*
X104118833Y-53801344D02*
X104058357Y-53771105D01*
X101530485Y-35236184D02*
X101492390Y-35312374D01*
X101492390Y-35312374D02*
X101416200Y-35388565D01*
X101416200Y-35388565D02*
X101301914Y-35502851D01*
X101301914Y-35502851D02*
X101263819Y-35579041D01*
X101263819Y-35579041D02*
X101263819Y-35655232D01*
X101454295Y-35617136D02*
X101416200Y-35693327D01*
X101416200Y-35693327D02*
X101340009Y-35769517D01*
X101340009Y-35769517D02*
X101187628Y-35807613D01*
X101187628Y-35807613D02*
X100920961Y-35807613D01*
X100920961Y-35807613D02*
X100768580Y-35769517D01*
X100768580Y-35769517D02*
X100692390Y-35693327D01*
X100692390Y-35693327D02*
X100654295Y-35617136D01*
X100654295Y-35617136D02*
X100654295Y-35464755D01*
X100654295Y-35464755D02*
X100692390Y-35388565D01*
X100692390Y-35388565D02*
X100768580Y-35312374D01*
X100768580Y-35312374D02*
X100920961Y-35274279D01*
X100920961Y-35274279D02*
X101187628Y-35274279D01*
X101187628Y-35274279D02*
X101340009Y-35312374D01*
X101340009Y-35312374D02*
X101416200Y-35388565D01*
X101416200Y-35388565D02*
X101454295Y-35464755D01*
X101454295Y-35464755D02*
X101454295Y-35617136D01*
X100654295Y-34588565D02*
X100654295Y-34740946D01*
X100654295Y-34740946D02*
X100692390Y-34817137D01*
X100692390Y-34817137D02*
X100730485Y-34855232D01*
X100730485Y-34855232D02*
X100844771Y-34931422D01*
X100844771Y-34931422D02*
X100997152Y-34969518D01*
X100997152Y-34969518D02*
X101301914Y-34969518D01*
X101301914Y-34969518D02*
X101378104Y-34931422D01*
X101378104Y-34931422D02*
X101416200Y-34893327D01*
X101416200Y-34893327D02*
X101454295Y-34817137D01*
X101454295Y-34817137D02*
X101454295Y-34664756D01*
X101454295Y-34664756D02*
X101416200Y-34588565D01*
X101416200Y-34588565D02*
X101378104Y-34550470D01*
X101378104Y-34550470D02*
X101301914Y-34512375D01*
X101301914Y-34512375D02*
X101111438Y-34512375D01*
X101111438Y-34512375D02*
X101035247Y-34550470D01*
X101035247Y-34550470D02*
X100997152Y-34588565D01*
X100997152Y-34588565D02*
X100959057Y-34664756D01*
X100959057Y-34664756D02*
X100959057Y-34817137D01*
X100959057Y-34817137D02*
X100997152Y-34893327D01*
X100997152Y-34893327D02*
X101035247Y-34931422D01*
X101035247Y-34931422D02*
X101111438Y-34969518D01*
X114399785Y-34321963D02*
X114188118Y-34019582D01*
X114036928Y-34321963D02*
X114036928Y-33686963D01*
X114036928Y-33686963D02*
X114278833Y-33686963D01*
X114278833Y-33686963D02*
X114339309Y-33717201D01*
X114339309Y-33717201D02*
X114369547Y-33747439D01*
X114369547Y-33747439D02*
X114399785Y-33807915D01*
X114399785Y-33807915D02*
X114399785Y-33898629D01*
X114399785Y-33898629D02*
X114369547Y-33959105D01*
X114369547Y-33959105D02*
X114339309Y-33989344D01*
X114339309Y-33989344D02*
X114278833Y-34019582D01*
X114278833Y-34019582D02*
X114036928Y-34019582D01*
X115004547Y-34321963D02*
X114641690Y-34321963D01*
X114823118Y-34321963D02*
X114823118Y-33686963D01*
X114823118Y-33686963D02*
X114762642Y-33777677D01*
X114762642Y-33777677D02*
X114702166Y-33838153D01*
X114702166Y-33838153D02*
X114641690Y-33868391D01*
X115548833Y-33686963D02*
X115427880Y-33686963D01*
X115427880Y-33686963D02*
X115367404Y-33717201D01*
X115367404Y-33717201D02*
X115337166Y-33747439D01*
X115337166Y-33747439D02*
X115276690Y-33838153D01*
X115276690Y-33838153D02*
X115246452Y-33959105D01*
X115246452Y-33959105D02*
X115246452Y-34201010D01*
X115246452Y-34201010D02*
X115276690Y-34261486D01*
X115276690Y-34261486D02*
X115306928Y-34291725D01*
X115306928Y-34291725D02*
X115367404Y-34321963D01*
X115367404Y-34321963D02*
X115488357Y-34321963D01*
X115488357Y-34321963D02*
X115548833Y-34291725D01*
X115548833Y-34291725D02*
X115579071Y-34261486D01*
X115579071Y-34261486D02*
X115609309Y-34201010D01*
X115609309Y-34201010D02*
X115609309Y-34049820D01*
X115609309Y-34049820D02*
X115579071Y-33989344D01*
X115579071Y-33989344D02*
X115548833Y-33959105D01*
X115548833Y-33959105D02*
X115488357Y-33928867D01*
X115488357Y-33928867D02*
X115367404Y-33928867D01*
X115367404Y-33928867D02*
X115306928Y-33959105D01*
X115306928Y-33959105D02*
X115276690Y-33989344D01*
X115276690Y-33989344D02*
X115246452Y-34049820D01*
X97695142Y-51254819D02*
X97361809Y-50778628D01*
X97123714Y-51254819D02*
X97123714Y-50254819D01*
X97123714Y-50254819D02*
X97504666Y-50254819D01*
X97504666Y-50254819D02*
X97599904Y-50302438D01*
X97599904Y-50302438D02*
X97647523Y-50350057D01*
X97647523Y-50350057D02*
X97695142Y-50445295D01*
X97695142Y-50445295D02*
X97695142Y-50588152D01*
X97695142Y-50588152D02*
X97647523Y-50683390D01*
X97647523Y-50683390D02*
X97599904Y-50731009D01*
X97599904Y-50731009D02*
X97504666Y-50778628D01*
X97504666Y-50778628D02*
X97123714Y-50778628D01*
X98647523Y-51254819D02*
X98076095Y-51254819D01*
X98361809Y-51254819D02*
X98361809Y-50254819D01*
X98361809Y-50254819D02*
X98266571Y-50397676D01*
X98266571Y-50397676D02*
X98171333Y-50492914D01*
X98171333Y-50492914D02*
X98076095Y-50540533D01*
X98980857Y-50254819D02*
X99599904Y-50254819D01*
X99599904Y-50254819D02*
X99266571Y-50635771D01*
X99266571Y-50635771D02*
X99409428Y-50635771D01*
X99409428Y-50635771D02*
X99504666Y-50683390D01*
X99504666Y-50683390D02*
X99552285Y-50731009D01*
X99552285Y-50731009D02*
X99599904Y-50826247D01*
X99599904Y-50826247D02*
X99599904Y-51064342D01*
X99599904Y-51064342D02*
X99552285Y-51159580D01*
X99552285Y-51159580D02*
X99504666Y-51207200D01*
X99504666Y-51207200D02*
X99409428Y-51254819D01*
X99409428Y-51254819D02*
X99123714Y-51254819D01*
X99123714Y-51254819D02*
X99028476Y-51207200D01*
X99028476Y-51207200D02*
X98980857Y-51159580D01*
X118737142Y-64970819D02*
X118403809Y-64494628D01*
X118165714Y-64970819D02*
X118165714Y-63970819D01*
X118165714Y-63970819D02*
X118546666Y-63970819D01*
X118546666Y-63970819D02*
X118641904Y-64018438D01*
X118641904Y-64018438D02*
X118689523Y-64066057D01*
X118689523Y-64066057D02*
X118737142Y-64161295D01*
X118737142Y-64161295D02*
X118737142Y-64304152D01*
X118737142Y-64304152D02*
X118689523Y-64399390D01*
X118689523Y-64399390D02*
X118641904Y-64447009D01*
X118641904Y-64447009D02*
X118546666Y-64494628D01*
X118546666Y-64494628D02*
X118165714Y-64494628D01*
X119118095Y-64066057D02*
X119165714Y-64018438D01*
X119165714Y-64018438D02*
X119260952Y-63970819D01*
X119260952Y-63970819D02*
X119499047Y-63970819D01*
X119499047Y-63970819D02*
X119594285Y-64018438D01*
X119594285Y-64018438D02*
X119641904Y-64066057D01*
X119641904Y-64066057D02*
X119689523Y-64161295D01*
X119689523Y-64161295D02*
X119689523Y-64256533D01*
X119689523Y-64256533D02*
X119641904Y-64399390D01*
X119641904Y-64399390D02*
X119070476Y-64970819D01*
X119070476Y-64970819D02*
X119689523Y-64970819D01*
X120546666Y-63970819D02*
X120356190Y-63970819D01*
X120356190Y-63970819D02*
X120260952Y-64018438D01*
X120260952Y-64018438D02*
X120213333Y-64066057D01*
X120213333Y-64066057D02*
X120118095Y-64208914D01*
X120118095Y-64208914D02*
X120070476Y-64399390D01*
X120070476Y-64399390D02*
X120070476Y-64780342D01*
X120070476Y-64780342D02*
X120118095Y-64875580D01*
X120118095Y-64875580D02*
X120165714Y-64923200D01*
X120165714Y-64923200D02*
X120260952Y-64970819D01*
X120260952Y-64970819D02*
X120451428Y-64970819D01*
X120451428Y-64970819D02*
X120546666Y-64923200D01*
X120546666Y-64923200D02*
X120594285Y-64875580D01*
X120594285Y-64875580D02*
X120641904Y-64780342D01*
X120641904Y-64780342D02*
X120641904Y-64542247D01*
X120641904Y-64542247D02*
X120594285Y-64447009D01*
X120594285Y-64447009D02*
X120546666Y-64399390D01*
X120546666Y-64399390D02*
X120451428Y-64351771D01*
X120451428Y-64351771D02*
X120260952Y-64351771D01*
X120260952Y-64351771D02*
X120165714Y-64399390D01*
X120165714Y-64399390D02*
X120118095Y-64447009D01*
X120118095Y-64447009D02*
X120070476Y-64542247D01*
X88138095Y-38829819D02*
X88138095Y-39639342D01*
X88138095Y-39639342D02*
X88185714Y-39734580D01*
X88185714Y-39734580D02*
X88233333Y-39782200D01*
X88233333Y-39782200D02*
X88328571Y-39829819D01*
X88328571Y-39829819D02*
X88519047Y-39829819D01*
X88519047Y-39829819D02*
X88614285Y-39782200D01*
X88614285Y-39782200D02*
X88661904Y-39734580D01*
X88661904Y-39734580D02*
X88709523Y-39639342D01*
X88709523Y-39639342D02*
X88709523Y-38829819D01*
X89709523Y-39829819D02*
X89138095Y-39829819D01*
X89423809Y-39829819D02*
X89423809Y-38829819D01*
X89423809Y-38829819D02*
X89328571Y-38972676D01*
X89328571Y-38972676D02*
X89233333Y-39067914D01*
X89233333Y-39067914D02*
X89138095Y-39115533D01*
X104656961Y-27632819D02*
X104323628Y-27156628D01*
X104085533Y-27632819D02*
X104085533Y-26632819D01*
X104085533Y-26632819D02*
X104466485Y-26632819D01*
X104466485Y-26632819D02*
X104561723Y-26680438D01*
X104561723Y-26680438D02*
X104609342Y-26728057D01*
X104609342Y-26728057D02*
X104656961Y-26823295D01*
X104656961Y-26823295D02*
X104656961Y-26966152D01*
X104656961Y-26966152D02*
X104609342Y-27061390D01*
X104609342Y-27061390D02*
X104561723Y-27109009D01*
X104561723Y-27109009D02*
X104466485Y-27156628D01*
X104466485Y-27156628D02*
X104085533Y-27156628D01*
X104942676Y-26632819D02*
X105276009Y-27632819D01*
X105276009Y-27632819D02*
X105609342Y-26632819D01*
X106371247Y-26632819D02*
X106180771Y-26632819D01*
X106180771Y-26632819D02*
X106085533Y-26680438D01*
X106085533Y-26680438D02*
X106037914Y-26728057D01*
X106037914Y-26728057D02*
X105942676Y-26870914D01*
X105942676Y-26870914D02*
X105895057Y-27061390D01*
X105895057Y-27061390D02*
X105895057Y-27442342D01*
X105895057Y-27442342D02*
X105942676Y-27537580D01*
X105942676Y-27537580D02*
X105990295Y-27585200D01*
X105990295Y-27585200D02*
X106085533Y-27632819D01*
X106085533Y-27632819D02*
X106276009Y-27632819D01*
X106276009Y-27632819D02*
X106371247Y-27585200D01*
X106371247Y-27585200D02*
X106418866Y-27537580D01*
X106418866Y-27537580D02*
X106466485Y-27442342D01*
X106466485Y-27442342D02*
X106466485Y-27204247D01*
X106466485Y-27204247D02*
X106418866Y-27109009D01*
X106418866Y-27109009D02*
X106371247Y-27061390D01*
X106371247Y-27061390D02*
X106276009Y-27013771D01*
X106276009Y-27013771D02*
X106085533Y-27013771D01*
X106085533Y-27013771D02*
X105990295Y-27061390D01*
X105990295Y-27061390D02*
X105942676Y-27109009D01*
X105942676Y-27109009D02*
X105895057Y-27204247D01*
D13*
%TO.C,R17*%
X104902000Y-48038000D02*
X104902000Y-54578000D01*
X104902000Y-54578000D02*
X106934000Y-54578000D01*
X105918000Y-47268000D02*
X105918000Y-48038000D01*
X105918000Y-55348000D02*
X105918000Y-54578000D01*
X106934000Y-48038000D02*
X104902000Y-48038000D01*
X106934000Y-54578000D02*
X106934000Y-48038000D01*
%TO.C,RV1*%
X67650806Y-31222000D02*
X67650806Y-26172000D01*
X77400806Y-26172000D02*
X67650806Y-26172000D01*
X77400806Y-31222000D02*
X67650806Y-31222000D01*
X77400806Y-31222000D02*
X77400806Y-26172000D01*
%TO.C,J1*%
X68900000Y-67200000D02*
X106220000Y-67200000D01*
X68900000Y-75240000D02*
X68900000Y-67200000D01*
X69708000Y-70620000D02*
X68900000Y-70620000D01*
X69708000Y-71620000D02*
X68900000Y-71620000D01*
X70977000Y-69320000D02*
X68900000Y-69320000D01*
X74708000Y-70620000D02*
X73332000Y-70620000D01*
X74708000Y-71620000D02*
X73332000Y-71620000D01*
X75977000Y-69320000D02*
X72063000Y-69320000D01*
X79708000Y-70620000D02*
X78332000Y-70620000D01*
X79708000Y-71620000D02*
X78332000Y-71620000D01*
X80977000Y-69320000D02*
X77063000Y-69320000D01*
X84708000Y-70620000D02*
X83332000Y-70620000D01*
X84708000Y-71620000D02*
X83332000Y-71620000D01*
X85977000Y-69320000D02*
X82063000Y-69320000D01*
X89708000Y-70620000D02*
X88332000Y-70620000D01*
X89708000Y-71620000D02*
X88332000Y-71620000D01*
X90977000Y-69320000D02*
X87063000Y-69320000D01*
X94708000Y-70620000D02*
X93332000Y-70620000D01*
X94708000Y-71620000D02*
X93332000Y-71620000D01*
X95977000Y-69320000D02*
X92063000Y-69320000D01*
X99708000Y-70620000D02*
X98332000Y-70620000D01*
X99708000Y-71620000D02*
X98332000Y-71620000D01*
X100977000Y-69320000D02*
X97063000Y-69320000D01*
X104640000Y-69320000D02*
X102063000Y-69320000D01*
X104640000Y-70620000D02*
X103332000Y-70620000D01*
X104640000Y-71620000D02*
X103332000Y-71620000D01*
X106820000Y-67200000D02*
X109640000Y-67200000D01*
X109640000Y-67200000D02*
X109640000Y-75240000D01*
X109640000Y-69320000D02*
X108400000Y-69320000D01*
X109640000Y-70620000D02*
X108400000Y-70620000D01*
X109640000Y-71620000D02*
X108400000Y-71620000D01*
X109640000Y-75240000D02*
X68900000Y-75240000D01*
D14*
%TO.C,R8*%
X81026000Y-58930500D02*
X81026000Y-59946500D01*
X83058000Y-58930500D02*
X83058000Y-59946500D01*
D13*
%TO.C,RV2*%
X70563000Y-62972000D02*
X70563000Y-57922000D01*
X80313000Y-57922000D02*
X70563000Y-57922000D01*
X80313000Y-62972000D02*
X70563000Y-62972000D01*
X80313000Y-62972000D02*
X80313000Y-57922000D01*
D14*
%TO.C,R10*%
X81277500Y-42418000D02*
X80261500Y-42418000D01*
X81277500Y-44450000D02*
X80261500Y-44450000D01*
D13*
%TO.C,Q2*%
X73277806Y-33359994D02*
X73277806Y-36959994D01*
X73277806Y-33359994D02*
G75*
G02*
X74005011Y-32835810I1849994J-1799991D01*
G01*
X74005011Y-37484178D02*
G75*
G02*
X73277806Y-36959994I1122795J2324184D01*
G01*
X76226613Y-32803594D02*
G75*
G02*
X77727806Y-35159994I-1098809J-2356402D01*
G01*
X77727806Y-35159994D02*
G75*
G02*
X76226613Y-37516394I-2600000J0D01*
G01*
%TO.C,R25*%
X102640000Y-64516000D02*
X103410000Y-64516000D01*
X103410000Y-63500000D02*
X103410000Y-65532000D01*
X103410000Y-65532000D02*
X109950000Y-65532000D01*
X109950000Y-63500000D02*
X103410000Y-63500000D01*
X109950000Y-65532000D02*
X109950000Y-63500000D01*
X110720000Y-64516000D02*
X109950000Y-64516000D01*
%TO.C,C2*%
X76644000Y-63400000D02*
X76644000Y-66140000D01*
X76644000Y-63400000D02*
X83884000Y-63400000D01*
X76644000Y-66140000D02*
X83884000Y-66140000D01*
X83884000Y-63400000D02*
X83884000Y-66140000D01*
%TO.C,Q1*%
X72109806Y-36959994D02*
X72109806Y-33359994D01*
X67659806Y-35159994D02*
G75*
G02*
X69160999Y-32803594I2600000J0D01*
G01*
X69160999Y-37516394D02*
G75*
G02*
X67659806Y-35159994I1098809J2356402D01*
G01*
X71382601Y-32835810D02*
G75*
G02*
X72109806Y-33359994I-1122795J-2324184D01*
G01*
X72109806Y-36959994D02*
G75*
G02*
X71382601Y-37484178I-1849994J1799991D01*
G01*
%TO.C,R3*%
X64905806Y-37159994D02*
X64905806Y-30619994D01*
X66937806Y-37159994D02*
X66937806Y-30619994D01*
D14*
%TO.C,R1*%
X61976000Y-35562500D02*
X61976000Y-36578500D01*
X64008000Y-35562500D02*
X64008000Y-36578500D01*
%TO.C,R12*%
X76200000Y-42672000D02*
X72644000Y-42672000D01*
X76200000Y-44704000D02*
X72644000Y-44704000D01*
%TO.C,R14*%
X94996000Y-59184500D02*
X94996000Y-60200500D01*
X97028000Y-59184500D02*
X97028000Y-60200500D01*
D13*
%TO.C,R5*%
X70866000Y-48038000D02*
X70866000Y-54578000D01*
X70866000Y-54578000D02*
X72898000Y-54578000D01*
X71882000Y-47268000D02*
X71882000Y-48038000D01*
X71882000Y-55348000D02*
X71882000Y-54578000D01*
X72898000Y-48038000D02*
X70866000Y-48038000D01*
X72898000Y-54578000D02*
X72898000Y-48038000D01*
%TO.C,R20*%
X97632200Y-37306000D02*
X97632200Y-30766000D01*
X99664200Y-37306000D02*
X99664200Y-30766000D01*
D14*
%TO.C,R19*%
X110998000Y-32004000D02*
X110998000Y-30988000D01*
X113030000Y-32004000D02*
X113030000Y-30988000D01*
D13*
%TO.C,Q5*%
X105740000Y-33359994D02*
X105740000Y-36959994D01*
X105740000Y-33359994D02*
G75*
G02*
X106467205Y-32835810I1849994J-1799991D01*
G01*
X106467205Y-37484178D02*
G75*
G02*
X105740000Y-36959994I1122795J2324184D01*
G01*
X108688807Y-32803594D02*
G75*
G02*
X110190000Y-35159994I-1098809J-2356402D01*
G01*
X110190000Y-35159994D02*
G75*
G02*
X108688807Y-37516394I-2600000J0D01*
G01*
%TO.C,Q4*%
X96498000Y-56968000D02*
X100098000Y-56968000D01*
X95941600Y-54019193D02*
G75*
G02*
X98298000Y-52518000I2356402J-1098809D01*
G01*
X96498000Y-56968000D02*
G75*
G02*
X95973816Y-56240795I1799991J1849994D01*
G01*
X98298000Y-52518000D02*
G75*
G02*
X100654400Y-54019193I0J-2600000D01*
G01*
X100622184Y-56240795D02*
G75*
G02*
X100098000Y-56968000I-2324184J1122795D01*
G01*
%TO.C,RV5*%
X97741000Y-62972000D02*
X97741000Y-57922000D01*
X107491000Y-57922000D02*
X97741000Y-57922000D01*
X107491000Y-62972000D02*
X97741000Y-62972000D01*
X107491000Y-62972000D02*
X107491000Y-57922000D01*
D14*
%TO.C,R6*%
X73406000Y-54612500D02*
X73406000Y-55628500D01*
X75438000Y-54612500D02*
X75438000Y-55628500D01*
%TO.C,R2*%
X61976000Y-30480000D02*
X61976000Y-31496000D01*
X64008000Y-30480000D02*
X64008000Y-31496000D01*
%TO.C,R11*%
X81026000Y-38864500D02*
X81026000Y-39880500D01*
X83058000Y-38864500D02*
X83058000Y-39880500D01*
D13*
%TO.C,C4*%
X94424000Y-47852000D02*
X94424000Y-45112000D01*
X101664000Y-45112000D02*
X94424000Y-45112000D01*
X101664000Y-47852000D02*
X94424000Y-47852000D01*
X101664000Y-47852000D02*
X101664000Y-45112000D01*
%TO.C,R21*%
X98838000Y-39624000D02*
X105378000Y-39624000D01*
X98838000Y-41656000D02*
X105378000Y-41656000D01*
D14*
%TO.C,R24*%
X94742000Y-38862000D02*
X94742000Y-39878000D01*
X96774000Y-38862000D02*
X96774000Y-39878000D01*
%TO.C,R23*%
X101600000Y-42672000D02*
X105156000Y-42672000D01*
X101600000Y-44704000D02*
X105156000Y-44704000D01*
D13*
%TO.C,C3*%
X76136000Y-48106000D02*
X76136000Y-45366000D01*
X83376000Y-45366000D02*
X76136000Y-45366000D01*
X83376000Y-48106000D02*
X76136000Y-48106000D01*
X83376000Y-48106000D02*
X83376000Y-45366000D01*
D14*
%TO.C,R22*%
X96520000Y-42164000D02*
X97536000Y-42164000D01*
X96520000Y-44196000D02*
X97536000Y-44196000D01*
%TO.C,R7*%
X77978000Y-49784000D02*
X81534000Y-49784000D01*
X77978000Y-51816000D02*
X81534000Y-51816000D01*
D13*
%TO.C,C1*%
X69064000Y-63400000D02*
X69064000Y-66140000D01*
X69064000Y-63400000D02*
X76304000Y-63400000D01*
X69064000Y-66140000D02*
X76304000Y-66140000D01*
X76304000Y-63400000D02*
X76304000Y-66140000D01*
D14*
%TO.C,R15*%
X110998000Y-36070500D02*
X110998000Y-37086500D01*
X113030000Y-36070500D02*
X113030000Y-37086500D01*
D13*
%TO.C,R9*%
X70382000Y-40640000D02*
X71152000Y-40640000D01*
X71152000Y-39624000D02*
X71152000Y-41656000D01*
X71152000Y-41656000D02*
X77692000Y-41656000D01*
X77692000Y-39624000D02*
X71152000Y-39624000D01*
X77692000Y-41656000D02*
X77692000Y-39624000D01*
X78462000Y-40640000D02*
X77692000Y-40640000D01*
%TO.C,Q3*%
X81302000Y-52252000D02*
X77702000Y-52252000D01*
X77177816Y-52979205D02*
G75*
G02*
X77702000Y-52252000I2324184J-1122795D01*
G01*
X79502000Y-56702000D02*
G75*
G02*
X77145600Y-55200807I0J2600000D01*
G01*
X81302000Y-52252000D02*
G75*
G02*
X81826184Y-52979205I-1799991J-1849994D01*
G01*
X81858400Y-55200807D02*
G75*
G02*
X79502000Y-56702000I-2356402J1098809D01*
G01*
D14*
%TO.C,R4*%
X78367806Y-31857994D02*
X78367806Y-30841994D01*
X80399806Y-31857994D02*
X80399806Y-30841994D01*
%TO.C,R18*%
X102362000Y-53340000D02*
X102362000Y-54356000D01*
X104394000Y-53340000D02*
X104394000Y-54356000D01*
D13*
%TO.C,Q6*%
X104720000Y-36959994D02*
X104720000Y-33359994D01*
X100270000Y-35159994D02*
G75*
G02*
X101771193Y-32803594I2600000J0D01*
G01*
X101771193Y-37516394D02*
G75*
G02*
X100270000Y-35159994I1098809J2356402D01*
G01*
X103992795Y-32835810D02*
G75*
G02*
X104720000Y-33359994I-1122795J-2324184D01*
G01*
X104720000Y-36959994D02*
G75*
G02*
X103992795Y-37484178I-1849994J1799991D01*
G01*
D14*
%TO.C,R16*%
X113792000Y-33528000D02*
X113792000Y-34544000D01*
X115824000Y-33528000D02*
X115824000Y-34544000D01*
%TO.C,R13*%
X100076000Y-49784000D02*
X96520000Y-49784000D01*
X100076000Y-51816000D02*
X96520000Y-51816000D01*
D13*
%TO.C,R26*%
X115340000Y-64516000D02*
X116110000Y-64516000D01*
X116110000Y-63500000D02*
X116110000Y-65532000D01*
X116110000Y-65532000D02*
X122650000Y-65532000D01*
X122650000Y-63500000D02*
X116110000Y-63500000D01*
X122650000Y-65532000D02*
X122650000Y-63500000D01*
X123420000Y-64516000D02*
X122650000Y-64516000D01*
%TO.C,U1*%
X86650000Y-36775000D02*
X86650000Y-54675000D01*
X86650000Y-54675000D02*
X91150000Y-54675000D01*
X87900000Y-36775000D02*
X86650000Y-36775000D01*
X91150000Y-36775000D02*
X89900000Y-36775000D01*
X91150000Y-54675000D02*
X91150000Y-36775000D01*
X83650000Y-36715000D02*
X94150000Y-36715000D01*
X94150000Y-54735000D01*
X83650000Y-54735000D01*
X83650000Y-36715000D01*
X89900000Y-36775000D02*
G75*
G02*
X87900000Y-36775000I-1000000J0D01*
G01*
%TO.C,RV6*%
X100377200Y-26182000D02*
X100377200Y-31232000D01*
X100377200Y-26182000D02*
X110127200Y-26182000D01*
X100377200Y-31232000D02*
X110127200Y-31232000D01*
X110127200Y-26182000D02*
X110127200Y-31232000D01*
%TD*%
M02*
