%TF.GenerationSoftware,KiCad,Pcbnew,9.0.6*%
%TF.CreationDate,2026-04-22T22:00:32-07:00*%
%TF.ProjectId,modulinEnvelope,6d6f6475-6c69-46e4-956e-76656c6f7065,rev?*%
%TF.SameCoordinates,Original*%
%TF.FileFunction,Copper,L2,Bot*%
%TF.FilePolarity,Positive*%
%FSLAX46Y46*%
G04 Gerber Fmt 4.6, Leading zero omitted, Abs format (unit mm)*
G04 Created by KiCad (PCBNEW 9.0.6) date 2026-04-22 22:00:32*
%MOMM*%
%LPD*%
G01*
G04 APERTURE LIST*
G04 Aperture macros list*
%AMRoundRect*
0 Rectangle with rounded corners*
0 $1 Rounding radius*
0 $2 $3 $4 $5 $6 $7 $8 $9 X,Y pos of 4 corners*
0 Add a 4 corners polygon primitive as box body*
4,1,4,$2,$3,$4,$5,$6,$7,$8,$9,$2,$3,0*
0 Add four circle primitives for the rounded corners*
1,1,$1+$1,$2,$3*
1,1,$1+$1,$4,$5*
1,1,$1+$1,$6,$7*
1,1,$1+$1,$8,$9*
0 Add four rect primitives between the rounded corners*
20,1,$1+$1,$2,$3,$4,$5,0*
20,1,$1+$1,$4,$5,$6,$7,0*
20,1,$1+$1,$6,$7,$8,$9,0*
20,1,$1+$1,$8,$9,$2,$3,0*%
G04 Aperture macros list end*
%TA.AperFunction,ComponentPad*%
%ADD10R,1.727200X1.727200*%
%TD*%
%TA.AperFunction,ComponentPad*%
%ADD11C,1.727200*%
%TD*%
%TA.AperFunction,ComponentPad*%
%ADD12C,1.320800*%
%TD*%
%TA.AperFunction,SMDPad,CuDef*%
%ADD13C,1.727200*%
%TD*%
%TA.AperFunction,SMDPad,CuDef*%
%ADD14C,1.676400*%
%TD*%
%TA.AperFunction,ComponentPad*%
%ADD15O,1.727200X2.540000*%
%TD*%
%TA.AperFunction,ComponentPad*%
%ADD16RoundRect,0.250000X-0.613600X-1.020000X0.613600X-1.020000X0.613600X1.020000X-0.613600X1.020000X0*%
%TD*%
%TA.AperFunction,ComponentPad*%
%ADD17C,1.905000*%
%TD*%
%TA.AperFunction,SMDPad,CuDef*%
%ADD18C,2.794000*%
%TD*%
%TA.AperFunction,SMDPad,CuDef*%
%ADD19RoundRect,0.250000X-1.020000X-0.613600X1.020000X-0.613600X1.020000X0.613600X-1.020000X0.613600X0*%
%TD*%
%TA.AperFunction,SMDPad,CuDef*%
%ADD20O,2.540000X1.727200*%
%TD*%
%TA.AperFunction,SMDPad,CuDef*%
%ADD21RoundRect,0.250000X1.020000X0.613600X-1.020000X0.613600X-1.020000X-0.613600X1.020000X-0.613600X0*%
%TD*%
%TA.AperFunction,ComponentPad*%
%ADD22C,6.000000*%
%TD*%
%TA.AperFunction,ComponentPad*%
%ADD23RoundRect,0.250000X0.613600X1.020000X-0.613600X1.020000X-0.613600X-1.020000X0.613600X-1.020000X0*%
%TD*%
%TA.AperFunction,ComponentPad*%
%ADD24O,2.540000X1.727200*%
%TD*%
%TA.AperFunction,ComponentPad*%
%ADD25RoundRect,0.250000X1.020000X-0.613600X1.020000X0.613600X-1.020000X0.613600X-1.020000X-0.613600X0*%
%TD*%
%TA.AperFunction,ComponentPad*%
%ADD26C,1.778000*%
%TD*%
%TA.AperFunction,ComponentPad*%
%ADD27C,3.302000*%
%TD*%
%TA.AperFunction,ComponentPad*%
%ADD28C,12.000000*%
%TD*%
%TA.AperFunction,ViaPad*%
%ADD29C,1.727200*%
%TD*%
%TA.AperFunction,Conductor*%
%ADD30C,0.508000*%
%TD*%
G04 APERTURE END LIST*
D10*
%TO.P,D1,1,K*%
%TO.N,Net-(D1-K)*%
X68580000Y-99453000D03*
D11*
%TO.P,D1,2,A*%
%TO.N,GND*%
X68580000Y-91833000D03*
%TD*%
D10*
%TO.P,D2,1,K*%
%TO.N,Net-(D2-K)*%
X29210000Y-132600000D03*
D11*
%TO.P,D2,2,A*%
%TO.N,Net-(D2-A)*%
X29210000Y-122440000D03*
%TD*%
%TO.P,R13,1*%
%TO.N,Net-(Q4-C)*%
X60198000Y-120535000D03*
%TO.P,R13,2*%
%TO.N,VCC*%
X60198000Y-112915000D03*
%TD*%
%TO.P,R16,1*%
%TO.N,Net-(Q6-B)*%
X65786000Y-91833000D03*
%TO.P,R16,2*%
%TO.N,Net-(D1-K)*%
X65786000Y-99453000D03*
%TD*%
D12*
%TO.P,R4,1*%
%TO.N,Net-(Q2-C)*%
X47100806Y-157299506D03*
D13*
X47100806Y-157299506D03*
D11*
%TO.P,R4,2*%
%TO.N,Net-(R4-Pad2)*%
X44560806Y-157299506D03*
%TD*%
%TO.P,R9,1*%
%TO.N,Net-(U1C--)*%
X55358306Y-156791506D03*
%TO.P,R9,2*%
%TO.N,Net-(Q1-C)*%
X55358306Y-166951506D03*
%TD*%
D12*
%TO.P,RV2,1,1*%
%TO.N,VCC*%
X62945000Y-141617000D03*
D14*
X62945000Y-141617000D03*
D12*
%TO.P,RV2,2,2*%
%TO.N,Net-(R8-Pad2)*%
X65485000Y-141617000D03*
D14*
X65485000Y-141617000D03*
D12*
%TO.P,RV2,3,3*%
%TO.N,VEE*%
X68025000Y-141617000D03*
D14*
X68025000Y-141617000D03*
%TD*%
D15*
%TO.P,Q2,1,C*%
%TO.N,Net-(Q2-C)*%
X47103306Y-162252506D03*
%TO.P,Q2,2,B*%
%TO.N,GND*%
X49643306Y-162252506D03*
D16*
%TO.P,Q2,3,E*%
%TO.N,Net-(Q1-E)*%
X52183306Y-162252506D03*
%TD*%
D11*
%TO.P,R8,1*%
%TO.N,Net-(Q3-B)*%
X60913000Y-156857000D03*
%TO.P,R8,2*%
%TO.N,Net-(R8-Pad2)*%
X60913000Y-146697000D03*
%TD*%
D12*
%TO.P,C2,1*%
%TO.N,GND*%
X67524000Y-53479000D03*
D13*
X67524000Y-53479000D03*
D12*
%TO.P,C2,2*%
%TO.N,Net-(U2-CV)*%
X62524000Y-53479000D03*
D13*
X62524000Y-53479000D03*
%TD*%
D15*
%TO.P,Q6,1,C*%
%TO.N,Net-(Q6-C)*%
X63246000Y-87367000D03*
%TO.P,Q6,2,B*%
%TO.N,Net-(Q6-B)*%
X65786000Y-87367000D03*
D16*
%TO.P,Q6,3,E*%
%TO.N,GND*%
X68326000Y-87367000D03*
%TD*%
D11*
%TO.P,R22,1*%
%TO.N,Net-(R22-Pad1)*%
X35560000Y-76720000D03*
%TO.P,R22,2*%
%TO.N,Net-(U1D--)*%
X45720000Y-76720000D03*
%TD*%
D15*
%TO.P,Q5,1,C*%
%TO.N,Net-(Q5-C)*%
X63500000Y-107454000D03*
%TO.P,Q5,2,B*%
%TO.N,Net-(Q5-B)*%
X66040000Y-107454000D03*
D16*
%TO.P,Q5,3,E*%
%TO.N,GND*%
X68580000Y-107454000D03*
%TD*%
D11*
%TO.P,R10,1*%
%TO.N,Net-(U1C-+)*%
X50151306Y-147139506D03*
%TO.P,R10,2*%
%TO.N,Net-(Q2-C)*%
X50151306Y-157299506D03*
%TD*%
D17*
%TO.P,J1,1,Pin_1*%
%TO.N,VEE*%
X62846000Y-188734000D03*
D18*
X62846000Y-188734000D03*
D17*
%TO.P,J1,2,Pin_2*%
%TO.N,GND*%
X57846000Y-188734000D03*
D18*
X57846000Y-188734000D03*
D17*
%TO.P,J1,3,Pin_3*%
%TO.N,VCC*%
X52846000Y-188734000D03*
D18*
X52846000Y-188734000D03*
D17*
%TO.P,J1,4,Pin_4*%
%TO.N,OUT*%
X47846000Y-188734000D03*
D18*
X47846000Y-188734000D03*
D17*
%TO.P,J1,5,Pin_5*%
%TO.N,IN*%
X42846000Y-188734000D03*
D18*
X42846000Y-188734000D03*
D17*
%TO.P,J1,6,Pin_6*%
%TO.N,GATE*%
X37846000Y-188734000D03*
D18*
X37846000Y-188734000D03*
%TD*%
D12*
%TO.P,U1,1*%
%TO.N,ENV*%
X60960000Y-29057812D03*
D19*
X60960000Y-29057812D03*
D12*
%TO.P,U1,2,-*%
%TO.N,Net-(U1A--)*%
X60960000Y-31597812D03*
D20*
X60960000Y-31597812D03*
D12*
%TO.P,U1,3,+*%
%TO.N,GND*%
X60960000Y-34137812D03*
D20*
X60960000Y-34137812D03*
D12*
%TO.P,U1,4,V+*%
%TO.N,VCC*%
X60960000Y-36677812D03*
D20*
X60960000Y-36677812D03*
D12*
%TO.P,U1,5,+*%
%TO.N,Net-(D2-A)*%
X60960000Y-39217812D03*
D20*
X60960000Y-39217812D03*
D12*
%TO.P,U1,6,-*%
%TO.N,Net-(U1B--)*%
X60960000Y-41757812D03*
D20*
X60960000Y-41757812D03*
D12*
%TO.P,U1,7*%
X60960000Y-44297812D03*
D20*
X60960000Y-44297812D03*
D12*
%TO.P,U1,8*%
%TO.N,OUT*%
X68580000Y-44297812D03*
D20*
X68580000Y-44297812D03*
D12*
%TO.P,U1,9,-*%
%TO.N,Net-(U1C--)*%
X68580000Y-41757812D03*
D20*
X68580000Y-41757812D03*
D12*
%TO.P,U1,10,+*%
%TO.N,Net-(U1C-+)*%
X68580000Y-39217812D03*
D20*
X68580000Y-39217812D03*
D12*
%TO.P,U1,11,V-*%
%TO.N,VEE*%
X68580000Y-36677812D03*
D20*
X68580000Y-36677812D03*
D12*
%TO.P,U1,12,+*%
%TO.N,Net-(U1D-+)*%
X68580000Y-34137812D03*
D20*
X68580000Y-34137812D03*
D12*
%TO.P,U1,13,-*%
%TO.N,Net-(U1D--)*%
X68580000Y-31597812D03*
D20*
X68580000Y-31597812D03*
D12*
%TO.P,U1,14*%
X68580000Y-29057812D03*
D20*
X68580000Y-29057812D03*
%TD*%
D11*
%TO.P,R6,1*%
%TO.N,VEE*%
X71755000Y-167906000D03*
%TO.P,R6,2*%
%TO.N,Net-(Q3-E)*%
X61595000Y-167906000D03*
%TD*%
%TO.P,R14,1*%
%TO.N,Net-(Q5-B)*%
X62865000Y-112407000D03*
%TO.P,R14,2*%
%TO.N,Net-(Q4-C)*%
X70485000Y-112407000D03*
%TD*%
D10*
%TO.P,D3,1,K*%
%TO.N,Net-(D2-A)*%
X29210000Y-33540000D03*
D11*
%TO.P,D3,2,A*%
%TO.N,Net-(D3-A)*%
X29210000Y-43700000D03*
%TD*%
D12*
%TO.P,C1,1*%
%TO.N,Net-(Q5-C)*%
X63500000Y-102374000D03*
D13*
X63500000Y-102374000D03*
D12*
%TO.P,C1,2*%
%TO.N,Net-(D1-K)*%
X68500000Y-102374000D03*
D13*
X68500000Y-102374000D03*
%TD*%
D11*
%TO.P,R5,1*%
%TO.N,Net-(Q3-E)*%
X66294000Y-171081000D03*
%TO.P,R5,2*%
%TO.N,Net-(Q1-E)*%
X56134000Y-171081000D03*
%TD*%
D12*
%TO.P,U2,1,GND*%
%TO.N,GND*%
X68072000Y-79133000D03*
D21*
X68072000Y-79133000D03*
D12*
%TO.P,U2,2,TR*%
%TO.N,Net-(Q6-C)*%
X68072000Y-76593000D03*
D20*
X68072000Y-76593000D03*
D12*
%TO.P,U2,3,Q*%
%TO.N,Net-(U2-Q)*%
X68072000Y-74053000D03*
D20*
X68072000Y-74053000D03*
D12*
%TO.P,U2,4,R*%
%TO.N,Net-(Q5-C)*%
X68072000Y-71513000D03*
D20*
X68072000Y-71513000D03*
D12*
%TO.P,U2,5,CV*%
%TO.N,Net-(U2-CV)*%
X60452000Y-71513000D03*
D20*
X60452000Y-71513000D03*
D12*
%TO.P,U2,6,THR*%
%TO.N,Net-(U1B--)*%
X60452000Y-74053000D03*
D20*
X60452000Y-74053000D03*
D12*
%TO.P,U2,7,DIS*%
%TO.N,Net-(Q7-S)*%
X60452000Y-76593000D03*
D20*
X60452000Y-76593000D03*
D12*
%TO.P,U2,8,VCC*%
%TO.N,VCC*%
X60452000Y-79133000D03*
D20*
X60452000Y-79133000D03*
%TD*%
D11*
%TO.P,R12,1*%
%TO.N,Net-(U1C-+)*%
X71882000Y-39128000D03*
%TO.P,R12,2*%
%TO.N,GND*%
X71882000Y-28968000D03*
%TD*%
D12*
%TO.P,RV1,1,1*%
%TO.N,Net-(R3-Pad2)*%
X42277306Y-166570506D03*
D14*
X42277306Y-166570506D03*
D12*
%TO.P,RV1,2,2*%
%TO.N,VCC*%
X42277306Y-164030506D03*
D14*
X42277306Y-164030506D03*
D12*
%TO.P,RV1,3,3*%
%TO.N,Net-(R4-Pad2)*%
X42277306Y-161490506D03*
D14*
X42277306Y-161490506D03*
%TD*%
D11*
%TO.P,R23,1*%
%TO.N,Net-(U1A--)*%
X57150000Y-41922000D03*
%TO.P,R23,2*%
%TO.N,Net-(U1B--)*%
X57150000Y-49542000D03*
%TD*%
%TO.P,R21,1*%
%TO.N,VCC*%
X45720000Y-107200000D03*
%TO.P,R21,2*%
%TO.N,Net-(R21-Pad2)*%
X35560000Y-107200000D03*
%TD*%
%TO.P,R11,1*%
%TO.N,OUT*%
X71882000Y-49415000D03*
%TO.P,R11,2*%
%TO.N,Net-(U1C--)*%
X71882000Y-41795000D03*
%TD*%
%TO.P,R24,1*%
%TO.N,ENV*%
X57150000Y-23888000D03*
%TO.P,R24,2*%
%TO.N,Net-(U1A--)*%
X57150000Y-31508000D03*
%TD*%
%TO.P,R17,1*%
%TO.N,Net-(Q6-C)*%
X60198000Y-92595000D03*
%TO.P,R17,2*%
%TO.N,VCC*%
X60198000Y-100215000D03*
%TD*%
%TO.P,R18,1*%
%TO.N,Net-(Q7-G)*%
X68072000Y-60464000D03*
%TO.P,R18,2*%
%TO.N,Net-(Q5-C)*%
X68072000Y-68084000D03*
%TD*%
D22*
%TO.P,REF\u002A\u002A,MP*%
%TO.N,N/C*%
X71120000Y-188480000D03*
%TD*%
D11*
%TO.P,R3,1*%
%TO.N,Net-(Q1-C)*%
X52183306Y-171671506D03*
%TO.P,R3,2*%
%TO.N,Net-(R3-Pad2)*%
X44563306Y-171671506D03*
%TD*%
D22*
%TO.P,REF\u002A\u002A,MP*%
%TO.N,N/C*%
X50800000Y-107200000D03*
%TD*%
D15*
%TO.P,Q3,1,C*%
%TO.N,GND*%
X61087000Y-162678000D03*
%TO.P,Q3,2,B*%
%TO.N,Net-(Q3-B)*%
X63627000Y-162678000D03*
D16*
%TO.P,Q3,3,E*%
%TO.N,Net-(Q3-E)*%
X66167000Y-162678000D03*
%TD*%
D11*
%TO.P,R19,1*%
%TO.N,Net-(R19-Pad1)*%
X35560000Y-136791000D03*
%TO.P,R19,2*%
%TO.N,Net-(Q5-C)*%
X45720000Y-136791000D03*
%TD*%
D10*
%TO.P,D4,1,K*%
%TO.N,Net-(D4-K)*%
X29210000Y-71640000D03*
D11*
%TO.P,D4,2,A*%
%TO.N,Net-(D2-A)*%
X29210000Y-61480000D03*
%TD*%
D15*
%TO.P,Q4,1,C*%
%TO.N,Net-(Q4-C)*%
X63580000Y-117614000D03*
%TO.P,Q4,2,B*%
%TO.N,GATE*%
X66120000Y-117614000D03*
D16*
%TO.P,Q4,3,E*%
%TO.N,GND*%
X68660000Y-117614000D03*
%TD*%
D11*
%TO.P,R1,1*%
%TO.N,Net-(Q1-B)*%
X45960306Y-174698506D03*
%TO.P,R1,2*%
%TO.N,IN*%
X35800306Y-174698506D03*
%TD*%
%TO.P,R7,1*%
%TO.N,Net-(Q3-B)*%
X64723000Y-148729000D03*
%TO.P,R7,2*%
%TO.N,ENV*%
X74883000Y-148729000D03*
%TD*%
D22*
%TO.P,REF\u002A\u002A,MP*%
%TO.N,N/C*%
X30480000Y-20840000D03*
%TD*%
%TO.P,REF\u002A\u002A,MP*%
%TO.N,N/C*%
X71120000Y-20840000D03*
%TD*%
D11*
%TO.P,R15,1*%
%TO.N,Net-(Q5-C)*%
X60198000Y-110375000D03*
%TO.P,R15,2*%
%TO.N,VCC*%
X60198000Y-102755000D03*
%TD*%
%TO.P,R2,1*%
%TO.N,GND*%
X58914306Y-174698506D03*
%TO.P,R2,2*%
%TO.N,Net-(Q1-B)*%
X48754306Y-174698506D03*
%TD*%
D22*
%TO.P,REF\u002A\u002A,MP*%
%TO.N,N/C*%
X30480000Y-188480000D03*
%TD*%
D11*
%TO.P,R20,1*%
%TO.N,Net-(R20-Pad1)*%
X35560000Y-47510000D03*
%TO.P,R20,2*%
%TO.N,Net-(U2-Q)*%
X45720000Y-47510000D03*
%TD*%
D15*
%TO.P,Q1,1,C*%
%TO.N,Net-(Q1-C)*%
X52183306Y-166993506D03*
%TO.P,Q1,2,B*%
%TO.N,Net-(Q1-B)*%
X49643306Y-166993506D03*
D23*
%TO.P,Q1,3,E*%
%TO.N,Net-(Q1-E)*%
X47103306Y-166993506D03*
%TD*%
D12*
%TO.P,C3,1*%
%TO.N,GND*%
X57150000Y-34177812D03*
D13*
X57150000Y-34177812D03*
D12*
%TO.P,C3,2*%
%TO.N,Net-(D2-A)*%
X57150000Y-39177812D03*
D13*
X57150000Y-39177812D03*
%TD*%
D24*
%TO.P,Q7,1,S*%
%TO.N,Net-(Q7-S)*%
X62865000Y-67449000D03*
%TO.P,Q7,2,G*%
%TO.N,Net-(Q7-G)*%
X62865000Y-64909000D03*
D25*
%TO.P,Q7,3,D*%
%TO.N,Net-(Q7-D)*%
X62865000Y-62369000D03*
%TD*%
D26*
%TO.P,RV6,1,1*%
%TO.N,Net-(R22-Pad1)*%
X45720000Y-71940000D03*
%TO.P,RV6,2,2*%
%TO.N,Net-(D4-K)*%
X40640000Y-71940000D03*
%TO.P,RV6,3,3*%
X35560000Y-71940000D03*
D27*
%TO.P,RV6,MP*%
%TO.N,N/C*%
X48640000Y-58940000D03*
D28*
X40640000Y-58940000D03*
%TD*%
D26*
%TO.P,RV4,1,1*%
%TO.N,Net-(R20-Pad1)*%
X45720000Y-43700000D03*
%TO.P,RV4,2,2*%
%TO.N,Net-(D3-A)*%
X40640000Y-43700000D03*
%TO.P,RV4,3,3*%
X35560000Y-43700000D03*
D27*
%TO.P,RV4,MP*%
%TO.N,N/C*%
X48640000Y-30700000D03*
D28*
X40640000Y-30700000D03*
%TD*%
D26*
%TO.P,RV5,1,1*%
%TO.N,Net-(Q7-D)*%
X45720000Y-102420000D03*
%TO.P,RV5,2,2*%
%TO.N,Net-(U1D-+)*%
X40640000Y-102420000D03*
%TO.P,RV5,3,3*%
%TO.N,Net-(R21-Pad2)*%
X35560000Y-102420000D03*
D27*
%TO.P,RV5,MP*%
%TO.N,N/C*%
X48640000Y-89420000D03*
D28*
X40640000Y-89420000D03*
%TD*%
D26*
%TO.P,RV3,1,1*%
%TO.N,Net-(R19-Pad1)*%
X45720000Y-132600000D03*
%TO.P,RV3,2,2*%
%TO.N,Net-(D2-K)*%
X40640000Y-132600000D03*
%TO.P,RV3,3,3*%
X35560000Y-132600000D03*
D27*
%TO.P,RV3,MP*%
%TO.N,N/C*%
X48640000Y-119600000D03*
D28*
X40640000Y-119600000D03*
%TD*%
D29*
%TO.N,Net-(D2-A)*%
X54610000Y-39212812D03*
%TO.N,VCC*%
X62992000Y-137299000D03*
X60847155Y-127915155D03*
%TO.N,VEE*%
X73432400Y-35318000D03*
X71708000Y-141617000D03*
%TO.N,OUT*%
X47879000Y-183019000D03*
%TO.N,GATE*%
X37846000Y-182384000D03*
%TO.N,ENV*%
X64770000Y-25920000D03*
%TO.N,Net-(U2-Q)*%
X60960000Y-47637000D03*
%TO.N,Net-(U1D-+)*%
X65228200Y-38493000D03*
%TD*%
D30*
%TO.N,Net-(D1-K)*%
X68500000Y-99914000D02*
X68580000Y-99834000D01*
X65786000Y-99453000D02*
X68580000Y-99453000D01*
X68580000Y-102294000D02*
X68500000Y-102374000D01*
X68580000Y-99453000D02*
X68580000Y-102294000D01*
%TO.N,Net-(Q5-C)*%
X58039000Y-93484000D02*
X58039000Y-88820692D01*
X63500000Y-98945000D02*
X58039000Y-93484000D01*
X68072000Y-68084000D02*
X68072000Y-71513000D01*
X64389000Y-74230800D02*
X67106800Y-71513000D01*
X60198000Y-110375000D02*
X60579000Y-110375000D01*
X64389000Y-82470692D02*
X64389000Y-74230800D01*
X63500000Y-107454000D02*
X63500000Y-102374000D01*
X58039000Y-88820692D02*
X64389000Y-82470692D01*
X60579000Y-110375000D02*
X63500000Y-107454000D01*
X67106800Y-71513000D02*
X68072000Y-71513000D01*
X63500000Y-102374000D02*
X63500000Y-98945000D01*
%TO.N,Net-(U2-CV)*%
X60452000Y-71513000D02*
X60452000Y-55551000D01*
X60452000Y-55551000D02*
X62524000Y-53479000D01*
%TO.N,GND*%
X68326000Y-87367000D02*
X68326000Y-86097000D01*
X68326000Y-87367000D02*
X71755000Y-83938000D01*
X70511400Y-105522600D02*
X70511400Y-95923400D01*
X58914306Y-174698506D02*
X58914306Y-165058119D01*
X70511400Y-95923400D02*
X68580000Y-93992000D01*
X68660000Y-117614000D02*
X72644000Y-113630000D01*
X68072000Y-79133000D02*
X67474188Y-79133000D01*
X58914306Y-165058119D02*
X52082706Y-158226519D01*
X68580000Y-91833000D02*
X68580000Y-87621000D01*
X46849306Y-151203506D02*
X46849306Y-144643002D01*
X68660000Y-122832308D02*
X68660000Y-117614000D01*
X60960000Y-34137812D02*
X63260612Y-34137812D01*
X63297800Y-30289800D02*
X63246000Y-30238000D01*
X66357588Y-27126412D02*
X70040412Y-27126412D01*
X60920000Y-34177812D02*
X60960000Y-34137812D01*
X68072000Y-79133000D02*
X71755000Y-79133000D01*
X58848000Y-174764812D02*
X58914306Y-174698506D01*
X52082706Y-158226519D02*
X49643306Y-160665919D01*
X70167500Y-50875500D02*
X63297800Y-44005800D01*
X70040412Y-27126412D02*
X71882000Y-28968000D01*
X63297800Y-34175000D02*
X63297800Y-30289800D01*
X68326000Y-87367000D02*
X67945000Y-86986000D01*
X72644000Y-111518000D02*
X68580000Y-107454000D01*
X71755000Y-83938000D02*
X71755000Y-79133000D01*
X68580000Y-87621000D02*
X68326000Y-87367000D01*
X46849306Y-144643002D02*
X68660000Y-122832308D01*
X72644000Y-113630000D02*
X72644000Y-111518000D01*
X58848000Y-187732000D02*
X58848000Y-174764812D01*
X49643306Y-160665919D02*
X49643306Y-162252506D01*
X63260612Y-34137812D02*
X63297800Y-34175000D01*
X67524000Y-53479000D02*
X67564000Y-53479000D01*
X71755000Y-52463000D02*
X70167500Y-50875500D01*
X68580000Y-107454000D02*
X70511400Y-105522600D01*
X58914306Y-164850694D02*
X61087000Y-162678000D01*
X68580000Y-93992000D02*
X68580000Y-91833000D01*
X52082706Y-158226519D02*
X52082706Y-156436906D01*
X63297800Y-44005800D02*
X63297800Y-34175000D01*
X71755000Y-79133000D02*
X71755000Y-52463000D01*
X58914306Y-165058119D02*
X58914306Y-164850694D01*
X67564000Y-53479000D02*
X70167500Y-50875500D01*
X52082706Y-156436906D02*
X46849306Y-151203506D01*
X57150000Y-34177812D02*
X60920000Y-34177812D01*
X57846000Y-188734000D02*
X58848000Y-187732000D01*
X63246000Y-30238000D02*
X66357588Y-27126412D01*
%TO.N,Net-(D2-A)*%
X26670000Y-61480000D02*
X26670000Y-36080000D01*
X29210000Y-61480000D02*
X26670000Y-61480000D01*
X26670000Y-36080000D02*
X29210000Y-33540000D01*
X57115000Y-39212812D02*
X57150000Y-39177812D01*
X29210000Y-122440000D02*
X26670000Y-119900000D01*
X57150000Y-39177812D02*
X60920000Y-39177812D01*
X60920000Y-39177812D02*
X60960000Y-39217812D01*
X26670000Y-119900000D02*
X26670000Y-61480000D01*
X54610000Y-39212812D02*
X57115000Y-39212812D01*
%TO.N,VCC*%
X38467306Y-150266694D02*
X58039000Y-130695000D01*
X42408246Y-191782000D02*
X40310800Y-189684554D01*
X52678600Y-75804600D02*
X55880000Y-79006000D01*
X52678600Y-38412799D02*
X52678600Y-75804600D01*
X60198000Y-112915000D02*
X58039000Y-112915000D01*
X60847155Y-127915155D02*
X58053155Y-127915155D01*
X58039000Y-97294000D02*
X55880000Y-95135000D01*
X62945000Y-137346000D02*
X62992000Y-137299000D01*
X40285306Y-164030506D02*
X42277306Y-164030506D01*
X60198000Y-102755000D02*
X60198000Y-100215000D01*
X40285306Y-164030506D02*
X40245306Y-164030506D01*
X40310800Y-189684554D02*
X40310800Y-181940413D01*
X33185106Y-171130706D02*
X40285306Y-164030506D01*
X38467306Y-162252506D02*
X38467306Y-150266694D01*
X58039000Y-130695000D02*
X58039000Y-127901000D01*
X33185106Y-174814719D02*
X33185106Y-171130706D01*
X60960000Y-36677812D02*
X54413587Y-36677812D01*
X60198000Y-102755000D02*
X58039000Y-102755000D01*
X40245306Y-164030506D02*
X38467306Y-162252506D01*
X49911000Y-112915000D02*
X58039000Y-112915000D01*
X60960000Y-36677812D02*
X61557812Y-36677812D01*
X45720000Y-107200000D02*
X45720000Y-108724000D01*
X45720000Y-108724000D02*
X49911000Y-112915000D01*
X58053155Y-127915155D02*
X58039000Y-127901000D01*
X58039000Y-127901000D02*
X58039000Y-112915000D01*
X60452000Y-79133000D02*
X56007000Y-79133000D01*
X54413587Y-36677812D02*
X52678600Y-38412799D01*
X62945000Y-141617000D02*
X62945000Y-137346000D01*
X52846000Y-188734000D02*
X52846000Y-189482000D01*
X56007000Y-79133000D02*
X55880000Y-79006000D01*
X58039000Y-102755000D02*
X58039000Y-97294000D01*
X58039000Y-112915000D02*
X58039000Y-102755000D01*
X40310800Y-181940413D02*
X33185106Y-174814719D01*
X52846000Y-189482000D02*
X50546000Y-191782000D01*
X55880000Y-95135000D02*
X55880000Y-79006000D01*
X50546000Y-191782000D02*
X42408246Y-191782000D01*
%TO.N,VEE*%
X71755000Y-167906000D02*
X71755000Y-180573000D01*
X71755000Y-180573000D02*
X63594000Y-188734000D01*
X72072588Y-36677812D02*
X68580000Y-36677812D01*
X71755000Y-167906000D02*
X71755000Y-141664000D01*
X71755000Y-141664000D02*
X71708000Y-141617000D01*
X68025000Y-141617000D02*
X71708000Y-141617000D01*
X73432400Y-35318000D02*
X72072588Y-36677812D01*
X63594000Y-188734000D02*
X62846000Y-188734000D01*
%TO.N,OUT*%
X47846000Y-188734000D02*
X47879000Y-188701000D01*
X71882000Y-49415000D02*
X71882000Y-44387624D01*
X47879000Y-188701000D02*
X47879000Y-183019000D01*
X68580000Y-44297812D02*
X71792188Y-44297812D01*
X71882000Y-44387624D02*
X71792188Y-44297812D01*
%TO.N,GATE*%
X37846000Y-188734000D02*
X37846000Y-182384000D01*
%TO.N,IN*%
X42846000Y-188734000D02*
X42846000Y-181744200D01*
X35720306Y-174778506D02*
X35800306Y-174698506D01*
X42846000Y-181744200D02*
X35800306Y-174698506D01*
%TO.N,Net-(Q1-E)*%
X53554906Y-162252506D02*
X52183306Y-162252506D01*
X56134000Y-171081000D02*
X57289706Y-169925294D01*
X50810706Y-164590306D02*
X48908694Y-164590306D01*
X47103306Y-166395694D02*
X47103306Y-166993506D01*
X57289706Y-165987306D02*
X53554906Y-162252506D01*
X52183306Y-163217706D02*
X50810706Y-164590306D01*
X57289706Y-169925294D02*
X57289706Y-165987306D01*
X48908694Y-164590306D02*
X47103306Y-166395694D01*
X52183306Y-162252506D02*
X52183306Y-163217706D01*
%TO.N,Net-(Q1-B)*%
X45960306Y-174698506D02*
X48754306Y-174698506D01*
X49643306Y-173809506D02*
X49643306Y-166993506D01*
X48754306Y-174698506D02*
X49643306Y-173809506D01*
%TO.N,Net-(Q1-C)*%
X55316306Y-166993506D02*
X55358306Y-166951506D01*
X52183306Y-171671506D02*
X52183306Y-166993506D01*
X52183306Y-166993506D02*
X55316306Y-166993506D01*
%TO.N,Net-(Q2-C)*%
X47103306Y-162252506D02*
X47103306Y-157302006D01*
X47100806Y-157299506D02*
X50024306Y-157299506D01*
X47103306Y-157302006D02*
X47100806Y-157299506D01*
X50024306Y-157299506D02*
X50151306Y-157426506D01*
%TO.N,Net-(Q3-E)*%
X61595000Y-167906000D02*
X66294000Y-167906000D01*
X66294000Y-171081000D02*
X66167000Y-171081000D01*
X66294000Y-167906000D02*
X66294000Y-162805000D01*
X66294000Y-162805000D02*
X66167000Y-162678000D01*
X66294000Y-171081000D02*
X66294000Y-167906000D01*
%TO.N,Net-(Q3-B)*%
X60913000Y-152539000D02*
X64723000Y-148729000D01*
X60913000Y-156857000D02*
X60913000Y-152539000D01*
X63627000Y-162678000D02*
X63627000Y-159571000D01*
X63627000Y-159571000D02*
X60913000Y-156857000D01*
%TO.N,Net-(Q4-C)*%
X66358413Y-112407000D02*
X70485000Y-112407000D01*
X63580000Y-117614000D02*
X63580000Y-115185413D01*
X60960000Y-120535000D02*
X60960000Y-120234000D01*
X60960000Y-120234000D02*
X63580000Y-117614000D01*
X63580000Y-115185413D02*
X66358413Y-112407000D01*
%TO.N,Net-(Q5-B)*%
X63500000Y-110591812D02*
X66040000Y-108051812D01*
X63500000Y-112534000D02*
X63500000Y-110591812D01*
X66040000Y-108051812D02*
X66040000Y-107454000D01*
%TO.N,Net-(Q6-C)*%
X68072000Y-77201600D02*
X68072000Y-76593000D01*
X63246000Y-87367000D02*
X63373000Y-87240000D01*
X60960000Y-89653000D02*
X63246000Y-87367000D01*
X63373000Y-87240000D02*
X63373000Y-85356000D01*
X65734200Y-82994800D02*
X65734200Y-77966622D01*
X60960000Y-92595000D02*
X60960000Y-89653000D01*
X63373000Y-85356000D02*
X65734200Y-82994800D01*
X65734200Y-77966622D02*
X66499222Y-77201600D01*
X66499222Y-77201600D02*
X68072000Y-77201600D01*
X69036178Y-76593000D02*
X68072000Y-76593000D01*
%TO.N,Net-(Q6-B)*%
X65786000Y-91833000D02*
X65786000Y-87367000D01*
%TO.N,Net-(Q7-S)*%
X61417200Y-76593000D02*
X62865000Y-75145200D01*
X62865000Y-75145200D02*
X62865000Y-67449000D01*
X60452000Y-76593000D02*
X61417200Y-76593000D01*
%TO.N,Net-(Q7-G)*%
X63627000Y-64909000D02*
X68072000Y-60464000D01*
X62865000Y-64909000D02*
X63627000Y-64909000D01*
%TO.N,Net-(R3-Pad2)*%
X44563306Y-171671506D02*
X44563306Y-168856506D01*
X44563306Y-168856506D02*
X42277306Y-166570506D01*
%TO.N,Net-(R4-Pad2)*%
X44560806Y-157299506D02*
X44560806Y-159287006D01*
X44560806Y-159287006D02*
X42277306Y-161570506D01*
%TO.N,ENV*%
X60960000Y-29057812D02*
X61632188Y-29057812D01*
X60960000Y-27698000D02*
X57150000Y-23888000D01*
X61632188Y-29057812D02*
X64770000Y-25920000D01*
X60960000Y-29057812D02*
X60960000Y-27698000D01*
%TO.N,Net-(R8-Pad2)*%
X65445000Y-142165000D02*
X65445000Y-141617000D01*
X60913000Y-146697000D02*
X65445000Y-142165000D01*
%TO.N,Net-(U2-Q)*%
X68669812Y-74053000D02*
X68072000Y-74053000D01*
X60960000Y-47637000D02*
X65151000Y-51828000D01*
X70409800Y-72313012D02*
X68669812Y-74053000D01*
X65151000Y-51828000D02*
X65151000Y-54368000D01*
X65151000Y-54368000D02*
X70409800Y-59626800D01*
X70409800Y-59626800D02*
X70409800Y-72313012D01*
%TO.N,Net-(U1B--)*%
X60325000Y-74180000D02*
X60452000Y-74053000D01*
X59486800Y-74053000D02*
X57150000Y-71716200D01*
X57150000Y-49542000D02*
X57150000Y-48107812D01*
X60452000Y-74053000D02*
X59486800Y-74053000D01*
X57150000Y-71716200D02*
X57150000Y-49542000D01*
X57150000Y-48107812D02*
X60960000Y-44297812D01*
X60960000Y-44297812D02*
X60960000Y-41757812D01*
%TO.N,Net-(U1D--)*%
X73813400Y-29768013D02*
X73813400Y-28167987D01*
X71057413Y-25412000D02*
X67818000Y-25412000D01*
X56261000Y-21602000D02*
X51181000Y-26682000D01*
X73813400Y-28167987D02*
X71057413Y-25412000D01*
X67818000Y-25412000D02*
X64008000Y-21602000D01*
X68580000Y-31597812D02*
X71983601Y-31597812D01*
X64008000Y-21602000D02*
X56261000Y-21602000D01*
X71983601Y-31597812D02*
X73813400Y-29768013D01*
X68580000Y-29057812D02*
X68580000Y-31597812D01*
X51181000Y-26682000D02*
X51181000Y-71259000D01*
X51181000Y-71259000D02*
X45720000Y-76720000D01*
%TO.N,Net-(U1C--)*%
X71792188Y-41757812D02*
X68580000Y-41757812D01*
X74116200Y-119245416D02*
X74116200Y-44081824D01*
X55358306Y-156791506D02*
X48171106Y-149604306D01*
X48171106Y-149604306D02*
X48171106Y-145190510D01*
X48171106Y-145190510D02*
X74116200Y-119245416D01*
X74116200Y-44081824D02*
X71792188Y-41757812D01*
%TO.N,Net-(U1C-+)*%
X72073413Y-39128000D02*
X75438000Y-42492587D01*
X75438000Y-121852812D02*
X50151306Y-147139506D01*
X75438000Y-42492587D02*
X75438000Y-121852812D01*
X68580000Y-39217812D02*
X71792188Y-39217812D01*
X71792188Y-39217812D02*
X71882000Y-39128000D01*
X71882000Y-39128000D02*
X72073413Y-39128000D01*
%TO.N,Net-(U1D-+)*%
X67982188Y-34137812D02*
X68580000Y-34137812D01*
X65228200Y-38493000D02*
X65228200Y-36891800D01*
X65228200Y-36891800D02*
X67982188Y-34137812D01*
%TO.N,Net-(U1A--)*%
X57150000Y-31597812D02*
X60960000Y-31597812D01*
%TD*%
M02*
