%TF.GenerationSoftware,KiCad,Pcbnew,9.0.6*%
%TF.CreationDate,2026-04-22T22:00:32-07:00*%
%TF.ProjectId,modulinEnvelope,6d6f6475-6c69-46e4-956e-76656c6f7065,rev?*%
%TF.SameCoordinates,Original*%
%TF.FileFunction,Legend,Top*%
%TF.FilePolarity,Positive*%
%FSLAX46Y46*%
G04 Gerber Fmt 4.6, Leading zero omitted, Abs format (unit mm)*
G04 Created by KiCad (PCBNEW 9.0.6) date 2026-04-22 22:00:32*
%MOMM*%
%LPD*%
G01*
G04 APERTURE LIST*
%ADD10C,0.150000*%
%ADD11C,0.120000*%
%ADD12C,0.100000*%
G04 APERTURE END LIST*
D10*
X51498667Y-183616819D02*
X51832000Y-184616819D01*
X51832000Y-184616819D02*
X52165333Y-183616819D01*
X53070095Y-184521580D02*
X53022476Y-184569200D01*
X53022476Y-184569200D02*
X52879619Y-184616819D01*
X52879619Y-184616819D02*
X52784381Y-184616819D01*
X52784381Y-184616819D02*
X52641524Y-184569200D01*
X52641524Y-184569200D02*
X52546286Y-184473961D01*
X52546286Y-184473961D02*
X52498667Y-184378723D01*
X52498667Y-184378723D02*
X52451048Y-184188247D01*
X52451048Y-184188247D02*
X52451048Y-184045390D01*
X52451048Y-184045390D02*
X52498667Y-183854914D01*
X52498667Y-183854914D02*
X52546286Y-183759676D01*
X52546286Y-183759676D02*
X52641524Y-183664438D01*
X52641524Y-183664438D02*
X52784381Y-183616819D01*
X52784381Y-183616819D02*
X52879619Y-183616819D01*
X52879619Y-183616819D02*
X53022476Y-183664438D01*
X53022476Y-183664438D02*
X53070095Y-183712057D01*
X54070095Y-184521580D02*
X54022476Y-184569200D01*
X54022476Y-184569200D02*
X53879619Y-184616819D01*
X53879619Y-184616819D02*
X53784381Y-184616819D01*
X53784381Y-184616819D02*
X53641524Y-184569200D01*
X53641524Y-184569200D02*
X53546286Y-184473961D01*
X53546286Y-184473961D02*
X53498667Y-184378723D01*
X53498667Y-184378723D02*
X53451048Y-184188247D01*
X53451048Y-184188247D02*
X53451048Y-184045390D01*
X53451048Y-184045390D02*
X53498667Y-183854914D01*
X53498667Y-183854914D02*
X53546286Y-183759676D01*
X53546286Y-183759676D02*
X53641524Y-183664438D01*
X53641524Y-183664438D02*
X53784381Y-183616819D01*
X53784381Y-183616819D02*
X53879619Y-183616819D01*
X53879619Y-183616819D02*
X54022476Y-183664438D01*
X54022476Y-183664438D02*
X54070095Y-183712057D01*
X46752000Y-183616819D02*
X46942476Y-183616819D01*
X46942476Y-183616819D02*
X47037714Y-183664438D01*
X47037714Y-183664438D02*
X47132952Y-183759676D01*
X47132952Y-183759676D02*
X47180571Y-183950152D01*
X47180571Y-183950152D02*
X47180571Y-184283485D01*
X47180571Y-184283485D02*
X47132952Y-184473961D01*
X47132952Y-184473961D02*
X47037714Y-184569200D01*
X47037714Y-184569200D02*
X46942476Y-184616819D01*
X46942476Y-184616819D02*
X46752000Y-184616819D01*
X46752000Y-184616819D02*
X46656762Y-184569200D01*
X46656762Y-184569200D02*
X46561524Y-184473961D01*
X46561524Y-184473961D02*
X46513905Y-184283485D01*
X46513905Y-184283485D02*
X46513905Y-183950152D01*
X46513905Y-183950152D02*
X46561524Y-183759676D01*
X46561524Y-183759676D02*
X46656762Y-183664438D01*
X46656762Y-183664438D02*
X46752000Y-183616819D01*
X47609143Y-183616819D02*
X47609143Y-184426342D01*
X47609143Y-184426342D02*
X47656762Y-184521580D01*
X47656762Y-184521580D02*
X47704381Y-184569200D01*
X47704381Y-184569200D02*
X47799619Y-184616819D01*
X47799619Y-184616819D02*
X47990095Y-184616819D01*
X47990095Y-184616819D02*
X48085333Y-184569200D01*
X48085333Y-184569200D02*
X48132952Y-184521580D01*
X48132952Y-184521580D02*
X48180571Y-184426342D01*
X48180571Y-184426342D02*
X48180571Y-183616819D01*
X48513905Y-183616819D02*
X49085333Y-183616819D01*
X48799619Y-184616819D02*
X48799619Y-183616819D01*
X61499905Y-183616819D02*
X61833238Y-184616819D01*
X61833238Y-184616819D02*
X62166571Y-183616819D01*
X62499905Y-184093009D02*
X62833238Y-184093009D01*
X62976095Y-184616819D02*
X62499905Y-184616819D01*
X62499905Y-184616819D02*
X62499905Y-183616819D01*
X62499905Y-183616819D02*
X62976095Y-183616819D01*
X63404667Y-184093009D02*
X63738000Y-184093009D01*
X63880857Y-184616819D02*
X63404667Y-184616819D01*
X63404667Y-184616819D02*
X63404667Y-183616819D01*
X63404667Y-183616819D02*
X63880857Y-183616819D01*
X57150095Y-183664438D02*
X57054857Y-183616819D01*
X57054857Y-183616819D02*
X56912000Y-183616819D01*
X56912000Y-183616819D02*
X56769143Y-183664438D01*
X56769143Y-183664438D02*
X56673905Y-183759676D01*
X56673905Y-183759676D02*
X56626286Y-183854914D01*
X56626286Y-183854914D02*
X56578667Y-184045390D01*
X56578667Y-184045390D02*
X56578667Y-184188247D01*
X56578667Y-184188247D02*
X56626286Y-184378723D01*
X56626286Y-184378723D02*
X56673905Y-184473961D01*
X56673905Y-184473961D02*
X56769143Y-184569200D01*
X56769143Y-184569200D02*
X56912000Y-184616819D01*
X56912000Y-184616819D02*
X57007238Y-184616819D01*
X57007238Y-184616819D02*
X57150095Y-184569200D01*
X57150095Y-184569200D02*
X57197714Y-184521580D01*
X57197714Y-184521580D02*
X57197714Y-184188247D01*
X57197714Y-184188247D02*
X57007238Y-184188247D01*
X57626286Y-184616819D02*
X57626286Y-183616819D01*
X57626286Y-183616819D02*
X58197714Y-184616819D01*
X58197714Y-184616819D02*
X58197714Y-183616819D01*
X58673905Y-184616819D02*
X58673905Y-183616819D01*
X58673905Y-183616819D02*
X58912000Y-183616819D01*
X58912000Y-183616819D02*
X59054857Y-183664438D01*
X59054857Y-183664438D02*
X59150095Y-183759676D01*
X59150095Y-183759676D02*
X59197714Y-183854914D01*
X59197714Y-183854914D02*
X59245333Y-184045390D01*
X59245333Y-184045390D02*
X59245333Y-184188247D01*
X59245333Y-184188247D02*
X59197714Y-184378723D01*
X59197714Y-184378723D02*
X59150095Y-184473961D01*
X59150095Y-184473961D02*
X59054857Y-184569200D01*
X59054857Y-184569200D02*
X58912000Y-184616819D01*
X58912000Y-184616819D02*
X58673905Y-184616819D01*
X42402191Y-184616819D02*
X42402191Y-183616819D01*
X42878381Y-184616819D02*
X42878381Y-183616819D01*
X42878381Y-183616819D02*
X43449809Y-184616819D01*
X43449809Y-184616819D02*
X43449809Y-183616819D01*
X36845999Y-183664438D02*
X36750761Y-183616819D01*
X36750761Y-183616819D02*
X36607904Y-183616819D01*
X36607904Y-183616819D02*
X36465047Y-183664438D01*
X36465047Y-183664438D02*
X36369809Y-183759676D01*
X36369809Y-183759676D02*
X36322190Y-183854914D01*
X36322190Y-183854914D02*
X36274571Y-184045390D01*
X36274571Y-184045390D02*
X36274571Y-184188247D01*
X36274571Y-184188247D02*
X36322190Y-184378723D01*
X36322190Y-184378723D02*
X36369809Y-184473961D01*
X36369809Y-184473961D02*
X36465047Y-184569200D01*
X36465047Y-184569200D02*
X36607904Y-184616819D01*
X36607904Y-184616819D02*
X36703142Y-184616819D01*
X36703142Y-184616819D02*
X36845999Y-184569200D01*
X36845999Y-184569200D02*
X36893618Y-184521580D01*
X36893618Y-184521580D02*
X36893618Y-184188247D01*
X36893618Y-184188247D02*
X36703142Y-184188247D01*
X37274571Y-184331104D02*
X37750761Y-184331104D01*
X37179333Y-184616819D02*
X37512666Y-183616819D01*
X37512666Y-183616819D02*
X37845999Y-184616819D01*
X38036476Y-183616819D02*
X38607904Y-183616819D01*
X38322190Y-184616819D02*
X38322190Y-183616819D01*
X38941238Y-184093009D02*
X39274571Y-184093009D01*
X39417428Y-184616819D02*
X38941238Y-184616819D01*
X38941238Y-184616819D02*
X38941238Y-183616819D01*
X38941238Y-183616819D02*
X39417428Y-183616819D01*
X69034819Y-95873094D02*
X68034819Y-95873094D01*
X68034819Y-95873094D02*
X68034819Y-95634999D01*
X68034819Y-95634999D02*
X68082438Y-95492142D01*
X68082438Y-95492142D02*
X68177676Y-95396904D01*
X68177676Y-95396904D02*
X68272914Y-95349285D01*
X68272914Y-95349285D02*
X68463390Y-95301666D01*
X68463390Y-95301666D02*
X68606247Y-95301666D01*
X68606247Y-95301666D02*
X68796723Y-95349285D01*
X68796723Y-95349285D02*
X68891961Y-95396904D01*
X68891961Y-95396904D02*
X68987200Y-95492142D01*
X68987200Y-95492142D02*
X69034819Y-95634999D01*
X69034819Y-95634999D02*
X69034819Y-95873094D01*
X69034819Y-94349285D02*
X69034819Y-94920713D01*
X69034819Y-94634999D02*
X68034819Y-94634999D01*
X68034819Y-94634999D02*
X68177676Y-94730237D01*
X68177676Y-94730237D02*
X68272914Y-94825475D01*
X68272914Y-94825475D02*
X68320533Y-94920713D01*
X29664819Y-128004094D02*
X28664819Y-128004094D01*
X28664819Y-128004094D02*
X28664819Y-127765999D01*
X28664819Y-127765999D02*
X28712438Y-127623142D01*
X28712438Y-127623142D02*
X28807676Y-127527904D01*
X28807676Y-127527904D02*
X28902914Y-127480285D01*
X28902914Y-127480285D02*
X29093390Y-127432666D01*
X29093390Y-127432666D02*
X29236247Y-127432666D01*
X29236247Y-127432666D02*
X29426723Y-127480285D01*
X29426723Y-127480285D02*
X29521961Y-127527904D01*
X29521961Y-127527904D02*
X29617200Y-127623142D01*
X29617200Y-127623142D02*
X29664819Y-127765999D01*
X29664819Y-127765999D02*
X29664819Y-128004094D01*
X28760057Y-127051713D02*
X28712438Y-127004094D01*
X28712438Y-127004094D02*
X28664819Y-126908856D01*
X28664819Y-126908856D02*
X28664819Y-126670761D01*
X28664819Y-126670761D02*
X28712438Y-126575523D01*
X28712438Y-126575523D02*
X28760057Y-126527904D01*
X28760057Y-126527904D02*
X28855295Y-126480285D01*
X28855295Y-126480285D02*
X28950533Y-126480285D01*
X28950533Y-126480285D02*
X29093390Y-126527904D01*
X29093390Y-126527904D02*
X29664819Y-127099332D01*
X29664819Y-127099332D02*
X29664819Y-126480285D01*
X60652819Y-117367857D02*
X60176628Y-117701190D01*
X60652819Y-117939285D02*
X59652819Y-117939285D01*
X59652819Y-117939285D02*
X59652819Y-117558333D01*
X59652819Y-117558333D02*
X59700438Y-117463095D01*
X59700438Y-117463095D02*
X59748057Y-117415476D01*
X59748057Y-117415476D02*
X59843295Y-117367857D01*
X59843295Y-117367857D02*
X59986152Y-117367857D01*
X59986152Y-117367857D02*
X60081390Y-117415476D01*
X60081390Y-117415476D02*
X60129009Y-117463095D01*
X60129009Y-117463095D02*
X60176628Y-117558333D01*
X60176628Y-117558333D02*
X60176628Y-117939285D01*
X60652819Y-116415476D02*
X60652819Y-116986904D01*
X60652819Y-116701190D02*
X59652819Y-116701190D01*
X59652819Y-116701190D02*
X59795676Y-116796428D01*
X59795676Y-116796428D02*
X59890914Y-116891666D01*
X59890914Y-116891666D02*
X59938533Y-116986904D01*
X59652819Y-116082142D02*
X59652819Y-115463095D01*
X59652819Y-115463095D02*
X60033771Y-115796428D01*
X60033771Y-115796428D02*
X60033771Y-115653571D01*
X60033771Y-115653571D02*
X60081390Y-115558333D01*
X60081390Y-115558333D02*
X60129009Y-115510714D01*
X60129009Y-115510714D02*
X60224247Y-115463095D01*
X60224247Y-115463095D02*
X60462342Y-115463095D01*
X60462342Y-115463095D02*
X60557580Y-115510714D01*
X60557580Y-115510714D02*
X60605200Y-115558333D01*
X60605200Y-115558333D02*
X60652819Y-115653571D01*
X60652819Y-115653571D02*
X60652819Y-115939285D01*
X60652819Y-115939285D02*
X60605200Y-116034523D01*
X60605200Y-116034523D02*
X60557580Y-116082142D01*
X66240819Y-96285857D02*
X65764628Y-96619190D01*
X66240819Y-96857285D02*
X65240819Y-96857285D01*
X65240819Y-96857285D02*
X65240819Y-96476333D01*
X65240819Y-96476333D02*
X65288438Y-96381095D01*
X65288438Y-96381095D02*
X65336057Y-96333476D01*
X65336057Y-96333476D02*
X65431295Y-96285857D01*
X65431295Y-96285857D02*
X65574152Y-96285857D01*
X65574152Y-96285857D02*
X65669390Y-96333476D01*
X65669390Y-96333476D02*
X65717009Y-96381095D01*
X65717009Y-96381095D02*
X65764628Y-96476333D01*
X65764628Y-96476333D02*
X65764628Y-96857285D01*
X66240819Y-95333476D02*
X66240819Y-95904904D01*
X66240819Y-95619190D02*
X65240819Y-95619190D01*
X65240819Y-95619190D02*
X65383676Y-95714428D01*
X65383676Y-95714428D02*
X65478914Y-95809666D01*
X65478914Y-95809666D02*
X65526533Y-95904904D01*
X65240819Y-94476333D02*
X65240819Y-94666809D01*
X65240819Y-94666809D02*
X65288438Y-94762047D01*
X65288438Y-94762047D02*
X65336057Y-94809666D01*
X65336057Y-94809666D02*
X65478914Y-94904904D01*
X65478914Y-94904904D02*
X65669390Y-94952523D01*
X65669390Y-94952523D02*
X66050342Y-94952523D01*
X66050342Y-94952523D02*
X66145580Y-94904904D01*
X66145580Y-94904904D02*
X66193200Y-94857285D01*
X66193200Y-94857285D02*
X66240819Y-94762047D01*
X66240819Y-94762047D02*
X66240819Y-94571571D01*
X66240819Y-94571571D02*
X66193200Y-94476333D01*
X66193200Y-94476333D02*
X66145580Y-94428714D01*
X66145580Y-94428714D02*
X66050342Y-94381095D01*
X66050342Y-94381095D02*
X65812247Y-94381095D01*
X65812247Y-94381095D02*
X65717009Y-94428714D01*
X65717009Y-94428714D02*
X65669390Y-94476333D01*
X65669390Y-94476333D02*
X65621771Y-94571571D01*
X65621771Y-94571571D02*
X65621771Y-94762047D01*
X65621771Y-94762047D02*
X65669390Y-94857285D01*
X65669390Y-94857285D02*
X65717009Y-94904904D01*
X65717009Y-94904904D02*
X65812247Y-94952523D01*
X45807333Y-155660819D02*
X45474000Y-155184628D01*
X45235905Y-155660819D02*
X45235905Y-154660819D01*
X45235905Y-154660819D02*
X45616857Y-154660819D01*
X45616857Y-154660819D02*
X45712095Y-154708438D01*
X45712095Y-154708438D02*
X45759714Y-154756057D01*
X45759714Y-154756057D02*
X45807333Y-154851295D01*
X45807333Y-154851295D02*
X45807333Y-154994152D01*
X45807333Y-154994152D02*
X45759714Y-155089390D01*
X45759714Y-155089390D02*
X45712095Y-155137009D01*
X45712095Y-155137009D02*
X45616857Y-155184628D01*
X45616857Y-155184628D02*
X45235905Y-155184628D01*
X46664476Y-154994152D02*
X46664476Y-155660819D01*
X46426381Y-154613200D02*
X46188286Y-155327485D01*
X46188286Y-155327485D02*
X46807333Y-155327485D01*
X55813125Y-162038172D02*
X55336934Y-162371505D01*
X55813125Y-162609600D02*
X54813125Y-162609600D01*
X54813125Y-162609600D02*
X54813125Y-162228648D01*
X54813125Y-162228648D02*
X54860744Y-162133410D01*
X54860744Y-162133410D02*
X54908363Y-162085791D01*
X54908363Y-162085791D02*
X55003601Y-162038172D01*
X55003601Y-162038172D02*
X55146458Y-162038172D01*
X55146458Y-162038172D02*
X55241696Y-162085791D01*
X55241696Y-162085791D02*
X55289315Y-162133410D01*
X55289315Y-162133410D02*
X55336934Y-162228648D01*
X55336934Y-162228648D02*
X55336934Y-162609600D01*
X55813125Y-161561981D02*
X55813125Y-161371505D01*
X55813125Y-161371505D02*
X55765506Y-161276267D01*
X55765506Y-161276267D02*
X55717886Y-161228648D01*
X55717886Y-161228648D02*
X55575029Y-161133410D01*
X55575029Y-161133410D02*
X55384553Y-161085791D01*
X55384553Y-161085791D02*
X55003601Y-161085791D01*
X55003601Y-161085791D02*
X54908363Y-161133410D01*
X54908363Y-161133410D02*
X54860744Y-161181029D01*
X54860744Y-161181029D02*
X54813125Y-161276267D01*
X54813125Y-161276267D02*
X54813125Y-161466743D01*
X54813125Y-161466743D02*
X54860744Y-161561981D01*
X54860744Y-161561981D02*
X54908363Y-161609600D01*
X54908363Y-161609600D02*
X55003601Y-161657219D01*
X55003601Y-161657219D02*
X55241696Y-161657219D01*
X55241696Y-161657219D02*
X55336934Y-161609600D01*
X55336934Y-161609600D02*
X55384553Y-161561981D01*
X55384553Y-161561981D02*
X55432172Y-161466743D01*
X55432172Y-161466743D02*
X55432172Y-161276267D01*
X55432172Y-161276267D02*
X55384553Y-161181029D01*
X55384553Y-161181029D02*
X55336934Y-161133410D01*
X55336934Y-161133410D02*
X55241696Y-161085791D01*
X64889761Y-143595819D02*
X64556428Y-143119628D01*
X64318333Y-143595819D02*
X64318333Y-142595819D01*
X64318333Y-142595819D02*
X64699285Y-142595819D01*
X64699285Y-142595819D02*
X64794523Y-142643438D01*
X64794523Y-142643438D02*
X64842142Y-142691057D01*
X64842142Y-142691057D02*
X64889761Y-142786295D01*
X64889761Y-142786295D02*
X64889761Y-142929152D01*
X64889761Y-142929152D02*
X64842142Y-143024390D01*
X64842142Y-143024390D02*
X64794523Y-143072009D01*
X64794523Y-143072009D02*
X64699285Y-143119628D01*
X64699285Y-143119628D02*
X64318333Y-143119628D01*
X65175476Y-142595819D02*
X65508809Y-143595819D01*
X65508809Y-143595819D02*
X65842142Y-142595819D01*
X66127857Y-142691057D02*
X66175476Y-142643438D01*
X66175476Y-142643438D02*
X66270714Y-142595819D01*
X66270714Y-142595819D02*
X66508809Y-142595819D01*
X66508809Y-142595819D02*
X66604047Y-142643438D01*
X66604047Y-142643438D02*
X66651666Y-142691057D01*
X66651666Y-142691057D02*
X66699285Y-142786295D01*
X66699285Y-142786295D02*
X66699285Y-142881533D01*
X66699285Y-142881533D02*
X66651666Y-143024390D01*
X66651666Y-143024390D02*
X66080238Y-143595819D01*
X66080238Y-143595819D02*
X66699285Y-143595819D01*
X49567115Y-160912991D02*
X49490925Y-160874896D01*
X49490925Y-160874896D02*
X49414734Y-160798706D01*
X49414734Y-160798706D02*
X49300448Y-160684420D01*
X49300448Y-160684420D02*
X49224258Y-160646325D01*
X49224258Y-160646325D02*
X49148067Y-160646325D01*
X49186163Y-160836801D02*
X49109972Y-160798706D01*
X49109972Y-160798706D02*
X49033782Y-160722515D01*
X49033782Y-160722515D02*
X48995686Y-160570134D01*
X48995686Y-160570134D02*
X48995686Y-160303467D01*
X48995686Y-160303467D02*
X49033782Y-160151086D01*
X49033782Y-160151086D02*
X49109972Y-160074896D01*
X49109972Y-160074896D02*
X49186163Y-160036801D01*
X49186163Y-160036801D02*
X49338544Y-160036801D01*
X49338544Y-160036801D02*
X49414734Y-160074896D01*
X49414734Y-160074896D02*
X49490925Y-160151086D01*
X49490925Y-160151086D02*
X49529020Y-160303467D01*
X49529020Y-160303467D02*
X49529020Y-160570134D01*
X49529020Y-160570134D02*
X49490925Y-160722515D01*
X49490925Y-160722515D02*
X49414734Y-160798706D01*
X49414734Y-160798706D02*
X49338544Y-160836801D01*
X49338544Y-160836801D02*
X49186163Y-160836801D01*
X49833781Y-160112991D02*
X49871877Y-160074896D01*
X49871877Y-160074896D02*
X49948067Y-160036801D01*
X49948067Y-160036801D02*
X50138543Y-160036801D01*
X50138543Y-160036801D02*
X50214734Y-160074896D01*
X50214734Y-160074896D02*
X50252829Y-160112991D01*
X50252829Y-160112991D02*
X50290924Y-160189182D01*
X50290924Y-160189182D02*
X50290924Y-160265372D01*
X50290924Y-160265372D02*
X50252829Y-160379658D01*
X50252829Y-160379658D02*
X49795686Y-160836801D01*
X49795686Y-160836801D02*
X50290924Y-160836801D01*
X61367819Y-151943666D02*
X60891628Y-152276999D01*
X61367819Y-152515094D02*
X60367819Y-152515094D01*
X60367819Y-152515094D02*
X60367819Y-152134142D01*
X60367819Y-152134142D02*
X60415438Y-152038904D01*
X60415438Y-152038904D02*
X60463057Y-151991285D01*
X60463057Y-151991285D02*
X60558295Y-151943666D01*
X60558295Y-151943666D02*
X60701152Y-151943666D01*
X60701152Y-151943666D02*
X60796390Y-151991285D01*
X60796390Y-151991285D02*
X60844009Y-152038904D01*
X60844009Y-152038904D02*
X60891628Y-152134142D01*
X60891628Y-152134142D02*
X60891628Y-152515094D01*
X60796390Y-151372237D02*
X60748771Y-151467475D01*
X60748771Y-151467475D02*
X60701152Y-151515094D01*
X60701152Y-151515094D02*
X60605914Y-151562713D01*
X60605914Y-151562713D02*
X60558295Y-151562713D01*
X60558295Y-151562713D02*
X60463057Y-151515094D01*
X60463057Y-151515094D02*
X60415438Y-151467475D01*
X60415438Y-151467475D02*
X60367819Y-151372237D01*
X60367819Y-151372237D02*
X60367819Y-151181761D01*
X60367819Y-151181761D02*
X60415438Y-151086523D01*
X60415438Y-151086523D02*
X60463057Y-151038904D01*
X60463057Y-151038904D02*
X60558295Y-150991285D01*
X60558295Y-150991285D02*
X60605914Y-150991285D01*
X60605914Y-150991285D02*
X60701152Y-151038904D01*
X60701152Y-151038904D02*
X60748771Y-151086523D01*
X60748771Y-151086523D02*
X60796390Y-151181761D01*
X60796390Y-151181761D02*
X60796390Y-151372237D01*
X60796390Y-151372237D02*
X60844009Y-151467475D01*
X60844009Y-151467475D02*
X60891628Y-151515094D01*
X60891628Y-151515094D02*
X60986866Y-151562713D01*
X60986866Y-151562713D02*
X61177342Y-151562713D01*
X61177342Y-151562713D02*
X61272580Y-151515094D01*
X61272580Y-151515094D02*
X61320200Y-151467475D01*
X61320200Y-151467475D02*
X61367819Y-151372237D01*
X61367819Y-151372237D02*
X61367819Y-151181761D01*
X61367819Y-151181761D02*
X61320200Y-151086523D01*
X61320200Y-151086523D02*
X61272580Y-151038904D01*
X61272580Y-151038904D02*
X61177342Y-150991285D01*
X61177342Y-150991285D02*
X60986866Y-150991285D01*
X60986866Y-150991285D02*
X60891628Y-151038904D01*
X60891628Y-151038904D02*
X60844009Y-151086523D01*
X60844009Y-151086523D02*
X60796390Y-151181761D01*
X64817333Y-53838580D02*
X64769714Y-53886200D01*
X64769714Y-53886200D02*
X64626857Y-53933819D01*
X64626857Y-53933819D02*
X64531619Y-53933819D01*
X64531619Y-53933819D02*
X64388762Y-53886200D01*
X64388762Y-53886200D02*
X64293524Y-53790961D01*
X64293524Y-53790961D02*
X64245905Y-53695723D01*
X64245905Y-53695723D02*
X64198286Y-53505247D01*
X64198286Y-53505247D02*
X64198286Y-53362390D01*
X64198286Y-53362390D02*
X64245905Y-53171914D01*
X64245905Y-53171914D02*
X64293524Y-53076676D01*
X64293524Y-53076676D02*
X64388762Y-52981438D01*
X64388762Y-52981438D02*
X64531619Y-52933819D01*
X64531619Y-52933819D02*
X64626857Y-52933819D01*
X64626857Y-52933819D02*
X64769714Y-52981438D01*
X64769714Y-52981438D02*
X64817333Y-53029057D01*
X65198286Y-53029057D02*
X65245905Y-52981438D01*
X65245905Y-52981438D02*
X65341143Y-52933819D01*
X65341143Y-52933819D02*
X65579238Y-52933819D01*
X65579238Y-52933819D02*
X65674476Y-52981438D01*
X65674476Y-52981438D02*
X65722095Y-53029057D01*
X65722095Y-53029057D02*
X65769714Y-53124295D01*
X65769714Y-53124295D02*
X65769714Y-53219533D01*
X65769714Y-53219533D02*
X65722095Y-53362390D01*
X65722095Y-53362390D02*
X65150667Y-53933819D01*
X65150667Y-53933819D02*
X65769714Y-53933819D01*
X65709809Y-86027485D02*
X65633619Y-85989390D01*
X65633619Y-85989390D02*
X65557428Y-85913200D01*
X65557428Y-85913200D02*
X65443142Y-85798914D01*
X65443142Y-85798914D02*
X65366952Y-85760819D01*
X65366952Y-85760819D02*
X65290761Y-85760819D01*
X65328857Y-85951295D02*
X65252666Y-85913200D01*
X65252666Y-85913200D02*
X65176476Y-85837009D01*
X65176476Y-85837009D02*
X65138380Y-85684628D01*
X65138380Y-85684628D02*
X65138380Y-85417961D01*
X65138380Y-85417961D02*
X65176476Y-85265580D01*
X65176476Y-85265580D02*
X65252666Y-85189390D01*
X65252666Y-85189390D02*
X65328857Y-85151295D01*
X65328857Y-85151295D02*
X65481238Y-85151295D01*
X65481238Y-85151295D02*
X65557428Y-85189390D01*
X65557428Y-85189390D02*
X65633619Y-85265580D01*
X65633619Y-85265580D02*
X65671714Y-85417961D01*
X65671714Y-85417961D02*
X65671714Y-85684628D01*
X65671714Y-85684628D02*
X65633619Y-85837009D01*
X65633619Y-85837009D02*
X65557428Y-85913200D01*
X65557428Y-85913200D02*
X65481238Y-85951295D01*
X65481238Y-85951295D02*
X65328857Y-85951295D01*
X66357428Y-85151295D02*
X66205047Y-85151295D01*
X66205047Y-85151295D02*
X66128856Y-85189390D01*
X66128856Y-85189390D02*
X66090761Y-85227485D01*
X66090761Y-85227485D02*
X66014571Y-85341771D01*
X66014571Y-85341771D02*
X65976475Y-85494152D01*
X65976475Y-85494152D02*
X65976475Y-85798914D01*
X65976475Y-85798914D02*
X66014571Y-85875104D01*
X66014571Y-85875104D02*
X66052666Y-85913200D01*
X66052666Y-85913200D02*
X66128856Y-85951295D01*
X66128856Y-85951295D02*
X66281237Y-85951295D01*
X66281237Y-85951295D02*
X66357428Y-85913200D01*
X66357428Y-85913200D02*
X66395523Y-85875104D01*
X66395523Y-85875104D02*
X66433618Y-85798914D01*
X66433618Y-85798914D02*
X66433618Y-85608438D01*
X66433618Y-85608438D02*
X66395523Y-85532247D01*
X66395523Y-85532247D02*
X66357428Y-85494152D01*
X66357428Y-85494152D02*
X66281237Y-85456057D01*
X66281237Y-85456057D02*
X66128856Y-85456057D01*
X66128856Y-85456057D02*
X66052666Y-85494152D01*
X66052666Y-85494152D02*
X66014571Y-85532247D01*
X66014571Y-85532247D02*
X65976475Y-85608438D01*
X39997142Y-77174819D02*
X39663809Y-76698628D01*
X39425714Y-77174819D02*
X39425714Y-76174819D01*
X39425714Y-76174819D02*
X39806666Y-76174819D01*
X39806666Y-76174819D02*
X39901904Y-76222438D01*
X39901904Y-76222438D02*
X39949523Y-76270057D01*
X39949523Y-76270057D02*
X39997142Y-76365295D01*
X39997142Y-76365295D02*
X39997142Y-76508152D01*
X39997142Y-76508152D02*
X39949523Y-76603390D01*
X39949523Y-76603390D02*
X39901904Y-76651009D01*
X39901904Y-76651009D02*
X39806666Y-76698628D01*
X39806666Y-76698628D02*
X39425714Y-76698628D01*
X40378095Y-76270057D02*
X40425714Y-76222438D01*
X40425714Y-76222438D02*
X40520952Y-76174819D01*
X40520952Y-76174819D02*
X40759047Y-76174819D01*
X40759047Y-76174819D02*
X40854285Y-76222438D01*
X40854285Y-76222438D02*
X40901904Y-76270057D01*
X40901904Y-76270057D02*
X40949523Y-76365295D01*
X40949523Y-76365295D02*
X40949523Y-76460533D01*
X40949523Y-76460533D02*
X40901904Y-76603390D01*
X40901904Y-76603390D02*
X40330476Y-77174819D01*
X40330476Y-77174819D02*
X40949523Y-77174819D01*
X41330476Y-76270057D02*
X41378095Y-76222438D01*
X41378095Y-76222438D02*
X41473333Y-76174819D01*
X41473333Y-76174819D02*
X41711428Y-76174819D01*
X41711428Y-76174819D02*
X41806666Y-76222438D01*
X41806666Y-76222438D02*
X41854285Y-76270057D01*
X41854285Y-76270057D02*
X41901904Y-76365295D01*
X41901904Y-76365295D02*
X41901904Y-76460533D01*
X41901904Y-76460533D02*
X41854285Y-76603390D01*
X41854285Y-76603390D02*
X41282857Y-77174819D01*
X41282857Y-77174819D02*
X41901904Y-77174819D01*
X65963809Y-106114485D02*
X65887619Y-106076390D01*
X65887619Y-106076390D02*
X65811428Y-106000200D01*
X65811428Y-106000200D02*
X65697142Y-105885914D01*
X65697142Y-105885914D02*
X65620952Y-105847819D01*
X65620952Y-105847819D02*
X65544761Y-105847819D01*
X65582857Y-106038295D02*
X65506666Y-106000200D01*
X65506666Y-106000200D02*
X65430476Y-105924009D01*
X65430476Y-105924009D02*
X65392380Y-105771628D01*
X65392380Y-105771628D02*
X65392380Y-105504961D01*
X65392380Y-105504961D02*
X65430476Y-105352580D01*
X65430476Y-105352580D02*
X65506666Y-105276390D01*
X65506666Y-105276390D02*
X65582857Y-105238295D01*
X65582857Y-105238295D02*
X65735238Y-105238295D01*
X65735238Y-105238295D02*
X65811428Y-105276390D01*
X65811428Y-105276390D02*
X65887619Y-105352580D01*
X65887619Y-105352580D02*
X65925714Y-105504961D01*
X65925714Y-105504961D02*
X65925714Y-105771628D01*
X65925714Y-105771628D02*
X65887619Y-105924009D01*
X65887619Y-105924009D02*
X65811428Y-106000200D01*
X65811428Y-106000200D02*
X65735238Y-106038295D01*
X65735238Y-106038295D02*
X65582857Y-106038295D01*
X66649523Y-105238295D02*
X66268571Y-105238295D01*
X66268571Y-105238295D02*
X66230475Y-105619247D01*
X66230475Y-105619247D02*
X66268571Y-105581152D01*
X66268571Y-105581152D02*
X66344761Y-105543057D01*
X66344761Y-105543057D02*
X66535237Y-105543057D01*
X66535237Y-105543057D02*
X66611428Y-105581152D01*
X66611428Y-105581152D02*
X66649523Y-105619247D01*
X66649523Y-105619247D02*
X66687618Y-105695438D01*
X66687618Y-105695438D02*
X66687618Y-105885914D01*
X66687618Y-105885914D02*
X66649523Y-105962104D01*
X66649523Y-105962104D02*
X66611428Y-106000200D01*
X66611428Y-106000200D02*
X66535237Y-106038295D01*
X66535237Y-106038295D02*
X66344761Y-106038295D01*
X66344761Y-106038295D02*
X66268571Y-106000200D01*
X66268571Y-106000200D02*
X66230475Y-105962104D01*
X50606125Y-152862363D02*
X50129934Y-153195696D01*
X50606125Y-153433791D02*
X49606125Y-153433791D01*
X49606125Y-153433791D02*
X49606125Y-153052839D01*
X49606125Y-153052839D02*
X49653744Y-152957601D01*
X49653744Y-152957601D02*
X49701363Y-152909982D01*
X49701363Y-152909982D02*
X49796601Y-152862363D01*
X49796601Y-152862363D02*
X49939458Y-152862363D01*
X49939458Y-152862363D02*
X50034696Y-152909982D01*
X50034696Y-152909982D02*
X50082315Y-152957601D01*
X50082315Y-152957601D02*
X50129934Y-153052839D01*
X50129934Y-153052839D02*
X50129934Y-153433791D01*
X50606125Y-151909982D02*
X50606125Y-152481410D01*
X50606125Y-152195696D02*
X49606125Y-152195696D01*
X49606125Y-152195696D02*
X49748982Y-152290934D01*
X49748982Y-152290934D02*
X49844220Y-152386172D01*
X49844220Y-152386172D02*
X49891839Y-152481410D01*
X49606125Y-151290934D02*
X49606125Y-151195696D01*
X49606125Y-151195696D02*
X49653744Y-151100458D01*
X49653744Y-151100458D02*
X49701363Y-151052839D01*
X49701363Y-151052839D02*
X49796601Y-151005220D01*
X49796601Y-151005220D02*
X49987077Y-150957601D01*
X49987077Y-150957601D02*
X50225172Y-150957601D01*
X50225172Y-150957601D02*
X50415648Y-151005220D01*
X50415648Y-151005220D02*
X50510886Y-151052839D01*
X50510886Y-151052839D02*
X50558506Y-151100458D01*
X50558506Y-151100458D02*
X50606125Y-151195696D01*
X50606125Y-151195696D02*
X50606125Y-151290934D01*
X50606125Y-151290934D02*
X50558506Y-151386172D01*
X50558506Y-151386172D02*
X50510886Y-151433791D01*
X50510886Y-151433791D02*
X50415648Y-151481410D01*
X50415648Y-151481410D02*
X50225172Y-151529029D01*
X50225172Y-151529029D02*
X49987077Y-151529029D01*
X49987077Y-151529029D02*
X49796601Y-151481410D01*
X49796601Y-151481410D02*
X49701363Y-151433791D01*
X49701363Y-151433791D02*
X49653744Y-151386172D01*
X49653744Y-151386172D02*
X49606125Y-151290934D01*
X50466666Y-185140819D02*
X50466666Y-185855104D01*
X50466666Y-185855104D02*
X50419047Y-185997961D01*
X50419047Y-185997961D02*
X50323809Y-186093200D01*
X50323809Y-186093200D02*
X50180952Y-186140819D01*
X50180952Y-186140819D02*
X50085714Y-186140819D01*
X51466666Y-186140819D02*
X50895238Y-186140819D01*
X51180952Y-186140819D02*
X51180952Y-185140819D01*
X51180952Y-185140819D02*
X51085714Y-185283676D01*
X51085714Y-185283676D02*
X50990476Y-185378914D01*
X50990476Y-185378914D02*
X50895238Y-185426533D01*
X64008095Y-29782631D02*
X64008095Y-30592154D01*
X64008095Y-30592154D02*
X64055714Y-30687392D01*
X64055714Y-30687392D02*
X64103333Y-30735012D01*
X64103333Y-30735012D02*
X64198571Y-30782631D01*
X64198571Y-30782631D02*
X64389047Y-30782631D01*
X64389047Y-30782631D02*
X64484285Y-30735012D01*
X64484285Y-30735012D02*
X64531904Y-30687392D01*
X64531904Y-30687392D02*
X64579523Y-30592154D01*
X64579523Y-30592154D02*
X64579523Y-29782631D01*
X65579523Y-30782631D02*
X65008095Y-30782631D01*
X65293809Y-30782631D02*
X65293809Y-29782631D01*
X65293809Y-29782631D02*
X65198571Y-29925488D01*
X65198571Y-29925488D02*
X65103333Y-30020726D01*
X65103333Y-30020726D02*
X65008095Y-30068345D01*
X66508333Y-168360819D02*
X66175000Y-167884628D01*
X65936905Y-168360819D02*
X65936905Y-167360819D01*
X65936905Y-167360819D02*
X66317857Y-167360819D01*
X66317857Y-167360819D02*
X66413095Y-167408438D01*
X66413095Y-167408438D02*
X66460714Y-167456057D01*
X66460714Y-167456057D02*
X66508333Y-167551295D01*
X66508333Y-167551295D02*
X66508333Y-167694152D01*
X66508333Y-167694152D02*
X66460714Y-167789390D01*
X66460714Y-167789390D02*
X66413095Y-167837009D01*
X66413095Y-167837009D02*
X66317857Y-167884628D01*
X66317857Y-167884628D02*
X65936905Y-167884628D01*
X67365476Y-167360819D02*
X67175000Y-167360819D01*
X67175000Y-167360819D02*
X67079762Y-167408438D01*
X67079762Y-167408438D02*
X67032143Y-167456057D01*
X67032143Y-167456057D02*
X66936905Y-167598914D01*
X66936905Y-167598914D02*
X66889286Y-167789390D01*
X66889286Y-167789390D02*
X66889286Y-168170342D01*
X66889286Y-168170342D02*
X66936905Y-168265580D01*
X66936905Y-168265580D02*
X66984524Y-168313200D01*
X66984524Y-168313200D02*
X67079762Y-168360819D01*
X67079762Y-168360819D02*
X67270238Y-168360819D01*
X67270238Y-168360819D02*
X67365476Y-168313200D01*
X67365476Y-168313200D02*
X67413095Y-168265580D01*
X67413095Y-168265580D02*
X67460714Y-168170342D01*
X67460714Y-168170342D02*
X67460714Y-167932247D01*
X67460714Y-167932247D02*
X67413095Y-167837009D01*
X67413095Y-167837009D02*
X67365476Y-167789390D01*
X67365476Y-167789390D02*
X67270238Y-167741771D01*
X67270238Y-167741771D02*
X67079762Y-167741771D01*
X67079762Y-167741771D02*
X66984524Y-167789390D01*
X66984524Y-167789390D02*
X66936905Y-167837009D01*
X66936905Y-167837009D02*
X66889286Y-167932247D01*
X66032142Y-112861819D02*
X65698809Y-112385628D01*
X65460714Y-112861819D02*
X65460714Y-111861819D01*
X65460714Y-111861819D02*
X65841666Y-111861819D01*
X65841666Y-111861819D02*
X65936904Y-111909438D01*
X65936904Y-111909438D02*
X65984523Y-111957057D01*
X65984523Y-111957057D02*
X66032142Y-112052295D01*
X66032142Y-112052295D02*
X66032142Y-112195152D01*
X66032142Y-112195152D02*
X65984523Y-112290390D01*
X65984523Y-112290390D02*
X65936904Y-112338009D01*
X65936904Y-112338009D02*
X65841666Y-112385628D01*
X65841666Y-112385628D02*
X65460714Y-112385628D01*
X66984523Y-112861819D02*
X66413095Y-112861819D01*
X66698809Y-112861819D02*
X66698809Y-111861819D01*
X66698809Y-111861819D02*
X66603571Y-112004676D01*
X66603571Y-112004676D02*
X66508333Y-112099914D01*
X66508333Y-112099914D02*
X66413095Y-112147533D01*
X67841666Y-112195152D02*
X67841666Y-112861819D01*
X67603571Y-111814200D02*
X67365476Y-112528485D01*
X67365476Y-112528485D02*
X67984523Y-112528485D01*
X29664819Y-39612094D02*
X28664819Y-39612094D01*
X28664819Y-39612094D02*
X28664819Y-39373999D01*
X28664819Y-39373999D02*
X28712438Y-39231142D01*
X28712438Y-39231142D02*
X28807676Y-39135904D01*
X28807676Y-39135904D02*
X28902914Y-39088285D01*
X28902914Y-39088285D02*
X29093390Y-39040666D01*
X29093390Y-39040666D02*
X29236247Y-39040666D01*
X29236247Y-39040666D02*
X29426723Y-39088285D01*
X29426723Y-39088285D02*
X29521961Y-39135904D01*
X29521961Y-39135904D02*
X29617200Y-39231142D01*
X29617200Y-39231142D02*
X29664819Y-39373999D01*
X29664819Y-39373999D02*
X29664819Y-39612094D01*
X28664819Y-38707332D02*
X28664819Y-38088285D01*
X28664819Y-38088285D02*
X29045771Y-38421618D01*
X29045771Y-38421618D02*
X29045771Y-38278761D01*
X29045771Y-38278761D02*
X29093390Y-38183523D01*
X29093390Y-38183523D02*
X29141009Y-38135904D01*
X29141009Y-38135904D02*
X29236247Y-38088285D01*
X29236247Y-38088285D02*
X29474342Y-38088285D01*
X29474342Y-38088285D02*
X29569580Y-38135904D01*
X29569580Y-38135904D02*
X29617200Y-38183523D01*
X29617200Y-38183523D02*
X29664819Y-38278761D01*
X29664819Y-38278761D02*
X29664819Y-38564475D01*
X29664819Y-38564475D02*
X29617200Y-38659713D01*
X29617200Y-38659713D02*
X29569580Y-38707332D01*
X65873333Y-102733580D02*
X65825714Y-102781200D01*
X65825714Y-102781200D02*
X65682857Y-102828819D01*
X65682857Y-102828819D02*
X65587619Y-102828819D01*
X65587619Y-102828819D02*
X65444762Y-102781200D01*
X65444762Y-102781200D02*
X65349524Y-102685961D01*
X65349524Y-102685961D02*
X65301905Y-102590723D01*
X65301905Y-102590723D02*
X65254286Y-102400247D01*
X65254286Y-102400247D02*
X65254286Y-102257390D01*
X65254286Y-102257390D02*
X65301905Y-102066914D01*
X65301905Y-102066914D02*
X65349524Y-101971676D01*
X65349524Y-101971676D02*
X65444762Y-101876438D01*
X65444762Y-101876438D02*
X65587619Y-101828819D01*
X65587619Y-101828819D02*
X65682857Y-101828819D01*
X65682857Y-101828819D02*
X65825714Y-101876438D01*
X65825714Y-101876438D02*
X65873333Y-101924057D01*
X66825714Y-102828819D02*
X66254286Y-102828819D01*
X66540000Y-102828819D02*
X66540000Y-101828819D01*
X66540000Y-101828819D02*
X66444762Y-101971676D01*
X66444762Y-101971676D02*
X66349524Y-102066914D01*
X66349524Y-102066914D02*
X66254286Y-102114533D01*
X61047333Y-171535819D02*
X60714000Y-171059628D01*
X60475905Y-171535819D02*
X60475905Y-170535819D01*
X60475905Y-170535819D02*
X60856857Y-170535819D01*
X60856857Y-170535819D02*
X60952095Y-170583438D01*
X60952095Y-170583438D02*
X60999714Y-170631057D01*
X60999714Y-170631057D02*
X61047333Y-170726295D01*
X61047333Y-170726295D02*
X61047333Y-170869152D01*
X61047333Y-170869152D02*
X60999714Y-170964390D01*
X60999714Y-170964390D02*
X60952095Y-171012009D01*
X60952095Y-171012009D02*
X60856857Y-171059628D01*
X60856857Y-171059628D02*
X60475905Y-171059628D01*
X61952095Y-170535819D02*
X61475905Y-170535819D01*
X61475905Y-170535819D02*
X61428286Y-171012009D01*
X61428286Y-171012009D02*
X61475905Y-170964390D01*
X61475905Y-170964390D02*
X61571143Y-170916771D01*
X61571143Y-170916771D02*
X61809238Y-170916771D01*
X61809238Y-170916771D02*
X61904476Y-170964390D01*
X61904476Y-170964390D02*
X61952095Y-171012009D01*
X61952095Y-171012009D02*
X61999714Y-171107247D01*
X61999714Y-171107247D02*
X61999714Y-171345342D01*
X61999714Y-171345342D02*
X61952095Y-171440580D01*
X61952095Y-171440580D02*
X61904476Y-171488200D01*
X61904476Y-171488200D02*
X61809238Y-171535819D01*
X61809238Y-171535819D02*
X61571143Y-171535819D01*
X61571143Y-171535819D02*
X61475905Y-171488200D01*
X61475905Y-171488200D02*
X61428286Y-171440580D01*
X63500095Y-77317819D02*
X63500095Y-78127342D01*
X63500095Y-78127342D02*
X63547714Y-78222580D01*
X63547714Y-78222580D02*
X63595333Y-78270200D01*
X63595333Y-78270200D02*
X63690571Y-78317819D01*
X63690571Y-78317819D02*
X63881047Y-78317819D01*
X63881047Y-78317819D02*
X63976285Y-78270200D01*
X63976285Y-78270200D02*
X64023904Y-78222580D01*
X64023904Y-78222580D02*
X64071523Y-78127342D01*
X64071523Y-78127342D02*
X64071523Y-77317819D01*
X64500095Y-77413057D02*
X64547714Y-77365438D01*
X64547714Y-77365438D02*
X64642952Y-77317819D01*
X64642952Y-77317819D02*
X64881047Y-77317819D01*
X64881047Y-77317819D02*
X64976285Y-77365438D01*
X64976285Y-77365438D02*
X65023904Y-77413057D01*
X65023904Y-77413057D02*
X65071523Y-77508295D01*
X65071523Y-77508295D02*
X65071523Y-77603533D01*
X65071523Y-77603533D02*
X65023904Y-77746390D01*
X65023904Y-77746390D02*
X64452476Y-78317819D01*
X64452476Y-78317819D02*
X65071523Y-78317819D01*
X72336819Y-34690857D02*
X71860628Y-35024190D01*
X72336819Y-35262285D02*
X71336819Y-35262285D01*
X71336819Y-35262285D02*
X71336819Y-34881333D01*
X71336819Y-34881333D02*
X71384438Y-34786095D01*
X71384438Y-34786095D02*
X71432057Y-34738476D01*
X71432057Y-34738476D02*
X71527295Y-34690857D01*
X71527295Y-34690857D02*
X71670152Y-34690857D01*
X71670152Y-34690857D02*
X71765390Y-34738476D01*
X71765390Y-34738476D02*
X71813009Y-34786095D01*
X71813009Y-34786095D02*
X71860628Y-34881333D01*
X71860628Y-34881333D02*
X71860628Y-35262285D01*
X72336819Y-33738476D02*
X72336819Y-34309904D01*
X72336819Y-34024190D02*
X71336819Y-34024190D01*
X71336819Y-34024190D02*
X71479676Y-34119428D01*
X71479676Y-34119428D02*
X71574914Y-34214666D01*
X71574914Y-34214666D02*
X71622533Y-34309904D01*
X71432057Y-33357523D02*
X71384438Y-33309904D01*
X71384438Y-33309904D02*
X71336819Y-33214666D01*
X71336819Y-33214666D02*
X71336819Y-32976571D01*
X71336819Y-32976571D02*
X71384438Y-32881333D01*
X71384438Y-32881333D02*
X71432057Y-32833714D01*
X71432057Y-32833714D02*
X71527295Y-32786095D01*
X71527295Y-32786095D02*
X71622533Y-32786095D01*
X71622533Y-32786095D02*
X71765390Y-32833714D01*
X71765390Y-32833714D02*
X72336819Y-33405142D01*
X72336819Y-33405142D02*
X72336819Y-32786095D01*
X44256125Y-164625744D02*
X43779934Y-164959077D01*
X44256125Y-165197172D02*
X43256125Y-165197172D01*
X43256125Y-165197172D02*
X43256125Y-164816220D01*
X43256125Y-164816220D02*
X43303744Y-164720982D01*
X43303744Y-164720982D02*
X43351363Y-164673363D01*
X43351363Y-164673363D02*
X43446601Y-164625744D01*
X43446601Y-164625744D02*
X43589458Y-164625744D01*
X43589458Y-164625744D02*
X43684696Y-164673363D01*
X43684696Y-164673363D02*
X43732315Y-164720982D01*
X43732315Y-164720982D02*
X43779934Y-164816220D01*
X43779934Y-164816220D02*
X43779934Y-165197172D01*
X43256125Y-164340029D02*
X44256125Y-164006696D01*
X44256125Y-164006696D02*
X43256125Y-163673363D01*
X44256125Y-162816220D02*
X44256125Y-163387648D01*
X44256125Y-163101934D02*
X43256125Y-163101934D01*
X43256125Y-163101934D02*
X43398982Y-163197172D01*
X43398982Y-163197172D02*
X43494220Y-163292410D01*
X43494220Y-163292410D02*
X43541839Y-163387648D01*
X57604819Y-46374857D02*
X57128628Y-46708190D01*
X57604819Y-46946285D02*
X56604819Y-46946285D01*
X56604819Y-46946285D02*
X56604819Y-46565333D01*
X56604819Y-46565333D02*
X56652438Y-46470095D01*
X56652438Y-46470095D02*
X56700057Y-46422476D01*
X56700057Y-46422476D02*
X56795295Y-46374857D01*
X56795295Y-46374857D02*
X56938152Y-46374857D01*
X56938152Y-46374857D02*
X57033390Y-46422476D01*
X57033390Y-46422476D02*
X57081009Y-46470095D01*
X57081009Y-46470095D02*
X57128628Y-46565333D01*
X57128628Y-46565333D02*
X57128628Y-46946285D01*
X56700057Y-45993904D02*
X56652438Y-45946285D01*
X56652438Y-45946285D02*
X56604819Y-45851047D01*
X56604819Y-45851047D02*
X56604819Y-45612952D01*
X56604819Y-45612952D02*
X56652438Y-45517714D01*
X56652438Y-45517714D02*
X56700057Y-45470095D01*
X56700057Y-45470095D02*
X56795295Y-45422476D01*
X56795295Y-45422476D02*
X56890533Y-45422476D01*
X56890533Y-45422476D02*
X57033390Y-45470095D01*
X57033390Y-45470095D02*
X57604819Y-46041523D01*
X57604819Y-46041523D02*
X57604819Y-45422476D01*
X56604819Y-45089142D02*
X56604819Y-44470095D01*
X56604819Y-44470095D02*
X56985771Y-44803428D01*
X56985771Y-44803428D02*
X56985771Y-44660571D01*
X56985771Y-44660571D02*
X57033390Y-44565333D01*
X57033390Y-44565333D02*
X57081009Y-44517714D01*
X57081009Y-44517714D02*
X57176247Y-44470095D01*
X57176247Y-44470095D02*
X57414342Y-44470095D01*
X57414342Y-44470095D02*
X57509580Y-44517714D01*
X57509580Y-44517714D02*
X57557200Y-44565333D01*
X57557200Y-44565333D02*
X57604819Y-44660571D01*
X57604819Y-44660571D02*
X57604819Y-44946285D01*
X57604819Y-44946285D02*
X57557200Y-45041523D01*
X57557200Y-45041523D02*
X57509580Y-45089142D01*
X39997142Y-107654819D02*
X39663809Y-107178628D01*
X39425714Y-107654819D02*
X39425714Y-106654819D01*
X39425714Y-106654819D02*
X39806666Y-106654819D01*
X39806666Y-106654819D02*
X39901904Y-106702438D01*
X39901904Y-106702438D02*
X39949523Y-106750057D01*
X39949523Y-106750057D02*
X39997142Y-106845295D01*
X39997142Y-106845295D02*
X39997142Y-106988152D01*
X39997142Y-106988152D02*
X39949523Y-107083390D01*
X39949523Y-107083390D02*
X39901904Y-107131009D01*
X39901904Y-107131009D02*
X39806666Y-107178628D01*
X39806666Y-107178628D02*
X39425714Y-107178628D01*
X40378095Y-106750057D02*
X40425714Y-106702438D01*
X40425714Y-106702438D02*
X40520952Y-106654819D01*
X40520952Y-106654819D02*
X40759047Y-106654819D01*
X40759047Y-106654819D02*
X40854285Y-106702438D01*
X40854285Y-106702438D02*
X40901904Y-106750057D01*
X40901904Y-106750057D02*
X40949523Y-106845295D01*
X40949523Y-106845295D02*
X40949523Y-106940533D01*
X40949523Y-106940533D02*
X40901904Y-107083390D01*
X40901904Y-107083390D02*
X40330476Y-107654819D01*
X40330476Y-107654819D02*
X40949523Y-107654819D01*
X41901904Y-107654819D02*
X41330476Y-107654819D01*
X41616190Y-107654819D02*
X41616190Y-106654819D01*
X41616190Y-106654819D02*
X41520952Y-106797676D01*
X41520952Y-106797676D02*
X41425714Y-106892914D01*
X41425714Y-106892914D02*
X41330476Y-106940533D01*
X72336819Y-46247857D02*
X71860628Y-46581190D01*
X72336819Y-46819285D02*
X71336819Y-46819285D01*
X71336819Y-46819285D02*
X71336819Y-46438333D01*
X71336819Y-46438333D02*
X71384438Y-46343095D01*
X71384438Y-46343095D02*
X71432057Y-46295476D01*
X71432057Y-46295476D02*
X71527295Y-46247857D01*
X71527295Y-46247857D02*
X71670152Y-46247857D01*
X71670152Y-46247857D02*
X71765390Y-46295476D01*
X71765390Y-46295476D02*
X71813009Y-46343095D01*
X71813009Y-46343095D02*
X71860628Y-46438333D01*
X71860628Y-46438333D02*
X71860628Y-46819285D01*
X72336819Y-45295476D02*
X72336819Y-45866904D01*
X72336819Y-45581190D02*
X71336819Y-45581190D01*
X71336819Y-45581190D02*
X71479676Y-45676428D01*
X71479676Y-45676428D02*
X71574914Y-45771666D01*
X71574914Y-45771666D02*
X71622533Y-45866904D01*
X72336819Y-44343095D02*
X72336819Y-44914523D01*
X72336819Y-44628809D02*
X71336819Y-44628809D01*
X71336819Y-44628809D02*
X71479676Y-44724047D01*
X71479676Y-44724047D02*
X71574914Y-44819285D01*
X71574914Y-44819285D02*
X71622533Y-44914523D01*
X57604819Y-28340857D02*
X57128628Y-28674190D01*
X57604819Y-28912285D02*
X56604819Y-28912285D01*
X56604819Y-28912285D02*
X56604819Y-28531333D01*
X56604819Y-28531333D02*
X56652438Y-28436095D01*
X56652438Y-28436095D02*
X56700057Y-28388476D01*
X56700057Y-28388476D02*
X56795295Y-28340857D01*
X56795295Y-28340857D02*
X56938152Y-28340857D01*
X56938152Y-28340857D02*
X57033390Y-28388476D01*
X57033390Y-28388476D02*
X57081009Y-28436095D01*
X57081009Y-28436095D02*
X57128628Y-28531333D01*
X57128628Y-28531333D02*
X57128628Y-28912285D01*
X56700057Y-27959904D02*
X56652438Y-27912285D01*
X56652438Y-27912285D02*
X56604819Y-27817047D01*
X56604819Y-27817047D02*
X56604819Y-27578952D01*
X56604819Y-27578952D02*
X56652438Y-27483714D01*
X56652438Y-27483714D02*
X56700057Y-27436095D01*
X56700057Y-27436095D02*
X56795295Y-27388476D01*
X56795295Y-27388476D02*
X56890533Y-27388476D01*
X56890533Y-27388476D02*
X57033390Y-27436095D01*
X57033390Y-27436095D02*
X57604819Y-28007523D01*
X57604819Y-28007523D02*
X57604819Y-27388476D01*
X56938152Y-26531333D02*
X57604819Y-26531333D01*
X56557200Y-26769428D02*
X57271485Y-27007523D01*
X57271485Y-27007523D02*
X57271485Y-26388476D01*
X60652819Y-97047857D02*
X60176628Y-97381190D01*
X60652819Y-97619285D02*
X59652819Y-97619285D01*
X59652819Y-97619285D02*
X59652819Y-97238333D01*
X59652819Y-97238333D02*
X59700438Y-97143095D01*
X59700438Y-97143095D02*
X59748057Y-97095476D01*
X59748057Y-97095476D02*
X59843295Y-97047857D01*
X59843295Y-97047857D02*
X59986152Y-97047857D01*
X59986152Y-97047857D02*
X60081390Y-97095476D01*
X60081390Y-97095476D02*
X60129009Y-97143095D01*
X60129009Y-97143095D02*
X60176628Y-97238333D01*
X60176628Y-97238333D02*
X60176628Y-97619285D01*
X60652819Y-96095476D02*
X60652819Y-96666904D01*
X60652819Y-96381190D02*
X59652819Y-96381190D01*
X59652819Y-96381190D02*
X59795676Y-96476428D01*
X59795676Y-96476428D02*
X59890914Y-96571666D01*
X59890914Y-96571666D02*
X59938533Y-96666904D01*
X59652819Y-95762142D02*
X59652819Y-95095476D01*
X59652819Y-95095476D02*
X60652819Y-95524047D01*
X68526819Y-64916857D02*
X68050628Y-65250190D01*
X68526819Y-65488285D02*
X67526819Y-65488285D01*
X67526819Y-65488285D02*
X67526819Y-65107333D01*
X67526819Y-65107333D02*
X67574438Y-65012095D01*
X67574438Y-65012095D02*
X67622057Y-64964476D01*
X67622057Y-64964476D02*
X67717295Y-64916857D01*
X67717295Y-64916857D02*
X67860152Y-64916857D01*
X67860152Y-64916857D02*
X67955390Y-64964476D01*
X67955390Y-64964476D02*
X68003009Y-65012095D01*
X68003009Y-65012095D02*
X68050628Y-65107333D01*
X68050628Y-65107333D02*
X68050628Y-65488285D01*
X68526819Y-63964476D02*
X68526819Y-64535904D01*
X68526819Y-64250190D02*
X67526819Y-64250190D01*
X67526819Y-64250190D02*
X67669676Y-64345428D01*
X67669676Y-64345428D02*
X67764914Y-64440666D01*
X67764914Y-64440666D02*
X67812533Y-64535904D01*
X67955390Y-63393047D02*
X67907771Y-63488285D01*
X67907771Y-63488285D02*
X67860152Y-63535904D01*
X67860152Y-63535904D02*
X67764914Y-63583523D01*
X67764914Y-63583523D02*
X67717295Y-63583523D01*
X67717295Y-63583523D02*
X67622057Y-63535904D01*
X67622057Y-63535904D02*
X67574438Y-63488285D01*
X67574438Y-63488285D02*
X67526819Y-63393047D01*
X67526819Y-63393047D02*
X67526819Y-63202571D01*
X67526819Y-63202571D02*
X67574438Y-63107333D01*
X67574438Y-63107333D02*
X67622057Y-63059714D01*
X67622057Y-63059714D02*
X67717295Y-63012095D01*
X67717295Y-63012095D02*
X67764914Y-63012095D01*
X67764914Y-63012095D02*
X67860152Y-63059714D01*
X67860152Y-63059714D02*
X67907771Y-63107333D01*
X67907771Y-63107333D02*
X67955390Y-63202571D01*
X67955390Y-63202571D02*
X67955390Y-63393047D01*
X67955390Y-63393047D02*
X68003009Y-63488285D01*
X68003009Y-63488285D02*
X68050628Y-63535904D01*
X68050628Y-63535904D02*
X68145866Y-63583523D01*
X68145866Y-63583523D02*
X68336342Y-63583523D01*
X68336342Y-63583523D02*
X68431580Y-63535904D01*
X68431580Y-63535904D02*
X68479200Y-63488285D01*
X68479200Y-63488285D02*
X68526819Y-63393047D01*
X68526819Y-63393047D02*
X68526819Y-63202571D01*
X68526819Y-63202571D02*
X68479200Y-63107333D01*
X68479200Y-63107333D02*
X68431580Y-63059714D01*
X68431580Y-63059714D02*
X68336342Y-63012095D01*
X68336342Y-63012095D02*
X68145866Y-63012095D01*
X68145866Y-63012095D02*
X68050628Y-63059714D01*
X68050628Y-63059714D02*
X68003009Y-63107333D01*
X68003009Y-63107333D02*
X67955390Y-63202571D01*
X48206639Y-172126325D02*
X47873306Y-171650134D01*
X47635211Y-172126325D02*
X47635211Y-171126325D01*
X47635211Y-171126325D02*
X48016163Y-171126325D01*
X48016163Y-171126325D02*
X48111401Y-171173944D01*
X48111401Y-171173944D02*
X48159020Y-171221563D01*
X48159020Y-171221563D02*
X48206639Y-171316801D01*
X48206639Y-171316801D02*
X48206639Y-171459658D01*
X48206639Y-171459658D02*
X48159020Y-171554896D01*
X48159020Y-171554896D02*
X48111401Y-171602515D01*
X48111401Y-171602515D02*
X48016163Y-171650134D01*
X48016163Y-171650134D02*
X47635211Y-171650134D01*
X48539973Y-171126325D02*
X49159020Y-171126325D01*
X49159020Y-171126325D02*
X48825687Y-171507277D01*
X48825687Y-171507277D02*
X48968544Y-171507277D01*
X48968544Y-171507277D02*
X49063782Y-171554896D01*
X49063782Y-171554896D02*
X49111401Y-171602515D01*
X49111401Y-171602515D02*
X49159020Y-171697753D01*
X49159020Y-171697753D02*
X49159020Y-171935848D01*
X49159020Y-171935848D02*
X49111401Y-172031086D01*
X49111401Y-172031086D02*
X49063782Y-172078706D01*
X49063782Y-172078706D02*
X48968544Y-172126325D01*
X48968544Y-172126325D02*
X48682830Y-172126325D01*
X48682830Y-172126325D02*
X48587592Y-172078706D01*
X48587592Y-172078706D02*
X48539973Y-172031086D01*
X63550809Y-161338485D02*
X63474619Y-161300390D01*
X63474619Y-161300390D02*
X63398428Y-161224200D01*
X63398428Y-161224200D02*
X63284142Y-161109914D01*
X63284142Y-161109914D02*
X63207952Y-161071819D01*
X63207952Y-161071819D02*
X63131761Y-161071819D01*
X63169857Y-161262295D02*
X63093666Y-161224200D01*
X63093666Y-161224200D02*
X63017476Y-161148009D01*
X63017476Y-161148009D02*
X62979380Y-160995628D01*
X62979380Y-160995628D02*
X62979380Y-160728961D01*
X62979380Y-160728961D02*
X63017476Y-160576580D01*
X63017476Y-160576580D02*
X63093666Y-160500390D01*
X63093666Y-160500390D02*
X63169857Y-160462295D01*
X63169857Y-160462295D02*
X63322238Y-160462295D01*
X63322238Y-160462295D02*
X63398428Y-160500390D01*
X63398428Y-160500390D02*
X63474619Y-160576580D01*
X63474619Y-160576580D02*
X63512714Y-160728961D01*
X63512714Y-160728961D02*
X63512714Y-160995628D01*
X63512714Y-160995628D02*
X63474619Y-161148009D01*
X63474619Y-161148009D02*
X63398428Y-161224200D01*
X63398428Y-161224200D02*
X63322238Y-161262295D01*
X63322238Y-161262295D02*
X63169857Y-161262295D01*
X63779380Y-160462295D02*
X64274618Y-160462295D01*
X64274618Y-160462295D02*
X64007952Y-160767057D01*
X64007952Y-160767057D02*
X64122237Y-160767057D01*
X64122237Y-160767057D02*
X64198428Y-160805152D01*
X64198428Y-160805152D02*
X64236523Y-160843247D01*
X64236523Y-160843247D02*
X64274618Y-160919438D01*
X64274618Y-160919438D02*
X64274618Y-161109914D01*
X64274618Y-161109914D02*
X64236523Y-161186104D01*
X64236523Y-161186104D02*
X64198428Y-161224200D01*
X64198428Y-161224200D02*
X64122237Y-161262295D01*
X64122237Y-161262295D02*
X63893666Y-161262295D01*
X63893666Y-161262295D02*
X63817475Y-161224200D01*
X63817475Y-161224200D02*
X63779380Y-161186104D01*
X39997142Y-137245819D02*
X39663809Y-136769628D01*
X39425714Y-137245819D02*
X39425714Y-136245819D01*
X39425714Y-136245819D02*
X39806666Y-136245819D01*
X39806666Y-136245819D02*
X39901904Y-136293438D01*
X39901904Y-136293438D02*
X39949523Y-136341057D01*
X39949523Y-136341057D02*
X39997142Y-136436295D01*
X39997142Y-136436295D02*
X39997142Y-136579152D01*
X39997142Y-136579152D02*
X39949523Y-136674390D01*
X39949523Y-136674390D02*
X39901904Y-136722009D01*
X39901904Y-136722009D02*
X39806666Y-136769628D01*
X39806666Y-136769628D02*
X39425714Y-136769628D01*
X40949523Y-137245819D02*
X40378095Y-137245819D01*
X40663809Y-137245819D02*
X40663809Y-136245819D01*
X40663809Y-136245819D02*
X40568571Y-136388676D01*
X40568571Y-136388676D02*
X40473333Y-136483914D01*
X40473333Y-136483914D02*
X40378095Y-136531533D01*
X41425714Y-137245819D02*
X41616190Y-137245819D01*
X41616190Y-137245819D02*
X41711428Y-137198200D01*
X41711428Y-137198200D02*
X41759047Y-137150580D01*
X41759047Y-137150580D02*
X41854285Y-137007723D01*
X41854285Y-137007723D02*
X41901904Y-136817247D01*
X41901904Y-136817247D02*
X41901904Y-136436295D01*
X41901904Y-136436295D02*
X41854285Y-136341057D01*
X41854285Y-136341057D02*
X41806666Y-136293438D01*
X41806666Y-136293438D02*
X41711428Y-136245819D01*
X41711428Y-136245819D02*
X41520952Y-136245819D01*
X41520952Y-136245819D02*
X41425714Y-136293438D01*
X41425714Y-136293438D02*
X41378095Y-136341057D01*
X41378095Y-136341057D02*
X41330476Y-136436295D01*
X41330476Y-136436295D02*
X41330476Y-136674390D01*
X41330476Y-136674390D02*
X41378095Y-136769628D01*
X41378095Y-136769628D02*
X41425714Y-136817247D01*
X41425714Y-136817247D02*
X41520952Y-136864866D01*
X41520952Y-136864866D02*
X41711428Y-136864866D01*
X41711428Y-136864866D02*
X41806666Y-136817247D01*
X41806666Y-136817247D02*
X41854285Y-136769628D01*
X41854285Y-136769628D02*
X41901904Y-136674390D01*
X29664819Y-67044094D02*
X28664819Y-67044094D01*
X28664819Y-67044094D02*
X28664819Y-66805999D01*
X28664819Y-66805999D02*
X28712438Y-66663142D01*
X28712438Y-66663142D02*
X28807676Y-66567904D01*
X28807676Y-66567904D02*
X28902914Y-66520285D01*
X28902914Y-66520285D02*
X29093390Y-66472666D01*
X29093390Y-66472666D02*
X29236247Y-66472666D01*
X29236247Y-66472666D02*
X29426723Y-66520285D01*
X29426723Y-66520285D02*
X29521961Y-66567904D01*
X29521961Y-66567904D02*
X29617200Y-66663142D01*
X29617200Y-66663142D02*
X29664819Y-66805999D01*
X29664819Y-66805999D02*
X29664819Y-67044094D01*
X28998152Y-65615523D02*
X29664819Y-65615523D01*
X28617200Y-65853618D02*
X29331485Y-66091713D01*
X29331485Y-66091713D02*
X29331485Y-65472666D01*
X66043809Y-116274485D02*
X65967619Y-116236390D01*
X65967619Y-116236390D02*
X65891428Y-116160200D01*
X65891428Y-116160200D02*
X65777142Y-116045914D01*
X65777142Y-116045914D02*
X65700952Y-116007819D01*
X65700952Y-116007819D02*
X65624761Y-116007819D01*
X65662857Y-116198295D02*
X65586666Y-116160200D01*
X65586666Y-116160200D02*
X65510476Y-116084009D01*
X65510476Y-116084009D02*
X65472380Y-115931628D01*
X65472380Y-115931628D02*
X65472380Y-115664961D01*
X65472380Y-115664961D02*
X65510476Y-115512580D01*
X65510476Y-115512580D02*
X65586666Y-115436390D01*
X65586666Y-115436390D02*
X65662857Y-115398295D01*
X65662857Y-115398295D02*
X65815238Y-115398295D01*
X65815238Y-115398295D02*
X65891428Y-115436390D01*
X65891428Y-115436390D02*
X65967619Y-115512580D01*
X65967619Y-115512580D02*
X66005714Y-115664961D01*
X66005714Y-115664961D02*
X66005714Y-115931628D01*
X66005714Y-115931628D02*
X65967619Y-116084009D01*
X65967619Y-116084009D02*
X65891428Y-116160200D01*
X65891428Y-116160200D02*
X65815238Y-116198295D01*
X65815238Y-116198295D02*
X65662857Y-116198295D01*
X66691428Y-115664961D02*
X66691428Y-116198295D01*
X66500952Y-115360200D02*
X66310475Y-115931628D01*
X66310475Y-115931628D02*
X66805714Y-115931628D01*
X40713639Y-175153325D02*
X40380306Y-174677134D01*
X40142211Y-175153325D02*
X40142211Y-174153325D01*
X40142211Y-174153325D02*
X40523163Y-174153325D01*
X40523163Y-174153325D02*
X40618401Y-174200944D01*
X40618401Y-174200944D02*
X40666020Y-174248563D01*
X40666020Y-174248563D02*
X40713639Y-174343801D01*
X40713639Y-174343801D02*
X40713639Y-174486658D01*
X40713639Y-174486658D02*
X40666020Y-174581896D01*
X40666020Y-174581896D02*
X40618401Y-174629515D01*
X40618401Y-174629515D02*
X40523163Y-174677134D01*
X40523163Y-174677134D02*
X40142211Y-174677134D01*
X41666020Y-175153325D02*
X41094592Y-175153325D01*
X41380306Y-175153325D02*
X41380306Y-174153325D01*
X41380306Y-174153325D02*
X41285068Y-174296182D01*
X41285068Y-174296182D02*
X41189830Y-174391420D01*
X41189830Y-174391420D02*
X41094592Y-174439039D01*
X69636333Y-149183819D02*
X69303000Y-148707628D01*
X69064905Y-149183819D02*
X69064905Y-148183819D01*
X69064905Y-148183819D02*
X69445857Y-148183819D01*
X69445857Y-148183819D02*
X69541095Y-148231438D01*
X69541095Y-148231438D02*
X69588714Y-148279057D01*
X69588714Y-148279057D02*
X69636333Y-148374295D01*
X69636333Y-148374295D02*
X69636333Y-148517152D01*
X69636333Y-148517152D02*
X69588714Y-148612390D01*
X69588714Y-148612390D02*
X69541095Y-148660009D01*
X69541095Y-148660009D02*
X69445857Y-148707628D01*
X69445857Y-148707628D02*
X69064905Y-148707628D01*
X69969667Y-148183819D02*
X70636333Y-148183819D01*
X70636333Y-148183819D02*
X70207762Y-149183819D01*
X60652819Y-107207857D02*
X60176628Y-107541190D01*
X60652819Y-107779285D02*
X59652819Y-107779285D01*
X59652819Y-107779285D02*
X59652819Y-107398333D01*
X59652819Y-107398333D02*
X59700438Y-107303095D01*
X59700438Y-107303095D02*
X59748057Y-107255476D01*
X59748057Y-107255476D02*
X59843295Y-107207857D01*
X59843295Y-107207857D02*
X59986152Y-107207857D01*
X59986152Y-107207857D02*
X60081390Y-107255476D01*
X60081390Y-107255476D02*
X60129009Y-107303095D01*
X60129009Y-107303095D02*
X60176628Y-107398333D01*
X60176628Y-107398333D02*
X60176628Y-107779285D01*
X60652819Y-106255476D02*
X60652819Y-106826904D01*
X60652819Y-106541190D02*
X59652819Y-106541190D01*
X59652819Y-106541190D02*
X59795676Y-106636428D01*
X59795676Y-106636428D02*
X59890914Y-106731666D01*
X59890914Y-106731666D02*
X59938533Y-106826904D01*
X59652819Y-105350714D02*
X59652819Y-105826904D01*
X59652819Y-105826904D02*
X60129009Y-105874523D01*
X60129009Y-105874523D02*
X60081390Y-105826904D01*
X60081390Y-105826904D02*
X60033771Y-105731666D01*
X60033771Y-105731666D02*
X60033771Y-105493571D01*
X60033771Y-105493571D02*
X60081390Y-105398333D01*
X60081390Y-105398333D02*
X60129009Y-105350714D01*
X60129009Y-105350714D02*
X60224247Y-105303095D01*
X60224247Y-105303095D02*
X60462342Y-105303095D01*
X60462342Y-105303095D02*
X60557580Y-105350714D01*
X60557580Y-105350714D02*
X60605200Y-105398333D01*
X60605200Y-105398333D02*
X60652819Y-105493571D01*
X60652819Y-105493571D02*
X60652819Y-105731666D01*
X60652819Y-105731666D02*
X60605200Y-105826904D01*
X60605200Y-105826904D02*
X60557580Y-105874523D01*
X53667639Y-175153325D02*
X53334306Y-174677134D01*
X53096211Y-175153325D02*
X53096211Y-174153325D01*
X53096211Y-174153325D02*
X53477163Y-174153325D01*
X53477163Y-174153325D02*
X53572401Y-174200944D01*
X53572401Y-174200944D02*
X53620020Y-174248563D01*
X53620020Y-174248563D02*
X53667639Y-174343801D01*
X53667639Y-174343801D02*
X53667639Y-174486658D01*
X53667639Y-174486658D02*
X53620020Y-174581896D01*
X53620020Y-174581896D02*
X53572401Y-174629515D01*
X53572401Y-174629515D02*
X53477163Y-174677134D01*
X53477163Y-174677134D02*
X53096211Y-174677134D01*
X54048592Y-174248563D02*
X54096211Y-174200944D01*
X54096211Y-174200944D02*
X54191449Y-174153325D01*
X54191449Y-174153325D02*
X54429544Y-174153325D01*
X54429544Y-174153325D02*
X54524782Y-174200944D01*
X54524782Y-174200944D02*
X54572401Y-174248563D01*
X54572401Y-174248563D02*
X54620020Y-174343801D01*
X54620020Y-174343801D02*
X54620020Y-174439039D01*
X54620020Y-174439039D02*
X54572401Y-174581896D01*
X54572401Y-174581896D02*
X54000973Y-175153325D01*
X54000973Y-175153325D02*
X54620020Y-175153325D01*
X39997142Y-47964819D02*
X39663809Y-47488628D01*
X39425714Y-47964819D02*
X39425714Y-46964819D01*
X39425714Y-46964819D02*
X39806666Y-46964819D01*
X39806666Y-46964819D02*
X39901904Y-47012438D01*
X39901904Y-47012438D02*
X39949523Y-47060057D01*
X39949523Y-47060057D02*
X39997142Y-47155295D01*
X39997142Y-47155295D02*
X39997142Y-47298152D01*
X39997142Y-47298152D02*
X39949523Y-47393390D01*
X39949523Y-47393390D02*
X39901904Y-47441009D01*
X39901904Y-47441009D02*
X39806666Y-47488628D01*
X39806666Y-47488628D02*
X39425714Y-47488628D01*
X40378095Y-47060057D02*
X40425714Y-47012438D01*
X40425714Y-47012438D02*
X40520952Y-46964819D01*
X40520952Y-46964819D02*
X40759047Y-46964819D01*
X40759047Y-46964819D02*
X40854285Y-47012438D01*
X40854285Y-47012438D02*
X40901904Y-47060057D01*
X40901904Y-47060057D02*
X40949523Y-47155295D01*
X40949523Y-47155295D02*
X40949523Y-47250533D01*
X40949523Y-47250533D02*
X40901904Y-47393390D01*
X40901904Y-47393390D02*
X40330476Y-47964819D01*
X40330476Y-47964819D02*
X40949523Y-47964819D01*
X41568571Y-46964819D02*
X41663809Y-46964819D01*
X41663809Y-46964819D02*
X41759047Y-47012438D01*
X41759047Y-47012438D02*
X41806666Y-47060057D01*
X41806666Y-47060057D02*
X41854285Y-47155295D01*
X41854285Y-47155295D02*
X41901904Y-47345771D01*
X41901904Y-47345771D02*
X41901904Y-47583866D01*
X41901904Y-47583866D02*
X41854285Y-47774342D01*
X41854285Y-47774342D02*
X41806666Y-47869580D01*
X41806666Y-47869580D02*
X41759047Y-47917200D01*
X41759047Y-47917200D02*
X41663809Y-47964819D01*
X41663809Y-47964819D02*
X41568571Y-47964819D01*
X41568571Y-47964819D02*
X41473333Y-47917200D01*
X41473333Y-47917200D02*
X41425714Y-47869580D01*
X41425714Y-47869580D02*
X41378095Y-47774342D01*
X41378095Y-47774342D02*
X41330476Y-47583866D01*
X41330476Y-47583866D02*
X41330476Y-47345771D01*
X41330476Y-47345771D02*
X41378095Y-47155295D01*
X41378095Y-47155295D02*
X41425714Y-47060057D01*
X41425714Y-47060057D02*
X41473333Y-47012438D01*
X41473333Y-47012438D02*
X41568571Y-46964819D01*
X49567115Y-169209991D02*
X49490925Y-169171896D01*
X49490925Y-169171896D02*
X49414734Y-169095706D01*
X49414734Y-169095706D02*
X49300448Y-168981420D01*
X49300448Y-168981420D02*
X49224258Y-168943325D01*
X49224258Y-168943325D02*
X49148067Y-168943325D01*
X49186163Y-169133801D02*
X49109972Y-169095706D01*
X49109972Y-169095706D02*
X49033782Y-169019515D01*
X49033782Y-169019515D02*
X48995686Y-168867134D01*
X48995686Y-168867134D02*
X48995686Y-168600467D01*
X48995686Y-168600467D02*
X49033782Y-168448086D01*
X49033782Y-168448086D02*
X49109972Y-168371896D01*
X49109972Y-168371896D02*
X49186163Y-168333801D01*
X49186163Y-168333801D02*
X49338544Y-168333801D01*
X49338544Y-168333801D02*
X49414734Y-168371896D01*
X49414734Y-168371896D02*
X49490925Y-168448086D01*
X49490925Y-168448086D02*
X49529020Y-168600467D01*
X49529020Y-168600467D02*
X49529020Y-168867134D01*
X49529020Y-168867134D02*
X49490925Y-169019515D01*
X49490925Y-169019515D02*
X49414734Y-169095706D01*
X49414734Y-169095706D02*
X49338544Y-169133801D01*
X49338544Y-169133801D02*
X49186163Y-169133801D01*
X50290924Y-169133801D02*
X49833781Y-169133801D01*
X50062353Y-169133801D02*
X50062353Y-168333801D01*
X50062353Y-168333801D02*
X49986162Y-168448086D01*
X49986162Y-168448086D02*
X49909972Y-168524277D01*
X49909972Y-168524277D02*
X49833781Y-168562372D01*
X57509580Y-36884478D02*
X57557200Y-36932097D01*
X57557200Y-36932097D02*
X57604819Y-37074954D01*
X57604819Y-37074954D02*
X57604819Y-37170192D01*
X57604819Y-37170192D02*
X57557200Y-37313049D01*
X57557200Y-37313049D02*
X57461961Y-37408287D01*
X57461961Y-37408287D02*
X57366723Y-37455906D01*
X57366723Y-37455906D02*
X57176247Y-37503525D01*
X57176247Y-37503525D02*
X57033390Y-37503525D01*
X57033390Y-37503525D02*
X56842914Y-37455906D01*
X56842914Y-37455906D02*
X56747676Y-37408287D01*
X56747676Y-37408287D02*
X56652438Y-37313049D01*
X56652438Y-37313049D02*
X56604819Y-37170192D01*
X56604819Y-37170192D02*
X56604819Y-37074954D01*
X56604819Y-37074954D02*
X56652438Y-36932097D01*
X56652438Y-36932097D02*
X56700057Y-36884478D01*
X56604819Y-36551144D02*
X56604819Y-35932097D01*
X56604819Y-35932097D02*
X56985771Y-36265430D01*
X56985771Y-36265430D02*
X56985771Y-36122573D01*
X56985771Y-36122573D02*
X57033390Y-36027335D01*
X57033390Y-36027335D02*
X57081009Y-35979716D01*
X57081009Y-35979716D02*
X57176247Y-35932097D01*
X57176247Y-35932097D02*
X57414342Y-35932097D01*
X57414342Y-35932097D02*
X57509580Y-35979716D01*
X57509580Y-35979716D02*
X57557200Y-36027335D01*
X57557200Y-36027335D02*
X57604819Y-36122573D01*
X57604819Y-36122573D02*
X57604819Y-36408287D01*
X57604819Y-36408287D02*
X57557200Y-36503525D01*
X57557200Y-36503525D02*
X57509580Y-36551144D01*
X61525485Y-64985190D02*
X61487390Y-65061380D01*
X61487390Y-65061380D02*
X61411200Y-65137571D01*
X61411200Y-65137571D02*
X61296914Y-65251857D01*
X61296914Y-65251857D02*
X61258819Y-65328047D01*
X61258819Y-65328047D02*
X61258819Y-65404238D01*
X61449295Y-65366142D02*
X61411200Y-65442333D01*
X61411200Y-65442333D02*
X61335009Y-65518523D01*
X61335009Y-65518523D02*
X61182628Y-65556619D01*
X61182628Y-65556619D02*
X60915961Y-65556619D01*
X60915961Y-65556619D02*
X60763580Y-65518523D01*
X60763580Y-65518523D02*
X60687390Y-65442333D01*
X60687390Y-65442333D02*
X60649295Y-65366142D01*
X60649295Y-65366142D02*
X60649295Y-65213761D01*
X60649295Y-65213761D02*
X60687390Y-65137571D01*
X60687390Y-65137571D02*
X60763580Y-65061380D01*
X60763580Y-65061380D02*
X60915961Y-65023285D01*
X60915961Y-65023285D02*
X61182628Y-65023285D01*
X61182628Y-65023285D02*
X61335009Y-65061380D01*
X61335009Y-65061380D02*
X61411200Y-65137571D01*
X61411200Y-65137571D02*
X61449295Y-65213761D01*
X61449295Y-65213761D02*
X61449295Y-65366142D01*
X60649295Y-64756619D02*
X60649295Y-64223285D01*
X60649295Y-64223285D02*
X61449295Y-64566143D01*
D11*
%TO.C,D1*%
X67460000Y-93523000D02*
X67460000Y-97763000D01*
X67460000Y-96923000D02*
X69700000Y-96923000D01*
X67460000Y-97043000D02*
X69700000Y-97043000D01*
X67460000Y-97163000D02*
X69700000Y-97163000D01*
X67460000Y-97763000D02*
X69700000Y-97763000D01*
X68580000Y-92873000D02*
X68580000Y-93523000D01*
X68580000Y-98413000D02*
X68580000Y-97763000D01*
X69700000Y-93523000D02*
X67460000Y-93523000D01*
X69700000Y-97763000D02*
X69700000Y-93523000D01*
%TO.C,D2*%
X28090000Y-125400000D02*
X28090000Y-129640000D01*
X28090000Y-128800000D02*
X30330000Y-128800000D01*
X28090000Y-128920000D02*
X30330000Y-128920000D01*
X28090000Y-129040000D02*
X30330000Y-129040000D01*
X28090000Y-129640000D02*
X30330000Y-129640000D01*
X29210000Y-123480000D02*
X29210000Y-125400000D01*
X29210000Y-131560000D02*
X29210000Y-129640000D01*
X30330000Y-125400000D02*
X28090000Y-125400000D01*
X30330000Y-129640000D02*
X30330000Y-125400000D01*
%TO.C,R13*%
X59182000Y-119995000D02*
X59182000Y-113455000D01*
X61214000Y-119995000D02*
X61214000Y-113455000D01*
%TO.C,R16*%
X64770000Y-92373000D02*
X64770000Y-98913000D01*
X66802000Y-92373000D02*
X66802000Y-98913000D01*
D12*
%TO.C,R4*%
X46338806Y-156283506D02*
X45322806Y-156283506D01*
X46338806Y-158315506D02*
X45322806Y-158315506D01*
D11*
%TO.C,R9*%
X54342306Y-158601506D02*
X54342306Y-165141506D01*
X54342306Y-165141506D02*
X56374306Y-165141506D01*
X55358306Y-157831506D02*
X55358306Y-158601506D01*
X55358306Y-165911506D02*
X55358306Y-165141506D01*
X56374306Y-158601506D02*
X54342306Y-158601506D01*
X56374306Y-165141506D02*
X56374306Y-158601506D01*
%TO.C,RV2*%
X60610000Y-144137000D02*
X60610000Y-139087000D01*
X70360000Y-139087000D02*
X60610000Y-139087000D01*
X70360000Y-144137000D02*
X60610000Y-144137000D01*
X70360000Y-144137000D02*
X70360000Y-139087000D01*
%TO.C,Q2*%
X47843306Y-164102506D02*
X51443306Y-164102506D01*
X47286906Y-161153699D02*
G75*
G02*
X49643306Y-159652506I2356402J-1098809D01*
G01*
X47843306Y-164102506D02*
G75*
G02*
X47319122Y-163375301I1799991J1849994D01*
G01*
X49643306Y-159652506D02*
G75*
G02*
X51999706Y-161153699I0J-2600000D01*
G01*
X51967490Y-163375301D02*
G75*
G02*
X51443306Y-164102506I-2324184J1122795D01*
G01*
%TO.C,R8*%
X59897000Y-148507000D02*
X59897000Y-155047000D01*
X59897000Y-155047000D02*
X61929000Y-155047000D01*
X60913000Y-147737000D02*
X60913000Y-148507000D01*
X60913000Y-155817000D02*
X60913000Y-155047000D01*
X61929000Y-148507000D02*
X59897000Y-148507000D01*
X61929000Y-155047000D02*
X61929000Y-148507000D01*
%TO.C,C2*%
X61404000Y-54849000D02*
X61404000Y-52109000D01*
X68644000Y-52109000D02*
X61404000Y-52109000D01*
X68644000Y-54849000D02*
X61404000Y-54849000D01*
X68644000Y-54849000D02*
X68644000Y-52109000D01*
%TO.C,Q6*%
X63986000Y-89217000D02*
X67586000Y-89217000D01*
X63429600Y-86268193D02*
G75*
G02*
X65786000Y-84767000I2356402J-1098809D01*
G01*
X63986000Y-89217000D02*
G75*
G02*
X63461816Y-88489795I1799991J1849994D01*
G01*
X65786000Y-84767000D02*
G75*
G02*
X68142400Y-86268193I0J-2600000D01*
G01*
X68110184Y-88489795D02*
G75*
G02*
X67586000Y-89217000I-2324184J1122795D01*
G01*
%TO.C,R22*%
X36600000Y-76720000D02*
X37370000Y-76720000D01*
X37370000Y-75704000D02*
X37370000Y-77736000D01*
X37370000Y-77736000D02*
X43910000Y-77736000D01*
X43910000Y-75704000D02*
X37370000Y-75704000D01*
X43910000Y-77736000D02*
X43910000Y-75704000D01*
X44680000Y-76720000D02*
X43910000Y-76720000D01*
%TO.C,Q5*%
X64240000Y-109304000D02*
X67840000Y-109304000D01*
X63683600Y-106355193D02*
G75*
G02*
X66040000Y-104854000I2356402J-1098809D01*
G01*
X64240000Y-109304000D02*
G75*
G02*
X63715816Y-108576795I1799991J1849994D01*
G01*
X66040000Y-104854000D02*
G75*
G02*
X68396400Y-106355193I0J-2600000D01*
G01*
X68364184Y-108576795D02*
G75*
G02*
X67840000Y-109304000I-2324184J1122795D01*
G01*
%TO.C,R10*%
X49135306Y-148949506D02*
X49135306Y-155489506D01*
X49135306Y-155489506D02*
X51167306Y-155489506D01*
X50151306Y-148179506D02*
X50151306Y-148949506D01*
X50151306Y-156259506D02*
X50151306Y-155489506D01*
X51167306Y-148949506D02*
X49135306Y-148949506D01*
X51167306Y-155489506D02*
X51167306Y-148949506D01*
%TO.C,J1*%
X35226000Y-184814000D02*
X62546000Y-184814000D01*
X35226000Y-192854000D02*
X35226000Y-184814000D01*
X36034000Y-188234000D02*
X35226000Y-188234000D01*
X36034000Y-189234000D02*
X35226000Y-189234000D01*
X37303000Y-186934000D02*
X35226000Y-186934000D01*
X41034000Y-188234000D02*
X39658000Y-188234000D01*
X41034000Y-189234000D02*
X39658000Y-189234000D01*
X42303000Y-186934000D02*
X38389000Y-186934000D01*
X46034000Y-188234000D02*
X44658000Y-188234000D01*
X46034000Y-189234000D02*
X44658000Y-189234000D01*
X47303000Y-186934000D02*
X43389000Y-186934000D01*
X51034000Y-188234000D02*
X49658000Y-188234000D01*
X51034000Y-189234000D02*
X49658000Y-189234000D01*
X52303000Y-186934000D02*
X48389000Y-186934000D01*
X56034000Y-188234000D02*
X54658000Y-188234000D01*
X56034000Y-189234000D02*
X54658000Y-189234000D01*
X57303000Y-186934000D02*
X53389000Y-186934000D01*
X60966000Y-186934000D02*
X58389000Y-186934000D01*
X60966000Y-188234000D02*
X59658000Y-188234000D01*
X60966000Y-189234000D02*
X59658000Y-189234000D01*
X63146000Y-184814000D02*
X65966000Y-184814000D01*
X65966000Y-184814000D02*
X65966000Y-192854000D01*
X65966000Y-186934000D02*
X64726000Y-186934000D01*
X65966000Y-188234000D02*
X64726000Y-188234000D01*
X65966000Y-189234000D02*
X64726000Y-189234000D01*
X65966000Y-192854000D02*
X35226000Y-192854000D01*
%TO.C,U1*%
X62520000Y-27727812D02*
X62520000Y-45627812D01*
X62520000Y-45627812D02*
X67020000Y-45627812D01*
X63770000Y-27727812D02*
X62520000Y-27727812D01*
X67020000Y-27727812D02*
X65770000Y-27727812D01*
X67020000Y-45627812D02*
X67020000Y-27727812D01*
X59520000Y-27667812D02*
X70020000Y-27667812D01*
X70020000Y-45687812D01*
X59520000Y-45687812D01*
X59520000Y-27667812D01*
X65770000Y-27727812D02*
G75*
G02*
X63770000Y-27727812I-1000000J0D01*
G01*
%TO.C,R6*%
X62635000Y-167906000D02*
X63405000Y-167906000D01*
X63405000Y-166890000D02*
X63405000Y-168922000D01*
X63405000Y-168922000D02*
X69945000Y-168922000D01*
X69945000Y-166890000D02*
X63405000Y-166890000D01*
X69945000Y-168922000D02*
X69945000Y-166890000D01*
X70715000Y-167906000D02*
X69945000Y-167906000D01*
%TO.C,R14*%
X63405000Y-111391000D02*
X69945000Y-111391000D01*
X63405000Y-113423000D02*
X69945000Y-113423000D01*
%TO.C,D3*%
X28090000Y-36500000D02*
X28090000Y-40740000D01*
X28090000Y-40740000D02*
X30330000Y-40740000D01*
X29210000Y-34580000D02*
X29210000Y-36500000D01*
X29210000Y-42660000D02*
X29210000Y-40740000D01*
X30330000Y-36500000D02*
X28090000Y-36500000D01*
X30330000Y-37100000D02*
X28090000Y-37100000D01*
X30330000Y-37220000D02*
X28090000Y-37220000D01*
X30330000Y-37340000D02*
X28090000Y-37340000D01*
X30330000Y-40740000D02*
X30330000Y-36500000D01*
%TO.C,C1*%
X62380000Y-101004000D02*
X62380000Y-103744000D01*
X62380000Y-101004000D02*
X69620000Y-101004000D01*
X62380000Y-103744000D02*
X69620000Y-103744000D01*
X69620000Y-101004000D02*
X69620000Y-103744000D01*
%TO.C,R5*%
X57174000Y-171081000D02*
X57944000Y-171081000D01*
X57944000Y-170065000D02*
X57944000Y-172097000D01*
X57944000Y-172097000D02*
X64484000Y-172097000D01*
X64484000Y-170065000D02*
X57944000Y-170065000D01*
X64484000Y-172097000D02*
X64484000Y-170065000D01*
X65254000Y-171081000D02*
X64484000Y-171081000D01*
%TO.C,U2*%
X62012000Y-70183000D02*
X62012000Y-80463000D01*
X62012000Y-80463000D02*
X63262000Y-80463000D01*
X65262000Y-80463000D02*
X66512000Y-80463000D01*
X66512000Y-70183000D02*
X62012000Y-70183000D01*
X66512000Y-80463000D02*
X66512000Y-70183000D01*
X69512000Y-80523000D02*
X59012000Y-80523000D01*
X59012000Y-70123000D01*
X69512000Y-70123000D01*
X69512000Y-80523000D01*
X63262000Y-80463000D02*
G75*
G02*
X65262000Y-80463000I1000000J0D01*
G01*
%TO.C,R12*%
X70866000Y-30778000D02*
X70866000Y-37318000D01*
X70866000Y-37318000D02*
X72898000Y-37318000D01*
X71882000Y-30008000D02*
X71882000Y-30778000D01*
X71882000Y-38088000D02*
X71882000Y-37318000D01*
X72898000Y-30778000D02*
X70866000Y-30778000D01*
X72898000Y-37318000D02*
X72898000Y-30778000D01*
%TO.C,RV1*%
X39747306Y-159155506D02*
X39747306Y-168905506D01*
X44797306Y-159155506D02*
X39747306Y-159155506D01*
X44797306Y-159155506D02*
X44797306Y-168905506D01*
X44797306Y-168905506D02*
X39747306Y-168905506D01*
%TO.C,R23*%
X56134000Y-42462000D02*
X56134000Y-49002000D01*
X58166000Y-42462000D02*
X58166000Y-49002000D01*
%TO.C,R21*%
X36600000Y-107200000D02*
X37370000Y-107200000D01*
X37370000Y-106184000D02*
X37370000Y-108216000D01*
X37370000Y-108216000D02*
X43910000Y-108216000D01*
X43910000Y-106184000D02*
X37370000Y-106184000D01*
X43910000Y-108216000D02*
X43910000Y-106184000D01*
X44680000Y-107200000D02*
X43910000Y-107200000D01*
%TO.C,R11*%
X70866000Y-48875000D02*
X70866000Y-42335000D01*
X72898000Y-48875000D02*
X72898000Y-42335000D01*
%TO.C,R24*%
X56134000Y-24428000D02*
X56134000Y-30968000D01*
X58166000Y-24428000D02*
X58166000Y-30968000D01*
%TO.C,R17*%
X59182000Y-93135000D02*
X59182000Y-99675000D01*
X61214000Y-93135000D02*
X61214000Y-99675000D01*
%TO.C,R18*%
X67056000Y-61004000D02*
X67056000Y-67544000D01*
X69088000Y-61004000D02*
X69088000Y-67544000D01*
%TO.C,R3*%
X51643306Y-170655506D02*
X45103306Y-170655506D01*
X51643306Y-172687506D02*
X45103306Y-172687506D01*
%TO.C,Q3*%
X61827000Y-164528000D02*
X65427000Y-164528000D01*
X61270600Y-161579193D02*
G75*
G02*
X63627000Y-160078000I2356402J-1098809D01*
G01*
X61827000Y-164528000D02*
G75*
G02*
X61302816Y-163800795I1799991J1849994D01*
G01*
X63627000Y-160078000D02*
G75*
G02*
X65983400Y-161579193I0J-2600000D01*
G01*
X65951184Y-163800795D02*
G75*
G02*
X65427000Y-164528000I-2324184J1122795D01*
G01*
%TO.C,R19*%
X36600000Y-136791000D02*
X37370000Y-136791000D01*
X37370000Y-135775000D02*
X37370000Y-137807000D01*
X37370000Y-137807000D02*
X43910000Y-137807000D01*
X43910000Y-135775000D02*
X37370000Y-135775000D01*
X43910000Y-137807000D02*
X43910000Y-135775000D01*
X44680000Y-136791000D02*
X43910000Y-136791000D01*
%TO.C,D4*%
X28090000Y-64440000D02*
X28090000Y-68680000D01*
X28090000Y-67840000D02*
X30330000Y-67840000D01*
X28090000Y-67960000D02*
X30330000Y-67960000D01*
X28090000Y-68080000D02*
X30330000Y-68080000D01*
X28090000Y-68680000D02*
X30330000Y-68680000D01*
X29210000Y-62520000D02*
X29210000Y-64440000D01*
X29210000Y-70600000D02*
X29210000Y-68680000D01*
X30330000Y-64440000D02*
X28090000Y-64440000D01*
X30330000Y-68680000D02*
X30330000Y-64440000D01*
%TO.C,Q4*%
X64320000Y-119464000D02*
X67920000Y-119464000D01*
X63763600Y-116515193D02*
G75*
G02*
X66120000Y-115014000I2356402J-1098809D01*
G01*
X64320000Y-119464000D02*
G75*
G02*
X63795816Y-118736795I1799991J1849994D01*
G01*
X66120000Y-115014000D02*
G75*
G02*
X68476400Y-116515193I0J-2600000D01*
G01*
X68444184Y-118736795D02*
G75*
G02*
X67920000Y-119464000I-2324184J1122795D01*
G01*
%TO.C,R1*%
X36840306Y-174698506D02*
X37610306Y-174698506D01*
X37610306Y-173682506D02*
X37610306Y-175714506D01*
X37610306Y-175714506D02*
X44150306Y-175714506D01*
X44150306Y-173682506D02*
X37610306Y-173682506D01*
X44150306Y-175714506D02*
X44150306Y-173682506D01*
X44920306Y-174698506D02*
X44150306Y-174698506D01*
%TO.C,R7*%
X65763000Y-148729000D02*
X66533000Y-148729000D01*
X66533000Y-147713000D02*
X66533000Y-149745000D01*
X66533000Y-149745000D02*
X73073000Y-149745000D01*
X73073000Y-147713000D02*
X66533000Y-147713000D01*
X73073000Y-149745000D02*
X73073000Y-147713000D01*
X73843000Y-148729000D02*
X73073000Y-148729000D01*
%TO.C,R15*%
X59182000Y-109835000D02*
X59182000Y-103295000D01*
X61214000Y-109835000D02*
X61214000Y-103295000D01*
%TO.C,R2*%
X49794306Y-174698506D02*
X50564306Y-174698506D01*
X50564306Y-173682506D02*
X50564306Y-175714506D01*
X50564306Y-175714506D02*
X57104306Y-175714506D01*
X57104306Y-173682506D02*
X50564306Y-173682506D01*
X57104306Y-175714506D02*
X57104306Y-173682506D01*
X57874306Y-174698506D02*
X57104306Y-174698506D01*
%TO.C,R20*%
X36600000Y-47510000D02*
X37370000Y-47510000D01*
X37370000Y-46494000D02*
X37370000Y-48526000D01*
X37370000Y-48526000D02*
X43910000Y-48526000D01*
X43910000Y-46494000D02*
X37370000Y-46494000D01*
X43910000Y-48526000D02*
X43910000Y-46494000D01*
X44680000Y-47510000D02*
X43910000Y-47510000D01*
%TO.C,Q1*%
X51443306Y-165143506D02*
X47843306Y-165143506D01*
X47319122Y-165870711D02*
G75*
G02*
X47843306Y-165143506I2324184J-1122795D01*
G01*
X49643306Y-169593506D02*
G75*
G02*
X47286906Y-168092313I0J2600000D01*
G01*
X51443306Y-165143506D02*
G75*
G02*
X51967490Y-165870711I-1799991J-1849994D01*
G01*
X51999706Y-168092313D02*
G75*
G02*
X49643306Y-169593506I-2356402J1098809D01*
G01*
%TO.C,C3*%
X55780000Y-33057812D02*
X55780000Y-40297812D01*
X58520000Y-33057812D02*
X55780000Y-33057812D01*
X58520000Y-33057812D02*
X58520000Y-40297812D01*
X58520000Y-40297812D02*
X55780000Y-40297812D01*
%TO.C,Q7*%
X64715000Y-66709000D02*
X64715000Y-63109000D01*
X60265000Y-64909000D02*
G75*
G02*
X61766193Y-62552600I2600000J0D01*
G01*
X61766193Y-67265400D02*
G75*
G02*
X60265000Y-64909000I1098809J2356402D01*
G01*
X63987795Y-62584816D02*
G75*
G02*
X64715000Y-63109000I-1122795J-2324184D01*
G01*
X64715000Y-66709000D02*
G75*
G02*
X63987795Y-67233184I-1849994J1799991D01*
G01*
%TD*%
M02*
