M48
; DRILL file {KiCad 9.0.6} date 2026-04-22T22:00:34-0700
; FORMAT={-:-/ absolute / metric / decimal}
; #@! TF.CreationDate,2026-04-22T22:00:34-07:00
; #@! TF.GenerationSoftware,Kicad,Pcbnew,9.0.6
; #@! TF.FileFunction,Plated,1,2,PTH
FMAT,2
METRIC
; #@! TA.AperFunction,Plated,PTH,ViaDrill
T1C0.813
; #@! TA.AperFunction,Plated,PTH,ComponentDrill
T2C0.813
; #@! TA.AperFunction,Plated,PTH,ComponentDrill
T3C1.016
; #@! TA.AperFunction,Plated,PTH,ComponentDrill
T4C1.270
; #@! TA.AperFunction,Plated,PTH,ComponentDrill
T5C1.397
; #@! TA.AperFunction,Plated,PTH,ComponentDrill
T6C2.794
; #@! TA.AperFunction,Plated,PTH,ComponentDrill
T7C3.300
; #@! TA.AperFunction,Plated,PTH,ComponentDrill
T8C7.000
%
G90
G05
T1
X37.846Y-182.384
X47.879Y-183.019
X54.61Y-39.213
X60.847Y-127.915
X60.96Y-47.637
X62.992Y-137.299
X64.77Y-25.92
X65.228Y-38.493
X71.708Y-141.617
X73.432Y-35.318
T2
X35.56Y-47.51
X35.56Y-76.72
X35.56Y-107.2
X35.56Y-136.791
X35.8Y-174.699
X42.277Y-161.491
X42.277Y-164.031
X42.277Y-166.571
X44.561Y-157.3
X44.563Y-171.672
X45.72Y-47.51
X45.72Y-76.72
X45.72Y-107.2
X45.72Y-136.791
X45.96Y-174.699
X47.101Y-157.3
X47.103Y-162.253
X47.103Y-166.994
X48.754Y-174.699
X49.643Y-162.253
X49.643Y-166.994
X50.151Y-147.14
X50.151Y-157.3
X52.183Y-162.253
X52.183Y-166.994
X52.183Y-171.672
X55.358Y-156.792
X55.358Y-166.952
X56.134Y-171.081
X57.15Y-23.888
X57.15Y-31.508
X57.15Y-34.178
X57.15Y-39.178
X57.15Y-41.922
X57.15Y-49.542
X58.914Y-174.699
X60.198Y-92.595
X60.198Y-100.215
X60.198Y-102.755
X60.198Y-110.375
X60.198Y-112.915
X60.198Y-120.535
X60.452Y-71.513
X60.452Y-74.053
X60.452Y-76.593
X60.452Y-79.133
X60.913Y-146.697
X60.913Y-156.857
X60.96Y-29.058
X60.96Y-31.598
X60.96Y-34.138
X60.96Y-36.678
X60.96Y-39.218
X60.96Y-41.758
X60.96Y-44.298
X61.087Y-162.678
X61.595Y-167.906
X62.524Y-53.479
X62.865Y-62.369
X62.865Y-64.909
X62.865Y-67.449
X62.865Y-112.407
X62.945Y-141.617
X63.246Y-87.367
X63.5Y-102.374
X63.5Y-107.454
X63.58Y-117.614
X63.627Y-162.678
X64.723Y-148.729
X65.485Y-141.617
X65.786Y-87.367
X65.786Y-91.833
X65.786Y-99.453
X66.04Y-107.454
X66.12Y-117.614
X66.167Y-162.678
X66.294Y-171.081
X67.524Y-53.479
X68.025Y-141.617
X68.072Y-60.464
X68.072Y-68.084
X68.072Y-71.513
X68.072Y-74.053
X68.072Y-76.593
X68.072Y-79.133
X68.326Y-87.367
X68.5Y-102.374
X68.58Y-29.058
X68.58Y-31.598
X68.58Y-34.138
X68.58Y-36.678
X68.58Y-39.218
X68.58Y-41.758
X68.58Y-44.298
X68.58Y-107.454
X68.66Y-117.614
X70.485Y-112.407
X71.755Y-167.906
X71.882Y-28.968
X71.882Y-39.128
X71.882Y-41.795
X71.882Y-49.415
X74.883Y-148.729
T3
X29.21Y-33.54
X29.21Y-43.7
X29.21Y-61.48
X29.21Y-71.64
X29.21Y-122.44
X29.21Y-132.6
X68.58Y-91.833
X68.58Y-99.453
T4
X35.56Y-43.7
X35.56Y-71.94
X35.56Y-102.42
X35.56Y-132.6
X40.64Y-43.7
X40.64Y-71.94
X40.64Y-102.42
X40.64Y-132.6
X45.72Y-43.7
X45.72Y-71.94
X45.72Y-102.42
X45.72Y-132.6
T5
X37.846Y-188.734
X42.846Y-188.734
X47.846Y-188.734
X52.846Y-188.734
X57.846Y-188.734
X62.846Y-188.734
T6
X48.64Y-30.7
X48.64Y-58.94
X48.64Y-89.42
X48.64Y-119.6
T7
X30.48Y-20.84
X30.48Y-188.48
X50.8Y-107.2
X71.12Y-20.84
X71.12Y-188.48
T8
X40.64Y-30.7
X40.64Y-58.94
X40.64Y-89.42
X40.64Y-119.6
M30
