%TF.GenerationSoftware,KiCad,Pcbnew,9.0.6*%
%TF.CreationDate,2026-04-22T22:00:32-07:00*%
%TF.ProjectId,modulinEnvelope,6d6f6475-6c69-46e4-956e-76656c6f7065,rev?*%
%TF.SameCoordinates,Original*%
%TF.FileFunction,Soldermask,Top*%
%TF.FilePolarity,Negative*%
%FSLAX46Y46*%
G04 Gerber Fmt 4.6, Leading zero omitted, Abs format (unit mm)*
G04 Created by KiCad (PCBNEW 9.0.6) date 2026-04-22 22:00:32*
%MOMM*%
%LPD*%
G01*
G04 APERTURE LIST*
G04 Aperture macros list*
%AMRoundRect*
0 Rectangle with rounded corners*
0 $1 Rounding radius*
0 $2 $3 $4 $5 $6 $7 $8 $9 X,Y pos of 4 corners*
0 Add a 4 corners polygon primitive as box body*
4,1,4,$2,$3,$4,$5,$6,$7,$8,$9,$2,$3,0*
0 Add four circle primitives for the rounded corners*
1,1,$1+$1,$2,$3*
1,1,$1+$1,$4,$5*
1,1,$1+$1,$6,$7*
1,1,$1+$1,$8,$9*
0 Add four rect primitives between the rounded corners*
20,1,$1+$1,$2,$3,$4,$5,0*
20,1,$1+$1,$4,$5,$6,$7,0*
20,1,$1+$1,$6,$7,$8,$9,0*
20,1,$1+$1,$8,$9,$2,$3,0*%
G04 Aperture macros list end*
%ADD10R,1.727200X1.727200*%
%ADD11C,1.727200*%
%ADD12C,1.320800*%
%ADD13O,1.727200X2.540000*%
%ADD14RoundRect,0.250000X-0.613600X-1.020000X0.613600X-1.020000X0.613600X1.020000X-0.613600X1.020000X0*%
%ADD15C,1.905000*%
%ADD16C,6.000000*%
%ADD17RoundRect,0.250000X0.613600X1.020000X-0.613600X1.020000X-0.613600X-1.020000X0.613600X-1.020000X0*%
%ADD18O,2.540000X1.727200*%
%ADD19RoundRect,0.250000X1.020000X-0.613600X1.020000X0.613600X-1.020000X0.613600X-1.020000X-0.613600X0*%
%ADD20C,1.778000*%
%ADD21C,2.286000*%
%ADD22R,2.286000X2.286000*%
%ADD23C,3.302000*%
%ADD24C,12.000000*%
%ADD25O,18.000000X12.000000*%
G04 APERTURE END LIST*
D10*
%TO.C,D1*%
X68580000Y-99453000D03*
D11*
X68580000Y-91833000D03*
%TD*%
D10*
%TO.C,D2*%
X29210000Y-132600000D03*
D11*
X29210000Y-122440000D03*
%TD*%
%TO.C,R13*%
X60198000Y-120535000D03*
X60198000Y-112915000D03*
%TD*%
%TO.C,R16*%
X65786000Y-91833000D03*
X65786000Y-99453000D03*
%TD*%
D12*
%TO.C,R4*%
X47100806Y-157299506D03*
D11*
X44560806Y-157299506D03*
%TD*%
%TO.C,R9*%
X55358306Y-156791506D03*
X55358306Y-166951506D03*
%TD*%
D12*
%TO.C,RV2*%
X62945000Y-141617000D03*
X65485000Y-141617000D03*
X68025000Y-141617000D03*
%TD*%
D13*
%TO.C,Q2*%
X47103306Y-162252506D03*
X49643306Y-162252506D03*
D14*
X52183306Y-162252506D03*
%TD*%
D11*
%TO.C,R8*%
X60913000Y-156857000D03*
X60913000Y-146697000D03*
%TD*%
D12*
%TO.C,C2*%
X67524000Y-53479000D03*
X62524000Y-53479000D03*
%TD*%
D13*
%TO.C,Q6*%
X63246000Y-87367000D03*
X65786000Y-87367000D03*
D14*
X68326000Y-87367000D03*
%TD*%
D11*
%TO.C,R22*%
X35560000Y-76720000D03*
X45720000Y-76720000D03*
%TD*%
D13*
%TO.C,Q5*%
X63500000Y-107454000D03*
X66040000Y-107454000D03*
D14*
X68580000Y-107454000D03*
%TD*%
D11*
%TO.C,R10*%
X50151306Y-147139506D03*
X50151306Y-157299506D03*
%TD*%
D15*
%TO.C,J1*%
X62846000Y-188734000D03*
X57846000Y-188734000D03*
X52846000Y-188734000D03*
X47846000Y-188734000D03*
X42846000Y-188734000D03*
X37846000Y-188734000D03*
%TD*%
D12*
%TO.C,U1*%
X60960000Y-29057812D03*
X60960000Y-31597812D03*
X60960000Y-34137812D03*
X60960000Y-36677812D03*
X60960000Y-39217812D03*
X60960000Y-41757812D03*
X60960000Y-44297812D03*
X68580000Y-44297812D03*
X68580000Y-41757812D03*
X68580000Y-39217812D03*
X68580000Y-36677812D03*
X68580000Y-34137812D03*
X68580000Y-31597812D03*
X68580000Y-29057812D03*
%TD*%
D11*
%TO.C,R6*%
X71755000Y-167906000D03*
X61595000Y-167906000D03*
%TD*%
%TO.C,R14*%
X62865000Y-112407000D03*
X70485000Y-112407000D03*
%TD*%
D10*
%TO.C,D3*%
X29210000Y-33540000D03*
D11*
X29210000Y-43700000D03*
%TD*%
D12*
%TO.C,C1*%
X63500000Y-102374000D03*
X68500000Y-102374000D03*
%TD*%
D11*
%TO.C,R5*%
X66294000Y-171081000D03*
X56134000Y-171081000D03*
%TD*%
D12*
%TO.C,U2*%
X68072000Y-79133000D03*
X68072000Y-76593000D03*
X68072000Y-74053000D03*
X68072000Y-71513000D03*
X60452000Y-71513000D03*
X60452000Y-74053000D03*
X60452000Y-76593000D03*
X60452000Y-79133000D03*
%TD*%
D11*
%TO.C,R12*%
X71882000Y-39128000D03*
X71882000Y-28968000D03*
%TD*%
D12*
%TO.C,RV1*%
X42277306Y-166570506D03*
X42277306Y-164030506D03*
X42277306Y-161490506D03*
%TD*%
D11*
%TO.C,R23*%
X57150000Y-41922000D03*
X57150000Y-49542000D03*
%TD*%
%TO.C,R21*%
X45720000Y-107200000D03*
X35560000Y-107200000D03*
%TD*%
%TO.C,R11*%
X71882000Y-49415000D03*
X71882000Y-41795000D03*
%TD*%
%TO.C,R24*%
X57150000Y-23888000D03*
X57150000Y-31508000D03*
%TD*%
%TO.C,R17*%
X60198000Y-92595000D03*
X60198000Y-100215000D03*
%TD*%
%TO.C,R18*%
X68072000Y-60464000D03*
X68072000Y-68084000D03*
%TD*%
D16*
%TO.C,REF\u002A\u002A*%
X71120000Y-188480000D03*
%TD*%
D11*
%TO.C,R3*%
X52183306Y-171671506D03*
X44563306Y-171671506D03*
%TD*%
D16*
%TO.C,REF\u002A\u002A*%
X50800000Y-107200000D03*
%TD*%
D13*
%TO.C,Q3*%
X61087000Y-162678000D03*
X63627000Y-162678000D03*
D14*
X66167000Y-162678000D03*
%TD*%
D11*
%TO.C,R19*%
X35560000Y-136791000D03*
X45720000Y-136791000D03*
%TD*%
D10*
%TO.C,D4*%
X29210000Y-71640000D03*
D11*
X29210000Y-61480000D03*
%TD*%
D13*
%TO.C,Q4*%
X63580000Y-117614000D03*
X66120000Y-117614000D03*
D14*
X68660000Y-117614000D03*
%TD*%
D11*
%TO.C,R1*%
X45960306Y-174698506D03*
X35800306Y-174698506D03*
%TD*%
%TO.C,R7*%
X64723000Y-148729000D03*
X74883000Y-148729000D03*
%TD*%
D16*
%TO.C,REF\u002A\u002A*%
X30480000Y-20840000D03*
%TD*%
%TO.C,REF\u002A\u002A*%
X71120000Y-20840000D03*
%TD*%
D11*
%TO.C,R15*%
X60198000Y-110375000D03*
X60198000Y-102755000D03*
%TD*%
%TO.C,R2*%
X58914306Y-174698506D03*
X48754306Y-174698506D03*
%TD*%
D16*
%TO.C,REF\u002A\u002A*%
X30480000Y-188480000D03*
%TD*%
D11*
%TO.C,R20*%
X35560000Y-47510000D03*
X45720000Y-47510000D03*
%TD*%
D13*
%TO.C,Q1*%
X52183306Y-166993506D03*
X49643306Y-166993506D03*
D17*
X47103306Y-166993506D03*
%TD*%
D12*
%TO.C,C3*%
X57150000Y-34177812D03*
X57150000Y-39177812D03*
%TD*%
D18*
%TO.C,Q7*%
X62865000Y-67449000D03*
X62865000Y-64909000D03*
D19*
X62865000Y-62369000D03*
%TD*%
D20*
%TO.C,RV6*%
X45720000Y-71940000D03*
D21*
X45720000Y-71940000D03*
D20*
X40640000Y-71940000D03*
D21*
X40640000Y-71940000D03*
D20*
X35560000Y-71940000D03*
D22*
X35560000Y-71940000D03*
D23*
X48640000Y-58940000D03*
D24*
X40640000Y-58940000D03*
D25*
X40640000Y-58940000D03*
%TD*%
D20*
%TO.C,RV4*%
X45720000Y-43700000D03*
D21*
X45720000Y-43700000D03*
D20*
X40640000Y-43700000D03*
D21*
X40640000Y-43700000D03*
D20*
X35560000Y-43700000D03*
D22*
X35560000Y-43700000D03*
D23*
X48640000Y-30700000D03*
D24*
X40640000Y-30700000D03*
D25*
X40640000Y-30700000D03*
%TD*%
D20*
%TO.C,RV5*%
X45720000Y-102420000D03*
D21*
X45720000Y-102420000D03*
D20*
X40640000Y-102420000D03*
D21*
X40640000Y-102420000D03*
D20*
X35560000Y-102420000D03*
D22*
X35560000Y-102420000D03*
D23*
X48640000Y-89420000D03*
D24*
X40640000Y-89420000D03*
D25*
X40640000Y-89420000D03*
%TD*%
D20*
%TO.C,RV3*%
X45720000Y-132600000D03*
D21*
X45720000Y-132600000D03*
D20*
X40640000Y-132600000D03*
D21*
X40640000Y-132600000D03*
D20*
X35560000Y-132600000D03*
D22*
X35560000Y-132600000D03*
D23*
X48640000Y-119600000D03*
D24*
X40640000Y-119600000D03*
D25*
X40640000Y-119600000D03*
%TD*%
M02*
