%TF.GenerationSoftware,KiCad,Pcbnew,9.0.6*%
%TF.CreationDate,2026-04-22T22:00:32-07:00*%
%TF.ProjectId,modulinEnvelope,6d6f6475-6c69-46e4-956e-76656c6f7065,rev?*%
%TF.SameCoordinates,Original*%
%TF.FileFunction,Legend,Bot*%
%TF.FilePolarity,Positive*%
%FSLAX46Y46*%
G04 Gerber Fmt 4.6, Leading zero omitted, Abs format (unit mm)*
G04 Created by KiCad (PCBNEW 9.0.6) date 2026-04-22 22:00:32*
%MOMM*%
%LPD*%
G01*
G04 APERTURE LIST*
%ADD10C,0.508000*%
%ADD11C,0.254000*%
G04 APERTURE END LIST*
D10*
X59513028Y-19426260D02*
X58666361Y-19426260D01*
X58303504Y-20756736D02*
X59513028Y-20756736D01*
X59513028Y-20756736D02*
X59513028Y-18216736D01*
X59513028Y-18216736D02*
X58303504Y-18216736D01*
X57214933Y-19063403D02*
X57214933Y-20756736D01*
X57214933Y-19305307D02*
X57093980Y-19184355D01*
X57093980Y-19184355D02*
X56852075Y-19063403D01*
X56852075Y-19063403D02*
X56489218Y-19063403D01*
X56489218Y-19063403D02*
X56247314Y-19184355D01*
X56247314Y-19184355D02*
X56126361Y-19426260D01*
X56126361Y-19426260D02*
X56126361Y-20756736D01*
X55158742Y-19063403D02*
X54553980Y-20756736D01*
X54553980Y-20756736D02*
X53949219Y-19063403D01*
X52013981Y-20635784D02*
X52255885Y-20756736D01*
X52255885Y-20756736D02*
X52739695Y-20756736D01*
X52739695Y-20756736D02*
X52981600Y-20635784D01*
X52981600Y-20635784D02*
X53102552Y-20393879D01*
X53102552Y-20393879D02*
X53102552Y-19426260D01*
X53102552Y-19426260D02*
X52981600Y-19184355D01*
X52981600Y-19184355D02*
X52739695Y-19063403D01*
X52739695Y-19063403D02*
X52255885Y-19063403D01*
X52255885Y-19063403D02*
X52013981Y-19184355D01*
X52013981Y-19184355D02*
X51893028Y-19426260D01*
X51893028Y-19426260D02*
X51893028Y-19668164D01*
X51893028Y-19668164D02*
X53102552Y-19910069D01*
X50441599Y-20756736D02*
X50683504Y-20635784D01*
X50683504Y-20635784D02*
X50804457Y-20393879D01*
X50804457Y-20393879D02*
X50804457Y-18216736D01*
X49111123Y-20756736D02*
X49353028Y-20635784D01*
X49353028Y-20635784D02*
X49473981Y-20514831D01*
X49473981Y-20514831D02*
X49594933Y-20272926D01*
X49594933Y-20272926D02*
X49594933Y-19547212D01*
X49594933Y-19547212D02*
X49473981Y-19305307D01*
X49473981Y-19305307D02*
X49353028Y-19184355D01*
X49353028Y-19184355D02*
X49111123Y-19063403D01*
X49111123Y-19063403D02*
X48748266Y-19063403D01*
X48748266Y-19063403D02*
X48506362Y-19184355D01*
X48506362Y-19184355D02*
X48385409Y-19305307D01*
X48385409Y-19305307D02*
X48264457Y-19547212D01*
X48264457Y-19547212D02*
X48264457Y-20272926D01*
X48264457Y-20272926D02*
X48385409Y-20514831D01*
X48385409Y-20514831D02*
X48506362Y-20635784D01*
X48506362Y-20635784D02*
X48748266Y-20756736D01*
X48748266Y-20756736D02*
X49111123Y-20756736D01*
X47175886Y-19063403D02*
X47175886Y-21603403D01*
X47175886Y-19184355D02*
X46933981Y-19063403D01*
X46933981Y-19063403D02*
X46450171Y-19063403D01*
X46450171Y-19063403D02*
X46208267Y-19184355D01*
X46208267Y-19184355D02*
X46087314Y-19305307D01*
X46087314Y-19305307D02*
X45966362Y-19547212D01*
X45966362Y-19547212D02*
X45966362Y-20272926D01*
X45966362Y-20272926D02*
X46087314Y-20514831D01*
X46087314Y-20514831D02*
X46208267Y-20635784D01*
X46208267Y-20635784D02*
X46450171Y-20756736D01*
X46450171Y-20756736D02*
X46933981Y-20756736D01*
X46933981Y-20756736D02*
X47175886Y-20635784D01*
X43910172Y-20635784D02*
X44152076Y-20756736D01*
X44152076Y-20756736D02*
X44635886Y-20756736D01*
X44635886Y-20756736D02*
X44877791Y-20635784D01*
X44877791Y-20635784D02*
X44998743Y-20393879D01*
X44998743Y-20393879D02*
X44998743Y-19426260D01*
X44998743Y-19426260D02*
X44877791Y-19184355D01*
X44877791Y-19184355D02*
X44635886Y-19063403D01*
X44635886Y-19063403D02*
X44152076Y-19063403D01*
X44152076Y-19063403D02*
X43910172Y-19184355D01*
X43910172Y-19184355D02*
X43789219Y-19426260D01*
X43789219Y-19426260D02*
X43789219Y-19668164D01*
X43789219Y-19668164D02*
X44998743Y-19910069D01*
D11*
X44607237Y-70362113D02*
X44607237Y-68330113D01*
X44607237Y-68330113D02*
X44123427Y-68330113D01*
X44123427Y-68330113D02*
X43833142Y-68426875D01*
X43833142Y-68426875D02*
X43639618Y-68620399D01*
X43639618Y-68620399D02*
X43542856Y-68813923D01*
X43542856Y-68813923D02*
X43446094Y-69200971D01*
X43446094Y-69200971D02*
X43446094Y-69491256D01*
X43446094Y-69491256D02*
X43542856Y-69878304D01*
X43542856Y-69878304D02*
X43639618Y-70071828D01*
X43639618Y-70071828D02*
X43833142Y-70265352D01*
X43833142Y-70265352D02*
X44123427Y-70362113D01*
X44123427Y-70362113D02*
X44607237Y-70362113D01*
X41801142Y-70265352D02*
X41994666Y-70362113D01*
X41994666Y-70362113D02*
X42381713Y-70362113D01*
X42381713Y-70362113D02*
X42575237Y-70265352D01*
X42575237Y-70265352D02*
X42671999Y-70071828D01*
X42671999Y-70071828D02*
X42671999Y-69297732D01*
X42671999Y-69297732D02*
X42575237Y-69104209D01*
X42575237Y-69104209D02*
X42381713Y-69007447D01*
X42381713Y-69007447D02*
X41994666Y-69007447D01*
X41994666Y-69007447D02*
X41801142Y-69104209D01*
X41801142Y-69104209D02*
X41704380Y-69297732D01*
X41704380Y-69297732D02*
X41704380Y-69491256D01*
X41704380Y-69491256D02*
X42671999Y-69684780D01*
X39962666Y-70265352D02*
X40156190Y-70362113D01*
X40156190Y-70362113D02*
X40543237Y-70362113D01*
X40543237Y-70362113D02*
X40736761Y-70265352D01*
X40736761Y-70265352D02*
X40833523Y-70168590D01*
X40833523Y-70168590D02*
X40930285Y-69975066D01*
X40930285Y-69975066D02*
X40930285Y-69394494D01*
X40930285Y-69394494D02*
X40833523Y-69200971D01*
X40833523Y-69200971D02*
X40736761Y-69104209D01*
X40736761Y-69104209D02*
X40543237Y-69007447D01*
X40543237Y-69007447D02*
X40156190Y-69007447D01*
X40156190Y-69007447D02*
X39962666Y-69104209D01*
X38220952Y-70362113D02*
X38220952Y-69297732D01*
X38220952Y-69297732D02*
X38317714Y-69104209D01*
X38317714Y-69104209D02*
X38511238Y-69007447D01*
X38511238Y-69007447D02*
X38898285Y-69007447D01*
X38898285Y-69007447D02*
X39091809Y-69104209D01*
X38220952Y-70265352D02*
X38414476Y-70362113D01*
X38414476Y-70362113D02*
X38898285Y-70362113D01*
X38898285Y-70362113D02*
X39091809Y-70265352D01*
X39091809Y-70265352D02*
X39188571Y-70071828D01*
X39188571Y-70071828D02*
X39188571Y-69878304D01*
X39188571Y-69878304D02*
X39091809Y-69684780D01*
X39091809Y-69684780D02*
X38898285Y-69588018D01*
X38898285Y-69588018D02*
X38414476Y-69588018D01*
X38414476Y-69588018D02*
X38220952Y-69491256D01*
X37446857Y-69007447D02*
X36963047Y-70362113D01*
X36479238Y-69007447D02*
X36963047Y-70362113D01*
X36963047Y-70362113D02*
X37156571Y-70845923D01*
X37156571Y-70845923D02*
X37253333Y-70942685D01*
X37253333Y-70942685D02*
X37446857Y-71039447D01*
X44897523Y-41587542D02*
X43929904Y-41587542D01*
X45091047Y-42168113D02*
X44413713Y-40136113D01*
X44413713Y-40136113D02*
X43736380Y-42168113D01*
X43349333Y-40813447D02*
X42575237Y-40813447D01*
X43059047Y-40136113D02*
X43059047Y-41877828D01*
X43059047Y-41877828D02*
X42962285Y-42071352D01*
X42962285Y-42071352D02*
X42768761Y-42168113D01*
X42768761Y-42168113D02*
X42575237Y-42168113D01*
X42188190Y-40813447D02*
X41414094Y-40813447D01*
X41897904Y-40136113D02*
X41897904Y-41877828D01*
X41897904Y-41877828D02*
X41801142Y-42071352D01*
X41801142Y-42071352D02*
X41607618Y-42168113D01*
X41607618Y-42168113D02*
X41414094Y-42168113D01*
X39865904Y-42168113D02*
X39865904Y-41103732D01*
X39865904Y-41103732D02*
X39962666Y-40910209D01*
X39962666Y-40910209D02*
X40156190Y-40813447D01*
X40156190Y-40813447D02*
X40543237Y-40813447D01*
X40543237Y-40813447D02*
X40736761Y-40910209D01*
X39865904Y-42071352D02*
X40059428Y-42168113D01*
X40059428Y-42168113D02*
X40543237Y-42168113D01*
X40543237Y-42168113D02*
X40736761Y-42071352D01*
X40736761Y-42071352D02*
X40833523Y-41877828D01*
X40833523Y-41877828D02*
X40833523Y-41684304D01*
X40833523Y-41684304D02*
X40736761Y-41490780D01*
X40736761Y-41490780D02*
X40543237Y-41394018D01*
X40543237Y-41394018D02*
X40059428Y-41394018D01*
X40059428Y-41394018D02*
X39865904Y-41297256D01*
X38027428Y-42071352D02*
X38220952Y-42168113D01*
X38220952Y-42168113D02*
X38607999Y-42168113D01*
X38607999Y-42168113D02*
X38801523Y-42071352D01*
X38801523Y-42071352D02*
X38898285Y-41974590D01*
X38898285Y-41974590D02*
X38995047Y-41781066D01*
X38995047Y-41781066D02*
X38995047Y-41200494D01*
X38995047Y-41200494D02*
X38898285Y-41006971D01*
X38898285Y-41006971D02*
X38801523Y-40910209D01*
X38801523Y-40910209D02*
X38607999Y-40813447D01*
X38607999Y-40813447D02*
X38220952Y-40813447D01*
X38220952Y-40813447D02*
X38027428Y-40910209D01*
X37156571Y-42168113D02*
X37156571Y-40136113D01*
X36963047Y-41394018D02*
X36382476Y-42168113D01*
X36382476Y-40813447D02*
X37156571Y-41587542D01*
X45865142Y-100745352D02*
X45574856Y-100842113D01*
X45574856Y-100842113D02*
X45091047Y-100842113D01*
X45091047Y-100842113D02*
X44897523Y-100745352D01*
X44897523Y-100745352D02*
X44800761Y-100648590D01*
X44800761Y-100648590D02*
X44703999Y-100455066D01*
X44703999Y-100455066D02*
X44703999Y-100261542D01*
X44703999Y-100261542D02*
X44800761Y-100068018D01*
X44800761Y-100068018D02*
X44897523Y-99971256D01*
X44897523Y-99971256D02*
X45091047Y-99874494D01*
X45091047Y-99874494D02*
X45478094Y-99777732D01*
X45478094Y-99777732D02*
X45671618Y-99680971D01*
X45671618Y-99680971D02*
X45768380Y-99584209D01*
X45768380Y-99584209D02*
X45865142Y-99390685D01*
X45865142Y-99390685D02*
X45865142Y-99197161D01*
X45865142Y-99197161D02*
X45768380Y-99003637D01*
X45768380Y-99003637D02*
X45671618Y-98906875D01*
X45671618Y-98906875D02*
X45478094Y-98810113D01*
X45478094Y-98810113D02*
X44994285Y-98810113D01*
X44994285Y-98810113D02*
X44703999Y-98906875D01*
X42962285Y-99487447D02*
X42962285Y-100842113D01*
X43833142Y-99487447D02*
X43833142Y-100551828D01*
X43833142Y-100551828D02*
X43736380Y-100745352D01*
X43736380Y-100745352D02*
X43542856Y-100842113D01*
X43542856Y-100842113D02*
X43252571Y-100842113D01*
X43252571Y-100842113D02*
X43059047Y-100745352D01*
X43059047Y-100745352D02*
X42962285Y-100648590D01*
X42091428Y-100745352D02*
X41897904Y-100842113D01*
X41897904Y-100842113D02*
X41510856Y-100842113D01*
X41510856Y-100842113D02*
X41317333Y-100745352D01*
X41317333Y-100745352D02*
X41220571Y-100551828D01*
X41220571Y-100551828D02*
X41220571Y-100455066D01*
X41220571Y-100455066D02*
X41317333Y-100261542D01*
X41317333Y-100261542D02*
X41510856Y-100164780D01*
X41510856Y-100164780D02*
X41801142Y-100164780D01*
X41801142Y-100164780D02*
X41994666Y-100068018D01*
X41994666Y-100068018D02*
X42091428Y-99874494D01*
X42091428Y-99874494D02*
X42091428Y-99777732D01*
X42091428Y-99777732D02*
X41994666Y-99584209D01*
X41994666Y-99584209D02*
X41801142Y-99487447D01*
X41801142Y-99487447D02*
X41510856Y-99487447D01*
X41510856Y-99487447D02*
X41317333Y-99584209D01*
X40640000Y-99487447D02*
X39865904Y-99487447D01*
X40349714Y-98810113D02*
X40349714Y-100551828D01*
X40349714Y-100551828D02*
X40252952Y-100745352D01*
X40252952Y-100745352D02*
X40059428Y-100842113D01*
X40059428Y-100842113D02*
X39865904Y-100842113D01*
X38317714Y-100842113D02*
X38317714Y-99777732D01*
X38317714Y-99777732D02*
X38414476Y-99584209D01*
X38414476Y-99584209D02*
X38608000Y-99487447D01*
X38608000Y-99487447D02*
X38995047Y-99487447D01*
X38995047Y-99487447D02*
X39188571Y-99584209D01*
X38317714Y-100745352D02*
X38511238Y-100842113D01*
X38511238Y-100842113D02*
X38995047Y-100842113D01*
X38995047Y-100842113D02*
X39188571Y-100745352D01*
X39188571Y-100745352D02*
X39285333Y-100551828D01*
X39285333Y-100551828D02*
X39285333Y-100358304D01*
X39285333Y-100358304D02*
X39188571Y-100164780D01*
X39188571Y-100164780D02*
X38995047Y-100068018D01*
X38995047Y-100068018D02*
X38511238Y-100068018D01*
X38511238Y-100068018D02*
X38317714Y-99971256D01*
X37350095Y-100842113D02*
X37350095Y-99487447D01*
X37350095Y-98810113D02*
X37446857Y-98906875D01*
X37446857Y-98906875D02*
X37350095Y-99003637D01*
X37350095Y-99003637D02*
X37253333Y-98906875D01*
X37253333Y-98906875D02*
X37350095Y-98810113D01*
X37350095Y-98810113D02*
X37350095Y-99003637D01*
X36382476Y-99487447D02*
X36382476Y-100842113D01*
X36382476Y-99680971D02*
X36285714Y-99584209D01*
X36285714Y-99584209D02*
X36092190Y-99487447D01*
X36092190Y-99487447D02*
X35801905Y-99487447D01*
X35801905Y-99487447D02*
X35608381Y-99584209D01*
X35608381Y-99584209D02*
X35511619Y-99777732D01*
X35511619Y-99777732D02*
X35511619Y-100842113D01*
X44897522Y-131068113D02*
X45574855Y-130100494D01*
X46058665Y-131068113D02*
X46058665Y-129036113D01*
X46058665Y-129036113D02*
X45284570Y-129036113D01*
X45284570Y-129036113D02*
X45091046Y-129132875D01*
X45091046Y-129132875D02*
X44994284Y-129229637D01*
X44994284Y-129229637D02*
X44897522Y-129423161D01*
X44897522Y-129423161D02*
X44897522Y-129713447D01*
X44897522Y-129713447D02*
X44994284Y-129906971D01*
X44994284Y-129906971D02*
X45091046Y-130003732D01*
X45091046Y-130003732D02*
X45284570Y-130100494D01*
X45284570Y-130100494D02*
X46058665Y-130100494D01*
X43252570Y-130971352D02*
X43446094Y-131068113D01*
X43446094Y-131068113D02*
X43833141Y-131068113D01*
X43833141Y-131068113D02*
X44026665Y-130971352D01*
X44026665Y-130971352D02*
X44123427Y-130777828D01*
X44123427Y-130777828D02*
X44123427Y-130003732D01*
X44123427Y-130003732D02*
X44026665Y-129810209D01*
X44026665Y-129810209D02*
X43833141Y-129713447D01*
X43833141Y-129713447D02*
X43446094Y-129713447D01*
X43446094Y-129713447D02*
X43252570Y-129810209D01*
X43252570Y-129810209D02*
X43155808Y-130003732D01*
X43155808Y-130003732D02*
X43155808Y-130197256D01*
X43155808Y-130197256D02*
X44123427Y-130390780D01*
X41994665Y-131068113D02*
X42188189Y-130971352D01*
X42188189Y-130971352D02*
X42284951Y-130777828D01*
X42284951Y-130777828D02*
X42284951Y-129036113D01*
X40446475Y-130971352D02*
X40639999Y-131068113D01*
X40639999Y-131068113D02*
X41027046Y-131068113D01*
X41027046Y-131068113D02*
X41220570Y-130971352D01*
X41220570Y-130971352D02*
X41317332Y-130777828D01*
X41317332Y-130777828D02*
X41317332Y-130003732D01*
X41317332Y-130003732D02*
X41220570Y-129810209D01*
X41220570Y-129810209D02*
X41027046Y-129713447D01*
X41027046Y-129713447D02*
X40639999Y-129713447D01*
X40639999Y-129713447D02*
X40446475Y-129810209D01*
X40446475Y-129810209D02*
X40349713Y-130003732D01*
X40349713Y-130003732D02*
X40349713Y-130197256D01*
X40349713Y-130197256D02*
X41317332Y-130390780D01*
X38607999Y-131068113D02*
X38607999Y-130003732D01*
X38607999Y-130003732D02*
X38704761Y-129810209D01*
X38704761Y-129810209D02*
X38898285Y-129713447D01*
X38898285Y-129713447D02*
X39285332Y-129713447D01*
X39285332Y-129713447D02*
X39478856Y-129810209D01*
X38607999Y-130971352D02*
X38801523Y-131068113D01*
X38801523Y-131068113D02*
X39285332Y-131068113D01*
X39285332Y-131068113D02*
X39478856Y-130971352D01*
X39478856Y-130971352D02*
X39575618Y-130777828D01*
X39575618Y-130777828D02*
X39575618Y-130584304D01*
X39575618Y-130584304D02*
X39478856Y-130390780D01*
X39478856Y-130390780D02*
X39285332Y-130294018D01*
X39285332Y-130294018D02*
X38801523Y-130294018D01*
X38801523Y-130294018D02*
X38607999Y-130197256D01*
X37737142Y-130971352D02*
X37543618Y-131068113D01*
X37543618Y-131068113D02*
X37156570Y-131068113D01*
X37156570Y-131068113D02*
X36963047Y-130971352D01*
X36963047Y-130971352D02*
X36866285Y-130777828D01*
X36866285Y-130777828D02*
X36866285Y-130681066D01*
X36866285Y-130681066D02*
X36963047Y-130487542D01*
X36963047Y-130487542D02*
X37156570Y-130390780D01*
X37156570Y-130390780D02*
X37446856Y-130390780D01*
X37446856Y-130390780D02*
X37640380Y-130294018D01*
X37640380Y-130294018D02*
X37737142Y-130100494D01*
X37737142Y-130100494D02*
X37737142Y-130003732D01*
X37737142Y-130003732D02*
X37640380Y-129810209D01*
X37640380Y-129810209D02*
X37446856Y-129713447D01*
X37446856Y-129713447D02*
X37156570Y-129713447D01*
X37156570Y-129713447D02*
X36963047Y-129810209D01*
X35221333Y-130971352D02*
X35414857Y-131068113D01*
X35414857Y-131068113D02*
X35801904Y-131068113D01*
X35801904Y-131068113D02*
X35995428Y-130971352D01*
X35995428Y-130971352D02*
X36092190Y-130777828D01*
X36092190Y-130777828D02*
X36092190Y-130003732D01*
X36092190Y-130003732D02*
X35995428Y-129810209D01*
X35995428Y-129810209D02*
X35801904Y-129713447D01*
X35801904Y-129713447D02*
X35414857Y-129713447D01*
X35414857Y-129713447D02*
X35221333Y-129810209D01*
X35221333Y-129810209D02*
X35124571Y-130003732D01*
X35124571Y-130003732D02*
X35124571Y-130197256D01*
X35124571Y-130197256D02*
X36092190Y-130390780D01*
M02*
