%TF.GenerationSoftware,KiCad,Pcbnew,9.0.6*%
%TF.CreationDate,2026-04-22T22:01:26-07:00*%
%TF.ProjectId,modulinLFO,6d6f6475-6c69-46e4-9c46-4f2e6b696361,rev?*%
%TF.SameCoordinates,Original*%
%TF.FileFunction,Soldermask,Top*%
%TF.FilePolarity,Negative*%
%FSLAX46Y46*%
G04 Gerber Fmt 4.6, Leading zero omitted, Abs format (unit mm)*
G04 Created by KiCad (PCBNEW 9.0.6) date 2026-04-22 22:01:26*
%MOMM*%
%LPD*%
G01*
G04 APERTURE LIST*
G04 Aperture macros list*
%AMRoundRect*
0 Rectangle with rounded corners*
0 $1 Rounding radius*
0 $2 $3 $4 $5 $6 $7 $8 $9 X,Y pos of 4 corners*
0 Add a 4 corners polygon primitive as box body*
4,1,4,$2,$3,$4,$5,$6,$7,$8,$9,$2,$3,0*
0 Add four circle primitives for the rounded corners*
1,1,$1+$1,$2,$3*
1,1,$1+$1,$4,$5*
1,1,$1+$1,$6,$7*
1,1,$1+$1,$8,$9*
0 Add four rect primitives between the rounded corners*
20,1,$1+$1,$2,$3,$4,$5,0*
20,1,$1+$1,$4,$5,$6,$7,0*
20,1,$1+$1,$6,$7,$8,$9,0*
20,1,$1+$1,$8,$9,$2,$3,0*%
G04 Aperture macros list end*
%ADD10C,1.320800*%
%ADD11C,6.000000*%
%ADD12C,1.727200*%
%ADD13O,2.540000X1.727200*%
%ADD14RoundRect,0.250000X-1.020000X0.613600X-1.020000X-0.613600X1.020000X-0.613600X1.020000X0.613600X0*%
%ADD15R,1.727200X1.727200*%
%ADD16RoundRect,0.250000X1.020000X-0.613600X1.020000X0.613600X-1.020000X0.613600X-1.020000X-0.613600X0*%
%ADD17C,1.676400*%
%ADD18C,1.905000*%
%ADD19O,1.727200X1.727200*%
%ADD20O,1.727200X2.540000*%
%ADD21RoundRect,0.250000X0.613600X1.020000X-0.613600X1.020000X-0.613600X-1.020000X0.613600X-1.020000X0*%
%ADD22C,1.778000*%
%ADD23C,2.286000*%
%ADD24R,2.286000X2.286000*%
%ADD25C,3.302000*%
%ADD26C,12.000000*%
%ADD27O,18.000000X12.000000*%
%ADD28C,1.422400*%
G04 APERTURE END LIST*
D10*
%TO.C,C18*%
X61515000Y-84582000D03*
X56515000Y-84582000D03*
%TD*%
D11*
%TO.C,REF\u002A\u002A*%
X30480000Y-20320000D03*
%TD*%
D12*
%TO.C,R33*%
X52705000Y-50165000D03*
X62865000Y-50165000D03*
%TD*%
D10*
%TO.C,C19*%
X58547000Y-64429000D03*
X58547000Y-69429000D03*
%TD*%
D12*
%TO.C,R8*%
X61214000Y-165100000D03*
X61214000Y-154940000D03*
%TD*%
%TO.C,C15*%
X82002000Y-84074000D03*
X77002000Y-84074000D03*
%TD*%
%TO.C,R43*%
X52578000Y-121158000D03*
X42418000Y-121158000D03*
%TD*%
%TO.C,R41*%
X60579000Y-34160500D03*
D10*
X60579000Y-31620500D03*
%TD*%
D12*
%TO.C,C3*%
X79756000Y-146010000D03*
X79756000Y-141010000D03*
%TD*%
%TO.C,R16*%
X72263000Y-115951000D03*
X62103000Y-115951000D03*
%TD*%
%TO.C,R22*%
X86614000Y-85217000D03*
X96774000Y-85217000D03*
%TD*%
%TO.C,R44*%
X39370000Y-153924000D03*
X29210000Y-153924000D03*
%TD*%
%TO.C,R32*%
X60706000Y-61722000D03*
X50546000Y-61722000D03*
%TD*%
D13*
%TO.C,Q8*%
X42418000Y-134620000D03*
X42418000Y-137160000D03*
D14*
X42418000Y-139700000D03*
%TD*%
D10*
%TO.C,R18*%
X61216500Y-127762000D03*
D12*
X63756500Y-127762000D03*
%TD*%
D10*
%TO.C,U4*%
X66167000Y-97795000D03*
X66167000Y-100335000D03*
X66167000Y-102875000D03*
X66167000Y-105415000D03*
X66167000Y-107955000D03*
X66167000Y-110495000D03*
X66167000Y-113035000D03*
X73787000Y-113035000D03*
X73787000Y-110495000D03*
X73787000Y-107955000D03*
X73787000Y-105415000D03*
X73787000Y-102875000D03*
X73787000Y-100335000D03*
X73787000Y-97795000D03*
%TD*%
D15*
%TO.C,D2*%
X83566000Y-110490000D03*
D12*
X88646000Y-110490000D03*
%TD*%
D10*
%TO.C,RV4*%
X83820000Y-163830000D03*
X83820000Y-161290000D03*
X83820000Y-158750000D03*
%TD*%
D13*
%TO.C,Q4*%
X70104000Y-46228000D03*
X70104000Y-43688000D03*
D16*
X70104000Y-41148000D03*
%TD*%
D12*
%TO.C,R19*%
X64770000Y-134112000D03*
D10*
X62230000Y-134112000D03*
%TD*%
D16*
%TO.C,U2*%
X65207000Y-181102000D03*
D13*
X65207000Y-178562000D03*
X65207000Y-176022000D03*
%TD*%
D12*
%TO.C,R26*%
X72390000Y-80899000D03*
X62230000Y-80899000D03*
%TD*%
D11*
%TO.C,REF\u002A\u002A*%
X109220000Y-20320000D03*
%TD*%
D12*
%TO.C,R36*%
X78486000Y-49657000D03*
X88646000Y-49657000D03*
%TD*%
D13*
%TO.C,Q5*%
X75184000Y-41148000D03*
X75184000Y-43688000D03*
D14*
X75184000Y-46228000D03*
%TD*%
D12*
%TO.C,C11*%
X49022000Y-186730000D03*
X49022000Y-191730000D03*
%TD*%
%TO.C,R48*%
X47498000Y-144780000D03*
X47498000Y-134620000D03*
%TD*%
%TO.C,R3*%
X28956000Y-131318000D03*
X36576000Y-131318000D03*
%TD*%
%TO.C,C5*%
X59142000Y-182880000D03*
X54142000Y-182880000D03*
%TD*%
D10*
%TO.C,RV5*%
X84074000Y-129032000D03*
X84074000Y-131572000D03*
X84074000Y-134112000D03*
%TD*%
D12*
%TO.C,R21*%
X98298000Y-82550000D03*
X90678000Y-82550000D03*
%TD*%
%TO.C,R47*%
X32258000Y-150876000D03*
X32258000Y-140716000D03*
%TD*%
D13*
%TO.C,Q3*%
X59944000Y-143256000D03*
X59944000Y-145796000D03*
D14*
X59944000Y-148336000D03*
%TD*%
D15*
%TO.C,D3*%
X66040000Y-75438000D03*
D12*
X73660000Y-75438000D03*
%TD*%
%TO.C,R7*%
X56896000Y-171450000D03*
X56896000Y-161290000D03*
%TD*%
D10*
%TO.C,R14*%
X79756000Y-133096000D03*
D12*
X79756000Y-130556000D03*
%TD*%
D13*
%TO.C,Q7*%
X37698000Y-139700000D03*
X37698000Y-137160000D03*
D16*
X37698000Y-134620000D03*
%TD*%
D12*
%TO.C,C16*%
X62952000Y-72390000D03*
X57952000Y-72390000D03*
%TD*%
D13*
%TO.C,Q2*%
X70612000Y-160020000D03*
X70612000Y-157480000D03*
D16*
X70612000Y-154940000D03*
%TD*%
D10*
%TO.C,RV9*%
X56896000Y-119253000D03*
X56896000Y-116713000D03*
X56896000Y-114173000D03*
%TD*%
D11*
%TO.C,REF\u002A\u002A*%
X30480000Y-187960000D03*
%TD*%
D10*
%TO.C,U7*%
X71628000Y-37211000D03*
X71628000Y-34671000D03*
X71628000Y-32131000D03*
X71628000Y-29591000D03*
X64008000Y-29591000D03*
X64008000Y-32131000D03*
X64008000Y-34671000D03*
X64008000Y-37211000D03*
%TD*%
D12*
%TO.C,C9*%
X84502000Y-138176000D03*
X79502000Y-138176000D03*
%TD*%
D10*
%TO.C,C22*%
X91400000Y-186690000D03*
X88900000Y-186690000D03*
%TD*%
D12*
%TO.C,R10*%
X68834000Y-148844000D03*
X78994000Y-148844000D03*
%TD*%
D10*
%TO.C,RV15*%
X35814000Y-126492000D03*
X38354000Y-126492000D03*
X40894000Y-126492000D03*
%TD*%
D12*
%TO.C,R9*%
X68834000Y-151638000D03*
X78994000Y-151638000D03*
%TD*%
%TO.C,R1*%
X103632000Y-178816000D03*
X93472000Y-178816000D03*
%TD*%
%TO.C,C6*%
X65492000Y-170688000D03*
X60492000Y-170688000D03*
%TD*%
D10*
%TO.C,RV6*%
X56896000Y-132842000D03*
X56896000Y-130302000D03*
X56896000Y-127762000D03*
%TD*%
D12*
%TO.C,R20*%
X32258000Y-156972000D03*
X39878000Y-156972000D03*
%TD*%
D10*
%TO.C,C2*%
X65024000Y-148296000D03*
X65024000Y-143296000D03*
%TD*%
%TO.C,R37*%
X70104000Y-49657000D03*
D17*
X75184000Y-49657000D03*
%TD*%
D10*
%TO.C,R6*%
X88646000Y-154432000D03*
D17*
X83566000Y-154432000D03*
%TD*%
D10*
%TO.C,RV11*%
X55880000Y-54356000D03*
X58420000Y-54356000D03*
X60960000Y-54356000D03*
%TD*%
D18*
%TO.C,J1*%
X62136000Y-189103000D03*
X67136000Y-189103000D03*
X72136000Y-189103000D03*
X77136000Y-189103000D03*
X82136000Y-189103000D03*
%TD*%
D10*
%TO.C,R28*%
X76962000Y-69852500D03*
D12*
X76962000Y-72392500D03*
%TD*%
%TO.C,R39*%
X79248000Y-37338000D03*
X89408000Y-37338000D03*
%TD*%
D10*
%TO.C,R5*%
X79502000Y-166367500D03*
D12*
X79502000Y-163827500D03*
%TD*%
%TO.C,C1*%
X64770000Y-161330000D03*
X64770000Y-166330000D03*
%TD*%
%TO.C,R51*%
X29210000Y-156972000D03*
X29210000Y-167132000D03*
%TD*%
D10*
%TO.C,U8*%
X29210000Y-170180000D03*
X29210000Y-172720000D03*
X29210000Y-175260000D03*
X29210000Y-177800000D03*
X36830000Y-177800000D03*
X36830000Y-175260000D03*
X36830000Y-172720000D03*
X36830000Y-170180000D03*
%TD*%
D12*
%TO.C,R35*%
X80518000Y-41148000D03*
X90678000Y-41148000D03*
%TD*%
%TO.C,C20*%
X60793000Y-37211000D03*
X55793000Y-37211000D03*
%TD*%
D10*
%TO.C,R20*%
X79502000Y-95250000D03*
D17*
X79502000Y-100330000D03*
%TD*%
D10*
%TO.C,U1*%
X68834000Y-163835000D03*
X68834000Y-166375000D03*
X68834000Y-168915000D03*
X68834000Y-171455000D03*
X68834000Y-173995000D03*
X68834000Y-176535000D03*
X68834000Y-179075000D03*
X76454000Y-179075000D03*
X76454000Y-176535000D03*
X76454000Y-173995000D03*
X76454000Y-171455000D03*
X76454000Y-168915000D03*
X76454000Y-166375000D03*
X76454000Y-163835000D03*
%TD*%
D11*
%TO.C,REF\u002A\u002A*%
X69850000Y-121158000D03*
%TD*%
D12*
%TO.C,C21*%
X79716000Y-29591000D03*
X74716000Y-29591000D03*
%TD*%
%TO.C,R46*%
X47498000Y-131318000D03*
X39878000Y-131318000D03*
%TD*%
%TO.C,C13*%
X82002000Y-105410000D03*
X77002000Y-105410000D03*
%TD*%
%TO.C,R38*%
X86614000Y-60452000D03*
X76454000Y-60452000D03*
%TD*%
%TO.C,R15*%
X60452000Y-174752000D03*
X52832000Y-174752000D03*
%TD*%
%TO.C,R29*%
X79756000Y-69850000D03*
X79756000Y-77470000D03*
%TD*%
D15*
%TO.C,D1*%
X78994000Y-110490000D03*
D19*
X76454000Y-110490000D03*
%TD*%
D12*
%TO.C,R50*%
X44450000Y-180975000D03*
X36830000Y-180975000D03*
%TD*%
%TO.C,R23*%
X82042000Y-90170000D03*
X82042000Y-100330000D03*
%TD*%
%TO.C,R49*%
X42545000Y-171323000D03*
X52705000Y-171323000D03*
%TD*%
D10*
%TO.C,C23*%
X99020000Y-186690000D03*
X96520000Y-186690000D03*
%TD*%
%TO.C,R4*%
X77975500Y-182118000D03*
D12*
X75435500Y-182118000D03*
%TD*%
D11*
%TO.C,REF\u002A\u002A*%
X109220000Y-187960000D03*
%TD*%
D12*
%TO.C,R27*%
X59055000Y-81534000D03*
D10*
X56515000Y-81534000D03*
%TD*%
%TO.C,R31*%
X62484000Y-66931500D03*
D12*
X62484000Y-69471500D03*
%TD*%
D10*
%TO.C,RV13*%
X69683000Y-24511000D03*
X67143000Y-24511000D03*
X64603000Y-24511000D03*
%TD*%
%TO.C,U6*%
X73660000Y-72390000D03*
X73660000Y-69850000D03*
X73660000Y-67310000D03*
X73660000Y-64770000D03*
X66040000Y-64770000D03*
X66040000Y-67310000D03*
X66040000Y-69850000D03*
X66040000Y-72390000D03*
%TD*%
D12*
%TO.C,C7*%
X84542000Y-171450000D03*
X79542000Y-171450000D03*
%TD*%
%TO.C,R2*%
X104140000Y-151384000D03*
X93980000Y-151384000D03*
%TD*%
%TO.C,C8*%
X65786000Y-138176000D03*
X60786000Y-138176000D03*
%TD*%
D10*
%TO.C,U5*%
X73660000Y-91694000D03*
X73660000Y-89154000D03*
X73660000Y-86614000D03*
X73660000Y-84074000D03*
X66040000Y-84074000D03*
X66040000Y-86614000D03*
X66040000Y-89154000D03*
X66040000Y-91694000D03*
%TD*%
D12*
%TO.C,R11*%
X83058000Y-146304000D03*
X90678000Y-146304000D03*
%TD*%
%TO.C,C17*%
X81748000Y-64770000D03*
X76748000Y-64770000D03*
%TD*%
%TO.C,R34*%
X60706000Y-46228000D03*
X50546000Y-46228000D03*
%TD*%
%TO.C,R13*%
X67310000Y-127254000D03*
X77470000Y-127254000D03*
%TD*%
%TO.C,C14*%
X62952000Y-91694000D03*
X57952000Y-91694000D03*
%TD*%
D10*
%TO.C,RV14*%
X46990000Y-154432000D03*
X46990000Y-156972000D03*
X46990000Y-159512000D03*
%TD*%
%TO.C,U3*%
X68834000Y-130561000D03*
X68834000Y-133101000D03*
X68834000Y-135641000D03*
X68834000Y-138181000D03*
X68834000Y-140721000D03*
X68834000Y-143261000D03*
X68834000Y-145801000D03*
X76454000Y-145801000D03*
X76454000Y-143261000D03*
X76454000Y-140721000D03*
X76454000Y-138181000D03*
X76454000Y-135641000D03*
X76454000Y-133101000D03*
X76454000Y-130561000D03*
%TD*%
%TO.C,RV10*%
X64810000Y-60198000D03*
X67350000Y-60198000D03*
X69890000Y-60198000D03*
%TD*%
D20*
%TO.C,Q6*%
X47752000Y-148590000D03*
X45212000Y-148590000D03*
D21*
X42672000Y-148590000D03*
%TD*%
D12*
%TO.C,C4*%
X54904000Y-178054000D03*
X59904000Y-178054000D03*
%TD*%
D10*
%TO.C,R24*%
X76708000Y-100330000D03*
D12*
X76708000Y-97790000D03*
%TD*%
D15*
%TO.C,D4*%
X66040000Y-77978000D03*
D12*
X73660000Y-77978000D03*
%TD*%
%TO.C,R25*%
X84582000Y-97536000D03*
X84582000Y-107696000D03*
%TD*%
D10*
%TO.C,R12*%
X83566000Y-143256000D03*
D17*
X88646000Y-143256000D03*
%TD*%
D13*
%TO.C,Q1*%
X75692000Y-154940000D03*
X75692000Y-157480000D03*
D14*
X75692000Y-160020000D03*
%TD*%
D12*
%TO.C,R30*%
X54864000Y-76073000D03*
X54864000Y-65913000D03*
%TD*%
%TO.C,C10*%
X47752000Y-166624000D03*
X52752000Y-166624000D03*
%TD*%
D10*
%TO.C,RV12*%
X75184000Y-54483000D03*
X72644000Y-54483000D03*
X70104000Y-54483000D03*
%TD*%
%TO.C,R17*%
X62738000Y-100330000D03*
D12*
X62738000Y-97790000D03*
%TD*%
%TO.C,R45*%
X42672000Y-164084000D03*
X42672000Y-153924000D03*
%TD*%
%TO.C,R40*%
X74803000Y-34673500D03*
D10*
X74803000Y-37213500D03*
%TD*%
D12*
%TO.C,R42*%
X42418000Y-117602000D03*
X32258000Y-117602000D03*
%TD*%
%TO.C,C12*%
X61214000Y-105450000D03*
X61214000Y-110450000D03*
%TD*%
D22*
%TO.C,RV16*%
X106680000Y-46020000D03*
D23*
X106680000Y-46020000D03*
D22*
X101600000Y-46020000D03*
D23*
X101600000Y-46020000D03*
D22*
X96520000Y-46020000D03*
D24*
X96520000Y-46020000D03*
D25*
X109600000Y-33020000D03*
D26*
X101600000Y-33020000D03*
D27*
X101600000Y-33020000D03*
%TD*%
D28*
%TO.C,SW1*%
X56388000Y-104140000D03*
D12*
X56388000Y-104140000D03*
D28*
X56388000Y-101600000D03*
D12*
X56388000Y-101600000D03*
D28*
X56388000Y-99060000D03*
D12*
X56388000Y-99060000D03*
%TD*%
D22*
%TO.C,RV1*%
X106680000Y-147620000D03*
D23*
X106680000Y-147620000D03*
D22*
X101600000Y-147620000D03*
D23*
X101600000Y-147620000D03*
D22*
X96520000Y-147620000D03*
D24*
X96520000Y-147620000D03*
D25*
X109600000Y-134620000D03*
D26*
X101600000Y-134620000D03*
D27*
X101600000Y-134620000D03*
%TD*%
D22*
%TO.C,RV3*%
X106680000Y-119680000D03*
D23*
X106680000Y-119680000D03*
D22*
X101600000Y-119680000D03*
D23*
X101600000Y-119680000D03*
D22*
X96520000Y-119680000D03*
D24*
X96520000Y-119680000D03*
D25*
X109600000Y-106680000D03*
D26*
X101600000Y-106680000D03*
D27*
X101600000Y-106680000D03*
%TD*%
D22*
%TO.C,RV2*%
X106680000Y-175560000D03*
D23*
X106680000Y-175560000D03*
D22*
X101600000Y-175560000D03*
D23*
X101600000Y-175560000D03*
D22*
X96520000Y-175560000D03*
D24*
X96520000Y-175560000D03*
D25*
X109600000Y-162560000D03*
D26*
X101600000Y-162560000D03*
D27*
X101600000Y-162560000D03*
%TD*%
D22*
%TO.C,RV8*%
X106680000Y-79040000D03*
D23*
X106680000Y-79040000D03*
D22*
X101600000Y-79040000D03*
D23*
X101600000Y-79040000D03*
D22*
X96520000Y-79040000D03*
D24*
X96520000Y-79040000D03*
D25*
X109600000Y-66040000D03*
D26*
X101600000Y-66040000D03*
D27*
X101600000Y-66040000D03*
%TD*%
D28*
%TO.C,SW2*%
X38100000Y-71120000D03*
D12*
X38100000Y-71120000D03*
D28*
X38100000Y-68580000D03*
D12*
X38100000Y-68580000D03*
D28*
X38100000Y-60960000D03*
D12*
X38100000Y-60960000D03*
D28*
X38100000Y-58420000D03*
D12*
X38100000Y-58420000D03*
D28*
X38100000Y-63500000D03*
D12*
X38100000Y-63500000D03*
%TD*%
M02*
