%TF.GenerationSoftware,KiCad,Pcbnew,9.0.6*%
%TF.CreationDate,2026-04-22T22:01:26-07:00*%
%TF.ProjectId,modulinLFO,6d6f6475-6c69-46e4-9c46-4f2e6b696361,rev?*%
%TF.SameCoordinates,Original*%
%TF.FileFunction,Copper,L1,Top*%
%TF.FilePolarity,Positive*%
%FSLAX46Y46*%
G04 Gerber Fmt 4.6, Leading zero omitted, Abs format (unit mm)*
G04 Created by KiCad (PCBNEW 9.0.6) date 2026-04-22 22:01:26*
%MOMM*%
%LPD*%
G01*
G04 APERTURE LIST*
G04 Aperture macros list*
%AMRoundRect*
0 Rectangle with rounded corners*
0 $1 Rounding radius*
0 $2 $3 $4 $5 $6 $7 $8 $9 X,Y pos of 4 corners*
0 Add a 4 corners polygon primitive as box body*
4,1,4,$2,$3,$4,$5,$6,$7,$8,$9,$2,$3,0*
0 Add four circle primitives for the rounded corners*
1,1,$1+$1,$2,$3*
1,1,$1+$1,$4,$5*
1,1,$1+$1,$6,$7*
1,1,$1+$1,$8,$9*
0 Add four rect primitives between the rounded corners*
20,1,$1+$1,$2,$3,$4,$5,0*
20,1,$1+$1,$4,$5,$6,$7,0*
20,1,$1+$1,$6,$7,$8,$9,0*
20,1,$1+$1,$8,$9,$2,$3,0*%
G04 Aperture macros list end*
%TA.AperFunction,ComponentPad*%
%ADD10C,1.320800*%
%TD*%
%TA.AperFunction,ComponentPad*%
%ADD11C,6.000000*%
%TD*%
%TA.AperFunction,ComponentPad*%
%ADD12C,1.727200*%
%TD*%
%TA.AperFunction,ComponentPad*%
%ADD13O,2.540000X1.727200*%
%TD*%
%TA.AperFunction,ComponentPad*%
%ADD14RoundRect,0.250000X-1.020000X0.613600X-1.020000X-0.613600X1.020000X-0.613600X1.020000X0.613600X0*%
%TD*%
%TA.AperFunction,ComponentPad*%
%ADD15R,1.727200X1.727200*%
%TD*%
%TA.AperFunction,ComponentPad*%
%ADD16RoundRect,0.250000X1.020000X-0.613600X1.020000X0.613600X-1.020000X0.613600X-1.020000X-0.613600X0*%
%TD*%
%TA.AperFunction,ComponentPad*%
%ADD17C,1.676400*%
%TD*%
%TA.AperFunction,ComponentPad*%
%ADD18C,1.905000*%
%TD*%
%TA.AperFunction,ComponentPad*%
%ADD19O,1.727200X1.727200*%
%TD*%
%TA.AperFunction,ComponentPad*%
%ADD20O,1.727200X2.540000*%
%TD*%
%TA.AperFunction,ComponentPad*%
%ADD21RoundRect,0.250000X0.613600X1.020000X-0.613600X1.020000X-0.613600X-1.020000X0.613600X-1.020000X0*%
%TD*%
%TA.AperFunction,ComponentPad*%
%ADD22C,1.778000*%
%TD*%
%TA.AperFunction,SMDPad,CuDef*%
%ADD23C,2.286000*%
%TD*%
%TA.AperFunction,SMDPad,CuDef*%
%ADD24R,2.286000X2.286000*%
%TD*%
%TA.AperFunction,ComponentPad*%
%ADD25C,3.302000*%
%TD*%
%TA.AperFunction,ComponentPad*%
%ADD26C,12.000000*%
%TD*%
%TA.AperFunction,SMDPad,CuDef*%
%ADD27O,18.000000X12.000000*%
%TD*%
%TA.AperFunction,ComponentPad*%
%ADD28C,1.422400*%
%TD*%
%TA.AperFunction,SMDPad,CuDef*%
%ADD29C,1.727200*%
%TD*%
%TA.AperFunction,ViaPad*%
%ADD30C,1.727200*%
%TD*%
%TA.AperFunction,Conductor*%
%ADD31C,0.508000*%
%TD*%
G04 APERTURE END LIST*
D10*
%TO.P,C18,1*%
%TO.N,/Osc Core*%
X61515000Y-84582000D03*
%TO.P,C18,2*%
%TO.N,Net-(C18-Pad2)*%
X56515000Y-84582000D03*
%TD*%
D11*
%TO.P,REF\u002A\u002A,MP*%
%TO.N,N/C*%
X30480000Y-20320000D03*
%TD*%
D12*
%TO.P,R33,1*%
%TO.N,GND*%
X52705000Y-50165000D03*
%TO.P,R33,2*%
%TO.N,Net-(Q4-B)*%
X62865000Y-50165000D03*
%TD*%
D10*
%TO.P,C19,1*%
%TO.N,Net-(U6B--)*%
X58547000Y-64429000D03*
%TO.P,C19,2*%
%TO.N,/Triangle*%
X58547000Y-69429000D03*
%TD*%
D12*
%TO.P,R8,1*%
%TO.N,Net-(C1-Pad1)*%
X61214000Y-165100000D03*
%TO.P,R8,2*%
%TO.N,Net-(Q1-E)*%
X61214000Y-154940000D03*
%TD*%
%TO.P,C15,1*%
%TO.N,GND*%
X82002000Y-84074000D03*
%TO.P,C15,2*%
%TO.N,VEE*%
X77002000Y-84074000D03*
%TD*%
%TO.P,R43,1*%
%TO.N,GND*%
X52578000Y-121158000D03*
%TO.P,R43,2*%
%TO.N,Net-(Q7-B)*%
X42418000Y-121158000D03*
%TD*%
%TO.P,R41,1*%
%TO.N,/Sine*%
X60579000Y-34160500D03*
D10*
%TO.P,R41,2*%
%TO.N,Net-(U7B--)*%
X60579000Y-31620500D03*
%TD*%
D12*
%TO.P,C3,1*%
%TO.N,Net-(C3-Pad1)*%
X79756000Y-146010000D03*
%TO.P,C3,2*%
%TO.N,Net-(U3C-+)*%
X79756000Y-141010000D03*
%TD*%
%TO.P,R16,1*%
%TO.N,/Osc Core*%
X72263000Y-115951000D03*
%TO.P,R16,2*%
%TO.N,Net-(U4A--)*%
X62103000Y-115951000D03*
%TD*%
%TO.P,R22,1*%
%TO.N,VEE*%
X86614000Y-85217000D03*
%TO.P,R22,2*%
%TO.N,Net-(R22-Pad2)*%
X96774000Y-85217000D03*
%TD*%
%TO.P,R44,1*%
%TO.N,Net-(Q6-E)*%
X39370000Y-153924000D03*
%TO.P,R44,2*%
%TO.N,Net-(Q7-E)*%
X29210000Y-153924000D03*
%TD*%
%TO.P,R32,1*%
%TO.N,Net-(R32-Pad1)*%
X60706000Y-61722000D03*
%TO.P,R32,2*%
%TO.N,VCC*%
X50546000Y-61722000D03*
%TD*%
D13*
%TO.P,Q8,1,C*%
%TO.N,Net-(Q8-C)*%
X42418000Y-134620000D03*
%TO.P,Q8,2,B*%
%TO.N,GND*%
X42418000Y-137160000D03*
D14*
%TO.P,Q8,3,E*%
%TO.N,Net-(Q7-E)*%
X42418000Y-139700000D03*
%TD*%
D10*
%TO.P,R18,1*%
%TO.N,Net-(R18-Pad1)*%
X61216500Y-127762000D03*
D12*
%TO.P,R18,2*%
%TO.N,Net-(R13-Pad1)*%
X63756500Y-127762000D03*
%TD*%
D10*
%TO.P,U4,1*%
%TO.N,Net-(SW1-C)*%
X66167000Y-97795000D03*
%TO.P,U4,2,-*%
%TO.N,Net-(U4A--)*%
X66167000Y-100335000D03*
%TO.P,U4,3,+*%
%TO.N,GND*%
X66167000Y-102875000D03*
%TO.P,U4,4,V+*%
%TO.N,VCC*%
X66167000Y-105415000D03*
%TO.P,U4,5,+*%
%TO.N,Net-(U4B-+)*%
X66167000Y-107955000D03*
%TO.P,U4,6,-*%
%TO.N,/PWM*%
X66167000Y-110495000D03*
%TO.P,U4,7*%
X66167000Y-113035000D03*
%TO.P,U4,8*%
%TO.N,Net-(RV9-Pad1)*%
X73787000Y-113035000D03*
%TO.P,U4,9,-*%
%TO.N,Net-(D1-A)*%
X73787000Y-110495000D03*
%TO.P,U4,10,+*%
%TO.N,/Osc Core*%
X73787000Y-107955000D03*
%TO.P,U4,11,V-*%
%TO.N,VEE*%
X73787000Y-105415000D03*
%TO.P,U4,12,+*%
%TO.N,GND*%
X73787000Y-102875000D03*
%TO.P,U4,13,-*%
%TO.N,Net-(U4D--)*%
X73787000Y-100335000D03*
%TO.P,U4,14*%
%TO.N,Net-(R24-Pad2)*%
X73787000Y-97795000D03*
%TD*%
D15*
%TO.P,D2,1,K*%
%TO.N,Net-(D1-K)*%
X83566000Y-110490000D03*
D12*
%TO.P,D2,2,A*%
%TO.N,GND*%
X88646000Y-110490000D03*
%TD*%
D10*
%TO.P,RV4,1,1*%
%TO.N,Net-(R5-Pad2)*%
X83820000Y-163830000D03*
%TO.P,RV4,2,2*%
%TO.N,Net-(Q1-B)*%
X83820000Y-161290000D03*
%TO.P,RV4,3,3*%
%TO.N,Net-(R6-Pad2)*%
X83820000Y-158750000D03*
%TD*%
D13*
%TO.P,Q4,1,C*%
%TO.N,Net-(Q4-C)*%
X70104000Y-46228000D03*
%TO.P,Q4,2,B*%
%TO.N,Net-(Q4-B)*%
X70104000Y-43688000D03*
D16*
%TO.P,Q4,3,E*%
%TO.N,Net-(Q4-E)*%
X70104000Y-41148000D03*
%TD*%
D12*
%TO.P,R19,1*%
%TO.N,GND*%
X64770000Y-134112000D03*
D10*
%TO.P,R19,2*%
%TO.N,Net-(R19-Pad2)*%
X62230000Y-134112000D03*
%TD*%
D16*
%TO.P,U2,1,VI*%
%TO.N,VCC*%
X65207000Y-181102000D03*
D13*
%TO.P,U2,2,GND*%
%TO.N,GND*%
X65207000Y-178562000D03*
%TO.P,U2,3,VO*%
%TO.N,Net-(U1B-+)*%
X65207000Y-176022000D03*
%TD*%
D12*
%TO.P,R26,1*%
%TO.N,VEE*%
X72390000Y-80899000D03*
%TO.P,R26,2*%
%TO.N,Net-(D3-K)*%
X62230000Y-80899000D03*
%TD*%
D11*
%TO.P,REF\u002A\u002A,MP*%
%TO.N,N/C*%
X109220000Y-20320000D03*
%TD*%
D12*
%TO.P,R36,1*%
%TO.N,Net-(Q5-B)*%
X78486000Y-49657000D03*
%TO.P,R36,2*%
%TO.N,GND*%
X88646000Y-49657000D03*
%TD*%
D13*
%TO.P,Q5,1,C*%
%TO.N,Net-(Q5-C)*%
X75184000Y-41148000D03*
%TO.P,Q5,2,B*%
%TO.N,Net-(Q5-B)*%
X75184000Y-43688000D03*
D14*
%TO.P,Q5,3,E*%
%TO.N,Net-(Q5-E)*%
X75184000Y-46228000D03*
%TD*%
D12*
%TO.P,C11,1*%
%TO.N,GND*%
X49022000Y-186730000D03*
%TO.P,C11,2*%
%TO.N,VEE*%
X49022000Y-191730000D03*
%TD*%
%TO.P,R48,1*%
%TO.N,Net-(U8B-+)*%
X47498000Y-144780000D03*
%TO.P,R48,2*%
%TO.N,Net-(Q8-C)*%
X47498000Y-134620000D03*
%TD*%
%TO.P,R3,1*%
%TO.N,Net-(Q7-C)*%
X28956000Y-131318000D03*
%TO.P,R3,2*%
%TO.N,Net-(R3-Pad2)*%
X36576000Y-131318000D03*
%TD*%
%TO.P,C5,1*%
%TO.N,GND*%
X59142000Y-182880000D03*
%TO.P,C5,2*%
%TO.N,VCC*%
X54142000Y-182880000D03*
%TD*%
D10*
%TO.P,RV5,1,1*%
%TO.N,VCC*%
X84074000Y-129032000D03*
%TO.P,RV5,2,2*%
%TO.N,Net-(U3D-+)*%
X84074000Y-131572000D03*
%TO.P,RV5,3,3*%
%TO.N,GND*%
X84074000Y-134112000D03*
%TD*%
D12*
%TO.P,R21,1*%
%TO.N,Net-(R21-Pad1)*%
X98298000Y-82550000D03*
%TO.P,R21,2*%
%TO.N,VCC*%
X90678000Y-82550000D03*
%TD*%
%TO.P,R47,1*%
%TO.N,Net-(U8B--)*%
X32258000Y-150876000D03*
%TO.P,R47,2*%
%TO.N,Net-(Q7-C)*%
X32258000Y-140716000D03*
%TD*%
D13*
%TO.P,Q3,1,S*%
%TO.N,Net-(Q2-C)*%
X59944000Y-143256000D03*
%TO.P,Q3,2,G*%
%TO.N,Net-(Q3-G)*%
X59944000Y-145796000D03*
D14*
%TO.P,Q3,3,D*%
%TO.N,Net-(Q3-D)*%
X59944000Y-148336000D03*
%TD*%
D15*
%TO.P,D3,1,K*%
%TO.N,Net-(D3-K)*%
X66040000Y-75438000D03*
D12*
%TO.P,D3,2,A*%
%TO.N,Net-(D3-A)*%
X73660000Y-75438000D03*
%TD*%
%TO.P,R7,1*%
%TO.N,Net-(U1B--)*%
X56896000Y-171450000D03*
%TO.P,R7,2*%
%TO.N,Net-(Q1-C)*%
X56896000Y-161290000D03*
%TD*%
D10*
%TO.P,R14,1*%
%TO.N,Net-(U3D--)*%
X79756000Y-133096000D03*
D12*
%TO.P,R14,2*%
%TO.N,/Osc Core*%
X79756000Y-130556000D03*
%TD*%
D13*
%TO.P,Q7,1,C*%
%TO.N,Net-(Q7-C)*%
X37698000Y-139700000D03*
%TO.P,Q7,2,B*%
%TO.N,Net-(Q7-B)*%
X37698000Y-137160000D03*
D16*
%TO.P,Q7,3,E*%
%TO.N,Net-(Q7-E)*%
X37698000Y-134620000D03*
%TD*%
D12*
%TO.P,C16,1*%
%TO.N,VCC*%
X62952000Y-72390000D03*
%TO.P,C16,2*%
%TO.N,GND*%
X57952000Y-72390000D03*
%TD*%
D13*
%TO.P,Q2,1,C*%
%TO.N,Net-(Q2-C)*%
X70612000Y-160020000D03*
%TO.P,Q2,2,B*%
%TO.N,GND*%
X70612000Y-157480000D03*
D16*
%TO.P,Q2,3,E*%
%TO.N,Net-(Q1-E)*%
X70612000Y-154940000D03*
%TD*%
D10*
%TO.P,RV9,1,1*%
%TO.N,Net-(RV9-Pad1)*%
X56896000Y-119253000D03*
%TO.P,RV9,2,2*%
%TO.N,Net-(U4B-+)*%
X56896000Y-116713000D03*
%TO.P,RV9,3,3*%
%TO.N,GND*%
X56896000Y-114173000D03*
%TD*%
D11*
%TO.P,REF\u002A\u002A,MP*%
%TO.N,N/C*%
X30480000Y-187960000D03*
%TD*%
D10*
%TO.P,U7,1*%
%TO.N,Net-(R40-Pad2)*%
X71628000Y-37211000D03*
%TO.P,U7,2,-*%
%TO.N,Net-(Q4-C)*%
X71628000Y-34671000D03*
%TO.P,U7,3,+*%
%TO.N,Net-(Q5-C)*%
X71628000Y-32131000D03*
%TO.P,U7,4,V-*%
%TO.N,VEE*%
X71628000Y-29591000D03*
%TO.P,U7,5,+*%
%TO.N,GND*%
X64008000Y-29591000D03*
%TO.P,U7,6,-*%
%TO.N,Net-(U7B--)*%
X64008000Y-32131000D03*
%TO.P,U7,7*%
%TO.N,/Sine*%
X64008000Y-34671000D03*
%TO.P,U7,8,V+*%
%TO.N,VCC*%
X64008000Y-37211000D03*
%TD*%
D12*
%TO.P,C9,1*%
%TO.N,GND*%
X84502000Y-138176000D03*
%TO.P,C9,2*%
%TO.N,VEE*%
X79502000Y-138176000D03*
%TD*%
D10*
%TO.P,C22,1*%
%TO.N,GND*%
X91400000Y-186690000D03*
%TO.P,C22,2*%
%TO.N,VCC*%
X88900000Y-186690000D03*
%TD*%
D12*
%TO.P,R10,1*%
%TO.N,Net-(Q3-D)*%
X68834000Y-148844000D03*
%TO.P,R10,2*%
%TO.N,Net-(U3C-+)*%
X78994000Y-148844000D03*
%TD*%
D10*
%TO.P,RV15,1,1*%
%TO.N,Net-(R3-Pad2)*%
X35814000Y-126492000D03*
%TO.P,RV15,2,2*%
%TO.N,VCC*%
X38354000Y-126492000D03*
%TO.P,RV15,3,3*%
%TO.N,Net-(R46-Pad2)*%
X40894000Y-126492000D03*
%TD*%
D12*
%TO.P,R9,1*%
%TO.N,Net-(Q3-G)*%
X68834000Y-151638000D03*
%TO.P,R9,2*%
%TO.N,Net-(C3-Pad1)*%
X78994000Y-151638000D03*
%TD*%
%TO.P,R1,1*%
%TO.N,Net-(R1-Pad1)*%
X103632000Y-178816000D03*
%TO.P,R1,2*%
%TO.N,Net-(U1D--)*%
X93472000Y-178816000D03*
%TD*%
%TO.P,C6,1*%
%TO.N,VCC*%
X65492000Y-170688000D03*
%TO.P,C6,2*%
%TO.N,GND*%
X60492000Y-170688000D03*
%TD*%
D10*
%TO.P,RV6,1,1*%
%TO.N,Net-(R19-Pad2)*%
X56896000Y-132842000D03*
%TO.P,RV6,2,2*%
%TO.N,Net-(U3A--)*%
X56896000Y-130302000D03*
%TO.P,RV6,3,3*%
%TO.N,Net-(R18-Pad1)*%
X56896000Y-127762000D03*
%TD*%
D12*
%TO.P,R20,1*%
%TO.N,Net-(Q6-B)*%
X32258000Y-156972000D03*
%TO.P,R20,2*%
%TO.N,Net-(R20-Pad2)*%
X39878000Y-156972000D03*
%TD*%
D10*
%TO.P,C2,1*%
%TO.N,Net-(Q3-D)*%
X65024000Y-148296000D03*
%TO.P,C2,2*%
%TO.N,Net-(Q2-C)*%
X65024000Y-143296000D03*
%TD*%
%TO.P,R37,1*%
%TO.N,Net-(Q4-E)*%
X70104000Y-49657000D03*
D17*
%TO.P,R37,2*%
%TO.N,Net-(Q5-E)*%
X75184000Y-49657000D03*
%TD*%
D10*
%TO.P,R6,1*%
%TO.N,GND*%
X88646000Y-154432000D03*
D17*
%TO.P,R6,2*%
%TO.N,Net-(R6-Pad2)*%
X83566000Y-154432000D03*
%TD*%
D10*
%TO.P,RV11,1,1*%
%TO.N,/Triangle*%
X55880000Y-54356000D03*
%TO.P,RV11,2,2*%
X58420000Y-54356000D03*
%TO.P,RV11,3,3*%
%TO.N,Net-(Q4-B)*%
X60960000Y-54356000D03*
%TD*%
D18*
%TO.P,J1,1,Pin_1*%
%TO.N,OUT*%
X62136000Y-189103000D03*
%TO.P,J1,2,Pin_2*%
%TO.N,EXP*%
X67136000Y-189103000D03*
%TO.P,J1,3,Pin_3*%
%TO.N,VEE*%
X72136000Y-189103000D03*
%TO.P,J1,4,Pin_4*%
%TO.N,GND*%
X77136000Y-189103000D03*
%TO.P,J1,5,Pin_5*%
%TO.N,VCC*%
X82136000Y-189103000D03*
%TD*%
D10*
%TO.P,R28,1*%
%TO.N,Net-(U6A--)*%
X76962000Y-69852500D03*
D12*
%TO.P,R28,2*%
%TO.N,Net-(D3-A)*%
X76962000Y-72392500D03*
%TD*%
%TO.P,R39,1*%
%TO.N,Net-(Q5-C)*%
X79248000Y-37338000D03*
%TO.P,R39,2*%
%TO.N,GND*%
X89408000Y-37338000D03*
%TD*%
D10*
%TO.P,R5,1*%
%TO.N,Net-(U1D--)*%
X79502000Y-166367500D03*
D12*
%TO.P,R5,2*%
%TO.N,Net-(R5-Pad2)*%
X79502000Y-163827500D03*
%TD*%
%TO.P,C1,1*%
%TO.N,Net-(C1-Pad1)*%
X64770000Y-161330000D03*
%TO.P,C1,2*%
%TO.N,Net-(Q1-C)*%
X64770000Y-166330000D03*
%TD*%
%TO.P,R51,1*%
%TO.N,Net-(Q6-B)*%
X29210000Y-156972000D03*
%TO.P,R51,2*%
%TO.N,Net-(U8A--)*%
X29210000Y-167132000D03*
%TD*%
D10*
%TO.P,U8,1*%
%TO.N,Net-(U8A--)*%
X29210000Y-170180000D03*
%TO.P,U8,2,-*%
X29210000Y-172720000D03*
%TO.P,U8,3,+*%
%TO.N,Net-(U8A-+)*%
X29210000Y-175260000D03*
%TO.P,U8,4,V-*%
%TO.N,VEE*%
X29210000Y-177800000D03*
%TO.P,U8,5,+*%
%TO.N,Net-(U8B-+)*%
X36830000Y-177800000D03*
%TO.P,U8,6,-*%
%TO.N,Net-(U8B--)*%
X36830000Y-175260000D03*
%TO.P,U8,7*%
%TO.N,OUT*%
X36830000Y-172720000D03*
%TO.P,U8,8,V+*%
%TO.N,VCC*%
X36830000Y-170180000D03*
%TD*%
D12*
%TO.P,R35,1*%
%TO.N,Net-(Q5-C)*%
X80518000Y-41148000D03*
%TO.P,R35,2*%
%TO.N,VCC*%
X90678000Y-41148000D03*
%TD*%
%TO.P,C20,1*%
%TO.N,VCC*%
X60793000Y-37211000D03*
%TO.P,C20,2*%
%TO.N,GND*%
X55793000Y-37211000D03*
%TD*%
D10*
%TO.P,R20,1*%
%TO.N,Net-(U5B--)*%
X79502000Y-95250000D03*
D17*
%TO.P,R20,2*%
%TO.N,Net-(U4D--)*%
X79502000Y-100330000D03*
%TD*%
D10*
%TO.P,U1,1*%
%TO.N,Net-(C1-Pad1)*%
X68834000Y-163835000D03*
%TO.P,U1,2,-*%
%TO.N,Net-(Q1-C)*%
X68834000Y-166375000D03*
%TO.P,U1,3,+*%
%TO.N,GND*%
X68834000Y-168915000D03*
%TO.P,U1,4,V+*%
%TO.N,VCC*%
X68834000Y-171455000D03*
%TO.P,U1,5,+*%
%TO.N,Net-(U1B-+)*%
X68834000Y-173995000D03*
%TO.P,U1,6,-*%
%TO.N,Net-(U1B--)*%
X68834000Y-176535000D03*
%TO.P,U1,7*%
X68834000Y-179075000D03*
%TO.P,U1,8*%
%TO.N,Net-(U1C--)*%
X76454000Y-179075000D03*
%TO.P,U1,9,-*%
X76454000Y-176535000D03*
%TO.P,U1,10,+*%
%TO.N,Net-(U1C-+)*%
X76454000Y-173995000D03*
%TO.P,U1,11,V-*%
%TO.N,VEE*%
X76454000Y-171455000D03*
%TO.P,U1,12,+*%
%TO.N,GND*%
X76454000Y-168915000D03*
%TO.P,U1,13,-*%
%TO.N,Net-(U1D--)*%
X76454000Y-166375000D03*
%TO.P,U1,14*%
%TO.N,Net-(R5-Pad2)*%
X76454000Y-163835000D03*
%TD*%
D11*
%TO.P,REF\u002A\u002A,MP*%
%TO.N,N/C*%
X69850000Y-121158000D03*
%TD*%
D12*
%TO.P,C21,1*%
%TO.N,GND*%
X79716000Y-29591000D03*
%TO.P,C21,2*%
%TO.N,VEE*%
X74716000Y-29591000D03*
%TD*%
%TO.P,R46,1*%
%TO.N,Net-(Q8-C)*%
X47498000Y-131318000D03*
%TO.P,R46,2*%
%TO.N,Net-(R46-Pad2)*%
X39878000Y-131318000D03*
%TD*%
%TO.P,C13,1*%
%TO.N,GND*%
X82002000Y-105410000D03*
%TO.P,C13,2*%
%TO.N,VEE*%
X77002000Y-105410000D03*
%TD*%
%TO.P,R38,1*%
%TO.N,VEE*%
X86614000Y-60452000D03*
%TO.P,R38,2*%
%TO.N,Net-(R38-Pad2)*%
X76454000Y-60452000D03*
%TD*%
%TO.P,R15,1*%
%TO.N,Net-(U1B-+)*%
X60452000Y-174752000D03*
%TO.P,R15,2*%
%TO.N,GND*%
X52832000Y-174752000D03*
%TD*%
%TO.P,R29,1*%
%TO.N,Net-(U6A--)*%
X79756000Y-69850000D03*
%TO.P,R29,2*%
%TO.N,/Osc Core*%
X79756000Y-77470000D03*
%TD*%
D15*
%TO.P,D1,1,K*%
%TO.N,Net-(D1-K)*%
X78994000Y-110490000D03*
D19*
%TO.P,D1,2,A*%
%TO.N,Net-(D1-A)*%
X76454000Y-110490000D03*
%TD*%
D12*
%TO.P,R50,1*%
%TO.N,OUT*%
X44450000Y-180975000D03*
%TO.P,R50,2*%
%TO.N,Net-(U8B--)*%
X36830000Y-180975000D03*
%TD*%
%TO.P,R23,1*%
%TO.N,Net-(U5A--)*%
X82042000Y-90170000D03*
%TO.P,R23,2*%
%TO.N,Net-(U4D--)*%
X82042000Y-100330000D03*
%TD*%
%TO.P,R49,1*%
%TO.N,Net-(U8B-+)*%
X42545000Y-171323000D03*
%TO.P,R49,2*%
%TO.N,GND*%
X52705000Y-171323000D03*
%TD*%
D10*
%TO.P,C23,1*%
%TO.N,VEE*%
X99020000Y-186690000D03*
%TO.P,C23,2*%
%TO.N,GND*%
X96520000Y-186690000D03*
%TD*%
%TO.P,R4,1*%
%TO.N,Net-(U1C--)*%
X77975500Y-182118000D03*
D12*
%TO.P,R4,2*%
%TO.N,Net-(U1D--)*%
X75435500Y-182118000D03*
%TD*%
D11*
%TO.P,REF\u002A\u002A,MP*%
%TO.N,N/C*%
X109220000Y-187960000D03*
%TD*%
D12*
%TO.P,R27,1*%
%TO.N,Net-(D3-K)*%
X59055000Y-81534000D03*
D10*
%TO.P,R27,2*%
%TO.N,Net-(C18-Pad2)*%
X56515000Y-81534000D03*
%TD*%
%TO.P,R31,1*%
%TO.N,Net-(U6B--)*%
X62484000Y-66931500D03*
D12*
%TO.P,R31,2*%
%TO.N,/Triangle*%
X62484000Y-69471500D03*
%TD*%
D10*
%TO.P,RV13,1,1*%
%TO.N,Net-(R40-Pad2)*%
X69683000Y-24511000D03*
%TO.P,RV13,2,2*%
X67143000Y-24511000D03*
%TO.P,RV13,3,3*%
%TO.N,Net-(U7B--)*%
X64603000Y-24511000D03*
%TD*%
%TO.P,U6,1*%
%TO.N,Net-(D3-A)*%
X73660000Y-72390000D03*
%TO.P,U6,2,-*%
%TO.N,Net-(U6A--)*%
X73660000Y-69850000D03*
%TO.P,U6,3,+*%
%TO.N,GND*%
X73660000Y-67310000D03*
%TO.P,U6,4,V-*%
%TO.N,VEE*%
X73660000Y-64770000D03*
%TO.P,U6,5,+*%
%TO.N,Net-(U6B-+)*%
X66040000Y-64770000D03*
%TO.P,U6,6,-*%
%TO.N,Net-(U6B--)*%
X66040000Y-67310000D03*
%TO.P,U6,7*%
%TO.N,/Triangle*%
X66040000Y-69850000D03*
%TO.P,U6,8,V+*%
%TO.N,VCC*%
X66040000Y-72390000D03*
%TD*%
D12*
%TO.P,C7,1*%
%TO.N,GND*%
X84542000Y-171450000D03*
%TO.P,C7,2*%
%TO.N,VEE*%
X79542000Y-171450000D03*
%TD*%
%TO.P,R2,1*%
%TO.N,Net-(R2-Pad1)*%
X104140000Y-151384000D03*
%TO.P,R2,2*%
%TO.N,Net-(U1D--)*%
X93980000Y-151384000D03*
%TD*%
%TO.P,C8,1*%
%TO.N,VCC*%
X65786000Y-138176000D03*
%TO.P,C8,2*%
%TO.N,GND*%
X60786000Y-138176000D03*
%TD*%
D10*
%TO.P,U5,1*%
%TO.N,Net-(U5A--)*%
X73660000Y-91694000D03*
%TO.P,U5,2,-*%
X73660000Y-89154000D03*
%TO.P,U5,3,+*%
%TO.N,Net-(U5A-+)*%
X73660000Y-86614000D03*
%TO.P,U5,4,V-*%
%TO.N,VEE*%
X73660000Y-84074000D03*
%TO.P,U5,5,+*%
%TO.N,GND*%
X66040000Y-84074000D03*
%TO.P,U5,6,-*%
%TO.N,Net-(U5B--)*%
X66040000Y-86614000D03*
%TO.P,U5,7*%
X66040000Y-89154000D03*
%TO.P,U5,8,V+*%
%TO.N,VCC*%
X66040000Y-91694000D03*
%TD*%
D12*
%TO.P,R11,1*%
%TO.N,Net-(U3C--)*%
X83058000Y-146304000D03*
%TO.P,R11,2*%
%TO.N,VCC*%
X90678000Y-146304000D03*
%TD*%
%TO.P,C17,1*%
%TO.N,GND*%
X81748000Y-64770000D03*
%TO.P,C17,2*%
%TO.N,VEE*%
X76748000Y-64770000D03*
%TD*%
%TO.P,R34,1*%
%TO.N,Net-(Q4-C)*%
X60706000Y-46228000D03*
%TO.P,R34,2*%
%TO.N,VCC*%
X50546000Y-46228000D03*
%TD*%
%TO.P,R13,1*%
%TO.N,Net-(R13-Pad1)*%
X67310000Y-127254000D03*
%TO.P,R13,2*%
%TO.N,Net-(U3D--)*%
X77470000Y-127254000D03*
%TD*%
%TO.P,C14,1*%
%TO.N,VCC*%
X62952000Y-91694000D03*
%TO.P,C14,2*%
%TO.N,GND*%
X57952000Y-91694000D03*
%TD*%
D10*
%TO.P,RV14,1,1*%
%TO.N,VCC*%
X46990000Y-154432000D03*
%TO.P,RV14,2,2*%
%TO.N,Net-(R20-Pad2)*%
X46990000Y-156972000D03*
%TO.P,RV14,3,3*%
%TO.N,VEE*%
X46990000Y-159512000D03*
%TD*%
%TO.P,U3,1*%
%TO.N,Net-(R13-Pad1)*%
X68834000Y-130561000D03*
%TO.P,U3,2,-*%
%TO.N,Net-(U3A--)*%
X68834000Y-133101000D03*
%TO.P,U3,3,+*%
%TO.N,Net-(Q3-D)*%
X68834000Y-135641000D03*
%TO.P,U3,4,V+*%
%TO.N,VCC*%
X68834000Y-138181000D03*
%TO.P,U3,5,+*%
%TO.N,GND*%
X68834000Y-140721000D03*
%TO.P,U3,6,-*%
%TO.N,Net-(Q2-C)*%
X68834000Y-143261000D03*
%TO.P,U3,7*%
%TO.N,Net-(Q3-D)*%
X68834000Y-145801000D03*
%TO.P,U3,8*%
%TO.N,Net-(C3-Pad1)*%
X76454000Y-145801000D03*
%TO.P,U3,9,-*%
%TO.N,Net-(U3C--)*%
X76454000Y-143261000D03*
%TO.P,U3,10,+*%
%TO.N,Net-(U3C-+)*%
X76454000Y-140721000D03*
%TO.P,U3,11,V-*%
%TO.N,VEE*%
X76454000Y-138181000D03*
%TO.P,U3,12,+*%
%TO.N,Net-(U3D-+)*%
X76454000Y-135641000D03*
%TO.P,U3,13,-*%
%TO.N,Net-(U3D--)*%
X76454000Y-133101000D03*
%TO.P,U3,14*%
%TO.N,/Osc Core*%
X76454000Y-130561000D03*
%TD*%
%TO.P,RV10,1,1*%
%TO.N,Net-(R32-Pad1)*%
X64810000Y-60198000D03*
%TO.P,RV10,2,2*%
%TO.N,Net-(U6B-+)*%
X67350000Y-60198000D03*
%TO.P,RV10,3,3*%
%TO.N,GND*%
X69890000Y-60198000D03*
%TD*%
D20*
%TO.P,Q6,1,C*%
%TO.N,GND*%
X47752000Y-148590000D03*
%TO.P,Q6,2,B*%
%TO.N,Net-(Q6-B)*%
X45212000Y-148590000D03*
D21*
%TO.P,Q6,3,E*%
%TO.N,Net-(Q6-E)*%
X42672000Y-148590000D03*
%TD*%
D12*
%TO.P,C4,1*%
%TO.N,GND*%
X54904000Y-178054000D03*
%TO.P,C4,2*%
%TO.N,Net-(U1B-+)*%
X59904000Y-178054000D03*
%TD*%
D10*
%TO.P,R24,1*%
%TO.N,Net-(U4D--)*%
X76708000Y-100330000D03*
D12*
%TO.P,R24,2*%
%TO.N,Net-(R24-Pad2)*%
X76708000Y-97790000D03*
%TD*%
D15*
%TO.P,D4,1,K*%
%TO.N,Net-(D3-K)*%
X66040000Y-77978000D03*
D12*
%TO.P,D4,2,A*%
%TO.N,/Osc Core*%
X73660000Y-77978000D03*
%TD*%
%TO.P,R25,1*%
%TO.N,Net-(R24-Pad2)*%
X84582000Y-97536000D03*
%TO.P,R25,2*%
%TO.N,Net-(D1-A)*%
X84582000Y-107696000D03*
%TD*%
D10*
%TO.P,R12,1*%
%TO.N,Net-(U3C--)*%
X83566000Y-143256000D03*
D17*
%TO.P,R12,2*%
%TO.N,GND*%
X88646000Y-143256000D03*
%TD*%
D13*
%TO.P,Q1,1,C*%
%TO.N,Net-(Q1-C)*%
X75692000Y-154940000D03*
%TO.P,Q1,2,B*%
%TO.N,Net-(Q1-B)*%
X75692000Y-157480000D03*
D14*
%TO.P,Q1,3,E*%
%TO.N,Net-(Q1-E)*%
X75692000Y-160020000D03*
%TD*%
D12*
%TO.P,R30,1*%
%TO.N,Net-(D3-K)*%
X54864000Y-76073000D03*
%TO.P,R30,2*%
%TO.N,Net-(U6B--)*%
X54864000Y-65913000D03*
%TD*%
%TO.P,C10,1*%
%TO.N,VCC*%
X47752000Y-166624000D03*
%TO.P,C10,2*%
%TO.N,GND*%
X52752000Y-166624000D03*
%TD*%
D10*
%TO.P,RV12,1,1*%
%TO.N,Net-(Q5-E)*%
X75184000Y-54483000D03*
%TO.P,RV12,2,2*%
%TO.N,Net-(R38-Pad2)*%
X72644000Y-54483000D03*
%TO.P,RV12,3,3*%
%TO.N,Net-(Q4-E)*%
X70104000Y-54483000D03*
%TD*%
%TO.P,R17,1*%
%TO.N,Net-(U4A--)*%
X62738000Y-100330000D03*
D12*
%TO.P,R17,2*%
%TO.N,Net-(SW1-C)*%
X62738000Y-97790000D03*
%TD*%
%TO.P,R45,1*%
%TO.N,VEE*%
X42672000Y-164084000D03*
%TO.P,R45,2*%
%TO.N,Net-(Q6-E)*%
X42672000Y-153924000D03*
%TD*%
%TO.P,R40,1*%
%TO.N,Net-(Q4-C)*%
X74803000Y-34673500D03*
D10*
%TO.P,R40,2*%
%TO.N,Net-(R40-Pad2)*%
X74803000Y-37213500D03*
%TD*%
D12*
%TO.P,R42,1*%
%TO.N,Net-(Q7-B)*%
X42418000Y-117602000D03*
%TO.P,R42,2*%
%TO.N,Net-(R42-Pad2)*%
X32258000Y-117602000D03*
%TD*%
%TO.P,C12,1*%
%TO.N,VCC*%
X61214000Y-105450000D03*
%TO.P,C12,2*%
%TO.N,GND*%
X61214000Y-110450000D03*
%TD*%
D22*
%TO.P,RV16,1,1*%
%TO.N,GND*%
X106680000Y-46020000D03*
D23*
X106680000Y-46020000D03*
D22*
%TO.P,RV16,2,2*%
%TO.N,Net-(U8A-+)*%
X101600000Y-46020000D03*
D23*
X101600000Y-46020000D03*
D22*
%TO.P,RV16,3,3*%
%TO.N,EXP*%
X96520000Y-46020000D03*
D24*
X96520000Y-46020000D03*
D25*
%TO.P,RV16,MP*%
%TO.N,N/C*%
X109600000Y-33020000D03*
D26*
X101600000Y-33020000D03*
D27*
X101600000Y-33020000D03*
%TD*%
D28*
%TO.P,SW1,1,A*%
%TO.N,/Osc Core*%
X56388000Y-104140000D03*
D29*
X56388000Y-104140000D03*
D28*
%TO.P,SW1,2,B*%
%TO.N,/Sawtooth*%
X56388000Y-101600000D03*
D29*
X56388000Y-101600000D03*
D28*
%TO.P,SW1,3,C*%
%TO.N,Net-(SW1-C)*%
X56388000Y-99060000D03*
D29*
X56388000Y-99060000D03*
%TD*%
D22*
%TO.P,RV1,1,1*%
%TO.N,VEE*%
X106680000Y-147620000D03*
D23*
X106680000Y-147620000D03*
D22*
%TO.P,RV1,2,2*%
%TO.N,Net-(R2-Pad1)*%
X101600000Y-147620000D03*
D23*
X101600000Y-147620000D03*
D22*
%TO.P,RV1,3,3*%
%TO.N,VCC*%
X96520000Y-147620000D03*
D24*
X96520000Y-147620000D03*
D25*
%TO.P,RV1,MP*%
%TO.N,N/C*%
X109600000Y-134620000D03*
D26*
X101600000Y-134620000D03*
D27*
X101600000Y-134620000D03*
%TD*%
D22*
%TO.P,RV3,1,1*%
%TO.N,GND*%
X106680000Y-119680000D03*
D23*
X106680000Y-119680000D03*
D22*
%TO.P,RV3,2,2*%
%TO.N,Net-(U1C-+)*%
X101600000Y-119680000D03*
D23*
X101600000Y-119680000D03*
D22*
%TO.P,RV3,3,3*%
%TO.N,EXP*%
X96520000Y-119680000D03*
D24*
X96520000Y-119680000D03*
D25*
%TO.P,RV3,MP*%
%TO.N,N/C*%
X109600000Y-106680000D03*
D26*
X101600000Y-106680000D03*
D27*
X101600000Y-106680000D03*
%TD*%
D22*
%TO.P,RV2,1,1*%
%TO.N,VEE*%
X106680000Y-175560000D03*
D23*
X106680000Y-175560000D03*
D22*
%TO.P,RV2,2,2*%
%TO.N,Net-(R1-Pad1)*%
X101600000Y-175560000D03*
D23*
X101600000Y-175560000D03*
D22*
%TO.P,RV2,3,3*%
%TO.N,VCC*%
X96520000Y-175560000D03*
D24*
X96520000Y-175560000D03*
D25*
%TO.P,RV2,MP*%
%TO.N,N/C*%
X109600000Y-162560000D03*
D26*
X101600000Y-162560000D03*
D27*
X101600000Y-162560000D03*
%TD*%
D22*
%TO.P,RV8,1,1*%
%TO.N,Net-(R22-Pad2)*%
X106680000Y-79040000D03*
D23*
X106680000Y-79040000D03*
D22*
%TO.P,RV8,2,2*%
%TO.N,Net-(U5A-+)*%
X101600000Y-79040000D03*
D23*
X101600000Y-79040000D03*
D22*
%TO.P,RV8,3,3*%
%TO.N,Net-(R21-Pad1)*%
X96520000Y-79040000D03*
D24*
X96520000Y-79040000D03*
D25*
%TO.P,RV8,MP*%
%TO.N,N/C*%
X109600000Y-66040000D03*
D26*
X101600000Y-66040000D03*
D27*
X101600000Y-66040000D03*
%TD*%
D28*
%TO.P,SW2,1*%
%TO.N,/PWM*%
X38100000Y-71120000D03*
D29*
X38100000Y-71120000D03*
D28*
%TO.P,SW2,2*%
%TO.N,/Sawtooth*%
X38100000Y-68580000D03*
D29*
X38100000Y-68580000D03*
D28*
%TO.P,SW2,3*%
%TO.N,/Triangle*%
X38100000Y-60960000D03*
D29*
X38100000Y-60960000D03*
D28*
%TO.P,SW2,4*%
%TO.N,/Sine*%
X38100000Y-58420000D03*
D29*
X38100000Y-58420000D03*
D28*
%TO.P,SW2,5*%
%TO.N,Net-(R42-Pad2)*%
X38100000Y-63500000D03*
D29*
X38100000Y-63500000D03*
%TD*%
D30*
%TO.N,Net-(Q1-C)*%
X72644000Y-163830000D03*
%TO.N,GND*%
X88646000Y-171450000D03*
X106680000Y-49530000D03*
X88646000Y-105410000D03*
X52679600Y-157480000D03*
X88551001Y-64675001D03*
X88646000Y-138176000D03*
X82931000Y-183515000D03*
X88646000Y-81026000D03*
X92710000Y-114300000D03*
%TO.N,VCC*%
X50561633Y-154432000D03*
X50561633Y-80645000D03*
X50561633Y-94234000D03*
X36790000Y-166624000D03*
X50561633Y-136144000D03*
X50561633Y-108712000D03*
X90678000Y-129032000D03*
X86360000Y-183642000D03*
%TO.N,VEE*%
X101808000Y-142748000D03*
X96640527Y-170821473D03*
X86614000Y-149352000D03*
X80643233Y-182411489D03*
X86614000Y-173609000D03*
X29210000Y-181102000D03*
%TO.N,/Osc Core*%
X70358000Y-105918000D03*
%TO.N,/Triangle*%
X48514000Y-54356000D03*
%TO.N,Net-(U1B--)*%
X71981100Y-179069681D03*
%TO.N,Net-(U5A-+)*%
X101600000Y-82677000D03*
%TO.N,EXP*%
X88900000Y-191770000D03*
%TO.N,/Sawtooth*%
X48006000Y-110744000D03*
X54610000Y-110744000D03*
%TO.N,/PWM*%
X45563727Y-111441792D03*
%TO.N,Net-(RV9-Pad1)*%
X60960000Y-119126000D03*
X70612000Y-113030000D03*
%TO.N,Net-(U1C-+)*%
X104775000Y-123190000D03*
%TO.N,Net-(U4A--)*%
X62738000Y-102870000D03*
%TO.N,Net-(U8A-+)*%
X26670000Y-175260000D03*
%TD*%
D31*
%TO.N,Net-(Q2-C)*%
X58547000Y-143256000D02*
X59944000Y-143256000D01*
X58674000Y-151130000D02*
X57150000Y-149606000D01*
X57150000Y-149606000D02*
X57150000Y-144653000D01*
X70205600Y-160020000D02*
X61315600Y-151130000D01*
X57150000Y-144653000D02*
X58547000Y-143256000D01*
X70612000Y-160020000D02*
X70205600Y-160020000D01*
X61315600Y-151130000D02*
X58674000Y-151130000D01*
%TO.N,Net-(Q1-C)*%
X72644000Y-156718000D02*
X74422000Y-154940000D01*
X74422000Y-154940000D02*
X75692000Y-154940000D01*
X72644000Y-163830000D02*
X72644000Y-156718000D01*
%TO.N,GND*%
X88646000Y-81026000D02*
X88646000Y-64770000D01*
X88646000Y-138176000D02*
X88646000Y-105410000D01*
X101300000Y-114300000D02*
X106680000Y-119680000D01*
X64770000Y-134112000D02*
X64770000Y-134192000D01*
X88646000Y-105410000D02*
X88646000Y-81026000D01*
X52752000Y-171276000D02*
X52705000Y-171323000D01*
X52679600Y-166551600D02*
X52679600Y-157480000D01*
X52679600Y-138176000D02*
X52679600Y-121920000D01*
X88646000Y-177800000D02*
X88646000Y-171450000D01*
X52705000Y-171323000D02*
X52705000Y-174625000D01*
X52679600Y-91694000D02*
X52679600Y-72390000D01*
X81661000Y-29591000D02*
X89408000Y-37338000D01*
X62472200Y-185622200D02*
X80823800Y-185622200D01*
X52832000Y-175677200D02*
X54904000Y-177749200D01*
X64770000Y-134192000D02*
X60786000Y-138176000D01*
X52832000Y-174752000D02*
X52832000Y-175677200D01*
X92710000Y-114300000D02*
X101300000Y-114300000D01*
X52679600Y-114300000D02*
X52679600Y-91694000D01*
X52752000Y-166624000D02*
X52752000Y-171276000D01*
X52679600Y-72390000D02*
X52679600Y-40324400D01*
X88646000Y-64770000D02*
X88551001Y-64675001D01*
X80823800Y-185622200D02*
X88646000Y-177800000D01*
X52679600Y-121920000D02*
X52679600Y-114300000D01*
X88746600Y-64479402D02*
X88746600Y-40347987D01*
X106680000Y-46020000D02*
X106680000Y-49530000D01*
X52705000Y-174625000D02*
X52832000Y-174752000D01*
X52679600Y-40324400D02*
X55793000Y-37211000D01*
X54904000Y-178054000D02*
X62472200Y-185622200D01*
X52752000Y-166624000D02*
X52679600Y-166551600D01*
X79716000Y-29591000D02*
X81661000Y-29591000D01*
X88646000Y-171450000D02*
X88646000Y-138176000D01*
X60786000Y-138176000D02*
X52679600Y-138176000D01*
X54904000Y-177749200D02*
X54904000Y-178054000D01*
X52679600Y-157480000D02*
X52679600Y-138176000D01*
X88551001Y-64675001D02*
X88746600Y-64479402D01*
X57952000Y-72390000D02*
X52679600Y-72390000D01*
X89408000Y-39686587D02*
X89408000Y-37338000D01*
X57952000Y-91694000D02*
X52679600Y-91694000D01*
X88746600Y-40347987D02*
X89408000Y-39686587D01*
%TO.N,VCC*%
X90678000Y-129032000D02*
X90678000Y-41148000D01*
X47752000Y-166624000D02*
X50561633Y-166624000D01*
X83058000Y-186944000D02*
X90678000Y-179324000D01*
X50561633Y-80645000D02*
X50561633Y-94234000D01*
X95204000Y-146304000D02*
X96520000Y-147620000D01*
X36790000Y-166624000D02*
X36790000Y-166878000D01*
X50561633Y-166624000D02*
X50561633Y-177800000D01*
X65492000Y-171450000D02*
X65492000Y-172252000D01*
X54102000Y-34290000D02*
X57150000Y-34290000D01*
X90678000Y-179324000D02*
X90678000Y-175514000D01*
X90678000Y-152400000D02*
X90678000Y-129032000D01*
X50561633Y-108712000D02*
X50561633Y-136144000D01*
X58166000Y-186944000D02*
X83058000Y-186944000D01*
X90678000Y-146304000D02*
X95204000Y-146304000D01*
X47752000Y-166624000D02*
X36790000Y-166624000D01*
X60071000Y-37211000D02*
X60793000Y-37211000D01*
X64353500Y-181102000D02*
X65207000Y-181102000D01*
X50561633Y-136144000D02*
X50561633Y-154432000D01*
X50561633Y-154432000D02*
X50561633Y-166624000D01*
X62484000Y-179232500D02*
X64353500Y-181102000D01*
X90724000Y-175560000D02*
X90678000Y-175514000D01*
X50561633Y-80645000D02*
X50561633Y-38592367D01*
X50561633Y-177800000D02*
X50561633Y-179339633D01*
X50546000Y-37846000D02*
X54102000Y-34290000D01*
X90678000Y-167894000D02*
X90678000Y-152400000D01*
X50561633Y-94234000D02*
X50561633Y-108712000D01*
X50561633Y-38592367D02*
X50546000Y-38576734D01*
X65492000Y-172252000D02*
X62484000Y-175260000D01*
X90678000Y-175514000D02*
X90678000Y-167894000D01*
X62484000Y-175260000D02*
X62484000Y-179232500D01*
X50546000Y-38576734D02*
X50546000Y-37846000D01*
X57150000Y-34290000D02*
X60071000Y-37211000D01*
X50561633Y-179339633D02*
X58166000Y-186944000D01*
X96520000Y-175560000D02*
X90724000Y-175560000D01*
%TO.N,VEE*%
X86614000Y-173609000D02*
X86614000Y-173482000D01*
X86614000Y-140208000D02*
X86614000Y-103378000D01*
X86614000Y-176530000D02*
X86614000Y-173609000D01*
X86614000Y-173482000D02*
X86614000Y-153924000D01*
X76748000Y-64770000D02*
X78679400Y-66701400D01*
X33020000Y-177292000D02*
X33020000Y-167662587D01*
X81574000Y-173482000D02*
X86614000Y-173482000D01*
X80705344Y-182438656D02*
X86614000Y-176530000D01*
X81770587Y-138176000D02*
X83802587Y-140208000D01*
X79542000Y-171450000D02*
X81574000Y-173482000D01*
X79034000Y-103378000D02*
X86614000Y-103378000D01*
X29374738Y-181102000D02*
X40002738Y-191730000D01*
X77002000Y-105410000D02*
X79034000Y-103378000D01*
X78679400Y-66701400D02*
X86587600Y-66701400D01*
X86614000Y-66675000D02*
X86614000Y-41489000D01*
X86614000Y-149352000D02*
X86614000Y-140208000D01*
X96640527Y-170821473D02*
X101941473Y-170821473D01*
X86587600Y-66701400D02*
X86614000Y-66675000D01*
X86614000Y-41489000D02*
X74716000Y-29591000D01*
X79502000Y-138176000D02*
X81770587Y-138176000D01*
X83802587Y-140208000D02*
X86614000Y-140208000D01*
X80643233Y-182411489D02*
X80705344Y-182473600D01*
X36598587Y-164084000D02*
X42672000Y-164084000D01*
X101808000Y-142748000D02*
X106680000Y-147620000D01*
X86614000Y-103378000D02*
X86614000Y-66675000D01*
X33020000Y-167662587D02*
X36598587Y-164084000D01*
X40002738Y-191730000D02*
X49022000Y-191730000D01*
X101941473Y-170821473D02*
X106680000Y-175560000D01*
X29210000Y-181102000D02*
X33020000Y-177292000D01*
X80705344Y-182473600D02*
X80705344Y-182438656D01*
X29210000Y-181102000D02*
X29374738Y-181102000D01*
X86614000Y-153924000D02*
X86614000Y-149352000D01*
%TO.N,/Osc Core*%
X56388000Y-104140000D02*
X58370200Y-106122200D01*
X64425187Y-125322600D02*
X78270013Y-125322600D01*
X58370200Y-119267613D02*
X64425187Y-125322600D01*
X68070314Y-79248000D02*
X70358000Y-79248000D01*
X58370200Y-106122200D02*
X58370200Y-119267613D01*
X62736314Y-84582000D02*
X68070314Y-79248000D01*
X79756000Y-126808587D02*
X79756000Y-130556000D01*
X71628000Y-77978000D02*
X73660000Y-77978000D01*
X70358000Y-105918000D02*
X70358000Y-79248000D01*
X61515000Y-84582000D02*
X62736314Y-84582000D01*
X78270013Y-125322600D02*
X79756000Y-126808587D01*
X70358000Y-79248000D02*
X71628000Y-77978000D01*
%TO.N,/Triangle*%
X48514000Y-54356000D02*
X48260000Y-54356000D01*
X41656000Y-60960000D02*
X38100000Y-60960000D01*
X48260000Y-54356000D02*
X41656000Y-60960000D01*
%TO.N,Net-(Q3-G)*%
X62992000Y-147878800D02*
X62992000Y-149352000D01*
X65278000Y-151638000D02*
X68834000Y-151638000D01*
X60909200Y-145796000D02*
X62992000Y-147878800D01*
X62992000Y-149352000D02*
X65278000Y-151638000D01*
X59944000Y-145796000D02*
X60909200Y-145796000D01*
%TO.N,Net-(Q4-C)*%
X76024314Y-34673500D02*
X74803000Y-34673500D01*
X70701812Y-46228000D02*
X72846200Y-44083612D01*
X70104000Y-46228000D02*
X70701812Y-46228000D01*
X73977588Y-39216600D02*
X76173600Y-39216600D01*
X76734400Y-35383586D02*
X76024314Y-34673500D01*
X60706000Y-46228000D02*
X70104000Y-46228000D01*
X72846200Y-44083612D02*
X72846200Y-40347988D01*
X76734400Y-38708600D02*
X76734400Y-35383586D01*
X76200000Y-39243000D02*
X76734400Y-38708600D01*
X76173600Y-39216600D02*
X76200000Y-39243000D01*
X72846200Y-40347988D02*
X73977588Y-39216600D01*
%TO.N,Net-(R1-Pad1)*%
X101600000Y-175560000D02*
X101600000Y-176784000D01*
X101600000Y-176784000D02*
X103632000Y-178816000D01*
%TO.N,Net-(R2-Pad1)*%
X101600000Y-148844000D02*
X104140000Y-151384000D01*
X101600000Y-147620000D02*
X101600000Y-148844000D01*
%TO.N,Net-(U1B--)*%
X56896000Y-177800000D02*
X56896000Y-171450000D01*
X71981419Y-179097581D02*
X67564000Y-183515000D01*
X67564000Y-183515000D02*
X62611000Y-183515000D01*
X71981100Y-179069681D02*
X72009000Y-179097581D01*
X72009000Y-179097581D02*
X71981419Y-179097581D01*
X62611000Y-183515000D02*
X56896000Y-177800000D01*
%TO.N,Net-(SW1-C)*%
X57658000Y-97790000D02*
X56388000Y-99060000D01*
X62738000Y-97790000D02*
X57658000Y-97790000D01*
%TO.N,Net-(R21-Pad1)*%
X96520000Y-79040000D02*
X96520000Y-80772000D01*
X96520000Y-80772000D02*
X98298000Y-82550000D01*
%TO.N,Net-(R22-Pad2)*%
X102616000Y-85217000D02*
X106680000Y-81153000D01*
X106680000Y-81153000D02*
X106680000Y-79040000D01*
X96774000Y-85217000D02*
X102616000Y-85217000D01*
%TO.N,/Sine*%
X58866087Y-32639000D02*
X60387587Y-34160500D01*
X60387587Y-34160500D02*
X60579000Y-34160500D01*
X38100000Y-58420000D02*
X38100000Y-48422693D01*
X38100000Y-48422693D02*
X53883693Y-32639000D01*
X53883693Y-32639000D02*
X58866087Y-32639000D01*
%TO.N,Net-(R42-Pad2)*%
X38100000Y-63500000D02*
X32258000Y-69342000D01*
X32258000Y-69342000D02*
X32258000Y-117602000D01*
%TO.N,Net-(U5A-+)*%
X101600000Y-79040000D02*
X101600000Y-82677000D01*
%TO.N,EXP*%
X88900000Y-191770000D02*
X99060000Y-191770000D01*
X96520000Y-46020000D02*
X113538000Y-63038000D01*
X101656600Y-124816600D02*
X113435400Y-124816600D01*
X113538000Y-124714000D02*
X113538000Y-119380000D01*
X99060000Y-191770000D02*
X113538000Y-177292000D01*
X113538000Y-177292000D02*
X113538000Y-124714000D01*
X96520000Y-119680000D02*
X101656600Y-124816600D01*
X113538000Y-63038000D02*
X113538000Y-119380000D01*
X113435400Y-124816600D02*
X113538000Y-124714000D01*
%TO.N,/Sawtooth*%
X54470200Y-110604200D02*
X54610000Y-110744000D01*
X56388000Y-101600000D02*
X56215821Y-101600000D01*
X48006000Y-78313821D02*
X38272179Y-68580000D01*
X54470200Y-103345621D02*
X54470200Y-110604200D01*
X38272179Y-68580000D02*
X38100000Y-68580000D01*
X56215821Y-101600000D02*
X54470200Y-103345621D01*
X48006000Y-110744000D02*
X48006000Y-78313821D01*
%TO.N,/PWM*%
X45563727Y-111441792D02*
X45466000Y-111344065D01*
X45466000Y-111344065D02*
X45466000Y-78486000D01*
X45466000Y-78486000D02*
X38100000Y-71120000D01*
%TO.N,Net-(RV9-Pad1)*%
X64516000Y-119126000D02*
X70612000Y-113030000D01*
X60960000Y-119126000D02*
X64516000Y-119126000D01*
%TO.N,Net-(U1C-+)*%
X104775000Y-122855000D02*
X101600000Y-119680000D01*
X104775000Y-123190000D02*
X104775000Y-122855000D01*
%TO.N,Net-(U4A--)*%
X62230000Y-115824000D02*
X62103000Y-115824000D01*
X63500000Y-114554000D02*
X62230000Y-115824000D01*
X62738000Y-102870000D02*
X63500000Y-103632000D01*
X63500000Y-103632000D02*
X63500000Y-114554000D01*
%TO.N,Net-(D3-K)*%
X60706000Y-76073000D02*
X62611000Y-77978000D01*
X62611000Y-77978000D02*
X66040000Y-77978000D01*
X54864000Y-76073000D02*
X60706000Y-76073000D01*
%TO.N,Net-(Q6-E)*%
X42672000Y-148590000D02*
X42672000Y-153924000D01*
X39370000Y-153924000D02*
X42672000Y-153924000D01*
%TO.N,Net-(Q6-B)*%
X32258000Y-156972000D02*
X34189400Y-158903400D01*
X34189400Y-158903400D02*
X40678013Y-158903400D01*
X45212000Y-154369413D02*
X45212000Y-148590000D01*
X29210000Y-156972000D02*
X32258000Y-156972000D01*
X40678013Y-158903400D02*
X45212000Y-154369413D01*
%TO.N,Net-(U8A-+)*%
X75900000Y-20320000D02*
X46990000Y-20320000D01*
X46990000Y-20320000D02*
X26670000Y-40640000D01*
X101600000Y-46020000D02*
X75900000Y-20320000D01*
X26670000Y-40640000D02*
X26670000Y-175260000D01*
%TD*%
M02*
