%TF.GenerationSoftware,KiCad,Pcbnew,9.0.6*%
%TF.CreationDate,2026-04-22T22:01:26-07:00*%
%TF.ProjectId,modulinLFO,6d6f6475-6c69-46e4-9c46-4f2e6b696361,rev?*%
%TF.SameCoordinates,Original*%
%TF.FileFunction,Legend,Bot*%
%TF.FilePolarity,Positive*%
%FSLAX46Y46*%
G04 Gerber Fmt 4.6, Leading zero omitted, Abs format (unit mm)*
G04 Created by KiCad (PCBNEW 9.0.6) date 2026-04-22 22:01:26*
%MOMM*%
%LPD*%
G01*
G04 APERTURE LIST*
%ADD10C,0.254000*%
%ADD11C,0.508000*%
%ADD12C,0.100000*%
G04 APERTURE END LIST*
D10*
X34497847Y-60093352D02*
X34207561Y-60190113D01*
X34207561Y-60190113D02*
X33723752Y-60190113D01*
X33723752Y-60190113D02*
X33530228Y-60093352D01*
X33530228Y-60093352D02*
X33433466Y-59996590D01*
X33433466Y-59996590D02*
X33336704Y-59803066D01*
X33336704Y-59803066D02*
X33336704Y-59609542D01*
X33336704Y-59609542D02*
X33433466Y-59416018D01*
X33433466Y-59416018D02*
X33530228Y-59319256D01*
X33530228Y-59319256D02*
X33723752Y-59222494D01*
X33723752Y-59222494D02*
X34110799Y-59125732D01*
X34110799Y-59125732D02*
X34304323Y-59028971D01*
X34304323Y-59028971D02*
X34401085Y-58932209D01*
X34401085Y-58932209D02*
X34497847Y-58738685D01*
X34497847Y-58738685D02*
X34497847Y-58545161D01*
X34497847Y-58545161D02*
X34401085Y-58351637D01*
X34401085Y-58351637D02*
X34304323Y-58254875D01*
X34304323Y-58254875D02*
X34110799Y-58158113D01*
X34110799Y-58158113D02*
X33626990Y-58158113D01*
X33626990Y-58158113D02*
X33336704Y-58254875D01*
X32465847Y-60190113D02*
X32465847Y-58835447D01*
X32465847Y-58158113D02*
X32562609Y-58254875D01*
X32562609Y-58254875D02*
X32465847Y-58351637D01*
X32465847Y-58351637D02*
X32369085Y-58254875D01*
X32369085Y-58254875D02*
X32465847Y-58158113D01*
X32465847Y-58158113D02*
X32465847Y-58351637D01*
X31498228Y-58835447D02*
X31498228Y-60190113D01*
X31498228Y-59028971D02*
X31401466Y-58932209D01*
X31401466Y-58932209D02*
X31207942Y-58835447D01*
X31207942Y-58835447D02*
X30917657Y-58835447D01*
X30917657Y-58835447D02*
X30724133Y-58932209D01*
X30724133Y-58932209D02*
X30627371Y-59125732D01*
X30627371Y-59125732D02*
X30627371Y-60190113D01*
X28885657Y-60093352D02*
X29079181Y-60190113D01*
X29079181Y-60190113D02*
X29466228Y-60190113D01*
X29466228Y-60190113D02*
X29659752Y-60093352D01*
X29659752Y-60093352D02*
X29756514Y-59899828D01*
X29756514Y-59899828D02*
X29756514Y-59125732D01*
X29756514Y-59125732D02*
X29659752Y-58932209D01*
X29659752Y-58932209D02*
X29466228Y-58835447D01*
X29466228Y-58835447D02*
X29079181Y-58835447D01*
X29079181Y-58835447D02*
X28885657Y-58932209D01*
X28885657Y-58932209D02*
X28788895Y-59125732D01*
X28788895Y-59125732D02*
X28788895Y-59319256D01*
X28788895Y-59319256D02*
X29756514Y-59512780D01*
D11*
X94512189Y-19728736D02*
X95721713Y-19728736D01*
X95721713Y-19728736D02*
X95721713Y-17188736D01*
X93302665Y-19728736D02*
X93544570Y-19607784D01*
X93544570Y-19607784D02*
X93665523Y-19486831D01*
X93665523Y-19486831D02*
X93786475Y-19244926D01*
X93786475Y-19244926D02*
X93786475Y-18519212D01*
X93786475Y-18519212D02*
X93665523Y-18277307D01*
X93665523Y-18277307D02*
X93544570Y-18156355D01*
X93544570Y-18156355D02*
X93302665Y-18035403D01*
X93302665Y-18035403D02*
X92939808Y-18035403D01*
X92939808Y-18035403D02*
X92697904Y-18156355D01*
X92697904Y-18156355D02*
X92576951Y-18277307D01*
X92576951Y-18277307D02*
X92455999Y-18519212D01*
X92455999Y-18519212D02*
X92455999Y-19244926D01*
X92455999Y-19244926D02*
X92576951Y-19486831D01*
X92576951Y-19486831D02*
X92697904Y-19607784D01*
X92697904Y-19607784D02*
X92939808Y-19728736D01*
X92939808Y-19728736D02*
X93302665Y-19728736D01*
X91609332Y-18035403D02*
X91125523Y-19728736D01*
X91125523Y-19728736D02*
X90641713Y-18519212D01*
X90641713Y-18519212D02*
X90157904Y-19728736D01*
X90157904Y-19728736D02*
X89674094Y-18035403D01*
X85924571Y-18398260D02*
X86771238Y-18398260D01*
X86771238Y-19728736D02*
X86771238Y-17188736D01*
X86771238Y-17188736D02*
X85561714Y-17188736D01*
X84594095Y-19728736D02*
X84594095Y-18035403D01*
X84594095Y-18519212D02*
X84473142Y-18277307D01*
X84473142Y-18277307D02*
X84352190Y-18156355D01*
X84352190Y-18156355D02*
X84110285Y-18035403D01*
X84110285Y-18035403D02*
X83868380Y-18035403D01*
X82054095Y-19607784D02*
X82295999Y-19728736D01*
X82295999Y-19728736D02*
X82779809Y-19728736D01*
X82779809Y-19728736D02*
X83021714Y-19607784D01*
X83021714Y-19607784D02*
X83142666Y-19365879D01*
X83142666Y-19365879D02*
X83142666Y-18398260D01*
X83142666Y-18398260D02*
X83021714Y-18156355D01*
X83021714Y-18156355D02*
X82779809Y-18035403D01*
X82779809Y-18035403D02*
X82295999Y-18035403D01*
X82295999Y-18035403D02*
X82054095Y-18156355D01*
X82054095Y-18156355D02*
X81933142Y-18398260D01*
X81933142Y-18398260D02*
X81933142Y-18640164D01*
X81933142Y-18640164D02*
X83142666Y-18882069D01*
X79755999Y-18035403D02*
X79755999Y-20575403D01*
X79755999Y-19607784D02*
X79997904Y-19728736D01*
X79997904Y-19728736D02*
X80481713Y-19728736D01*
X80481713Y-19728736D02*
X80723618Y-19607784D01*
X80723618Y-19607784D02*
X80844571Y-19486831D01*
X80844571Y-19486831D02*
X80965523Y-19244926D01*
X80965523Y-19244926D02*
X80965523Y-18519212D01*
X80965523Y-18519212D02*
X80844571Y-18277307D01*
X80844571Y-18277307D02*
X80723618Y-18156355D01*
X80723618Y-18156355D02*
X80481713Y-18035403D01*
X80481713Y-18035403D02*
X79997904Y-18035403D01*
X79997904Y-18035403D02*
X79755999Y-18156355D01*
X77457904Y-18035403D02*
X77457904Y-19728736D01*
X78546476Y-18035403D02*
X78546476Y-19365879D01*
X78546476Y-19365879D02*
X78425523Y-19607784D01*
X78425523Y-19607784D02*
X78183618Y-19728736D01*
X78183618Y-19728736D02*
X77820761Y-19728736D01*
X77820761Y-19728736D02*
X77578857Y-19607784D01*
X77578857Y-19607784D02*
X77457904Y-19486831D01*
X75280762Y-19607784D02*
X75522666Y-19728736D01*
X75522666Y-19728736D02*
X76006476Y-19728736D01*
X76006476Y-19728736D02*
X76248381Y-19607784D01*
X76248381Y-19607784D02*
X76369333Y-19365879D01*
X76369333Y-19365879D02*
X76369333Y-18398260D01*
X76369333Y-18398260D02*
X76248381Y-18156355D01*
X76248381Y-18156355D02*
X76006476Y-18035403D01*
X76006476Y-18035403D02*
X75522666Y-18035403D01*
X75522666Y-18035403D02*
X75280762Y-18156355D01*
X75280762Y-18156355D02*
X75159809Y-18398260D01*
X75159809Y-18398260D02*
X75159809Y-18640164D01*
X75159809Y-18640164D02*
X76369333Y-18882069D01*
X74071238Y-18035403D02*
X74071238Y-19728736D01*
X74071238Y-18277307D02*
X73950285Y-18156355D01*
X73950285Y-18156355D02*
X73708380Y-18035403D01*
X73708380Y-18035403D02*
X73345523Y-18035403D01*
X73345523Y-18035403D02*
X73103619Y-18156355D01*
X73103619Y-18156355D02*
X72982666Y-18398260D01*
X72982666Y-18398260D02*
X72982666Y-19728736D01*
X70684571Y-19607784D02*
X70926476Y-19728736D01*
X70926476Y-19728736D02*
X71410285Y-19728736D01*
X71410285Y-19728736D02*
X71652190Y-19607784D01*
X71652190Y-19607784D02*
X71773143Y-19486831D01*
X71773143Y-19486831D02*
X71894095Y-19244926D01*
X71894095Y-19244926D02*
X71894095Y-18519212D01*
X71894095Y-18519212D02*
X71773143Y-18277307D01*
X71773143Y-18277307D02*
X71652190Y-18156355D01*
X71652190Y-18156355D02*
X71410285Y-18035403D01*
X71410285Y-18035403D02*
X70926476Y-18035403D01*
X70926476Y-18035403D02*
X70684571Y-18156355D01*
X69837904Y-18035403D02*
X69233142Y-19728736D01*
X68628381Y-18035403D02*
X69233142Y-19728736D01*
X69233142Y-19728736D02*
X69475047Y-20333498D01*
X69475047Y-20333498D02*
X69596000Y-20454450D01*
X69596000Y-20454450D02*
X69837904Y-20575403D01*
X65241714Y-17188736D02*
X64757905Y-17188736D01*
X64757905Y-17188736D02*
X64516000Y-17309688D01*
X64516000Y-17309688D02*
X64274095Y-17551593D01*
X64274095Y-17551593D02*
X64153143Y-18035403D01*
X64153143Y-18035403D02*
X64153143Y-18882069D01*
X64153143Y-18882069D02*
X64274095Y-19365879D01*
X64274095Y-19365879D02*
X64516000Y-19607784D01*
X64516000Y-19607784D02*
X64757905Y-19728736D01*
X64757905Y-19728736D02*
X65241714Y-19728736D01*
X65241714Y-19728736D02*
X65483619Y-19607784D01*
X65483619Y-19607784D02*
X65725524Y-19365879D01*
X65725524Y-19365879D02*
X65846476Y-18882069D01*
X65846476Y-18882069D02*
X65846476Y-18035403D01*
X65846476Y-18035403D02*
X65725524Y-17551593D01*
X65725524Y-17551593D02*
X65483619Y-17309688D01*
X65483619Y-17309688D02*
X65241714Y-17188736D01*
X63185524Y-19607784D02*
X62943619Y-19728736D01*
X62943619Y-19728736D02*
X62459810Y-19728736D01*
X62459810Y-19728736D02*
X62217905Y-19607784D01*
X62217905Y-19607784D02*
X62096953Y-19365879D01*
X62096953Y-19365879D02*
X62096953Y-19244926D01*
X62096953Y-19244926D02*
X62217905Y-19003022D01*
X62217905Y-19003022D02*
X62459810Y-18882069D01*
X62459810Y-18882069D02*
X62822667Y-18882069D01*
X62822667Y-18882069D02*
X63064572Y-18761117D01*
X63064572Y-18761117D02*
X63185524Y-18519212D01*
X63185524Y-18519212D02*
X63185524Y-18398260D01*
X63185524Y-18398260D02*
X63064572Y-18156355D01*
X63064572Y-18156355D02*
X62822667Y-18035403D01*
X62822667Y-18035403D02*
X62459810Y-18035403D01*
X62459810Y-18035403D02*
X62217905Y-18156355D01*
X59919810Y-19607784D02*
X60161715Y-19728736D01*
X60161715Y-19728736D02*
X60645524Y-19728736D01*
X60645524Y-19728736D02*
X60887429Y-19607784D01*
X60887429Y-19607784D02*
X61008382Y-19486831D01*
X61008382Y-19486831D02*
X61129334Y-19244926D01*
X61129334Y-19244926D02*
X61129334Y-18519212D01*
X61129334Y-18519212D02*
X61008382Y-18277307D01*
X61008382Y-18277307D02*
X60887429Y-18156355D01*
X60887429Y-18156355D02*
X60645524Y-18035403D01*
X60645524Y-18035403D02*
X60161715Y-18035403D01*
X60161715Y-18035403D02*
X59919810Y-18156355D01*
X58831239Y-19728736D02*
X58831239Y-18035403D01*
X58831239Y-17188736D02*
X58952191Y-17309688D01*
X58952191Y-17309688D02*
X58831239Y-17430641D01*
X58831239Y-17430641D02*
X58710286Y-17309688D01*
X58710286Y-17309688D02*
X58831239Y-17188736D01*
X58831239Y-17188736D02*
X58831239Y-17430641D01*
X57258857Y-19728736D02*
X57500762Y-19607784D01*
X57500762Y-19607784D02*
X57621715Y-19365879D01*
X57621715Y-19365879D02*
X57621715Y-17188736D01*
X55928381Y-19728736D02*
X56170286Y-19607784D01*
X56170286Y-19607784D02*
X56291239Y-19365879D01*
X56291239Y-19365879D02*
X56291239Y-17188736D01*
X53872191Y-19728736D02*
X53872191Y-18398260D01*
X53872191Y-18398260D02*
X53993144Y-18156355D01*
X53993144Y-18156355D02*
X54235048Y-18035403D01*
X54235048Y-18035403D02*
X54718858Y-18035403D01*
X54718858Y-18035403D02*
X54960763Y-18156355D01*
X53872191Y-19607784D02*
X54114096Y-19728736D01*
X54114096Y-19728736D02*
X54718858Y-19728736D01*
X54718858Y-19728736D02*
X54960763Y-19607784D01*
X54960763Y-19607784D02*
X55081715Y-19365879D01*
X55081715Y-19365879D02*
X55081715Y-19123974D01*
X55081715Y-19123974D02*
X54960763Y-18882069D01*
X54960763Y-18882069D02*
X54718858Y-18761117D01*
X54718858Y-18761117D02*
X54114096Y-18761117D01*
X54114096Y-18761117D02*
X53872191Y-18640164D01*
X53025525Y-18035403D02*
X52057906Y-18035403D01*
X52662668Y-17188736D02*
X52662668Y-19365879D01*
X52662668Y-19365879D02*
X52541715Y-19607784D01*
X52541715Y-19607784D02*
X52299810Y-19728736D01*
X52299810Y-19728736D02*
X52057906Y-19728736D01*
X50848381Y-19728736D02*
X51090286Y-19607784D01*
X51090286Y-19607784D02*
X51211239Y-19486831D01*
X51211239Y-19486831D02*
X51332191Y-19244926D01*
X51332191Y-19244926D02*
X51332191Y-18519212D01*
X51332191Y-18519212D02*
X51211239Y-18277307D01*
X51211239Y-18277307D02*
X51090286Y-18156355D01*
X51090286Y-18156355D02*
X50848381Y-18035403D01*
X50848381Y-18035403D02*
X50485524Y-18035403D01*
X50485524Y-18035403D02*
X50243620Y-18156355D01*
X50243620Y-18156355D02*
X50122667Y-18277307D01*
X50122667Y-18277307D02*
X50001715Y-18519212D01*
X50001715Y-18519212D02*
X50001715Y-19244926D01*
X50001715Y-19244926D02*
X50122667Y-19486831D01*
X50122667Y-19486831D02*
X50243620Y-19607784D01*
X50243620Y-19607784D02*
X50485524Y-19728736D01*
X50485524Y-19728736D02*
X50848381Y-19728736D01*
X48913144Y-19728736D02*
X48913144Y-18035403D01*
X48913144Y-18519212D02*
X48792191Y-18277307D01*
X48792191Y-18277307D02*
X48671239Y-18156355D01*
X48671239Y-18156355D02*
X48429334Y-18035403D01*
X48429334Y-18035403D02*
X48187429Y-18035403D01*
D10*
X109244189Y-40583732D02*
X108566856Y-40583732D01*
X108276570Y-41648113D02*
X109244189Y-41648113D01*
X109244189Y-41648113D02*
X109244189Y-39616113D01*
X109244189Y-39616113D02*
X108276570Y-39616113D01*
X107599237Y-41648113D02*
X106534856Y-40293447D01*
X107599237Y-40293447D02*
X106534856Y-41648113D01*
X105760761Y-40293447D02*
X105760761Y-42325447D01*
X105760761Y-40390209D02*
X105567237Y-40293447D01*
X105567237Y-40293447D02*
X105180190Y-40293447D01*
X105180190Y-40293447D02*
X104986666Y-40390209D01*
X104986666Y-40390209D02*
X104889904Y-40486971D01*
X104889904Y-40486971D02*
X104793142Y-40680494D01*
X104793142Y-40680494D02*
X104793142Y-41261066D01*
X104793142Y-41261066D02*
X104889904Y-41454590D01*
X104889904Y-41454590D02*
X104986666Y-41551352D01*
X104986666Y-41551352D02*
X105180190Y-41648113D01*
X105180190Y-41648113D02*
X105567237Y-41648113D01*
X105567237Y-41648113D02*
X105760761Y-41551352D01*
X103922285Y-41648113D02*
X103922285Y-40293447D01*
X103922285Y-40680494D02*
X103825523Y-40486971D01*
X103825523Y-40486971D02*
X103728761Y-40390209D01*
X103728761Y-40390209D02*
X103535237Y-40293447D01*
X103535237Y-40293447D02*
X103341714Y-40293447D01*
X101890285Y-41551352D02*
X102083809Y-41648113D01*
X102083809Y-41648113D02*
X102470856Y-41648113D01*
X102470856Y-41648113D02*
X102664380Y-41551352D01*
X102664380Y-41551352D02*
X102761142Y-41357828D01*
X102761142Y-41357828D02*
X102761142Y-40583732D01*
X102761142Y-40583732D02*
X102664380Y-40390209D01*
X102664380Y-40390209D02*
X102470856Y-40293447D01*
X102470856Y-40293447D02*
X102083809Y-40293447D01*
X102083809Y-40293447D02*
X101890285Y-40390209D01*
X101890285Y-40390209D02*
X101793523Y-40583732D01*
X101793523Y-40583732D02*
X101793523Y-40777256D01*
X101793523Y-40777256D02*
X102761142Y-40970780D01*
X101019428Y-41551352D02*
X100825904Y-41648113D01*
X100825904Y-41648113D02*
X100438856Y-41648113D01*
X100438856Y-41648113D02*
X100245333Y-41551352D01*
X100245333Y-41551352D02*
X100148571Y-41357828D01*
X100148571Y-41357828D02*
X100148571Y-41261066D01*
X100148571Y-41261066D02*
X100245333Y-41067542D01*
X100245333Y-41067542D02*
X100438856Y-40970780D01*
X100438856Y-40970780D02*
X100729142Y-40970780D01*
X100729142Y-40970780D02*
X100922666Y-40874018D01*
X100922666Y-40874018D02*
X101019428Y-40680494D01*
X101019428Y-40680494D02*
X101019428Y-40583732D01*
X101019428Y-40583732D02*
X100922666Y-40390209D01*
X100922666Y-40390209D02*
X100729142Y-40293447D01*
X100729142Y-40293447D02*
X100438856Y-40293447D01*
X100438856Y-40293447D02*
X100245333Y-40390209D01*
X99374476Y-41551352D02*
X99180952Y-41648113D01*
X99180952Y-41648113D02*
X98793904Y-41648113D01*
X98793904Y-41648113D02*
X98600381Y-41551352D01*
X98600381Y-41551352D02*
X98503619Y-41357828D01*
X98503619Y-41357828D02*
X98503619Y-41261066D01*
X98503619Y-41261066D02*
X98600381Y-41067542D01*
X98600381Y-41067542D02*
X98793904Y-40970780D01*
X98793904Y-40970780D02*
X99084190Y-40970780D01*
X99084190Y-40970780D02*
X99277714Y-40874018D01*
X99277714Y-40874018D02*
X99374476Y-40680494D01*
X99374476Y-40680494D02*
X99374476Y-40583732D01*
X99374476Y-40583732D02*
X99277714Y-40390209D01*
X99277714Y-40390209D02*
X99084190Y-40293447D01*
X99084190Y-40293447D02*
X98793904Y-40293447D01*
X98793904Y-40293447D02*
X98600381Y-40390209D01*
X97632762Y-41648113D02*
X97632762Y-40293447D01*
X97632762Y-39616113D02*
X97729524Y-39712875D01*
X97729524Y-39712875D02*
X97632762Y-39809637D01*
X97632762Y-39809637D02*
X97536000Y-39712875D01*
X97536000Y-39712875D02*
X97632762Y-39616113D01*
X97632762Y-39616113D02*
X97632762Y-39809637D01*
X96374857Y-41648113D02*
X96568381Y-41551352D01*
X96568381Y-41551352D02*
X96665143Y-41454590D01*
X96665143Y-41454590D02*
X96761905Y-41261066D01*
X96761905Y-41261066D02*
X96761905Y-40680494D01*
X96761905Y-40680494D02*
X96665143Y-40486971D01*
X96665143Y-40486971D02*
X96568381Y-40390209D01*
X96568381Y-40390209D02*
X96374857Y-40293447D01*
X96374857Y-40293447D02*
X96084572Y-40293447D01*
X96084572Y-40293447D02*
X95891048Y-40390209D01*
X95891048Y-40390209D02*
X95794286Y-40486971D01*
X95794286Y-40486971D02*
X95697524Y-40680494D01*
X95697524Y-40680494D02*
X95697524Y-41261066D01*
X95697524Y-41261066D02*
X95794286Y-41454590D01*
X95794286Y-41454590D02*
X95891048Y-41551352D01*
X95891048Y-41551352D02*
X96084572Y-41648113D01*
X96084572Y-41648113D02*
X96374857Y-41648113D01*
X94826667Y-40293447D02*
X94826667Y-41648113D01*
X94826667Y-40486971D02*
X94729905Y-40390209D01*
X94729905Y-40390209D02*
X94536381Y-40293447D01*
X94536381Y-40293447D02*
X94246096Y-40293447D01*
X94246096Y-40293447D02*
X94052572Y-40390209D01*
X94052572Y-40390209D02*
X93955810Y-40583732D01*
X93955810Y-40583732D02*
X93955810Y-41648113D01*
X34401085Y-72636113D02*
X34401085Y-70604113D01*
X34401085Y-70604113D02*
X33626990Y-70604113D01*
X33626990Y-70604113D02*
X33433466Y-70700875D01*
X33433466Y-70700875D02*
X33336704Y-70797637D01*
X33336704Y-70797637D02*
X33239942Y-70991161D01*
X33239942Y-70991161D02*
X33239942Y-71281447D01*
X33239942Y-71281447D02*
X33336704Y-71474971D01*
X33336704Y-71474971D02*
X33433466Y-71571732D01*
X33433466Y-71571732D02*
X33626990Y-71668494D01*
X33626990Y-71668494D02*
X34401085Y-71668494D01*
X32562609Y-70604113D02*
X32078799Y-72636113D01*
X32078799Y-72636113D02*
X31691752Y-71184685D01*
X31691752Y-71184685D02*
X31304704Y-72636113D01*
X31304704Y-72636113D02*
X30820895Y-70604113D01*
X30046799Y-72636113D02*
X30046799Y-70604113D01*
X30046799Y-70604113D02*
X29369466Y-72055542D01*
X29369466Y-72055542D02*
X28692132Y-70604113D01*
X28692132Y-70604113D02*
X28692132Y-72636113D01*
X109244189Y-114243732D02*
X108566856Y-114243732D01*
X108276570Y-115308113D02*
X109244189Y-115308113D01*
X109244189Y-115308113D02*
X109244189Y-113276113D01*
X109244189Y-113276113D02*
X108276570Y-113276113D01*
X107599237Y-115308113D02*
X106534856Y-113953447D01*
X107599237Y-113953447D02*
X106534856Y-115308113D01*
X105760761Y-113953447D02*
X105760761Y-115985447D01*
X105760761Y-114050209D02*
X105567237Y-113953447D01*
X105567237Y-113953447D02*
X105180190Y-113953447D01*
X105180190Y-113953447D02*
X104986666Y-114050209D01*
X104986666Y-114050209D02*
X104889904Y-114146971D01*
X104889904Y-114146971D02*
X104793142Y-114340494D01*
X104793142Y-114340494D02*
X104793142Y-114921066D01*
X104793142Y-114921066D02*
X104889904Y-115114590D01*
X104889904Y-115114590D02*
X104986666Y-115211352D01*
X104986666Y-115211352D02*
X105180190Y-115308113D01*
X105180190Y-115308113D02*
X105567237Y-115308113D01*
X105567237Y-115308113D02*
X105760761Y-115211352D01*
X103922285Y-115308113D02*
X103922285Y-113953447D01*
X103922285Y-114340494D02*
X103825523Y-114146971D01*
X103825523Y-114146971D02*
X103728761Y-114050209D01*
X103728761Y-114050209D02*
X103535237Y-113953447D01*
X103535237Y-113953447D02*
X103341714Y-113953447D01*
X101890285Y-115211352D02*
X102083809Y-115308113D01*
X102083809Y-115308113D02*
X102470856Y-115308113D01*
X102470856Y-115308113D02*
X102664380Y-115211352D01*
X102664380Y-115211352D02*
X102761142Y-115017828D01*
X102761142Y-115017828D02*
X102761142Y-114243732D01*
X102761142Y-114243732D02*
X102664380Y-114050209D01*
X102664380Y-114050209D02*
X102470856Y-113953447D01*
X102470856Y-113953447D02*
X102083809Y-113953447D01*
X102083809Y-113953447D02*
X101890285Y-114050209D01*
X101890285Y-114050209D02*
X101793523Y-114243732D01*
X101793523Y-114243732D02*
X101793523Y-114437256D01*
X101793523Y-114437256D02*
X102761142Y-114630780D01*
X101019428Y-115211352D02*
X100825904Y-115308113D01*
X100825904Y-115308113D02*
X100438856Y-115308113D01*
X100438856Y-115308113D02*
X100245333Y-115211352D01*
X100245333Y-115211352D02*
X100148571Y-115017828D01*
X100148571Y-115017828D02*
X100148571Y-114921066D01*
X100148571Y-114921066D02*
X100245333Y-114727542D01*
X100245333Y-114727542D02*
X100438856Y-114630780D01*
X100438856Y-114630780D02*
X100729142Y-114630780D01*
X100729142Y-114630780D02*
X100922666Y-114534018D01*
X100922666Y-114534018D02*
X101019428Y-114340494D01*
X101019428Y-114340494D02*
X101019428Y-114243732D01*
X101019428Y-114243732D02*
X100922666Y-114050209D01*
X100922666Y-114050209D02*
X100729142Y-113953447D01*
X100729142Y-113953447D02*
X100438856Y-113953447D01*
X100438856Y-113953447D02*
X100245333Y-114050209D01*
X99374476Y-115211352D02*
X99180952Y-115308113D01*
X99180952Y-115308113D02*
X98793904Y-115308113D01*
X98793904Y-115308113D02*
X98600381Y-115211352D01*
X98600381Y-115211352D02*
X98503619Y-115017828D01*
X98503619Y-115017828D02*
X98503619Y-114921066D01*
X98503619Y-114921066D02*
X98600381Y-114727542D01*
X98600381Y-114727542D02*
X98793904Y-114630780D01*
X98793904Y-114630780D02*
X99084190Y-114630780D01*
X99084190Y-114630780D02*
X99277714Y-114534018D01*
X99277714Y-114534018D02*
X99374476Y-114340494D01*
X99374476Y-114340494D02*
X99374476Y-114243732D01*
X99374476Y-114243732D02*
X99277714Y-114050209D01*
X99277714Y-114050209D02*
X99084190Y-113953447D01*
X99084190Y-113953447D02*
X98793904Y-113953447D01*
X98793904Y-113953447D02*
X98600381Y-114050209D01*
X97632762Y-115308113D02*
X97632762Y-113953447D01*
X97632762Y-113276113D02*
X97729524Y-113372875D01*
X97729524Y-113372875D02*
X97632762Y-113469637D01*
X97632762Y-113469637D02*
X97536000Y-113372875D01*
X97536000Y-113372875D02*
X97632762Y-113276113D01*
X97632762Y-113276113D02*
X97632762Y-113469637D01*
X96374857Y-115308113D02*
X96568381Y-115211352D01*
X96568381Y-115211352D02*
X96665143Y-115114590D01*
X96665143Y-115114590D02*
X96761905Y-114921066D01*
X96761905Y-114921066D02*
X96761905Y-114340494D01*
X96761905Y-114340494D02*
X96665143Y-114146971D01*
X96665143Y-114146971D02*
X96568381Y-114050209D01*
X96568381Y-114050209D02*
X96374857Y-113953447D01*
X96374857Y-113953447D02*
X96084572Y-113953447D01*
X96084572Y-113953447D02*
X95891048Y-114050209D01*
X95891048Y-114050209D02*
X95794286Y-114146971D01*
X95794286Y-114146971D02*
X95697524Y-114340494D01*
X95697524Y-114340494D02*
X95697524Y-114921066D01*
X95697524Y-114921066D02*
X95794286Y-115114590D01*
X95794286Y-115114590D02*
X95891048Y-115211352D01*
X95891048Y-115211352D02*
X96084572Y-115308113D01*
X96084572Y-115308113D02*
X96374857Y-115308113D01*
X94826667Y-113953447D02*
X94826667Y-115308113D01*
X94826667Y-114146971D02*
X94729905Y-114050209D01*
X94729905Y-114050209D02*
X94536381Y-113953447D01*
X94536381Y-113953447D02*
X94246096Y-113953447D01*
X94246096Y-113953447D02*
X94052572Y-114050209D01*
X94052572Y-114050209D02*
X93955810Y-114243732D01*
X93955810Y-114243732D02*
X93955810Y-115308113D01*
X34497847Y-67713352D02*
X34207561Y-67810113D01*
X34207561Y-67810113D02*
X33723752Y-67810113D01*
X33723752Y-67810113D02*
X33530228Y-67713352D01*
X33530228Y-67713352D02*
X33433466Y-67616590D01*
X33433466Y-67616590D02*
X33336704Y-67423066D01*
X33336704Y-67423066D02*
X33336704Y-67229542D01*
X33336704Y-67229542D02*
X33433466Y-67036018D01*
X33433466Y-67036018D02*
X33530228Y-66939256D01*
X33530228Y-66939256D02*
X33723752Y-66842494D01*
X33723752Y-66842494D02*
X34110799Y-66745732D01*
X34110799Y-66745732D02*
X34304323Y-66648971D01*
X34304323Y-66648971D02*
X34401085Y-66552209D01*
X34401085Y-66552209D02*
X34497847Y-66358685D01*
X34497847Y-66358685D02*
X34497847Y-66165161D01*
X34497847Y-66165161D02*
X34401085Y-65971637D01*
X34401085Y-65971637D02*
X34304323Y-65874875D01*
X34304323Y-65874875D02*
X34110799Y-65778113D01*
X34110799Y-65778113D02*
X33626990Y-65778113D01*
X33626990Y-65778113D02*
X33336704Y-65874875D01*
X31594990Y-67810113D02*
X31594990Y-66745732D01*
X31594990Y-66745732D02*
X31691752Y-66552209D01*
X31691752Y-66552209D02*
X31885276Y-66455447D01*
X31885276Y-66455447D02*
X32272323Y-66455447D01*
X32272323Y-66455447D02*
X32465847Y-66552209D01*
X31594990Y-67713352D02*
X31788514Y-67810113D01*
X31788514Y-67810113D02*
X32272323Y-67810113D01*
X32272323Y-67810113D02*
X32465847Y-67713352D01*
X32465847Y-67713352D02*
X32562609Y-67519828D01*
X32562609Y-67519828D02*
X32562609Y-67326304D01*
X32562609Y-67326304D02*
X32465847Y-67132780D01*
X32465847Y-67132780D02*
X32272323Y-67036018D01*
X32272323Y-67036018D02*
X31788514Y-67036018D01*
X31788514Y-67036018D02*
X31594990Y-66939256D01*
X30820895Y-66455447D02*
X30433847Y-67810113D01*
X30433847Y-67810113D02*
X30046800Y-66842494D01*
X30046800Y-66842494D02*
X29659752Y-67810113D01*
X29659752Y-67810113D02*
X29272704Y-66455447D01*
X34691371Y-61968113D02*
X33530228Y-61968113D01*
X34110799Y-64000113D02*
X34110799Y-61968113D01*
X32852895Y-64000113D02*
X32852895Y-62645447D01*
X32852895Y-63032494D02*
X32756133Y-62838971D01*
X32756133Y-62838971D02*
X32659371Y-62742209D01*
X32659371Y-62742209D02*
X32465847Y-62645447D01*
X32465847Y-62645447D02*
X32272324Y-62645447D01*
X31594990Y-64000113D02*
X31594990Y-62645447D01*
X31594990Y-61968113D02*
X31691752Y-62064875D01*
X31691752Y-62064875D02*
X31594990Y-62161637D01*
X31594990Y-62161637D02*
X31498228Y-62064875D01*
X31498228Y-62064875D02*
X31594990Y-61968113D01*
X31594990Y-61968113D02*
X31594990Y-62161637D01*
X108663618Y-43861542D02*
X107695999Y-43861542D01*
X108857142Y-44442113D02*
X108179808Y-42410113D01*
X108179808Y-42410113D02*
X107502475Y-44442113D01*
X106825142Y-44442113D02*
X106825142Y-43087447D01*
X106825142Y-43280971D02*
X106728380Y-43184209D01*
X106728380Y-43184209D02*
X106534856Y-43087447D01*
X106534856Y-43087447D02*
X106244571Y-43087447D01*
X106244571Y-43087447D02*
X106051047Y-43184209D01*
X106051047Y-43184209D02*
X105954285Y-43377732D01*
X105954285Y-43377732D02*
X105954285Y-44442113D01*
X105954285Y-43377732D02*
X105857523Y-43184209D01*
X105857523Y-43184209D02*
X105663999Y-43087447D01*
X105663999Y-43087447D02*
X105373713Y-43087447D01*
X105373713Y-43087447D02*
X105180190Y-43184209D01*
X105180190Y-43184209D02*
X105083428Y-43377732D01*
X105083428Y-43377732D02*
X105083428Y-44442113D01*
X104115809Y-43087447D02*
X104115809Y-45119447D01*
X104115809Y-43184209D02*
X103922285Y-43087447D01*
X103922285Y-43087447D02*
X103535238Y-43087447D01*
X103535238Y-43087447D02*
X103341714Y-43184209D01*
X103341714Y-43184209D02*
X103244952Y-43280971D01*
X103244952Y-43280971D02*
X103148190Y-43474494D01*
X103148190Y-43474494D02*
X103148190Y-44055066D01*
X103148190Y-44055066D02*
X103244952Y-44248590D01*
X103244952Y-44248590D02*
X103341714Y-44345352D01*
X103341714Y-44345352D02*
X103535238Y-44442113D01*
X103535238Y-44442113D02*
X103922285Y-44442113D01*
X103922285Y-44442113D02*
X104115809Y-44345352D01*
X101987047Y-44442113D02*
X102180571Y-44345352D01*
X102180571Y-44345352D02*
X102277333Y-44151828D01*
X102277333Y-44151828D02*
X102277333Y-42410113D01*
X101212952Y-44442113D02*
X101212952Y-43087447D01*
X101212952Y-42410113D02*
X101309714Y-42506875D01*
X101309714Y-42506875D02*
X101212952Y-42603637D01*
X101212952Y-42603637D02*
X101116190Y-42506875D01*
X101116190Y-42506875D02*
X101212952Y-42410113D01*
X101212952Y-42410113D02*
X101212952Y-42603637D01*
X100535619Y-43087447D02*
X99761523Y-43087447D01*
X100245333Y-42410113D02*
X100245333Y-44151828D01*
X100245333Y-44151828D02*
X100148571Y-44345352D01*
X100148571Y-44345352D02*
X99955047Y-44442113D01*
X99955047Y-44442113D02*
X99761523Y-44442113D01*
X98213333Y-43087447D02*
X98213333Y-44442113D01*
X99084190Y-43087447D02*
X99084190Y-44151828D01*
X99084190Y-44151828D02*
X98987428Y-44345352D01*
X98987428Y-44345352D02*
X98793904Y-44442113D01*
X98793904Y-44442113D02*
X98503619Y-44442113D01*
X98503619Y-44442113D02*
X98310095Y-44345352D01*
X98310095Y-44345352D02*
X98213333Y-44248590D01*
X96374857Y-44442113D02*
X96374857Y-42410113D01*
X96374857Y-44345352D02*
X96568381Y-44442113D01*
X96568381Y-44442113D02*
X96955428Y-44442113D01*
X96955428Y-44442113D02*
X97148952Y-44345352D01*
X97148952Y-44345352D02*
X97245714Y-44248590D01*
X97245714Y-44248590D02*
X97342476Y-44055066D01*
X97342476Y-44055066D02*
X97342476Y-43474494D01*
X97342476Y-43474494D02*
X97245714Y-43280971D01*
X97245714Y-43280971D02*
X97148952Y-43184209D01*
X97148952Y-43184209D02*
X96955428Y-43087447D01*
X96955428Y-43087447D02*
X96568381Y-43087447D01*
X96568381Y-43087447D02*
X96374857Y-43184209D01*
X94633143Y-44345352D02*
X94826667Y-44442113D01*
X94826667Y-44442113D02*
X95213714Y-44442113D01*
X95213714Y-44442113D02*
X95407238Y-44345352D01*
X95407238Y-44345352D02*
X95504000Y-44151828D01*
X95504000Y-44151828D02*
X95504000Y-43377732D01*
X95504000Y-43377732D02*
X95407238Y-43184209D01*
X95407238Y-43184209D02*
X95213714Y-43087447D01*
X95213714Y-43087447D02*
X94826667Y-43087447D01*
X94826667Y-43087447D02*
X94633143Y-43184209D01*
X94633143Y-43184209D02*
X94536381Y-43377732D01*
X94536381Y-43377732D02*
X94536381Y-43571256D01*
X94536381Y-43571256D02*
X95504000Y-43764780D01*
X60161713Y-94734113D02*
X60161713Y-92702113D01*
X59194094Y-93379447D02*
X59194094Y-94734113D01*
X59194094Y-93572971D02*
X59097332Y-93476209D01*
X59097332Y-93476209D02*
X58903808Y-93379447D01*
X58903808Y-93379447D02*
X58613523Y-93379447D01*
X58613523Y-93379447D02*
X58419999Y-93476209D01*
X58419999Y-93476209D02*
X58323237Y-93669732D01*
X58323237Y-93669732D02*
X58323237Y-94734113D01*
X57549142Y-93379447D02*
X57065332Y-94734113D01*
X57065332Y-94734113D02*
X56581523Y-93379447D01*
X55033333Y-94637352D02*
X55226857Y-94734113D01*
X55226857Y-94734113D02*
X55613904Y-94734113D01*
X55613904Y-94734113D02*
X55807428Y-94637352D01*
X55807428Y-94637352D02*
X55904190Y-94443828D01*
X55904190Y-94443828D02*
X55904190Y-93669732D01*
X55904190Y-93669732D02*
X55807428Y-93476209D01*
X55807428Y-93476209D02*
X55613904Y-93379447D01*
X55613904Y-93379447D02*
X55226857Y-93379447D01*
X55226857Y-93379447D02*
X55033333Y-93476209D01*
X55033333Y-93476209D02*
X54936571Y-93669732D01*
X54936571Y-93669732D02*
X54936571Y-93863256D01*
X54936571Y-93863256D02*
X55904190Y-94056780D01*
X54065714Y-94734113D02*
X54065714Y-93379447D01*
X54065714Y-93766494D02*
X53968952Y-93572971D01*
X53968952Y-93572971D02*
X53872190Y-93476209D01*
X53872190Y-93476209D02*
X53678666Y-93379447D01*
X53678666Y-93379447D02*
X53485143Y-93379447D01*
X53098095Y-93379447D02*
X52323999Y-93379447D01*
X52807809Y-92702113D02*
X52807809Y-94443828D01*
X52807809Y-94443828D02*
X52711047Y-94637352D01*
X52711047Y-94637352D02*
X52517523Y-94734113D01*
X52517523Y-94734113D02*
X52323999Y-94734113D01*
X110840760Y-145848590D02*
X110937522Y-145945352D01*
X110937522Y-145945352D02*
X111227808Y-146042113D01*
X111227808Y-146042113D02*
X111421332Y-146042113D01*
X111421332Y-146042113D02*
X111711617Y-145945352D01*
X111711617Y-145945352D02*
X111905141Y-145751828D01*
X111905141Y-145751828D02*
X112001903Y-145558304D01*
X112001903Y-145558304D02*
X112098665Y-145171256D01*
X112098665Y-145171256D02*
X112098665Y-144880971D01*
X112098665Y-144880971D02*
X112001903Y-144493923D01*
X112001903Y-144493923D02*
X111905141Y-144300399D01*
X111905141Y-144300399D02*
X111711617Y-144106875D01*
X111711617Y-144106875D02*
X111421332Y-144010113D01*
X111421332Y-144010113D02*
X111227808Y-144010113D01*
X111227808Y-144010113D02*
X110937522Y-144106875D01*
X110937522Y-144106875D02*
X110840760Y-144203637D01*
X109679617Y-146042113D02*
X109873141Y-145945352D01*
X109873141Y-145945352D02*
X109969903Y-145848590D01*
X109969903Y-145848590D02*
X110066665Y-145655066D01*
X110066665Y-145655066D02*
X110066665Y-145074494D01*
X110066665Y-145074494D02*
X109969903Y-144880971D01*
X109969903Y-144880971D02*
X109873141Y-144784209D01*
X109873141Y-144784209D02*
X109679617Y-144687447D01*
X109679617Y-144687447D02*
X109389332Y-144687447D01*
X109389332Y-144687447D02*
X109195808Y-144784209D01*
X109195808Y-144784209D02*
X109099046Y-144880971D01*
X109099046Y-144880971D02*
X109002284Y-145074494D01*
X109002284Y-145074494D02*
X109002284Y-145655066D01*
X109002284Y-145655066D02*
X109099046Y-145848590D01*
X109099046Y-145848590D02*
X109195808Y-145945352D01*
X109195808Y-145945352D02*
X109389332Y-146042113D01*
X109389332Y-146042113D02*
X109679617Y-146042113D01*
X107260570Y-146042113D02*
X107260570Y-144977732D01*
X107260570Y-144977732D02*
X107357332Y-144784209D01*
X107357332Y-144784209D02*
X107550856Y-144687447D01*
X107550856Y-144687447D02*
X107937903Y-144687447D01*
X107937903Y-144687447D02*
X108131427Y-144784209D01*
X107260570Y-145945352D02*
X107454094Y-146042113D01*
X107454094Y-146042113D02*
X107937903Y-146042113D01*
X107937903Y-146042113D02*
X108131427Y-145945352D01*
X108131427Y-145945352D02*
X108228189Y-145751828D01*
X108228189Y-145751828D02*
X108228189Y-145558304D01*
X108228189Y-145558304D02*
X108131427Y-145364780D01*
X108131427Y-145364780D02*
X107937903Y-145268018D01*
X107937903Y-145268018D02*
X107454094Y-145268018D01*
X107454094Y-145268018D02*
X107260570Y-145171256D01*
X106292951Y-146042113D02*
X106292951Y-144687447D01*
X106292951Y-145074494D02*
X106196189Y-144880971D01*
X106196189Y-144880971D02*
X106099427Y-144784209D01*
X106099427Y-144784209D02*
X105905903Y-144687447D01*
X105905903Y-144687447D02*
X105712380Y-144687447D01*
X105131808Y-145945352D02*
X104938284Y-146042113D01*
X104938284Y-146042113D02*
X104551236Y-146042113D01*
X104551236Y-146042113D02*
X104357713Y-145945352D01*
X104357713Y-145945352D02*
X104260951Y-145751828D01*
X104260951Y-145751828D02*
X104260951Y-145655066D01*
X104260951Y-145655066D02*
X104357713Y-145461542D01*
X104357713Y-145461542D02*
X104551236Y-145364780D01*
X104551236Y-145364780D02*
X104841522Y-145364780D01*
X104841522Y-145364780D02*
X105035046Y-145268018D01*
X105035046Y-145268018D02*
X105131808Y-145074494D01*
X105131808Y-145074494D02*
X105131808Y-144977732D01*
X105131808Y-144977732D02*
X105035046Y-144784209D01*
X105035046Y-144784209D02*
X104841522Y-144687447D01*
X104841522Y-144687447D02*
X104551236Y-144687447D01*
X104551236Y-144687447D02*
X104357713Y-144784209D01*
X102615999Y-145945352D02*
X102809523Y-146042113D01*
X102809523Y-146042113D02*
X103196570Y-146042113D01*
X103196570Y-146042113D02*
X103390094Y-145945352D01*
X103390094Y-145945352D02*
X103486856Y-145751828D01*
X103486856Y-145751828D02*
X103486856Y-144977732D01*
X103486856Y-144977732D02*
X103390094Y-144784209D01*
X103390094Y-144784209D02*
X103196570Y-144687447D01*
X103196570Y-144687447D02*
X102809523Y-144687447D01*
X102809523Y-144687447D02*
X102615999Y-144784209D01*
X102615999Y-144784209D02*
X102519237Y-144977732D01*
X102519237Y-144977732D02*
X102519237Y-145171256D01*
X102519237Y-145171256D02*
X103486856Y-145364780D01*
X100390476Y-144010113D02*
X99229333Y-144010113D01*
X99809904Y-146042113D02*
X99809904Y-144010113D01*
X97681143Y-144687447D02*
X97681143Y-146042113D01*
X98552000Y-144687447D02*
X98552000Y-145751828D01*
X98552000Y-145751828D02*
X98455238Y-145945352D01*
X98455238Y-145945352D02*
X98261714Y-146042113D01*
X98261714Y-146042113D02*
X97971429Y-146042113D01*
X97971429Y-146042113D02*
X97777905Y-145945352D01*
X97777905Y-145945352D02*
X97681143Y-145848590D01*
X96713524Y-144687447D02*
X96713524Y-146042113D01*
X96713524Y-144880971D02*
X96616762Y-144784209D01*
X96616762Y-144784209D02*
X96423238Y-144687447D01*
X96423238Y-144687447D02*
X96132953Y-144687447D01*
X96132953Y-144687447D02*
X95939429Y-144784209D01*
X95939429Y-144784209D02*
X95842667Y-144977732D01*
X95842667Y-144977732D02*
X95842667Y-146042113D01*
X94875048Y-146042113D02*
X94875048Y-144687447D01*
X94875048Y-144010113D02*
X94971810Y-144106875D01*
X94971810Y-144106875D02*
X94875048Y-144203637D01*
X94875048Y-144203637D02*
X94778286Y-144106875D01*
X94778286Y-144106875D02*
X94875048Y-144010113D01*
X94875048Y-144010113D02*
X94875048Y-144203637D01*
X93907429Y-144687447D02*
X93907429Y-146042113D01*
X93907429Y-144880971D02*
X93810667Y-144784209D01*
X93810667Y-144784209D02*
X93617143Y-144687447D01*
X93617143Y-144687447D02*
X93326858Y-144687447D01*
X93326858Y-144687447D02*
X93133334Y-144784209D01*
X93133334Y-144784209D02*
X93036572Y-144977732D01*
X93036572Y-144977732D02*
X93036572Y-146042113D01*
X91198096Y-144687447D02*
X91198096Y-146332399D01*
X91198096Y-146332399D02*
X91294858Y-146525923D01*
X91294858Y-146525923D02*
X91391620Y-146622685D01*
X91391620Y-146622685D02*
X91585143Y-146719447D01*
X91585143Y-146719447D02*
X91875429Y-146719447D01*
X91875429Y-146719447D02*
X92068953Y-146622685D01*
X91198096Y-145945352D02*
X91391620Y-146042113D01*
X91391620Y-146042113D02*
X91778667Y-146042113D01*
X91778667Y-146042113D02*
X91972191Y-145945352D01*
X91972191Y-145945352D02*
X92068953Y-145848590D01*
X92068953Y-145848590D02*
X92165715Y-145655066D01*
X92165715Y-145655066D02*
X92165715Y-145074494D01*
X92165715Y-145074494D02*
X92068953Y-144880971D01*
X92068953Y-144880971D02*
X91972191Y-144784209D01*
X91972191Y-144784209D02*
X91778667Y-144687447D01*
X91778667Y-144687447D02*
X91391620Y-144687447D01*
X91391620Y-144687447D02*
X91198096Y-144784209D01*
X108083046Y-117037732D02*
X108760379Y-117037732D01*
X108760379Y-118102113D02*
X108760379Y-116070113D01*
X108760379Y-116070113D02*
X107792760Y-116070113D01*
X107018665Y-118102113D02*
X107018665Y-116747447D01*
X107018665Y-117134494D02*
X106921903Y-116940971D01*
X106921903Y-116940971D02*
X106825141Y-116844209D01*
X106825141Y-116844209D02*
X106631617Y-116747447D01*
X106631617Y-116747447D02*
X106438094Y-116747447D01*
X104986665Y-118005352D02*
X105180189Y-118102113D01*
X105180189Y-118102113D02*
X105567236Y-118102113D01*
X105567236Y-118102113D02*
X105760760Y-118005352D01*
X105760760Y-118005352D02*
X105857522Y-117811828D01*
X105857522Y-117811828D02*
X105857522Y-117037732D01*
X105857522Y-117037732D02*
X105760760Y-116844209D01*
X105760760Y-116844209D02*
X105567236Y-116747447D01*
X105567236Y-116747447D02*
X105180189Y-116747447D01*
X105180189Y-116747447D02*
X104986665Y-116844209D01*
X104986665Y-116844209D02*
X104889903Y-117037732D01*
X104889903Y-117037732D02*
X104889903Y-117231256D01*
X104889903Y-117231256D02*
X105857522Y-117424780D01*
X103148189Y-116747447D02*
X103148189Y-118779447D01*
X103148189Y-118005352D02*
X103341713Y-118102113D01*
X103341713Y-118102113D02*
X103728760Y-118102113D01*
X103728760Y-118102113D02*
X103922284Y-118005352D01*
X103922284Y-118005352D02*
X104019046Y-117908590D01*
X104019046Y-117908590D02*
X104115808Y-117715066D01*
X104115808Y-117715066D02*
X104115808Y-117134494D01*
X104115808Y-117134494D02*
X104019046Y-116940971D01*
X104019046Y-116940971D02*
X103922284Y-116844209D01*
X103922284Y-116844209D02*
X103728760Y-116747447D01*
X103728760Y-116747447D02*
X103341713Y-116747447D01*
X103341713Y-116747447D02*
X103148189Y-116844209D01*
X101309713Y-116747447D02*
X101309713Y-118102113D01*
X102180570Y-116747447D02*
X102180570Y-117811828D01*
X102180570Y-117811828D02*
X102083808Y-118005352D01*
X102083808Y-118005352D02*
X101890284Y-118102113D01*
X101890284Y-118102113D02*
X101599999Y-118102113D01*
X101599999Y-118102113D02*
X101406475Y-118005352D01*
X101406475Y-118005352D02*
X101309713Y-117908590D01*
X99567999Y-118005352D02*
X99761523Y-118102113D01*
X99761523Y-118102113D02*
X100148570Y-118102113D01*
X100148570Y-118102113D02*
X100342094Y-118005352D01*
X100342094Y-118005352D02*
X100438856Y-117811828D01*
X100438856Y-117811828D02*
X100438856Y-117037732D01*
X100438856Y-117037732D02*
X100342094Y-116844209D01*
X100342094Y-116844209D02*
X100148570Y-116747447D01*
X100148570Y-116747447D02*
X99761523Y-116747447D01*
X99761523Y-116747447D02*
X99567999Y-116844209D01*
X99567999Y-116844209D02*
X99471237Y-117037732D01*
X99471237Y-117037732D02*
X99471237Y-117231256D01*
X99471237Y-117231256D02*
X100438856Y-117424780D01*
X98600380Y-116747447D02*
X98600380Y-118102113D01*
X98600380Y-116940971D02*
X98503618Y-116844209D01*
X98503618Y-116844209D02*
X98310094Y-116747447D01*
X98310094Y-116747447D02*
X98019809Y-116747447D01*
X98019809Y-116747447D02*
X97826285Y-116844209D01*
X97826285Y-116844209D02*
X97729523Y-117037732D01*
X97729523Y-117037732D02*
X97729523Y-118102113D01*
X95891047Y-118005352D02*
X96084571Y-118102113D01*
X96084571Y-118102113D02*
X96471618Y-118102113D01*
X96471618Y-118102113D02*
X96665142Y-118005352D01*
X96665142Y-118005352D02*
X96761904Y-117908590D01*
X96761904Y-117908590D02*
X96858666Y-117715066D01*
X96858666Y-117715066D02*
X96858666Y-117134494D01*
X96858666Y-117134494D02*
X96761904Y-116940971D01*
X96761904Y-116940971D02*
X96665142Y-116844209D01*
X96665142Y-116844209D02*
X96471618Y-116747447D01*
X96471618Y-116747447D02*
X96084571Y-116747447D01*
X96084571Y-116747447D02*
X95891047Y-116844209D01*
X95213714Y-116747447D02*
X94729904Y-118102113D01*
X94246095Y-116747447D02*
X94729904Y-118102113D01*
X94729904Y-118102113D02*
X94923428Y-118585923D01*
X94923428Y-118585923D02*
X95020190Y-118682685D01*
X95020190Y-118682685D02*
X95213714Y-118779447D01*
X109292570Y-172917732D02*
X109969903Y-172917732D01*
X109969903Y-173982113D02*
X109969903Y-171950113D01*
X109969903Y-171950113D02*
X109002284Y-171950113D01*
X108228189Y-173982113D02*
X108228189Y-172627447D01*
X108228189Y-171950113D02*
X108324951Y-172046875D01*
X108324951Y-172046875D02*
X108228189Y-172143637D01*
X108228189Y-172143637D02*
X108131427Y-172046875D01*
X108131427Y-172046875D02*
X108228189Y-171950113D01*
X108228189Y-171950113D02*
X108228189Y-172143637D01*
X107260570Y-172627447D02*
X107260570Y-173982113D01*
X107260570Y-172820971D02*
X107163808Y-172724209D01*
X107163808Y-172724209D02*
X106970284Y-172627447D01*
X106970284Y-172627447D02*
X106679999Y-172627447D01*
X106679999Y-172627447D02*
X106486475Y-172724209D01*
X106486475Y-172724209D02*
X106389713Y-172917732D01*
X106389713Y-172917732D02*
X106389713Y-173982113D01*
X104647999Y-173885352D02*
X104841523Y-173982113D01*
X104841523Y-173982113D02*
X105228570Y-173982113D01*
X105228570Y-173982113D02*
X105422094Y-173885352D01*
X105422094Y-173885352D02*
X105518856Y-173691828D01*
X105518856Y-173691828D02*
X105518856Y-172917732D01*
X105518856Y-172917732D02*
X105422094Y-172724209D01*
X105422094Y-172724209D02*
X105228570Y-172627447D01*
X105228570Y-172627447D02*
X104841523Y-172627447D01*
X104841523Y-172627447D02*
X104647999Y-172724209D01*
X104647999Y-172724209D02*
X104551237Y-172917732D01*
X104551237Y-172917732D02*
X104551237Y-173111256D01*
X104551237Y-173111256D02*
X105518856Y-173304780D01*
X102422476Y-171950113D02*
X101261333Y-171950113D01*
X101841904Y-173982113D02*
X101841904Y-171950113D01*
X99713143Y-172627447D02*
X99713143Y-173982113D01*
X100584000Y-172627447D02*
X100584000Y-173691828D01*
X100584000Y-173691828D02*
X100487238Y-173885352D01*
X100487238Y-173885352D02*
X100293714Y-173982113D01*
X100293714Y-173982113D02*
X100003429Y-173982113D01*
X100003429Y-173982113D02*
X99809905Y-173885352D01*
X99809905Y-173885352D02*
X99713143Y-173788590D01*
X98745524Y-172627447D02*
X98745524Y-173982113D01*
X98745524Y-172820971D02*
X98648762Y-172724209D01*
X98648762Y-172724209D02*
X98455238Y-172627447D01*
X98455238Y-172627447D02*
X98164953Y-172627447D01*
X98164953Y-172627447D02*
X97971429Y-172724209D01*
X97971429Y-172724209D02*
X97874667Y-172917732D01*
X97874667Y-172917732D02*
X97874667Y-173982113D01*
X96907048Y-173982113D02*
X96907048Y-172627447D01*
X96907048Y-171950113D02*
X97003810Y-172046875D01*
X97003810Y-172046875D02*
X96907048Y-172143637D01*
X96907048Y-172143637D02*
X96810286Y-172046875D01*
X96810286Y-172046875D02*
X96907048Y-171950113D01*
X96907048Y-171950113D02*
X96907048Y-172143637D01*
X95939429Y-172627447D02*
X95939429Y-173982113D01*
X95939429Y-172820971D02*
X95842667Y-172724209D01*
X95842667Y-172724209D02*
X95649143Y-172627447D01*
X95649143Y-172627447D02*
X95358858Y-172627447D01*
X95358858Y-172627447D02*
X95165334Y-172724209D01*
X95165334Y-172724209D02*
X95068572Y-172917732D01*
X95068572Y-172917732D02*
X95068572Y-173982113D01*
X93230096Y-172627447D02*
X93230096Y-174272399D01*
X93230096Y-174272399D02*
X93326858Y-174465923D01*
X93326858Y-174465923D02*
X93423620Y-174562685D01*
X93423620Y-174562685D02*
X93617143Y-174659447D01*
X93617143Y-174659447D02*
X93907429Y-174659447D01*
X93907429Y-174659447D02*
X94100953Y-174562685D01*
X93230096Y-173885352D02*
X93423620Y-173982113D01*
X93423620Y-173982113D02*
X93810667Y-173982113D01*
X93810667Y-173982113D02*
X94004191Y-173885352D01*
X94004191Y-173885352D02*
X94100953Y-173788590D01*
X94100953Y-173788590D02*
X94197715Y-173595066D01*
X94197715Y-173595066D02*
X94197715Y-173014494D01*
X94197715Y-173014494D02*
X94100953Y-172820971D01*
X94100953Y-172820971D02*
X94004191Y-172724209D01*
X94004191Y-172724209D02*
X93810667Y-172627447D01*
X93810667Y-172627447D02*
X93423620Y-172627447D01*
X93423620Y-172627447D02*
X93230096Y-172724209D01*
X110115046Y-77462113D02*
X110115046Y-75430113D01*
X110115046Y-75430113D02*
X109340951Y-75430113D01*
X109340951Y-75430113D02*
X109147427Y-75526875D01*
X109147427Y-75526875D02*
X109050665Y-75623637D01*
X109050665Y-75623637D02*
X108953903Y-75817161D01*
X108953903Y-75817161D02*
X108953903Y-76107447D01*
X108953903Y-76107447D02*
X109050665Y-76300971D01*
X109050665Y-76300971D02*
X109147427Y-76397732D01*
X109147427Y-76397732D02*
X109340951Y-76494494D01*
X109340951Y-76494494D02*
X110115046Y-76494494D01*
X107212189Y-76107447D02*
X107212189Y-77462113D01*
X108083046Y-76107447D02*
X108083046Y-77171828D01*
X108083046Y-77171828D02*
X107986284Y-77365352D01*
X107986284Y-77365352D02*
X107792760Y-77462113D01*
X107792760Y-77462113D02*
X107502475Y-77462113D01*
X107502475Y-77462113D02*
X107308951Y-77365352D01*
X107308951Y-77365352D02*
X107212189Y-77268590D01*
X105954284Y-77462113D02*
X106147808Y-77365352D01*
X106147808Y-77365352D02*
X106244570Y-77171828D01*
X106244570Y-77171828D02*
X106244570Y-75430113D01*
X105276951Y-77365352D02*
X105083427Y-77462113D01*
X105083427Y-77462113D02*
X104696379Y-77462113D01*
X104696379Y-77462113D02*
X104502856Y-77365352D01*
X104502856Y-77365352D02*
X104406094Y-77171828D01*
X104406094Y-77171828D02*
X104406094Y-77075066D01*
X104406094Y-77075066D02*
X104502856Y-76881542D01*
X104502856Y-76881542D02*
X104696379Y-76784780D01*
X104696379Y-76784780D02*
X104986665Y-76784780D01*
X104986665Y-76784780D02*
X105180189Y-76688018D01*
X105180189Y-76688018D02*
X105276951Y-76494494D01*
X105276951Y-76494494D02*
X105276951Y-76397732D01*
X105276951Y-76397732D02*
X105180189Y-76204209D01*
X105180189Y-76204209D02*
X104986665Y-76107447D01*
X104986665Y-76107447D02*
X104696379Y-76107447D01*
X104696379Y-76107447D02*
X104502856Y-76204209D01*
X102761142Y-77365352D02*
X102954666Y-77462113D01*
X102954666Y-77462113D02*
X103341713Y-77462113D01*
X103341713Y-77462113D02*
X103535237Y-77365352D01*
X103535237Y-77365352D02*
X103631999Y-77171828D01*
X103631999Y-77171828D02*
X103631999Y-76397732D01*
X103631999Y-76397732D02*
X103535237Y-76204209D01*
X103535237Y-76204209D02*
X103341713Y-76107447D01*
X103341713Y-76107447D02*
X102954666Y-76107447D01*
X102954666Y-76107447D02*
X102761142Y-76204209D01*
X102761142Y-76204209D02*
X102664380Y-76397732D01*
X102664380Y-76397732D02*
X102664380Y-76591256D01*
X102664380Y-76591256D02*
X103631999Y-76784780D01*
X100438857Y-75430113D02*
X99955047Y-77462113D01*
X99955047Y-77462113D02*
X99568000Y-76010685D01*
X99568000Y-76010685D02*
X99180952Y-77462113D01*
X99180952Y-77462113D02*
X98697143Y-75430113D01*
X97923047Y-77462113D02*
X97923047Y-76107447D01*
X97923047Y-75430113D02*
X98019809Y-75526875D01*
X98019809Y-75526875D02*
X97923047Y-75623637D01*
X97923047Y-75623637D02*
X97826285Y-75526875D01*
X97826285Y-75526875D02*
X97923047Y-75430113D01*
X97923047Y-75430113D02*
X97923047Y-75623637D01*
X96084571Y-77462113D02*
X96084571Y-75430113D01*
X96084571Y-77365352D02*
X96278095Y-77462113D01*
X96278095Y-77462113D02*
X96665142Y-77462113D01*
X96665142Y-77462113D02*
X96858666Y-77365352D01*
X96858666Y-77365352D02*
X96955428Y-77268590D01*
X96955428Y-77268590D02*
X97052190Y-77075066D01*
X97052190Y-77075066D02*
X97052190Y-76494494D01*
X97052190Y-76494494D02*
X96955428Y-76300971D01*
X96955428Y-76300971D02*
X96858666Y-76204209D01*
X96858666Y-76204209D02*
X96665142Y-76107447D01*
X96665142Y-76107447D02*
X96278095Y-76107447D01*
X96278095Y-76107447D02*
X96084571Y-76204209D01*
X95407238Y-76107447D02*
X94633142Y-76107447D01*
X95116952Y-75430113D02*
X95116952Y-77171828D01*
X95116952Y-77171828D02*
X95020190Y-77365352D01*
X95020190Y-77365352D02*
X94826666Y-77462113D01*
X94826666Y-77462113D02*
X94633142Y-77462113D01*
X93955809Y-77462113D02*
X93955809Y-75430113D01*
X93084952Y-77462113D02*
X93084952Y-76397732D01*
X93084952Y-76397732D02*
X93181714Y-76204209D01*
X93181714Y-76204209D02*
X93375238Y-76107447D01*
X93375238Y-76107447D02*
X93665523Y-76107447D01*
X93665523Y-76107447D02*
X93859047Y-76204209D01*
X93859047Y-76204209D02*
X93955809Y-76300971D01*
X45018475Y-53332113D02*
X44534665Y-55364113D01*
X44534665Y-55364113D02*
X44147618Y-53912685D01*
X44147618Y-53912685D02*
X43760570Y-55364113D01*
X43760570Y-55364113D02*
X43276761Y-53332113D01*
X41631808Y-55364113D02*
X41631808Y-54299732D01*
X41631808Y-54299732D02*
X41728570Y-54106209D01*
X41728570Y-54106209D02*
X41922094Y-54009447D01*
X41922094Y-54009447D02*
X42309141Y-54009447D01*
X42309141Y-54009447D02*
X42502665Y-54106209D01*
X41631808Y-55267352D02*
X41825332Y-55364113D01*
X41825332Y-55364113D02*
X42309141Y-55364113D01*
X42309141Y-55364113D02*
X42502665Y-55267352D01*
X42502665Y-55267352D02*
X42599427Y-55073828D01*
X42599427Y-55073828D02*
X42599427Y-54880304D01*
X42599427Y-54880304D02*
X42502665Y-54686780D01*
X42502665Y-54686780D02*
X42309141Y-54590018D01*
X42309141Y-54590018D02*
X41825332Y-54590018D01*
X41825332Y-54590018D02*
X41631808Y-54493256D01*
X40857713Y-54009447D02*
X40373903Y-55364113D01*
X40373903Y-55364113D02*
X39890094Y-54009447D01*
X38341904Y-55267352D02*
X38535428Y-55364113D01*
X38535428Y-55364113D02*
X38922475Y-55364113D01*
X38922475Y-55364113D02*
X39115999Y-55267352D01*
X39115999Y-55267352D02*
X39212761Y-55073828D01*
X39212761Y-55073828D02*
X39212761Y-54299732D01*
X39212761Y-54299732D02*
X39115999Y-54106209D01*
X39115999Y-54106209D02*
X38922475Y-54009447D01*
X38922475Y-54009447D02*
X38535428Y-54009447D01*
X38535428Y-54009447D02*
X38341904Y-54106209D01*
X38341904Y-54106209D02*
X38245142Y-54299732D01*
X38245142Y-54299732D02*
X38245142Y-54493256D01*
X38245142Y-54493256D02*
X39212761Y-54686780D01*
X37664571Y-54009447D02*
X36890475Y-54009447D01*
X37374285Y-55364113D02*
X37374285Y-53622399D01*
X37374285Y-53622399D02*
X37277523Y-53428875D01*
X37277523Y-53428875D02*
X37083999Y-53332113D01*
X37083999Y-53332113D02*
X36890475Y-53332113D01*
X35922856Y-55364113D02*
X36116380Y-55267352D01*
X36116380Y-55267352D02*
X36213142Y-55170590D01*
X36213142Y-55170590D02*
X36309904Y-54977066D01*
X36309904Y-54977066D02*
X36309904Y-54396494D01*
X36309904Y-54396494D02*
X36213142Y-54202971D01*
X36213142Y-54202971D02*
X36116380Y-54106209D01*
X36116380Y-54106209D02*
X35922856Y-54009447D01*
X35922856Y-54009447D02*
X35632571Y-54009447D01*
X35632571Y-54009447D02*
X35439047Y-54106209D01*
X35439047Y-54106209D02*
X35342285Y-54202971D01*
X35342285Y-54202971D02*
X35245523Y-54396494D01*
X35245523Y-54396494D02*
X35245523Y-54977066D01*
X35245523Y-54977066D02*
X35342285Y-55170590D01*
X35342285Y-55170590D02*
X35439047Y-55267352D01*
X35439047Y-55267352D02*
X35632571Y-55364113D01*
X35632571Y-55364113D02*
X35922856Y-55364113D01*
X34374666Y-55364113D02*
X34374666Y-54009447D01*
X34374666Y-54396494D02*
X34277904Y-54202971D01*
X34277904Y-54202971D02*
X34181142Y-54106209D01*
X34181142Y-54106209D02*
X33987618Y-54009447D01*
X33987618Y-54009447D02*
X33794095Y-54009447D01*
X33116761Y-55364113D02*
X33116761Y-54009447D01*
X33116761Y-54202971D02*
X33019999Y-54106209D01*
X33019999Y-54106209D02*
X32826475Y-54009447D01*
X32826475Y-54009447D02*
X32536190Y-54009447D01*
X32536190Y-54009447D02*
X32342666Y-54106209D01*
X32342666Y-54106209D02*
X32245904Y-54299732D01*
X32245904Y-54299732D02*
X32245904Y-55364113D01*
X32245904Y-54299732D02*
X32149142Y-54106209D01*
X32149142Y-54106209D02*
X31955618Y-54009447D01*
X31955618Y-54009447D02*
X31665332Y-54009447D01*
X31665332Y-54009447D02*
X31471809Y-54106209D01*
X31471809Y-54106209D02*
X31375047Y-54299732D01*
X31375047Y-54299732D02*
X31375047Y-55364113D01*
%TO.C,SW1*%
D12*
X59388000Y-108100000D02*
X53388000Y-108100000D01*
X53388000Y-95100000D01*
X59388000Y-95100000D01*
X59388000Y-108100000D01*
%TO.C,SW2*%
X41100000Y-75040000D02*
X35100000Y-75040000D01*
X35100000Y-57040000D01*
X41100000Y-57040000D01*
X41100000Y-75040000D01*
%TD*%
M02*
