%TF.GenerationSoftware,KiCad,Pcbnew,9.0.6*%
%TF.CreationDate,2026-04-22T22:05:46-07:00*%
%TF.ProjectId,modulinVCF,6d6f6475-6c69-46e5-9643-462e6b696361,rev?*%
%TF.SameCoordinates,Original*%
%TF.FileFunction,Legend,Bot*%
%TF.FilePolarity,Positive*%
%FSLAX46Y46*%
G04 Gerber Fmt 4.6, Leading zero omitted, Abs format (unit mm)*
G04 Created by KiCad (PCBNEW 9.0.6) date 2026-04-22 22:05:46*
%MOMM*%
%LPD*%
G01*
G04 APERTURE LIST*
%ADD10C,0.508000*%
%ADD11C,0.254000*%
G04 APERTURE END LIST*
D10*
X64830475Y-19567499D02*
X64153141Y-21599499D01*
X64153141Y-21599499D02*
X63475808Y-19567499D01*
X62508189Y-21599499D02*
X62701713Y-21502738D01*
X62701713Y-21502738D02*
X62798475Y-21405976D01*
X62798475Y-21405976D02*
X62895237Y-21212452D01*
X62895237Y-21212452D02*
X62895237Y-20631880D01*
X62895237Y-20631880D02*
X62798475Y-20438357D01*
X62798475Y-20438357D02*
X62701713Y-20341595D01*
X62701713Y-20341595D02*
X62508189Y-20244833D01*
X62508189Y-20244833D02*
X62217904Y-20244833D01*
X62217904Y-20244833D02*
X62024380Y-20341595D01*
X62024380Y-20341595D02*
X61927618Y-20438357D01*
X61927618Y-20438357D02*
X61830856Y-20631880D01*
X61830856Y-20631880D02*
X61830856Y-21212452D01*
X61830856Y-21212452D02*
X61927618Y-21405976D01*
X61927618Y-21405976D02*
X62024380Y-21502738D01*
X62024380Y-21502738D02*
X62217904Y-21599499D01*
X62217904Y-21599499D02*
X62508189Y-21599499D01*
X60669713Y-21599499D02*
X60863237Y-21502738D01*
X60863237Y-21502738D02*
X60959999Y-21309214D01*
X60959999Y-21309214D02*
X60959999Y-19567499D01*
X60185904Y-20244833D02*
X59411808Y-20244833D01*
X59895618Y-19567499D02*
X59895618Y-21309214D01*
X59895618Y-21309214D02*
X59798856Y-21502738D01*
X59798856Y-21502738D02*
X59605332Y-21599499D01*
X59605332Y-21599499D02*
X59411808Y-21599499D01*
X57863618Y-21599499D02*
X57863618Y-20535118D01*
X57863618Y-20535118D02*
X57960380Y-20341595D01*
X57960380Y-20341595D02*
X58153904Y-20244833D01*
X58153904Y-20244833D02*
X58540951Y-20244833D01*
X58540951Y-20244833D02*
X58734475Y-20341595D01*
X57863618Y-21502738D02*
X58057142Y-21599499D01*
X58057142Y-21599499D02*
X58540951Y-21599499D01*
X58540951Y-21599499D02*
X58734475Y-21502738D01*
X58734475Y-21502738D02*
X58831237Y-21309214D01*
X58831237Y-21309214D02*
X58831237Y-21115690D01*
X58831237Y-21115690D02*
X58734475Y-20922166D01*
X58734475Y-20922166D02*
X58540951Y-20825404D01*
X58540951Y-20825404D02*
X58057142Y-20825404D01*
X58057142Y-20825404D02*
X57863618Y-20728642D01*
X56025142Y-20244833D02*
X56025142Y-21889785D01*
X56025142Y-21889785D02*
X56121904Y-22083309D01*
X56121904Y-22083309D02*
X56218666Y-22180071D01*
X56218666Y-22180071D02*
X56412189Y-22276833D01*
X56412189Y-22276833D02*
X56702475Y-22276833D01*
X56702475Y-22276833D02*
X56895999Y-22180071D01*
X56025142Y-21502738D02*
X56218666Y-21599499D01*
X56218666Y-21599499D02*
X56605713Y-21599499D01*
X56605713Y-21599499D02*
X56799237Y-21502738D01*
X56799237Y-21502738D02*
X56895999Y-21405976D01*
X56895999Y-21405976D02*
X56992761Y-21212452D01*
X56992761Y-21212452D02*
X56992761Y-20631880D01*
X56992761Y-20631880D02*
X56895999Y-20438357D01*
X56895999Y-20438357D02*
X56799237Y-20341595D01*
X56799237Y-20341595D02*
X56605713Y-20244833D01*
X56605713Y-20244833D02*
X56218666Y-20244833D01*
X56218666Y-20244833D02*
X56025142Y-20341595D01*
X54283428Y-21502738D02*
X54476952Y-21599499D01*
X54476952Y-21599499D02*
X54863999Y-21599499D01*
X54863999Y-21599499D02*
X55057523Y-21502738D01*
X55057523Y-21502738D02*
X55154285Y-21309214D01*
X55154285Y-21309214D02*
X55154285Y-20535118D01*
X55154285Y-20535118D02*
X55057523Y-20341595D01*
X55057523Y-20341595D02*
X54863999Y-20244833D01*
X54863999Y-20244833D02*
X54476952Y-20244833D01*
X54476952Y-20244833D02*
X54283428Y-20341595D01*
X54283428Y-20341595D02*
X54186666Y-20535118D01*
X54186666Y-20535118D02*
X54186666Y-20728642D01*
X54186666Y-20728642D02*
X55154285Y-20922166D01*
X50606476Y-21405976D02*
X50703238Y-21502738D01*
X50703238Y-21502738D02*
X50993524Y-21599499D01*
X50993524Y-21599499D02*
X51187048Y-21599499D01*
X51187048Y-21599499D02*
X51477333Y-21502738D01*
X51477333Y-21502738D02*
X51670857Y-21309214D01*
X51670857Y-21309214D02*
X51767619Y-21115690D01*
X51767619Y-21115690D02*
X51864381Y-20728642D01*
X51864381Y-20728642D02*
X51864381Y-20438357D01*
X51864381Y-20438357D02*
X51767619Y-20051309D01*
X51767619Y-20051309D02*
X51670857Y-19857785D01*
X51670857Y-19857785D02*
X51477333Y-19664261D01*
X51477333Y-19664261D02*
X51187048Y-19567499D01*
X51187048Y-19567499D02*
X50993524Y-19567499D01*
X50993524Y-19567499D02*
X50703238Y-19664261D01*
X50703238Y-19664261D02*
X50606476Y-19761023D01*
X49445333Y-21599499D02*
X49638857Y-21502738D01*
X49638857Y-21502738D02*
X49735619Y-21405976D01*
X49735619Y-21405976D02*
X49832381Y-21212452D01*
X49832381Y-21212452D02*
X49832381Y-20631880D01*
X49832381Y-20631880D02*
X49735619Y-20438357D01*
X49735619Y-20438357D02*
X49638857Y-20341595D01*
X49638857Y-20341595D02*
X49445333Y-20244833D01*
X49445333Y-20244833D02*
X49155048Y-20244833D01*
X49155048Y-20244833D02*
X48961524Y-20341595D01*
X48961524Y-20341595D02*
X48864762Y-20438357D01*
X48864762Y-20438357D02*
X48768000Y-20631880D01*
X48768000Y-20631880D02*
X48768000Y-21212452D01*
X48768000Y-21212452D02*
X48864762Y-21405976D01*
X48864762Y-21405976D02*
X48961524Y-21502738D01*
X48961524Y-21502738D02*
X49155048Y-21599499D01*
X49155048Y-21599499D02*
X49445333Y-21599499D01*
X47897143Y-20244833D02*
X47897143Y-21599499D01*
X47897143Y-20438357D02*
X47800381Y-20341595D01*
X47800381Y-20341595D02*
X47606857Y-20244833D01*
X47606857Y-20244833D02*
X47316572Y-20244833D01*
X47316572Y-20244833D02*
X47123048Y-20341595D01*
X47123048Y-20341595D02*
X47026286Y-20535118D01*
X47026286Y-20535118D02*
X47026286Y-21599499D01*
X46348953Y-20244833D02*
X45574857Y-20244833D01*
X46058667Y-19567499D02*
X46058667Y-21309214D01*
X46058667Y-21309214D02*
X45961905Y-21502738D01*
X45961905Y-21502738D02*
X45768381Y-21599499D01*
X45768381Y-21599499D02*
X45574857Y-21599499D01*
X44897524Y-21599499D02*
X44897524Y-20244833D01*
X44897524Y-20631880D02*
X44800762Y-20438357D01*
X44800762Y-20438357D02*
X44704000Y-20341595D01*
X44704000Y-20341595D02*
X44510476Y-20244833D01*
X44510476Y-20244833D02*
X44316953Y-20244833D01*
X43349333Y-21599499D02*
X43542857Y-21502738D01*
X43542857Y-21502738D02*
X43639619Y-21405976D01*
X43639619Y-21405976D02*
X43736381Y-21212452D01*
X43736381Y-21212452D02*
X43736381Y-20631880D01*
X43736381Y-20631880D02*
X43639619Y-20438357D01*
X43639619Y-20438357D02*
X43542857Y-20341595D01*
X43542857Y-20341595D02*
X43349333Y-20244833D01*
X43349333Y-20244833D02*
X43059048Y-20244833D01*
X43059048Y-20244833D02*
X42865524Y-20341595D01*
X42865524Y-20341595D02*
X42768762Y-20438357D01*
X42768762Y-20438357D02*
X42672000Y-20631880D01*
X42672000Y-20631880D02*
X42672000Y-21212452D01*
X42672000Y-21212452D02*
X42768762Y-21405976D01*
X42768762Y-21405976D02*
X42865524Y-21502738D01*
X42865524Y-21502738D02*
X43059048Y-21599499D01*
X43059048Y-21599499D02*
X43349333Y-21599499D01*
X41510857Y-21599499D02*
X41704381Y-21502738D01*
X41704381Y-21502738D02*
X41801143Y-21309214D01*
X41801143Y-21309214D02*
X41801143Y-19567499D01*
X40446476Y-21599499D02*
X40640000Y-21502738D01*
X40640000Y-21502738D02*
X40736762Y-21309214D01*
X40736762Y-21309214D02*
X40736762Y-19567499D01*
X38898286Y-21502738D02*
X39091810Y-21599499D01*
X39091810Y-21599499D02*
X39478857Y-21599499D01*
X39478857Y-21599499D02*
X39672381Y-21502738D01*
X39672381Y-21502738D02*
X39769143Y-21309214D01*
X39769143Y-21309214D02*
X39769143Y-20535118D01*
X39769143Y-20535118D02*
X39672381Y-20341595D01*
X39672381Y-20341595D02*
X39478857Y-20244833D01*
X39478857Y-20244833D02*
X39091810Y-20244833D01*
X39091810Y-20244833D02*
X38898286Y-20341595D01*
X38898286Y-20341595D02*
X38801524Y-20535118D01*
X38801524Y-20535118D02*
X38801524Y-20728642D01*
X38801524Y-20728642D02*
X39769143Y-20922166D01*
X37059810Y-21599499D02*
X37059810Y-19567499D01*
X37059810Y-21502738D02*
X37253334Y-21599499D01*
X37253334Y-21599499D02*
X37640381Y-21599499D01*
X37640381Y-21599499D02*
X37833905Y-21502738D01*
X37833905Y-21502738D02*
X37930667Y-21405976D01*
X37930667Y-21405976D02*
X38027429Y-21212452D01*
X38027429Y-21212452D02*
X38027429Y-20631880D01*
X38027429Y-20631880D02*
X37930667Y-20438357D01*
X37930667Y-20438357D02*
X37833905Y-20341595D01*
X37833905Y-20341595D02*
X37640381Y-20244833D01*
X37640381Y-20244833D02*
X37253334Y-20244833D01*
X37253334Y-20244833D02*
X37059810Y-20341595D01*
X53606095Y-23806524D02*
X54283428Y-23806524D01*
X54283428Y-24870905D02*
X54283428Y-22838905D01*
X54283428Y-22838905D02*
X53315809Y-22838905D01*
X52541714Y-24870905D02*
X52541714Y-23516239D01*
X52541714Y-22838905D02*
X52638476Y-22935667D01*
X52638476Y-22935667D02*
X52541714Y-23032429D01*
X52541714Y-23032429D02*
X52444952Y-22935667D01*
X52444952Y-22935667D02*
X52541714Y-22838905D01*
X52541714Y-22838905D02*
X52541714Y-23032429D01*
X51283809Y-24870905D02*
X51477333Y-24774144D01*
X51477333Y-24774144D02*
X51574095Y-24580620D01*
X51574095Y-24580620D02*
X51574095Y-22838905D01*
X50800000Y-23516239D02*
X50025904Y-23516239D01*
X50509714Y-22838905D02*
X50509714Y-24580620D01*
X50509714Y-24580620D02*
X50412952Y-24774144D01*
X50412952Y-24774144D02*
X50219428Y-24870905D01*
X50219428Y-24870905D02*
X50025904Y-24870905D01*
X48574476Y-24774144D02*
X48768000Y-24870905D01*
X48768000Y-24870905D02*
X49155047Y-24870905D01*
X49155047Y-24870905D02*
X49348571Y-24774144D01*
X49348571Y-24774144D02*
X49445333Y-24580620D01*
X49445333Y-24580620D02*
X49445333Y-23806524D01*
X49445333Y-23806524D02*
X49348571Y-23613001D01*
X49348571Y-23613001D02*
X49155047Y-23516239D01*
X49155047Y-23516239D02*
X48768000Y-23516239D01*
X48768000Y-23516239D02*
X48574476Y-23613001D01*
X48574476Y-23613001D02*
X48477714Y-23806524D01*
X48477714Y-23806524D02*
X48477714Y-24000048D01*
X48477714Y-24000048D02*
X49445333Y-24193572D01*
X47606857Y-24870905D02*
X47606857Y-23516239D01*
X47606857Y-23903286D02*
X47510095Y-23709763D01*
X47510095Y-23709763D02*
X47413333Y-23613001D01*
X47413333Y-23613001D02*
X47219809Y-23516239D01*
X47219809Y-23516239D02*
X47026286Y-23516239D01*
D11*
X69898380Y-171248590D02*
X69995142Y-171345352D01*
X69995142Y-171345352D02*
X70285428Y-171442113D01*
X70285428Y-171442113D02*
X70478952Y-171442113D01*
X70478952Y-171442113D02*
X70769237Y-171345352D01*
X70769237Y-171345352D02*
X70962761Y-171151828D01*
X70962761Y-171151828D02*
X71059523Y-170958304D01*
X71059523Y-170958304D02*
X71156285Y-170571256D01*
X71156285Y-170571256D02*
X71156285Y-170280971D01*
X71156285Y-170280971D02*
X71059523Y-169893923D01*
X71059523Y-169893923D02*
X70962761Y-169700399D01*
X70962761Y-169700399D02*
X70769237Y-169506875D01*
X70769237Y-169506875D02*
X70478952Y-169410113D01*
X70478952Y-169410113D02*
X70285428Y-169410113D01*
X70285428Y-169410113D02*
X69995142Y-169506875D01*
X69995142Y-169506875D02*
X69898380Y-169603637D01*
X68156666Y-170087447D02*
X68156666Y-171442113D01*
X69027523Y-170087447D02*
X69027523Y-171151828D01*
X69027523Y-171151828D02*
X68930761Y-171345352D01*
X68930761Y-171345352D02*
X68737237Y-171442113D01*
X68737237Y-171442113D02*
X68446952Y-171442113D01*
X68446952Y-171442113D02*
X68253428Y-171345352D01*
X68253428Y-171345352D02*
X68156666Y-171248590D01*
X67479333Y-170087447D02*
X66705237Y-170087447D01*
X67189047Y-169410113D02*
X67189047Y-171151828D01*
X67189047Y-171151828D02*
X67092285Y-171345352D01*
X67092285Y-171345352D02*
X66898761Y-171442113D01*
X66898761Y-171442113D02*
X66705237Y-171442113D01*
X65737618Y-171442113D02*
X65931142Y-171345352D01*
X65931142Y-171345352D02*
X66027904Y-171248590D01*
X66027904Y-171248590D02*
X66124666Y-171055066D01*
X66124666Y-171055066D02*
X66124666Y-170474494D01*
X66124666Y-170474494D02*
X66027904Y-170280971D01*
X66027904Y-170280971D02*
X65931142Y-170184209D01*
X65931142Y-170184209D02*
X65737618Y-170087447D01*
X65737618Y-170087447D02*
X65447333Y-170087447D01*
X65447333Y-170087447D02*
X65253809Y-170184209D01*
X65253809Y-170184209D02*
X65157047Y-170280971D01*
X65157047Y-170280971D02*
X65060285Y-170474494D01*
X65060285Y-170474494D02*
X65060285Y-171055066D01*
X65060285Y-171055066D02*
X65157047Y-171248590D01*
X65157047Y-171248590D02*
X65253809Y-171345352D01*
X65253809Y-171345352D02*
X65447333Y-171442113D01*
X65447333Y-171442113D02*
X65737618Y-171442113D01*
X64479714Y-170087447D02*
X63705618Y-170087447D01*
X64189428Y-171442113D02*
X64189428Y-169700399D01*
X64189428Y-169700399D02*
X64092666Y-169506875D01*
X64092666Y-169506875D02*
X63899142Y-169410113D01*
X63899142Y-169410113D02*
X63705618Y-169410113D01*
X63318571Y-170087447D02*
X62544475Y-170087447D01*
X63028285Y-171442113D02*
X63028285Y-169700399D01*
X63028285Y-169700399D02*
X62931523Y-169506875D01*
X62931523Y-169506875D02*
X62737999Y-169410113D01*
X62737999Y-169410113D02*
X62544475Y-169410113D01*
X59641619Y-170377732D02*
X60318952Y-170377732D01*
X60318952Y-171442113D02*
X60318952Y-169410113D01*
X60318952Y-169410113D02*
X59351333Y-169410113D01*
X58577238Y-171442113D02*
X58577238Y-170087447D01*
X58577238Y-170474494D02*
X58480476Y-170280971D01*
X58480476Y-170280971D02*
X58383714Y-170184209D01*
X58383714Y-170184209D02*
X58190190Y-170087447D01*
X58190190Y-170087447D02*
X57996667Y-170087447D01*
X56448476Y-170087447D02*
X56448476Y-172119447D01*
X56448476Y-171345352D02*
X56642000Y-171442113D01*
X56642000Y-171442113D02*
X57029047Y-171442113D01*
X57029047Y-171442113D02*
X57222571Y-171345352D01*
X57222571Y-171345352D02*
X57319333Y-171248590D01*
X57319333Y-171248590D02*
X57416095Y-171055066D01*
X57416095Y-171055066D02*
X57416095Y-170474494D01*
X57416095Y-170474494D02*
X57319333Y-170280971D01*
X57319333Y-170280971D02*
X57222571Y-170184209D01*
X57222571Y-170184209D02*
X57029047Y-170087447D01*
X57029047Y-170087447D02*
X56642000Y-170087447D01*
X56642000Y-170087447D02*
X56448476Y-170184209D01*
X69983046Y-49522113D02*
X70660379Y-48554494D01*
X71144189Y-49522113D02*
X71144189Y-47490113D01*
X71144189Y-47490113D02*
X70370094Y-47490113D01*
X70370094Y-47490113D02*
X70176570Y-47586875D01*
X70176570Y-47586875D02*
X70079808Y-47683637D01*
X70079808Y-47683637D02*
X69983046Y-47877161D01*
X69983046Y-47877161D02*
X69983046Y-48167447D01*
X69983046Y-48167447D02*
X70079808Y-48360971D01*
X70079808Y-48360971D02*
X70176570Y-48457732D01*
X70176570Y-48457732D02*
X70370094Y-48554494D01*
X70370094Y-48554494D02*
X71144189Y-48554494D01*
X68338094Y-49425352D02*
X68531618Y-49522113D01*
X68531618Y-49522113D02*
X68918665Y-49522113D01*
X68918665Y-49522113D02*
X69112189Y-49425352D01*
X69112189Y-49425352D02*
X69208951Y-49231828D01*
X69208951Y-49231828D02*
X69208951Y-48457732D01*
X69208951Y-48457732D02*
X69112189Y-48264209D01*
X69112189Y-48264209D02*
X68918665Y-48167447D01*
X68918665Y-48167447D02*
X68531618Y-48167447D01*
X68531618Y-48167447D02*
X68338094Y-48264209D01*
X68338094Y-48264209D02*
X68241332Y-48457732D01*
X68241332Y-48457732D02*
X68241332Y-48651256D01*
X68241332Y-48651256D02*
X69208951Y-48844780D01*
X67467237Y-49425352D02*
X67273713Y-49522113D01*
X67273713Y-49522113D02*
X66886665Y-49522113D01*
X66886665Y-49522113D02*
X66693142Y-49425352D01*
X66693142Y-49425352D02*
X66596380Y-49231828D01*
X66596380Y-49231828D02*
X66596380Y-49135066D01*
X66596380Y-49135066D02*
X66693142Y-48941542D01*
X66693142Y-48941542D02*
X66886665Y-48844780D01*
X66886665Y-48844780D02*
X67176951Y-48844780D01*
X67176951Y-48844780D02*
X67370475Y-48748018D01*
X67370475Y-48748018D02*
X67467237Y-48554494D01*
X67467237Y-48554494D02*
X67467237Y-48457732D01*
X67467237Y-48457732D02*
X67370475Y-48264209D01*
X67370475Y-48264209D02*
X67176951Y-48167447D01*
X67176951Y-48167447D02*
X66886665Y-48167447D01*
X66886665Y-48167447D02*
X66693142Y-48264209D01*
X65435237Y-49522113D02*
X65628761Y-49425352D01*
X65628761Y-49425352D02*
X65725523Y-49328590D01*
X65725523Y-49328590D02*
X65822285Y-49135066D01*
X65822285Y-49135066D02*
X65822285Y-48554494D01*
X65822285Y-48554494D02*
X65725523Y-48360971D01*
X65725523Y-48360971D02*
X65628761Y-48264209D01*
X65628761Y-48264209D02*
X65435237Y-48167447D01*
X65435237Y-48167447D02*
X65144952Y-48167447D01*
X65144952Y-48167447D02*
X64951428Y-48264209D01*
X64951428Y-48264209D02*
X64854666Y-48360971D01*
X64854666Y-48360971D02*
X64757904Y-48554494D01*
X64757904Y-48554494D02*
X64757904Y-49135066D01*
X64757904Y-49135066D02*
X64854666Y-49328590D01*
X64854666Y-49328590D02*
X64951428Y-49425352D01*
X64951428Y-49425352D02*
X65144952Y-49522113D01*
X65144952Y-49522113D02*
X65435237Y-49522113D01*
X63887047Y-48167447D02*
X63887047Y-49522113D01*
X63887047Y-48360971D02*
X63790285Y-48264209D01*
X63790285Y-48264209D02*
X63596761Y-48167447D01*
X63596761Y-48167447D02*
X63306476Y-48167447D01*
X63306476Y-48167447D02*
X63112952Y-48264209D01*
X63112952Y-48264209D02*
X63016190Y-48457732D01*
X63016190Y-48457732D02*
X63016190Y-49522113D01*
X61177714Y-49522113D02*
X61177714Y-48457732D01*
X61177714Y-48457732D02*
X61274476Y-48264209D01*
X61274476Y-48264209D02*
X61468000Y-48167447D01*
X61468000Y-48167447D02*
X61855047Y-48167447D01*
X61855047Y-48167447D02*
X62048571Y-48264209D01*
X61177714Y-49425352D02*
X61371238Y-49522113D01*
X61371238Y-49522113D02*
X61855047Y-49522113D01*
X61855047Y-49522113D02*
X62048571Y-49425352D01*
X62048571Y-49425352D02*
X62145333Y-49231828D01*
X62145333Y-49231828D02*
X62145333Y-49038304D01*
X62145333Y-49038304D02*
X62048571Y-48844780D01*
X62048571Y-48844780D02*
X61855047Y-48748018D01*
X61855047Y-48748018D02*
X61371238Y-48748018D01*
X61371238Y-48748018D02*
X61177714Y-48651256D01*
X60210095Y-48167447D02*
X60210095Y-49522113D01*
X60210095Y-48360971D02*
X60113333Y-48264209D01*
X60113333Y-48264209D02*
X59919809Y-48167447D01*
X59919809Y-48167447D02*
X59629524Y-48167447D01*
X59629524Y-48167447D02*
X59436000Y-48264209D01*
X59436000Y-48264209D02*
X59339238Y-48457732D01*
X59339238Y-48457732D02*
X59339238Y-49522113D01*
X57500762Y-49425352D02*
X57694286Y-49522113D01*
X57694286Y-49522113D02*
X58081333Y-49522113D01*
X58081333Y-49522113D02*
X58274857Y-49425352D01*
X58274857Y-49425352D02*
X58371619Y-49328590D01*
X58371619Y-49328590D02*
X58468381Y-49135066D01*
X58468381Y-49135066D02*
X58468381Y-48554494D01*
X58468381Y-48554494D02*
X58371619Y-48360971D01*
X58371619Y-48360971D02*
X58274857Y-48264209D01*
X58274857Y-48264209D02*
X58081333Y-48167447D01*
X58081333Y-48167447D02*
X57694286Y-48167447D01*
X57694286Y-48167447D02*
X57500762Y-48264209D01*
X55855810Y-49425352D02*
X56049334Y-49522113D01*
X56049334Y-49522113D02*
X56436381Y-49522113D01*
X56436381Y-49522113D02*
X56629905Y-49425352D01*
X56629905Y-49425352D02*
X56726667Y-49231828D01*
X56726667Y-49231828D02*
X56726667Y-48457732D01*
X56726667Y-48457732D02*
X56629905Y-48264209D01*
X56629905Y-48264209D02*
X56436381Y-48167447D01*
X56436381Y-48167447D02*
X56049334Y-48167447D01*
X56049334Y-48167447D02*
X55855810Y-48264209D01*
X55855810Y-48264209D02*
X55759048Y-48457732D01*
X55759048Y-48457732D02*
X55759048Y-48651256D01*
X55759048Y-48651256D02*
X56726667Y-48844780D01*
X69208951Y-144010113D02*
X68531617Y-146042113D01*
X68531617Y-146042113D02*
X67854284Y-144010113D01*
X66402856Y-145945352D02*
X66596380Y-146042113D01*
X66596380Y-146042113D02*
X66983427Y-146042113D01*
X66983427Y-146042113D02*
X67176951Y-145945352D01*
X67176951Y-145945352D02*
X67273713Y-145751828D01*
X67273713Y-145751828D02*
X67273713Y-144977732D01*
X67273713Y-144977732D02*
X67176951Y-144784209D01*
X67176951Y-144784209D02*
X66983427Y-144687447D01*
X66983427Y-144687447D02*
X66596380Y-144687447D01*
X66596380Y-144687447D02*
X66402856Y-144784209D01*
X66402856Y-144784209D02*
X66306094Y-144977732D01*
X66306094Y-144977732D02*
X66306094Y-145171256D01*
X66306094Y-145171256D02*
X67273713Y-145364780D01*
X65144951Y-146042113D02*
X65338475Y-145945352D01*
X65338475Y-145945352D02*
X65435237Y-145751828D01*
X65435237Y-145751828D02*
X65435237Y-144010113D01*
X64080570Y-146042113D02*
X64274094Y-145945352D01*
X64274094Y-145945352D02*
X64370856Y-145848590D01*
X64370856Y-145848590D02*
X64467618Y-145655066D01*
X64467618Y-145655066D02*
X64467618Y-145074494D01*
X64467618Y-145074494D02*
X64370856Y-144880971D01*
X64370856Y-144880971D02*
X64274094Y-144784209D01*
X64274094Y-144784209D02*
X64080570Y-144687447D01*
X64080570Y-144687447D02*
X63790285Y-144687447D01*
X63790285Y-144687447D02*
X63596761Y-144784209D01*
X63596761Y-144784209D02*
X63499999Y-144880971D01*
X63499999Y-144880971D02*
X63403237Y-145074494D01*
X63403237Y-145074494D02*
X63403237Y-145655066D01*
X63403237Y-145655066D02*
X63499999Y-145848590D01*
X63499999Y-145848590D02*
X63596761Y-145945352D01*
X63596761Y-145945352D02*
X63790285Y-146042113D01*
X63790285Y-146042113D02*
X64080570Y-146042113D01*
X61661523Y-145945352D02*
X61855047Y-146042113D01*
X61855047Y-146042113D02*
X62242094Y-146042113D01*
X62242094Y-146042113D02*
X62435618Y-145945352D01*
X62435618Y-145945352D02*
X62532380Y-145848590D01*
X62532380Y-145848590D02*
X62629142Y-145655066D01*
X62629142Y-145655066D02*
X62629142Y-145074494D01*
X62629142Y-145074494D02*
X62532380Y-144880971D01*
X62532380Y-144880971D02*
X62435618Y-144784209D01*
X62435618Y-144784209D02*
X62242094Y-144687447D01*
X62242094Y-144687447D02*
X61855047Y-144687447D01*
X61855047Y-144687447D02*
X61661523Y-144784209D01*
X60790666Y-146042113D02*
X60790666Y-144687447D01*
X60790666Y-144010113D02*
X60887428Y-144106875D01*
X60887428Y-144106875D02*
X60790666Y-144203637D01*
X60790666Y-144203637D02*
X60693904Y-144106875D01*
X60693904Y-144106875D02*
X60790666Y-144010113D01*
X60790666Y-144010113D02*
X60790666Y-144203637D01*
X60113333Y-144687447D02*
X59339237Y-144687447D01*
X59823047Y-144010113D02*
X59823047Y-145751828D01*
X59823047Y-145751828D02*
X59726285Y-145945352D01*
X59726285Y-145945352D02*
X59532761Y-146042113D01*
X59532761Y-146042113D02*
X59339237Y-146042113D01*
X58855428Y-144687447D02*
X58371618Y-146042113D01*
X57887809Y-144687447D02*
X58371618Y-146042113D01*
X58371618Y-146042113D02*
X58565142Y-146525923D01*
X58565142Y-146525923D02*
X58661904Y-146622685D01*
X58661904Y-146622685D02*
X58855428Y-146719447D01*
M02*
