%TF.GenerationSoftware,KiCad,Pcbnew,9.0.6*%
%TF.CreationDate,2026-04-22T22:05:46-07:00*%
%TF.ProjectId,modulinVCF,6d6f6475-6c69-46e5-9643-462e6b696361,rev?*%
%TF.SameCoordinates,Original*%
%TF.FileFunction,Legend,Top*%
%TF.FilePolarity,Positive*%
%FSLAX46Y46*%
G04 Gerber Fmt 4.6, Leading zero omitted, Abs format (unit mm)*
G04 Created by KiCad (PCBNEW 9.0.6) date 2026-04-22 22:05:46*
%MOMM*%
%LPD*%
G01*
G04 APERTURE LIST*
%ADD10C,0.150000*%
%ADD11C,0.120000*%
%ADD12C,0.100000*%
G04 APERTURE END LIST*
D10*
X34575905Y-185382819D02*
X34909238Y-186382819D01*
X34909238Y-186382819D02*
X35242571Y-185382819D01*
X35575905Y-185859009D02*
X35909238Y-185859009D01*
X36052095Y-186382819D02*
X35575905Y-186382819D01*
X35575905Y-186382819D02*
X35575905Y-185382819D01*
X35575905Y-185382819D02*
X36052095Y-185382819D01*
X36480667Y-185859009D02*
X36814000Y-185859009D01*
X36956857Y-186382819D02*
X36480667Y-186382819D01*
X36480667Y-186382819D02*
X36480667Y-185382819D01*
X36480667Y-185382819D02*
X36956857Y-185382819D01*
X60436191Y-186382819D02*
X60436191Y-185382819D01*
X60912381Y-186382819D02*
X60912381Y-185382819D01*
X60912381Y-185382819D02*
X61483809Y-186382819D01*
X61483809Y-186382819D02*
X61483809Y-185382819D01*
X65040000Y-185382819D02*
X65230476Y-185382819D01*
X65230476Y-185382819D02*
X65325714Y-185430438D01*
X65325714Y-185430438D02*
X65420952Y-185525676D01*
X65420952Y-185525676D02*
X65468571Y-185716152D01*
X65468571Y-185716152D02*
X65468571Y-186049485D01*
X65468571Y-186049485D02*
X65420952Y-186239961D01*
X65420952Y-186239961D02*
X65325714Y-186335200D01*
X65325714Y-186335200D02*
X65230476Y-186382819D01*
X65230476Y-186382819D02*
X65040000Y-186382819D01*
X65040000Y-186382819D02*
X64944762Y-186335200D01*
X64944762Y-186335200D02*
X64849524Y-186239961D01*
X64849524Y-186239961D02*
X64801905Y-186049485D01*
X64801905Y-186049485D02*
X64801905Y-185716152D01*
X64801905Y-185716152D02*
X64849524Y-185525676D01*
X64849524Y-185525676D02*
X64944762Y-185430438D01*
X64944762Y-185430438D02*
X65040000Y-185382819D01*
X65897143Y-185382819D02*
X65897143Y-186192342D01*
X65897143Y-186192342D02*
X65944762Y-186287580D01*
X65944762Y-186287580D02*
X65992381Y-186335200D01*
X65992381Y-186335200D02*
X66087619Y-186382819D01*
X66087619Y-186382819D02*
X66278095Y-186382819D01*
X66278095Y-186382819D02*
X66373333Y-186335200D01*
X66373333Y-186335200D02*
X66420952Y-186287580D01*
X66420952Y-186287580D02*
X66468571Y-186192342D01*
X66468571Y-186192342D02*
X66468571Y-185382819D01*
X66801905Y-185382819D02*
X67373333Y-185382819D01*
X67087619Y-186382819D02*
X67087619Y-185382819D01*
X44640667Y-185382819D02*
X44974000Y-186382819D01*
X44974000Y-186382819D02*
X45307333Y-185382819D01*
X46212095Y-186287580D02*
X46164476Y-186335200D01*
X46164476Y-186335200D02*
X46021619Y-186382819D01*
X46021619Y-186382819D02*
X45926381Y-186382819D01*
X45926381Y-186382819D02*
X45783524Y-186335200D01*
X45783524Y-186335200D02*
X45688286Y-186239961D01*
X45688286Y-186239961D02*
X45640667Y-186144723D01*
X45640667Y-186144723D02*
X45593048Y-185954247D01*
X45593048Y-185954247D02*
X45593048Y-185811390D01*
X45593048Y-185811390D02*
X45640667Y-185620914D01*
X45640667Y-185620914D02*
X45688286Y-185525676D01*
X45688286Y-185525676D02*
X45783524Y-185430438D01*
X45783524Y-185430438D02*
X45926381Y-185382819D01*
X45926381Y-185382819D02*
X46021619Y-185382819D01*
X46021619Y-185382819D02*
X46164476Y-185430438D01*
X46164476Y-185430438D02*
X46212095Y-185478057D01*
X47212095Y-186287580D02*
X47164476Y-186335200D01*
X47164476Y-186335200D02*
X47021619Y-186382819D01*
X47021619Y-186382819D02*
X46926381Y-186382819D01*
X46926381Y-186382819D02*
X46783524Y-186335200D01*
X46783524Y-186335200D02*
X46688286Y-186239961D01*
X46688286Y-186239961D02*
X46640667Y-186144723D01*
X46640667Y-186144723D02*
X46593048Y-185954247D01*
X46593048Y-185954247D02*
X46593048Y-185811390D01*
X46593048Y-185811390D02*
X46640667Y-185620914D01*
X46640667Y-185620914D02*
X46688286Y-185525676D01*
X46688286Y-185525676D02*
X46783524Y-185430438D01*
X46783524Y-185430438D02*
X46926381Y-185382819D01*
X46926381Y-185382819D02*
X47021619Y-185382819D01*
X47021619Y-185382819D02*
X47164476Y-185430438D01*
X47164476Y-185430438D02*
X47212095Y-185478057D01*
X49411143Y-186382819D02*
X49411143Y-185382819D01*
X49411143Y-185382819D02*
X49982571Y-186382819D01*
X49982571Y-186382819D02*
X49982571Y-185382819D01*
X50649238Y-185382819D02*
X50839714Y-185382819D01*
X50839714Y-185382819D02*
X50934952Y-185430438D01*
X50934952Y-185430438D02*
X51030190Y-185525676D01*
X51030190Y-185525676D02*
X51077809Y-185716152D01*
X51077809Y-185716152D02*
X51077809Y-186049485D01*
X51077809Y-186049485D02*
X51030190Y-186239961D01*
X51030190Y-186239961D02*
X50934952Y-186335200D01*
X50934952Y-186335200D02*
X50839714Y-186382819D01*
X50839714Y-186382819D02*
X50649238Y-186382819D01*
X50649238Y-186382819D02*
X50554000Y-186335200D01*
X50554000Y-186335200D02*
X50458762Y-186239961D01*
X50458762Y-186239961D02*
X50411143Y-186049485D01*
X50411143Y-186049485D02*
X50411143Y-185716152D01*
X50411143Y-185716152D02*
X50458762Y-185525676D01*
X50458762Y-185525676D02*
X50554000Y-185430438D01*
X50554000Y-185430438D02*
X50649238Y-185382819D01*
X51363524Y-185382819D02*
X51934952Y-185382819D01*
X51649238Y-186382819D02*
X51649238Y-185382819D01*
X52268286Y-185859009D02*
X52601619Y-185859009D01*
X52744476Y-186382819D02*
X52268286Y-186382819D01*
X52268286Y-186382819D02*
X52268286Y-185382819D01*
X52268286Y-185382819D02*
X52744476Y-185382819D01*
X40386095Y-185430438D02*
X40290857Y-185382819D01*
X40290857Y-185382819D02*
X40148000Y-185382819D01*
X40148000Y-185382819D02*
X40005143Y-185430438D01*
X40005143Y-185430438D02*
X39909905Y-185525676D01*
X39909905Y-185525676D02*
X39862286Y-185620914D01*
X39862286Y-185620914D02*
X39814667Y-185811390D01*
X39814667Y-185811390D02*
X39814667Y-185954247D01*
X39814667Y-185954247D02*
X39862286Y-186144723D01*
X39862286Y-186144723D02*
X39909905Y-186239961D01*
X39909905Y-186239961D02*
X40005143Y-186335200D01*
X40005143Y-186335200D02*
X40148000Y-186382819D01*
X40148000Y-186382819D02*
X40243238Y-186382819D01*
X40243238Y-186382819D02*
X40386095Y-186335200D01*
X40386095Y-186335200D02*
X40433714Y-186287580D01*
X40433714Y-186287580D02*
X40433714Y-185954247D01*
X40433714Y-185954247D02*
X40243238Y-185954247D01*
X40862286Y-186382819D02*
X40862286Y-185382819D01*
X40862286Y-185382819D02*
X41433714Y-186382819D01*
X41433714Y-186382819D02*
X41433714Y-185382819D01*
X41909905Y-186382819D02*
X41909905Y-185382819D01*
X41909905Y-185382819D02*
X42148000Y-185382819D01*
X42148000Y-185382819D02*
X42290857Y-185430438D01*
X42290857Y-185430438D02*
X42386095Y-185525676D01*
X42386095Y-185525676D02*
X42433714Y-185620914D01*
X42433714Y-185620914D02*
X42481333Y-185811390D01*
X42481333Y-185811390D02*
X42481333Y-185954247D01*
X42481333Y-185954247D02*
X42433714Y-186144723D01*
X42433714Y-186144723D02*
X42386095Y-186239961D01*
X42386095Y-186239961D02*
X42290857Y-186335200D01*
X42290857Y-186335200D02*
X42148000Y-186382819D01*
X42148000Y-186382819D02*
X41909905Y-186382819D01*
X54943524Y-185859009D02*
X55276857Y-185859009D01*
X55419714Y-186382819D02*
X54943524Y-186382819D01*
X54943524Y-186382819D02*
X54943524Y-185382819D01*
X54943524Y-185382819D02*
X55419714Y-185382819D01*
X55753048Y-185382819D02*
X56419714Y-186382819D01*
X56419714Y-185382819D02*
X55753048Y-186382819D01*
X56800667Y-186382819D02*
X56800667Y-185382819D01*
X56800667Y-185382819D02*
X57181619Y-185382819D01*
X57181619Y-185382819D02*
X57276857Y-185430438D01*
X57276857Y-185430438D02*
X57324476Y-185478057D01*
X57324476Y-185478057D02*
X57372095Y-185573295D01*
X57372095Y-185573295D02*
X57372095Y-185716152D01*
X57372095Y-185716152D02*
X57324476Y-185811390D01*
X57324476Y-185811390D02*
X57276857Y-185859009D01*
X57276857Y-185859009D02*
X57181619Y-185906628D01*
X57181619Y-185906628D02*
X56800667Y-185906628D01*
X45926761Y-115262819D02*
X45593428Y-114786628D01*
X45355333Y-115262819D02*
X45355333Y-114262819D01*
X45355333Y-114262819D02*
X45736285Y-114262819D01*
X45736285Y-114262819D02*
X45831523Y-114310438D01*
X45831523Y-114310438D02*
X45879142Y-114358057D01*
X45879142Y-114358057D02*
X45926761Y-114453295D01*
X45926761Y-114453295D02*
X45926761Y-114596152D01*
X45926761Y-114596152D02*
X45879142Y-114691390D01*
X45879142Y-114691390D02*
X45831523Y-114739009D01*
X45831523Y-114739009D02*
X45736285Y-114786628D01*
X45736285Y-114786628D02*
X45355333Y-114786628D01*
X46212476Y-114262819D02*
X46545809Y-115262819D01*
X46545809Y-115262819D02*
X46879142Y-114262819D01*
X47688666Y-114262819D02*
X47212476Y-114262819D01*
X47212476Y-114262819D02*
X47164857Y-114739009D01*
X47164857Y-114739009D02*
X47212476Y-114691390D01*
X47212476Y-114691390D02*
X47307714Y-114643771D01*
X47307714Y-114643771D02*
X47545809Y-114643771D01*
X47545809Y-114643771D02*
X47641047Y-114691390D01*
X47641047Y-114691390D02*
X47688666Y-114739009D01*
X47688666Y-114739009D02*
X47736285Y-114834247D01*
X47736285Y-114834247D02*
X47736285Y-115072342D01*
X47736285Y-115072342D02*
X47688666Y-115167580D01*
X47688666Y-115167580D02*
X47641047Y-115215200D01*
X47641047Y-115215200D02*
X47545809Y-115262819D01*
X47545809Y-115262819D02*
X47307714Y-115262819D01*
X47307714Y-115262819D02*
X47212476Y-115215200D01*
X47212476Y-115215200D02*
X47164857Y-115167580D01*
X58366819Y-115450857D02*
X57890628Y-115784190D01*
X58366819Y-116022285D02*
X57366819Y-116022285D01*
X57366819Y-116022285D02*
X57366819Y-115641333D01*
X57366819Y-115641333D02*
X57414438Y-115546095D01*
X57414438Y-115546095D02*
X57462057Y-115498476D01*
X57462057Y-115498476D02*
X57557295Y-115450857D01*
X57557295Y-115450857D02*
X57700152Y-115450857D01*
X57700152Y-115450857D02*
X57795390Y-115498476D01*
X57795390Y-115498476D02*
X57843009Y-115546095D01*
X57843009Y-115546095D02*
X57890628Y-115641333D01*
X57890628Y-115641333D02*
X57890628Y-116022285D01*
X58366819Y-114498476D02*
X58366819Y-115069904D01*
X58366819Y-114784190D02*
X57366819Y-114784190D01*
X57366819Y-114784190D02*
X57509676Y-114879428D01*
X57509676Y-114879428D02*
X57604914Y-114974666D01*
X57604914Y-114974666D02*
X57652533Y-115069904D01*
X57700152Y-113641333D02*
X58366819Y-113641333D01*
X57319200Y-113879428D02*
X58033485Y-114117523D01*
X58033485Y-114117523D02*
X58033485Y-113498476D01*
X36663333Y-134566819D02*
X36330000Y-134090628D01*
X36091905Y-134566819D02*
X36091905Y-133566819D01*
X36091905Y-133566819D02*
X36472857Y-133566819D01*
X36472857Y-133566819D02*
X36568095Y-133614438D01*
X36568095Y-133614438D02*
X36615714Y-133662057D01*
X36615714Y-133662057D02*
X36663333Y-133757295D01*
X36663333Y-133757295D02*
X36663333Y-133900152D01*
X36663333Y-133900152D02*
X36615714Y-133995390D01*
X36615714Y-133995390D02*
X36568095Y-134043009D01*
X36568095Y-134043009D02*
X36472857Y-134090628D01*
X36472857Y-134090628D02*
X36091905Y-134090628D01*
X37234762Y-133995390D02*
X37139524Y-133947771D01*
X37139524Y-133947771D02*
X37091905Y-133900152D01*
X37091905Y-133900152D02*
X37044286Y-133804914D01*
X37044286Y-133804914D02*
X37044286Y-133757295D01*
X37044286Y-133757295D02*
X37091905Y-133662057D01*
X37091905Y-133662057D02*
X37139524Y-133614438D01*
X37139524Y-133614438D02*
X37234762Y-133566819D01*
X37234762Y-133566819D02*
X37425238Y-133566819D01*
X37425238Y-133566819D02*
X37520476Y-133614438D01*
X37520476Y-133614438D02*
X37568095Y-133662057D01*
X37568095Y-133662057D02*
X37615714Y-133757295D01*
X37615714Y-133757295D02*
X37615714Y-133804914D01*
X37615714Y-133804914D02*
X37568095Y-133900152D01*
X37568095Y-133900152D02*
X37520476Y-133947771D01*
X37520476Y-133947771D02*
X37425238Y-133995390D01*
X37425238Y-133995390D02*
X37234762Y-133995390D01*
X37234762Y-133995390D02*
X37139524Y-134043009D01*
X37139524Y-134043009D02*
X37091905Y-134090628D01*
X37091905Y-134090628D02*
X37044286Y-134185866D01*
X37044286Y-134185866D02*
X37044286Y-134376342D01*
X37044286Y-134376342D02*
X37091905Y-134471580D01*
X37091905Y-134471580D02*
X37139524Y-134519200D01*
X37139524Y-134519200D02*
X37234762Y-134566819D01*
X37234762Y-134566819D02*
X37425238Y-134566819D01*
X37425238Y-134566819D02*
X37520476Y-134519200D01*
X37520476Y-134519200D02*
X37568095Y-134471580D01*
X37568095Y-134471580D02*
X37615714Y-134376342D01*
X37615714Y-134376342D02*
X37615714Y-134185866D01*
X37615714Y-134185866D02*
X37568095Y-134090628D01*
X37568095Y-134090628D02*
X37520476Y-134043009D01*
X37520476Y-134043009D02*
X37425238Y-133995390D01*
X64086485Y-89738190D02*
X64048390Y-89814380D01*
X64048390Y-89814380D02*
X63972200Y-89890571D01*
X63972200Y-89890571D02*
X63857914Y-90004857D01*
X63857914Y-90004857D02*
X63819819Y-90081047D01*
X63819819Y-90081047D02*
X63819819Y-90157238D01*
X64010295Y-90119142D02*
X63972200Y-90195333D01*
X63972200Y-90195333D02*
X63896009Y-90271523D01*
X63896009Y-90271523D02*
X63743628Y-90309619D01*
X63743628Y-90309619D02*
X63476961Y-90309619D01*
X63476961Y-90309619D02*
X63324580Y-90271523D01*
X63324580Y-90271523D02*
X63248390Y-90195333D01*
X63248390Y-90195333D02*
X63210295Y-90119142D01*
X63210295Y-90119142D02*
X63210295Y-89966761D01*
X63210295Y-89966761D02*
X63248390Y-89890571D01*
X63248390Y-89890571D02*
X63324580Y-89814380D01*
X63324580Y-89814380D02*
X63476961Y-89776285D01*
X63476961Y-89776285D02*
X63743628Y-89776285D01*
X63743628Y-89776285D02*
X63896009Y-89814380D01*
X63896009Y-89814380D02*
X63972200Y-89890571D01*
X63972200Y-89890571D02*
X64010295Y-89966761D01*
X64010295Y-89966761D02*
X64010295Y-90119142D01*
X63210295Y-89509619D02*
X63210295Y-88976285D01*
X63210295Y-88976285D02*
X64010295Y-89319143D01*
X44061142Y-52778819D02*
X43727809Y-52302628D01*
X43489714Y-52778819D02*
X43489714Y-51778819D01*
X43489714Y-51778819D02*
X43870666Y-51778819D01*
X43870666Y-51778819D02*
X43965904Y-51826438D01*
X43965904Y-51826438D02*
X44013523Y-51874057D01*
X44013523Y-51874057D02*
X44061142Y-51969295D01*
X44061142Y-51969295D02*
X44061142Y-52112152D01*
X44061142Y-52112152D02*
X44013523Y-52207390D01*
X44013523Y-52207390D02*
X43965904Y-52255009D01*
X43965904Y-52255009D02*
X43870666Y-52302628D01*
X43870666Y-52302628D02*
X43489714Y-52302628D01*
X44442095Y-51874057D02*
X44489714Y-51826438D01*
X44489714Y-51826438D02*
X44584952Y-51778819D01*
X44584952Y-51778819D02*
X44823047Y-51778819D01*
X44823047Y-51778819D02*
X44918285Y-51826438D01*
X44918285Y-51826438D02*
X44965904Y-51874057D01*
X44965904Y-51874057D02*
X45013523Y-51969295D01*
X45013523Y-51969295D02*
X45013523Y-52064533D01*
X45013523Y-52064533D02*
X44965904Y-52207390D01*
X44965904Y-52207390D02*
X44394476Y-52778819D01*
X44394476Y-52778819D02*
X45013523Y-52778819D01*
X45632571Y-51778819D02*
X45727809Y-51778819D01*
X45727809Y-51778819D02*
X45823047Y-51826438D01*
X45823047Y-51826438D02*
X45870666Y-51874057D01*
X45870666Y-51874057D02*
X45918285Y-51969295D01*
X45918285Y-51969295D02*
X45965904Y-52159771D01*
X45965904Y-52159771D02*
X45965904Y-52397866D01*
X45965904Y-52397866D02*
X45918285Y-52588342D01*
X45918285Y-52588342D02*
X45870666Y-52683580D01*
X45870666Y-52683580D02*
X45823047Y-52731200D01*
X45823047Y-52731200D02*
X45727809Y-52778819D01*
X45727809Y-52778819D02*
X45632571Y-52778819D01*
X45632571Y-52778819D02*
X45537333Y-52731200D01*
X45537333Y-52731200D02*
X45489714Y-52683580D01*
X45489714Y-52683580D02*
X45442095Y-52588342D01*
X45442095Y-52588342D02*
X45394476Y-52397866D01*
X45394476Y-52397866D02*
X45394476Y-52159771D01*
X45394476Y-52159771D02*
X45442095Y-51969295D01*
X45442095Y-51969295D02*
X45489714Y-51874057D01*
X45489714Y-51874057D02*
X45537333Y-51826438D01*
X45537333Y-51826438D02*
X45632571Y-51778819D01*
X40078819Y-116680857D02*
X39602628Y-117014190D01*
X40078819Y-117252285D02*
X39078819Y-117252285D01*
X39078819Y-117252285D02*
X39078819Y-116871333D01*
X39078819Y-116871333D02*
X39126438Y-116776095D01*
X39126438Y-116776095D02*
X39174057Y-116728476D01*
X39174057Y-116728476D02*
X39269295Y-116680857D01*
X39269295Y-116680857D02*
X39412152Y-116680857D01*
X39412152Y-116680857D02*
X39507390Y-116728476D01*
X39507390Y-116728476D02*
X39555009Y-116776095D01*
X39555009Y-116776095D02*
X39602628Y-116871333D01*
X39602628Y-116871333D02*
X39602628Y-117252285D01*
X40078819Y-115728476D02*
X40078819Y-116299904D01*
X40078819Y-116014190D02*
X39078819Y-116014190D01*
X39078819Y-116014190D02*
X39221676Y-116109428D01*
X39221676Y-116109428D02*
X39316914Y-116204666D01*
X39316914Y-116204666D02*
X39364533Y-116299904D01*
X39507390Y-115157047D02*
X39459771Y-115252285D01*
X39459771Y-115252285D02*
X39412152Y-115299904D01*
X39412152Y-115299904D02*
X39316914Y-115347523D01*
X39316914Y-115347523D02*
X39269295Y-115347523D01*
X39269295Y-115347523D02*
X39174057Y-115299904D01*
X39174057Y-115299904D02*
X39126438Y-115252285D01*
X39126438Y-115252285D02*
X39078819Y-115157047D01*
X39078819Y-115157047D02*
X39078819Y-114966571D01*
X39078819Y-114966571D02*
X39126438Y-114871333D01*
X39126438Y-114871333D02*
X39174057Y-114823714D01*
X39174057Y-114823714D02*
X39269295Y-114776095D01*
X39269295Y-114776095D02*
X39316914Y-114776095D01*
X39316914Y-114776095D02*
X39412152Y-114823714D01*
X39412152Y-114823714D02*
X39459771Y-114871333D01*
X39459771Y-114871333D02*
X39507390Y-114966571D01*
X39507390Y-114966571D02*
X39507390Y-115157047D01*
X39507390Y-115157047D02*
X39555009Y-115252285D01*
X39555009Y-115252285D02*
X39602628Y-115299904D01*
X39602628Y-115299904D02*
X39697866Y-115347523D01*
X39697866Y-115347523D02*
X39888342Y-115347523D01*
X39888342Y-115347523D02*
X39983580Y-115299904D01*
X39983580Y-115299904D02*
X40031200Y-115252285D01*
X40031200Y-115252285D02*
X40078819Y-115157047D01*
X40078819Y-115157047D02*
X40078819Y-114966571D01*
X40078819Y-114966571D02*
X40031200Y-114871333D01*
X40031200Y-114871333D02*
X39983580Y-114823714D01*
X39983580Y-114823714D02*
X39888342Y-114776095D01*
X39888342Y-114776095D02*
X39697866Y-114776095D01*
X39697866Y-114776095D02*
X39602628Y-114823714D01*
X39602628Y-114823714D02*
X39555009Y-114871333D01*
X39555009Y-114871333D02*
X39507390Y-114966571D01*
X30559142Y-100689580D02*
X30511523Y-100737200D01*
X30511523Y-100737200D02*
X30368666Y-100784819D01*
X30368666Y-100784819D02*
X30273428Y-100784819D01*
X30273428Y-100784819D02*
X30130571Y-100737200D01*
X30130571Y-100737200D02*
X30035333Y-100641961D01*
X30035333Y-100641961D02*
X29987714Y-100546723D01*
X29987714Y-100546723D02*
X29940095Y-100356247D01*
X29940095Y-100356247D02*
X29940095Y-100213390D01*
X29940095Y-100213390D02*
X29987714Y-100022914D01*
X29987714Y-100022914D02*
X30035333Y-99927676D01*
X30035333Y-99927676D02*
X30130571Y-99832438D01*
X30130571Y-99832438D02*
X30273428Y-99784819D01*
X30273428Y-99784819D02*
X30368666Y-99784819D01*
X30368666Y-99784819D02*
X30511523Y-99832438D01*
X30511523Y-99832438D02*
X30559142Y-99880057D01*
X31511523Y-100784819D02*
X30940095Y-100784819D01*
X31225809Y-100784819D02*
X31225809Y-99784819D01*
X31225809Y-99784819D02*
X31130571Y-99927676D01*
X31130571Y-99927676D02*
X31035333Y-100022914D01*
X31035333Y-100022914D02*
X30940095Y-100070533D01*
X32416285Y-99784819D02*
X31940095Y-99784819D01*
X31940095Y-99784819D02*
X31892476Y-100261009D01*
X31892476Y-100261009D02*
X31940095Y-100213390D01*
X31940095Y-100213390D02*
X32035333Y-100165771D01*
X32035333Y-100165771D02*
X32273428Y-100165771D01*
X32273428Y-100165771D02*
X32368666Y-100213390D01*
X32368666Y-100213390D02*
X32416285Y-100261009D01*
X32416285Y-100261009D02*
X32463904Y-100356247D01*
X32463904Y-100356247D02*
X32463904Y-100594342D01*
X32463904Y-100594342D02*
X32416285Y-100689580D01*
X32416285Y-100689580D02*
X32368666Y-100737200D01*
X32368666Y-100737200D02*
X32273428Y-100784819D01*
X32273428Y-100784819D02*
X32035333Y-100784819D01*
X32035333Y-100784819D02*
X31940095Y-100737200D01*
X31940095Y-100737200D02*
X31892476Y-100689580D01*
X42418095Y-140429819D02*
X42418095Y-141239342D01*
X42418095Y-141239342D02*
X42465714Y-141334580D01*
X42465714Y-141334580D02*
X42513333Y-141382200D01*
X42513333Y-141382200D02*
X42608571Y-141429819D01*
X42608571Y-141429819D02*
X42799047Y-141429819D01*
X42799047Y-141429819D02*
X42894285Y-141382200D01*
X42894285Y-141382200D02*
X42941904Y-141334580D01*
X42941904Y-141334580D02*
X42989523Y-141239342D01*
X42989523Y-141239342D02*
X42989523Y-140429819D01*
X43989523Y-141429819D02*
X43418095Y-141429819D01*
X43703809Y-141429819D02*
X43703809Y-140429819D01*
X43703809Y-140429819D02*
X43608571Y-140572676D01*
X43608571Y-140572676D02*
X43513333Y-140667914D01*
X43513333Y-140667914D02*
X43418095Y-140715533D01*
X46936819Y-133048666D02*
X46460628Y-133381999D01*
X46936819Y-133620094D02*
X45936819Y-133620094D01*
X45936819Y-133620094D02*
X45936819Y-133239142D01*
X45936819Y-133239142D02*
X45984438Y-133143904D01*
X45984438Y-133143904D02*
X46032057Y-133096285D01*
X46032057Y-133096285D02*
X46127295Y-133048666D01*
X46127295Y-133048666D02*
X46270152Y-133048666D01*
X46270152Y-133048666D02*
X46365390Y-133096285D01*
X46365390Y-133096285D02*
X46413009Y-133143904D01*
X46413009Y-133143904D02*
X46460628Y-133239142D01*
X46460628Y-133239142D02*
X46460628Y-133620094D01*
X45936819Y-132191523D02*
X45936819Y-132381999D01*
X45936819Y-132381999D02*
X45984438Y-132477237D01*
X45984438Y-132477237D02*
X46032057Y-132524856D01*
X46032057Y-132524856D02*
X46174914Y-132620094D01*
X46174914Y-132620094D02*
X46365390Y-132667713D01*
X46365390Y-132667713D02*
X46746342Y-132667713D01*
X46746342Y-132667713D02*
X46841580Y-132620094D01*
X46841580Y-132620094D02*
X46889200Y-132572475D01*
X46889200Y-132572475D02*
X46936819Y-132477237D01*
X46936819Y-132477237D02*
X46936819Y-132286761D01*
X46936819Y-132286761D02*
X46889200Y-132191523D01*
X46889200Y-132191523D02*
X46841580Y-132143904D01*
X46841580Y-132143904D02*
X46746342Y-132096285D01*
X46746342Y-132096285D02*
X46508247Y-132096285D01*
X46508247Y-132096285D02*
X46413009Y-132143904D01*
X46413009Y-132143904D02*
X46365390Y-132191523D01*
X46365390Y-132191523D02*
X46317771Y-132286761D01*
X46317771Y-132286761D02*
X46317771Y-132477237D01*
X46317771Y-132477237D02*
X46365390Y-132572475D01*
X46365390Y-132572475D02*
X46413009Y-132620094D01*
X46413009Y-132620094D02*
X46508247Y-132667713D01*
X73860819Y-110370857D02*
X73384628Y-110704190D01*
X73860819Y-110942285D02*
X72860819Y-110942285D01*
X72860819Y-110942285D02*
X72860819Y-110561333D01*
X72860819Y-110561333D02*
X72908438Y-110466095D01*
X72908438Y-110466095D02*
X72956057Y-110418476D01*
X72956057Y-110418476D02*
X73051295Y-110370857D01*
X73051295Y-110370857D02*
X73194152Y-110370857D01*
X73194152Y-110370857D02*
X73289390Y-110418476D01*
X73289390Y-110418476D02*
X73337009Y-110466095D01*
X73337009Y-110466095D02*
X73384628Y-110561333D01*
X73384628Y-110561333D02*
X73384628Y-110942285D01*
X73860819Y-109418476D02*
X73860819Y-109989904D01*
X73860819Y-109704190D02*
X72860819Y-109704190D01*
X72860819Y-109704190D02*
X73003676Y-109799428D01*
X73003676Y-109799428D02*
X73098914Y-109894666D01*
X73098914Y-109894666D02*
X73146533Y-109989904D01*
X72956057Y-109037523D02*
X72908438Y-108989904D01*
X72908438Y-108989904D02*
X72860819Y-108894666D01*
X72860819Y-108894666D02*
X72860819Y-108656571D01*
X72860819Y-108656571D02*
X72908438Y-108561333D01*
X72908438Y-108561333D02*
X72956057Y-108513714D01*
X72956057Y-108513714D02*
X73051295Y-108466095D01*
X73051295Y-108466095D02*
X73146533Y-108466095D01*
X73146533Y-108466095D02*
X73289390Y-108513714D01*
X73289390Y-108513714D02*
X73860819Y-109085142D01*
X73860819Y-109085142D02*
X73860819Y-108466095D01*
X64086485Y-100406190D02*
X64048390Y-100482380D01*
X64048390Y-100482380D02*
X63972200Y-100558571D01*
X63972200Y-100558571D02*
X63857914Y-100672857D01*
X63857914Y-100672857D02*
X63819819Y-100749047D01*
X63819819Y-100749047D02*
X63819819Y-100825238D01*
X64010295Y-100787142D02*
X63972200Y-100863333D01*
X63972200Y-100863333D02*
X63896009Y-100939523D01*
X63896009Y-100939523D02*
X63743628Y-100977619D01*
X63743628Y-100977619D02*
X63476961Y-100977619D01*
X63476961Y-100977619D02*
X63324580Y-100939523D01*
X63324580Y-100939523D02*
X63248390Y-100863333D01*
X63248390Y-100863333D02*
X63210295Y-100787142D01*
X63210295Y-100787142D02*
X63210295Y-100634761D01*
X63210295Y-100634761D02*
X63248390Y-100558571D01*
X63248390Y-100558571D02*
X63324580Y-100482380D01*
X63324580Y-100482380D02*
X63476961Y-100444285D01*
X63476961Y-100444285D02*
X63743628Y-100444285D01*
X63743628Y-100444285D02*
X63896009Y-100482380D01*
X63896009Y-100482380D02*
X63972200Y-100558571D01*
X63972200Y-100558571D02*
X64010295Y-100634761D01*
X64010295Y-100634761D02*
X64010295Y-100787142D01*
X63210295Y-99720476D02*
X63210295Y-100101428D01*
X63210295Y-100101428D02*
X63591247Y-100139524D01*
X63591247Y-100139524D02*
X63553152Y-100101428D01*
X63553152Y-100101428D02*
X63515057Y-100025238D01*
X63515057Y-100025238D02*
X63515057Y-99834762D01*
X63515057Y-99834762D02*
X63553152Y-99758571D01*
X63553152Y-99758571D02*
X63591247Y-99720476D01*
X63591247Y-99720476D02*
X63667438Y-99682381D01*
X63667438Y-99682381D02*
X63857914Y-99682381D01*
X63857914Y-99682381D02*
X63934104Y-99720476D01*
X63934104Y-99720476D02*
X63972200Y-99758571D01*
X63972200Y-99758571D02*
X64010295Y-99834762D01*
X64010295Y-99834762D02*
X64010295Y-100025238D01*
X64010295Y-100025238D02*
X63972200Y-100101428D01*
X63972200Y-100101428D02*
X63934104Y-100139524D01*
X29591333Y-176381580D02*
X29543714Y-176429200D01*
X29543714Y-176429200D02*
X29400857Y-176476819D01*
X29400857Y-176476819D02*
X29305619Y-176476819D01*
X29305619Y-176476819D02*
X29162762Y-176429200D01*
X29162762Y-176429200D02*
X29067524Y-176333961D01*
X29067524Y-176333961D02*
X29019905Y-176238723D01*
X29019905Y-176238723D02*
X28972286Y-176048247D01*
X28972286Y-176048247D02*
X28972286Y-175905390D01*
X28972286Y-175905390D02*
X29019905Y-175714914D01*
X29019905Y-175714914D02*
X29067524Y-175619676D01*
X29067524Y-175619676D02*
X29162762Y-175524438D01*
X29162762Y-175524438D02*
X29305619Y-175476819D01*
X29305619Y-175476819D02*
X29400857Y-175476819D01*
X29400857Y-175476819D02*
X29543714Y-175524438D01*
X29543714Y-175524438D02*
X29591333Y-175572057D01*
X30543714Y-176476819D02*
X29972286Y-176476819D01*
X30258000Y-176476819D02*
X30258000Y-175476819D01*
X30258000Y-175476819D02*
X30162762Y-175619676D01*
X30162762Y-175619676D02*
X30067524Y-175714914D01*
X30067524Y-175714914D02*
X29972286Y-175762533D01*
X69272485Y-111074190D02*
X69234390Y-111150380D01*
X69234390Y-111150380D02*
X69158200Y-111226571D01*
X69158200Y-111226571D02*
X69043914Y-111340857D01*
X69043914Y-111340857D02*
X69005819Y-111417047D01*
X69005819Y-111417047D02*
X69005819Y-111493238D01*
X69196295Y-111455142D02*
X69158200Y-111531333D01*
X69158200Y-111531333D02*
X69082009Y-111607523D01*
X69082009Y-111607523D02*
X68929628Y-111645619D01*
X68929628Y-111645619D02*
X68662961Y-111645619D01*
X68662961Y-111645619D02*
X68510580Y-111607523D01*
X68510580Y-111607523D02*
X68434390Y-111531333D01*
X68434390Y-111531333D02*
X68396295Y-111455142D01*
X68396295Y-111455142D02*
X68396295Y-111302761D01*
X68396295Y-111302761D02*
X68434390Y-111226571D01*
X68434390Y-111226571D02*
X68510580Y-111150380D01*
X68510580Y-111150380D02*
X68662961Y-111112285D01*
X68662961Y-111112285D02*
X68929628Y-111112285D01*
X68929628Y-111112285D02*
X69082009Y-111150380D01*
X69082009Y-111150380D02*
X69158200Y-111226571D01*
X69158200Y-111226571D02*
X69196295Y-111302761D01*
X69196295Y-111302761D02*
X69196295Y-111455142D01*
X68662961Y-110426571D02*
X69196295Y-110426571D01*
X68358200Y-110617047D02*
X68929628Y-110807524D01*
X68929628Y-110807524D02*
X68929628Y-110312285D01*
X46895142Y-118977580D02*
X46847523Y-119025200D01*
X46847523Y-119025200D02*
X46704666Y-119072819D01*
X46704666Y-119072819D02*
X46609428Y-119072819D01*
X46609428Y-119072819D02*
X46466571Y-119025200D01*
X46466571Y-119025200D02*
X46371333Y-118929961D01*
X46371333Y-118929961D02*
X46323714Y-118834723D01*
X46323714Y-118834723D02*
X46276095Y-118644247D01*
X46276095Y-118644247D02*
X46276095Y-118501390D01*
X46276095Y-118501390D02*
X46323714Y-118310914D01*
X46323714Y-118310914D02*
X46371333Y-118215676D01*
X46371333Y-118215676D02*
X46466571Y-118120438D01*
X46466571Y-118120438D02*
X46609428Y-118072819D01*
X46609428Y-118072819D02*
X46704666Y-118072819D01*
X46704666Y-118072819D02*
X46847523Y-118120438D01*
X46847523Y-118120438D02*
X46895142Y-118168057D01*
X47847523Y-119072819D02*
X47276095Y-119072819D01*
X47561809Y-119072819D02*
X47561809Y-118072819D01*
X47561809Y-118072819D02*
X47466571Y-118215676D01*
X47466571Y-118215676D02*
X47371333Y-118310914D01*
X47371333Y-118310914D02*
X47276095Y-118358533D01*
X48704666Y-118406152D02*
X48704666Y-119072819D01*
X48466571Y-118025200D02*
X48228476Y-118739485D01*
X48228476Y-118739485D02*
X48847523Y-118739485D01*
X73860819Y-66172357D02*
X73384628Y-66505690D01*
X73860819Y-66743785D02*
X72860819Y-66743785D01*
X72860819Y-66743785D02*
X72860819Y-66362833D01*
X72860819Y-66362833D02*
X72908438Y-66267595D01*
X72908438Y-66267595D02*
X72956057Y-66219976D01*
X72956057Y-66219976D02*
X73051295Y-66172357D01*
X73051295Y-66172357D02*
X73194152Y-66172357D01*
X73194152Y-66172357D02*
X73289390Y-66219976D01*
X73289390Y-66219976D02*
X73337009Y-66267595D01*
X73337009Y-66267595D02*
X73384628Y-66362833D01*
X73384628Y-66362833D02*
X73384628Y-66743785D01*
X73860819Y-65219976D02*
X73860819Y-65791404D01*
X73860819Y-65505690D02*
X72860819Y-65505690D01*
X72860819Y-65505690D02*
X73003676Y-65600928D01*
X73003676Y-65600928D02*
X73098914Y-65696166D01*
X73098914Y-65696166D02*
X73146533Y-65791404D01*
X73860819Y-64267595D02*
X73860819Y-64839023D01*
X73860819Y-64553309D02*
X72860819Y-64553309D01*
X72860819Y-64553309D02*
X73003676Y-64648547D01*
X73003676Y-64648547D02*
X73098914Y-64743785D01*
X73098914Y-64743785D02*
X73146533Y-64839023D01*
X34580485Y-128346190D02*
X34542390Y-128422380D01*
X34542390Y-128422380D02*
X34466200Y-128498571D01*
X34466200Y-128498571D02*
X34351914Y-128612857D01*
X34351914Y-128612857D02*
X34313819Y-128689047D01*
X34313819Y-128689047D02*
X34313819Y-128765238D01*
X34504295Y-128727142D02*
X34466200Y-128803333D01*
X34466200Y-128803333D02*
X34390009Y-128879523D01*
X34390009Y-128879523D02*
X34237628Y-128917619D01*
X34237628Y-128917619D02*
X33970961Y-128917619D01*
X33970961Y-128917619D02*
X33818580Y-128879523D01*
X33818580Y-128879523D02*
X33742390Y-128803333D01*
X33742390Y-128803333D02*
X33704295Y-128727142D01*
X33704295Y-128727142D02*
X33704295Y-128574761D01*
X33704295Y-128574761D02*
X33742390Y-128498571D01*
X33742390Y-128498571D02*
X33818580Y-128422380D01*
X33818580Y-128422380D02*
X33970961Y-128384285D01*
X33970961Y-128384285D02*
X34237628Y-128384285D01*
X34237628Y-128384285D02*
X34390009Y-128422380D01*
X34390009Y-128422380D02*
X34466200Y-128498571D01*
X34466200Y-128498571D02*
X34504295Y-128574761D01*
X34504295Y-128574761D02*
X34504295Y-128727142D01*
X33780485Y-128079524D02*
X33742390Y-128041428D01*
X33742390Y-128041428D02*
X33704295Y-127965238D01*
X33704295Y-127965238D02*
X33704295Y-127774762D01*
X33704295Y-127774762D02*
X33742390Y-127698571D01*
X33742390Y-127698571D02*
X33780485Y-127660476D01*
X33780485Y-127660476D02*
X33856676Y-127622381D01*
X33856676Y-127622381D02*
X33932866Y-127622381D01*
X33932866Y-127622381D02*
X34047152Y-127660476D01*
X34047152Y-127660476D02*
X34504295Y-128117619D01*
X34504295Y-128117619D02*
X34504295Y-127622381D01*
X44061142Y-55572819D02*
X43727809Y-55096628D01*
X43489714Y-55572819D02*
X43489714Y-54572819D01*
X43489714Y-54572819D02*
X43870666Y-54572819D01*
X43870666Y-54572819D02*
X43965904Y-54620438D01*
X43965904Y-54620438D02*
X44013523Y-54668057D01*
X44013523Y-54668057D02*
X44061142Y-54763295D01*
X44061142Y-54763295D02*
X44061142Y-54906152D01*
X44061142Y-54906152D02*
X44013523Y-55001390D01*
X44013523Y-55001390D02*
X43965904Y-55049009D01*
X43965904Y-55049009D02*
X43870666Y-55096628D01*
X43870666Y-55096628D02*
X43489714Y-55096628D01*
X44442095Y-54668057D02*
X44489714Y-54620438D01*
X44489714Y-54620438D02*
X44584952Y-54572819D01*
X44584952Y-54572819D02*
X44823047Y-54572819D01*
X44823047Y-54572819D02*
X44918285Y-54620438D01*
X44918285Y-54620438D02*
X44965904Y-54668057D01*
X44965904Y-54668057D02*
X45013523Y-54763295D01*
X45013523Y-54763295D02*
X45013523Y-54858533D01*
X45013523Y-54858533D02*
X44965904Y-55001390D01*
X44965904Y-55001390D02*
X44394476Y-55572819D01*
X44394476Y-55572819D02*
X45013523Y-55572819D01*
X45965904Y-55572819D02*
X45394476Y-55572819D01*
X45680190Y-55572819D02*
X45680190Y-54572819D01*
X45680190Y-54572819D02*
X45584952Y-54715676D01*
X45584952Y-54715676D02*
X45489714Y-54810914D01*
X45489714Y-54810914D02*
X45394476Y-54858533D01*
X37203142Y-62684819D02*
X36869809Y-62208628D01*
X36631714Y-62684819D02*
X36631714Y-61684819D01*
X36631714Y-61684819D02*
X37012666Y-61684819D01*
X37012666Y-61684819D02*
X37107904Y-61732438D01*
X37107904Y-61732438D02*
X37155523Y-61780057D01*
X37155523Y-61780057D02*
X37203142Y-61875295D01*
X37203142Y-61875295D02*
X37203142Y-62018152D01*
X37203142Y-62018152D02*
X37155523Y-62113390D01*
X37155523Y-62113390D02*
X37107904Y-62161009D01*
X37107904Y-62161009D02*
X37012666Y-62208628D01*
X37012666Y-62208628D02*
X36631714Y-62208628D01*
X37584095Y-61780057D02*
X37631714Y-61732438D01*
X37631714Y-61732438D02*
X37726952Y-61684819D01*
X37726952Y-61684819D02*
X37965047Y-61684819D01*
X37965047Y-61684819D02*
X38060285Y-61732438D01*
X38060285Y-61732438D02*
X38107904Y-61780057D01*
X38107904Y-61780057D02*
X38155523Y-61875295D01*
X38155523Y-61875295D02*
X38155523Y-61970533D01*
X38155523Y-61970533D02*
X38107904Y-62113390D01*
X38107904Y-62113390D02*
X37536476Y-62684819D01*
X37536476Y-62684819D02*
X38155523Y-62684819D01*
X38488857Y-61684819D02*
X39155523Y-61684819D01*
X39155523Y-61684819D02*
X38726952Y-62684819D01*
X42856485Y-128346190D02*
X42818390Y-128422380D01*
X42818390Y-128422380D02*
X42742200Y-128498571D01*
X42742200Y-128498571D02*
X42627914Y-128612857D01*
X42627914Y-128612857D02*
X42589819Y-128689047D01*
X42589819Y-128689047D02*
X42589819Y-128765238D01*
X42780295Y-128727142D02*
X42742200Y-128803333D01*
X42742200Y-128803333D02*
X42666009Y-128879523D01*
X42666009Y-128879523D02*
X42513628Y-128917619D01*
X42513628Y-128917619D02*
X42246961Y-128917619D01*
X42246961Y-128917619D02*
X42094580Y-128879523D01*
X42094580Y-128879523D02*
X42018390Y-128803333D01*
X42018390Y-128803333D02*
X41980295Y-128727142D01*
X41980295Y-128727142D02*
X41980295Y-128574761D01*
X41980295Y-128574761D02*
X42018390Y-128498571D01*
X42018390Y-128498571D02*
X42094580Y-128422380D01*
X42094580Y-128422380D02*
X42246961Y-128384285D01*
X42246961Y-128384285D02*
X42513628Y-128384285D01*
X42513628Y-128384285D02*
X42666009Y-128422380D01*
X42666009Y-128422380D02*
X42742200Y-128498571D01*
X42742200Y-128498571D02*
X42780295Y-128574761D01*
X42780295Y-128574761D02*
X42780295Y-128727142D01*
X42780295Y-127622381D02*
X42780295Y-128079524D01*
X42780295Y-127850952D02*
X41980295Y-127850952D01*
X41980295Y-127850952D02*
X42094580Y-127927143D01*
X42094580Y-127927143D02*
X42170771Y-128003333D01*
X42170771Y-128003333D02*
X42208866Y-128079524D01*
X31035333Y-147679580D02*
X30987714Y-147727200D01*
X30987714Y-147727200D02*
X30844857Y-147774819D01*
X30844857Y-147774819D02*
X30749619Y-147774819D01*
X30749619Y-147774819D02*
X30606762Y-147727200D01*
X30606762Y-147727200D02*
X30511524Y-147631961D01*
X30511524Y-147631961D02*
X30463905Y-147536723D01*
X30463905Y-147536723D02*
X30416286Y-147346247D01*
X30416286Y-147346247D02*
X30416286Y-147203390D01*
X30416286Y-147203390D02*
X30463905Y-147012914D01*
X30463905Y-147012914D02*
X30511524Y-146917676D01*
X30511524Y-146917676D02*
X30606762Y-146822438D01*
X30606762Y-146822438D02*
X30749619Y-146774819D01*
X30749619Y-146774819D02*
X30844857Y-146774819D01*
X30844857Y-146774819D02*
X30987714Y-146822438D01*
X30987714Y-146822438D02*
X31035333Y-146870057D01*
X31368667Y-146774819D02*
X31987714Y-146774819D01*
X31987714Y-146774819D02*
X31654381Y-147155771D01*
X31654381Y-147155771D02*
X31797238Y-147155771D01*
X31797238Y-147155771D02*
X31892476Y-147203390D01*
X31892476Y-147203390D02*
X31940095Y-147251009D01*
X31940095Y-147251009D02*
X31987714Y-147346247D01*
X31987714Y-147346247D02*
X31987714Y-147584342D01*
X31987714Y-147584342D02*
X31940095Y-147679580D01*
X31940095Y-147679580D02*
X31892476Y-147727200D01*
X31892476Y-147727200D02*
X31797238Y-147774819D01*
X31797238Y-147774819D02*
X31511524Y-147774819D01*
X31511524Y-147774819D02*
X31416286Y-147727200D01*
X31416286Y-147727200D02*
X31368667Y-147679580D01*
X63833142Y-74019580D02*
X63785523Y-74067200D01*
X63785523Y-74067200D02*
X63642666Y-74114819D01*
X63642666Y-74114819D02*
X63547428Y-74114819D01*
X63547428Y-74114819D02*
X63404571Y-74067200D01*
X63404571Y-74067200D02*
X63309333Y-73971961D01*
X63309333Y-73971961D02*
X63261714Y-73876723D01*
X63261714Y-73876723D02*
X63214095Y-73686247D01*
X63214095Y-73686247D02*
X63214095Y-73543390D01*
X63214095Y-73543390D02*
X63261714Y-73352914D01*
X63261714Y-73352914D02*
X63309333Y-73257676D01*
X63309333Y-73257676D02*
X63404571Y-73162438D01*
X63404571Y-73162438D02*
X63547428Y-73114819D01*
X63547428Y-73114819D02*
X63642666Y-73114819D01*
X63642666Y-73114819D02*
X63785523Y-73162438D01*
X63785523Y-73162438D02*
X63833142Y-73210057D01*
X64785523Y-74114819D02*
X64214095Y-74114819D01*
X64499809Y-74114819D02*
X64499809Y-73114819D01*
X64499809Y-73114819D02*
X64404571Y-73257676D01*
X64404571Y-73257676D02*
X64309333Y-73352914D01*
X64309333Y-73352914D02*
X64214095Y-73400533D01*
X65404571Y-73114819D02*
X65499809Y-73114819D01*
X65499809Y-73114819D02*
X65595047Y-73162438D01*
X65595047Y-73162438D02*
X65642666Y-73210057D01*
X65642666Y-73210057D02*
X65690285Y-73305295D01*
X65690285Y-73305295D02*
X65737904Y-73495771D01*
X65737904Y-73495771D02*
X65737904Y-73733866D01*
X65737904Y-73733866D02*
X65690285Y-73924342D01*
X65690285Y-73924342D02*
X65642666Y-74019580D01*
X65642666Y-74019580D02*
X65595047Y-74067200D01*
X65595047Y-74067200D02*
X65499809Y-74114819D01*
X65499809Y-74114819D02*
X65404571Y-74114819D01*
X65404571Y-74114819D02*
X65309333Y-74067200D01*
X65309333Y-74067200D02*
X65261714Y-74019580D01*
X65261714Y-74019580D02*
X65214095Y-73924342D01*
X65214095Y-73924342D02*
X65166476Y-73733866D01*
X65166476Y-73733866D02*
X65166476Y-73495771D01*
X65166476Y-73495771D02*
X65214095Y-73305295D01*
X65214095Y-73305295D02*
X65261714Y-73210057D01*
X65261714Y-73210057D02*
X65309333Y-73162438D01*
X65309333Y-73162438D02*
X65404571Y-73114819D01*
X33379580Y-139946666D02*
X33427200Y-139994285D01*
X33427200Y-139994285D02*
X33474819Y-140137142D01*
X33474819Y-140137142D02*
X33474819Y-140232380D01*
X33474819Y-140232380D02*
X33427200Y-140375237D01*
X33427200Y-140375237D02*
X33331961Y-140470475D01*
X33331961Y-140470475D02*
X33236723Y-140518094D01*
X33236723Y-140518094D02*
X33046247Y-140565713D01*
X33046247Y-140565713D02*
X32903390Y-140565713D01*
X32903390Y-140565713D02*
X32712914Y-140518094D01*
X32712914Y-140518094D02*
X32617676Y-140470475D01*
X32617676Y-140470475D02*
X32522438Y-140375237D01*
X32522438Y-140375237D02*
X32474819Y-140232380D01*
X32474819Y-140232380D02*
X32474819Y-140137142D01*
X32474819Y-140137142D02*
X32522438Y-139994285D01*
X32522438Y-139994285D02*
X32570057Y-139946666D01*
X32474819Y-139041904D02*
X32474819Y-139518094D01*
X32474819Y-139518094D02*
X32951009Y-139565713D01*
X32951009Y-139565713D02*
X32903390Y-139518094D01*
X32903390Y-139518094D02*
X32855771Y-139422856D01*
X32855771Y-139422856D02*
X32855771Y-139184761D01*
X32855771Y-139184761D02*
X32903390Y-139089523D01*
X32903390Y-139089523D02*
X32951009Y-139041904D01*
X32951009Y-139041904D02*
X33046247Y-138994285D01*
X33046247Y-138994285D02*
X33284342Y-138994285D01*
X33284342Y-138994285D02*
X33379580Y-139041904D01*
X33379580Y-139041904D02*
X33427200Y-139089523D01*
X33427200Y-139089523D02*
X33474819Y-139184761D01*
X33474819Y-139184761D02*
X33474819Y-139422856D01*
X33474819Y-139422856D02*
X33427200Y-139518094D01*
X33427200Y-139518094D02*
X33379580Y-139565713D01*
X34665642Y-91132819D02*
X34332309Y-90656628D01*
X34094214Y-91132819D02*
X34094214Y-90132819D01*
X34094214Y-90132819D02*
X34475166Y-90132819D01*
X34475166Y-90132819D02*
X34570404Y-90180438D01*
X34570404Y-90180438D02*
X34618023Y-90228057D01*
X34618023Y-90228057D02*
X34665642Y-90323295D01*
X34665642Y-90323295D02*
X34665642Y-90466152D01*
X34665642Y-90466152D02*
X34618023Y-90561390D01*
X34618023Y-90561390D02*
X34570404Y-90609009D01*
X34570404Y-90609009D02*
X34475166Y-90656628D01*
X34475166Y-90656628D02*
X34094214Y-90656628D01*
X35618023Y-91132819D02*
X35046595Y-91132819D01*
X35332309Y-91132819D02*
X35332309Y-90132819D01*
X35332309Y-90132819D02*
X35237071Y-90275676D01*
X35237071Y-90275676D02*
X35141833Y-90370914D01*
X35141833Y-90370914D02*
X35046595Y-90418533D01*
X35951357Y-90132819D02*
X36618023Y-90132819D01*
X36618023Y-90132819D02*
X36189452Y-91132819D01*
X60996485Y-111074190D02*
X60958390Y-111150380D01*
X60958390Y-111150380D02*
X60882200Y-111226571D01*
X60882200Y-111226571D02*
X60767914Y-111340857D01*
X60767914Y-111340857D02*
X60729819Y-111417047D01*
X60729819Y-111417047D02*
X60729819Y-111493238D01*
X60920295Y-111455142D02*
X60882200Y-111531333D01*
X60882200Y-111531333D02*
X60806009Y-111607523D01*
X60806009Y-111607523D02*
X60653628Y-111645619D01*
X60653628Y-111645619D02*
X60386961Y-111645619D01*
X60386961Y-111645619D02*
X60234580Y-111607523D01*
X60234580Y-111607523D02*
X60158390Y-111531333D01*
X60158390Y-111531333D02*
X60120295Y-111455142D01*
X60120295Y-111455142D02*
X60120295Y-111302761D01*
X60120295Y-111302761D02*
X60158390Y-111226571D01*
X60158390Y-111226571D02*
X60234580Y-111150380D01*
X60234580Y-111150380D02*
X60386961Y-111112285D01*
X60386961Y-111112285D02*
X60653628Y-111112285D01*
X60653628Y-111112285D02*
X60806009Y-111150380D01*
X60806009Y-111150380D02*
X60882200Y-111226571D01*
X60882200Y-111226571D02*
X60920295Y-111302761D01*
X60920295Y-111302761D02*
X60920295Y-111455142D01*
X60120295Y-110845619D02*
X60120295Y-110350381D01*
X60120295Y-110350381D02*
X60425057Y-110617047D01*
X60425057Y-110617047D02*
X60425057Y-110502762D01*
X60425057Y-110502762D02*
X60463152Y-110426571D01*
X60463152Y-110426571D02*
X60501247Y-110388476D01*
X60501247Y-110388476D02*
X60577438Y-110350381D01*
X60577438Y-110350381D02*
X60767914Y-110350381D01*
X60767914Y-110350381D02*
X60844104Y-110388476D01*
X60844104Y-110388476D02*
X60882200Y-110426571D01*
X60882200Y-110426571D02*
X60920295Y-110502762D01*
X60920295Y-110502762D02*
X60920295Y-110731333D01*
X60920295Y-110731333D02*
X60882200Y-110807524D01*
X60882200Y-110807524D02*
X60844104Y-110845619D01*
X45212095Y-34765819D02*
X45212095Y-35575342D01*
X45212095Y-35575342D02*
X45259714Y-35670580D01*
X45259714Y-35670580D02*
X45307333Y-35718200D01*
X45307333Y-35718200D02*
X45402571Y-35765819D01*
X45402571Y-35765819D02*
X45593047Y-35765819D01*
X45593047Y-35765819D02*
X45688285Y-35718200D01*
X45688285Y-35718200D02*
X45735904Y-35670580D01*
X45735904Y-35670580D02*
X45783523Y-35575342D01*
X45783523Y-35575342D02*
X45783523Y-34765819D01*
X46164476Y-34765819D02*
X46783523Y-34765819D01*
X46783523Y-34765819D02*
X46450190Y-35146771D01*
X46450190Y-35146771D02*
X46593047Y-35146771D01*
X46593047Y-35146771D02*
X46688285Y-35194390D01*
X46688285Y-35194390D02*
X46735904Y-35242009D01*
X46735904Y-35242009D02*
X46783523Y-35337247D01*
X46783523Y-35337247D02*
X46783523Y-35575342D01*
X46783523Y-35575342D02*
X46735904Y-35670580D01*
X46735904Y-35670580D02*
X46688285Y-35718200D01*
X46688285Y-35718200D02*
X46593047Y-35765819D01*
X46593047Y-35765819D02*
X46307333Y-35765819D01*
X46307333Y-35765819D02*
X46212095Y-35718200D01*
X46212095Y-35718200D02*
X46164476Y-35670580D01*
X40491580Y-169758666D02*
X40539200Y-169806285D01*
X40539200Y-169806285D02*
X40586819Y-169949142D01*
X40586819Y-169949142D02*
X40586819Y-170044380D01*
X40586819Y-170044380D02*
X40539200Y-170187237D01*
X40539200Y-170187237D02*
X40443961Y-170282475D01*
X40443961Y-170282475D02*
X40348723Y-170330094D01*
X40348723Y-170330094D02*
X40158247Y-170377713D01*
X40158247Y-170377713D02*
X40015390Y-170377713D01*
X40015390Y-170377713D02*
X39824914Y-170330094D01*
X39824914Y-170330094D02*
X39729676Y-170282475D01*
X39729676Y-170282475D02*
X39634438Y-170187237D01*
X39634438Y-170187237D02*
X39586819Y-170044380D01*
X39586819Y-170044380D02*
X39586819Y-169949142D01*
X39586819Y-169949142D02*
X39634438Y-169806285D01*
X39634438Y-169806285D02*
X39682057Y-169758666D01*
X39586819Y-168901523D02*
X39586819Y-169091999D01*
X39586819Y-169091999D02*
X39634438Y-169187237D01*
X39634438Y-169187237D02*
X39682057Y-169234856D01*
X39682057Y-169234856D02*
X39824914Y-169330094D01*
X39824914Y-169330094D02*
X40015390Y-169377713D01*
X40015390Y-169377713D02*
X40396342Y-169377713D01*
X40396342Y-169377713D02*
X40491580Y-169330094D01*
X40491580Y-169330094D02*
X40539200Y-169282475D01*
X40539200Y-169282475D02*
X40586819Y-169187237D01*
X40586819Y-169187237D02*
X40586819Y-168996761D01*
X40586819Y-168996761D02*
X40539200Y-168901523D01*
X40539200Y-168901523D02*
X40491580Y-168853904D01*
X40491580Y-168853904D02*
X40396342Y-168806285D01*
X40396342Y-168806285D02*
X40158247Y-168806285D01*
X40158247Y-168806285D02*
X40063009Y-168853904D01*
X40063009Y-168853904D02*
X40015390Y-168901523D01*
X40015390Y-168901523D02*
X39967771Y-168996761D01*
X39967771Y-168996761D02*
X39967771Y-169187237D01*
X39967771Y-169187237D02*
X40015390Y-169282475D01*
X40015390Y-169282475D02*
X40063009Y-169330094D01*
X40063009Y-169330094D02*
X40158247Y-169377713D01*
X31869142Y-55572819D02*
X31535809Y-55096628D01*
X31297714Y-55572819D02*
X31297714Y-54572819D01*
X31297714Y-54572819D02*
X31678666Y-54572819D01*
X31678666Y-54572819D02*
X31773904Y-54620438D01*
X31773904Y-54620438D02*
X31821523Y-54668057D01*
X31821523Y-54668057D02*
X31869142Y-54763295D01*
X31869142Y-54763295D02*
X31869142Y-54906152D01*
X31869142Y-54906152D02*
X31821523Y-55001390D01*
X31821523Y-55001390D02*
X31773904Y-55049009D01*
X31773904Y-55049009D02*
X31678666Y-55096628D01*
X31678666Y-55096628D02*
X31297714Y-55096628D01*
X32250095Y-54668057D02*
X32297714Y-54620438D01*
X32297714Y-54620438D02*
X32392952Y-54572819D01*
X32392952Y-54572819D02*
X32631047Y-54572819D01*
X32631047Y-54572819D02*
X32726285Y-54620438D01*
X32726285Y-54620438D02*
X32773904Y-54668057D01*
X32773904Y-54668057D02*
X32821523Y-54763295D01*
X32821523Y-54763295D02*
X32821523Y-54858533D01*
X32821523Y-54858533D02*
X32773904Y-55001390D01*
X32773904Y-55001390D02*
X32202476Y-55572819D01*
X32202476Y-55572819D02*
X32821523Y-55572819D01*
X33154857Y-54572819D02*
X33773904Y-54572819D01*
X33773904Y-54572819D02*
X33440571Y-54953771D01*
X33440571Y-54953771D02*
X33583428Y-54953771D01*
X33583428Y-54953771D02*
X33678666Y-55001390D01*
X33678666Y-55001390D02*
X33726285Y-55049009D01*
X33726285Y-55049009D02*
X33773904Y-55144247D01*
X33773904Y-55144247D02*
X33773904Y-55382342D01*
X33773904Y-55382342D02*
X33726285Y-55477580D01*
X33726285Y-55477580D02*
X33678666Y-55525200D01*
X33678666Y-55525200D02*
X33583428Y-55572819D01*
X33583428Y-55572819D02*
X33297714Y-55572819D01*
X33297714Y-55572819D02*
X33202476Y-55525200D01*
X33202476Y-55525200D02*
X33154857Y-55477580D01*
X56221333Y-176984819D02*
X55888000Y-176508628D01*
X55649905Y-176984819D02*
X55649905Y-175984819D01*
X55649905Y-175984819D02*
X56030857Y-175984819D01*
X56030857Y-175984819D02*
X56126095Y-176032438D01*
X56126095Y-176032438D02*
X56173714Y-176080057D01*
X56173714Y-176080057D02*
X56221333Y-176175295D01*
X56221333Y-176175295D02*
X56221333Y-176318152D01*
X56221333Y-176318152D02*
X56173714Y-176413390D01*
X56173714Y-176413390D02*
X56126095Y-176461009D01*
X56126095Y-176461009D02*
X56030857Y-176508628D01*
X56030857Y-176508628D02*
X55649905Y-176508628D01*
X57173714Y-176984819D02*
X56602286Y-176984819D01*
X56888000Y-176984819D02*
X56888000Y-175984819D01*
X56888000Y-175984819D02*
X56792762Y-176127676D01*
X56792762Y-176127676D02*
X56697524Y-176222914D01*
X56697524Y-176222914D02*
X56602286Y-176270533D01*
X69420485Y-68783142D02*
X69382390Y-68859332D01*
X69382390Y-68859332D02*
X69306200Y-68935523D01*
X69306200Y-68935523D02*
X69191914Y-69049809D01*
X69191914Y-69049809D02*
X69153819Y-69125999D01*
X69153819Y-69125999D02*
X69153819Y-69202190D01*
X69344295Y-69164094D02*
X69306200Y-69240285D01*
X69306200Y-69240285D02*
X69230009Y-69316475D01*
X69230009Y-69316475D02*
X69077628Y-69354571D01*
X69077628Y-69354571D02*
X68810961Y-69354571D01*
X68810961Y-69354571D02*
X68658580Y-69316475D01*
X68658580Y-69316475D02*
X68582390Y-69240285D01*
X68582390Y-69240285D02*
X68544295Y-69164094D01*
X68544295Y-69164094D02*
X68544295Y-69011713D01*
X68544295Y-69011713D02*
X68582390Y-68935523D01*
X68582390Y-68935523D02*
X68658580Y-68859332D01*
X68658580Y-68859332D02*
X68810961Y-68821237D01*
X68810961Y-68821237D02*
X69077628Y-68821237D01*
X69077628Y-68821237D02*
X69230009Y-68859332D01*
X69230009Y-68859332D02*
X69306200Y-68935523D01*
X69306200Y-68935523D02*
X69344295Y-69011713D01*
X69344295Y-69011713D02*
X69344295Y-69164094D01*
X69344295Y-68059333D02*
X69344295Y-68516476D01*
X69344295Y-68287904D02*
X68544295Y-68287904D01*
X68544295Y-68287904D02*
X68658580Y-68364095D01*
X68658580Y-68364095D02*
X68734771Y-68440285D01*
X68734771Y-68440285D02*
X68772866Y-68516476D01*
X68620485Y-67754571D02*
X68582390Y-67716475D01*
X68582390Y-67716475D02*
X68544295Y-67640285D01*
X68544295Y-67640285D02*
X68544295Y-67449809D01*
X68544295Y-67449809D02*
X68582390Y-67373618D01*
X68582390Y-67373618D02*
X68620485Y-67335523D01*
X68620485Y-67335523D02*
X68696676Y-67297428D01*
X68696676Y-67297428D02*
X68772866Y-67297428D01*
X68772866Y-67297428D02*
X68887152Y-67335523D01*
X68887152Y-67335523D02*
X69344295Y-67792666D01*
X69344295Y-67792666D02*
X69344295Y-67297428D01*
X52778819Y-133437238D02*
X52302628Y-133770571D01*
X52778819Y-134008666D02*
X51778819Y-134008666D01*
X51778819Y-134008666D02*
X51778819Y-133627714D01*
X51778819Y-133627714D02*
X51826438Y-133532476D01*
X51826438Y-133532476D02*
X51874057Y-133484857D01*
X51874057Y-133484857D02*
X51969295Y-133437238D01*
X51969295Y-133437238D02*
X52112152Y-133437238D01*
X52112152Y-133437238D02*
X52207390Y-133484857D01*
X52207390Y-133484857D02*
X52255009Y-133532476D01*
X52255009Y-133532476D02*
X52302628Y-133627714D01*
X52302628Y-133627714D02*
X52302628Y-134008666D01*
X51778819Y-133151523D02*
X52778819Y-132818190D01*
X52778819Y-132818190D02*
X51778819Y-132484857D01*
X52112152Y-131722952D02*
X52778819Y-131722952D01*
X51731200Y-131961047D02*
X52445485Y-132199142D01*
X52445485Y-132199142D02*
X52445485Y-131580095D01*
X49188761Y-28140819D02*
X48855428Y-27664628D01*
X48617333Y-28140819D02*
X48617333Y-27140819D01*
X48617333Y-27140819D02*
X48998285Y-27140819D01*
X48998285Y-27140819D02*
X49093523Y-27188438D01*
X49093523Y-27188438D02*
X49141142Y-27236057D01*
X49141142Y-27236057D02*
X49188761Y-27331295D01*
X49188761Y-27331295D02*
X49188761Y-27474152D01*
X49188761Y-27474152D02*
X49141142Y-27569390D01*
X49141142Y-27569390D02*
X49093523Y-27617009D01*
X49093523Y-27617009D02*
X48998285Y-27664628D01*
X48998285Y-27664628D02*
X48617333Y-27664628D01*
X49474476Y-27140819D02*
X49807809Y-28140819D01*
X49807809Y-28140819D02*
X50141142Y-27140819D01*
X50903047Y-27140819D02*
X50712571Y-27140819D01*
X50712571Y-27140819D02*
X50617333Y-27188438D01*
X50617333Y-27188438D02*
X50569714Y-27236057D01*
X50569714Y-27236057D02*
X50474476Y-27378914D01*
X50474476Y-27378914D02*
X50426857Y-27569390D01*
X50426857Y-27569390D02*
X50426857Y-27950342D01*
X50426857Y-27950342D02*
X50474476Y-28045580D01*
X50474476Y-28045580D02*
X50522095Y-28093200D01*
X50522095Y-28093200D02*
X50617333Y-28140819D01*
X50617333Y-28140819D02*
X50807809Y-28140819D01*
X50807809Y-28140819D02*
X50903047Y-28093200D01*
X50903047Y-28093200D02*
X50950666Y-28045580D01*
X50950666Y-28045580D02*
X50998285Y-27950342D01*
X50998285Y-27950342D02*
X50998285Y-27712247D01*
X50998285Y-27712247D02*
X50950666Y-27617009D01*
X50950666Y-27617009D02*
X50903047Y-27569390D01*
X50903047Y-27569390D02*
X50807809Y-27521771D01*
X50807809Y-27521771D02*
X50617333Y-27521771D01*
X50617333Y-27521771D02*
X50522095Y-27569390D01*
X50522095Y-27569390D02*
X50474476Y-27617009D01*
X50474476Y-27617009D02*
X50426857Y-27712247D01*
X53794819Y-147486666D02*
X53318628Y-147819999D01*
X53794819Y-148058094D02*
X52794819Y-148058094D01*
X52794819Y-148058094D02*
X52794819Y-147677142D01*
X52794819Y-147677142D02*
X52842438Y-147581904D01*
X52842438Y-147581904D02*
X52890057Y-147534285D01*
X52890057Y-147534285D02*
X52985295Y-147486666D01*
X52985295Y-147486666D02*
X53128152Y-147486666D01*
X53128152Y-147486666D02*
X53223390Y-147534285D01*
X53223390Y-147534285D02*
X53271009Y-147581904D01*
X53271009Y-147581904D02*
X53318628Y-147677142D01*
X53318628Y-147677142D02*
X53318628Y-148058094D01*
X52890057Y-147105713D02*
X52842438Y-147058094D01*
X52842438Y-147058094D02*
X52794819Y-146962856D01*
X52794819Y-146962856D02*
X52794819Y-146724761D01*
X52794819Y-146724761D02*
X52842438Y-146629523D01*
X52842438Y-146629523D02*
X52890057Y-146581904D01*
X52890057Y-146581904D02*
X52985295Y-146534285D01*
X52985295Y-146534285D02*
X53080533Y-146534285D01*
X53080533Y-146534285D02*
X53223390Y-146581904D01*
X53223390Y-146581904D02*
X53794819Y-147153332D01*
X53794819Y-147153332D02*
X53794819Y-146534285D01*
X64086485Y-68783142D02*
X64048390Y-68859332D01*
X64048390Y-68859332D02*
X63972200Y-68935523D01*
X63972200Y-68935523D02*
X63857914Y-69049809D01*
X63857914Y-69049809D02*
X63819819Y-69125999D01*
X63819819Y-69125999D02*
X63819819Y-69202190D01*
X64010295Y-69164094D02*
X63972200Y-69240285D01*
X63972200Y-69240285D02*
X63896009Y-69316475D01*
X63896009Y-69316475D02*
X63743628Y-69354571D01*
X63743628Y-69354571D02*
X63476961Y-69354571D01*
X63476961Y-69354571D02*
X63324580Y-69316475D01*
X63324580Y-69316475D02*
X63248390Y-69240285D01*
X63248390Y-69240285D02*
X63210295Y-69164094D01*
X63210295Y-69164094D02*
X63210295Y-69011713D01*
X63210295Y-69011713D02*
X63248390Y-68935523D01*
X63248390Y-68935523D02*
X63324580Y-68859332D01*
X63324580Y-68859332D02*
X63476961Y-68821237D01*
X63476961Y-68821237D02*
X63743628Y-68821237D01*
X63743628Y-68821237D02*
X63896009Y-68859332D01*
X63896009Y-68859332D02*
X63972200Y-68935523D01*
X63972200Y-68935523D02*
X64010295Y-69011713D01*
X64010295Y-69011713D02*
X64010295Y-69164094D01*
X64010295Y-68059333D02*
X64010295Y-68516476D01*
X64010295Y-68287904D02*
X63210295Y-68287904D01*
X63210295Y-68287904D02*
X63324580Y-68364095D01*
X63324580Y-68364095D02*
X63400771Y-68440285D01*
X63400771Y-68440285D02*
X63438866Y-68516476D01*
X64010295Y-67297428D02*
X64010295Y-67754571D01*
X64010295Y-67525999D02*
X63210295Y-67525999D01*
X63210295Y-67525999D02*
X63324580Y-67602190D01*
X63324580Y-67602190D02*
X63400771Y-67678380D01*
X63400771Y-67678380D02*
X63438866Y-67754571D01*
X53032819Y-154852666D02*
X52556628Y-155185999D01*
X53032819Y-155424094D02*
X52032819Y-155424094D01*
X52032819Y-155424094D02*
X52032819Y-155043142D01*
X52032819Y-155043142D02*
X52080438Y-154947904D01*
X52080438Y-154947904D02*
X52128057Y-154900285D01*
X52128057Y-154900285D02*
X52223295Y-154852666D01*
X52223295Y-154852666D02*
X52366152Y-154852666D01*
X52366152Y-154852666D02*
X52461390Y-154900285D01*
X52461390Y-154900285D02*
X52509009Y-154947904D01*
X52509009Y-154947904D02*
X52556628Y-155043142D01*
X52556628Y-155043142D02*
X52556628Y-155424094D01*
X52366152Y-153995523D02*
X53032819Y-153995523D01*
X51985200Y-154233618D02*
X52699485Y-154471713D01*
X52699485Y-154471713D02*
X52699485Y-153852666D01*
X36982476Y-160598295D02*
X36982476Y-161245914D01*
X36982476Y-161245914D02*
X37020571Y-161322104D01*
X37020571Y-161322104D02*
X37058666Y-161360200D01*
X37058666Y-161360200D02*
X37134857Y-161398295D01*
X37134857Y-161398295D02*
X37287238Y-161398295D01*
X37287238Y-161398295D02*
X37363428Y-161360200D01*
X37363428Y-161360200D02*
X37401523Y-161322104D01*
X37401523Y-161322104D02*
X37439619Y-161245914D01*
X37439619Y-161245914D02*
X37439619Y-160598295D01*
X37782475Y-160674485D02*
X37820571Y-160636390D01*
X37820571Y-160636390D02*
X37896761Y-160598295D01*
X37896761Y-160598295D02*
X38087237Y-160598295D01*
X38087237Y-160598295D02*
X38163428Y-160636390D01*
X38163428Y-160636390D02*
X38201523Y-160674485D01*
X38201523Y-160674485D02*
X38239618Y-160750676D01*
X38239618Y-160750676D02*
X38239618Y-160826866D01*
X38239618Y-160826866D02*
X38201523Y-160941152D01*
X38201523Y-160941152D02*
X37744380Y-161398295D01*
X37744380Y-161398295D02*
X38239618Y-161398295D01*
X36776819Y-147486666D02*
X36300628Y-147819999D01*
X36776819Y-148058094D02*
X35776819Y-148058094D01*
X35776819Y-148058094D02*
X35776819Y-147677142D01*
X35776819Y-147677142D02*
X35824438Y-147581904D01*
X35824438Y-147581904D02*
X35872057Y-147534285D01*
X35872057Y-147534285D02*
X35967295Y-147486666D01*
X35967295Y-147486666D02*
X36110152Y-147486666D01*
X36110152Y-147486666D02*
X36205390Y-147534285D01*
X36205390Y-147534285D02*
X36253009Y-147581904D01*
X36253009Y-147581904D02*
X36300628Y-147677142D01*
X36300628Y-147677142D02*
X36300628Y-148058094D01*
X35776819Y-147153332D02*
X35776819Y-146486666D01*
X35776819Y-146486666D02*
X36776819Y-146915237D01*
X32631142Y-42015580D02*
X32583523Y-42063200D01*
X32583523Y-42063200D02*
X32440666Y-42110819D01*
X32440666Y-42110819D02*
X32345428Y-42110819D01*
X32345428Y-42110819D02*
X32202571Y-42063200D01*
X32202571Y-42063200D02*
X32107333Y-41967961D01*
X32107333Y-41967961D02*
X32059714Y-41872723D01*
X32059714Y-41872723D02*
X32012095Y-41682247D01*
X32012095Y-41682247D02*
X32012095Y-41539390D01*
X32012095Y-41539390D02*
X32059714Y-41348914D01*
X32059714Y-41348914D02*
X32107333Y-41253676D01*
X32107333Y-41253676D02*
X32202571Y-41158438D01*
X32202571Y-41158438D02*
X32345428Y-41110819D01*
X32345428Y-41110819D02*
X32440666Y-41110819D01*
X32440666Y-41110819D02*
X32583523Y-41158438D01*
X32583523Y-41158438D02*
X32631142Y-41206057D01*
X33583523Y-42110819D02*
X33012095Y-42110819D01*
X33297809Y-42110819D02*
X33297809Y-41110819D01*
X33297809Y-41110819D02*
X33202571Y-41253676D01*
X33202571Y-41253676D02*
X33107333Y-41348914D01*
X33107333Y-41348914D02*
X33012095Y-41396533D01*
X33964476Y-41206057D02*
X34012095Y-41158438D01*
X34012095Y-41158438D02*
X34107333Y-41110819D01*
X34107333Y-41110819D02*
X34345428Y-41110819D01*
X34345428Y-41110819D02*
X34440666Y-41158438D01*
X34440666Y-41158438D02*
X34488285Y-41206057D01*
X34488285Y-41206057D02*
X34535904Y-41301295D01*
X34535904Y-41301295D02*
X34535904Y-41396533D01*
X34535904Y-41396533D02*
X34488285Y-41539390D01*
X34488285Y-41539390D02*
X33916857Y-42110819D01*
X33916857Y-42110819D02*
X34535904Y-42110819D01*
X64309333Y-95355580D02*
X64261714Y-95403200D01*
X64261714Y-95403200D02*
X64118857Y-95450819D01*
X64118857Y-95450819D02*
X64023619Y-95450819D01*
X64023619Y-95450819D02*
X63880762Y-95403200D01*
X63880762Y-95403200D02*
X63785524Y-95307961D01*
X63785524Y-95307961D02*
X63737905Y-95212723D01*
X63737905Y-95212723D02*
X63690286Y-95022247D01*
X63690286Y-95022247D02*
X63690286Y-94879390D01*
X63690286Y-94879390D02*
X63737905Y-94688914D01*
X63737905Y-94688914D02*
X63785524Y-94593676D01*
X63785524Y-94593676D02*
X63880762Y-94498438D01*
X63880762Y-94498438D02*
X64023619Y-94450819D01*
X64023619Y-94450819D02*
X64118857Y-94450819D01*
X64118857Y-94450819D02*
X64261714Y-94498438D01*
X64261714Y-94498438D02*
X64309333Y-94546057D01*
X64880762Y-94879390D02*
X64785524Y-94831771D01*
X64785524Y-94831771D02*
X64737905Y-94784152D01*
X64737905Y-94784152D02*
X64690286Y-94688914D01*
X64690286Y-94688914D02*
X64690286Y-94641295D01*
X64690286Y-94641295D02*
X64737905Y-94546057D01*
X64737905Y-94546057D02*
X64785524Y-94498438D01*
X64785524Y-94498438D02*
X64880762Y-94450819D01*
X64880762Y-94450819D02*
X65071238Y-94450819D01*
X65071238Y-94450819D02*
X65166476Y-94498438D01*
X65166476Y-94498438D02*
X65214095Y-94546057D01*
X65214095Y-94546057D02*
X65261714Y-94641295D01*
X65261714Y-94641295D02*
X65261714Y-94688914D01*
X65261714Y-94688914D02*
X65214095Y-94784152D01*
X65214095Y-94784152D02*
X65166476Y-94831771D01*
X65166476Y-94831771D02*
X65071238Y-94879390D01*
X65071238Y-94879390D02*
X64880762Y-94879390D01*
X64880762Y-94879390D02*
X64785524Y-94927009D01*
X64785524Y-94927009D02*
X64737905Y-94974628D01*
X64737905Y-94974628D02*
X64690286Y-95069866D01*
X64690286Y-95069866D02*
X64690286Y-95260342D01*
X64690286Y-95260342D02*
X64737905Y-95355580D01*
X64737905Y-95355580D02*
X64785524Y-95403200D01*
X64785524Y-95403200D02*
X64880762Y-95450819D01*
X64880762Y-95450819D02*
X65071238Y-95450819D01*
X65071238Y-95450819D02*
X65166476Y-95403200D01*
X65166476Y-95403200D02*
X65214095Y-95355580D01*
X65214095Y-95355580D02*
X65261714Y-95260342D01*
X65261714Y-95260342D02*
X65261714Y-95069866D01*
X65261714Y-95069866D02*
X65214095Y-94974628D01*
X65214095Y-94974628D02*
X65166476Y-94927009D01*
X65166476Y-94927009D02*
X65071238Y-94879390D01*
X60317142Y-124057580D02*
X60269523Y-124105200D01*
X60269523Y-124105200D02*
X60126666Y-124152819D01*
X60126666Y-124152819D02*
X60031428Y-124152819D01*
X60031428Y-124152819D02*
X59888571Y-124105200D01*
X59888571Y-124105200D02*
X59793333Y-124009961D01*
X59793333Y-124009961D02*
X59745714Y-123914723D01*
X59745714Y-123914723D02*
X59698095Y-123724247D01*
X59698095Y-123724247D02*
X59698095Y-123581390D01*
X59698095Y-123581390D02*
X59745714Y-123390914D01*
X59745714Y-123390914D02*
X59793333Y-123295676D01*
X59793333Y-123295676D02*
X59888571Y-123200438D01*
X59888571Y-123200438D02*
X60031428Y-123152819D01*
X60031428Y-123152819D02*
X60126666Y-123152819D01*
X60126666Y-123152819D02*
X60269523Y-123200438D01*
X60269523Y-123200438D02*
X60317142Y-123248057D01*
X61269523Y-124152819D02*
X60698095Y-124152819D01*
X60983809Y-124152819D02*
X60983809Y-123152819D01*
X60983809Y-123152819D02*
X60888571Y-123295676D01*
X60888571Y-123295676D02*
X60793333Y-123390914D01*
X60793333Y-123390914D02*
X60698095Y-123438533D01*
X62221904Y-124152819D02*
X61650476Y-124152819D01*
X61936190Y-124152819D02*
X61936190Y-123152819D01*
X61936190Y-123152819D02*
X61840952Y-123295676D01*
X61840952Y-123295676D02*
X61745714Y-123390914D01*
X61745714Y-123390914D02*
X61650476Y-123438533D01*
X54969580Y-65626857D02*
X55017200Y-65674476D01*
X55017200Y-65674476D02*
X55064819Y-65817333D01*
X55064819Y-65817333D02*
X55064819Y-65912571D01*
X55064819Y-65912571D02*
X55017200Y-66055428D01*
X55017200Y-66055428D02*
X54921961Y-66150666D01*
X54921961Y-66150666D02*
X54826723Y-66198285D01*
X54826723Y-66198285D02*
X54636247Y-66245904D01*
X54636247Y-66245904D02*
X54493390Y-66245904D01*
X54493390Y-66245904D02*
X54302914Y-66198285D01*
X54302914Y-66198285D02*
X54207676Y-66150666D01*
X54207676Y-66150666D02*
X54112438Y-66055428D01*
X54112438Y-66055428D02*
X54064819Y-65912571D01*
X54064819Y-65912571D02*
X54064819Y-65817333D01*
X54064819Y-65817333D02*
X54112438Y-65674476D01*
X54112438Y-65674476D02*
X54160057Y-65626857D01*
X55064819Y-64674476D02*
X55064819Y-65245904D01*
X55064819Y-64960190D02*
X54064819Y-64960190D01*
X54064819Y-64960190D02*
X54207676Y-65055428D01*
X54207676Y-65055428D02*
X54302914Y-65150666D01*
X54302914Y-65150666D02*
X54350533Y-65245904D01*
X54064819Y-64341142D02*
X54064819Y-63722095D01*
X54064819Y-63722095D02*
X54445771Y-64055428D01*
X54445771Y-64055428D02*
X54445771Y-63912571D01*
X54445771Y-63912571D02*
X54493390Y-63817333D01*
X54493390Y-63817333D02*
X54541009Y-63769714D01*
X54541009Y-63769714D02*
X54636247Y-63722095D01*
X54636247Y-63722095D02*
X54874342Y-63722095D01*
X54874342Y-63722095D02*
X54969580Y-63769714D01*
X54969580Y-63769714D02*
X55017200Y-63817333D01*
X55017200Y-63817333D02*
X55064819Y-63912571D01*
X55064819Y-63912571D02*
X55064819Y-64198285D01*
X55064819Y-64198285D02*
X55017200Y-64293523D01*
X55017200Y-64293523D02*
X54969580Y-64341142D01*
X37203142Y-59636819D02*
X36869809Y-59160628D01*
X36631714Y-59636819D02*
X36631714Y-58636819D01*
X36631714Y-58636819D02*
X37012666Y-58636819D01*
X37012666Y-58636819D02*
X37107904Y-58684438D01*
X37107904Y-58684438D02*
X37155523Y-58732057D01*
X37155523Y-58732057D02*
X37203142Y-58827295D01*
X37203142Y-58827295D02*
X37203142Y-58970152D01*
X37203142Y-58970152D02*
X37155523Y-59065390D01*
X37155523Y-59065390D02*
X37107904Y-59113009D01*
X37107904Y-59113009D02*
X37012666Y-59160628D01*
X37012666Y-59160628D02*
X36631714Y-59160628D01*
X37584095Y-58732057D02*
X37631714Y-58684438D01*
X37631714Y-58684438D02*
X37726952Y-58636819D01*
X37726952Y-58636819D02*
X37965047Y-58636819D01*
X37965047Y-58636819D02*
X38060285Y-58684438D01*
X38060285Y-58684438D02*
X38107904Y-58732057D01*
X38107904Y-58732057D02*
X38155523Y-58827295D01*
X38155523Y-58827295D02*
X38155523Y-58922533D01*
X38155523Y-58922533D02*
X38107904Y-59065390D01*
X38107904Y-59065390D02*
X37536476Y-59636819D01*
X37536476Y-59636819D02*
X38155523Y-59636819D01*
X39012666Y-58970152D02*
X39012666Y-59636819D01*
X38774571Y-58589200D02*
X38536476Y-59303485D01*
X38536476Y-59303485D02*
X39155523Y-59303485D01*
X73860819Y-103764357D02*
X73384628Y-104097690D01*
X73860819Y-104335785D02*
X72860819Y-104335785D01*
X72860819Y-104335785D02*
X72860819Y-103954833D01*
X72860819Y-103954833D02*
X72908438Y-103859595D01*
X72908438Y-103859595D02*
X72956057Y-103811976D01*
X72956057Y-103811976D02*
X73051295Y-103764357D01*
X73051295Y-103764357D02*
X73194152Y-103764357D01*
X73194152Y-103764357D02*
X73289390Y-103811976D01*
X73289390Y-103811976D02*
X73337009Y-103859595D01*
X73337009Y-103859595D02*
X73384628Y-103954833D01*
X73384628Y-103954833D02*
X73384628Y-104335785D01*
X73860819Y-102811976D02*
X73860819Y-103383404D01*
X73860819Y-103097690D02*
X72860819Y-103097690D01*
X72860819Y-103097690D02*
X73003676Y-103192928D01*
X73003676Y-103192928D02*
X73098914Y-103288166D01*
X73098914Y-103288166D02*
X73146533Y-103383404D01*
X72860819Y-102478642D02*
X72860819Y-101859595D01*
X72860819Y-101859595D02*
X73241771Y-102192928D01*
X73241771Y-102192928D02*
X73241771Y-102050071D01*
X73241771Y-102050071D02*
X73289390Y-101954833D01*
X73289390Y-101954833D02*
X73337009Y-101907214D01*
X73337009Y-101907214D02*
X73432247Y-101859595D01*
X73432247Y-101859595D02*
X73670342Y-101859595D01*
X73670342Y-101859595D02*
X73765580Y-101907214D01*
X73765580Y-101907214D02*
X73813200Y-101954833D01*
X73813200Y-101954833D02*
X73860819Y-102050071D01*
X73860819Y-102050071D02*
X73860819Y-102335785D01*
X73860819Y-102335785D02*
X73813200Y-102431023D01*
X73813200Y-102431023D02*
X73765580Y-102478642D01*
X44823142Y-158696819D02*
X44489809Y-158220628D01*
X44251714Y-158696819D02*
X44251714Y-157696819D01*
X44251714Y-157696819D02*
X44632666Y-157696819D01*
X44632666Y-157696819D02*
X44727904Y-157744438D01*
X44727904Y-157744438D02*
X44775523Y-157792057D01*
X44775523Y-157792057D02*
X44823142Y-157887295D01*
X44823142Y-157887295D02*
X44823142Y-158030152D01*
X44823142Y-158030152D02*
X44775523Y-158125390D01*
X44775523Y-158125390D02*
X44727904Y-158173009D01*
X44727904Y-158173009D02*
X44632666Y-158220628D01*
X44632666Y-158220628D02*
X44251714Y-158220628D01*
X45775523Y-158696819D02*
X45204095Y-158696819D01*
X45489809Y-158696819D02*
X45489809Y-157696819D01*
X45489809Y-157696819D02*
X45394571Y-157839676D01*
X45394571Y-157839676D02*
X45299333Y-157934914D01*
X45299333Y-157934914D02*
X45204095Y-157982533D01*
X46680285Y-157696819D02*
X46204095Y-157696819D01*
X46204095Y-157696819D02*
X46156476Y-158173009D01*
X46156476Y-158173009D02*
X46204095Y-158125390D01*
X46204095Y-158125390D02*
X46299333Y-158077771D01*
X46299333Y-158077771D02*
X46537428Y-158077771D01*
X46537428Y-158077771D02*
X46632666Y-158125390D01*
X46632666Y-158125390D02*
X46680285Y-158173009D01*
X46680285Y-158173009D02*
X46727904Y-158268247D01*
X46727904Y-158268247D02*
X46727904Y-158506342D01*
X46727904Y-158506342D02*
X46680285Y-158601580D01*
X46680285Y-158601580D02*
X46632666Y-158649200D01*
X46632666Y-158649200D02*
X46537428Y-158696819D01*
X46537428Y-158696819D02*
X46299333Y-158696819D01*
X46299333Y-158696819D02*
X46204095Y-158649200D01*
X46204095Y-158649200D02*
X46156476Y-158601580D01*
X48714819Y-177966666D02*
X48238628Y-178299999D01*
X48714819Y-178538094D02*
X47714819Y-178538094D01*
X47714819Y-178538094D02*
X47714819Y-178157142D01*
X47714819Y-178157142D02*
X47762438Y-178061904D01*
X47762438Y-178061904D02*
X47810057Y-178014285D01*
X47810057Y-178014285D02*
X47905295Y-177966666D01*
X47905295Y-177966666D02*
X48048152Y-177966666D01*
X48048152Y-177966666D02*
X48143390Y-178014285D01*
X48143390Y-178014285D02*
X48191009Y-178061904D01*
X48191009Y-178061904D02*
X48238628Y-178157142D01*
X48238628Y-178157142D02*
X48238628Y-178538094D01*
X47714819Y-177633332D02*
X47714819Y-177014285D01*
X47714819Y-177014285D02*
X48095771Y-177347618D01*
X48095771Y-177347618D02*
X48095771Y-177204761D01*
X48095771Y-177204761D02*
X48143390Y-177109523D01*
X48143390Y-177109523D02*
X48191009Y-177061904D01*
X48191009Y-177061904D02*
X48286247Y-177014285D01*
X48286247Y-177014285D02*
X48524342Y-177014285D01*
X48524342Y-177014285D02*
X48619580Y-177061904D01*
X48619580Y-177061904D02*
X48667200Y-177109523D01*
X48667200Y-177109523D02*
X48714819Y-177204761D01*
X48714819Y-177204761D02*
X48714819Y-177490475D01*
X48714819Y-177490475D02*
X48667200Y-177585713D01*
X48667200Y-177585713D02*
X48619580Y-177633332D01*
X58271580Y-105758857D02*
X58319200Y-105806476D01*
X58319200Y-105806476D02*
X58366819Y-105949333D01*
X58366819Y-105949333D02*
X58366819Y-106044571D01*
X58366819Y-106044571D02*
X58319200Y-106187428D01*
X58319200Y-106187428D02*
X58223961Y-106282666D01*
X58223961Y-106282666D02*
X58128723Y-106330285D01*
X58128723Y-106330285D02*
X57938247Y-106377904D01*
X57938247Y-106377904D02*
X57795390Y-106377904D01*
X57795390Y-106377904D02*
X57604914Y-106330285D01*
X57604914Y-106330285D02*
X57509676Y-106282666D01*
X57509676Y-106282666D02*
X57414438Y-106187428D01*
X57414438Y-106187428D02*
X57366819Y-106044571D01*
X57366819Y-106044571D02*
X57366819Y-105949333D01*
X57366819Y-105949333D02*
X57414438Y-105806476D01*
X57414438Y-105806476D02*
X57462057Y-105758857D01*
X58366819Y-104806476D02*
X58366819Y-105377904D01*
X58366819Y-105092190D02*
X57366819Y-105092190D01*
X57366819Y-105092190D02*
X57509676Y-105187428D01*
X57509676Y-105187428D02*
X57604914Y-105282666D01*
X57604914Y-105282666D02*
X57652533Y-105377904D01*
X57366819Y-104473142D02*
X57366819Y-103806476D01*
X57366819Y-103806476D02*
X58366819Y-104235047D01*
X37030819Y-100972857D02*
X36554628Y-101306190D01*
X37030819Y-101544285D02*
X36030819Y-101544285D01*
X36030819Y-101544285D02*
X36030819Y-101163333D01*
X36030819Y-101163333D02*
X36078438Y-101068095D01*
X36078438Y-101068095D02*
X36126057Y-101020476D01*
X36126057Y-101020476D02*
X36221295Y-100972857D01*
X36221295Y-100972857D02*
X36364152Y-100972857D01*
X36364152Y-100972857D02*
X36459390Y-101020476D01*
X36459390Y-101020476D02*
X36507009Y-101068095D01*
X36507009Y-101068095D02*
X36554628Y-101163333D01*
X36554628Y-101163333D02*
X36554628Y-101544285D01*
X37030819Y-100020476D02*
X37030819Y-100591904D01*
X37030819Y-100306190D02*
X36030819Y-100306190D01*
X36030819Y-100306190D02*
X36173676Y-100401428D01*
X36173676Y-100401428D02*
X36268914Y-100496666D01*
X36268914Y-100496666D02*
X36316533Y-100591904D01*
X37030819Y-99544285D02*
X37030819Y-99353809D01*
X37030819Y-99353809D02*
X36983200Y-99258571D01*
X36983200Y-99258571D02*
X36935580Y-99210952D01*
X36935580Y-99210952D02*
X36792723Y-99115714D01*
X36792723Y-99115714D02*
X36602247Y-99068095D01*
X36602247Y-99068095D02*
X36221295Y-99068095D01*
X36221295Y-99068095D02*
X36126057Y-99115714D01*
X36126057Y-99115714D02*
X36078438Y-99163333D01*
X36078438Y-99163333D02*
X36030819Y-99258571D01*
X36030819Y-99258571D02*
X36030819Y-99449047D01*
X36030819Y-99449047D02*
X36078438Y-99544285D01*
X36078438Y-99544285D02*
X36126057Y-99591904D01*
X36126057Y-99591904D02*
X36221295Y-99639523D01*
X36221295Y-99639523D02*
X36459390Y-99639523D01*
X36459390Y-99639523D02*
X36554628Y-99591904D01*
X36554628Y-99591904D02*
X36602247Y-99544285D01*
X36602247Y-99544285D02*
X36649866Y-99449047D01*
X36649866Y-99449047D02*
X36649866Y-99258571D01*
X36649866Y-99258571D02*
X36602247Y-99163333D01*
X36602247Y-99163333D02*
X36554628Y-99115714D01*
X36554628Y-99115714D02*
X36459390Y-99068095D01*
X46601142Y-30934819D02*
X46267809Y-30458628D01*
X46029714Y-30934819D02*
X46029714Y-29934819D01*
X46029714Y-29934819D02*
X46410666Y-29934819D01*
X46410666Y-29934819D02*
X46505904Y-29982438D01*
X46505904Y-29982438D02*
X46553523Y-30030057D01*
X46553523Y-30030057D02*
X46601142Y-30125295D01*
X46601142Y-30125295D02*
X46601142Y-30268152D01*
X46601142Y-30268152D02*
X46553523Y-30363390D01*
X46553523Y-30363390D02*
X46505904Y-30411009D01*
X46505904Y-30411009D02*
X46410666Y-30458628D01*
X46410666Y-30458628D02*
X46029714Y-30458628D01*
X46982095Y-30030057D02*
X47029714Y-29982438D01*
X47029714Y-29982438D02*
X47124952Y-29934819D01*
X47124952Y-29934819D02*
X47363047Y-29934819D01*
X47363047Y-29934819D02*
X47458285Y-29982438D01*
X47458285Y-29982438D02*
X47505904Y-30030057D01*
X47505904Y-30030057D02*
X47553523Y-30125295D01*
X47553523Y-30125295D02*
X47553523Y-30220533D01*
X47553523Y-30220533D02*
X47505904Y-30363390D01*
X47505904Y-30363390D02*
X46934476Y-30934819D01*
X46934476Y-30934819D02*
X47553523Y-30934819D01*
X48458285Y-29934819D02*
X47982095Y-29934819D01*
X47982095Y-29934819D02*
X47934476Y-30411009D01*
X47934476Y-30411009D02*
X47982095Y-30363390D01*
X47982095Y-30363390D02*
X48077333Y-30315771D01*
X48077333Y-30315771D02*
X48315428Y-30315771D01*
X48315428Y-30315771D02*
X48410666Y-30363390D01*
X48410666Y-30363390D02*
X48458285Y-30411009D01*
X48458285Y-30411009D02*
X48505904Y-30506247D01*
X48505904Y-30506247D02*
X48505904Y-30744342D01*
X48505904Y-30744342D02*
X48458285Y-30839580D01*
X48458285Y-30839580D02*
X48410666Y-30887200D01*
X48410666Y-30887200D02*
X48315428Y-30934819D01*
X48315428Y-30934819D02*
X48077333Y-30934819D01*
X48077333Y-30934819D02*
X47982095Y-30887200D01*
X47982095Y-30887200D02*
X47934476Y-30839580D01*
X37719333Y-179429580D02*
X37671714Y-179477200D01*
X37671714Y-179477200D02*
X37528857Y-179524819D01*
X37528857Y-179524819D02*
X37433619Y-179524819D01*
X37433619Y-179524819D02*
X37290762Y-179477200D01*
X37290762Y-179477200D02*
X37195524Y-179381961D01*
X37195524Y-179381961D02*
X37147905Y-179286723D01*
X37147905Y-179286723D02*
X37100286Y-179096247D01*
X37100286Y-179096247D02*
X37100286Y-178953390D01*
X37100286Y-178953390D02*
X37147905Y-178762914D01*
X37147905Y-178762914D02*
X37195524Y-178667676D01*
X37195524Y-178667676D02*
X37290762Y-178572438D01*
X37290762Y-178572438D02*
X37433619Y-178524819D01*
X37433619Y-178524819D02*
X37528857Y-178524819D01*
X37528857Y-178524819D02*
X37671714Y-178572438D01*
X37671714Y-178572438D02*
X37719333Y-178620057D01*
X38100286Y-178620057D02*
X38147905Y-178572438D01*
X38147905Y-178572438D02*
X38243143Y-178524819D01*
X38243143Y-178524819D02*
X38481238Y-178524819D01*
X38481238Y-178524819D02*
X38576476Y-178572438D01*
X38576476Y-178572438D02*
X38624095Y-178620057D01*
X38624095Y-178620057D02*
X38671714Y-178715295D01*
X38671714Y-178715295D02*
X38671714Y-178810533D01*
X38671714Y-178810533D02*
X38624095Y-178953390D01*
X38624095Y-178953390D02*
X38052667Y-179524819D01*
X38052667Y-179524819D02*
X38671714Y-179524819D01*
X31115333Y-155553580D02*
X31067714Y-155601200D01*
X31067714Y-155601200D02*
X30924857Y-155648819D01*
X30924857Y-155648819D02*
X30829619Y-155648819D01*
X30829619Y-155648819D02*
X30686762Y-155601200D01*
X30686762Y-155601200D02*
X30591524Y-155505961D01*
X30591524Y-155505961D02*
X30543905Y-155410723D01*
X30543905Y-155410723D02*
X30496286Y-155220247D01*
X30496286Y-155220247D02*
X30496286Y-155077390D01*
X30496286Y-155077390D02*
X30543905Y-154886914D01*
X30543905Y-154886914D02*
X30591524Y-154791676D01*
X30591524Y-154791676D02*
X30686762Y-154696438D01*
X30686762Y-154696438D02*
X30829619Y-154648819D01*
X30829619Y-154648819D02*
X30924857Y-154648819D01*
X30924857Y-154648819D02*
X31067714Y-154696438D01*
X31067714Y-154696438D02*
X31115333Y-154744057D01*
X31972476Y-154982152D02*
X31972476Y-155648819D01*
X31734381Y-154601200D02*
X31496286Y-155315485D01*
X31496286Y-155315485D02*
X32115333Y-155315485D01*
X64086485Y-79070190D02*
X64048390Y-79146380D01*
X64048390Y-79146380D02*
X63972200Y-79222571D01*
X63972200Y-79222571D02*
X63857914Y-79336857D01*
X63857914Y-79336857D02*
X63819819Y-79413047D01*
X63819819Y-79413047D02*
X63819819Y-79489238D01*
X64010295Y-79451142D02*
X63972200Y-79527333D01*
X63972200Y-79527333D02*
X63896009Y-79603523D01*
X63896009Y-79603523D02*
X63743628Y-79641619D01*
X63743628Y-79641619D02*
X63476961Y-79641619D01*
X63476961Y-79641619D02*
X63324580Y-79603523D01*
X63324580Y-79603523D02*
X63248390Y-79527333D01*
X63248390Y-79527333D02*
X63210295Y-79451142D01*
X63210295Y-79451142D02*
X63210295Y-79298761D01*
X63210295Y-79298761D02*
X63248390Y-79222571D01*
X63248390Y-79222571D02*
X63324580Y-79146380D01*
X63324580Y-79146380D02*
X63476961Y-79108285D01*
X63476961Y-79108285D02*
X63743628Y-79108285D01*
X63743628Y-79108285D02*
X63896009Y-79146380D01*
X63896009Y-79146380D02*
X63972200Y-79222571D01*
X63972200Y-79222571D02*
X64010295Y-79298761D01*
X64010295Y-79298761D02*
X64010295Y-79451142D01*
X64010295Y-78727333D02*
X64010295Y-78574952D01*
X64010295Y-78574952D02*
X63972200Y-78498762D01*
X63972200Y-78498762D02*
X63934104Y-78460666D01*
X63934104Y-78460666D02*
X63819819Y-78384476D01*
X63819819Y-78384476D02*
X63667438Y-78346381D01*
X63667438Y-78346381D02*
X63362676Y-78346381D01*
X63362676Y-78346381D02*
X63286485Y-78384476D01*
X63286485Y-78384476D02*
X63248390Y-78422571D01*
X63248390Y-78422571D02*
X63210295Y-78498762D01*
X63210295Y-78498762D02*
X63210295Y-78651143D01*
X63210295Y-78651143D02*
X63248390Y-78727333D01*
X63248390Y-78727333D02*
X63286485Y-78765428D01*
X63286485Y-78765428D02*
X63362676Y-78803524D01*
X63362676Y-78803524D02*
X63553152Y-78803524D01*
X63553152Y-78803524D02*
X63629342Y-78765428D01*
X63629342Y-78765428D02*
X63667438Y-78727333D01*
X63667438Y-78727333D02*
X63705533Y-78651143D01*
X63705533Y-78651143D02*
X63705533Y-78498762D01*
X63705533Y-78498762D02*
X63667438Y-78422571D01*
X63667438Y-78422571D02*
X63629342Y-78384476D01*
X63629342Y-78384476D02*
X63553152Y-78346381D01*
X50956666Y-195074819D02*
X50956666Y-195789104D01*
X50956666Y-195789104D02*
X50909047Y-195931961D01*
X50909047Y-195931961D02*
X50813809Y-196027200D01*
X50813809Y-196027200D02*
X50670952Y-196074819D01*
X50670952Y-196074819D02*
X50575714Y-196074819D01*
X51956666Y-196074819D02*
X51385238Y-196074819D01*
X51670952Y-196074819D02*
X51670952Y-195074819D01*
X51670952Y-195074819D02*
X51575714Y-195217676D01*
X51575714Y-195217676D02*
X51480476Y-195312914D01*
X51480476Y-195312914D02*
X51385238Y-195360533D01*
X71828819Y-74302857D02*
X71352628Y-74636190D01*
X71828819Y-74874285D02*
X70828819Y-74874285D01*
X70828819Y-74874285D02*
X70828819Y-74493333D01*
X70828819Y-74493333D02*
X70876438Y-74398095D01*
X70876438Y-74398095D02*
X70924057Y-74350476D01*
X70924057Y-74350476D02*
X71019295Y-74302857D01*
X71019295Y-74302857D02*
X71162152Y-74302857D01*
X71162152Y-74302857D02*
X71257390Y-74350476D01*
X71257390Y-74350476D02*
X71305009Y-74398095D01*
X71305009Y-74398095D02*
X71352628Y-74493333D01*
X71352628Y-74493333D02*
X71352628Y-74874285D01*
X71828819Y-73350476D02*
X71828819Y-73921904D01*
X71828819Y-73636190D02*
X70828819Y-73636190D01*
X70828819Y-73636190D02*
X70971676Y-73731428D01*
X70971676Y-73731428D02*
X71066914Y-73826666D01*
X71066914Y-73826666D02*
X71114533Y-73921904D01*
X70828819Y-72731428D02*
X70828819Y-72636190D01*
X70828819Y-72636190D02*
X70876438Y-72540952D01*
X70876438Y-72540952D02*
X70924057Y-72493333D01*
X70924057Y-72493333D02*
X71019295Y-72445714D01*
X71019295Y-72445714D02*
X71209771Y-72398095D01*
X71209771Y-72398095D02*
X71447866Y-72398095D01*
X71447866Y-72398095D02*
X71638342Y-72445714D01*
X71638342Y-72445714D02*
X71733580Y-72493333D01*
X71733580Y-72493333D02*
X71781200Y-72540952D01*
X71781200Y-72540952D02*
X71828819Y-72636190D01*
X71828819Y-72636190D02*
X71828819Y-72731428D01*
X71828819Y-72731428D02*
X71781200Y-72826666D01*
X71781200Y-72826666D02*
X71733580Y-72874285D01*
X71733580Y-72874285D02*
X71638342Y-72921904D01*
X71638342Y-72921904D02*
X71447866Y-72969523D01*
X71447866Y-72969523D02*
X71209771Y-72969523D01*
X71209771Y-72969523D02*
X71019295Y-72921904D01*
X71019295Y-72921904D02*
X70924057Y-72874285D01*
X70924057Y-72874285D02*
X70876438Y-72826666D01*
X70876438Y-72826666D02*
X70828819Y-72731428D01*
X64309333Y-106023580D02*
X64261714Y-106071200D01*
X64261714Y-106071200D02*
X64118857Y-106118819D01*
X64118857Y-106118819D02*
X64023619Y-106118819D01*
X64023619Y-106118819D02*
X63880762Y-106071200D01*
X63880762Y-106071200D02*
X63785524Y-105975961D01*
X63785524Y-105975961D02*
X63737905Y-105880723D01*
X63737905Y-105880723D02*
X63690286Y-105690247D01*
X63690286Y-105690247D02*
X63690286Y-105547390D01*
X63690286Y-105547390D02*
X63737905Y-105356914D01*
X63737905Y-105356914D02*
X63785524Y-105261676D01*
X63785524Y-105261676D02*
X63880762Y-105166438D01*
X63880762Y-105166438D02*
X64023619Y-105118819D01*
X64023619Y-105118819D02*
X64118857Y-105118819D01*
X64118857Y-105118819D02*
X64261714Y-105166438D01*
X64261714Y-105166438D02*
X64309333Y-105214057D01*
X64642667Y-105118819D02*
X65309333Y-105118819D01*
X65309333Y-105118819D02*
X64880762Y-106118819D01*
X69420485Y-89738190D02*
X69382390Y-89814380D01*
X69382390Y-89814380D02*
X69306200Y-89890571D01*
X69306200Y-89890571D02*
X69191914Y-90004857D01*
X69191914Y-90004857D02*
X69153819Y-90081047D01*
X69153819Y-90081047D02*
X69153819Y-90157238D01*
X69344295Y-90119142D02*
X69306200Y-90195333D01*
X69306200Y-90195333D02*
X69230009Y-90271523D01*
X69230009Y-90271523D02*
X69077628Y-90309619D01*
X69077628Y-90309619D02*
X68810961Y-90309619D01*
X68810961Y-90309619D02*
X68658580Y-90271523D01*
X68658580Y-90271523D02*
X68582390Y-90195333D01*
X68582390Y-90195333D02*
X68544295Y-90119142D01*
X68544295Y-90119142D02*
X68544295Y-89966761D01*
X68544295Y-89966761D02*
X68582390Y-89890571D01*
X68582390Y-89890571D02*
X68658580Y-89814380D01*
X68658580Y-89814380D02*
X68810961Y-89776285D01*
X68810961Y-89776285D02*
X69077628Y-89776285D01*
X69077628Y-89776285D02*
X69230009Y-89814380D01*
X69230009Y-89814380D02*
X69306200Y-89890571D01*
X69306200Y-89890571D02*
X69344295Y-89966761D01*
X69344295Y-89966761D02*
X69344295Y-90119142D01*
X68887152Y-89319143D02*
X68849057Y-89395333D01*
X68849057Y-89395333D02*
X68810961Y-89433428D01*
X68810961Y-89433428D02*
X68734771Y-89471524D01*
X68734771Y-89471524D02*
X68696676Y-89471524D01*
X68696676Y-89471524D02*
X68620485Y-89433428D01*
X68620485Y-89433428D02*
X68582390Y-89395333D01*
X68582390Y-89395333D02*
X68544295Y-89319143D01*
X68544295Y-89319143D02*
X68544295Y-89166762D01*
X68544295Y-89166762D02*
X68582390Y-89090571D01*
X68582390Y-89090571D02*
X68620485Y-89052476D01*
X68620485Y-89052476D02*
X68696676Y-89014381D01*
X68696676Y-89014381D02*
X68734771Y-89014381D01*
X68734771Y-89014381D02*
X68810961Y-89052476D01*
X68810961Y-89052476D02*
X68849057Y-89090571D01*
X68849057Y-89090571D02*
X68887152Y-89166762D01*
X68887152Y-89166762D02*
X68887152Y-89319143D01*
X68887152Y-89319143D02*
X68925247Y-89395333D01*
X68925247Y-89395333D02*
X68963342Y-89433428D01*
X68963342Y-89433428D02*
X69039533Y-89471524D01*
X69039533Y-89471524D02*
X69191914Y-89471524D01*
X69191914Y-89471524D02*
X69268104Y-89433428D01*
X69268104Y-89433428D02*
X69306200Y-89395333D01*
X69306200Y-89395333D02*
X69344295Y-89319143D01*
X69344295Y-89319143D02*
X69344295Y-89166762D01*
X69344295Y-89166762D02*
X69306200Y-89090571D01*
X69306200Y-89090571D02*
X69268104Y-89052476D01*
X69268104Y-89052476D02*
X69191914Y-89014381D01*
X69191914Y-89014381D02*
X69039533Y-89014381D01*
X69039533Y-89014381D02*
X68963342Y-89052476D01*
X68963342Y-89052476D02*
X68925247Y-89090571D01*
X68925247Y-89090571D02*
X68887152Y-89166762D01*
X42672095Y-93434819D02*
X42672095Y-94244342D01*
X42672095Y-94244342D02*
X42719714Y-94339580D01*
X42719714Y-94339580D02*
X42767333Y-94387200D01*
X42767333Y-94387200D02*
X42862571Y-94434819D01*
X42862571Y-94434819D02*
X43053047Y-94434819D01*
X43053047Y-94434819D02*
X43148285Y-94387200D01*
X43148285Y-94387200D02*
X43195904Y-94339580D01*
X43195904Y-94339580D02*
X43243523Y-94244342D01*
X43243523Y-94244342D02*
X43243523Y-93434819D01*
X44148285Y-93768152D02*
X44148285Y-94434819D01*
X43910190Y-93387200D02*
X43672095Y-94101485D01*
X43672095Y-94101485D02*
X44291142Y-94101485D01*
X69420485Y-79451142D02*
X69382390Y-79527332D01*
X69382390Y-79527332D02*
X69306200Y-79603523D01*
X69306200Y-79603523D02*
X69191914Y-79717809D01*
X69191914Y-79717809D02*
X69153819Y-79793999D01*
X69153819Y-79793999D02*
X69153819Y-79870190D01*
X69344295Y-79832094D02*
X69306200Y-79908285D01*
X69306200Y-79908285D02*
X69230009Y-79984475D01*
X69230009Y-79984475D02*
X69077628Y-80022571D01*
X69077628Y-80022571D02*
X68810961Y-80022571D01*
X68810961Y-80022571D02*
X68658580Y-79984475D01*
X68658580Y-79984475D02*
X68582390Y-79908285D01*
X68582390Y-79908285D02*
X68544295Y-79832094D01*
X68544295Y-79832094D02*
X68544295Y-79679713D01*
X68544295Y-79679713D02*
X68582390Y-79603523D01*
X68582390Y-79603523D02*
X68658580Y-79527332D01*
X68658580Y-79527332D02*
X68810961Y-79489237D01*
X68810961Y-79489237D02*
X69077628Y-79489237D01*
X69077628Y-79489237D02*
X69230009Y-79527332D01*
X69230009Y-79527332D02*
X69306200Y-79603523D01*
X69306200Y-79603523D02*
X69344295Y-79679713D01*
X69344295Y-79679713D02*
X69344295Y-79832094D01*
X69344295Y-78727333D02*
X69344295Y-79184476D01*
X69344295Y-78955904D02*
X68544295Y-78955904D01*
X68544295Y-78955904D02*
X68658580Y-79032095D01*
X68658580Y-79032095D02*
X68734771Y-79108285D01*
X68734771Y-79108285D02*
X68772866Y-79184476D01*
X68544295Y-78232094D02*
X68544295Y-78155904D01*
X68544295Y-78155904D02*
X68582390Y-78079713D01*
X68582390Y-78079713D02*
X68620485Y-78041618D01*
X68620485Y-78041618D02*
X68696676Y-78003523D01*
X68696676Y-78003523D02*
X68849057Y-77965428D01*
X68849057Y-77965428D02*
X69039533Y-77965428D01*
X69039533Y-77965428D02*
X69191914Y-78003523D01*
X69191914Y-78003523D02*
X69268104Y-78041618D01*
X69268104Y-78041618D02*
X69306200Y-78079713D01*
X69306200Y-78079713D02*
X69344295Y-78155904D01*
X69344295Y-78155904D02*
X69344295Y-78232094D01*
X69344295Y-78232094D02*
X69306200Y-78308285D01*
X69306200Y-78308285D02*
X69268104Y-78346380D01*
X69268104Y-78346380D02*
X69191914Y-78384475D01*
X69191914Y-78384475D02*
X69039533Y-78422571D01*
X69039533Y-78422571D02*
X68849057Y-78422571D01*
X68849057Y-78422571D02*
X68696676Y-78384475D01*
X68696676Y-78384475D02*
X68620485Y-78346380D01*
X68620485Y-78346380D02*
X68582390Y-78308285D01*
X68582390Y-78308285D02*
X68544295Y-78232094D01*
X64309333Y-84687580D02*
X64261714Y-84735200D01*
X64261714Y-84735200D02*
X64118857Y-84782819D01*
X64118857Y-84782819D02*
X64023619Y-84782819D01*
X64023619Y-84782819D02*
X63880762Y-84735200D01*
X63880762Y-84735200D02*
X63785524Y-84639961D01*
X63785524Y-84639961D02*
X63737905Y-84544723D01*
X63737905Y-84544723D02*
X63690286Y-84354247D01*
X63690286Y-84354247D02*
X63690286Y-84211390D01*
X63690286Y-84211390D02*
X63737905Y-84020914D01*
X63737905Y-84020914D02*
X63785524Y-83925676D01*
X63785524Y-83925676D02*
X63880762Y-83830438D01*
X63880762Y-83830438D02*
X64023619Y-83782819D01*
X64023619Y-83782819D02*
X64118857Y-83782819D01*
X64118857Y-83782819D02*
X64261714Y-83830438D01*
X64261714Y-83830438D02*
X64309333Y-83878057D01*
X64785524Y-84782819D02*
X64976000Y-84782819D01*
X64976000Y-84782819D02*
X65071238Y-84735200D01*
X65071238Y-84735200D02*
X65118857Y-84687580D01*
X65118857Y-84687580D02*
X65214095Y-84544723D01*
X65214095Y-84544723D02*
X65261714Y-84354247D01*
X65261714Y-84354247D02*
X65261714Y-83973295D01*
X65261714Y-83973295D02*
X65214095Y-83878057D01*
X65214095Y-83878057D02*
X65166476Y-83830438D01*
X65166476Y-83830438D02*
X65071238Y-83782819D01*
X65071238Y-83782819D02*
X64880762Y-83782819D01*
X64880762Y-83782819D02*
X64785524Y-83830438D01*
X64785524Y-83830438D02*
X64737905Y-83878057D01*
X64737905Y-83878057D02*
X64690286Y-83973295D01*
X64690286Y-83973295D02*
X64690286Y-84211390D01*
X64690286Y-84211390D02*
X64737905Y-84306628D01*
X64737905Y-84306628D02*
X64785524Y-84354247D01*
X64785524Y-84354247D02*
X64880762Y-84401866D01*
X64880762Y-84401866D02*
X65071238Y-84401866D01*
X65071238Y-84401866D02*
X65166476Y-84354247D01*
X65166476Y-84354247D02*
X65214095Y-84306628D01*
X65214095Y-84306628D02*
X65261714Y-84211390D01*
X37538819Y-48648857D02*
X37062628Y-48982190D01*
X37538819Y-49220285D02*
X36538819Y-49220285D01*
X36538819Y-49220285D02*
X36538819Y-48839333D01*
X36538819Y-48839333D02*
X36586438Y-48744095D01*
X36586438Y-48744095D02*
X36634057Y-48696476D01*
X36634057Y-48696476D02*
X36729295Y-48648857D01*
X36729295Y-48648857D02*
X36872152Y-48648857D01*
X36872152Y-48648857D02*
X36967390Y-48696476D01*
X36967390Y-48696476D02*
X37015009Y-48744095D01*
X37015009Y-48744095D02*
X37062628Y-48839333D01*
X37062628Y-48839333D02*
X37062628Y-49220285D01*
X36634057Y-48267904D02*
X36586438Y-48220285D01*
X36586438Y-48220285D02*
X36538819Y-48125047D01*
X36538819Y-48125047D02*
X36538819Y-47886952D01*
X36538819Y-47886952D02*
X36586438Y-47791714D01*
X36586438Y-47791714D02*
X36634057Y-47744095D01*
X36634057Y-47744095D02*
X36729295Y-47696476D01*
X36729295Y-47696476D02*
X36824533Y-47696476D01*
X36824533Y-47696476D02*
X36967390Y-47744095D01*
X36967390Y-47744095D02*
X37538819Y-48315523D01*
X37538819Y-48315523D02*
X37538819Y-47696476D01*
X36634057Y-47315523D02*
X36586438Y-47267904D01*
X36586438Y-47267904D02*
X36538819Y-47172666D01*
X36538819Y-47172666D02*
X36538819Y-46934571D01*
X36538819Y-46934571D02*
X36586438Y-46839333D01*
X36586438Y-46839333D02*
X36634057Y-46791714D01*
X36634057Y-46791714D02*
X36729295Y-46744095D01*
X36729295Y-46744095D02*
X36824533Y-46744095D01*
X36824533Y-46744095D02*
X36967390Y-46791714D01*
X36967390Y-46791714D02*
X37538819Y-47363142D01*
X37538819Y-47363142D02*
X37538819Y-46744095D01*
X44101142Y-89513580D02*
X44053523Y-89561200D01*
X44053523Y-89561200D02*
X43910666Y-89608819D01*
X43910666Y-89608819D02*
X43815428Y-89608819D01*
X43815428Y-89608819D02*
X43672571Y-89561200D01*
X43672571Y-89561200D02*
X43577333Y-89465961D01*
X43577333Y-89465961D02*
X43529714Y-89370723D01*
X43529714Y-89370723D02*
X43482095Y-89180247D01*
X43482095Y-89180247D02*
X43482095Y-89037390D01*
X43482095Y-89037390D02*
X43529714Y-88846914D01*
X43529714Y-88846914D02*
X43577333Y-88751676D01*
X43577333Y-88751676D02*
X43672571Y-88656438D01*
X43672571Y-88656438D02*
X43815428Y-88608819D01*
X43815428Y-88608819D02*
X43910666Y-88608819D01*
X43910666Y-88608819D02*
X44053523Y-88656438D01*
X44053523Y-88656438D02*
X44101142Y-88704057D01*
X45053523Y-89608819D02*
X44482095Y-89608819D01*
X44767809Y-89608819D02*
X44767809Y-88608819D01*
X44767809Y-88608819D02*
X44672571Y-88751676D01*
X44672571Y-88751676D02*
X44577333Y-88846914D01*
X44577333Y-88846914D02*
X44482095Y-88894533D01*
X45910666Y-88608819D02*
X45720190Y-88608819D01*
X45720190Y-88608819D02*
X45624952Y-88656438D01*
X45624952Y-88656438D02*
X45577333Y-88704057D01*
X45577333Y-88704057D02*
X45482095Y-88846914D01*
X45482095Y-88846914D02*
X45434476Y-89037390D01*
X45434476Y-89037390D02*
X45434476Y-89418342D01*
X45434476Y-89418342D02*
X45482095Y-89513580D01*
X45482095Y-89513580D02*
X45529714Y-89561200D01*
X45529714Y-89561200D02*
X45624952Y-89608819D01*
X45624952Y-89608819D02*
X45815428Y-89608819D01*
X45815428Y-89608819D02*
X45910666Y-89561200D01*
X45910666Y-89561200D02*
X45958285Y-89513580D01*
X45958285Y-89513580D02*
X46005904Y-89418342D01*
X46005904Y-89418342D02*
X46005904Y-89180247D01*
X46005904Y-89180247D02*
X45958285Y-89085009D01*
X45958285Y-89085009D02*
X45910666Y-89037390D01*
X45910666Y-89037390D02*
X45815428Y-88989771D01*
X45815428Y-88989771D02*
X45624952Y-88989771D01*
X45624952Y-88989771D02*
X45529714Y-89037390D01*
X45529714Y-89037390D02*
X45482095Y-89085009D01*
X45482095Y-89085009D02*
X45434476Y-89180247D01*
X60063142Y-55064819D02*
X59729809Y-54588628D01*
X59491714Y-55064819D02*
X59491714Y-54064819D01*
X59491714Y-54064819D02*
X59872666Y-54064819D01*
X59872666Y-54064819D02*
X59967904Y-54112438D01*
X59967904Y-54112438D02*
X60015523Y-54160057D01*
X60015523Y-54160057D02*
X60063142Y-54255295D01*
X60063142Y-54255295D02*
X60063142Y-54398152D01*
X60063142Y-54398152D02*
X60015523Y-54493390D01*
X60015523Y-54493390D02*
X59967904Y-54541009D01*
X59967904Y-54541009D02*
X59872666Y-54588628D01*
X59872666Y-54588628D02*
X59491714Y-54588628D01*
X60444095Y-54160057D02*
X60491714Y-54112438D01*
X60491714Y-54112438D02*
X60586952Y-54064819D01*
X60586952Y-54064819D02*
X60825047Y-54064819D01*
X60825047Y-54064819D02*
X60920285Y-54112438D01*
X60920285Y-54112438D02*
X60967904Y-54160057D01*
X60967904Y-54160057D02*
X61015523Y-54255295D01*
X61015523Y-54255295D02*
X61015523Y-54350533D01*
X61015523Y-54350533D02*
X60967904Y-54493390D01*
X60967904Y-54493390D02*
X60396476Y-55064819D01*
X60396476Y-55064819D02*
X61015523Y-55064819D01*
X61872666Y-54064819D02*
X61682190Y-54064819D01*
X61682190Y-54064819D02*
X61586952Y-54112438D01*
X61586952Y-54112438D02*
X61539333Y-54160057D01*
X61539333Y-54160057D02*
X61444095Y-54302914D01*
X61444095Y-54302914D02*
X61396476Y-54493390D01*
X61396476Y-54493390D02*
X61396476Y-54874342D01*
X61396476Y-54874342D02*
X61444095Y-54969580D01*
X61444095Y-54969580D02*
X61491714Y-55017200D01*
X61491714Y-55017200D02*
X61586952Y-55064819D01*
X61586952Y-55064819D02*
X61777428Y-55064819D01*
X61777428Y-55064819D02*
X61872666Y-55017200D01*
X61872666Y-55017200D02*
X61920285Y-54969580D01*
X61920285Y-54969580D02*
X61967904Y-54874342D01*
X61967904Y-54874342D02*
X61967904Y-54636247D01*
X61967904Y-54636247D02*
X61920285Y-54541009D01*
X61920285Y-54541009D02*
X61872666Y-54493390D01*
X61872666Y-54493390D02*
X61777428Y-54445771D01*
X61777428Y-54445771D02*
X61586952Y-54445771D01*
X61586952Y-54445771D02*
X61491714Y-54493390D01*
X61491714Y-54493390D02*
X61444095Y-54541009D01*
X61444095Y-54541009D02*
X61396476Y-54636247D01*
X69272485Y-100406190D02*
X69234390Y-100482380D01*
X69234390Y-100482380D02*
X69158200Y-100558571D01*
X69158200Y-100558571D02*
X69043914Y-100672857D01*
X69043914Y-100672857D02*
X69005819Y-100749047D01*
X69005819Y-100749047D02*
X69005819Y-100825238D01*
X69196295Y-100787142D02*
X69158200Y-100863333D01*
X69158200Y-100863333D02*
X69082009Y-100939523D01*
X69082009Y-100939523D02*
X68929628Y-100977619D01*
X68929628Y-100977619D02*
X68662961Y-100977619D01*
X68662961Y-100977619D02*
X68510580Y-100939523D01*
X68510580Y-100939523D02*
X68434390Y-100863333D01*
X68434390Y-100863333D02*
X68396295Y-100787142D01*
X68396295Y-100787142D02*
X68396295Y-100634761D01*
X68396295Y-100634761D02*
X68434390Y-100558571D01*
X68434390Y-100558571D02*
X68510580Y-100482380D01*
X68510580Y-100482380D02*
X68662961Y-100444285D01*
X68662961Y-100444285D02*
X68929628Y-100444285D01*
X68929628Y-100444285D02*
X69082009Y-100482380D01*
X69082009Y-100482380D02*
X69158200Y-100558571D01*
X69158200Y-100558571D02*
X69196295Y-100634761D01*
X69196295Y-100634761D02*
X69196295Y-100787142D01*
X68396295Y-99758571D02*
X68396295Y-99910952D01*
X68396295Y-99910952D02*
X68434390Y-99987143D01*
X68434390Y-99987143D02*
X68472485Y-100025238D01*
X68472485Y-100025238D02*
X68586771Y-100101428D01*
X68586771Y-100101428D02*
X68739152Y-100139524D01*
X68739152Y-100139524D02*
X69043914Y-100139524D01*
X69043914Y-100139524D02*
X69120104Y-100101428D01*
X69120104Y-100101428D02*
X69158200Y-100063333D01*
X69158200Y-100063333D02*
X69196295Y-99987143D01*
X69196295Y-99987143D02*
X69196295Y-99834762D01*
X69196295Y-99834762D02*
X69158200Y-99758571D01*
X69158200Y-99758571D02*
X69120104Y-99720476D01*
X69120104Y-99720476D02*
X69043914Y-99682381D01*
X69043914Y-99682381D02*
X68853438Y-99682381D01*
X68853438Y-99682381D02*
X68777247Y-99720476D01*
X68777247Y-99720476D02*
X68739152Y-99758571D01*
X68739152Y-99758571D02*
X68701057Y-99834762D01*
X68701057Y-99834762D02*
X68701057Y-99987143D01*
X68701057Y-99987143D02*
X68739152Y-100063333D01*
X68739152Y-100063333D02*
X68777247Y-100101428D01*
X68777247Y-100101428D02*
X68853438Y-100139524D01*
X71828819Y-119768857D02*
X71352628Y-120102190D01*
X71828819Y-120340285D02*
X70828819Y-120340285D01*
X70828819Y-120340285D02*
X70828819Y-119959333D01*
X70828819Y-119959333D02*
X70876438Y-119864095D01*
X70876438Y-119864095D02*
X70924057Y-119816476D01*
X70924057Y-119816476D02*
X71019295Y-119768857D01*
X71019295Y-119768857D02*
X71162152Y-119768857D01*
X71162152Y-119768857D02*
X71257390Y-119816476D01*
X71257390Y-119816476D02*
X71305009Y-119864095D01*
X71305009Y-119864095D02*
X71352628Y-119959333D01*
X71352628Y-119959333D02*
X71352628Y-120340285D01*
X71828819Y-118816476D02*
X71828819Y-119387904D01*
X71828819Y-119102190D02*
X70828819Y-119102190D01*
X70828819Y-119102190D02*
X70971676Y-119197428D01*
X70971676Y-119197428D02*
X71066914Y-119292666D01*
X71066914Y-119292666D02*
X71114533Y-119387904D01*
X70828819Y-117959333D02*
X70828819Y-118149809D01*
X70828819Y-118149809D02*
X70876438Y-118245047D01*
X70876438Y-118245047D02*
X70924057Y-118292666D01*
X70924057Y-118292666D02*
X71066914Y-118387904D01*
X71066914Y-118387904D02*
X71257390Y-118435523D01*
X71257390Y-118435523D02*
X71638342Y-118435523D01*
X71638342Y-118435523D02*
X71733580Y-118387904D01*
X71733580Y-118387904D02*
X71781200Y-118340285D01*
X71781200Y-118340285D02*
X71828819Y-118245047D01*
X71828819Y-118245047D02*
X71828819Y-118054571D01*
X71828819Y-118054571D02*
X71781200Y-117959333D01*
X71781200Y-117959333D02*
X71733580Y-117911714D01*
X71733580Y-117911714D02*
X71638342Y-117864095D01*
X71638342Y-117864095D02*
X71400247Y-117864095D01*
X71400247Y-117864095D02*
X71305009Y-117911714D01*
X71305009Y-117911714D02*
X71257390Y-117959333D01*
X71257390Y-117959333D02*
X71209771Y-118054571D01*
X71209771Y-118054571D02*
X71209771Y-118245047D01*
X71209771Y-118245047D02*
X71257390Y-118340285D01*
X71257390Y-118340285D02*
X71305009Y-118387904D01*
X71305009Y-118387904D02*
X71400247Y-118435523D01*
X71828819Y-95162666D02*
X71352628Y-95495999D01*
X71828819Y-95734094D02*
X70828819Y-95734094D01*
X70828819Y-95734094D02*
X70828819Y-95353142D01*
X70828819Y-95353142D02*
X70876438Y-95257904D01*
X70876438Y-95257904D02*
X70924057Y-95210285D01*
X70924057Y-95210285D02*
X71019295Y-95162666D01*
X71019295Y-95162666D02*
X71162152Y-95162666D01*
X71162152Y-95162666D02*
X71257390Y-95210285D01*
X71257390Y-95210285D02*
X71305009Y-95257904D01*
X71305009Y-95257904D02*
X71352628Y-95353142D01*
X71352628Y-95353142D02*
X71352628Y-95734094D01*
X70828819Y-94257904D02*
X70828819Y-94734094D01*
X70828819Y-94734094D02*
X71305009Y-94781713D01*
X71305009Y-94781713D02*
X71257390Y-94734094D01*
X71257390Y-94734094D02*
X71209771Y-94638856D01*
X71209771Y-94638856D02*
X71209771Y-94400761D01*
X71209771Y-94400761D02*
X71257390Y-94305523D01*
X71257390Y-94305523D02*
X71305009Y-94257904D01*
X71305009Y-94257904D02*
X71400247Y-94210285D01*
X71400247Y-94210285D02*
X71638342Y-94210285D01*
X71638342Y-94210285D02*
X71733580Y-94257904D01*
X71733580Y-94257904D02*
X71781200Y-94305523D01*
X71781200Y-94305523D02*
X71828819Y-94400761D01*
X71828819Y-94400761D02*
X71828819Y-94638856D01*
X71828819Y-94638856D02*
X71781200Y-94734094D01*
X71781200Y-94734094D02*
X71733580Y-94781713D01*
X71828819Y-84494666D02*
X71352628Y-84827999D01*
X71828819Y-85066094D02*
X70828819Y-85066094D01*
X70828819Y-85066094D02*
X70828819Y-84685142D01*
X70828819Y-84685142D02*
X70876438Y-84589904D01*
X70876438Y-84589904D02*
X70924057Y-84542285D01*
X70924057Y-84542285D02*
X71019295Y-84494666D01*
X71019295Y-84494666D02*
X71162152Y-84494666D01*
X71162152Y-84494666D02*
X71257390Y-84542285D01*
X71257390Y-84542285D02*
X71305009Y-84589904D01*
X71305009Y-84589904D02*
X71352628Y-84685142D01*
X71352628Y-84685142D02*
X71352628Y-85066094D01*
X71828819Y-84018475D02*
X71828819Y-83827999D01*
X71828819Y-83827999D02*
X71781200Y-83732761D01*
X71781200Y-83732761D02*
X71733580Y-83685142D01*
X71733580Y-83685142D02*
X71590723Y-83589904D01*
X71590723Y-83589904D02*
X71400247Y-83542285D01*
X71400247Y-83542285D02*
X71019295Y-83542285D01*
X71019295Y-83542285D02*
X70924057Y-83589904D01*
X70924057Y-83589904D02*
X70876438Y-83637523D01*
X70876438Y-83637523D02*
X70828819Y-83732761D01*
X70828819Y-83732761D02*
X70828819Y-83923237D01*
X70828819Y-83923237D02*
X70876438Y-84018475D01*
X70876438Y-84018475D02*
X70924057Y-84066094D01*
X70924057Y-84066094D02*
X71019295Y-84113713D01*
X71019295Y-84113713D02*
X71257390Y-84113713D01*
X71257390Y-84113713D02*
X71352628Y-84066094D01*
X71352628Y-84066094D02*
X71400247Y-84018475D01*
X71400247Y-84018475D02*
X71447866Y-83923237D01*
X71447866Y-83923237D02*
X71447866Y-83732761D01*
X71447866Y-83732761D02*
X71400247Y-83637523D01*
X71400247Y-83637523D02*
X71352628Y-83589904D01*
X71352628Y-83589904D02*
X71257390Y-83542285D01*
X35411580Y-170020857D02*
X35459200Y-170068476D01*
X35459200Y-170068476D02*
X35506819Y-170211333D01*
X35506819Y-170211333D02*
X35506819Y-170306571D01*
X35506819Y-170306571D02*
X35459200Y-170449428D01*
X35459200Y-170449428D02*
X35363961Y-170544666D01*
X35363961Y-170544666D02*
X35268723Y-170592285D01*
X35268723Y-170592285D02*
X35078247Y-170639904D01*
X35078247Y-170639904D02*
X34935390Y-170639904D01*
X34935390Y-170639904D02*
X34744914Y-170592285D01*
X34744914Y-170592285D02*
X34649676Y-170544666D01*
X34649676Y-170544666D02*
X34554438Y-170449428D01*
X34554438Y-170449428D02*
X34506819Y-170306571D01*
X34506819Y-170306571D02*
X34506819Y-170211333D01*
X34506819Y-170211333D02*
X34554438Y-170068476D01*
X34554438Y-170068476D02*
X34602057Y-170020857D01*
X35506819Y-169068476D02*
X35506819Y-169639904D01*
X35506819Y-169354190D02*
X34506819Y-169354190D01*
X34506819Y-169354190D02*
X34649676Y-169449428D01*
X34649676Y-169449428D02*
X34744914Y-169544666D01*
X34744914Y-169544666D02*
X34792533Y-169639904D01*
X34935390Y-168497047D02*
X34887771Y-168592285D01*
X34887771Y-168592285D02*
X34840152Y-168639904D01*
X34840152Y-168639904D02*
X34744914Y-168687523D01*
X34744914Y-168687523D02*
X34697295Y-168687523D01*
X34697295Y-168687523D02*
X34602057Y-168639904D01*
X34602057Y-168639904D02*
X34554438Y-168592285D01*
X34554438Y-168592285D02*
X34506819Y-168497047D01*
X34506819Y-168497047D02*
X34506819Y-168306571D01*
X34506819Y-168306571D02*
X34554438Y-168211333D01*
X34554438Y-168211333D02*
X34602057Y-168163714D01*
X34602057Y-168163714D02*
X34697295Y-168116095D01*
X34697295Y-168116095D02*
X34744914Y-168116095D01*
X34744914Y-168116095D02*
X34840152Y-168163714D01*
X34840152Y-168163714D02*
X34887771Y-168211333D01*
X34887771Y-168211333D02*
X34935390Y-168306571D01*
X34935390Y-168306571D02*
X34935390Y-168497047D01*
X34935390Y-168497047D02*
X34983009Y-168592285D01*
X34983009Y-168592285D02*
X35030628Y-168639904D01*
X35030628Y-168639904D02*
X35125866Y-168687523D01*
X35125866Y-168687523D02*
X35316342Y-168687523D01*
X35316342Y-168687523D02*
X35411580Y-168639904D01*
X35411580Y-168639904D02*
X35459200Y-168592285D01*
X35459200Y-168592285D02*
X35506819Y-168497047D01*
X35506819Y-168497047D02*
X35506819Y-168306571D01*
X35506819Y-168306571D02*
X35459200Y-168211333D01*
X35459200Y-168211333D02*
X35411580Y-168163714D01*
X35411580Y-168163714D02*
X35316342Y-168116095D01*
X35316342Y-168116095D02*
X35125866Y-168116095D01*
X35125866Y-168116095D02*
X35030628Y-168163714D01*
X35030628Y-168163714D02*
X34983009Y-168211333D01*
X34983009Y-168211333D02*
X34935390Y-168306571D01*
X44396819Y-108338857D02*
X43920628Y-108672190D01*
X44396819Y-108910285D02*
X43396819Y-108910285D01*
X43396819Y-108910285D02*
X43396819Y-108529333D01*
X43396819Y-108529333D02*
X43444438Y-108434095D01*
X43444438Y-108434095D02*
X43492057Y-108386476D01*
X43492057Y-108386476D02*
X43587295Y-108338857D01*
X43587295Y-108338857D02*
X43730152Y-108338857D01*
X43730152Y-108338857D02*
X43825390Y-108386476D01*
X43825390Y-108386476D02*
X43873009Y-108434095D01*
X43873009Y-108434095D02*
X43920628Y-108529333D01*
X43920628Y-108529333D02*
X43920628Y-108910285D01*
X43492057Y-107957904D02*
X43444438Y-107910285D01*
X43444438Y-107910285D02*
X43396819Y-107815047D01*
X43396819Y-107815047D02*
X43396819Y-107576952D01*
X43396819Y-107576952D02*
X43444438Y-107481714D01*
X43444438Y-107481714D02*
X43492057Y-107434095D01*
X43492057Y-107434095D02*
X43587295Y-107386476D01*
X43587295Y-107386476D02*
X43682533Y-107386476D01*
X43682533Y-107386476D02*
X43825390Y-107434095D01*
X43825390Y-107434095D02*
X44396819Y-108005523D01*
X44396819Y-108005523D02*
X44396819Y-107386476D01*
X43825390Y-106815047D02*
X43777771Y-106910285D01*
X43777771Y-106910285D02*
X43730152Y-106957904D01*
X43730152Y-106957904D02*
X43634914Y-107005523D01*
X43634914Y-107005523D02*
X43587295Y-107005523D01*
X43587295Y-107005523D02*
X43492057Y-106957904D01*
X43492057Y-106957904D02*
X43444438Y-106910285D01*
X43444438Y-106910285D02*
X43396819Y-106815047D01*
X43396819Y-106815047D02*
X43396819Y-106624571D01*
X43396819Y-106624571D02*
X43444438Y-106529333D01*
X43444438Y-106529333D02*
X43492057Y-106481714D01*
X43492057Y-106481714D02*
X43587295Y-106434095D01*
X43587295Y-106434095D02*
X43634914Y-106434095D01*
X43634914Y-106434095D02*
X43730152Y-106481714D01*
X43730152Y-106481714D02*
X43777771Y-106529333D01*
X43777771Y-106529333D02*
X43825390Y-106624571D01*
X43825390Y-106624571D02*
X43825390Y-106815047D01*
X43825390Y-106815047D02*
X43873009Y-106910285D01*
X43873009Y-106910285D02*
X43920628Y-106957904D01*
X43920628Y-106957904D02*
X44015866Y-107005523D01*
X44015866Y-107005523D02*
X44206342Y-107005523D01*
X44206342Y-107005523D02*
X44301580Y-106957904D01*
X44301580Y-106957904D02*
X44349200Y-106910285D01*
X44349200Y-106910285D02*
X44396819Y-106815047D01*
X44396819Y-106815047D02*
X44396819Y-106624571D01*
X44396819Y-106624571D02*
X44349200Y-106529333D01*
X44349200Y-106529333D02*
X44301580Y-106481714D01*
X44301580Y-106481714D02*
X44206342Y-106434095D01*
X44206342Y-106434095D02*
X44015866Y-106434095D01*
X44015866Y-106434095D02*
X43920628Y-106481714D01*
X43920628Y-106481714D02*
X43873009Y-106529333D01*
X43873009Y-106529333D02*
X43825390Y-106624571D01*
D11*
%TO.C,RV5*%
X41647000Y-115804000D02*
X41647000Y-110754000D01*
X51397000Y-110754000D02*
X41647000Y-110754000D01*
X51397000Y-115804000D02*
X41647000Y-115804000D01*
X51397000Y-115804000D02*
X51397000Y-110754000D01*
%TO.C,R14*%
X56896000Y-111538000D02*
X56896000Y-118078000D01*
X58928000Y-111538000D02*
X58928000Y-118078000D01*
%TO.C,R8*%
X33560000Y-133096000D02*
X40100000Y-133096000D01*
X33560000Y-135128000D02*
X40100000Y-135128000D01*
%TO.C,Q7*%
X60020000Y-87862000D02*
X60020000Y-91462000D01*
X60020000Y-87862000D02*
G75*
G02*
X60747205Y-87337816I1849994J-1799991D01*
G01*
X60747205Y-91986184D02*
G75*
G02*
X60020000Y-91462000I1122795J2324184D01*
G01*
X62968807Y-87305600D02*
G75*
G02*
X64470000Y-89662000I-1098809J-2356402D01*
G01*
X64470000Y-89662000D02*
G75*
G02*
X62968807Y-92018400I-2600000J0D01*
G01*
%TO.C,R20*%
X40664000Y-52324000D02*
X41434000Y-52324000D01*
X41434000Y-51308000D02*
X41434000Y-53340000D01*
X41434000Y-53340000D02*
X47974000Y-53340000D01*
X47974000Y-51308000D02*
X41434000Y-51308000D01*
X47974000Y-53340000D02*
X47974000Y-51308000D01*
X48744000Y-52324000D02*
X47974000Y-52324000D01*
D12*
%TO.C,R18*%
X38608000Y-114300000D02*
X38608000Y-117856000D01*
X40640000Y-114300000D02*
X40640000Y-117856000D01*
D11*
%TO.C,C15*%
X27622000Y-101700000D02*
X27622000Y-98960000D01*
X34862000Y-98960000D02*
X27622000Y-98960000D01*
X34862000Y-101700000D02*
X27622000Y-101700000D01*
X34862000Y-101700000D02*
X34862000Y-98960000D01*
%TO.C,U1*%
X40930000Y-138375000D02*
X40930000Y-156275000D01*
X40930000Y-156275000D02*
X45430000Y-156275000D01*
X42180000Y-138375000D02*
X40930000Y-138375000D01*
X45430000Y-138375000D02*
X44180000Y-138375000D01*
X45430000Y-156275000D02*
X45430000Y-138375000D01*
X37930000Y-138315000D02*
X48430000Y-138315000D01*
X48430000Y-156335000D01*
X37930000Y-156335000D01*
X37930000Y-138315000D01*
X44180000Y-138375000D02*
G75*
G02*
X42180000Y-138375000I-1000000J0D01*
G01*
D12*
%TO.C,R6*%
X45466000Y-134620000D02*
X45466000Y-131064000D01*
X47498000Y-134620000D02*
X47498000Y-131064000D01*
%TO.C,R12*%
X70358000Y-110236000D02*
X70358000Y-109220000D01*
X72390000Y-110236000D02*
X72390000Y-109220000D01*
D11*
%TO.C,Q5*%
X60020000Y-98530000D02*
X60020000Y-102130000D01*
X60020000Y-98530000D02*
G75*
G02*
X60747205Y-98005816I1849994J-1799991D01*
G01*
X60747205Y-102654184D02*
G75*
G02*
X60020000Y-102130000I1122795J2324184D01*
G01*
X62968807Y-97973600D02*
G75*
G02*
X64470000Y-100330000I-1098809J-2356402D01*
G01*
X64470000Y-100330000D02*
G75*
G02*
X62968807Y-102686400I-2600000J0D01*
G01*
%TO.C,C1*%
X26098000Y-174652000D02*
X26098000Y-177392000D01*
X26098000Y-174652000D02*
X33338000Y-174652000D01*
X26098000Y-177392000D02*
X33338000Y-177392000D01*
X33338000Y-174652000D02*
X33338000Y-177392000D01*
%TO.C,Q4*%
X65206000Y-109198000D02*
X65206000Y-112798000D01*
X65206000Y-109198000D02*
G75*
G02*
X65933205Y-108673816I1849994J-1799991D01*
G01*
X65933205Y-113322184D02*
G75*
G02*
X65206000Y-112798000I1122795J2324184D01*
G01*
X68154807Y-108641600D02*
G75*
G02*
X69656000Y-110998000I-1098809J-2356402D01*
G01*
X69656000Y-110998000D02*
G75*
G02*
X68154807Y-113354400I-2600000J0D01*
G01*
%TO.C,C14*%
X43878000Y-117248000D02*
X43878000Y-119988000D01*
X43878000Y-117248000D02*
X51118000Y-117248000D01*
X43878000Y-119988000D02*
X51118000Y-119988000D01*
X51118000Y-117248000D02*
X51118000Y-119988000D01*
D12*
%TO.C,R11*%
X70358000Y-66037500D02*
X70358000Y-65021500D01*
X72390000Y-66037500D02*
X72390000Y-65021500D01*
D11*
%TO.C,Q2*%
X37770000Y-130070000D02*
X37770000Y-126470000D01*
X33320000Y-128270000D02*
G75*
G02*
X34821193Y-125913600I2600000J0D01*
G01*
X34821193Y-130626400D02*
G75*
G02*
X33320000Y-128270000I1098809J2356402D01*
G01*
X37042795Y-125945816D02*
G75*
G02*
X37770000Y-126470000I-1122795J-2324184D01*
G01*
X37770000Y-130070000D02*
G75*
G02*
X37042795Y-130594184I-1849994J1799991D01*
G01*
%TO.C,R21*%
X40664000Y-55118000D02*
X41434000Y-55118000D01*
X41434000Y-54102000D02*
X41434000Y-56134000D01*
X41434000Y-56134000D02*
X47974000Y-56134000D01*
X47974000Y-54102000D02*
X41434000Y-54102000D01*
X47974000Y-56134000D02*
X47974000Y-54102000D01*
X48744000Y-55118000D02*
X47974000Y-55118000D01*
%TO.C,R27*%
X33806000Y-62230000D02*
X34576000Y-62230000D01*
X34576000Y-61214000D02*
X34576000Y-63246000D01*
X34576000Y-63246000D02*
X41116000Y-63246000D01*
X41116000Y-61214000D02*
X34576000Y-61214000D01*
X41116000Y-63246000D02*
X41116000Y-61214000D01*
X41886000Y-62230000D02*
X41116000Y-62230000D01*
%TO.C,Q1*%
X38790000Y-126470000D02*
X38790000Y-130070000D01*
X38790000Y-126470000D02*
G75*
G02*
X39517205Y-125945816I1849994J-1799991D01*
G01*
X39517205Y-130594184D02*
G75*
G02*
X38790000Y-130070000I1122795J2324184D01*
G01*
X41738807Y-125913600D02*
G75*
G02*
X43240000Y-128270000I-1098809J-2356402D01*
G01*
X43240000Y-128270000D02*
G75*
G02*
X41738807Y-130626400I-2600000J0D01*
G01*
%TO.C,C3*%
X27622000Y-148690000D02*
X27622000Y-145950000D01*
X34862000Y-145950000D02*
X27622000Y-145950000D01*
X34862000Y-148690000D02*
X27622000Y-148690000D01*
X34862000Y-148690000D02*
X34862000Y-145950000D01*
%TO.C,C10*%
X60896000Y-75030000D02*
X60896000Y-72290000D01*
X68136000Y-72290000D02*
X60896000Y-72290000D01*
X68136000Y-75030000D02*
X60896000Y-75030000D01*
X68136000Y-75030000D02*
X68136000Y-72290000D01*
%TO.C,C5*%
X31650000Y-136120000D02*
X31650000Y-143360000D01*
X34390000Y-136120000D02*
X31650000Y-136120000D01*
X34390000Y-136120000D02*
X34390000Y-143360000D01*
X34390000Y-143360000D02*
X31650000Y-143360000D01*
D12*
%TO.C,R17*%
X34800500Y-91694000D02*
X35816500Y-91694000D01*
X34800500Y-93726000D02*
X35816500Y-93726000D01*
D11*
%TO.C,Q3*%
X64186000Y-112798000D02*
X64186000Y-109198000D01*
X59736000Y-110998000D02*
G75*
G02*
X61237193Y-108641600I2600000J0D01*
G01*
X61237193Y-113354400D02*
G75*
G02*
X59736000Y-110998000I1098809J2356402D01*
G01*
X63458795Y-108673816D02*
G75*
G02*
X64186000Y-109198000I-1122795J-2324184D01*
G01*
X64186000Y-112798000D02*
G75*
G02*
X63458795Y-113322184I-1849994J1799991D01*
G01*
%TO.C,U3*%
X43724000Y-32711000D02*
X43724000Y-50611000D01*
X43724000Y-50611000D02*
X48224000Y-50611000D01*
X44974000Y-32711000D02*
X43724000Y-32711000D01*
X48224000Y-32711000D02*
X46974000Y-32711000D01*
X48224000Y-50611000D02*
X48224000Y-32711000D01*
X40724000Y-32651000D02*
X51224000Y-32651000D01*
X51224000Y-50671000D01*
X40724000Y-50671000D01*
X40724000Y-32651000D01*
X46974000Y-32711000D02*
G75*
G02*
X44974000Y-32711000I-1000000J0D01*
G01*
%TO.C,C6*%
X38762000Y-166012000D02*
X41502000Y-166012000D01*
X38762000Y-173252000D02*
X38762000Y-166012000D01*
X38762000Y-173252000D02*
X41502000Y-173252000D01*
X41502000Y-173252000D02*
X41502000Y-166012000D01*
%TO.C,R23*%
X29242000Y-54102000D02*
X35782000Y-54102000D01*
X29242000Y-56134000D02*
X35782000Y-56134000D01*
%TO.C,R1*%
X52348000Y-176530000D02*
X53118000Y-176530000D01*
X53118000Y-175514000D02*
X53118000Y-177546000D01*
X53118000Y-177546000D02*
X59658000Y-177546000D01*
X59658000Y-175514000D02*
X53118000Y-175514000D01*
X59658000Y-177546000D02*
X59658000Y-175514000D01*
X60428000Y-176530000D02*
X59658000Y-176530000D01*
%TO.C,Q12*%
X65354000Y-66526000D02*
X65354000Y-70126000D01*
X65354000Y-66526000D02*
G75*
G02*
X66081205Y-66001816I1849994J-1799991D01*
G01*
X66081205Y-70650184D02*
G75*
G02*
X65354000Y-70126000I1122795J2324184D01*
G01*
X68302807Y-65969600D02*
G75*
G02*
X69804000Y-68326000I-1098809J-2356402D01*
G01*
X69804000Y-68326000D02*
G75*
G02*
X68302807Y-70682400I-2600000J0D01*
G01*
%TO.C,RV4*%
X48270000Y-127967000D02*
X48270000Y-137717000D01*
X53320000Y-127967000D02*
X48270000Y-127967000D01*
X53320000Y-127967000D02*
X53320000Y-137717000D01*
X53320000Y-137717000D02*
X48270000Y-137717000D01*
%TO.C,RV6*%
X44909000Y-28682000D02*
X44909000Y-23632000D01*
X54659000Y-23632000D02*
X44909000Y-23632000D01*
X54659000Y-28682000D02*
X44909000Y-28682000D01*
X54659000Y-28682000D02*
X54659000Y-23632000D01*
%TO.C,R2*%
X52324000Y-144050000D02*
X52324000Y-150590000D01*
X52324000Y-150590000D02*
X54356000Y-150590000D01*
X53340000Y-143280000D02*
X53340000Y-144050000D01*
X53340000Y-151360000D02*
X53340000Y-150590000D01*
X54356000Y-144050000D02*
X52324000Y-144050000D01*
X54356000Y-150590000D02*
X54356000Y-144050000D01*
%TO.C,Q11*%
X60020000Y-66526000D02*
X60020000Y-70126000D01*
X60020000Y-66526000D02*
G75*
G02*
X60747205Y-66001816I1849994J-1799991D01*
G01*
X60747205Y-70650184D02*
G75*
G02*
X60020000Y-70126000I1122795J2324184D01*
G01*
X62968807Y-65969600D02*
G75*
G02*
X64470000Y-68326000I-1098809J-2356402D01*
G01*
X64470000Y-68326000D02*
G75*
G02*
X62968807Y-70682400I-2600000J0D01*
G01*
D12*
%TO.C,R4*%
X49530000Y-153162000D02*
X49530000Y-154178000D01*
X51562000Y-153162000D02*
X51562000Y-154178000D01*
D11*
%TO.C,U2*%
X32472000Y-160306000D02*
X32472000Y-164947000D01*
X32472000Y-160306000D02*
X42712000Y-160306000D01*
X32472000Y-161816000D02*
X42712000Y-161816000D01*
X32472000Y-164947000D02*
X42712000Y-164947000D01*
X35742000Y-160306000D02*
X35742000Y-161816000D01*
X39443000Y-160306000D02*
X39443000Y-161816000D01*
X42712000Y-160306000D02*
X42712000Y-164947000D01*
%TO.C,R7*%
X35306000Y-144050000D02*
X35306000Y-150590000D01*
X35306000Y-150590000D02*
X37338000Y-150590000D01*
X36322000Y-143280000D02*
X36322000Y-144050000D01*
X36322000Y-151360000D02*
X36322000Y-150590000D01*
X37338000Y-144050000D02*
X35306000Y-144050000D01*
X37338000Y-150590000D02*
X37338000Y-144050000D01*
%TO.C,C12*%
X29694000Y-43026000D02*
X29694000Y-40286000D01*
X36934000Y-40286000D02*
X29694000Y-40286000D01*
X36934000Y-43026000D02*
X29694000Y-43026000D01*
X36934000Y-43026000D02*
X36934000Y-40286000D01*
%TO.C,C8*%
X60896000Y-96366000D02*
X60896000Y-93626000D01*
X68136000Y-93626000D02*
X60896000Y-93626000D01*
X68136000Y-96366000D02*
X60896000Y-96366000D01*
X68136000Y-96366000D02*
X68136000Y-93626000D01*
%TO.C,C11*%
X61198000Y-119970000D02*
X69358000Y-119970000D01*
X61198000Y-120010000D02*
X69358000Y-120010000D01*
X61199000Y-119930000D02*
X69357000Y-119930000D01*
X61200000Y-119890000D02*
X69356000Y-119890000D01*
X61201000Y-119850000D02*
X69355000Y-119850000D01*
X61203000Y-119810000D02*
X69353000Y-119810000D01*
X61205000Y-119770000D02*
X69351000Y-119770000D01*
X61208000Y-119730000D02*
X69348000Y-119730000D01*
X61210000Y-119690000D02*
X69346000Y-119690000D01*
X61214000Y-119650000D02*
X69342000Y-119650000D01*
X61217000Y-119610000D02*
X69339000Y-119610000D01*
X61222000Y-119570000D02*
X69334000Y-119570000D01*
X61226000Y-119530000D02*
X69330000Y-119530000D01*
X61231000Y-119490000D02*
X69325000Y-119490000D01*
X61236000Y-119450000D02*
X69320000Y-119450000D01*
X61242000Y-119410000D02*
X69314000Y-119410000D01*
X61248000Y-119370000D02*
X69308000Y-119370000D01*
X61255000Y-119330000D02*
X69301000Y-119330000D01*
X61261000Y-119290000D02*
X69295000Y-119290000D01*
X61269000Y-119250000D02*
X69287000Y-119250000D01*
X61276000Y-119210000D02*
X69280000Y-119210000D01*
X61285000Y-119170000D02*
X69271000Y-119170000D01*
X61293000Y-119130000D02*
X64238000Y-119130000D01*
X61302000Y-119090000D02*
X64238000Y-119090000D01*
X61311000Y-119050000D02*
X64238000Y-119050000D01*
X61321000Y-119010000D02*
X64238000Y-119010000D01*
X61331000Y-118970000D02*
X64238000Y-118970000D01*
X61342000Y-118930000D02*
X64238000Y-118930000D01*
X61353000Y-118890000D02*
X64238000Y-118890000D01*
X61365000Y-118850000D02*
X64238000Y-118850000D01*
X61377000Y-118810000D02*
X64238000Y-118810000D01*
X61389000Y-118770000D02*
X64238000Y-118770000D01*
X61402000Y-118730000D02*
X64238000Y-118730000D01*
X61415000Y-118690000D02*
X64238000Y-118690000D01*
X61429000Y-118650000D02*
X64238000Y-118650000D01*
X61443000Y-118610000D02*
X64238000Y-118610000D01*
X61458000Y-118570000D02*
X64238000Y-118570000D01*
X61473000Y-118530000D02*
X64238000Y-118530000D01*
X61489000Y-118490000D02*
X64238000Y-118490000D01*
X61505000Y-118450000D02*
X64238000Y-118450000D01*
X61521000Y-118410000D02*
X64238000Y-118410000D01*
X61538000Y-118370000D02*
X64238000Y-118370000D01*
X61556000Y-118330000D02*
X64238000Y-118330000D01*
X61574000Y-118290000D02*
X64238000Y-118290000D01*
X61593000Y-118250000D02*
X64238000Y-118250000D01*
X61612000Y-118210000D02*
X64238000Y-118210000D01*
X61632000Y-118170000D02*
X64238000Y-118170000D01*
X61652000Y-118130000D02*
X64238000Y-118130000D01*
X61673000Y-118090000D02*
X64238000Y-118090000D01*
X61694000Y-118050000D02*
X64238000Y-118050000D01*
X61716000Y-118010000D02*
X64238000Y-118010000D01*
X61739000Y-117970000D02*
X64238000Y-117970000D01*
X61762000Y-117930000D02*
X64238000Y-117930000D01*
X61785000Y-117890000D02*
X64238000Y-117890000D01*
X61810000Y-117850000D02*
X64238000Y-117850000D01*
X61835000Y-117810000D02*
X64238000Y-117810000D01*
X61860000Y-117770000D02*
X64238000Y-117770000D01*
X61886000Y-117730000D02*
X64238000Y-117730000D01*
X61913000Y-117690000D02*
X64238000Y-117690000D01*
X61941000Y-117650000D02*
X64238000Y-117650000D01*
X61969000Y-117610000D02*
X64238000Y-117610000D01*
X61998000Y-117570000D02*
X64238000Y-117570000D01*
X62028000Y-117530000D02*
X64238000Y-117530000D01*
X62059000Y-117490000D02*
X64238000Y-117490000D01*
X62090000Y-117450000D02*
X64238000Y-117450000D01*
X62122000Y-117410000D02*
X64238000Y-117410000D01*
X62155000Y-117370000D02*
X64238000Y-117370000D01*
X62189000Y-117330000D02*
X64238000Y-117330000D01*
X62223000Y-117290000D02*
X64238000Y-117290000D01*
X62259000Y-117250000D02*
X64238000Y-117250000D01*
X62296000Y-117210000D02*
X64238000Y-117210000D01*
X62333000Y-117170000D02*
X64238000Y-117170000D01*
X62372000Y-117130000D02*
X64238000Y-117130000D01*
X62411000Y-117090000D02*
X64238000Y-117090000D01*
X62452000Y-117050000D02*
X68104000Y-117050000D01*
X62494000Y-117010000D02*
X68062000Y-117010000D01*
X62537000Y-116970000D02*
X68019000Y-116970000D01*
X62582000Y-116930000D02*
X67974000Y-116930000D01*
X62627000Y-116890000D02*
X67929000Y-116890000D01*
X62674000Y-116850000D02*
X67882000Y-116850000D01*
X62723000Y-116810000D02*
X67833000Y-116810000D01*
X62773000Y-116770000D02*
X67783000Y-116770000D01*
X62825000Y-116730000D02*
X67731000Y-116730000D01*
X62878000Y-116690000D02*
X67678000Y-116690000D01*
X62934000Y-116650000D02*
X67622000Y-116650000D01*
X62991000Y-116610000D02*
X67565000Y-116610000D01*
X63051000Y-116570000D02*
X67505000Y-116570000D01*
X63113000Y-116530000D02*
X67443000Y-116530000D01*
X63177000Y-116490000D02*
X67379000Y-116490000D01*
X63244000Y-116450000D02*
X67312000Y-116450000D01*
X63314000Y-116410000D02*
X67242000Y-116410000D01*
X63388000Y-116370000D02*
X67168000Y-116370000D01*
X63465000Y-116330000D02*
X67091000Y-116330000D01*
X63547000Y-116290000D02*
X67009000Y-116290000D01*
X63634000Y-116250000D02*
X66922000Y-116250000D01*
X63726000Y-116210000D02*
X66830000Y-116210000D01*
X63825000Y-116170000D02*
X66731000Y-116170000D01*
X63932000Y-116130000D02*
X66624000Y-116130000D01*
X64050000Y-116090000D02*
X66506000Y-116090000D01*
X64181000Y-116050000D02*
X66375000Y-116050000D01*
X64331000Y-116010000D02*
X66225000Y-116010000D01*
X64510000Y-115970000D02*
X66046000Y-115970000D01*
X64745000Y-115930000D02*
X65811000Y-115930000D01*
X66318000Y-117090000D02*
X68145000Y-117090000D01*
X66318000Y-117130000D02*
X68184000Y-117130000D01*
X66318000Y-117170000D02*
X68223000Y-117170000D01*
X66318000Y-117210000D02*
X68260000Y-117210000D01*
X66318000Y-117250000D02*
X68297000Y-117250000D01*
X66318000Y-117290000D02*
X68333000Y-117290000D01*
X66318000Y-117330000D02*
X68367000Y-117330000D01*
X66318000Y-117370000D02*
X68401000Y-117370000D01*
X66318000Y-117410000D02*
X68434000Y-117410000D01*
X66318000Y-117450000D02*
X68466000Y-117450000D01*
X66318000Y-117490000D02*
X68497000Y-117490000D01*
X66318000Y-117530000D02*
X68528000Y-117530000D01*
X66318000Y-117570000D02*
X68558000Y-117570000D01*
X66318000Y-117610000D02*
X68587000Y-117610000D01*
X66318000Y-117650000D02*
X68615000Y-117650000D01*
X66318000Y-117690000D02*
X68643000Y-117690000D01*
X66318000Y-117730000D02*
X68670000Y-117730000D01*
X66318000Y-117770000D02*
X68696000Y-117770000D01*
X66318000Y-117810000D02*
X68721000Y-117810000D01*
X66318000Y-117850000D02*
X68746000Y-117850000D01*
X66318000Y-117890000D02*
X68771000Y-117890000D01*
X66318000Y-117930000D02*
X68794000Y-117930000D01*
X66318000Y-117970000D02*
X68817000Y-117970000D01*
X66318000Y-118010000D02*
X68840000Y-118010000D01*
X66318000Y-118050000D02*
X68862000Y-118050000D01*
X66318000Y-118090000D02*
X68883000Y-118090000D01*
X66318000Y-118130000D02*
X68904000Y-118130000D01*
X66318000Y-118170000D02*
X68924000Y-118170000D01*
X66318000Y-118210000D02*
X68944000Y-118210000D01*
X66318000Y-118250000D02*
X68963000Y-118250000D01*
X66318000Y-118290000D02*
X68982000Y-118290000D01*
X66318000Y-118330000D02*
X69000000Y-118330000D01*
X66318000Y-118370000D02*
X69018000Y-118370000D01*
X66318000Y-118410000D02*
X69035000Y-118410000D01*
X66318000Y-118450000D02*
X69051000Y-118450000D01*
X66318000Y-118490000D02*
X69067000Y-118490000D01*
X66318000Y-118530000D02*
X69083000Y-118530000D01*
X66318000Y-118570000D02*
X69098000Y-118570000D01*
X66318000Y-118610000D02*
X69113000Y-118610000D01*
X66318000Y-118650000D02*
X69127000Y-118650000D01*
X66318000Y-118690000D02*
X69141000Y-118690000D01*
X66318000Y-118730000D02*
X69154000Y-118730000D01*
X66318000Y-118770000D02*
X69167000Y-118770000D01*
X66318000Y-118810000D02*
X69179000Y-118810000D01*
X66318000Y-118850000D02*
X69191000Y-118850000D01*
X66318000Y-118890000D02*
X69203000Y-118890000D01*
X66318000Y-118930000D02*
X69214000Y-118930000D01*
X66318000Y-118970000D02*
X69225000Y-118970000D01*
X66318000Y-119010000D02*
X69235000Y-119010000D01*
X66318000Y-119050000D02*
X69245000Y-119050000D01*
X66318000Y-119090000D02*
X69254000Y-119090000D01*
X66318000Y-119130000D02*
X69263000Y-119130000D01*
X69398000Y-120010000D02*
G75*
G02*
X61158000Y-120010000I-4120000J0D01*
G01*
X61158000Y-120010000D02*
G75*
G02*
X69398000Y-120010000I4120000J0D01*
G01*
%TO.C,C13*%
X53240000Y-61404000D02*
X55980000Y-61404000D01*
X53240000Y-68644000D02*
X53240000Y-61404000D01*
X53240000Y-68644000D02*
X55980000Y-68644000D01*
X55980000Y-68644000D02*
X55980000Y-61404000D01*
%TO.C,R24*%
X33806000Y-59182000D02*
X34576000Y-59182000D01*
X34576000Y-58166000D02*
X34576000Y-60198000D01*
X34576000Y-60198000D02*
X41116000Y-60198000D01*
X41116000Y-58166000D02*
X34576000Y-58166000D01*
X41116000Y-60198000D02*
X41116000Y-58166000D01*
X41886000Y-59182000D02*
X41116000Y-59182000D01*
D12*
%TO.C,R13*%
X70358000Y-103629500D02*
X70358000Y-102613500D01*
X72390000Y-103629500D02*
X72390000Y-102613500D01*
D11*
%TO.C,R15*%
X42196000Y-157226000D02*
X48736000Y-157226000D01*
X42196000Y-159258000D02*
X48736000Y-159258000D01*
%TO.C,R3*%
X47244000Y-174530000D02*
X47244000Y-181070000D01*
X47244000Y-181070000D02*
X49276000Y-181070000D01*
X48260000Y-173760000D02*
X48260000Y-174530000D01*
X48260000Y-181840000D02*
X48260000Y-181070000D01*
X49276000Y-174530000D02*
X47244000Y-174530000D01*
X49276000Y-181070000D02*
X49276000Y-174530000D01*
%TO.C,C17*%
X56542000Y-101536000D02*
X59282000Y-101536000D01*
X56542000Y-108776000D02*
X56542000Y-101536000D01*
X56542000Y-108776000D02*
X59282000Y-108776000D01*
X59282000Y-108776000D02*
X59282000Y-101536000D01*
%TO.C,R19*%
X35560000Y-97060000D02*
X35560000Y-103600000D01*
X35560000Y-103600000D02*
X37592000Y-103600000D01*
X36576000Y-96290000D02*
X36576000Y-97060000D01*
X36576000Y-104370000D02*
X36576000Y-103600000D01*
X37592000Y-97060000D02*
X35560000Y-97060000D01*
X37592000Y-103600000D02*
X37592000Y-97060000D01*
%TO.C,R25*%
X43204000Y-30480000D02*
X43974000Y-30480000D01*
X43974000Y-29464000D02*
X43974000Y-31496000D01*
X43974000Y-31496000D02*
X50514000Y-31496000D01*
X50514000Y-29464000D02*
X43974000Y-29464000D01*
X50514000Y-31496000D02*
X50514000Y-29464000D01*
X51284000Y-30480000D02*
X50514000Y-30480000D01*
%TO.C,C2*%
X34226000Y-177700000D02*
X34226000Y-180440000D01*
X34226000Y-177700000D02*
X41466000Y-177700000D01*
X34226000Y-180440000D02*
X41466000Y-180440000D01*
X41466000Y-177700000D02*
X41466000Y-180440000D01*
%TO.C,C4*%
X27622000Y-153824000D02*
X27622000Y-156564000D01*
X27622000Y-153824000D02*
X34862000Y-153824000D01*
X27622000Y-156564000D02*
X34862000Y-156564000D01*
X34862000Y-153824000D02*
X34862000Y-156564000D01*
%TO.C,Q9*%
X60020000Y-77194000D02*
X60020000Y-80794000D01*
X60020000Y-77194000D02*
G75*
G02*
X60747205Y-76669816I1849994J-1799991D01*
G01*
X60747205Y-81318184D02*
G75*
G02*
X60020000Y-80794000I1122795J2324184D01*
G01*
X62968807Y-76637600D02*
G75*
G02*
X64470000Y-78994000I-1098809J-2356402D01*
G01*
X64470000Y-78994000D02*
G75*
G02*
X62968807Y-81350400I-2600000J0D01*
G01*
%TO.C,J1*%
X33420000Y-186580000D02*
X65740000Y-186580000D01*
X33420000Y-194620000D02*
X33420000Y-186580000D01*
X34228000Y-190000000D02*
X33420000Y-190000000D01*
X34228000Y-191000000D02*
X33420000Y-191000000D01*
X35497000Y-188700000D02*
X33420000Y-188700000D01*
X39228000Y-190000000D02*
X37852000Y-190000000D01*
X39228000Y-191000000D02*
X37852000Y-191000000D01*
X40497000Y-188700000D02*
X36583000Y-188700000D01*
X44228000Y-190000000D02*
X42852000Y-190000000D01*
X44228000Y-191000000D02*
X42852000Y-191000000D01*
X45497000Y-188700000D02*
X41583000Y-188700000D01*
X49228000Y-190000000D02*
X47852000Y-190000000D01*
X49228000Y-191000000D02*
X47852000Y-191000000D01*
X50497000Y-188700000D02*
X46583000Y-188700000D01*
X54228000Y-190000000D02*
X52852000Y-190000000D01*
X54228000Y-191000000D02*
X52852000Y-191000000D01*
X55497000Y-188700000D02*
X51583000Y-188700000D01*
X59228000Y-190000000D02*
X57852000Y-190000000D01*
X59228000Y-191000000D02*
X57852000Y-191000000D01*
X60497000Y-188700000D02*
X56583000Y-188700000D01*
X64160000Y-188700000D02*
X61583000Y-188700000D01*
X64160000Y-190000000D02*
X62852000Y-190000000D01*
X64160000Y-191000000D02*
X62852000Y-191000000D01*
X66340000Y-186580000D02*
X69160000Y-186580000D01*
X69160000Y-186580000D02*
X69160000Y-194620000D01*
X69160000Y-188700000D02*
X67920000Y-188700000D01*
X69160000Y-190000000D02*
X67920000Y-190000000D01*
X69160000Y-191000000D02*
X67920000Y-191000000D01*
X69160000Y-194620000D02*
X33420000Y-194620000D01*
%TO.C,R10*%
X70358000Y-76930000D02*
X70358000Y-70390000D01*
X72390000Y-76930000D02*
X72390000Y-70390000D01*
%TO.C,C7*%
X60896000Y-107034000D02*
X60896000Y-104294000D01*
X68136000Y-104294000D02*
X60896000Y-104294000D01*
X68136000Y-107034000D02*
X60896000Y-107034000D01*
X68136000Y-107034000D02*
X68136000Y-104294000D01*
%TO.C,Q8*%
X65354000Y-87862000D02*
X65354000Y-91462000D01*
X65354000Y-87862000D02*
G75*
G02*
X66081205Y-87337816I1849994J-1799991D01*
G01*
X66081205Y-91986184D02*
G75*
G02*
X65354000Y-91462000I1122795J2324184D01*
G01*
X68302807Y-87305600D02*
G75*
G02*
X69804000Y-89662000I-1098809J-2356402D01*
G01*
X69804000Y-89662000D02*
G75*
G02*
X68302807Y-92018400I-2600000J0D01*
G01*
%TO.C,U4*%
X41184000Y-91380000D02*
X41184000Y-101660000D01*
X41184000Y-101660000D02*
X45684000Y-101660000D01*
X42434000Y-91380000D02*
X41184000Y-91380000D01*
X45684000Y-91380000D02*
X44434000Y-91380000D01*
X45684000Y-101660000D02*
X45684000Y-91380000D01*
X38184000Y-91320000D02*
X48684000Y-91320000D01*
X48684000Y-101720000D01*
X38184000Y-101720000D01*
X38184000Y-91320000D01*
X44434000Y-91380000D02*
G75*
G02*
X42434000Y-91380000I-1000000J0D01*
G01*
%TO.C,Q10*%
X65354000Y-77194000D02*
X65354000Y-80794000D01*
X65354000Y-77194000D02*
G75*
G02*
X66081205Y-76669816I1849994J-1799991D01*
G01*
X66081205Y-81318184D02*
G75*
G02*
X65354000Y-80794000I1122795J2324184D01*
G01*
X68302807Y-76637600D02*
G75*
G02*
X69804000Y-78994000I-1098809J-2356402D01*
G01*
X69804000Y-78994000D02*
G75*
G02*
X68302807Y-81350400I-2600000J0D01*
G01*
%TO.C,C9*%
X60896000Y-85698000D02*
X60896000Y-82958000D01*
X68136000Y-82958000D02*
X60896000Y-82958000D01*
X68136000Y-85698000D02*
X60896000Y-85698000D01*
X68136000Y-85698000D02*
X68136000Y-82958000D01*
D12*
%TO.C,R22*%
X38100000Y-48514000D02*
X38100000Y-47498000D01*
X40132000Y-48514000D02*
X40132000Y-47498000D01*
D11*
%TO.C,C16*%
X41084000Y-87784000D02*
X41084000Y-90524000D01*
X41084000Y-87784000D02*
X48324000Y-87784000D01*
X41084000Y-90524000D02*
X48324000Y-90524000D01*
X48324000Y-87784000D02*
X48324000Y-90524000D01*
%TO.C,R26*%
X56666000Y-54610000D02*
X57436000Y-54610000D01*
X57436000Y-53594000D02*
X57436000Y-55626000D01*
X57436000Y-55626000D02*
X63976000Y-55626000D01*
X63976000Y-53594000D02*
X57436000Y-53594000D01*
X63976000Y-55626000D02*
X63976000Y-53594000D01*
X64746000Y-54610000D02*
X63976000Y-54610000D01*
%TO.C,Q6*%
X65206000Y-98530000D02*
X65206000Y-102130000D01*
X65206000Y-98530000D02*
G75*
G02*
X65933205Y-98005816I1849994J-1799991D01*
G01*
X65933205Y-102654184D02*
G75*
G02*
X65206000Y-102130000I1122795J2324184D01*
G01*
X68154807Y-97973600D02*
G75*
G02*
X69656000Y-100330000I-1098809J-2356402D01*
G01*
X69656000Y-100330000D02*
G75*
G02*
X68154807Y-102686400I-2600000J0D01*
G01*
%TO.C,R16*%
X70358000Y-115856000D02*
X70358000Y-122396000D01*
X70358000Y-122396000D02*
X72390000Y-122396000D01*
X71374000Y-115086000D02*
X71374000Y-115856000D01*
X71374000Y-123166000D02*
X71374000Y-122396000D01*
X72390000Y-115856000D02*
X70358000Y-115856000D01*
X72390000Y-122396000D02*
X72390000Y-115856000D01*
%TO.C,R5*%
X70358000Y-98266000D02*
X70358000Y-91726000D01*
X72390000Y-98266000D02*
X72390000Y-91726000D01*
%TO.C,R9*%
X70358000Y-87598000D02*
X70358000Y-81058000D01*
X72390000Y-87598000D02*
X72390000Y-81058000D01*
%TO.C,C18*%
X33682000Y-165798000D02*
X36422000Y-165798000D01*
X33682000Y-173038000D02*
X33682000Y-165798000D01*
X33682000Y-173038000D02*
X36422000Y-173038000D01*
X36422000Y-173038000D02*
X36422000Y-165798000D01*
D12*
%TO.C,R28*%
X42926000Y-108204000D02*
X42926000Y-107188000D01*
X44958000Y-108204000D02*
X44958000Y-107188000D01*
%TD*%
M02*
