%TF.GenerationSoftware,KiCad,Pcbnew,9.0.6*%
%TF.CreationDate,2026-04-22T22:05:46-07:00*%
%TF.ProjectId,modulinVCF,6d6f6475-6c69-46e5-9643-462e6b696361,rev?*%
%TF.SameCoordinates,Original*%
%TF.FileFunction,Paste,Bot*%
%TF.FilePolarity,Positive*%
%FSLAX46Y46*%
G04 Gerber Fmt 4.6, Leading zero omitted, Abs format (unit mm)*
G04 Created by KiCad (PCBNEW 9.0.6) date 2026-04-22 22:05:46*
%MOMM*%
%LPD*%
G01*
G04 APERTURE LIST*
G04 Aperture macros list*
%AMRoundRect*
0 Rectangle with rounded corners*
0 $1 Rounding radius*
0 $2 $3 $4 $5 $6 $7 $8 $9 X,Y pos of 4 corners*
0 Add a 4 corners polygon primitive as box body*
4,1,4,$2,$3,$4,$5,$6,$7,$8,$9,$2,$3,0*
0 Add four circle primitives for the rounded corners*
1,1,$1+$1,$2,$3*
1,1,$1+$1,$4,$5*
1,1,$1+$1,$6,$7*
1,1,$1+$1,$8,$9*
0 Add four rect primitives between the rounded corners*
20,1,$1+$1,$2,$3,$4,$5,0*
20,1,$1+$1,$4,$5,$6,$7,0*
20,1,$1+$1,$6,$7,$8,$9,0*
20,1,$1+$1,$8,$9,$2,$3,0*%
G04 Aperture macros list end*
%ADD10C,1.676400*%
%ADD11C,1.727200*%
%ADD12RoundRect,0.250000X-1.020000X-0.613600X1.020000X-0.613600X1.020000X0.613600X-1.020000X0.613600X0*%
%ADD13O,2.540000X1.727200*%
%ADD14C,2.794000*%
G04 APERTURE END LIST*
D10*
%TO.C,RV5*%
X43982000Y-113284000D03*
X46522000Y-113284000D03*
X49062000Y-113284000D03*
%TD*%
D11*
%TO.C,R18*%
X39624000Y-113538000D03*
%TD*%
D12*
%TO.C,U1*%
X39370000Y-139705000D03*
D13*
X39370000Y-142245000D03*
X39370000Y-144785000D03*
X39370000Y-147325000D03*
X39370000Y-149865000D03*
X39370000Y-152405000D03*
X39370000Y-154945000D03*
X46990000Y-154945000D03*
X46990000Y-152405000D03*
X46990000Y-149865000D03*
X46990000Y-147325000D03*
X46990000Y-144785000D03*
X46990000Y-142245000D03*
X46990000Y-139705000D03*
%TD*%
D11*
%TO.C,R6*%
X46482000Y-135382000D03*
%TD*%
%TO.C,R12*%
X71374000Y-108458000D03*
%TD*%
%TO.C,C1*%
X27218000Y-176022000D03*
X32218000Y-176022000D03*
%TD*%
%TO.C,R11*%
X71374000Y-66799500D03*
%TD*%
%TO.C,R17*%
X34038500Y-92710000D03*
%TD*%
D12*
%TO.C,U3*%
X42164000Y-34041000D03*
D13*
X42164000Y-36581000D03*
X42164000Y-39121000D03*
X42164000Y-41661000D03*
X42164000Y-44201000D03*
X42164000Y-46741000D03*
X42164000Y-49281000D03*
X49784000Y-49281000D03*
X49784000Y-46741000D03*
X49784000Y-44201000D03*
X49784000Y-41661000D03*
X49784000Y-39121000D03*
X49784000Y-36581000D03*
X49784000Y-34041000D03*
%TD*%
D10*
%TO.C,RV4*%
X50800000Y-135382000D03*
X50800000Y-132842000D03*
X50800000Y-130302000D03*
%TD*%
%TO.C,RV6*%
X47244000Y-26162000D03*
X49784000Y-26162000D03*
X52324000Y-26162000D03*
%TD*%
D11*
%TO.C,R4*%
X50546000Y-152400000D03*
%TD*%
%TO.C,C12*%
X35814000Y-41656000D03*
X30814000Y-41656000D03*
%TD*%
%TO.C,R13*%
X71374000Y-104391500D03*
%TD*%
%TO.C,C2*%
X35346000Y-179070000D03*
X40346000Y-179070000D03*
%TD*%
D14*
%TO.C,J1*%
X66040000Y-190500000D03*
X61040000Y-190500000D03*
X56040000Y-190500000D03*
X51040000Y-190500000D03*
X46040000Y-190500000D03*
X41040000Y-190500000D03*
X36040000Y-190500000D03*
%TD*%
D12*
%TO.C,U4*%
X39624000Y-92710000D03*
D13*
X39624000Y-95250000D03*
X39624000Y-97790000D03*
X39624000Y-100330000D03*
X47244000Y-100330000D03*
X47244000Y-97790000D03*
X47244000Y-95250000D03*
X47244000Y-92710000D03*
%TD*%
D11*
%TO.C,R22*%
X39116000Y-49276000D03*
%TD*%
%TO.C,R28*%
X43942000Y-108966000D03*
%TD*%
M02*
