M48
; DRILL file {KiCad 9.0.6} date 2026-04-22T22:05:49-0700
; FORMAT={-:-/ absolute / metric / decimal}
; #@! TF.CreationDate,2026-04-22T22:05:49-07:00
; #@! TF.GenerationSoftware,Kicad,Pcbnew,9.0.6
; #@! TF.FileFunction,Plated,1,2,PTH
FMAT,2
METRIC
; #@! TA.AperFunction,Plated,PTH,ViaDrill
T1C0.813
; #@! TA.AperFunction,Plated,PTH,ComponentDrill
T2C0.813
; #@! TA.AperFunction,Plated,PTH,ComponentDrill
T3C1.143
; #@! TA.AperFunction,Plated,PTH,ComponentDrill
T4C1.270
; #@! TA.AperFunction,Plated,PTH,ComponentDrill
T5C1.397
; #@! TA.AperFunction,Plated,PTH,ComponentDrill
T6C2.794
; #@! TA.AperFunction,Plated,PTH,ComponentDrill
T7C3.300
; #@! TA.AperFunction,Plated,PTH,ComponentDrill
T8C7.000
%
G90
G05
T1
X26.67Y-71.882
X26.67Y-87.122
X26.67Y-157.988
X28.702Y-73.66
X28.702Y-89.154
X28.702Y-121.92
X28.702Y-128.27
X28.702Y-169.672
X30.734Y-75.692
X33.02Y-144.78
X33.782Y-97.79
X35.56Y-121.92
X36.04Y-184.912
X38.862Y-36.576
X43.18Y-134.366
X43.18Y-144.78
X43.942Y-184.912
X50.8Y-140.208
X52.368Y-42.271
X55.372Y-144.78
X55.88Y-152.908
X56.642Y-59.182
X61.214Y-184.912
X72.136Y-149.86
T2
X27.218Y-176.022
X28.702Y-55.118
X28.742Y-100.33
X28.742Y-147.32
X28.742Y-155.194
X30.814Y-41.656
X32.218Y-176.022
X32.766Y-59.182
X32.766Y-62.23
X33.02Y-134.112
X33.02Y-137.24
X33.02Y-142.24
X33.742Y-100.33
X33.742Y-147.32
X33.742Y-155.194
X34.038Y-92.71
X35.052Y-166.918
X35.052Y-171.918
X35.346Y-179.07
X35.814Y-41.656
X35.92Y-125.73
X35.92Y-128.27
X35.92Y-130.81
X36.322Y-55.118
X36.322Y-142.24
X36.322Y-152.4
X36.576Y-95.25
X36.576Y-105.41
X36.578Y-92.71
X39.116Y-46.736
X39.116Y-49.276
X39.37Y-139.705
X39.37Y-142.245
X39.37Y-144.785
X39.37Y-147.325
X39.37Y-149.865
X39.37Y-152.405
X39.37Y-154.945
X39.624Y-52.324
X39.624Y-55.118
X39.624Y-92.71
X39.624Y-95.25
X39.624Y-97.79
X39.624Y-100.33
X39.624Y-113.538
X39.624Y-118.618
X40.132Y-167.132
X40.132Y-172.132
X40.346Y-179.07
X40.64Y-125.73
X40.64Y-128.27
X40.64Y-130.81
X40.64Y-134.112
X41.656Y-158.242
X42.164Y-30.48
X42.164Y-34.041
X42.164Y-36.581
X42.164Y-39.121
X42.164Y-41.661
X42.164Y-44.201
X42.164Y-46.741
X42.164Y-49.281
X42.204Y-89.154
X42.926Y-59.182
X42.926Y-62.23
X43.942Y-106.426
X43.942Y-108.966
X43.982Y-113.284
X44.998Y-118.618
X46.482Y-130.302
X46.482Y-135.382
X46.522Y-113.284
X46.99Y-139.705
X46.99Y-142.245
X46.99Y-144.785
X46.99Y-147.325
X46.99Y-149.865
X46.99Y-152.405
X46.99Y-154.945
X47.204Y-89.154
X47.244Y-26.162
X47.244Y-92.71
X47.244Y-95.25
X47.244Y-97.79
X47.244Y-100.33
X48.26Y-172.72
X48.26Y-182.88
X49.062Y-113.284
X49.276Y-158.242
X49.784Y-26.162
X49.784Y-34.041
X49.784Y-36.581
X49.784Y-39.121
X49.784Y-41.661
X49.784Y-44.201
X49.784Y-46.741
X49.784Y-49.281
X49.784Y-52.324
X49.784Y-55.118
X49.998Y-118.618
X50.546Y-152.4
X50.546Y-154.94
X50.8Y-130.302
X50.8Y-132.842
X50.8Y-135.382
X51.308Y-176.53
X52.324Y-26.162
X52.324Y-30.48
X53.34Y-142.24
X53.34Y-152.4
X54.61Y-62.524
X54.61Y-67.524
X55.626Y-54.61
X57.912Y-102.656
X57.912Y-107.656
X57.912Y-110.998
X57.912Y-118.618
X61.468Y-176.53
X61.87Y-65.786
X61.87Y-68.326
X61.87Y-70.866
X61.87Y-76.454
X61.87Y-78.994
X61.87Y-81.534
X61.87Y-87.122
X61.87Y-89.662
X61.87Y-92.202
X61.87Y-97.79
X61.87Y-100.33
X61.87Y-102.87
X62.016Y-73.66
X62.016Y-84.328
X62.016Y-94.996
X62.016Y-105.664
X62.336Y-108.458
X62.336Y-110.998
X62.336Y-113.538
X65.278Y-118.11
X65.278Y-121.91
X65.786Y-54.61
X67.016Y-73.66
X67.016Y-84.328
X67.016Y-94.996
X67.016Y-105.664
X67.056Y-97.79
X67.056Y-100.33
X67.056Y-102.87
X67.056Y-108.458
X67.056Y-110.998
X67.056Y-113.538
X67.204Y-65.786
X67.204Y-68.326
X67.204Y-70.866
X67.204Y-76.454
X67.204Y-78.994
X67.204Y-81.534
X67.204Y-87.122
X67.204Y-89.662
X67.204Y-92.202
X71.374Y-64.26
X71.374Y-66.799
X71.374Y-69.85
X71.374Y-77.47
X71.374Y-80.518
X71.374Y-88.138
X71.374Y-91.186
X71.374Y-98.806
X71.374Y-101.852
X71.374Y-104.391
X71.374Y-108.458
X71.374Y-110.998
X71.374Y-114.046
X71.374Y-124.206
T3
X35.052Y-163.576
X37.592Y-163.576
X40.132Y-163.576
T4
X58.42Y-51.1
X58.42Y-147.62
X58.42Y-173.02
X63.5Y-51.1
X63.5Y-147.62
X63.5Y-173.02
X68.58Y-51.1
X68.58Y-147.62
X68.58Y-173.02
T5
X36.04Y-190.5
X41.04Y-190.5
X46.04Y-190.5
X51.04Y-190.5
X56.04Y-190.5
X61.04Y-190.5
X66.04Y-190.5
T6
X71.5Y-38.1
X71.5Y-134.62
X71.5Y-160.02
T7
X30.48Y-22.86
X30.48Y-182.88
X50.8Y-106.68
X71.12Y-22.86
X71.12Y-182.88
T8
X63.5Y-38.1
X63.5Y-134.62
X63.5Y-160.02
M30
