%TF.GenerationSoftware,KiCad,Pcbnew,9.0.6*%
%TF.CreationDate,2026-04-22T22:05:46-07:00*%
%TF.ProjectId,modulinVCF,6d6f6475-6c69-46e5-9643-462e6b696361,rev?*%
%TF.SameCoordinates,Original*%
%TF.FileFunction,Copper,L1,Top*%
%TF.FilePolarity,Positive*%
%FSLAX46Y46*%
G04 Gerber Fmt 4.6, Leading zero omitted, Abs format (unit mm)*
G04 Created by KiCad (PCBNEW 9.0.6) date 2026-04-22 22:05:46*
%MOMM*%
%LPD*%
G01*
G04 APERTURE LIST*
G04 Aperture macros list*
%AMRoundRect*
0 Rectangle with rounded corners*
0 $1 Rounding radius*
0 $2 $3 $4 $5 $6 $7 $8 $9 X,Y pos of 4 corners*
0 Add a 4 corners polygon primitive as box body*
4,1,4,$2,$3,$4,$5,$6,$7,$8,$9,$2,$3,0*
0 Add four circle primitives for the rounded corners*
1,1,$1+$1,$2,$3*
1,1,$1+$1,$4,$5*
1,1,$1+$1,$6,$7*
1,1,$1+$1,$8,$9*
0 Add four rect primitives between the rounded corners*
20,1,$1+$1,$2,$3,$4,$5,0*
20,1,$1+$1,$4,$5,$6,$7,0*
20,1,$1+$1,$6,$7,$8,$9,0*
20,1,$1+$1,$8,$9,$2,$3,0*%
G04 Aperture macros list end*
%TA.AperFunction,ComponentPad*%
%ADD10C,1.320800*%
%TD*%
%TA.AperFunction,ComponentPad*%
%ADD11C,1.727200*%
%TD*%
%TA.AperFunction,ComponentPad*%
%ADD12O,2.540000X1.727200*%
%TD*%
%TA.AperFunction,ComponentPad*%
%ADD13RoundRect,0.250000X-1.020000X0.613600X-1.020000X-0.613600X1.020000X-0.613600X1.020000X0.613600X0*%
%TD*%
%TA.AperFunction,ComponentPad*%
%ADD14C,1.676400*%
%TD*%
%TA.AperFunction,ComponentPad*%
%ADD15RoundRect,0.250000X1.020000X-0.613600X1.020000X0.613600X-1.020000X0.613600X-1.020000X-0.613600X0*%
%TD*%
%TA.AperFunction,ComponentPad*%
%ADD16C,6.000000*%
%TD*%
%TA.AperFunction,ComponentPad*%
%ADD17RoundRect,0.250000X-0.613600X-1.020000X0.613600X-1.020000X0.613600X1.020000X-0.613600X1.020000X0*%
%TD*%
%TA.AperFunction,ComponentPad*%
%ADD18O,1.727200X2.540000*%
%TD*%
%TA.AperFunction,ComponentPad*%
%ADD19RoundRect,0.269875X0.593725X-0.593725X0.593725X0.593725X-0.593725X0.593725X-0.593725X-0.593725X0*%
%TD*%
%TA.AperFunction,ComponentPad*%
%ADD20C,1.905000*%
%TD*%
%TA.AperFunction,ComponentPad*%
%ADD21C,1.778000*%
%TD*%
%TA.AperFunction,SMDPad,CuDef*%
%ADD22C,2.286000*%
%TD*%
%TA.AperFunction,SMDPad,CuDef*%
%ADD23R,2.286000X2.286000*%
%TD*%
%TA.AperFunction,ComponentPad*%
%ADD24C,3.302000*%
%TD*%
%TA.AperFunction,ComponentPad*%
%ADD25C,12.000000*%
%TD*%
%TA.AperFunction,SMDPad,CuDef*%
%ADD26O,18.000000X12.000000*%
%TD*%
%TA.AperFunction,ViaPad*%
%ADD27C,1.727200*%
%TD*%
%TA.AperFunction,Conductor*%
%ADD28C,0.508000*%
%TD*%
G04 APERTURE END LIST*
D10*
%TO.P,RV5,1,1*%
%TO.N,Net-(R28-Pad1)*%
X43982000Y-113284000D03*
%TO.P,RV5,2,2*%
%TO.N,Net-(C17-Pad2)*%
X46522000Y-113284000D03*
%TO.P,RV5,3,3*%
X49062000Y-113284000D03*
%TD*%
D11*
%TO.P,R14,1*%
%TO.N,Net-(Q3-B)*%
X57912000Y-110998000D03*
%TO.P,R14,2*%
%TO.N,Net-(C11-Pad2)*%
X57912000Y-118618000D03*
%TD*%
%TO.P,R8,1*%
%TO.N,Net-(C5-Pad1)*%
X33020000Y-134112000D03*
%TO.P,R8,2*%
%TO.N,Net-(Q1-E)*%
X40640000Y-134112000D03*
%TD*%
D12*
%TO.P,Q7,1,C*%
%TO.N,Net-(Q7-C)*%
X61870000Y-87122000D03*
%TO.P,Q7,2,B*%
%TO.N,Net-(Q7-B)*%
X61870000Y-89662000D03*
D13*
%TO.P,Q7,3,E*%
%TO.N,Net-(Q5-C)*%
X61870000Y-92202000D03*
%TD*%
D11*
%TO.P,R20,1*%
%TO.N,Net-(U3B--)*%
X39624000Y-52324000D03*
%TO.P,R20,2*%
%TO.N,Net-(U3D--)*%
X49784000Y-52324000D03*
%TD*%
D10*
%TO.P,R18,1*%
%TO.N,Net-(R17-Pad2)*%
X39624000Y-113538000D03*
D14*
%TO.P,R18,2*%
%TO.N,Net-(C14-Pad1)*%
X39624000Y-118618000D03*
%TD*%
D11*
%TO.P,C15,1*%
%TO.N,VCC*%
X33742000Y-100330000D03*
%TO.P,C15,2*%
%TO.N,GND*%
X28742000Y-100330000D03*
%TD*%
D10*
%TO.P,U1,1*%
%TO.N,Net-(C5-Pad1)*%
X39370000Y-139705000D03*
%TO.P,U1,2,-*%
%TO.N,Net-(Q1-C)*%
X39370000Y-142245000D03*
%TO.P,U1,3,+*%
%TO.N,GND*%
X39370000Y-144785000D03*
%TO.P,U1,4,V+*%
%TO.N,VCC*%
X39370000Y-147325000D03*
%TO.P,U1,5,+*%
%TO.N,Net-(U1B-+)*%
X39370000Y-149865000D03*
%TO.P,U1,6,-*%
%TO.N,Net-(U1B--)*%
X39370000Y-152405000D03*
%TO.P,U1,7*%
X39370000Y-154945000D03*
%TO.P,U1,8*%
%TO.N,Net-(R4-Pad2)*%
X46990000Y-154945000D03*
%TO.P,U1,9,-*%
%TO.N,Net-(U1C--)*%
X46990000Y-152405000D03*
%TO.P,U1,10,+*%
%TO.N,GND*%
X46990000Y-149865000D03*
%TO.P,U1,11,V-*%
%TO.N,VEE*%
X46990000Y-147325000D03*
%TO.P,U1,12,+*%
%TO.N,Net-(U1D-+)*%
X46990000Y-144785000D03*
%TO.P,U1,13,-*%
%TO.N,Net-(U1D--)*%
X46990000Y-142245000D03*
%TO.P,U1,14*%
X46990000Y-139705000D03*
%TD*%
%TO.P,R6,1*%
%TO.N,GND*%
X46482000Y-135382000D03*
D14*
%TO.P,R6,2*%
%TO.N,Net-(R6-Pad2)*%
X46482000Y-130302000D03*
%TD*%
D11*
%TO.P,R12,1*%
%TO.N,Net-(Q4-B)*%
X71374000Y-110998000D03*
D10*
%TO.P,R12,2*%
%TO.N,Net-(C11-Pad2)*%
X71374000Y-108458000D03*
%TD*%
D12*
%TO.P,Q5,1,C*%
%TO.N,Net-(Q5-C)*%
X61870000Y-97790000D03*
%TO.P,Q5,2,B*%
%TO.N,Net-(Q5-B)*%
X61870000Y-100330000D03*
D13*
%TO.P,Q5,3,E*%
%TO.N,Net-(Q3-C)*%
X61870000Y-102870000D03*
%TD*%
D10*
%TO.P,C1,1*%
%TO.N,VEE*%
X27218000Y-176022000D03*
%TO.P,C1,2*%
%TO.N,GND*%
X32218000Y-176022000D03*
%TD*%
D12*
%TO.P,Q4,1,C*%
%TO.N,Net-(Q4-C)*%
X67056000Y-108458000D03*
%TO.P,Q4,2,B*%
%TO.N,Net-(Q4-B)*%
X67056000Y-110998000D03*
D13*
%TO.P,Q4,3,E*%
%TO.N,Net-(Q2-C)*%
X67056000Y-113538000D03*
%TD*%
D11*
%TO.P,C14,1*%
%TO.N,Net-(C14-Pad1)*%
X44998000Y-118618000D03*
%TO.P,C14,2*%
%TO.N,Net-(Q4-B)*%
X49998000Y-118618000D03*
%TD*%
D10*
%TO.P,R11,1*%
%TO.N,Net-(Q11-B)*%
X71374000Y-66799500D03*
D11*
%TO.P,R11,2*%
%TO.N,VCC*%
X71374000Y-64259500D03*
%TD*%
D12*
%TO.P,Q2,1,C*%
%TO.N,Net-(Q2-C)*%
X35920000Y-130810000D03*
%TO.P,Q2,2,B*%
%TO.N,GND*%
X35920000Y-128270000D03*
D15*
%TO.P,Q2,3,E*%
%TO.N,Net-(Q1-E)*%
X35920000Y-125730000D03*
%TD*%
D11*
%TO.P,R21,1*%
%TO.N,Net-(U3B-+)*%
X39624000Y-55118000D03*
%TO.P,R21,2*%
%TO.N,Net-(U3C--)*%
X49784000Y-55118000D03*
%TD*%
%TO.P,R27,1*%
%TO.N,Net-(U4B--)*%
X42926000Y-62230000D03*
%TO.P,R27,2*%
%TO.N,Net-(U3A--)*%
X32766000Y-62230000D03*
%TD*%
D12*
%TO.P,Q1,1,C*%
%TO.N,Net-(Q1-C)*%
X40640000Y-125730000D03*
%TO.P,Q1,2,B*%
%TO.N,Net-(Q1-B)*%
X40640000Y-128270000D03*
D13*
%TO.P,Q1,3,E*%
%TO.N,Net-(Q1-E)*%
X40640000Y-130810000D03*
%TD*%
D11*
%TO.P,C3,1*%
%TO.N,VCC*%
X33742000Y-147320000D03*
%TO.P,C3,2*%
%TO.N,GND*%
X28742000Y-147320000D03*
%TD*%
%TO.P,C10,1*%
%TO.N,Net-(Q10-C)*%
X67016000Y-73660000D03*
%TO.P,C10,2*%
%TO.N,Net-(Q11-E)*%
X62016000Y-73660000D03*
%TD*%
%TO.P,C5,1*%
%TO.N,Net-(C5-Pad1)*%
X33020000Y-137240000D03*
%TO.P,C5,2*%
%TO.N,Net-(Q1-C)*%
X33020000Y-142240000D03*
%TD*%
D10*
%TO.P,R17,1*%
%TO.N,Net-(U4A--)*%
X34038500Y-92710000D03*
D11*
%TO.P,R17,2*%
%TO.N,Net-(R17-Pad2)*%
X36578500Y-92710000D03*
%TD*%
D12*
%TO.P,Q3,1,C*%
%TO.N,Net-(Q3-C)*%
X62336000Y-113538000D03*
%TO.P,Q3,2,B*%
%TO.N,Net-(Q3-B)*%
X62336000Y-110998000D03*
D15*
%TO.P,Q3,3,E*%
%TO.N,Net-(Q2-C)*%
X62336000Y-108458000D03*
%TD*%
D10*
%TO.P,U3,1*%
%TO.N,OUT*%
X42164000Y-34041000D03*
%TO.P,U3,2,-*%
%TO.N,Net-(U3A--)*%
X42164000Y-36581000D03*
%TO.P,U3,3,+*%
%TO.N,GND*%
X42164000Y-39121000D03*
%TO.P,U3,4,V+*%
%TO.N,VCC*%
X42164000Y-41661000D03*
%TO.P,U3,5,+*%
%TO.N,Net-(U3B-+)*%
X42164000Y-44201000D03*
%TO.P,U3,6,-*%
%TO.N,Net-(U3B--)*%
X42164000Y-46741000D03*
%TO.P,U3,7*%
%TO.N,Net-(R22-Pad1)*%
X42164000Y-49281000D03*
%TO.P,U3,8*%
%TO.N,Net-(U3C--)*%
X49784000Y-49281000D03*
%TO.P,U3,9,-*%
X49784000Y-46741000D03*
%TO.P,U3,10,+*%
%TO.N,Net-(Q11-E)*%
X49784000Y-44201000D03*
%TO.P,U3,11,V-*%
%TO.N,VEE*%
X49784000Y-41661000D03*
%TO.P,U3,12,+*%
%TO.N,Net-(Q10-C)*%
X49784000Y-39121000D03*
%TO.P,U3,13,-*%
%TO.N,Net-(U3D--)*%
X49784000Y-36581000D03*
%TO.P,U3,14*%
X49784000Y-34041000D03*
%TD*%
D11*
%TO.P,C6,1*%
%TO.N,GND*%
X40132000Y-172132000D03*
%TO.P,C6,2*%
%TO.N,Net-(U1B-+)*%
X40132000Y-167132000D03*
%TD*%
%TO.P,R23,1*%
%TO.N,GND*%
X28702000Y-55118000D03*
%TO.P,R23,2*%
%TO.N,Net-(U3B-+)*%
X36322000Y-55118000D03*
%TD*%
D16*
%TO.P,REF\u002A\u002A,MP*%
%TO.N,N/C*%
X30480000Y-182880000D03*
%TD*%
D11*
%TO.P,R1,1*%
%TO.N,Net-(R1-Pad1)*%
X61468000Y-176530000D03*
%TO.P,R1,2*%
%TO.N,Net-(U1C--)*%
X51308000Y-176530000D03*
%TD*%
D12*
%TO.P,Q12,1,C*%
%TO.N,VCC*%
X67204000Y-65786000D03*
%TO.P,Q12,2,B*%
%TO.N,Net-(Q11-B)*%
X67204000Y-68326000D03*
D13*
%TO.P,Q12,3,E*%
%TO.N,Net-(Q10-C)*%
X67204000Y-70866000D03*
%TD*%
D10*
%TO.P,RV4,1,1*%
%TO.N,Net-(R4-Pad2)*%
X50800000Y-135382000D03*
%TO.P,RV4,2,2*%
%TO.N,Net-(Q1-B)*%
X50800000Y-132842000D03*
%TO.P,RV4,3,3*%
%TO.N,Net-(R6-Pad2)*%
X50800000Y-130302000D03*
%TD*%
%TO.P,RV6,1,1*%
%TO.N,Net-(U3A--)*%
X47244000Y-26162000D03*
%TO.P,RV6,2,2*%
%TO.N,Net-(R25-Pad2)*%
X49784000Y-26162000D03*
%TO.P,RV6,3,3*%
X52324000Y-26162000D03*
%TD*%
D11*
%TO.P,R2,1*%
%TO.N,Net-(U1D--)*%
X53340000Y-142240000D03*
%TO.P,R2,2*%
%TO.N,Net-(U1C--)*%
X53340000Y-152400000D03*
%TD*%
D12*
%TO.P,Q11,1,C*%
%TO.N,VCC*%
X61870000Y-65786000D03*
%TO.P,Q11,2,B*%
%TO.N,Net-(Q11-B)*%
X61870000Y-68326000D03*
D13*
%TO.P,Q11,3,E*%
%TO.N,Net-(Q11-E)*%
X61870000Y-70866000D03*
%TD*%
D10*
%TO.P,R4,1*%
%TO.N,Net-(U1C--)*%
X50546000Y-152400000D03*
D11*
%TO.P,R4,2*%
%TO.N,Net-(R4-Pad2)*%
X50546000Y-154940000D03*
%TD*%
D17*
%TO.P,U2,1,VI*%
%TO.N,VCC*%
X35052000Y-163576000D03*
D18*
%TO.P,U2,2,GND*%
%TO.N,GND*%
X37592000Y-163576000D03*
%TO.P,U2,3,VO*%
%TO.N,Net-(U1B-+)*%
X40132000Y-163576000D03*
%TD*%
D11*
%TO.P,R7,1*%
%TO.N,Net-(U1B--)*%
X36322000Y-152400000D03*
%TO.P,R7,2*%
%TO.N,Net-(Q1-C)*%
X36322000Y-142240000D03*
%TD*%
D10*
%TO.P,C12,1*%
%TO.N,VCC*%
X35814000Y-41656000D03*
%TO.P,C12,2*%
%TO.N,GND*%
X30814000Y-41656000D03*
%TD*%
D11*
%TO.P,C8,1*%
%TO.N,Net-(Q6-C)*%
X67016000Y-94996000D03*
%TO.P,C8,2*%
%TO.N,Net-(Q5-C)*%
X62016000Y-94996000D03*
%TD*%
D16*
%TO.P,REF\u002A\u002A,MP*%
%TO.N,N/C*%
X30480000Y-22860000D03*
%TD*%
%TO.P,REF\u002A\u002A,MP*%
%TO.N,N/C*%
X71120000Y-182880000D03*
%TD*%
D19*
%TO.P,C11,1*%
%TO.N,GND*%
X65278000Y-121910000D03*
D11*
%TO.P,C11,2*%
%TO.N,Net-(C11-Pad2)*%
X65278000Y-118110000D03*
%TD*%
%TO.P,C13,1*%
%TO.N,GND*%
X54610000Y-67524000D03*
%TO.P,C13,2*%
%TO.N,VEE*%
X54610000Y-62524000D03*
%TD*%
%TO.P,R24,1*%
%TO.N,Net-(U3A--)*%
X32766000Y-59182000D03*
%TO.P,R24,2*%
%TO.N,Net-(R22-Pad1)*%
X42926000Y-59182000D03*
%TD*%
D10*
%TO.P,R13,1*%
%TO.N,Net-(C11-Pad2)*%
X71374000Y-104391500D03*
D11*
%TO.P,R13,2*%
%TO.N,Net-(Q5-B)*%
X71374000Y-101851500D03*
%TD*%
%TO.P,R15,1*%
%TO.N,Net-(U1B-+)*%
X41656000Y-158242000D03*
%TO.P,R15,2*%
%TO.N,GND*%
X49276000Y-158242000D03*
%TD*%
%TO.P,R3,1*%
%TO.N,NOTE*%
X48260000Y-182880000D03*
%TO.P,R3,2*%
%TO.N,Net-(U1C--)*%
X48260000Y-172720000D03*
%TD*%
%TO.P,C17,1*%
%TO.N,Net-(Q3-B)*%
X57912000Y-107656000D03*
%TO.P,C17,2*%
%TO.N,Net-(C17-Pad2)*%
X57912000Y-102656000D03*
%TD*%
%TO.P,R19,1*%
%TO.N,IN*%
X36576000Y-105410000D03*
%TO.P,R19,2*%
%TO.N,Net-(U4A--)*%
X36576000Y-95250000D03*
%TD*%
%TO.P,R25,1*%
%TO.N,OUT*%
X42164000Y-30480000D03*
%TO.P,R25,2*%
%TO.N,Net-(R25-Pad2)*%
X52324000Y-30480000D03*
%TD*%
D10*
%TO.P,C2,1*%
%TO.N,GND*%
X35346000Y-179070000D03*
%TO.P,C2,2*%
%TO.N,VCC*%
X40346000Y-179070000D03*
%TD*%
D11*
%TO.P,C4,1*%
%TO.N,GND*%
X28742000Y-155194000D03*
%TO.P,C4,2*%
%TO.N,VEE*%
X33742000Y-155194000D03*
%TD*%
D12*
%TO.P,Q9,1,C*%
%TO.N,Net-(Q11-E)*%
X61870000Y-76454000D03*
%TO.P,Q9,2,B*%
%TO.N,Net-(Q10-B)*%
X61870000Y-78994000D03*
D13*
%TO.P,Q9,3,E*%
%TO.N,Net-(Q7-C)*%
X61870000Y-81534000D03*
%TD*%
D20*
%TO.P,J1,1,Pin_1*%
%TO.N,OUT*%
X66040000Y-190500000D03*
%TO.P,J1,2,Pin_2*%
%TO.N,IN*%
X61040000Y-190500000D03*
%TO.P,J1,3,Pin_3*%
%TO.N,EXP*%
X56040000Y-190500000D03*
%TO.P,J1,4,Pin_4*%
%TO.N,NOTE*%
X51040000Y-190500000D03*
%TO.P,J1,5,Pin_5*%
%TO.N,VCC*%
X46040000Y-190500000D03*
%TO.P,J1,6,Pin_6*%
%TO.N,GND*%
X41040000Y-190500000D03*
%TO.P,J1,7,Pin_7*%
%TO.N,VEE*%
X36040000Y-190500000D03*
%TD*%
D16*
%TO.P,REF\u002A\u002A,MP*%
%TO.N,N/C*%
X50800000Y-106680000D03*
%TD*%
D11*
%TO.P,R10,1*%
%TO.N,Net-(Q10-B)*%
X71374000Y-77470000D03*
%TO.P,R10,2*%
%TO.N,Net-(Q11-B)*%
X71374000Y-69850000D03*
%TD*%
%TO.P,C7,1*%
%TO.N,Net-(Q4-C)*%
X67016000Y-105664000D03*
%TO.P,C7,2*%
%TO.N,Net-(Q3-C)*%
X62016000Y-105664000D03*
%TD*%
D12*
%TO.P,Q8,1,C*%
%TO.N,Net-(Q10-E)*%
X67204000Y-87122000D03*
%TO.P,Q8,2,B*%
%TO.N,Net-(Q7-B)*%
X67204000Y-89662000D03*
D13*
%TO.P,Q8,3,E*%
%TO.N,Net-(Q6-C)*%
X67204000Y-92202000D03*
%TD*%
D10*
%TO.P,U4,1*%
%TO.N,Net-(R17-Pad2)*%
X39624000Y-92710000D03*
%TO.P,U4,2,-*%
%TO.N,Net-(U4A--)*%
X39624000Y-95250000D03*
%TO.P,U4,3,+*%
%TO.N,GND*%
X39624000Y-97790000D03*
%TO.P,U4,4,V-*%
%TO.N,VCC*%
X39624000Y-100330000D03*
%TO.P,U4,5,+*%
%TO.N,Net-(U4B-+)*%
X47244000Y-100330000D03*
%TO.P,U4,6,-*%
%TO.N,Net-(U4B--)*%
X47244000Y-97790000D03*
%TO.P,U4,7*%
X47244000Y-95250000D03*
%TO.P,U4,8,V+*%
%TO.N,VEE*%
X47244000Y-92710000D03*
%TD*%
D12*
%TO.P,Q10,1,C*%
%TO.N,Net-(Q10-C)*%
X67204000Y-76454000D03*
%TO.P,Q10,2,B*%
%TO.N,Net-(Q10-B)*%
X67204000Y-78994000D03*
D13*
%TO.P,Q10,3,E*%
%TO.N,Net-(Q10-E)*%
X67204000Y-81534000D03*
%TD*%
D11*
%TO.P,C9,1*%
%TO.N,Net-(Q10-E)*%
X67016000Y-84328000D03*
%TO.P,C9,2*%
%TO.N,Net-(Q7-C)*%
X62016000Y-84328000D03*
%TD*%
D16*
%TO.P,REF\u002A\u002A,MP*%
%TO.N,N/C*%
X71120000Y-22860000D03*
%TD*%
D10*
%TO.P,R22,1*%
%TO.N,Net-(R22-Pad1)*%
X39116000Y-49276000D03*
D11*
%TO.P,R22,2*%
%TO.N,Net-(U3B--)*%
X39116000Y-46736000D03*
%TD*%
%TO.P,C16,1*%
%TO.N,GND*%
X42204000Y-89154000D03*
%TO.P,C16,2*%
%TO.N,VEE*%
X47204000Y-89154000D03*
%TD*%
%TO.P,R26,1*%
%TO.N,Net-(U4B-+)*%
X65786000Y-54610000D03*
%TO.P,R26,2*%
%TO.N,Net-(R22-Pad1)*%
X55626000Y-54610000D03*
%TD*%
D12*
%TO.P,Q6,1,C*%
%TO.N,Net-(Q6-C)*%
X67056000Y-97790000D03*
%TO.P,Q6,2,B*%
%TO.N,Net-(Q5-B)*%
X67056000Y-100330000D03*
D13*
%TO.P,Q6,3,E*%
%TO.N,Net-(Q4-C)*%
X67056000Y-102870000D03*
%TD*%
D11*
%TO.P,R16,1*%
%TO.N,Net-(C11-Pad2)*%
X71374000Y-114046000D03*
%TO.P,R16,2*%
%TO.N,GND*%
X71374000Y-124206000D03*
%TD*%
%TO.P,R5,1*%
%TO.N,Net-(Q5-B)*%
X71374000Y-98806000D03*
%TO.P,R5,2*%
%TO.N,Net-(Q7-B)*%
X71374000Y-91186000D03*
%TD*%
%TO.P,R9,1*%
%TO.N,Net-(Q7-B)*%
X71374000Y-88138000D03*
%TO.P,R9,2*%
%TO.N,Net-(Q10-B)*%
X71374000Y-80518000D03*
%TD*%
%TO.P,C18,1*%
%TO.N,GND*%
X35052000Y-171918000D03*
%TO.P,C18,2*%
%TO.N,VCC*%
X35052000Y-166918000D03*
%TD*%
D10*
%TO.P,R28,1*%
%TO.N,Net-(R28-Pad1)*%
X43942000Y-108966000D03*
D11*
%TO.P,R28,2*%
%TO.N,Net-(U4B--)*%
X43942000Y-106426000D03*
%TD*%
D21*
%TO.P,RV2,1,1*%
%TO.N,VEE*%
X68580000Y-173020000D03*
D22*
X68580000Y-173020000D03*
D21*
%TO.P,RV2,2,2*%
%TO.N,Net-(R1-Pad1)*%
X63500000Y-173020000D03*
D22*
X63500000Y-173020000D03*
D21*
%TO.P,RV2,3,3*%
%TO.N,VCC*%
X58420000Y-173020000D03*
D23*
X58420000Y-173020000D03*
D24*
%TO.P,RV2,MP*%
%TO.N,N/C*%
X71500000Y-160020000D03*
D25*
X63500000Y-160020000D03*
D26*
X63500000Y-160020000D03*
%TD*%
D21*
%TO.P,RV3,1,1*%
%TO.N,GND*%
X68580000Y-51100000D03*
D22*
X68580000Y-51100000D03*
D21*
%TO.P,RV3,2,2*%
%TO.N,Net-(U4B-+)*%
X63500000Y-51100000D03*
D22*
X63500000Y-51100000D03*
D21*
%TO.P,RV3,3,3*%
%TO.N,Net-(R22-Pad1)*%
X58420000Y-51100000D03*
D23*
X58420000Y-51100000D03*
D24*
%TO.P,RV3,MP*%
%TO.N,N/C*%
X71500000Y-38100000D03*
D25*
X63500000Y-38100000D03*
D26*
X63500000Y-38100000D03*
%TD*%
D21*
%TO.P,RV1,1,1*%
%TO.N,GND*%
X68580000Y-147620000D03*
D22*
X68580000Y-147620000D03*
D21*
%TO.P,RV1,2,2*%
%TO.N,Net-(U1D-+)*%
X63500000Y-147620000D03*
D22*
X63500000Y-147620000D03*
D21*
%TO.P,RV1,3,3*%
%TO.N,EXP*%
X58420000Y-147620000D03*
D23*
X58420000Y-147620000D03*
D24*
%TO.P,RV1,MP*%
%TO.N,N/C*%
X71500000Y-134620000D03*
D25*
X63500000Y-134620000D03*
D26*
X63500000Y-134620000D03*
%TD*%
D27*
%TO.N,VCC*%
X30734000Y-75692000D03*
X43942000Y-184912000D03*
%TO.N,GND*%
X33020000Y-144780000D03*
X72136000Y-149860000D03*
X33782000Y-97790000D03*
X28702000Y-89154000D03*
X35560000Y-121920000D03*
X28702000Y-73660000D03*
X28702000Y-169672000D03*
X28702000Y-128270000D03*
X28702000Y-121920000D03*
%TO.N,VEE*%
X52367603Y-42270601D03*
X26670000Y-71882000D03*
X36040000Y-184912000D03*
X26670000Y-87122000D03*
X43180000Y-144780000D03*
X26670000Y-157988000D03*
%TO.N,Net-(Q1-C)*%
X43180000Y-134366000D03*
%TO.N,Net-(U1D-+)*%
X55372000Y-144780000D03*
%TO.N,IN*%
X61214000Y-184912000D03*
%TO.N,EXP*%
X55880000Y-152908000D03*
%TO.N,Net-(R4-Pad2)*%
X50800000Y-140208000D03*
%TO.N,Net-(U4B-+)*%
X56642000Y-59182000D03*
%TO.N,Net-(U3A--)*%
X38862000Y-36576000D03*
%TD*%
D28*
%TO.N,VCC*%
X30734000Y-75692000D02*
X49784000Y-75692000D01*
X54356000Y-184912000D02*
X58420000Y-180848000D01*
X49784000Y-75692000D02*
X59690000Y-65786000D01*
X43942000Y-184912000D02*
X54356000Y-184912000D01*
X58420000Y-180848000D02*
X58420000Y-173020000D01*
X59690000Y-65786000D02*
X61870000Y-65786000D01*
%TO.N,GND*%
X72136000Y-149860000D02*
X70820000Y-149860000D01*
X28742000Y-169632000D02*
X28702000Y-169672000D01*
X31282000Y-97790000D02*
X33782000Y-97790000D01*
X33020000Y-144780000D02*
X31282000Y-144780000D01*
X68580000Y-54610000D02*
X68580000Y-51100000D01*
X28742000Y-100330000D02*
X31282000Y-97790000D01*
X35560000Y-121920000D02*
X28702000Y-121920000D01*
X42204000Y-89154000D02*
X28702000Y-89154000D01*
X70820000Y-149860000D02*
X68580000Y-147620000D01*
X35920000Y-128270000D02*
X28702000Y-128270000D01*
X31282000Y-144780000D02*
X28742000Y-147320000D01*
X35052000Y-171918000D02*
X32766000Y-169632000D01*
X49530000Y-73660000D02*
X68580000Y-54610000D01*
X28702000Y-73660000D02*
X49530000Y-73660000D01*
X32766000Y-169632000D02*
X28742000Y-169632000D01*
%TO.N,VEE*%
X38841400Y-71728600D02*
X48046000Y-62524000D01*
X26823400Y-71728600D02*
X38841400Y-71728600D01*
X54148000Y-187452000D02*
X68580000Y-173020000D01*
X48046000Y-62524000D02*
X51348000Y-59222000D01*
X47204000Y-89154000D02*
X45172000Y-87122000D01*
X52367603Y-58202397D02*
X52367603Y-42270601D01*
X26670000Y-157988000D02*
X33782000Y-157988000D01*
X33782000Y-157988000D02*
X38938200Y-157988000D01*
X51348000Y-59222000D02*
X52367603Y-58202397D01*
X33742000Y-155194000D02*
X33742000Y-157948000D01*
X38580000Y-187452000D02*
X54148000Y-187452000D01*
X43180000Y-153746200D02*
X43180000Y-144780000D01*
X33742000Y-157948000D02*
X33782000Y-157988000D01*
X36040000Y-184912000D02*
X38580000Y-187452000D01*
X45172000Y-87122000D02*
X26670000Y-87122000D01*
X51348000Y-59262000D02*
X51348000Y-59222000D01*
X38938200Y-157988000D02*
X43180000Y-153746200D01*
X26670000Y-71882000D02*
X26823400Y-71728600D01*
X54610000Y-62524000D02*
X51348000Y-59262000D01*
%TO.N,Net-(Q1-C)*%
X41605200Y-125730000D02*
X40640000Y-125730000D01*
X43180000Y-127304800D02*
X41605200Y-125730000D01*
X43180000Y-134366000D02*
X43180000Y-127304800D01*
%TO.N,Net-(U1D-+)*%
X60660000Y-144780000D02*
X55372000Y-144780000D01*
X63500000Y-147620000D02*
X60660000Y-144780000D01*
%TO.N,Net-(Q3-C)*%
X62933812Y-113538000D02*
X64673800Y-111798012D01*
X64673800Y-111798012D02*
X64673800Y-107291622D01*
X63046178Y-105664000D02*
X62016000Y-105664000D01*
X62336000Y-113538000D02*
X62933812Y-113538000D01*
X64673800Y-107291622D02*
X63046178Y-105664000D01*
%TO.N,Net-(Q4-C)*%
X67016000Y-102910000D02*
X67056000Y-102870000D01*
%TO.N,Net-(Q4-B)*%
X69393800Y-114704378D02*
X69393800Y-111049800D01*
X68628778Y-115469400D02*
X69393800Y-114704378D01*
X49998000Y-118618000D02*
X53146600Y-115469400D01*
X69393800Y-111049800D02*
X69342000Y-110998000D01*
X69342000Y-110998000D02*
X71374000Y-110998000D01*
X53146600Y-115469400D02*
X68628778Y-115469400D01*
X67056000Y-110998000D02*
X69342000Y-110998000D01*
%TO.N,Net-(Q3-B)*%
X57912000Y-110998000D02*
X62336000Y-110998000D01*
%TO.N,IN*%
X62992000Y-184912000D02*
X74676000Y-173228000D01*
X36576000Y-119888000D02*
X36576000Y-105410000D01*
X45212000Y-125476000D02*
X41910000Y-122174000D01*
X38862000Y-122174000D02*
X36576000Y-119888000D01*
X74676000Y-173228000D02*
X74676000Y-131064000D01*
X61214000Y-184912000D02*
X62992000Y-184912000D01*
X69088000Y-125476000D02*
X45212000Y-125476000D01*
X41910000Y-122174000D02*
X38862000Y-122174000D01*
X74676000Y-131064000D02*
X69088000Y-125476000D01*
%TO.N,EXP*%
X55880000Y-150160000D02*
X58420000Y-147620000D01*
X55880000Y-152908000D02*
X55880000Y-150160000D01*
%TO.N,Net-(R1-Pad1)*%
X61468000Y-175052000D02*
X63500000Y-173020000D01*
X61468000Y-176530000D02*
X61468000Y-175052000D01*
%TO.N,Net-(R4-Pad2)*%
X50800000Y-149098000D02*
X50800000Y-140208000D01*
X48768000Y-153416000D02*
X48768000Y-151130000D01*
X48768000Y-151130000D02*
X50800000Y-149098000D01*
X50292000Y-154940000D02*
X48768000Y-153416000D01*
%TO.N,Net-(R22-Pad1)*%
X55626000Y-53894000D02*
X58420000Y-51100000D01*
X55626000Y-54610000D02*
X55626000Y-53894000D01*
%TO.N,Net-(U4B-+)*%
X63500000Y-51100000D02*
X63500000Y-54610000D01*
X65786000Y-54610000D02*
X63500000Y-54610000D01*
X61214000Y-54610000D02*
X56642000Y-59182000D01*
X63500000Y-54610000D02*
X61214000Y-54610000D01*
%TO.N,Net-(U3A--)*%
X32766000Y-59182000D02*
X32766000Y-47244000D01*
X32766000Y-47244000D02*
X38862000Y-41148000D01*
X38862000Y-41148000D02*
X38862000Y-36576000D01*
%TD*%
M02*
