%TF.GenerationSoftware,KiCad,Pcbnew,9.0.6*%
%TF.CreationDate,2026-04-22T21:59:24-07:00*%
%TF.ProjectId,modulinControl,6d6f6475-6c69-46e4-936f-6e74726f6c2e,rev?*%
%TF.SameCoordinates,Original*%
%TF.FileFunction,Soldermask,Top*%
%TF.FilePolarity,Negative*%
%FSLAX46Y46*%
G04 Gerber Fmt 4.6, Leading zero omitted, Abs format (unit mm)*
G04 Created by KiCad (PCBNEW 9.0.6) date 2026-04-22 21:59:24*
%MOMM*%
%LPD*%
G01*
G04 APERTURE LIST*
G04 Aperture macros list*
%AMRoundRect*
0 Rectangle with rounded corners*
0 $1 Rounding radius*
0 $2 $3 $4 $5 $6 $7 $8 $9 X,Y pos of 4 corners*
0 Add a 4 corners polygon primitive as box body*
4,1,4,$2,$3,$4,$5,$6,$7,$8,$9,$2,$3,0*
0 Add four circle primitives for the rounded corners*
1,1,$1+$1,$2,$3*
1,1,$1+$1,$4,$5*
1,1,$1+$1,$6,$7*
1,1,$1+$1,$8,$9*
0 Add four rect primitives between the rounded corners*
20,1,$1+$1,$2,$3,$4,$5,0*
20,1,$1+$1,$4,$5,$6,$7,0*
20,1,$1+$1,$6,$7,$8,$9,0*
20,1,$1+$1,$8,$9,$2,$3,0*%
G04 Aperture macros list end*
%ADD10C,1.905000*%
%ADD11C,1.727200*%
%ADD12C,6.000000*%
%ADD13R,1.727200X1.727200*%
%ADD14C,1.320800*%
%ADD15RoundRect,0.269875X-0.593725X0.593725X-0.593725X-0.593725X0.593725X-0.593725X0.593725X0.593725X0*%
G04 APERTURE END LIST*
D10*
%TO.C,J2*%
X88980000Y-30480000D03*
X93980000Y-30480000D03*
X98980000Y-30480000D03*
X103980000Y-30480000D03*
X108980000Y-30480000D03*
X113980000Y-30480000D03*
%TD*%
D11*
%TO.C,R7*%
X107442000Y-52070000D03*
X117602000Y-52070000D03*
%TD*%
%TO.C,C4*%
X78740000Y-55586000D03*
X78740000Y-50586000D03*
%TD*%
D12*
%TO.C,REF\u002A\u002A*%
X121920000Y-30480000D03*
%TD*%
D13*
%TO.C,D1*%
X108458000Y-40386000D03*
D11*
X100838000Y-40386000D03*
%TD*%
D14*
%TO.C,RV2*%
X100076000Y-54864000D03*
X100076000Y-57404000D03*
X100076000Y-59944000D03*
%TD*%
D11*
%TO.C,C3*%
X99060000Y-50586000D03*
X99060000Y-45586000D03*
%TD*%
%TO.C,C5*%
X75144000Y-60960000D03*
X70144000Y-60960000D03*
%TD*%
D15*
%TO.C,C2*%
X68580000Y-31760000D03*
D11*
X68580000Y-35560000D03*
%TD*%
D14*
%TO.C,RV3*%
X112776000Y-47926000D03*
X112776000Y-45386000D03*
X112776000Y-42846000D03*
%TD*%
D12*
%TO.C,REF\u002A\u002A*%
X55880000Y-71120000D03*
%TD*%
D11*
%TO.C,R4*%
X98298000Y-42926000D03*
X108458000Y-42926000D03*
%TD*%
D12*
%TO.C,REF\u002A\u002A*%
X121920000Y-71120000D03*
%TD*%
D11*
%TO.C,R6*%
X104394000Y-45720000D03*
X104394000Y-55880000D03*
%TD*%
D12*
%TO.C,REF\u002A\u002A*%
X55880000Y-30480000D03*
%TD*%
D10*
%TO.C,J1*%
X83740000Y-71120000D03*
X78740000Y-71120000D03*
X73740000Y-71120000D03*
X68740000Y-71120000D03*
X63740000Y-71120000D03*
%TD*%
D11*
%TO.C,R3*%
X68580000Y-64008000D03*
X78740000Y-64008000D03*
%TD*%
%TO.C,R2*%
X74422000Y-42926000D03*
X84582000Y-42926000D03*
%TD*%
%TO.C,R1*%
X84582000Y-55626000D03*
X84582000Y-45466000D03*
%TD*%
D15*
%TO.C,C1*%
X78740000Y-27940000D03*
D11*
X78740000Y-31740000D03*
%TD*%
D14*
%TO.C,U1*%
X95250000Y-58166000D03*
X95250000Y-55626000D03*
X95250000Y-53086000D03*
X95250000Y-50546000D03*
X95250000Y-48006000D03*
X95250000Y-45466000D03*
X95250000Y-42926000D03*
X87630000Y-42926000D03*
X87630000Y-45466000D03*
X87630000Y-48006000D03*
X87630000Y-50546000D03*
X87630000Y-53086000D03*
X87630000Y-55626000D03*
X87630000Y-58166000D03*
%TD*%
%TO.C,RV1*%
X70358000Y-42926000D03*
X70358000Y-45466000D03*
X70358000Y-48006000D03*
%TD*%
D11*
%TO.C,R5*%
X89916000Y-64008000D03*
X100076000Y-64008000D03*
%TD*%
M02*
