M48
; DRILL file {KiCad 9.0.6} date 2026-04-22T21:59:27-0700
; FORMAT={-:-/ absolute / metric / decimal}
; #@! TF.CreationDate,2026-04-22T21:59:27-07:00
; #@! TF.GenerationSoftware,Kicad,Pcbnew,9.0.6
; #@! TF.FileFunction,Plated,1,2,PTH
FMAT,2
METRIC
; #@! TA.AperFunction,Plated,PTH,ViaDrill
T1C0.813
; #@! TA.AperFunction,Plated,PTH,ComponentDrill
T2C0.813
; #@! TA.AperFunction,Plated,PTH,ComponentDrill
T3C1.016
; #@! TA.AperFunction,Plated,PTH,ComponentDrill
T4C1.397
; #@! TA.AperFunction,Plated,PTH,ComponentDrill
T5C3.300
%
G90
G05
T1
X66.548Y-48.656
X91.186Y-35.56
X92.71Y-53.086
T2
X68.58Y-31.76
X68.58Y-35.56
X68.58Y-64.008
X70.144Y-60.96
X70.358Y-42.926
X70.358Y-45.466
X70.358Y-48.006
X74.422Y-42.926
X75.144Y-60.96
X78.74Y-27.94
X78.74Y-31.74
X78.74Y-50.586
X78.74Y-55.586
X78.74Y-64.008
X84.582Y-42.926
X84.582Y-45.466
X84.582Y-55.626
X87.63Y-42.926
X87.63Y-45.466
X87.63Y-48.006
X87.63Y-50.546
X87.63Y-53.086
X87.63Y-55.626
X87.63Y-58.166
X89.916Y-64.008
X95.25Y-42.926
X95.25Y-45.466
X95.25Y-48.006
X95.25Y-50.546
X95.25Y-53.086
X95.25Y-55.626
X95.25Y-58.166
X98.298Y-42.926
X99.06Y-45.586
X99.06Y-50.586
X100.076Y-54.864
X100.076Y-57.404
X100.076Y-59.944
X100.076Y-64.008
X104.394Y-45.72
X104.394Y-55.88
X107.442Y-52.07
X108.458Y-42.926
X112.776Y-42.846
X112.776Y-45.386
X112.776Y-47.926
X117.602Y-52.07
T3
X100.838Y-40.386
X108.458Y-40.386
T4
X63.74Y-71.12
X68.74Y-71.12
X73.74Y-71.12
X78.74Y-71.12
X83.74Y-71.12
X88.98Y-30.48
X93.98Y-30.48
X98.98Y-30.48
X103.98Y-30.48
X108.98Y-30.48
X113.98Y-30.48
T5
X55.88Y-30.48
X55.88Y-71.12
X121.92Y-30.48
X121.92Y-71.12
M30
