%TF.GenerationSoftware,KiCad,Pcbnew,9.0.6*%
%TF.CreationDate,2026-04-22T21:59:24-07:00*%
%TF.ProjectId,modulinControl,6d6f6475-6c69-46e4-936f-6e74726f6c2e,rev?*%
%TF.SameCoordinates,Original*%
%TF.FileFunction,Copper,L2,Bot*%
%TF.FilePolarity,Positive*%
%FSLAX46Y46*%
G04 Gerber Fmt 4.6, Leading zero omitted, Abs format (unit mm)*
G04 Created by KiCad (PCBNEW 9.0.6) date 2026-04-22 21:59:24*
%MOMM*%
%LPD*%
G01*
G04 APERTURE LIST*
G04 Aperture macros list*
%AMRoundRect*
0 Rectangle with rounded corners*
0 $1 Rounding radius*
0 $2 $3 $4 $5 $6 $7 $8 $9 X,Y pos of 4 corners*
0 Add a 4 corners polygon primitive as box body*
4,1,4,$2,$3,$4,$5,$6,$7,$8,$9,$2,$3,0*
0 Add four circle primitives for the rounded corners*
1,1,$1+$1,$2,$3*
1,1,$1+$1,$4,$5*
1,1,$1+$1,$6,$7*
1,1,$1+$1,$8,$9*
0 Add four rect primitives between the rounded corners*
20,1,$1+$1,$2,$3,$4,$5,0*
20,1,$1+$1,$4,$5,$6,$7,0*
20,1,$1+$1,$6,$7,$8,$9,0*
20,1,$1+$1,$8,$9,$2,$3,0*%
G04 Aperture macros list end*
%TA.AperFunction,ComponentPad*%
%ADD10C,1.905000*%
%TD*%
%TA.AperFunction,SMDPad,CuDef*%
%ADD11C,2.794000*%
%TD*%
%TA.AperFunction,ComponentPad*%
%ADD12C,1.727200*%
%TD*%
%TA.AperFunction,ComponentPad*%
%ADD13C,6.000000*%
%TD*%
%TA.AperFunction,ComponentPad*%
%ADD14R,1.727200X1.727200*%
%TD*%
%TA.AperFunction,ComponentPad*%
%ADD15C,1.320800*%
%TD*%
%TA.AperFunction,SMDPad,CuDef*%
%ADD16C,1.676400*%
%TD*%
%TA.AperFunction,ComponentPad*%
%ADD17RoundRect,0.269875X-0.593725X0.593725X-0.593725X-0.593725X0.593725X-0.593725X0.593725X0.593725X0*%
%TD*%
%TA.AperFunction,SMDPad,CuDef*%
%ADD18RoundRect,0.250000X1.020000X0.613600X-1.020000X0.613600X-1.020000X-0.613600X1.020000X-0.613600X0*%
%TD*%
%TA.AperFunction,SMDPad,CuDef*%
%ADD19O,2.540000X1.727200*%
%TD*%
%TA.AperFunction,ViaPad*%
%ADD20C,1.727200*%
%TD*%
%TA.AperFunction,Conductor*%
%ADD21C,0.508000*%
%TD*%
G04 APERTURE END LIST*
D10*
%TO.P,J2,1,Pin_1*%
%TO.N,VEE*%
X88980000Y-30480000D03*
D11*
X88980000Y-30480000D03*
D10*
%TO.P,J2,2,Pin_2*%
%TO.N,GND*%
X93980000Y-30480000D03*
D11*
X93980000Y-30480000D03*
D10*
%TO.P,J2,3,Pin_3*%
%TO.N,VCC*%
X98980000Y-30480000D03*
D11*
X98980000Y-30480000D03*
D10*
%TO.P,J2,4,Pin_4*%
%TO.N,NOTE*%
X103980000Y-30480000D03*
D11*
X103980000Y-30480000D03*
D10*
%TO.P,J2,5,Pin_5*%
%TO.N,EXP*%
X108980000Y-30480000D03*
D11*
X108980000Y-30480000D03*
D10*
%TO.P,J2,6,Pin_6*%
%TO.N,GATE*%
X113980000Y-30480000D03*
D11*
X113980000Y-30480000D03*
%TD*%
D12*
%TO.P,R7,1*%
%TO.N,VCC*%
X107442000Y-52070000D03*
%TO.P,R7,2*%
%TO.N,Net-(R7-Pad2)*%
X117602000Y-52070000D03*
%TD*%
%TO.P,C4,1*%
%TO.N,GND*%
X78740000Y-55586000D03*
%TO.P,C4,2*%
%TO.N,VEE*%
X78740000Y-50586000D03*
%TD*%
D13*
%TO.P,REF\u002A\u002A,MP*%
%TO.N,N/C*%
X121920000Y-30480000D03*
%TD*%
D14*
%TO.P,D1,1,K*%
%TO.N,GATE*%
X108458000Y-40386000D03*
D12*
%TO.P,D1,2,A*%
%TO.N,GND*%
X100838000Y-40386000D03*
%TD*%
D15*
%TO.P,RV2,1,1*%
%TO.N,Net-(R6-Pad2)*%
X100076000Y-54864000D03*
D16*
X100076000Y-54864000D03*
D15*
%TO.P,RV2,2,2*%
%TO.N,Net-(U1A--)*%
X100076000Y-57404000D03*
D16*
X100076000Y-57404000D03*
D15*
%TO.P,RV2,3,3*%
%TO.N,Net-(R5-Pad2)*%
X100076000Y-59944000D03*
D16*
X100076000Y-59944000D03*
%TD*%
D12*
%TO.P,C3,1*%
%TO.N,VCC*%
X99060000Y-50586000D03*
%TO.P,C3,2*%
%TO.N,GND*%
X99060000Y-45586000D03*
%TD*%
%TO.P,C5,1*%
%TO.N,RibbonPosition*%
X75144000Y-60960000D03*
%TO.P,C5,2*%
%TO.N,GND*%
X70144000Y-60960000D03*
%TD*%
D17*
%TO.P,C2,1*%
%TO.N,GND*%
X68580000Y-31760000D03*
D12*
%TO.P,C2,2*%
%TO.N,VCC*%
X68580000Y-35560000D03*
%TD*%
D15*
%TO.P,RV3,1,1*%
%TO.N,Net-(R7-Pad2)*%
X112776000Y-47926000D03*
D16*
X112776000Y-47926000D03*
D15*
%TO.P,RV3,2,2*%
%TO.N,Net-(U1B--)*%
X112776000Y-45386000D03*
D16*
X112776000Y-45386000D03*
D15*
%TO.P,RV3,3,3*%
%TO.N,GND*%
X112776000Y-42846000D03*
D16*
X112776000Y-42846000D03*
%TD*%
D13*
%TO.P,REF\u002A\u002A,MP*%
%TO.N,N/C*%
X55880000Y-71120000D03*
%TD*%
D12*
%TO.P,R4,1*%
%TO.N,Net-(R4-Pad1)*%
X98298000Y-42926000D03*
%TO.P,R4,2*%
%TO.N,GATE*%
X108458000Y-42926000D03*
%TD*%
D13*
%TO.P,REF\u002A\u002A,MP*%
%TO.N,N/C*%
X121920000Y-71120000D03*
%TD*%
D12*
%TO.P,R6,1*%
%TO.N,GND*%
X104394000Y-45720000D03*
%TO.P,R6,2*%
%TO.N,Net-(R6-Pad2)*%
X104394000Y-55880000D03*
%TD*%
D13*
%TO.P,REF\u002A\u002A,MP*%
%TO.N,N/C*%
X55880000Y-30480000D03*
%TD*%
D10*
%TO.P,J1,1,Pin_1*%
%TO.N,VCC*%
X83740000Y-71120000D03*
D11*
X83740000Y-71120000D03*
D10*
%TO.P,J1,2,Pin_2*%
%TO.N,RibbonPressure*%
X78740000Y-71120000D03*
D11*
X78740000Y-71120000D03*
D10*
%TO.P,J1,3,Pin_3*%
%TO.N,VCC*%
X73740000Y-71120000D03*
D11*
X73740000Y-71120000D03*
D10*
%TO.P,J1,4,Pin_4*%
%TO.N,RibbonPosition*%
X68740000Y-71120000D03*
D11*
X68740000Y-71120000D03*
D10*
%TO.P,J1,5,Pin_5*%
%TO.N,GND*%
X63740000Y-71120000D03*
D11*
X63740000Y-71120000D03*
%TD*%
D12*
%TO.P,R3,1*%
%TO.N,GND*%
X68580000Y-64008000D03*
%TO.P,R3,2*%
%TO.N,RibbonPressure*%
X78740000Y-64008000D03*
%TD*%
%TO.P,R2,1*%
%TO.N,Net-(U1C--)*%
X74422000Y-42926000D03*
%TO.P,R2,2*%
%TO.N,NOTE*%
X84582000Y-42926000D03*
%TD*%
%TO.P,R1,1*%
%TO.N,Net-(U1D--)*%
X84582000Y-55626000D03*
%TO.P,R1,2*%
%TO.N,Net-(U1C--)*%
X84582000Y-45466000D03*
%TD*%
D17*
%TO.P,C1,1*%
%TO.N,VEE*%
X78740000Y-27940000D03*
D12*
%TO.P,C1,2*%
%TO.N,GND*%
X78740000Y-31740000D03*
%TD*%
D15*
%TO.P,U1,1*%
%TO.N,EXP*%
X95250000Y-58166000D03*
D18*
X95250000Y-58166000D03*
D15*
%TO.P,U1,2,-*%
%TO.N,Net-(U1A--)*%
X95250000Y-55626000D03*
D19*
X95250000Y-55626000D03*
D15*
%TO.P,U1,3,+*%
%TO.N,RibbonPressure*%
X95250000Y-53086000D03*
D19*
X95250000Y-53086000D03*
D15*
%TO.P,U1,4,V+*%
%TO.N,VCC*%
X95250000Y-50546000D03*
D19*
X95250000Y-50546000D03*
D15*
%TO.P,U1,5,+*%
%TO.N,EXP*%
X95250000Y-48006000D03*
D19*
X95250000Y-48006000D03*
D15*
%TO.P,U1,6,-*%
%TO.N,Net-(U1B--)*%
X95250000Y-45466000D03*
D19*
X95250000Y-45466000D03*
D15*
%TO.P,U1,7*%
%TO.N,Net-(R4-Pad1)*%
X95250000Y-42926000D03*
D19*
X95250000Y-42926000D03*
D15*
%TO.P,U1,8*%
%TO.N,NOTE*%
X87630000Y-42926000D03*
D19*
X87630000Y-42926000D03*
D15*
%TO.P,U1,9,-*%
%TO.N,Net-(U1C--)*%
X87630000Y-45466000D03*
D19*
X87630000Y-45466000D03*
D15*
%TO.P,U1,10,+*%
%TO.N,Net-(U1C-+)*%
X87630000Y-48006000D03*
D19*
X87630000Y-48006000D03*
D15*
%TO.P,U1,11,V-*%
%TO.N,VEE*%
X87630000Y-50546000D03*
D19*
X87630000Y-50546000D03*
D15*
%TO.P,U1,12,+*%
%TO.N,RibbonPosition*%
X87630000Y-53086000D03*
D19*
X87630000Y-53086000D03*
D15*
%TO.P,U1,13,-*%
%TO.N,Net-(U1D--)*%
X87630000Y-55626000D03*
D19*
X87630000Y-55626000D03*
D15*
%TO.P,U1,14*%
X87630000Y-58166000D03*
D19*
X87630000Y-58166000D03*
%TD*%
D15*
%TO.P,RV1,1,1*%
%TO.N,VCC*%
X70358000Y-42926000D03*
D16*
X70358000Y-42926000D03*
D15*
%TO.P,RV1,2,2*%
%TO.N,Net-(U1C-+)*%
X70358000Y-45466000D03*
D16*
X70358000Y-45466000D03*
D15*
%TO.P,RV1,3,3*%
%TO.N,GND*%
X70358000Y-48006000D03*
D16*
X70358000Y-48006000D03*
%TD*%
D12*
%TO.P,R5,1*%
%TO.N,EXP*%
X89916000Y-64008000D03*
%TO.P,R5,2*%
%TO.N,Net-(R5-Pad2)*%
X100076000Y-64008000D03*
%TD*%
D20*
%TO.N,GND*%
X66548000Y-48655600D03*
%TO.N,VCC*%
X91186000Y-35560000D03*
%TO.N,RibbonPressure*%
X92710000Y-53086000D03*
%TD*%
D21*
%TO.N,GND*%
X100838000Y-40386000D02*
X100838000Y-45586000D01*
X70144000Y-62444000D02*
X68580000Y-64008000D01*
X109746508Y-45720000D02*
X112620508Y-42846000D01*
X96444800Y-28015200D02*
X110000954Y-28015200D01*
X112620508Y-42846000D02*
X112776000Y-42846000D01*
X80020000Y-33020000D02*
X91440000Y-33020000D01*
X102559754Y-40386000D02*
X100838000Y-40386000D01*
X99060000Y-45586000D02*
X100838000Y-45586000D01*
X66548000Y-33792000D02*
X66548000Y-48655600D01*
X63740000Y-68848000D02*
X63740000Y-71120000D01*
X68580000Y-64008000D02*
X63740000Y-68848000D01*
X78720000Y-31760000D02*
X78740000Y-31740000D01*
X111444800Y-31500954D02*
X102559754Y-40386000D01*
X111444800Y-29459046D02*
X111444800Y-31500954D01*
X104394000Y-45720000D02*
X109746508Y-45720000D01*
X93980000Y-30480000D02*
X96444800Y-28015200D01*
X78740000Y-31740000D02*
X80020000Y-33020000D01*
X70144000Y-60960000D02*
X70144000Y-62444000D01*
X110000954Y-28015200D02*
X111444800Y-29459046D01*
X100838000Y-45586000D02*
X104260000Y-45586000D01*
X68580000Y-31760000D02*
X66548000Y-33792000D01*
X91440000Y-33020000D02*
X93980000Y-30480000D01*
X68580000Y-31760000D02*
X78720000Y-31760000D01*
%TO.N,VEE*%
X78740000Y-27940000D02*
X64262000Y-27940000D01*
X64262000Y-27940000D02*
X55880000Y-36322000D01*
X55880000Y-46736000D02*
X59730000Y-50586000D01*
X77724000Y-50586000D02*
X87590000Y-50586000D01*
X86440000Y-27940000D02*
X88980000Y-30480000D01*
X59730000Y-50586000D02*
X77724000Y-50586000D01*
X78740000Y-27940000D02*
X86440000Y-27940000D01*
X87590000Y-50586000D02*
X87630000Y-50546000D01*
X55880000Y-36322000D02*
X55880000Y-46736000D01*
%TO.N,VCC*%
X96520000Y-50546000D02*
X96560000Y-50586000D01*
X104648000Y-50586000D02*
X105958000Y-50586000D01*
X93900000Y-35560000D02*
X98980000Y-30480000D01*
X81280000Y-73660000D02*
X81280000Y-73580000D01*
X68580000Y-41148000D02*
X70358000Y-42926000D01*
X107442000Y-52070000D02*
X107442000Y-59373413D01*
X73740000Y-71120000D02*
X76280000Y-73660000D01*
X76280000Y-73660000D02*
X81280000Y-73660000D01*
X96560000Y-50586000D02*
X104648000Y-50586000D01*
X81280000Y-73580000D02*
X83740000Y-71120000D01*
X95695413Y-71120000D02*
X83740000Y-71120000D01*
X95250000Y-50546000D02*
X96520000Y-50546000D01*
X105958000Y-50586000D02*
X107442000Y-52070000D01*
X91186000Y-35560000D02*
X93900000Y-35560000D01*
X68580000Y-35560000D02*
X68580000Y-41148000D01*
X68580000Y-35560000D02*
X91186000Y-35560000D01*
X107442000Y-59373413D02*
X95695413Y-71120000D01*
%TO.N,RibbonPosition*%
X78586600Y-57517400D02*
X68740000Y-67364000D01*
X68740000Y-67364000D02*
X68740000Y-71120000D01*
X84328000Y-53086000D02*
X79896600Y-57517400D01*
X87630000Y-53086000D02*
X84328000Y-53086000D01*
X79896600Y-57517400D02*
X78586600Y-57517400D01*
%TO.N,GATE*%
X108458000Y-40386000D02*
X113980000Y-34864000D01*
X113980000Y-34864000D02*
X113980000Y-30480000D01*
X108458000Y-40386000D02*
X108458000Y-42926000D01*
%TO.N,RibbonPressure*%
X78740000Y-64008000D02*
X78740000Y-71120000D01*
X92710000Y-53086000D02*
X95250000Y-53086000D01*
%TO.N,EXP*%
X89967800Y-45070388D02*
X97192188Y-37846000D01*
X89916000Y-64008000D02*
X89967800Y-63956200D01*
X97192188Y-37846000D02*
X101614000Y-37846000D01*
X95250000Y-48006000D02*
X89967800Y-48006000D01*
X101614000Y-37846000D02*
X108980000Y-30480000D01*
X89967800Y-48006000D02*
X89967800Y-45070388D01*
X89967800Y-63956200D02*
X89967800Y-58166000D01*
X89967800Y-58166000D02*
X89967800Y-48006000D01*
X95250000Y-58166000D02*
X89967800Y-58166000D01*
%TO.N,NOTE*%
X89662000Y-42926000D02*
X96266000Y-36322000D01*
X96266000Y-36322000D02*
X100838000Y-36322000D01*
X103980000Y-33180000D02*
X103980000Y-30480000D01*
X84582000Y-42926000D02*
X87630000Y-42926000D01*
X100838000Y-36322000D02*
X103980000Y-33180000D01*
X87630000Y-42926000D02*
X89662000Y-42926000D01*
%TO.N,Net-(U1B--)*%
X109474000Y-48006000D02*
X98552000Y-48006000D01*
X98552000Y-48006000D02*
X96012000Y-45466000D01*
X96012000Y-45466000D02*
X95250000Y-45466000D01*
X112776000Y-45466000D02*
X112014000Y-45466000D01*
X112014000Y-45466000D02*
X109474000Y-48006000D01*
%TO.N,Net-(U1A--)*%
X99920508Y-57404000D02*
X100076000Y-57404000D01*
X95250000Y-55626000D02*
X98142508Y-55626000D01*
X98142508Y-55626000D02*
X99920508Y-57404000D01*
%TO.N,Net-(R4-Pad1)*%
X95250000Y-42926000D02*
X98298000Y-42926000D01*
%TO.N,Net-(R5-Pad2)*%
X100076000Y-59944000D02*
X100076000Y-64008000D01*
%TO.N,Net-(R6-Pad2)*%
X100076000Y-54864000D02*
X103378000Y-54864000D01*
X103378000Y-54864000D02*
X104394000Y-55880000D01*
%TO.N,Net-(R7-Pad2)*%
X116920000Y-52070000D02*
X117602000Y-52070000D01*
X112776000Y-47926000D02*
X116920000Y-52070000D01*
%TO.N,Net-(U1C--)*%
X74422000Y-42926000D02*
X76962000Y-45466000D01*
X84582000Y-45466000D02*
X87630000Y-45466000D01*
X76962000Y-45466000D02*
X84582000Y-45466000D01*
%TO.N,Net-(U1D--)*%
X87630000Y-58166000D02*
X87630000Y-55626000D01*
X84582000Y-55626000D02*
X87630000Y-55626000D01*
%TO.N,Net-(U1C-+)*%
X71882000Y-45466000D02*
X74422000Y-48006000D01*
X74422000Y-48006000D02*
X87630000Y-48006000D01*
X70358000Y-45466000D02*
X71882000Y-45466000D01*
%TD*%
%TA.AperFunction,Conductor*%
%TO.N,GND*%
G36*
X119384730Y-26213477D02*
G01*
X119879207Y-26231979D01*
X119898072Y-26233392D01*
X120385081Y-26288265D01*
X120403787Y-26291085D01*
X120474834Y-26304527D01*
X120739303Y-26354568D01*
X120830852Y-26391489D01*
X120901304Y-26460636D01*
X120939932Y-26551480D01*
X120940855Y-26650191D01*
X120903933Y-26741742D01*
X120834786Y-26812194D01*
X120765710Y-26845261D01*
X120633797Y-26885277D01*
X120633790Y-26885279D01*
X120287644Y-27028657D01*
X120287635Y-27028661D01*
X119957208Y-27205279D01*
X119645678Y-27413436D01*
X119645675Y-27413438D01*
X119356056Y-27651122D01*
X119356056Y-27651123D01*
X119091123Y-27916056D01*
X119091122Y-27916056D01*
X118853438Y-28205675D01*
X118853436Y-28205678D01*
X118645279Y-28517208D01*
X118468661Y-28847635D01*
X118468657Y-28847644D01*
X118325279Y-29193790D01*
X118216521Y-29552317D01*
X118216520Y-29552322D01*
X118216519Y-29552326D01*
X118203244Y-29619065D01*
X118143423Y-29919802D01*
X118106700Y-30292661D01*
X118106700Y-30667338D01*
X118143423Y-31040197D01*
X118143424Y-31040202D01*
X118209783Y-31373812D01*
X118216520Y-31407677D01*
X118216521Y-31407682D01*
X118325279Y-31766209D01*
X118463212Y-32099210D01*
X118468660Y-32112362D01*
X118645279Y-32442792D01*
X118853435Y-32754320D01*
X118853436Y-32754321D01*
X118853438Y-32754324D01*
X119091122Y-33043943D01*
X119091123Y-33043944D01*
X119356056Y-33308877D01*
X119645680Y-33546565D01*
X119957208Y-33754721D01*
X120287638Y-33931340D01*
X120633789Y-34074720D01*
X120992326Y-34183481D01*
X121359798Y-34256576D01*
X121732665Y-34293300D01*
X121732666Y-34293300D01*
X122107334Y-34293300D01*
X122107335Y-34293300D01*
X122480202Y-34256576D01*
X122847674Y-34183481D01*
X123206211Y-34074720D01*
X123552362Y-33931340D01*
X123882792Y-33754721D01*
X124194320Y-33546565D01*
X124483944Y-33308877D01*
X124748877Y-33043944D01*
X124986565Y-32754320D01*
X125194721Y-32442792D01*
X125371340Y-32112362D01*
X125514720Y-31766211D01*
X125554738Y-31634288D01*
X125572807Y-31600482D01*
X125587805Y-31565213D01*
X125595914Y-31557254D01*
X125601271Y-31547232D01*
X125630902Y-31522913D01*
X125658257Y-31496066D01*
X125668794Y-31491816D01*
X125677579Y-31484607D01*
X125714265Y-31473478D01*
X125749808Y-31459144D01*
X125761168Y-31459250D01*
X125772044Y-31455951D01*
X125810195Y-31459708D01*
X125848519Y-31460067D01*
X125858975Y-31464513D01*
X125870285Y-31465627D01*
X125904093Y-31483697D01*
X125939363Y-31498695D01*
X125947321Y-31506804D01*
X125957344Y-31512161D01*
X125981662Y-31541792D01*
X126008510Y-31569147D01*
X126012759Y-31579684D01*
X126019969Y-31588469D01*
X126045432Y-31660698D01*
X126108914Y-31996212D01*
X126111734Y-32014920D01*
X126166606Y-32501926D01*
X126168020Y-32520793D01*
X126186523Y-33015269D01*
X126186700Y-33024729D01*
X126186700Y-68575270D01*
X126186523Y-68584730D01*
X126168020Y-69079206D01*
X126166606Y-69098073D01*
X126111734Y-69585079D01*
X126108914Y-69603787D01*
X126045432Y-69939301D01*
X126008510Y-70030852D01*
X125939363Y-70101304D01*
X125848519Y-70139932D01*
X125749808Y-70140855D01*
X125658257Y-70103933D01*
X125587805Y-70034786D01*
X125554737Y-69965708D01*
X125531669Y-69889662D01*
X125514720Y-69833789D01*
X125371340Y-69487638D01*
X125194721Y-69157208D01*
X124986565Y-68845680D01*
X124748877Y-68556056D01*
X124483944Y-68291123D01*
X124194320Y-68053435D01*
X123882792Y-67845279D01*
X123552362Y-67668660D01*
X123206211Y-67525280D01*
X123206212Y-67525280D01*
X123206209Y-67525279D01*
X122847682Y-67416521D01*
X122847677Y-67416520D01*
X122847674Y-67416519D01*
X122480202Y-67343424D01*
X122480197Y-67343423D01*
X122107338Y-67306700D01*
X122107335Y-67306700D01*
X121732665Y-67306700D01*
X121732661Y-67306700D01*
X121359802Y-67343423D01*
X121176062Y-67379971D01*
X120992326Y-67416519D01*
X120992324Y-67416519D01*
X120992322Y-67416520D01*
X120992317Y-67416521D01*
X120633790Y-67525279D01*
X120287644Y-67668657D01*
X120287635Y-67668661D01*
X119957208Y-67845279D01*
X119645678Y-68053436D01*
X119645675Y-68053438D01*
X119356056Y-68291122D01*
X119356056Y-68291123D01*
X119091123Y-68556056D01*
X119091122Y-68556056D01*
X118853438Y-68845675D01*
X118853436Y-68845678D01*
X118645279Y-69157208D01*
X118468661Y-69487635D01*
X118468657Y-69487644D01*
X118325279Y-69833790D01*
X118216521Y-70192317D01*
X118216520Y-70192322D01*
X118143423Y-70559802D01*
X118106700Y-70932661D01*
X118106700Y-71307338D01*
X118143423Y-71680197D01*
X118143424Y-71680202D01*
X118211171Y-72020790D01*
X118216520Y-72047677D01*
X118216521Y-72047682D01*
X118325279Y-72406209D01*
X118397464Y-72580479D01*
X118468660Y-72752362D01*
X118645279Y-73082792D01*
X118853435Y-73394320D01*
X119091123Y-73683944D01*
X119356056Y-73948877D01*
X119645680Y-74186565D01*
X119957208Y-74394721D01*
X120287638Y-74571340D01*
X120633789Y-74714720D01*
X120765708Y-74754737D01*
X120799517Y-74772808D01*
X120834786Y-74787805D01*
X120842743Y-74795913D01*
X120852768Y-74801271D01*
X120877086Y-74830904D01*
X120903933Y-74858257D01*
X120908183Y-74868796D01*
X120915392Y-74877580D01*
X120926519Y-74914262D01*
X120940855Y-74949808D01*
X120940748Y-74961169D01*
X120944048Y-74972045D01*
X120940290Y-75010196D01*
X120939932Y-75048519D01*
X120935485Y-75058975D01*
X120934372Y-75070285D01*
X120916300Y-75104094D01*
X120901304Y-75139363D01*
X120893195Y-75147320D01*
X120887838Y-75157345D01*
X120858204Y-75181663D01*
X120830852Y-75208510D01*
X120820312Y-75212760D01*
X120811529Y-75219969D01*
X120739301Y-75245432D01*
X120403787Y-75308914D01*
X120385079Y-75311734D01*
X119898073Y-75366606D01*
X119879206Y-75368020D01*
X119384730Y-75386523D01*
X119375270Y-75386700D01*
X58424730Y-75386700D01*
X58415270Y-75386523D01*
X57920793Y-75368020D01*
X57901926Y-75366606D01*
X57414920Y-75311734D01*
X57396212Y-75308914D01*
X57060698Y-75245432D01*
X56969147Y-75208510D01*
X56898695Y-75139363D01*
X56860067Y-75048519D01*
X56859144Y-74949808D01*
X56896066Y-74858257D01*
X56965213Y-74787805D01*
X57034288Y-74754738D01*
X57166211Y-74714720D01*
X57512362Y-74571340D01*
X57842792Y-74394721D01*
X58154320Y-74186565D01*
X58443944Y-73948877D01*
X58708877Y-73683944D01*
X58946565Y-73394320D01*
X59154721Y-73082792D01*
X59331340Y-72752362D01*
X59474720Y-72406211D01*
X59583481Y-72047674D01*
X59656576Y-71680202D01*
X59693300Y-71307335D01*
X59693300Y-70975161D01*
X61530200Y-70975161D01*
X61530200Y-71264838D01*
X61568010Y-71552037D01*
X61568010Y-71552040D01*
X61642979Y-71831830D01*
X61642986Y-71831849D01*
X61753834Y-72099459D01*
X61753841Y-72099475D01*
X61898670Y-72350324D01*
X61898679Y-72350337D01*
X62007992Y-72492796D01*
X63100180Y-71400607D01*
X63120997Y-71450864D01*
X63197439Y-71565268D01*
X63294732Y-71662561D01*
X63409136Y-71739003D01*
X63459390Y-71759818D01*
X62367201Y-72852006D01*
X62509662Y-72961320D01*
X62509675Y-72961329D01*
X62760524Y-73106158D01*
X62760540Y-73106165D01*
X63028150Y-73217013D01*
X63028169Y-73217020D01*
X63307960Y-73291989D01*
X63595161Y-73329799D01*
X63595164Y-73329800D01*
X63884836Y-73329800D01*
X63884838Y-73329799D01*
X64172037Y-73291989D01*
X64172040Y-73291989D01*
X64451830Y-73217020D01*
X64451849Y-73217013D01*
X64719459Y-73106165D01*
X64719475Y-73106158D01*
X64970335Y-72961323D01*
X64970337Y-72961322D01*
X65112796Y-72852007D01*
X65112797Y-72852007D01*
X64020609Y-71759819D01*
X64070864Y-71739003D01*
X64185268Y-71662561D01*
X64282561Y-71565268D01*
X64359003Y-71450864D01*
X64379819Y-71400609D01*
X65472007Y-72492797D01*
X65472007Y-72492796D01*
X65581322Y-72350337D01*
X65581323Y-72350335D01*
X65726158Y-72099475D01*
X65726165Y-72099459D01*
X65837013Y-71831849D01*
X65837020Y-71831830D01*
X65911989Y-71552040D01*
X65911989Y-71552037D01*
X65949799Y-71264838D01*
X65949800Y-71264835D01*
X65949800Y-70975164D01*
X65949799Y-70975161D01*
X65911989Y-70687962D01*
X65911989Y-70687959D01*
X65837020Y-70408169D01*
X65837013Y-70408150D01*
X65726165Y-70140540D01*
X65726158Y-70140524D01*
X65581329Y-69889675D01*
X65581320Y-69889662D01*
X65472006Y-69747201D01*
X64379818Y-70839389D01*
X64359003Y-70789136D01*
X64282561Y-70674732D01*
X64185268Y-70577439D01*
X64070864Y-70500997D01*
X64020607Y-70480180D01*
X65112796Y-69387992D01*
X64970337Y-69278679D01*
X64970324Y-69278670D01*
X64719475Y-69133841D01*
X64719459Y-69133834D01*
X64451849Y-69022986D01*
X64451830Y-69022979D01*
X64172039Y-68948010D01*
X63884838Y-68910200D01*
X63595161Y-68910200D01*
X63307962Y-68948010D01*
X63307959Y-68948010D01*
X63028169Y-69022979D01*
X63028150Y-69022986D01*
X62760540Y-69133834D01*
X62760524Y-69133841D01*
X62509673Y-69278671D01*
X62509663Y-69278678D01*
X62367201Y-69387991D01*
X63459390Y-70480180D01*
X63409136Y-70500997D01*
X63294732Y-70577439D01*
X63197439Y-70674732D01*
X63120997Y-70789136D01*
X63100180Y-70839390D01*
X62007991Y-69747201D01*
X61898678Y-69889663D01*
X61898671Y-69889673D01*
X61753841Y-70140524D01*
X61753834Y-70140540D01*
X61642986Y-70408150D01*
X61642979Y-70408169D01*
X61568010Y-70687959D01*
X61568010Y-70687962D01*
X61530200Y-70975161D01*
X59693300Y-70975161D01*
X59693300Y-70932665D01*
X59656576Y-70559798D01*
X59583481Y-70192326D01*
X59474720Y-69833789D01*
X59331340Y-69487638D01*
X59154721Y-69157208D01*
X58946565Y-68845680D01*
X58708877Y-68556056D01*
X58443944Y-68291123D01*
X58154320Y-68053435D01*
X57842792Y-67845279D01*
X57512362Y-67668660D01*
X57166211Y-67525280D01*
X57166212Y-67525280D01*
X57166209Y-67525279D01*
X56807682Y-67416521D01*
X56807677Y-67416520D01*
X56807674Y-67416519D01*
X56440202Y-67343424D01*
X56440197Y-67343423D01*
X56067338Y-67306700D01*
X56067335Y-67306700D01*
X55692665Y-67306700D01*
X55692661Y-67306700D01*
X55319802Y-67343423D01*
X55136062Y-67379971D01*
X54952326Y-67416519D01*
X54952324Y-67416519D01*
X54952322Y-67416520D01*
X54952317Y-67416521D01*
X54593790Y-67525279D01*
X54247644Y-67668657D01*
X54247635Y-67668661D01*
X53917208Y-67845279D01*
X53605678Y-68053436D01*
X53605675Y-68053438D01*
X53316056Y-68291122D01*
X53316056Y-68291123D01*
X53051123Y-68556056D01*
X53051122Y-68556056D01*
X52813438Y-68845675D01*
X52813436Y-68845678D01*
X52605279Y-69157208D01*
X52428661Y-69487635D01*
X52428657Y-69487644D01*
X52285279Y-69833790D01*
X52285277Y-69833797D01*
X52245261Y-69965710D01*
X52227190Y-69999516D01*
X52212194Y-70034786D01*
X52204085Y-70042744D01*
X52198727Y-70052769D01*
X52169093Y-70077088D01*
X52141742Y-70103933D01*
X52131203Y-70108183D01*
X52122418Y-70115393D01*
X52085733Y-70126520D01*
X52050191Y-70140855D01*
X52038829Y-70140748D01*
X52027953Y-70144048D01*
X51989805Y-70140290D01*
X51951480Y-70139932D01*
X51941021Y-70135485D01*
X51929712Y-70134371D01*
X51895905Y-70116300D01*
X51860636Y-70101304D01*
X51852677Y-70093195D01*
X51842653Y-70087837D01*
X51818333Y-70058203D01*
X51791489Y-70030852D01*
X51787238Y-70020313D01*
X51780029Y-70011528D01*
X51754568Y-69939304D01*
X51691085Y-69603787D01*
X51688265Y-69585079D01*
X51687991Y-69582651D01*
X51633392Y-69098072D01*
X51631979Y-69079206D01*
X51613477Y-68584730D01*
X51613300Y-68575270D01*
X51613300Y-33024729D01*
X51613477Y-33015269D01*
X51625013Y-32706961D01*
X51631979Y-32520790D01*
X51633393Y-32501926D01*
X51648842Y-32364811D01*
X51688265Y-32014914D01*
X51691085Y-31996212D01*
X51706098Y-31916865D01*
X51754568Y-31660694D01*
X51791489Y-31569147D01*
X51860636Y-31498695D01*
X51951480Y-31460067D01*
X52050191Y-31459144D01*
X52141742Y-31496066D01*
X52212194Y-31565213D01*
X52245262Y-31634290D01*
X52285280Y-31766212D01*
X52423212Y-32099210D01*
X52428660Y-32112362D01*
X52605279Y-32442792D01*
X52813435Y-32754320D01*
X52813436Y-32754321D01*
X52813438Y-32754324D01*
X53051122Y-33043943D01*
X53051123Y-33043944D01*
X53316056Y-33308877D01*
X53605680Y-33546565D01*
X53917208Y-33754721D01*
X54247638Y-33931340D01*
X54593789Y-34074720D01*
X54952326Y-34183481D01*
X55319798Y-34256576D01*
X55692665Y-34293300D01*
X55692666Y-34293300D01*
X55788513Y-34293300D01*
X55885332Y-34312558D01*
X55967411Y-34367402D01*
X56022255Y-34449481D01*
X56041513Y-34546300D01*
X56022255Y-34643119D01*
X55967411Y-34725198D01*
X55199636Y-35492974D01*
X55050972Y-35641637D01*
X54934172Y-35816441D01*
X54934171Y-35816444D01*
X54853716Y-36010680D01*
X54812700Y-36216880D01*
X54812700Y-46630880D01*
X54812700Y-46841120D01*
X54853716Y-47047320D01*
X54910263Y-47183836D01*
X54934172Y-47241558D01*
X55050972Y-47416362D01*
X59049637Y-51415027D01*
X59221439Y-51529821D01*
X59224444Y-51531829D01*
X59418680Y-51612284D01*
X59624880Y-51653300D01*
X77331010Y-51653300D01*
X77427829Y-51672558D01*
X77509908Y-51727402D01*
X77631971Y-51849465D01*
X77806365Y-51983283D01*
X77806374Y-51983288D01*
X77996723Y-52093187D01*
X77996727Y-52093189D01*
X77996730Y-52093190D01*
X77996735Y-52093193D01*
X78199822Y-52177314D01*
X78412151Y-52234208D01*
X78489944Y-52244449D01*
X78630077Y-52262899D01*
X78630087Y-52262899D01*
X78630090Y-52262900D01*
X78630092Y-52262900D01*
X78849908Y-52262900D01*
X78849910Y-52262900D01*
X78849912Y-52262899D01*
X78849922Y-52262899D01*
X78964123Y-52247863D01*
X79067849Y-52234208D01*
X79280178Y-52177314D01*
X79483265Y-52093193D01*
X79483272Y-52093189D01*
X79483276Y-52093187D01*
X79589930Y-52031610D01*
X79673635Y-51983283D01*
X79848029Y-51849465D01*
X79970092Y-51727402D01*
X80052171Y-51672558D01*
X80148990Y-51653300D01*
X83725938Y-51653300D01*
X83822757Y-51672558D01*
X83904836Y-51727402D01*
X83959680Y-51809481D01*
X83978938Y-51906300D01*
X83959680Y-52003119D01*
X83904836Y-52085198D01*
X83832859Y-52133291D01*
X83833405Y-52134312D01*
X83823045Y-52139849D01*
X83822759Y-52140040D01*
X83822686Y-52140070D01*
X83822442Y-52140171D01*
X83647637Y-52256972D01*
X80752235Y-55152374D01*
X80670156Y-55207218D01*
X80573337Y-55226476D01*
X80476518Y-55207218D01*
X80394439Y-55152374D01*
X80339595Y-55070295D01*
X80333955Y-55053682D01*
X80333506Y-55053835D01*
X80330843Y-55045993D01*
X80246744Y-54842958D01*
X80246744Y-54842957D01*
X80136866Y-54652645D01*
X80136865Y-54652643D01*
X80091581Y-54593627D01*
X79146400Y-55538809D01*
X79146400Y-55532496D01*
X79118705Y-55429135D01*
X79065201Y-55336464D01*
X78989536Y-55260799D01*
X78896865Y-55207295D01*
X78793504Y-55179600D01*
X78787187Y-55179600D01*
X79732371Y-54234417D01*
X79732370Y-54234416D01*
X79673366Y-54189141D01*
X79673354Y-54189133D01*
X79483042Y-54079255D01*
X79280009Y-53995157D01*
X79067753Y-53938284D01*
X78849890Y-53909600D01*
X78630109Y-53909600D01*
X78412248Y-53938284D01*
X78412244Y-53938284D01*
X78199990Y-53995157D01*
X77996958Y-54079255D01*
X77996957Y-54079255D01*
X77806647Y-54189132D01*
X77806640Y-54189137D01*
X77747627Y-54234416D01*
X78692811Y-55179600D01*
X78686496Y-55179600D01*
X78583135Y-55207295D01*
X78490464Y-55260799D01*
X78414799Y-55336464D01*
X78361295Y-55429135D01*
X78333600Y-55532496D01*
X78333600Y-55538811D01*
X77388416Y-54593627D01*
X77343137Y-54652640D01*
X77343132Y-54652647D01*
X77233255Y-54842957D01*
X77233255Y-54842958D01*
X77149157Y-55045990D01*
X77092284Y-55258244D01*
X77092284Y-55258248D01*
X77063600Y-55476109D01*
X77063600Y-55695890D01*
X77092284Y-55913751D01*
X77092284Y-55913755D01*
X77149157Y-56126009D01*
X77233255Y-56329041D01*
X77233255Y-56329042D01*
X77343133Y-56519354D01*
X77343141Y-56519366D01*
X77388416Y-56578370D01*
X77420433Y-56580469D01*
X77515785Y-56606018D01*
X77594102Y-56666113D01*
X77643459Y-56751603D01*
X77656344Y-56849474D01*
X77630795Y-56944826D01*
X77582784Y-57011825D01*
X75385611Y-59208998D01*
X75303532Y-59263842D01*
X75206713Y-59283100D01*
X75034077Y-59283100D01*
X74816154Y-59311791D01*
X74816146Y-59311793D01*
X74603821Y-59368686D01*
X74400727Y-59452810D01*
X74400723Y-59452812D01*
X74210374Y-59562711D01*
X74210361Y-59562720D01*
X74035971Y-59696534D01*
X73880534Y-59851971D01*
X73746720Y-60026361D01*
X73746711Y-60026374D01*
X73636812Y-60216723D01*
X73636810Y-60216727D01*
X73552686Y-60419821D01*
X73495793Y-60632146D01*
X73495791Y-60632154D01*
X73467100Y-60850077D01*
X73467100Y-61022713D01*
X73447842Y-61119532D01*
X73392998Y-61201611D01*
X70670367Y-63924241D01*
X70588288Y-63979085D01*
X70491469Y-63998343D01*
X70394650Y-63979085D01*
X70312571Y-63924241D01*
X70257727Y-63842162D01*
X70240634Y-63778367D01*
X70227715Y-63680248D01*
X70227715Y-63680244D01*
X70170842Y-63467990D01*
X70086744Y-63264958D01*
X70086744Y-63264957D01*
X69976866Y-63074645D01*
X69976863Y-63074641D01*
X69952904Y-63043416D01*
X69909244Y-62954880D01*
X69902788Y-62856376D01*
X69934519Y-62762899D01*
X69999607Y-62688681D01*
X70088143Y-62645021D01*
X70153623Y-62636400D01*
X70253876Y-62636400D01*
X70253890Y-62636399D01*
X70471751Y-62607715D01*
X70471755Y-62607715D01*
X70684009Y-62550842D01*
X70887041Y-62466744D01*
X70887042Y-62466744D01*
X71077353Y-62356867D01*
X71136371Y-62311581D01*
X70191190Y-61366400D01*
X70197504Y-61366400D01*
X70300865Y-61338705D01*
X70393536Y-61285201D01*
X70469201Y-61209536D01*
X70522705Y-61116865D01*
X70550400Y-61013504D01*
X70550400Y-61007189D01*
X71495581Y-61952370D01*
X71540867Y-61893353D01*
X71650744Y-61703042D01*
X71650744Y-61703041D01*
X71734842Y-61500009D01*
X71791715Y-61287755D01*
X71791715Y-61287751D01*
X71820399Y-61069890D01*
X71820400Y-61069876D01*
X71820400Y-60850123D01*
X71820399Y-60850109D01*
X71791715Y-60632248D01*
X71791715Y-60632244D01*
X71734842Y-60419990D01*
X71650744Y-60216958D01*
X71650744Y-60216957D01*
X71540866Y-60026645D01*
X71540865Y-60026643D01*
X71495581Y-59967627D01*
X70550400Y-60912808D01*
X70550400Y-60906496D01*
X70522705Y-60803135D01*
X70469201Y-60710464D01*
X70393536Y-60634799D01*
X70300865Y-60581295D01*
X70197504Y-60553600D01*
X70191187Y-60553600D01*
X71136371Y-59608417D01*
X71136370Y-59608416D01*
X71077366Y-59563141D01*
X71077354Y-59563133D01*
X70887042Y-59453255D01*
X70684009Y-59369157D01*
X70471753Y-59312284D01*
X70253890Y-59283600D01*
X70034109Y-59283600D01*
X69816248Y-59312284D01*
X69816244Y-59312284D01*
X69603990Y-59369157D01*
X69400958Y-59453255D01*
X69400957Y-59453255D01*
X69210647Y-59563132D01*
X69210640Y-59563137D01*
X69151627Y-59608416D01*
X70096811Y-60553600D01*
X70090496Y-60553600D01*
X69987135Y-60581295D01*
X69894464Y-60634799D01*
X69818799Y-60710464D01*
X69765295Y-60803135D01*
X69737600Y-60906496D01*
X69737600Y-60912810D01*
X68792416Y-59967627D01*
X68747137Y-60026640D01*
X68747132Y-60026647D01*
X68637255Y-60216957D01*
X68637255Y-60216958D01*
X68553157Y-60419990D01*
X68496284Y-60632244D01*
X68496284Y-60632248D01*
X68467600Y-60850109D01*
X68467600Y-61069890D01*
X68496284Y-61287751D01*
X68496284Y-61287755D01*
X68553157Y-61500009D01*
X68637255Y-61703041D01*
X68637255Y-61703042D01*
X68747133Y-61893354D01*
X68747136Y-61893358D01*
X68771096Y-61924584D01*
X68814756Y-62013120D01*
X68821212Y-62111624D01*
X68789481Y-62205101D01*
X68724393Y-62279319D01*
X68635857Y-62322979D01*
X68570377Y-62331600D01*
X68470109Y-62331600D01*
X68252248Y-62360284D01*
X68252244Y-62360284D01*
X68039990Y-62417157D01*
X67836958Y-62501255D01*
X67836957Y-62501255D01*
X67646647Y-62611132D01*
X67646640Y-62611137D01*
X67587627Y-62656416D01*
X68532811Y-63601600D01*
X68526496Y-63601600D01*
X68423135Y-63629295D01*
X68330464Y-63682799D01*
X68254799Y-63758464D01*
X68201295Y-63851135D01*
X68173600Y-63954496D01*
X68173600Y-63960811D01*
X67228416Y-63015627D01*
X67183137Y-63074640D01*
X67183132Y-63074647D01*
X67073255Y-63264957D01*
X67073255Y-63264958D01*
X66989157Y-63467990D01*
X66932284Y-63680244D01*
X66932284Y-63680248D01*
X66903600Y-63898109D01*
X66903600Y-64117890D01*
X66932284Y-64335751D01*
X66932284Y-64335755D01*
X66989157Y-64548009D01*
X67073255Y-64751041D01*
X67073255Y-64751042D01*
X67183133Y-64941354D01*
X67183141Y-64941366D01*
X67228416Y-65000370D01*
X67228417Y-65000371D01*
X68173600Y-64055187D01*
X68173600Y-64061504D01*
X68201295Y-64164865D01*
X68254799Y-64257536D01*
X68330464Y-64333201D01*
X68423135Y-64386705D01*
X68526496Y-64414400D01*
X68532810Y-64414400D01*
X67587627Y-65359582D01*
X67646643Y-65404865D01*
X67646645Y-65404866D01*
X67836957Y-65514744D01*
X68039990Y-65598842D01*
X68252246Y-65655715D01*
X68350368Y-65668634D01*
X68443845Y-65700365D01*
X68518063Y-65765453D01*
X68561723Y-65853989D01*
X68568179Y-65952493D01*
X68536448Y-66045970D01*
X68496242Y-66098367D01*
X68059636Y-66534974D01*
X67910972Y-66683637D01*
X67794172Y-66858441D01*
X67794171Y-66858444D01*
X67713716Y-67052680D01*
X67672700Y-67258880D01*
X67672700Y-67258883D01*
X67672700Y-69037900D01*
X67653442Y-69134719D01*
X67598598Y-69216798D01*
X67546205Y-69257002D01*
X67509389Y-69278258D01*
X67509384Y-69278262D01*
X67279518Y-69454644D01*
X67074644Y-69659518D01*
X66898262Y-69889384D01*
X66898253Y-69889397D01*
X66753391Y-70140304D01*
X66753390Y-70140306D01*
X66642505Y-70408007D01*
X66567518Y-70687862D01*
X66567517Y-70687867D01*
X66529700Y-70975126D01*
X66529700Y-71264873D01*
X66567517Y-71552132D01*
X66567518Y-71552137D01*
X66642505Y-71831992D01*
X66753390Y-72099693D01*
X66753391Y-72099695D01*
X66898099Y-72350335D01*
X66898259Y-72350612D01*
X67074642Y-72580479D01*
X67279521Y-72785358D01*
X67509388Y-72961741D01*
X67509397Y-72961746D01*
X67760304Y-73106608D01*
X67760306Y-73106609D01*
X67760308Y-73106610D01*
X67760312Y-73106612D01*
X68027998Y-73217491D01*
X68028002Y-73217492D01*
X68028007Y-73217494D01*
X68307862Y-73292481D01*
X68307867Y-73292482D01*
X68595129Y-73330300D01*
X68595131Y-73330300D01*
X68884869Y-73330300D01*
X68884871Y-73330300D01*
X69172133Y-73292482D01*
X69173973Y-73291989D01*
X69451992Y-73217494D01*
X69451994Y-73217493D01*
X69452002Y-73217491D01*
X69719688Y-73106612D01*
X69970612Y-72961741D01*
X70200479Y-72785358D01*
X70405358Y-72580479D01*
X70581741Y-72350612D01*
X70726612Y-72099688D01*
X70837491Y-71832002D01*
X70848302Y-71791657D01*
X70912481Y-71552137D01*
X70912482Y-71552132D01*
X70944709Y-71307338D01*
X70950300Y-71264871D01*
X70950300Y-70975129D01*
X70912482Y-70687867D01*
X70912481Y-70687862D01*
X70837494Y-70408007D01*
X70837492Y-70408002D01*
X70837491Y-70407998D01*
X70726612Y-70140312D01*
X70726609Y-70140306D01*
X70726608Y-70140304D01*
X70581907Y-69889675D01*
X70581741Y-69889388D01*
X70405358Y-69659521D01*
X70200479Y-69454642D01*
X69970612Y-69278259D01*
X69962179Y-69273390D01*
X69933795Y-69257002D01*
X69859578Y-69191912D01*
X69815919Y-69103376D01*
X69807300Y-69037900D01*
X69807300Y-67910885D01*
X69826558Y-67814066D01*
X69881400Y-67731989D01*
X74902387Y-62711001D01*
X74984466Y-62656158D01*
X75081285Y-62636900D01*
X75253908Y-62636900D01*
X75253910Y-62636900D01*
X75253912Y-62636899D01*
X75253922Y-62636899D01*
X75368123Y-62621863D01*
X75471849Y-62608208D01*
X75684178Y-62551314D01*
X75887265Y-62467193D01*
X75887272Y-62467189D01*
X75887276Y-62467187D01*
X75974746Y-62416686D01*
X76077635Y-62357283D01*
X76252029Y-62223465D01*
X76407465Y-62068029D01*
X76541283Y-61893635D01*
X76651193Y-61703265D01*
X76735314Y-61500178D01*
X76792208Y-61287849D01*
X76814199Y-61120809D01*
X76820899Y-61069922D01*
X76820900Y-61069907D01*
X76820900Y-60897285D01*
X76840158Y-60800466D01*
X76895002Y-60718387D01*
X78954588Y-58658802D01*
X79036667Y-58603958D01*
X79133486Y-58584700D01*
X80001716Y-58584700D01*
X80001720Y-58584700D01*
X80207920Y-58543684D01*
X80402156Y-58463229D01*
X80576964Y-58346426D01*
X82654565Y-56268823D01*
X82736641Y-56213983D01*
X82833460Y-56194724D01*
X82930279Y-56213982D01*
X83012358Y-56268826D01*
X83067199Y-56350898D01*
X83074808Y-56369267D01*
X83074812Y-56369276D01*
X83184711Y-56559625D01*
X83184717Y-56559635D01*
X83233548Y-56623272D01*
X83310205Y-56723174D01*
X83318535Y-56734029D01*
X83473971Y-56889465D01*
X83648365Y-57023283D01*
X83648374Y-57023288D01*
X83838723Y-57133187D01*
X83838727Y-57133189D01*
X83838730Y-57133190D01*
X83838735Y-57133193D01*
X84041822Y-57217314D01*
X84254151Y-57274208D01*
X84331944Y-57284449D01*
X84472077Y-57302899D01*
X84472087Y-57302899D01*
X84472090Y-57302900D01*
X84472092Y-57302900D01*
X84691908Y-57302900D01*
X84691910Y-57302900D01*
X84691912Y-57302899D01*
X84691922Y-57302899D01*
X84806123Y-57287863D01*
X84909849Y-57274208D01*
X85122178Y-57217314D01*
X85325265Y-57133193D01*
X85351516Y-57118036D01*
X85444989Y-57086306D01*
X85543494Y-57092761D01*
X85632030Y-57136420D01*
X85697119Y-57210638D01*
X85728851Y-57304114D01*
X85722396Y-57402619D01*
X85711760Y-57433952D01*
X85684332Y-57500171D01*
X85632286Y-57625821D01*
X85575393Y-57838146D01*
X85575391Y-57838154D01*
X85546700Y-58056077D01*
X85546700Y-58275922D01*
X85575391Y-58493845D01*
X85575393Y-58493853D01*
X85620902Y-58663694D01*
X85632286Y-58706178D01*
X85699363Y-58868118D01*
X85716410Y-58909272D01*
X85716412Y-58909276D01*
X85771924Y-59005424D01*
X85826317Y-59099635D01*
X85910235Y-59208998D01*
X85955733Y-59268293D01*
X85960135Y-59274029D01*
X86115571Y-59429465D01*
X86289965Y-59563283D01*
X86289974Y-59563288D01*
X86480323Y-59673187D01*
X86480327Y-59673189D01*
X86480330Y-59673190D01*
X86480335Y-59673193D01*
X86683422Y-59757314D01*
X86895751Y-59814208D01*
X86973544Y-59824449D01*
X87113677Y-59842899D01*
X87113687Y-59842899D01*
X87113690Y-59842900D01*
X87113692Y-59842900D01*
X88146308Y-59842900D01*
X88146310Y-59842900D01*
X88146312Y-59842899D01*
X88146322Y-59842899D01*
X88260523Y-59827863D01*
X88364249Y-59814208D01*
X88576578Y-59757314D01*
X88576590Y-59757308D01*
X88582016Y-59755855D01*
X88680521Y-59749398D01*
X88773998Y-59781128D01*
X88848217Y-59846215D01*
X88891879Y-59934750D01*
X88900500Y-60000234D01*
X88900500Y-62548769D01*
X88881242Y-62645588D01*
X88826398Y-62727667D01*
X88813854Y-62738680D01*
X88814199Y-62739073D01*
X88807972Y-62744534D01*
X88652534Y-62899971D01*
X88518720Y-63074361D01*
X88518711Y-63074374D01*
X88408812Y-63264723D01*
X88408810Y-63264727D01*
X88324686Y-63467821D01*
X88267793Y-63680146D01*
X88267791Y-63680154D01*
X88239100Y-63898077D01*
X88239100Y-64117922D01*
X88267791Y-64335845D01*
X88267793Y-64335853D01*
X88324686Y-64548178D01*
X88408810Y-64751272D01*
X88408812Y-64751276D01*
X88518711Y-64941625D01*
X88518717Y-64941635D01*
X88652535Y-65116029D01*
X88807971Y-65271465D01*
X88982365Y-65405283D01*
X88982374Y-65405288D01*
X89172723Y-65515187D01*
X89172727Y-65515189D01*
X89172730Y-65515190D01*
X89172735Y-65515193D01*
X89375822Y-65599314D01*
X89588151Y-65656208D01*
X89665944Y-65666449D01*
X89806077Y-65684899D01*
X89806087Y-65684899D01*
X89806090Y-65684900D01*
X89806092Y-65684900D01*
X90025908Y-65684900D01*
X90025910Y-65684900D01*
X90025912Y-65684899D01*
X90025922Y-65684899D01*
X90149463Y-65668634D01*
X90243849Y-65656208D01*
X90456178Y-65599314D01*
X90659265Y-65515193D01*
X90659272Y-65515189D01*
X90659276Y-65515187D01*
X90718673Y-65480893D01*
X90849635Y-65405283D01*
X91024029Y-65271465D01*
X91179465Y-65116029D01*
X91313283Y-64941635D01*
X91423193Y-64751265D01*
X91507314Y-64548178D01*
X91564208Y-64335849D01*
X91583725Y-64187605D01*
X91592899Y-64117922D01*
X91592900Y-64117907D01*
X91592900Y-63898092D01*
X91592899Y-63898077D01*
X91570978Y-63731575D01*
X91564208Y-63680151D01*
X91507314Y-63467822D01*
X91423193Y-63264735D01*
X91423190Y-63264730D01*
X91423189Y-63264727D01*
X91423187Y-63264723D01*
X91313446Y-63074647D01*
X91313283Y-63074365D01*
X91179465Y-62899971D01*
X91109202Y-62829708D01*
X91054358Y-62747629D01*
X91035100Y-62650810D01*
X91035100Y-59486300D01*
X91054358Y-59389481D01*
X91109202Y-59307402D01*
X91191281Y-59252558D01*
X91288100Y-59233300D01*
X93115201Y-59233300D01*
X93212020Y-59252558D01*
X93294099Y-59307402D01*
X93338326Y-59367035D01*
X93341616Y-59373191D01*
X93341618Y-59373194D01*
X93434442Y-59486300D01*
X93474495Y-59535105D01*
X93636404Y-59667980D01*
X93821124Y-59766714D01*
X94021557Y-59827515D01*
X94177762Y-59842900D01*
X94177771Y-59842900D01*
X96322229Y-59842900D01*
X96322238Y-59842900D01*
X96478443Y-59827515D01*
X96678876Y-59766714D01*
X96863596Y-59667980D01*
X97025505Y-59535105D01*
X97158380Y-59373196D01*
X97257114Y-59188476D01*
X97317915Y-58988043D01*
X97333300Y-58831838D01*
X97333300Y-57500162D01*
X97317915Y-57343957D01*
X97257114Y-57143524D01*
X97215442Y-57065561D01*
X97211800Y-57053555D01*
X97204827Y-57043119D01*
X97197575Y-57006662D01*
X97186787Y-56971098D01*
X97188017Y-56958608D01*
X97185569Y-56946300D01*
X97192819Y-56909847D01*
X97196463Y-56872857D01*
X97202378Y-56861789D01*
X97204827Y-56849481D01*
X97225478Y-56818574D01*
X97242998Y-56785798D01*
X97252698Y-56777837D01*
X97259671Y-56767402D01*
X97290577Y-56746750D01*
X97319306Y-56723174D01*
X97331313Y-56719531D01*
X97341750Y-56712558D01*
X97378206Y-56705306D01*
X97413771Y-56694518D01*
X97438569Y-56693300D01*
X97595622Y-56693300D01*
X97692441Y-56712558D01*
X97774520Y-56767402D01*
X98350398Y-57343280D01*
X98405242Y-57425359D01*
X98424500Y-57522178D01*
X98424500Y-57533977D01*
X98465165Y-57790727D01*
X98545496Y-58037959D01*
X98663510Y-58269576D01*
X98816305Y-58479879D01*
X98831528Y-58495102D01*
X98886372Y-58577181D01*
X98905630Y-58674000D01*
X98886372Y-58770819D01*
X98831528Y-58852898D01*
X98816307Y-58868118D01*
X98816305Y-58868120D01*
X98663510Y-59078423D01*
X98545496Y-59310040D01*
X98465165Y-59557272D01*
X98424500Y-59814022D01*
X98424500Y-60073977D01*
X98465165Y-60330727D01*
X98545496Y-60577959D01*
X98663510Y-60809576D01*
X98816305Y-61019879D01*
X98934598Y-61138172D01*
X98989442Y-61220251D01*
X99008700Y-61317070D01*
X99008700Y-62599010D01*
X98989442Y-62695829D01*
X98934598Y-62777908D01*
X98812534Y-62899971D01*
X98678720Y-63074361D01*
X98678711Y-63074374D01*
X98568812Y-63264723D01*
X98568810Y-63264727D01*
X98484686Y-63467821D01*
X98427793Y-63680146D01*
X98427791Y-63680154D01*
X98399100Y-63898077D01*
X98399100Y-64117922D01*
X98427791Y-64335845D01*
X98427793Y-64335853D01*
X98484686Y-64548178D01*
X98568810Y-64751272D01*
X98568812Y-64751276D01*
X98678711Y-64941625D01*
X98678717Y-64941635D01*
X98812535Y-65116029D01*
X98967971Y-65271465D01*
X99142365Y-65405283D01*
X99332735Y-65515193D01*
X99332739Y-65515194D01*
X99337612Y-65518008D01*
X99411830Y-65583096D01*
X99455491Y-65671632D01*
X99461948Y-65770136D01*
X99430217Y-65863613D01*
X99390010Y-65916011D01*
X95327425Y-69978598D01*
X95245346Y-70033441D01*
X95148527Y-70052700D01*
X85822099Y-70052700D01*
X85725280Y-70033442D01*
X85643201Y-69978598D01*
X85602995Y-69926201D01*
X85601491Y-69923596D01*
X85581741Y-69889388D01*
X85405358Y-69659521D01*
X85200479Y-69454642D01*
X84970612Y-69278259D01*
X84933794Y-69257002D01*
X84719695Y-69133391D01*
X84719693Y-69133390D01*
X84489159Y-69037900D01*
X84452002Y-69022509D01*
X84452001Y-69022508D01*
X84451992Y-69022505D01*
X84172137Y-68947518D01*
X84172132Y-68947517D01*
X83884873Y-68909700D01*
X83884871Y-68909700D01*
X83595129Y-68909700D01*
X83595126Y-68909700D01*
X83307867Y-68947517D01*
X83307862Y-68947518D01*
X83028007Y-69022505D01*
X82760306Y-69133390D01*
X82760304Y-69133391D01*
X82509397Y-69278253D01*
X82509384Y-69278262D01*
X82279518Y-69454644D01*
X82074644Y-69659518D01*
X81898262Y-69889384D01*
X81898253Y-69889397D01*
X81753391Y-70140304D01*
X81753390Y-70140306D01*
X81642505Y-70408007D01*
X81567518Y-70687862D01*
X81567517Y-70687867D01*
X81529700Y-70975126D01*
X81529700Y-71264873D01*
X81567517Y-71552132D01*
X81567518Y-71552137D01*
X81578519Y-71593191D01*
X81580683Y-71626215D01*
X81587140Y-71658672D01*
X81583884Y-71675039D01*
X81584976Y-71691695D01*
X81574338Y-71723032D01*
X81567882Y-71755490D01*
X81558608Y-71769368D01*
X81553244Y-71785172D01*
X81513038Y-71837570D01*
X81254717Y-72095892D01*
X81172638Y-72150735D01*
X81075819Y-72169994D01*
X80979001Y-72150736D01*
X80896921Y-72095892D01*
X80842078Y-72013813D01*
X80822819Y-71916994D01*
X80835524Y-71840050D01*
X80835348Y-71840003D01*
X80835829Y-71838206D01*
X80836251Y-71835653D01*
X80837484Y-71832016D01*
X80837491Y-71832002D01*
X80848302Y-71791657D01*
X80912481Y-71552137D01*
X80912482Y-71552132D01*
X80944709Y-71307338D01*
X80950300Y-71264871D01*
X80950300Y-70975129D01*
X80912482Y-70687867D01*
X80912481Y-70687862D01*
X80837494Y-70408007D01*
X80837492Y-70408002D01*
X80837491Y-70407998D01*
X80726612Y-70140312D01*
X80726609Y-70140306D01*
X80726608Y-70140304D01*
X80581907Y-69889675D01*
X80581741Y-69889388D01*
X80405358Y-69659521D01*
X80200479Y-69454642D01*
X79970612Y-69278259D01*
X79962179Y-69273390D01*
X79933795Y-69257002D01*
X79859578Y-69191912D01*
X79815919Y-69103376D01*
X79807300Y-69037900D01*
X79807300Y-65416990D01*
X79826558Y-65320171D01*
X79881402Y-65238092D01*
X80003465Y-65116029D01*
X80137283Y-64941635D01*
X80247193Y-64751265D01*
X80331314Y-64548178D01*
X80388208Y-64335849D01*
X80407725Y-64187605D01*
X80416899Y-64117922D01*
X80416900Y-64117907D01*
X80416900Y-63898092D01*
X80416899Y-63898077D01*
X80394978Y-63731575D01*
X80388208Y-63680151D01*
X80331314Y-63467822D01*
X80247193Y-63264735D01*
X80247190Y-63264730D01*
X80247189Y-63264727D01*
X80247187Y-63264723D01*
X80137446Y-63074647D01*
X80137283Y-63074365D01*
X80003465Y-62899971D01*
X79848029Y-62744535D01*
X79673635Y-62610717D01*
X79673625Y-62610711D01*
X79483276Y-62500812D01*
X79483272Y-62500810D01*
X79402103Y-62467189D01*
X79280178Y-62416686D01*
X79067849Y-62359792D01*
X79067845Y-62359791D01*
X78849922Y-62331100D01*
X78849910Y-62331100D01*
X78630090Y-62331100D01*
X78630077Y-62331100D01*
X78412154Y-62359791D01*
X78412146Y-62359793D01*
X78199821Y-62416686D01*
X77996727Y-62500810D01*
X77996723Y-62500812D01*
X77806374Y-62610711D01*
X77806361Y-62610720D01*
X77631971Y-62744534D01*
X77476534Y-62899971D01*
X77342720Y-63074361D01*
X77342711Y-63074374D01*
X77232812Y-63264723D01*
X77232810Y-63264727D01*
X77148686Y-63467821D01*
X77091793Y-63680146D01*
X77091791Y-63680154D01*
X77063100Y-63898077D01*
X77063100Y-64117922D01*
X77091791Y-64335845D01*
X77091793Y-64335853D01*
X77148686Y-64548178D01*
X77232810Y-64751272D01*
X77232812Y-64751276D01*
X77342711Y-64941625D01*
X77342717Y-64941635D01*
X77387787Y-65000371D01*
X77476534Y-65116028D01*
X77598598Y-65238092D01*
X77653442Y-65320171D01*
X77672700Y-65416990D01*
X77672700Y-69037900D01*
X77653442Y-69134719D01*
X77598598Y-69216798D01*
X77546205Y-69257002D01*
X77509389Y-69278258D01*
X77509384Y-69278262D01*
X77279518Y-69454644D01*
X77074644Y-69659518D01*
X76898262Y-69889384D01*
X76898253Y-69889397D01*
X76753391Y-70140304D01*
X76753390Y-70140306D01*
X76642505Y-70408007D01*
X76567518Y-70687862D01*
X76567517Y-70687867D01*
X76529700Y-70975126D01*
X76529700Y-71264873D01*
X76567517Y-71552132D01*
X76567518Y-71552137D01*
X76642507Y-71832000D01*
X76643754Y-71835672D01*
X76644007Y-71837597D01*
X76644652Y-71840003D01*
X76644335Y-71840087D01*
X76649135Y-71876548D01*
X76657180Y-71916994D01*
X76655542Y-71925224D01*
X76656638Y-71933543D01*
X76645967Y-71973366D01*
X76637922Y-72013813D01*
X76633259Y-72020790D01*
X76631088Y-72028895D01*
X76605986Y-72061607D01*
X76583078Y-72095892D01*
X76576101Y-72100553D01*
X76570993Y-72107211D01*
X76535285Y-72127825D01*
X76500999Y-72150736D01*
X76492767Y-72152373D01*
X76485502Y-72156568D01*
X76444625Y-72161949D01*
X76404180Y-72169994D01*
X76395949Y-72168356D01*
X76387631Y-72169452D01*
X76347807Y-72158781D01*
X76307361Y-72150736D01*
X76300383Y-72146073D01*
X76292279Y-72143902D01*
X76225282Y-72095892D01*
X75966961Y-71837571D01*
X75912117Y-71755492D01*
X75892859Y-71658673D01*
X75892859Y-71658672D01*
X75901481Y-71593187D01*
X75912482Y-71552133D01*
X75944709Y-71307338D01*
X75950300Y-71264871D01*
X75950300Y-70975129D01*
X75912482Y-70687867D01*
X75912481Y-70687862D01*
X75837494Y-70408007D01*
X75837492Y-70408002D01*
X75837491Y-70407998D01*
X75726612Y-70140312D01*
X75726609Y-70140306D01*
X75726608Y-70140304D01*
X75581907Y-69889675D01*
X75581741Y-69889388D01*
X75405358Y-69659521D01*
X75200479Y-69454642D01*
X74970612Y-69278259D01*
X74933794Y-69257002D01*
X74719695Y-69133391D01*
X74719693Y-69133390D01*
X74489159Y-69037900D01*
X74452002Y-69022509D01*
X74452001Y-69022508D01*
X74451992Y-69022505D01*
X74172137Y-68947518D01*
X74172132Y-68947517D01*
X73884873Y-68909700D01*
X73884871Y-68909700D01*
X73595129Y-68909700D01*
X73595126Y-68909700D01*
X73307867Y-68947517D01*
X73307862Y-68947518D01*
X73028007Y-69022505D01*
X72760306Y-69133390D01*
X72760304Y-69133391D01*
X72509397Y-69278253D01*
X72509384Y-69278262D01*
X72279518Y-69454644D01*
X72074644Y-69659518D01*
X71898262Y-69889384D01*
X71898253Y-69889397D01*
X71753391Y-70140304D01*
X71753390Y-70140306D01*
X71642505Y-70408007D01*
X71567518Y-70687862D01*
X71567517Y-70687867D01*
X71529700Y-70975126D01*
X71529700Y-71264873D01*
X71567517Y-71552132D01*
X71567518Y-71552137D01*
X71642505Y-71831992D01*
X71753390Y-72099693D01*
X71753391Y-72099695D01*
X71898099Y-72350335D01*
X71898259Y-72350612D01*
X72074642Y-72580479D01*
X72279521Y-72785358D01*
X72509388Y-72961741D01*
X72509397Y-72961746D01*
X72760304Y-73106608D01*
X72760306Y-73106609D01*
X72760308Y-73106610D01*
X72760312Y-73106612D01*
X73027998Y-73217491D01*
X73028002Y-73217492D01*
X73028007Y-73217494D01*
X73307862Y-73292481D01*
X73307867Y-73292482D01*
X73595129Y-73330300D01*
X73595131Y-73330300D01*
X73884869Y-73330300D01*
X73884871Y-73330300D01*
X74172133Y-73292482D01*
X74213189Y-73281480D01*
X74311692Y-73275023D01*
X74405169Y-73306752D01*
X74457571Y-73346961D01*
X75599637Y-74489027D01*
X75774441Y-74605827D01*
X75774444Y-74605829D01*
X75968680Y-74686284D01*
X76174880Y-74727300D01*
X76174884Y-74727300D01*
X81385116Y-74727300D01*
X81385120Y-74727300D01*
X81591320Y-74686284D01*
X81785556Y-74605829D01*
X81960364Y-74489026D01*
X82109026Y-74340364D01*
X82225829Y-74165556D01*
X82225832Y-74165548D01*
X82231687Y-74154596D01*
X82234448Y-74156071D01*
X82276902Y-74092486D01*
X83022430Y-73346958D01*
X83104506Y-73292117D01*
X83201325Y-73272859D01*
X83266807Y-73281480D01*
X83307866Y-73292482D01*
X83359199Y-73299239D01*
X83595129Y-73330300D01*
X83595131Y-73330300D01*
X83884869Y-73330300D01*
X83884871Y-73330300D01*
X84172133Y-73292482D01*
X84173973Y-73291989D01*
X84451992Y-73217494D01*
X84451994Y-73217493D01*
X84452002Y-73217491D01*
X84719688Y-73106612D01*
X84970612Y-72961741D01*
X85200479Y-72785358D01*
X85405358Y-72580479D01*
X85581741Y-72350612D01*
X85602995Y-72313799D01*
X85668083Y-72239581D01*
X85756619Y-72195920D01*
X85822099Y-72187300D01*
X95800529Y-72187300D01*
X95800533Y-72187300D01*
X96006733Y-72146284D01*
X96200969Y-72065829D01*
X96375777Y-71949026D01*
X108271026Y-60053777D01*
X108387829Y-59878969D01*
X108468284Y-59684733D01*
X108509300Y-59478533D01*
X108509300Y-59268293D01*
X108509300Y-53478990D01*
X108528558Y-53382171D01*
X108583402Y-53300092D01*
X108630329Y-53253165D01*
X108705465Y-53178029D01*
X108839283Y-53003635D01*
X108949189Y-52813273D01*
X108949189Y-52813272D01*
X108949189Y-52813271D01*
X108949193Y-52813265D01*
X109033314Y-52610178D01*
X109090208Y-52397849D01*
X109107974Y-52262900D01*
X109118899Y-52179922D01*
X109118900Y-52179907D01*
X109118900Y-51960092D01*
X109118899Y-51960077D01*
X109099070Y-51809465D01*
X109090208Y-51742151D01*
X109033314Y-51529822D01*
X108949193Y-51326735D01*
X108949190Y-51326730D01*
X108949189Y-51326727D01*
X108949187Y-51326723D01*
X108839288Y-51136374D01*
X108839283Y-51136365D01*
X108705465Y-50961971D01*
X108550029Y-50806535D01*
X108375635Y-50672717D01*
X108375625Y-50672711D01*
X108185276Y-50562812D01*
X108185272Y-50562810D01*
X107982178Y-50478686D01*
X107769853Y-50421793D01*
X107769845Y-50421791D01*
X107551922Y-50393100D01*
X107551910Y-50393100D01*
X107379286Y-50393100D01*
X107282467Y-50373842D01*
X107200388Y-50318998D01*
X106638362Y-49756972D01*
X106463558Y-49640172D01*
X106463556Y-49640171D01*
X106270104Y-49560040D01*
X106188027Y-49505198D01*
X106133183Y-49423119D01*
X106113925Y-49326300D01*
X106133183Y-49229481D01*
X106188027Y-49147402D01*
X106270106Y-49092558D01*
X106366925Y-49073300D01*
X109579116Y-49073300D01*
X109579120Y-49073300D01*
X109785320Y-49032284D01*
X109979556Y-48951829D01*
X110154364Y-48835026D01*
X110753434Y-48235955D01*
X110835510Y-48181115D01*
X110932329Y-48161856D01*
X111029148Y-48181114D01*
X111111227Y-48235958D01*
X111166070Y-48318037D01*
X111172946Y-48336674D01*
X111245496Y-48559959D01*
X111363510Y-48791576D01*
X111516305Y-49001879D01*
X111700120Y-49185694D01*
X111910423Y-49338489D01*
X111910425Y-49338490D01*
X112142044Y-49456505D01*
X112389273Y-49536835D01*
X112646024Y-49577500D01*
X112646026Y-49577500D01*
X112813314Y-49577500D01*
X112910133Y-49596758D01*
X112992212Y-49651602D01*
X116017454Y-52676844D01*
X116072297Y-52758922D01*
X116094805Y-52813262D01*
X116094810Y-52813273D01*
X116188815Y-52976092D01*
X116204717Y-53003635D01*
X116338535Y-53178029D01*
X116493971Y-53333465D01*
X116668365Y-53467283D01*
X116668374Y-53467288D01*
X116858723Y-53577187D01*
X116858727Y-53577189D01*
X116858730Y-53577190D01*
X116858735Y-53577193D01*
X117061822Y-53661314D01*
X117274151Y-53718208D01*
X117351944Y-53728449D01*
X117492077Y-53746899D01*
X117492087Y-53746899D01*
X117492090Y-53746900D01*
X117492092Y-53746900D01*
X117711908Y-53746900D01*
X117711910Y-53746900D01*
X117711912Y-53746899D01*
X117711922Y-53746899D01*
X117826123Y-53731863D01*
X117929849Y-53718208D01*
X118142178Y-53661314D01*
X118345265Y-53577193D01*
X118345272Y-53577189D01*
X118345276Y-53577187D01*
X118404673Y-53542893D01*
X118535635Y-53467283D01*
X118710029Y-53333465D01*
X118865465Y-53178029D01*
X118999283Y-53003635D01*
X119109189Y-52813273D01*
X119109189Y-52813272D01*
X119109189Y-52813271D01*
X119109193Y-52813265D01*
X119193314Y-52610178D01*
X119250208Y-52397849D01*
X119267974Y-52262900D01*
X119278899Y-52179922D01*
X119278900Y-52179907D01*
X119278900Y-51960092D01*
X119278899Y-51960077D01*
X119259070Y-51809465D01*
X119250208Y-51742151D01*
X119193314Y-51529822D01*
X119109193Y-51326735D01*
X119109190Y-51326730D01*
X119109189Y-51326727D01*
X119109187Y-51326723D01*
X118999288Y-51136374D01*
X118999283Y-51136365D01*
X118865465Y-50961971D01*
X118710029Y-50806535D01*
X118535635Y-50672717D01*
X118535625Y-50672711D01*
X118345276Y-50562812D01*
X118345272Y-50562810D01*
X118142178Y-50478686D01*
X117929853Y-50421793D01*
X117929845Y-50421791D01*
X117711922Y-50393100D01*
X117711910Y-50393100D01*
X117492090Y-50393100D01*
X117492077Y-50393100D01*
X117274154Y-50421791D01*
X117274142Y-50421793D01*
X117061834Y-50478682D01*
X117061828Y-50478684D01*
X117061825Y-50478685D01*
X117061822Y-50478686D01*
X117059782Y-50479530D01*
X117058701Y-50479745D01*
X117053994Y-50481344D01*
X117053783Y-50480723D01*
X116962967Y-50498786D01*
X116866148Y-50479525D01*
X116784074Y-50424684D01*
X114501602Y-48142212D01*
X114446758Y-48060133D01*
X114427500Y-47963314D01*
X114427500Y-47796026D01*
X114427500Y-47796024D01*
X114386835Y-47539273D01*
X114306505Y-47292044D01*
X114188490Y-47060425D01*
X114172107Y-47037876D01*
X114035694Y-46850120D01*
X114020472Y-46834898D01*
X113965628Y-46752819D01*
X113946370Y-46656000D01*
X113965628Y-46559181D01*
X114020472Y-46477102D01*
X114035694Y-46461880D01*
X114188490Y-46251575D01*
X114306505Y-46019956D01*
X114386835Y-45772727D01*
X114427500Y-45515976D01*
X114427500Y-45256024D01*
X114386835Y-44999273D01*
X114306505Y-44752044D01*
X114188490Y-44520425D01*
X114188306Y-44520172D01*
X114035694Y-44310120D01*
X113974689Y-44249115D01*
X113919845Y-44167036D01*
X113900587Y-44070217D01*
X113919845Y-43973398D01*
X113974689Y-43891319D01*
X114056768Y-43836475D01*
X114105649Y-43824740D01*
X114188063Y-43711308D01*
X114306041Y-43479765D01*
X114386347Y-43232605D01*
X114426999Y-42975938D01*
X114427000Y-42975935D01*
X114427000Y-42716065D01*
X114426999Y-42716061D01*
X114386347Y-42459394D01*
X114306041Y-42212236D01*
X114188064Y-41980692D01*
X114188060Y-41980685D01*
X114109143Y-41872066D01*
X113182400Y-42798809D01*
X113182400Y-42792496D01*
X113154705Y-42689135D01*
X113101201Y-42596464D01*
X113025536Y-42520799D01*
X112932865Y-42467295D01*
X112829504Y-42439600D01*
X112823188Y-42439600D01*
X113749933Y-41512856D01*
X113749932Y-41512855D01*
X113641314Y-41433939D01*
X113641307Y-41433935D01*
X113409763Y-41315958D01*
X113162605Y-41235652D01*
X112905938Y-41195000D01*
X112646061Y-41195000D01*
X112389394Y-41235652D01*
X112142236Y-41315958D01*
X111910692Y-41433935D01*
X111910687Y-41433938D01*
X111802065Y-41512855D01*
X112728810Y-42439600D01*
X112722496Y-42439600D01*
X112619135Y-42467295D01*
X112526464Y-42520799D01*
X112450799Y-42596464D01*
X112397295Y-42689135D01*
X112369600Y-42792496D01*
X112369600Y-42798810D01*
X111442855Y-41872065D01*
X111363938Y-41980687D01*
X111363935Y-41980692D01*
X111245958Y-42212236D01*
X111165652Y-42459394D01*
X111125000Y-42716061D01*
X111125000Y-42975938D01*
X111165652Y-43232605D01*
X111245958Y-43479763D01*
X111363935Y-43711307D01*
X111363939Y-43711314D01*
X111447425Y-43826222D01*
X111513270Y-43844792D01*
X111590794Y-43905906D01*
X111639029Y-43992035D01*
X111650632Y-44090066D01*
X111623837Y-44185075D01*
X111577311Y-44249114D01*
X111516305Y-44310120D01*
X111363511Y-44520422D01*
X111363506Y-44520430D01*
X111291659Y-44661438D01*
X111245133Y-44725475D01*
X109106012Y-46864598D01*
X109023933Y-46919441D01*
X108927114Y-46938700D01*
X106064332Y-46938700D01*
X105967513Y-46919442D01*
X105885434Y-46864598D01*
X105830590Y-46782519D01*
X105811332Y-46685700D01*
X105830590Y-46588881D01*
X105845228Y-46559199D01*
X105900744Y-46463042D01*
X105900744Y-46463041D01*
X105984842Y-46260009D01*
X106041715Y-46047755D01*
X106041715Y-46047751D01*
X106070399Y-45829890D01*
X106070400Y-45829876D01*
X106070400Y-45610123D01*
X106070399Y-45610109D01*
X106041715Y-45392248D01*
X106041715Y-45392244D01*
X105984842Y-45179990D01*
X105900744Y-44976958D01*
X105900744Y-44976957D01*
X105790866Y-44786645D01*
X105790865Y-44786643D01*
X105745581Y-44727627D01*
X104800400Y-45672809D01*
X104800400Y-45666496D01*
X104772705Y-45563135D01*
X104719201Y-45470464D01*
X104643536Y-45394799D01*
X104550865Y-45341295D01*
X104447504Y-45313600D01*
X104441187Y-45313600D01*
X105386371Y-44368417D01*
X105386370Y-44368416D01*
X105327366Y-44323141D01*
X105327354Y-44323133D01*
X105137042Y-44213255D01*
X104934009Y-44129157D01*
X104721753Y-44072284D01*
X104503890Y-44043600D01*
X104284109Y-44043600D01*
X104066248Y-44072284D01*
X104066244Y-44072284D01*
X103853990Y-44129157D01*
X103650958Y-44213255D01*
X103650957Y-44213255D01*
X103460647Y-44323132D01*
X103460640Y-44323137D01*
X103401627Y-44368416D01*
X104346811Y-45313600D01*
X104340496Y-45313600D01*
X104237135Y-45341295D01*
X104144464Y-45394799D01*
X104068799Y-45470464D01*
X104015295Y-45563135D01*
X103987600Y-45666496D01*
X103987600Y-45672811D01*
X103042416Y-44727627D01*
X102997137Y-44786640D01*
X102997132Y-44786647D01*
X102887255Y-44976957D01*
X102887255Y-44976958D01*
X102803157Y-45179990D01*
X102746284Y-45392244D01*
X102746284Y-45392248D01*
X102717600Y-45610109D01*
X102717600Y-45829890D01*
X102746284Y-46047751D01*
X102746284Y-46047755D01*
X102803157Y-46260009D01*
X102887255Y-46463041D01*
X102887255Y-46463042D01*
X102942772Y-46559199D01*
X102974503Y-46652676D01*
X102968047Y-46751180D01*
X102924387Y-46839716D01*
X102850169Y-46904804D01*
X102756692Y-46936535D01*
X102723668Y-46938700D01*
X100648125Y-46938700D01*
X100551306Y-46919442D01*
X100469227Y-46864598D01*
X100414383Y-46782519D01*
X100395125Y-46685700D01*
X100414383Y-46588881D01*
X100447408Y-46531681D01*
X100456866Y-46519354D01*
X100566744Y-46329042D01*
X100566744Y-46329041D01*
X100650842Y-46126009D01*
X100707715Y-45913755D01*
X100707715Y-45913751D01*
X100736399Y-45695890D01*
X100736400Y-45695876D01*
X100736400Y-45476123D01*
X100736399Y-45476109D01*
X100707715Y-45258248D01*
X100707715Y-45258244D01*
X100650842Y-45045990D01*
X100566744Y-44842958D01*
X100566744Y-44842957D01*
X100456866Y-44652645D01*
X100456865Y-44652643D01*
X100411581Y-44593627D01*
X99466400Y-45538809D01*
X99466400Y-45532496D01*
X99438705Y-45429135D01*
X99385201Y-45336464D01*
X99309536Y-45260799D01*
X99216865Y-45207295D01*
X99113504Y-45179600D01*
X99107188Y-45179600D01*
X100052371Y-44234417D01*
X100052370Y-44234416D01*
X99993366Y-44189141D01*
X99993354Y-44189133D01*
X99846227Y-44104188D01*
X99772009Y-44039099D01*
X99728348Y-43950564D01*
X99721893Y-43852059D01*
X99753622Y-43758588D01*
X99805193Y-43669265D01*
X99889314Y-43466178D01*
X99946208Y-43253849D01*
X99968367Y-43085533D01*
X99974899Y-43035922D01*
X99974900Y-43035907D01*
X99974900Y-42816092D01*
X99974899Y-42816077D01*
X99946208Y-42598154D01*
X99946208Y-42598151D01*
X99889314Y-42385822D01*
X99833925Y-42252102D01*
X99814668Y-42155284D01*
X99833927Y-42058466D01*
X99888770Y-41976387D01*
X99970850Y-41921543D01*
X100067669Y-41902285D01*
X100164487Y-41921544D01*
X100297986Y-41976841D01*
X100510246Y-42033715D01*
X100728109Y-42062399D01*
X100728124Y-42062400D01*
X100947876Y-42062400D01*
X100947890Y-42062399D01*
X101165751Y-42033715D01*
X101165755Y-42033715D01*
X101378009Y-41976842D01*
X101581041Y-41892744D01*
X101581042Y-41892744D01*
X101771353Y-41782867D01*
X101830371Y-41737581D01*
X100969480Y-40876690D01*
X101034081Y-40859381D01*
X101149920Y-40792502D01*
X101244502Y-40697920D01*
X101311381Y-40582081D01*
X101328690Y-40517479D01*
X102189581Y-41378370D01*
X102234867Y-41319353D01*
X102344744Y-41129042D01*
X102344744Y-41129041D01*
X102428842Y-40926009D01*
X102485715Y-40713755D01*
X102485715Y-40713751D01*
X102514399Y-40495890D01*
X102514400Y-40495876D01*
X102514400Y-40276123D01*
X102514399Y-40276109D01*
X102485715Y-40058248D01*
X102485715Y-40058244D01*
X102428842Y-39845990D01*
X102344744Y-39642958D01*
X102344744Y-39642957D01*
X102317709Y-39596131D01*
X102248769Y-39476725D01*
X106781100Y-39476725D01*
X106781100Y-41295274D01*
X106796474Y-41431721D01*
X106796474Y-41431723D01*
X106857004Y-41604707D01*
X106954511Y-41759891D01*
X106969661Y-41775041D01*
X107024505Y-41857120D01*
X107043763Y-41953939D01*
X107024505Y-42050758D01*
X107009867Y-42080439D01*
X106950812Y-42182723D01*
X106950810Y-42182727D01*
X106866686Y-42385821D01*
X106809793Y-42598146D01*
X106809791Y-42598154D01*
X106781100Y-42816077D01*
X106781100Y-43035922D01*
X106805955Y-43224705D01*
X106809792Y-43253849D01*
X106866686Y-43466178D01*
X106917967Y-43589983D01*
X106950810Y-43669272D01*
X106950812Y-43669276D01*
X107051761Y-43844123D01*
X107060717Y-43859635D01*
X107194535Y-44034029D01*
X107349971Y-44189465D01*
X107524365Y-44323283D01*
X107557581Y-44342460D01*
X107714723Y-44433187D01*
X107714727Y-44433189D01*
X107714730Y-44433190D01*
X107714735Y-44433193D01*
X107917822Y-44517314D01*
X108130151Y-44574208D01*
X108207944Y-44584449D01*
X108348077Y-44602899D01*
X108348087Y-44602899D01*
X108348090Y-44602900D01*
X108348092Y-44602900D01*
X108567908Y-44602900D01*
X108567910Y-44602900D01*
X108567912Y-44602899D01*
X108567922Y-44602899D01*
X108682123Y-44587863D01*
X108785849Y-44574208D01*
X108998178Y-44517314D01*
X109201265Y-44433193D01*
X109201272Y-44433189D01*
X109201276Y-44433187D01*
X109275941Y-44390079D01*
X109391635Y-44323283D01*
X109566029Y-44189465D01*
X109721465Y-44034029D01*
X109855283Y-43859635D01*
X109954378Y-43687998D01*
X109965187Y-43669276D01*
X109965189Y-43669272D01*
X109965189Y-43669271D01*
X109965193Y-43669265D01*
X110049314Y-43466178D01*
X110106208Y-43253849D01*
X110128367Y-43085533D01*
X110134899Y-43035922D01*
X110134900Y-43035907D01*
X110134900Y-42816092D01*
X110134899Y-42816077D01*
X110106208Y-42598154D01*
X110106208Y-42598151D01*
X110049314Y-42385822D01*
X109965193Y-42182735D01*
X109906129Y-42080434D01*
X109874401Y-41986964D01*
X109880856Y-41888460D01*
X109906466Y-41826862D01*
X109923024Y-41798355D01*
X109961487Y-41759893D01*
X110058994Y-41604710D01*
X110119526Y-41431721D01*
X110134900Y-41295272D01*
X110134900Y-40323286D01*
X110154158Y-40226467D01*
X110209002Y-40144388D01*
X111718392Y-38634998D01*
X114809026Y-35544364D01*
X114925829Y-35369556D01*
X115006284Y-35175320D01*
X115047300Y-34969120D01*
X115047300Y-34758880D01*
X115047300Y-32562098D01*
X115066558Y-32465279D01*
X115121402Y-32383200D01*
X115173799Y-32342994D01*
X115210612Y-32321741D01*
X115440479Y-32145358D01*
X115645358Y-31940479D01*
X115821741Y-31710612D01*
X115966612Y-31459688D01*
X116077491Y-31192002D01*
X116088302Y-31151657D01*
X116152481Y-30912137D01*
X116152482Y-30912132D01*
X116152495Y-30912037D01*
X116190300Y-30624871D01*
X116190300Y-30335129D01*
X116152482Y-30047867D01*
X116152481Y-30047862D01*
X116077494Y-29768007D01*
X116077492Y-29768002D01*
X116077491Y-29767998D01*
X115966612Y-29500312D01*
X115966609Y-29500306D01*
X115966608Y-29500304D01*
X115821907Y-29249675D01*
X115821741Y-29249388D01*
X115645358Y-29019521D01*
X115440479Y-28814642D01*
X115210612Y-28638259D01*
X115210602Y-28638253D01*
X114959695Y-28493391D01*
X114959693Y-28493390D01*
X114870459Y-28456428D01*
X114692002Y-28382509D01*
X114692001Y-28382508D01*
X114691992Y-28382505D01*
X114412137Y-28307518D01*
X114412132Y-28307517D01*
X114124873Y-28269700D01*
X114124871Y-28269700D01*
X113835129Y-28269700D01*
X113835126Y-28269700D01*
X113547867Y-28307517D01*
X113547862Y-28307518D01*
X113268007Y-28382505D01*
X113000306Y-28493390D01*
X113000304Y-28493391D01*
X112749397Y-28638253D01*
X112749384Y-28638262D01*
X112519518Y-28814644D01*
X112314644Y-29019518D01*
X112138262Y-29249384D01*
X112138253Y-29249397D01*
X111993391Y-29500304D01*
X111993390Y-29500306D01*
X111882505Y-29768007D01*
X111807518Y-30047862D01*
X111807517Y-30047867D01*
X111769700Y-30335126D01*
X111769700Y-30624873D01*
X111807517Y-30912132D01*
X111807518Y-30912137D01*
X111882505Y-31191992D01*
X111882508Y-31192001D01*
X111882509Y-31192002D01*
X111885689Y-31199679D01*
X111993390Y-31459693D01*
X111993391Y-31459695D01*
X112138100Y-31710337D01*
X112138259Y-31710612D01*
X112314642Y-31940479D01*
X112519521Y-32145358D01*
X112749388Y-32321741D01*
X112786199Y-32342993D01*
X112860416Y-32408079D01*
X112904078Y-32496614D01*
X112912700Y-32562098D01*
X112912700Y-34317114D01*
X112893442Y-34413933D01*
X112838598Y-34496012D01*
X108699612Y-38634998D01*
X108617533Y-38689842D01*
X108520714Y-38709100D01*
X107548725Y-38709100D01*
X107412278Y-38724474D01*
X107412276Y-38724474D01*
X107239292Y-38785004D01*
X107084108Y-38882511D01*
X106954511Y-39012108D01*
X106857004Y-39167292D01*
X106796474Y-39340276D01*
X106796474Y-39340278D01*
X106781100Y-39476725D01*
X102248769Y-39476725D01*
X102234866Y-39452645D01*
X102234865Y-39452643D01*
X102189581Y-39393627D01*
X101328690Y-40254518D01*
X101311381Y-40189919D01*
X101244502Y-40074080D01*
X101149920Y-39979498D01*
X101034081Y-39912619D01*
X100969478Y-39895308D01*
X101844302Y-39020485D01*
X101847275Y-38997901D01*
X101896632Y-38912409D01*
X101974947Y-38852314D01*
X101990019Y-38845484D01*
X102119556Y-38791829D01*
X102294364Y-38675026D01*
X108262430Y-32706958D01*
X108344506Y-32652117D01*
X108441325Y-32632859D01*
X108506807Y-32641480D01*
X108547866Y-32652482D01*
X108599199Y-32659239D01*
X108835129Y-32690300D01*
X108835131Y-32690300D01*
X109124869Y-32690300D01*
X109124871Y-32690300D01*
X109412133Y-32652482D01*
X109412137Y-32652481D01*
X109691992Y-32577494D01*
X109691994Y-32577493D01*
X109692002Y-32577491D01*
X109959688Y-32466612D01*
X110210612Y-32321741D01*
X110440479Y-32145358D01*
X110645358Y-31940479D01*
X110821741Y-31710612D01*
X110966612Y-31459688D01*
X111077491Y-31192002D01*
X111088302Y-31151657D01*
X111152481Y-30912137D01*
X111152482Y-30912132D01*
X111152495Y-30912037D01*
X111190300Y-30624871D01*
X111190300Y-30335129D01*
X111152482Y-30047867D01*
X111152481Y-30047862D01*
X111077494Y-29768007D01*
X111077492Y-29768002D01*
X111077491Y-29767998D01*
X110966612Y-29500312D01*
X110966609Y-29500306D01*
X110966608Y-29500304D01*
X110821907Y-29249675D01*
X110821741Y-29249388D01*
X110645358Y-29019521D01*
X110440479Y-28814642D01*
X110210612Y-28638259D01*
X110210602Y-28638253D01*
X109959695Y-28493391D01*
X109959693Y-28493390D01*
X109870459Y-28456428D01*
X109692002Y-28382509D01*
X109692001Y-28382508D01*
X109691992Y-28382505D01*
X109412137Y-28307518D01*
X109412132Y-28307517D01*
X109124873Y-28269700D01*
X109124871Y-28269700D01*
X108835129Y-28269700D01*
X108835126Y-28269700D01*
X108547867Y-28307517D01*
X108547862Y-28307518D01*
X108268007Y-28382505D01*
X108000306Y-28493390D01*
X108000304Y-28493391D01*
X107749397Y-28638253D01*
X107749384Y-28638262D01*
X107519518Y-28814644D01*
X107314644Y-29019518D01*
X107138262Y-29249384D01*
X107138253Y-29249397D01*
X106993391Y-29500304D01*
X106993390Y-29500306D01*
X106882505Y-29768007D01*
X106807518Y-30047862D01*
X106807517Y-30047867D01*
X106769700Y-30335126D01*
X106769700Y-30624873D01*
X106807517Y-30912132D01*
X106807518Y-30912137D01*
X106818519Y-30953191D01*
X106820683Y-30986212D01*
X106827140Y-31018672D01*
X106823884Y-31035040D01*
X106824976Y-31051695D01*
X106814338Y-31083031D01*
X106807882Y-31115491D01*
X106798608Y-31129370D01*
X106793244Y-31145172D01*
X106753038Y-31197570D01*
X106494717Y-31455891D01*
X106412638Y-31510735D01*
X106315819Y-31529993D01*
X106219000Y-31510735D01*
X106136921Y-31455891D01*
X106082077Y-31373812D01*
X106062819Y-31276993D01*
X106075525Y-31200050D01*
X106075348Y-31200003D01*
X106075831Y-31198198D01*
X106076253Y-31195646D01*
X106077484Y-31192017D01*
X106077491Y-31192002D01*
X106088302Y-31151657D01*
X106152481Y-30912137D01*
X106152482Y-30912132D01*
X106152495Y-30912037D01*
X106190300Y-30624871D01*
X106190300Y-30335129D01*
X106152482Y-30047867D01*
X106152481Y-30047862D01*
X106077494Y-29768007D01*
X106077492Y-29768002D01*
X106077491Y-29767998D01*
X105966612Y-29500312D01*
X105966609Y-29500306D01*
X105966608Y-29500304D01*
X105821907Y-29249675D01*
X105821741Y-29249388D01*
X105645358Y-29019521D01*
X105440479Y-28814642D01*
X105210612Y-28638259D01*
X105210602Y-28638253D01*
X104959695Y-28493391D01*
X104959693Y-28493390D01*
X104870459Y-28456428D01*
X104692002Y-28382509D01*
X104692001Y-28382508D01*
X104691992Y-28382505D01*
X104412137Y-28307518D01*
X104412132Y-28307517D01*
X104124873Y-28269700D01*
X104124871Y-28269700D01*
X103835129Y-28269700D01*
X103835126Y-28269700D01*
X103547867Y-28307517D01*
X103547862Y-28307518D01*
X103268007Y-28382505D01*
X103000306Y-28493390D01*
X103000304Y-28493391D01*
X102749397Y-28638253D01*
X102749384Y-28638262D01*
X102519518Y-28814644D01*
X102314644Y-29019518D01*
X102138262Y-29249384D01*
X102138253Y-29249397D01*
X101993391Y-29500304D01*
X101993390Y-29500306D01*
X101882505Y-29768007D01*
X101807518Y-30047862D01*
X101807517Y-30047867D01*
X101769700Y-30335126D01*
X101769700Y-30624873D01*
X101807517Y-30912132D01*
X101807518Y-30912137D01*
X101882505Y-31191992D01*
X101882508Y-31192001D01*
X101882509Y-31192002D01*
X101885689Y-31199679D01*
X101993390Y-31459693D01*
X101993391Y-31459695D01*
X102138100Y-31710337D01*
X102138259Y-31710612D01*
X102314642Y-31940479D01*
X102519521Y-32145358D01*
X102749388Y-32321741D01*
X102786199Y-32342993D01*
X102811077Y-32364811D01*
X102838598Y-32383200D01*
X102847870Y-32397077D01*
X102860416Y-32408079D01*
X102875051Y-32437756D01*
X102893442Y-32465279D01*
X102896698Y-32481649D01*
X102904078Y-32496614D01*
X102912700Y-32562098D01*
X102912700Y-32633114D01*
X102893442Y-32729933D01*
X102838598Y-32812012D01*
X100470012Y-35180598D01*
X100387933Y-35235442D01*
X100291114Y-35254700D01*
X96325486Y-35254700D01*
X96228667Y-35235442D01*
X96146588Y-35180598D01*
X96091744Y-35098519D01*
X96072486Y-35001700D01*
X96091744Y-34904881D01*
X96146588Y-34822802D01*
X97722645Y-33246744D01*
X98262430Y-32706958D01*
X98344506Y-32652118D01*
X98441325Y-32632859D01*
X98506807Y-32641480D01*
X98547866Y-32652482D01*
X98599199Y-32659239D01*
X98835129Y-32690300D01*
X98835131Y-32690300D01*
X99124869Y-32690300D01*
X99124871Y-32690300D01*
X99412133Y-32652482D01*
X99412137Y-32652481D01*
X99691992Y-32577494D01*
X99691994Y-32577493D01*
X99692002Y-32577491D01*
X99959688Y-32466612D01*
X100210612Y-32321741D01*
X100440479Y-32145358D01*
X100645358Y-31940479D01*
X100821741Y-31710612D01*
X100966612Y-31459688D01*
X101077491Y-31192002D01*
X101088302Y-31151657D01*
X101152481Y-30912137D01*
X101152482Y-30912132D01*
X101152495Y-30912037D01*
X101190300Y-30624871D01*
X101190300Y-30335129D01*
X101152482Y-30047867D01*
X101152481Y-30047862D01*
X101077494Y-29768007D01*
X101077492Y-29768002D01*
X101077491Y-29767998D01*
X100966612Y-29500312D01*
X100966609Y-29500306D01*
X100966608Y-29500304D01*
X100821907Y-29249675D01*
X100821741Y-29249388D01*
X100645358Y-29019521D01*
X100440479Y-28814642D01*
X100210612Y-28638259D01*
X100210602Y-28638253D01*
X99959695Y-28493391D01*
X99959693Y-28493390D01*
X99870459Y-28456428D01*
X99692002Y-28382509D01*
X99692001Y-28382508D01*
X99691992Y-28382505D01*
X99412137Y-28307518D01*
X99412132Y-28307517D01*
X99124873Y-28269700D01*
X99124871Y-28269700D01*
X98835129Y-28269700D01*
X98835126Y-28269700D01*
X98547867Y-28307517D01*
X98547862Y-28307518D01*
X98268007Y-28382505D01*
X98000306Y-28493390D01*
X98000304Y-28493391D01*
X97749397Y-28638253D01*
X97749384Y-28638262D01*
X97519518Y-28814644D01*
X97314644Y-29019518D01*
X97138262Y-29249384D01*
X97138253Y-29249397D01*
X96993391Y-29500304D01*
X96993390Y-29500306D01*
X96882505Y-29768007D01*
X96807518Y-30047862D01*
X96807517Y-30047867D01*
X96769700Y-30335126D01*
X96769700Y-30624873D01*
X96807517Y-30912132D01*
X96807518Y-30912137D01*
X96818519Y-30953191D01*
X96820683Y-30986215D01*
X96827140Y-31018672D01*
X96823884Y-31035039D01*
X96824976Y-31051695D01*
X96814338Y-31083032D01*
X96807882Y-31115490D01*
X96798608Y-31129368D01*
X96793244Y-31145172D01*
X96753038Y-31197570D01*
X96493917Y-31456692D01*
X96411838Y-31511535D01*
X96315019Y-31530794D01*
X96218201Y-31511536D01*
X96136121Y-31456692D01*
X96081278Y-31374613D01*
X96062019Y-31277794D01*
X96074889Y-31199845D01*
X96074874Y-31199841D01*
X96074917Y-31199679D01*
X96075448Y-31196464D01*
X96077018Y-31191838D01*
X96151989Y-30912040D01*
X96151989Y-30912037D01*
X96189799Y-30624838D01*
X96189800Y-30624835D01*
X96189800Y-30335164D01*
X96189799Y-30335161D01*
X96151989Y-30047962D01*
X96151989Y-30047959D01*
X96077020Y-29768169D01*
X96077013Y-29768150D01*
X95966165Y-29500540D01*
X95966158Y-29500524D01*
X95821329Y-29249675D01*
X95821320Y-29249662D01*
X95712006Y-29107201D01*
X94619818Y-30199390D01*
X94599003Y-30149136D01*
X94522561Y-30034732D01*
X94425268Y-29937439D01*
X94310864Y-29860997D01*
X94260607Y-29840180D01*
X95352796Y-28747992D01*
X95210337Y-28638679D01*
X95210324Y-28638670D01*
X94959475Y-28493841D01*
X94959459Y-28493834D01*
X94691849Y-28382986D01*
X94691830Y-28382979D01*
X94412039Y-28308010D01*
X94124838Y-28270200D01*
X93835161Y-28270200D01*
X93547962Y-28308010D01*
X93547959Y-28308010D01*
X93268169Y-28382979D01*
X93268150Y-28382986D01*
X93000540Y-28493834D01*
X93000524Y-28493841D01*
X92749673Y-28638671D01*
X92749663Y-28638678D01*
X92607201Y-28747991D01*
X93699390Y-29840180D01*
X93649136Y-29860997D01*
X93534732Y-29937439D01*
X93437439Y-30034732D01*
X93360997Y-30149136D01*
X93340180Y-30199390D01*
X92247991Y-29107201D01*
X92138678Y-29249663D01*
X92138671Y-29249673D01*
X91993841Y-29500524D01*
X91993834Y-29500540D01*
X91882986Y-29768150D01*
X91882979Y-29768169D01*
X91808010Y-30047959D01*
X91808010Y-30047962D01*
X91770200Y-30335161D01*
X91770200Y-30624838D01*
X91808010Y-30912037D01*
X91808010Y-30912040D01*
X91882979Y-31191830D01*
X91882986Y-31191849D01*
X91993834Y-31459459D01*
X91993841Y-31459475D01*
X92138670Y-31710324D01*
X92138679Y-31710337D01*
X92247992Y-31852796D01*
X93340180Y-30760607D01*
X93360997Y-30810864D01*
X93437439Y-30925268D01*
X93534732Y-31022561D01*
X93649136Y-31099003D01*
X93699390Y-31119818D01*
X92607201Y-32212006D01*
X92749662Y-32321320D01*
X92749675Y-32321329D01*
X93000524Y-32466158D01*
X93000540Y-32466165D01*
X93268150Y-32577013D01*
X93268169Y-32577020D01*
X93547960Y-32651989D01*
X93835161Y-32689799D01*
X93835164Y-32689800D01*
X94124836Y-32689800D01*
X94124838Y-32689799D01*
X94412037Y-32651989D01*
X94412040Y-32651989D01*
X94691819Y-32577023D01*
X94696447Y-32575452D01*
X94698880Y-32575131D01*
X94699841Y-32574874D01*
X94699874Y-32575000D01*
X94794317Y-32562558D01*
X94889671Y-32588099D01*
X94967994Y-32648185D01*
X95017360Y-32733671D01*
X95030254Y-32831541D01*
X95004713Y-32926895D01*
X94956692Y-32993916D01*
X93532012Y-34418598D01*
X93449933Y-34473441D01*
X93353114Y-34492700D01*
X92594990Y-34492700D01*
X92498171Y-34473442D01*
X92416092Y-34418598D01*
X92294028Y-34296534D01*
X92241954Y-34256576D01*
X92119635Y-34162717D01*
X92119625Y-34162711D01*
X91929276Y-34052812D01*
X91929272Y-34052810D01*
X91726178Y-33968686D01*
X91513853Y-33911793D01*
X91513845Y-33911791D01*
X91295922Y-33883100D01*
X91295910Y-33883100D01*
X91076090Y-33883100D01*
X91076077Y-33883100D01*
X90858154Y-33911791D01*
X90858146Y-33911793D01*
X90645821Y-33968686D01*
X90442727Y-34052810D01*
X90442723Y-34052812D01*
X90252374Y-34162711D01*
X90252361Y-34162720D01*
X90077971Y-34296534D01*
X89955908Y-34418598D01*
X89873829Y-34473442D01*
X89777010Y-34492700D01*
X69988990Y-34492700D01*
X69892171Y-34473442D01*
X69810092Y-34418598D01*
X69688028Y-34296534D01*
X69635954Y-34256576D01*
X69513635Y-34162717D01*
X69513625Y-34162711D01*
X69323276Y-34052812D01*
X69323272Y-34052810D01*
X69120178Y-33968686D01*
X69120167Y-33968683D01*
X68989898Y-33933777D01*
X68901365Y-33890117D01*
X68836278Y-33815898D01*
X68804547Y-33722421D01*
X68811004Y-33623916D01*
X68854665Y-33535381D01*
X68928884Y-33470294D01*
X69022361Y-33438563D01*
X69055383Y-33436399D01*
X69256387Y-33436399D01*
X69256389Y-33436398D01*
X69302839Y-33433633D01*
X69302845Y-33433632D01*
X69504885Y-33389681D01*
X69694953Y-33308290D01*
X69866190Y-33192393D01*
X70012393Y-33046190D01*
X70128290Y-32874953D01*
X70209681Y-32684885D01*
X70253631Y-32482850D01*
X70253633Y-32482836D01*
X70256399Y-32436404D01*
X70256400Y-32436394D01*
X70256400Y-32014000D01*
X68900737Y-32014000D01*
X68905201Y-32009536D01*
X68958705Y-31916865D01*
X68986400Y-31813504D01*
X68986400Y-31706496D01*
X68958705Y-31603135D01*
X68905201Y-31510464D01*
X68900737Y-31506000D01*
X70256399Y-31506000D01*
X70256399Y-31083612D01*
X70256398Y-31083611D01*
X70253633Y-31037160D01*
X70253632Y-31037154D01*
X70209681Y-30835114D01*
X70128290Y-30645046D01*
X70012393Y-30473809D01*
X69866190Y-30327606D01*
X69694953Y-30211709D01*
X69504885Y-30130318D01*
X69302850Y-30086368D01*
X69302836Y-30086366D01*
X69256404Y-30083600D01*
X68834000Y-30083600D01*
X68834000Y-31439263D01*
X68829536Y-31434799D01*
X68736865Y-31381295D01*
X68633504Y-31353600D01*
X68526496Y-31353600D01*
X68423135Y-31381295D01*
X68330464Y-31434799D01*
X68326000Y-31439263D01*
X68326000Y-30083600D01*
X67903612Y-30083600D01*
X67903610Y-30083601D01*
X67857160Y-30086366D01*
X67857154Y-30086367D01*
X67655114Y-30130318D01*
X67465046Y-30211709D01*
X67293809Y-30327606D01*
X67147606Y-30473809D01*
X67031709Y-30645046D01*
X66950318Y-30835114D01*
X66906368Y-31037149D01*
X66906366Y-31037163D01*
X66903600Y-31083595D01*
X66903600Y-31506000D01*
X68259263Y-31506000D01*
X68254799Y-31510464D01*
X68201295Y-31603135D01*
X68173600Y-31706496D01*
X68173600Y-31813504D01*
X68201295Y-31916865D01*
X68254799Y-32009536D01*
X68259263Y-32014000D01*
X66903601Y-32014000D01*
X66903601Y-32436388D01*
X66906366Y-32482839D01*
X66906367Y-32482845D01*
X66950318Y-32684885D01*
X67031709Y-32874953D01*
X67147606Y-33046190D01*
X67293809Y-33192393D01*
X67465046Y-33308290D01*
X67655114Y-33389681D01*
X67857149Y-33433631D01*
X67857163Y-33433633D01*
X67903600Y-33436399D01*
X68104612Y-33436399D01*
X68201431Y-33455657D01*
X68283510Y-33510500D01*
X68338354Y-33592579D01*
X68357613Y-33689398D01*
X68338355Y-33786217D01*
X68283512Y-33868296D01*
X68201433Y-33923140D01*
X68170097Y-33933777D01*
X68039830Y-33968683D01*
X68039824Y-33968685D01*
X68039822Y-33968686D01*
X67924251Y-34016556D01*
X67836727Y-34052810D01*
X67836723Y-34052812D01*
X67646374Y-34162711D01*
X67646361Y-34162720D01*
X67471971Y-34296534D01*
X67316534Y-34451971D01*
X67182720Y-34626361D01*
X67182711Y-34626374D01*
X67072812Y-34816723D01*
X67072810Y-34816727D01*
X66988686Y-35019821D01*
X66931793Y-35232146D01*
X66931791Y-35232154D01*
X66903100Y-35450077D01*
X66903100Y-35669922D01*
X66931791Y-35887845D01*
X66931793Y-35887853D01*
X66988686Y-36100178D01*
X67072810Y-36303272D01*
X67072812Y-36303276D01*
X67182711Y-36493625D01*
X67182717Y-36493635D01*
X67283080Y-36624430D01*
X67316534Y-36668028D01*
X67438598Y-36790092D01*
X67493442Y-36872171D01*
X67512700Y-36968990D01*
X67512700Y-41042880D01*
X67512700Y-41253120D01*
X67553716Y-41459320D01*
X67630796Y-41645407D01*
X67634172Y-41653558D01*
X67750972Y-41828362D01*
X68632398Y-42709788D01*
X68687242Y-42791867D01*
X68706500Y-42888686D01*
X68706500Y-43055977D01*
X68747165Y-43312727D01*
X68827496Y-43559959D01*
X68945510Y-43791576D01*
X69098305Y-44001879D01*
X69113528Y-44017102D01*
X69168372Y-44099181D01*
X69187630Y-44196000D01*
X69168372Y-44292819D01*
X69113528Y-44374898D01*
X69098307Y-44390118D01*
X69098305Y-44390120D01*
X68945510Y-44600423D01*
X68827496Y-44832040D01*
X68747165Y-45079272D01*
X68706500Y-45336022D01*
X68706500Y-45595977D01*
X68747165Y-45852727D01*
X68827496Y-46099959D01*
X68945510Y-46331576D01*
X69098305Y-46541879D01*
X69159309Y-46602883D01*
X69214153Y-46684962D01*
X69233411Y-46781781D01*
X69214153Y-46878600D01*
X69159309Y-46960679D01*
X69077230Y-47015523D01*
X69028348Y-47027258D01*
X68945938Y-47140687D01*
X68945935Y-47140692D01*
X68827958Y-47372236D01*
X68747652Y-47619394D01*
X68707000Y-47876061D01*
X68707000Y-48135938D01*
X68747652Y-48392605D01*
X68827958Y-48639763D01*
X68945935Y-48871307D01*
X68945939Y-48871314D01*
X69024855Y-48979932D01*
X69024856Y-48979933D01*
X69951600Y-48053188D01*
X69951600Y-48059504D01*
X69979295Y-48162865D01*
X70032799Y-48255536D01*
X70108464Y-48331201D01*
X70201135Y-48384705D01*
X70304496Y-48412400D01*
X70310810Y-48412400D01*
X69347037Y-49376171D01*
X69316889Y-49430008D01*
X69239366Y-49491123D01*
X69144357Y-49517920D01*
X69124504Y-49518700D01*
X60276886Y-49518700D01*
X60180067Y-49499442D01*
X60097988Y-49444598D01*
X57021402Y-46368012D01*
X56966558Y-46285933D01*
X56947300Y-46189114D01*
X56947300Y-36868886D01*
X56966558Y-36772067D01*
X57021402Y-36689988D01*
X64629988Y-29081402D01*
X64712067Y-29026558D01*
X64808886Y-29007300D01*
X77024588Y-29007300D01*
X77121407Y-29026558D01*
X77203486Y-29081402D01*
X77234110Y-29118492D01*
X77285072Y-29193789D01*
X77307218Y-29226509D01*
X77453491Y-29372782D01*
X77624803Y-29488729D01*
X77814963Y-29570160D01*
X78017097Y-29614132D01*
X78063564Y-29616900D01*
X78063568Y-29616900D01*
X78264679Y-29616900D01*
X78361498Y-29636158D01*
X78443577Y-29691002D01*
X78498421Y-29773081D01*
X78517679Y-29869900D01*
X78498421Y-29966719D01*
X78443577Y-30048798D01*
X78361498Y-30103642D01*
X78330160Y-30114279D01*
X78199990Y-30149157D01*
X77996958Y-30233255D01*
X77996957Y-30233255D01*
X77806647Y-30343132D01*
X77806640Y-30343137D01*
X77747627Y-30388416D01*
X78692811Y-31333600D01*
X78686496Y-31333600D01*
X78583135Y-31361295D01*
X78490464Y-31414799D01*
X78414799Y-31490464D01*
X78361295Y-31583135D01*
X78333600Y-31686496D01*
X78333600Y-31692811D01*
X77388416Y-30747627D01*
X77343137Y-30806640D01*
X77343132Y-30806647D01*
X77233255Y-30996957D01*
X77233255Y-30996958D01*
X77149157Y-31199990D01*
X77092284Y-31412244D01*
X77092284Y-31412248D01*
X77063600Y-31630109D01*
X77063600Y-31849890D01*
X77092284Y-32067751D01*
X77092284Y-32067755D01*
X77149157Y-32280009D01*
X77233255Y-32483041D01*
X77233255Y-32483042D01*
X77343133Y-32673354D01*
X77343141Y-32673366D01*
X77388416Y-32732370D01*
X77388417Y-32732371D01*
X78333600Y-31787187D01*
X78333600Y-31793504D01*
X78361295Y-31896865D01*
X78414799Y-31989536D01*
X78490464Y-32065201D01*
X78583135Y-32118705D01*
X78686496Y-32146400D01*
X78692810Y-32146400D01*
X77747627Y-33091582D01*
X77806643Y-33136865D01*
X77806645Y-33136866D01*
X77996957Y-33246744D01*
X78199990Y-33330842D01*
X78412246Y-33387715D01*
X78630109Y-33416399D01*
X78630124Y-33416400D01*
X78849876Y-33416400D01*
X78849890Y-33416399D01*
X79067751Y-33387715D01*
X79067755Y-33387715D01*
X79280009Y-33330842D01*
X79483041Y-33246744D01*
X79483042Y-33246744D01*
X79673353Y-33136867D01*
X79732371Y-33091581D01*
X78787190Y-32146400D01*
X78793504Y-32146400D01*
X78896865Y-32118705D01*
X78989536Y-32065201D01*
X79065201Y-31989536D01*
X79118705Y-31896865D01*
X79146400Y-31793504D01*
X79146400Y-31787189D01*
X80091581Y-32732370D01*
X80136867Y-32673353D01*
X80246744Y-32483042D01*
X80246744Y-32483041D01*
X80330842Y-32280009D01*
X80387715Y-32067755D01*
X80387715Y-32067751D01*
X80416399Y-31849890D01*
X80416400Y-31849876D01*
X80416400Y-31630123D01*
X80416399Y-31630109D01*
X80387715Y-31412248D01*
X80387715Y-31412244D01*
X80330842Y-31199990D01*
X80246744Y-30996958D01*
X80246744Y-30996957D01*
X80136866Y-30806645D01*
X80136865Y-30806643D01*
X80091581Y-30747627D01*
X79146400Y-31692808D01*
X79146400Y-31686496D01*
X79118705Y-31583135D01*
X79065201Y-31490464D01*
X78989536Y-31414799D01*
X78896865Y-31361295D01*
X78793504Y-31333600D01*
X78787187Y-31333600D01*
X79732371Y-30388417D01*
X79732370Y-30388416D01*
X79673366Y-30343141D01*
X79673354Y-30343133D01*
X79483042Y-30233255D01*
X79280009Y-30149157D01*
X79149840Y-30114279D01*
X79061305Y-30070619D01*
X78996217Y-29996401D01*
X78964486Y-29902924D01*
X78970942Y-29804419D01*
X79014602Y-29715884D01*
X79088820Y-29650796D01*
X79182297Y-29619065D01*
X79215321Y-29616900D01*
X79416432Y-29616900D01*
X79416436Y-29616900D01*
X79462903Y-29614132D01*
X79665037Y-29570160D01*
X79855197Y-29488729D01*
X80026509Y-29372782D01*
X80172782Y-29226509D01*
X80245890Y-29118492D01*
X80316106Y-29049106D01*
X80407531Y-29011872D01*
X80455412Y-29007300D01*
X85893114Y-29007300D01*
X85989933Y-29026558D01*
X86072012Y-29081402D01*
X86753038Y-29762428D01*
X86807882Y-29844507D01*
X86827140Y-29941326D01*
X86818520Y-30006803D01*
X86807518Y-30047865D01*
X86769700Y-30335126D01*
X86769700Y-30624873D01*
X86807517Y-30912132D01*
X86807518Y-30912137D01*
X86882505Y-31191992D01*
X86882508Y-31192001D01*
X86882509Y-31192002D01*
X86885689Y-31199679D01*
X86993390Y-31459693D01*
X86993391Y-31459695D01*
X87138100Y-31710337D01*
X87138259Y-31710612D01*
X87314642Y-31940479D01*
X87519521Y-32145358D01*
X87749388Y-32321741D01*
X87749397Y-32321746D01*
X88000304Y-32466608D01*
X88000306Y-32466609D01*
X88000308Y-32466610D01*
X88000312Y-32466612D01*
X88267998Y-32577491D01*
X88268002Y-32577492D01*
X88268007Y-32577494D01*
X88547862Y-32652481D01*
X88547867Y-32652482D01*
X88835129Y-32690300D01*
X88835131Y-32690300D01*
X89124869Y-32690300D01*
X89124871Y-32690300D01*
X89412133Y-32652482D01*
X89412137Y-32652481D01*
X89691992Y-32577494D01*
X89691994Y-32577493D01*
X89692002Y-32577491D01*
X89959688Y-32466612D01*
X90210612Y-32321741D01*
X90440479Y-32145358D01*
X90645358Y-31940479D01*
X90821741Y-31710612D01*
X90966612Y-31459688D01*
X91077491Y-31192002D01*
X91088302Y-31151657D01*
X91152481Y-30912137D01*
X91152482Y-30912132D01*
X91152495Y-30912037D01*
X91190300Y-30624871D01*
X91190300Y-30335129D01*
X91152482Y-30047867D01*
X91152481Y-30047862D01*
X91077494Y-29768007D01*
X91077492Y-29768002D01*
X91077491Y-29767998D01*
X90966612Y-29500312D01*
X90966609Y-29500306D01*
X90966608Y-29500304D01*
X90821907Y-29249675D01*
X90821741Y-29249388D01*
X90645358Y-29019521D01*
X90440479Y-28814642D01*
X90210612Y-28638259D01*
X90210602Y-28638253D01*
X89959695Y-28493391D01*
X89959693Y-28493390D01*
X89870459Y-28456428D01*
X89692002Y-28382509D01*
X89692001Y-28382508D01*
X89691992Y-28382505D01*
X89412137Y-28307518D01*
X89412132Y-28307517D01*
X89124873Y-28269700D01*
X89124871Y-28269700D01*
X88835129Y-28269700D01*
X88835126Y-28269700D01*
X88547865Y-28307518D01*
X88506803Y-28318520D01*
X88408299Y-28324975D01*
X88314822Y-28293242D01*
X88262428Y-28253038D01*
X87120362Y-27110972D01*
X86945558Y-26994172D01*
X86945556Y-26994171D01*
X86751320Y-26913716D01*
X86545120Y-26872700D01*
X86545116Y-26872700D01*
X80455412Y-26872700D01*
X80436108Y-26868860D01*
X80416444Y-26869681D01*
X80388149Y-26859321D01*
X80358593Y-26853442D01*
X80342226Y-26842506D01*
X80323747Y-26835740D01*
X80304179Y-26817083D01*
X80276514Y-26798598D01*
X80251094Y-26768909D01*
X80248429Y-26765260D01*
X80172782Y-26653491D01*
X80150627Y-26631336D01*
X80139069Y-26615509D01*
X80126386Y-26588174D01*
X80109645Y-26563119D01*
X80105805Y-26543815D01*
X80097522Y-26525962D01*
X80096265Y-26495854D01*
X80090387Y-26466300D01*
X80094226Y-26446996D01*
X80093406Y-26427332D01*
X80103765Y-26399037D01*
X80109645Y-26369481D01*
X80120580Y-26353114D01*
X80127347Y-26334635D01*
X80147747Y-26312457D01*
X80164489Y-26287402D01*
X80180852Y-26276467D01*
X80194178Y-26261982D01*
X80221512Y-26249299D01*
X80246568Y-26232558D01*
X80265871Y-26228718D01*
X80283725Y-26220435D01*
X80313832Y-26219178D01*
X80343387Y-26213300D01*
X119294519Y-26213300D01*
X119375270Y-26213300D01*
X119384730Y-26213477D01*
G37*
%TD.AperFunction*%
%TA.AperFunction,Conductor*%
G36*
X78333600Y-55639504D02*
G01*
X78361295Y-55742865D01*
X78414799Y-55835536D01*
X78490464Y-55911201D01*
X78583135Y-55964705D01*
X78686496Y-55992400D01*
X78692810Y-55992400D01*
X78172271Y-56512938D01*
X78091655Y-56566808D01*
X78090206Y-56567775D01*
X78085374Y-56569777D01*
X77988559Y-56589041D01*
X77891738Y-56569788D01*
X77809656Y-56514950D01*
X77754807Y-56432874D01*
X77735543Y-56336057D01*
X77754796Y-56239236D01*
X77809634Y-56157154D01*
X77809645Y-56157143D01*
X78333600Y-55633187D01*
X78333600Y-55639504D01*
G37*
%TD.AperFunction*%
%TA.AperFunction,Conductor*%
G36*
X72294157Y-47440271D02*
G01*
X72383805Y-47481600D01*
X72413993Y-47507383D01*
X73741637Y-48835027D01*
X73834225Y-48896892D01*
X73916444Y-48951829D01*
X74109895Y-49031959D01*
X74191973Y-49086802D01*
X74246817Y-49168881D01*
X74266075Y-49265700D01*
X74246817Y-49362519D01*
X74191973Y-49444598D01*
X74109894Y-49499442D01*
X74013075Y-49518700D01*
X71591495Y-49518700D01*
X71494676Y-49499442D01*
X71412597Y-49444598D01*
X71362674Y-49369884D01*
X70405190Y-48412400D01*
X70411504Y-48412400D01*
X70514865Y-48384705D01*
X70607536Y-48331201D01*
X70683201Y-48255536D01*
X70736705Y-48162865D01*
X70764400Y-48059504D01*
X70764400Y-48053190D01*
X71691142Y-48979932D01*
X71770063Y-48871308D01*
X71888041Y-48639765D01*
X71968347Y-48392605D01*
X72008999Y-48135938D01*
X72009000Y-48135935D01*
X72009000Y-47876065D01*
X72008999Y-47876061D01*
X71985210Y-47725859D01*
X71989085Y-47627219D01*
X72030414Y-47537571D01*
X72102903Y-47470563D01*
X72195517Y-47436396D01*
X72294157Y-47440271D01*
G37*
%TD.AperFunction*%
%TA.AperFunction,Conductor*%
G36*
X69544286Y-46932798D02*
G01*
X69554275Y-46931616D01*
X69592390Y-46942366D01*
X69631241Y-46950094D01*
X69649284Y-46958413D01*
X69655050Y-46961351D01*
X69719086Y-47007876D01*
X70310810Y-47599600D01*
X70304496Y-47599600D01*
X70201135Y-47627295D01*
X70108464Y-47680799D01*
X70032799Y-47756464D01*
X69979295Y-47849135D01*
X69951600Y-47952496D01*
X69951600Y-47958810D01*
X69355524Y-47362734D01*
X69349935Y-47354369D01*
X69342038Y-47348144D01*
X69322688Y-47313593D01*
X69300680Y-47280655D01*
X69298717Y-47270788D01*
X69293804Y-47262015D01*
X69289149Y-47222684D01*
X69281422Y-47183836D01*
X69283384Y-47173971D01*
X69282202Y-47163983D01*
X69292952Y-47125867D01*
X69300680Y-47087017D01*
X69306269Y-47078652D01*
X69308999Y-47068974D01*
X69333515Y-47037876D01*
X69355524Y-47004938D01*
X69363888Y-46999349D01*
X69370114Y-46991452D01*
X69404664Y-46972102D01*
X69437603Y-46950094D01*
X69447469Y-46948131D01*
X69456243Y-46943218D01*
X69495573Y-46938563D01*
X69534422Y-46930836D01*
X69544286Y-46932798D01*
G37*
%TD.AperFunction*%
%TA.AperFunction,Conductor*%
G36*
X113778474Y-43489264D02*
G01*
X113784057Y-43497620D01*
X113791949Y-43503841D01*
X113811305Y-43538398D01*
X113833318Y-43571343D01*
X113835278Y-43581200D01*
X113840189Y-43589967D01*
X113844847Y-43629305D01*
X113852576Y-43668162D01*
X113850615Y-43678018D01*
X113851797Y-43687998D01*
X113841047Y-43726121D01*
X113833318Y-43764981D01*
X113827733Y-43773338D01*
X113825007Y-43783009D01*
X113800485Y-43814117D01*
X113778474Y-43847060D01*
X113770117Y-43852643D01*
X113763897Y-43860535D01*
X113729339Y-43879891D01*
X113696395Y-43901904D01*
X113686537Y-43903864D01*
X113677771Y-43908775D01*
X113638432Y-43913433D01*
X113599576Y-43921162D01*
X113589719Y-43919201D01*
X113579740Y-43920383D01*
X113541616Y-43909633D01*
X113502757Y-43901904D01*
X113484729Y-43893593D01*
X113478964Y-43890656D01*
X113414913Y-43844123D01*
X112823190Y-43252400D01*
X112829504Y-43252400D01*
X112932865Y-43224705D01*
X113025536Y-43171201D01*
X113101201Y-43095536D01*
X113154705Y-43002865D01*
X113182400Y-42899504D01*
X113182400Y-42893190D01*
X113778474Y-43489264D01*
G37*
%TD.AperFunction*%
%TA.AperFunction,Conductor*%
G36*
X112369600Y-42899504D02*
G01*
X112397295Y-43002865D01*
X112450799Y-43095536D01*
X112526464Y-43171201D01*
X112619135Y-43224705D01*
X112722496Y-43252400D01*
X112728810Y-43252400D01*
X112137086Y-43844122D01*
X112073050Y-43890647D01*
X112067284Y-43893585D01*
X111972275Y-43920382D01*
X111874243Y-43908780D01*
X111788114Y-43860546D01*
X111726999Y-43783024D01*
X111700202Y-43688015D01*
X111711804Y-43589983D01*
X111760038Y-43503854D01*
X111773524Y-43489264D01*
X112369600Y-42893188D01*
X112369600Y-42899504D01*
G37*
%TD.AperFunction*%
%TA.AperFunction,Conductor*%
G36*
X99438769Y-38932558D02*
G01*
X99479417Y-38959718D01*
X99520066Y-38932558D01*
X99616885Y-38913300D01*
X99619715Y-38913300D01*
X99716534Y-38932558D01*
X99798613Y-38987402D01*
X100706520Y-39895309D01*
X100641919Y-39912619D01*
X100526080Y-39979498D01*
X100431498Y-40074080D01*
X100364619Y-40189919D01*
X100347309Y-40254519D01*
X99486417Y-39393628D01*
X99441131Y-39452648D01*
X99331255Y-39642957D01*
X99331255Y-39642958D01*
X99247157Y-39845990D01*
X99190284Y-40058244D01*
X99190284Y-40058248D01*
X99161600Y-40276109D01*
X99161600Y-40495890D01*
X99190284Y-40713751D01*
X99190284Y-40713755D01*
X99247157Y-40926009D01*
X99302456Y-41059513D01*
X99321714Y-41156332D01*
X99302455Y-41253150D01*
X99247612Y-41335229D01*
X99165532Y-41390073D01*
X99068713Y-41409331D01*
X98971896Y-41390073D01*
X98838183Y-41334688D01*
X98838180Y-41334687D01*
X98838181Y-41334687D01*
X98838178Y-41334686D01*
X98625849Y-41277792D01*
X98625845Y-41277791D01*
X98407922Y-41249100D01*
X98407910Y-41249100D01*
X98188090Y-41249100D01*
X98188077Y-41249100D01*
X97970154Y-41277791D01*
X97970146Y-41277793D01*
X97757821Y-41334686D01*
X97554727Y-41418810D01*
X97554723Y-41418812D01*
X97364374Y-41528711D01*
X97364361Y-41528720D01*
X97189971Y-41662534D01*
X97156098Y-41696408D01*
X97074019Y-41751252D01*
X96977200Y-41770510D01*
X96880381Y-41751252D01*
X96798302Y-41696408D01*
X96764428Y-41662534D01*
X96689070Y-41604710D01*
X96590035Y-41528717D01*
X96563696Y-41513510D01*
X96399676Y-41418812D01*
X96399672Y-41418810D01*
X96343384Y-41395495D01*
X96196578Y-41334686D01*
X96126685Y-41315958D01*
X95984253Y-41277793D01*
X95984246Y-41277791D01*
X95861546Y-41261637D01*
X95768069Y-41229905D01*
X95693851Y-41164817D01*
X95650191Y-41076281D01*
X95643736Y-40977777D01*
X95675468Y-40884300D01*
X95715669Y-40831908D01*
X97560176Y-38987402D01*
X97642255Y-38932558D01*
X97739074Y-38913300D01*
X99341950Y-38913300D01*
X99438769Y-38932558D01*
G37*
%TD.AperFunction*%
%TD*%
M02*
