%TF.GenerationSoftware,KiCad,Pcbnew,9.0.1*%
%TF.CreationDate,2025-05-14T12:06:16-07:00*%
%TF.ProjectId,SynthPowerSupply,53796e74-6850-46f7-9765-72537570706c,rev?*%
%TF.SameCoordinates,Original*%
%TF.FileFunction,Copper,L2,Bot*%
%TF.FilePolarity,Positive*%
%FSLAX46Y46*%
G04 Gerber Fmt 4.6, Leading zero omitted, Abs format (unit mm)*
G04 Created by KiCad (PCBNEW 9.0.1) date 2025-05-14 12:06:16*
%MOMM*%
%LPD*%
G01*
G04 APERTURE LIST*
G04 Aperture macros list*
%AMRoundRect*
0 Rectangle with rounded corners*
0 $1 Rounding radius*
0 $2 $3 $4 $5 $6 $7 $8 $9 X,Y pos of 4 corners*
0 Add a 4 corners polygon primitive as box body*
4,1,4,$2,$3,$4,$5,$6,$7,$8,$9,$2,$3,0*
0 Add four circle primitives for the rounded corners*
1,1,$1+$1,$2,$3*
1,1,$1+$1,$4,$5*
1,1,$1+$1,$6,$7*
1,1,$1+$1,$8,$9*
0 Add four rect primitives between the rounded corners*
20,1,$1+$1,$2,$3,$4,$5,0*
20,1,$1+$1,$4,$5,$6,$7,0*
20,1,$1+$1,$6,$7,$8,$9,0*
20,1,$1+$1,$8,$9,$2,$3,0*%
G04 Aperture macros list end*
%TA.AperFunction,ComponentPad*%
%ADD10R,2.200000X2.200000*%
%TD*%
%TA.AperFunction,ComponentPad*%
%ADD11O,2.200000X2.200000*%
%TD*%
%TA.AperFunction,ComponentPad*%
%ADD12C,1.524000*%
%TD*%
%TA.AperFunction,ComponentPad*%
%ADD13R,3.302000X3.302000*%
%TD*%
%TA.AperFunction,ComponentPad*%
%ADD14C,3.302000*%
%TD*%
%TA.AperFunction,ComponentPad*%
%ADD15C,3.100000*%
%TD*%
%TA.AperFunction,ConnectorPad*%
%ADD16C,4.500000*%
%TD*%
%TA.AperFunction,ComponentPad*%
%ADD17C,2.108200*%
%TD*%
%TA.AperFunction,ComponentPad*%
%ADD18R,4.064000X4.064000*%
%TD*%
%TA.AperFunction,ComponentPad*%
%ADD19RoundRect,1.016000X-1.016000X1.016000X-1.016000X-1.016000X1.016000X-1.016000X1.016000X1.016000X0*%
%TD*%
%TA.AperFunction,ComponentPad*%
%ADD20RoundRect,0.250000X-0.750000X-0.750000X0.750000X-0.750000X0.750000X0.750000X-0.750000X0.750000X0*%
%TD*%
%TA.AperFunction,ComponentPad*%
%ADD21C,2.000000*%
%TD*%
%TA.AperFunction,Conductor*%
%ADD22C,0.762000*%
%TD*%
%TA.AperFunction,Conductor*%
%ADD23C,1.270000*%
%TD*%
G04 APERTURE END LIST*
D10*
%TO.P,D4,1,K*%
%TO.N,-12V*%
X64008000Y-120904000D03*
D11*
%TO.P,D4,2,A*%
%TO.N,Net-(D2-A)*%
X74168000Y-120904000D03*
%TD*%
D10*
%TO.P,D2,1,K*%
%TO.N,Net-(D1-A)*%
X50800000Y-22860000D03*
D11*
%TO.P,D2,2,A*%
%TO.N,Net-(D2-A)*%
X50800000Y-33020000D03*
%TD*%
D12*
%TO.P,C7,1*%
%TO.N,Net-(D1-K)*%
X28491401Y-97028000D03*
%TO.P,C7,2*%
%TO.N,GND*%
X30491401Y-97028000D03*
%TD*%
D13*
%TO.P,C6,1*%
%TO.N,GND*%
X68402755Y-45720000D03*
D14*
%TO.P,C6,2*%
%TO.N,Net-(D2-A)*%
X75902755Y-45720000D03*
%TD*%
D12*
%TO.P,C17,1*%
%TO.N,+5V*%
X47287401Y-114046000D03*
%TO.P,C17,2*%
%TO.N,GND*%
X49287401Y-114046000D03*
%TD*%
%TO.P,C8,1*%
%TO.N,+12V*%
X28674401Y-114006000D03*
%TO.P,C8,2*%
%TO.N,GND*%
X30674401Y-114006000D03*
%TD*%
D15*
%TO.P,REF\u002A\u002A,1*%
%TO.N,N/C*%
X29210000Y-24130000D03*
D16*
X29210000Y-24130000D03*
%TD*%
D12*
%TO.P,C9,1*%
%TO.N,GND*%
X65575401Y-97028000D03*
%TO.P,C9,2*%
%TO.N,Net-(D2-A)*%
X67575401Y-97028000D03*
%TD*%
D13*
%TO.P,C13,1*%
%TO.N,Net-(D5-K)*%
X50001246Y-45720000D03*
D14*
%TO.P,C13,2*%
%TO.N,GND*%
X57501246Y-45720000D03*
%TD*%
D10*
%TO.P,D1,1,K*%
%TO.N,Net-(D1-K)*%
X34290000Y-33020000D03*
D11*
%TO.P,D1,2,A*%
%TO.N,Net-(D1-A)*%
X34290000Y-22860000D03*
%TD*%
D13*
%TO.P,C4,1*%
%TO.N,GND*%
X68522755Y-83820000D03*
D14*
%TO.P,C4,2*%
%TO.N,Net-(D2-A)*%
X76022755Y-83820000D03*
%TD*%
D15*
%TO.P,,1*%
%TO.N,N/C*%
X29210000Y-128270000D03*
%TD*%
D17*
%TO.P,U2,1,GND*%
%TO.N,GND*%
X66365000Y-102870000D03*
%TO.P,U2,2,VI*%
%TO.N,Net-(D2-A)*%
X66365000Y-105410000D03*
%TO.P,U2,3,VO*%
%TO.N,-12V*%
X66365000Y-107950000D03*
%TD*%
D12*
%TO.P,C16,1*%
%TO.N,Net-(D5-K)*%
X46990000Y-97028000D03*
%TO.P,C16,2*%
%TO.N,GND*%
X48990000Y-97028000D03*
%TD*%
D13*
%TO.P,C2,1*%
%TO.N,Net-(D1-K)*%
X31790000Y-64770000D03*
D14*
%TO.P,C2,2*%
%TO.N,GND*%
X39290000Y-64770000D03*
%TD*%
D15*
%TO.P,REF\u002A\u002A,1*%
%TO.N,N/C*%
X78740000Y-24130000D03*
D16*
X78740000Y-24130000D03*
%TD*%
D13*
%TO.P,C14,1*%
%TO.N,Net-(D5-K)*%
X50121246Y-64770000D03*
D14*
%TO.P,C14,2*%
%TO.N,GND*%
X57621246Y-64770000D03*
%TD*%
D15*
%TO.P,,1*%
%TO.N,N/C*%
X78740000Y-24130000D03*
%TD*%
D13*
%TO.P,C5,1*%
%TO.N,GND*%
X68402755Y-64770000D03*
D14*
%TO.P,C5,2*%
%TO.N,Net-(D2-A)*%
X75902755Y-64770000D03*
%TD*%
D13*
%TO.P,C15,1*%
%TO.N,Net-(D5-K)*%
X50081246Y-83820000D03*
D14*
%TO.P,C15,2*%
%TO.N,GND*%
X57581246Y-83820000D03*
%TD*%
D10*
%TO.P,D5,1,K*%
%TO.N,Net-(D5-K)*%
X43180000Y-33020000D03*
D11*
%TO.P,D5,2,A*%
%TO.N,Net-(D1-A)*%
X43180000Y-22860000D03*
%TD*%
D17*
%TO.P,U5,1,VI*%
%TO.N,Net-(D5-K)*%
X47530000Y-102910000D03*
%TO.P,U5,2,GND*%
%TO.N,GND*%
X47530000Y-105450000D03*
%TO.P,U5,3,VO*%
%TO.N,+5V*%
X47530000Y-107990000D03*
%TD*%
D18*
%TO.P,J1,1*%
%TO.N,Net-(D1-A)*%
X68580000Y-33020000D03*
D19*
%TO.P,J1,2*%
%TO.N,GND*%
X68580000Y-27020000D03*
%TO.P,J1,3*%
X63880000Y-30020000D03*
%TD*%
D20*
%TO.P,J2,1,Pin_1*%
%TO.N,+12V*%
X48260000Y-128016000D03*
D21*
%TO.P,J2,2,Pin_2*%
%TO.N,+5V*%
X50800000Y-128016000D03*
%TO.P,J2,3,Pin_3*%
%TO.N,GND*%
X53340000Y-128016000D03*
%TO.P,J2,4,Pin_4*%
%TO.N,-12V*%
X55880000Y-128016000D03*
%TD*%
D15*
%TO.P,,1*%
%TO.N,N/C*%
X29210000Y-24130000D03*
%TD*%
D10*
%TO.P,D6,1,K*%
%TO.N,Net-(D5-K)*%
X46990000Y-120650000D03*
D11*
%TO.P,D6,2,A*%
%TO.N,+5V*%
X57150000Y-120650000D03*
%TD*%
D10*
%TO.P,D3,1,K*%
%TO.N,Net-(D1-K)*%
X30480000Y-120650000D03*
D11*
%TO.P,D3,2,A*%
%TO.N,+12V*%
X40640000Y-120650000D03*
%TD*%
D12*
%TO.P,C10,1*%
%TO.N,GND*%
X65310000Y-113792000D03*
%TO.P,C10,2*%
%TO.N,-12V*%
X67310000Y-113792000D03*
%TD*%
D13*
%TO.P,C3,1*%
%TO.N,Net-(D1-K)*%
X31790000Y-83820000D03*
D14*
%TO.P,C3,2*%
%TO.N,GND*%
X39290000Y-83820000D03*
%TD*%
D13*
%TO.P,C1,1*%
%TO.N,Net-(D1-K)*%
X31630000Y-45720000D03*
D14*
%TO.P,C1,2*%
%TO.N,GND*%
X39130000Y-45720000D03*
%TD*%
D17*
%TO.P,U1,1,VI*%
%TO.N,Net-(D1-K)*%
X29210000Y-102870000D03*
%TO.P,U1,2,GND*%
%TO.N,GND*%
X29210000Y-105410000D03*
%TO.P,U1,3,VO*%
%TO.N,+12V*%
X29210000Y-107950000D03*
%TD*%
D15*
%TO.P,REF\u002A\u002A,1*%
%TO.N,N/C*%
X78740000Y-128270000D03*
D16*
X78740000Y-128270000D03*
%TD*%
D15*
%TO.P,REF\u002A\u002A,1*%
%TO.N,N/C*%
X29210000Y-128270000D03*
D16*
X29210000Y-128270000D03*
%TD*%
D22*
%TO.N,Net-(D1-K)*%
X31790000Y-83820000D02*
X28491401Y-87118599D01*
X28491401Y-102151401D02*
X29210000Y-102870000D01*
X28491401Y-97028000D02*
X28491401Y-102151401D01*
X26416000Y-116586000D02*
X30480000Y-120650000D01*
X28491401Y-102151401D02*
X26416000Y-104226802D01*
X34290000Y-33020000D02*
X34290000Y-43060000D01*
X26416000Y-104226802D02*
X26416000Y-116586000D01*
X31630000Y-45720000D02*
X31630000Y-83660000D01*
X31630000Y-83660000D02*
X31790000Y-83820000D01*
X28491401Y-87118599D02*
X28491401Y-97028000D01*
X34290000Y-43060000D02*
X31630000Y-45720000D01*
%TO.N,Net-(D2-A)*%
X71374000Y-38100000D02*
X75902755Y-42628755D01*
X67855722Y-105410000D02*
X66365000Y-105410000D01*
X55880000Y-38100000D02*
X71374000Y-38100000D01*
X67575401Y-97028000D02*
X68207500Y-97660099D01*
X68207500Y-105058222D02*
X67855722Y-105410000D01*
X76022755Y-88580646D02*
X67575401Y-97028000D01*
X75902755Y-45720000D02*
X75902755Y-83700000D01*
X75902755Y-42628755D02*
X75902755Y-45720000D01*
X75902755Y-83700000D02*
X76022755Y-83820000D01*
X74168000Y-120904000D02*
X74168000Y-111018722D01*
X68207500Y-97660099D02*
X68207500Y-105058222D01*
X76022755Y-83820000D02*
X76022755Y-88580646D01*
X50800000Y-33020000D02*
X55880000Y-38100000D01*
X74168000Y-111018722D02*
X68207500Y-105058222D01*
%TO.N,+12V*%
X28674401Y-114006000D02*
X28674401Y-115083630D01*
X28448000Y-113779599D02*
X28674401Y-114006000D01*
X40668500Y-120650000D02*
X48260000Y-128241500D01*
X28674401Y-115083630D02*
X34240771Y-120650000D01*
X40640000Y-120650000D02*
X40668500Y-120650000D01*
X29210000Y-107950000D02*
X28448000Y-108712000D01*
X28448000Y-108712000D02*
X28448000Y-113779599D01*
X34240771Y-120650000D02*
X40640000Y-120650000D01*
%TO.N,-12V*%
X64008000Y-120904000D02*
X66802000Y-120904000D01*
X55880000Y-128241500D02*
X62512500Y-128241500D01*
X62512500Y-128241500D02*
X67310000Y-123444000D01*
X67310000Y-120396000D02*
X67310000Y-113792000D01*
X66365000Y-107950000D02*
X67310000Y-108895000D01*
X67310000Y-108895000D02*
X67310000Y-113792000D01*
X66802000Y-120904000D02*
X67310000Y-120396000D01*
X67310000Y-123444000D02*
X67310000Y-120396000D01*
%TO.N,Net-(D5-K)*%
X43180000Y-33020000D02*
X43180000Y-38898754D01*
X46990000Y-86911246D02*
X46990000Y-97028000D01*
X43180000Y-38898754D02*
X50001246Y-45720000D01*
X44450000Y-104499278D02*
X44450000Y-118110000D01*
X46039278Y-102910000D02*
X44450000Y-104499278D01*
X46990000Y-97028000D02*
X46990000Y-102370000D01*
X47530000Y-102910000D02*
X46039278Y-102910000D01*
X46990000Y-102370000D02*
X47530000Y-102910000D01*
X50001246Y-83740000D02*
X50081246Y-83820000D01*
X50001246Y-45720000D02*
X50001246Y-83740000D01*
X44450000Y-118110000D02*
X46990000Y-120650000D01*
X50081246Y-83820000D02*
X46990000Y-86911246D01*
%TO.N,+5V*%
X52813771Y-120650000D02*
X50800000Y-122663771D01*
X47287401Y-115123630D02*
X52813771Y-120650000D01*
X47530000Y-107990000D02*
X47530000Y-113803401D01*
X47287401Y-114046000D02*
X47287401Y-115123630D01*
X47530000Y-113803401D02*
X47287401Y-114046000D01*
X50800000Y-122663771D02*
X50800000Y-128241500D01*
X52813771Y-120650000D02*
X57150000Y-120650000D01*
D23*
%TO.N,Net-(D1-A)*%
X43180000Y-22860000D02*
X34290000Y-22860000D01*
X72390000Y-29210000D02*
X72390000Y-24130000D01*
X43180000Y-22860000D02*
X50800000Y-22860000D01*
X72390000Y-24130000D02*
X71120000Y-22860000D01*
X68580000Y-33020000D02*
X72390000Y-29210000D01*
X71120000Y-22860000D02*
X50800000Y-22860000D01*
%TD*%
%TA.AperFunction,Conductor*%
%TO.N,GND*%
G36*
X77474397Y-20727092D02*
G01*
X77506375Y-20728488D01*
X77868479Y-20744298D01*
X77886043Y-20745835D01*
X78128492Y-20777754D01*
X78212858Y-20809058D01*
X78275288Y-20873867D01*
X78303416Y-20959346D01*
X78291670Y-21048563D01*
X78242378Y-21123849D01*
X78165301Y-21170293D01*
X78147093Y-21175354D01*
X77904722Y-21230673D01*
X77904719Y-21230674D01*
X77683542Y-21308068D01*
X77585350Y-21342427D01*
X77585347Y-21342428D01*
X77585340Y-21342431D01*
X77280503Y-21489233D01*
X77160101Y-21564887D01*
X76994006Y-21669251D01*
X76994003Y-21669252D01*
X76993997Y-21669257D01*
X76729469Y-21880212D01*
X76490212Y-22119469D01*
X76279257Y-22383997D01*
X76099233Y-22670503D01*
X75952431Y-22975340D01*
X75952425Y-22975356D01*
X75840674Y-23294719D01*
X75840673Y-23294722D01*
X75765386Y-23624576D01*
X75765385Y-23624582D01*
X75765384Y-23624592D01*
X75727500Y-23960822D01*
X75727500Y-24299178D01*
X75758427Y-24573660D01*
X75765385Y-24635417D01*
X75765386Y-24635423D01*
X75840673Y-24965277D01*
X75840674Y-24965280D01*
X75906747Y-25154106D01*
X75952427Y-25284650D01*
X75952429Y-25284655D01*
X75952431Y-25284659D01*
X76099233Y-25589496D01*
X76099235Y-25589499D01*
X76279251Y-25875994D01*
X76490213Y-26140532D01*
X76729468Y-26379787D01*
X76994006Y-26590749D01*
X77280501Y-26770765D01*
X77585350Y-26917573D01*
X77904719Y-27029325D01*
X77904722Y-27029326D01*
X78234576Y-27104613D01*
X78234582Y-27104614D01*
X78234584Y-27104614D01*
X78234592Y-27104616D01*
X78570822Y-27142500D01*
X78570824Y-27142500D01*
X78909176Y-27142500D01*
X78909178Y-27142500D01*
X79245408Y-27104616D01*
X79245417Y-27104614D01*
X79245423Y-27104613D01*
X79575277Y-27029326D01*
X79575277Y-27029325D01*
X79575281Y-27029325D01*
X79894650Y-26917573D01*
X80199499Y-26770765D01*
X80485994Y-26590749D01*
X80750532Y-26379787D01*
X80989787Y-26140532D01*
X81200749Y-25875994D01*
X81380765Y-25589499D01*
X81527573Y-25284650D01*
X81639325Y-24965281D01*
X81694645Y-24722902D01*
X81698809Y-24714256D01*
X81699706Y-24704698D01*
X81718167Y-24674060D01*
X81733688Y-24641831D01*
X81741194Y-24635844D01*
X81746150Y-24627621D01*
X81776073Y-24608028D01*
X81804043Y-24585724D01*
X81813404Y-24583587D01*
X81821436Y-24578329D01*
X81856898Y-24573660D01*
X81891774Y-24565700D01*
X81901133Y-24567836D01*
X81910653Y-24566583D01*
X81944632Y-24577764D01*
X81979506Y-24585724D01*
X81987012Y-24591710D01*
X81996132Y-24594711D01*
X82021892Y-24619526D01*
X82049861Y-24641830D01*
X82054026Y-24650480D01*
X82060941Y-24657141D01*
X82073384Y-24690676D01*
X82088905Y-24722906D01*
X82092245Y-24741508D01*
X82124163Y-24983952D01*
X82125701Y-25001524D01*
X82142908Y-25395602D01*
X82143100Y-25404422D01*
X82143100Y-126995577D01*
X82142908Y-127004397D01*
X82125701Y-127398475D01*
X82124163Y-127416047D01*
X82092245Y-127658491D01*
X82060941Y-127742858D01*
X81996132Y-127805288D01*
X81910653Y-127833416D01*
X81821436Y-127821670D01*
X81746150Y-127772378D01*
X81699706Y-127695301D01*
X81694648Y-127677107D01*
X81639325Y-127434719D01*
X81527573Y-127115350D01*
X81380765Y-126810501D01*
X81200749Y-126524006D01*
X80989787Y-126259468D01*
X80750532Y-126020213D01*
X80485994Y-125809251D01*
X80199499Y-125629235D01*
X80199496Y-125629233D01*
X79894659Y-125482431D01*
X79894655Y-125482429D01*
X79894650Y-125482427D01*
X79764106Y-125436747D01*
X79575280Y-125370674D01*
X79575277Y-125370673D01*
X79245423Y-125295386D01*
X79245417Y-125295385D01*
X79225675Y-125293160D01*
X78909178Y-125257500D01*
X78570822Y-125257500D01*
X78355611Y-125281748D01*
X78234582Y-125295385D01*
X78234576Y-125295386D01*
X77904722Y-125370673D01*
X77904719Y-125370674D01*
X77614254Y-125472312D01*
X77585350Y-125482427D01*
X77585347Y-125482428D01*
X77585340Y-125482431D01*
X77280503Y-125629233D01*
X77084810Y-125752194D01*
X76994006Y-125809251D01*
X76994003Y-125809252D01*
X76993997Y-125809257D01*
X76729469Y-126020212D01*
X76490212Y-126259469D01*
X76279257Y-126523997D01*
X76099233Y-126810503D01*
X75952431Y-127115340D01*
X75952425Y-127115356D01*
X75840674Y-127434719D01*
X75840673Y-127434722D01*
X75765386Y-127764576D01*
X75765385Y-127764582D01*
X75759786Y-127814275D01*
X75727500Y-128100822D01*
X75727500Y-128439178D01*
X75743790Y-128583752D01*
X75765385Y-128775417D01*
X75765386Y-128775423D01*
X75840673Y-129105277D01*
X75840674Y-129105280D01*
X75880645Y-129219509D01*
X75952427Y-129424650D01*
X75952429Y-129424655D01*
X75952431Y-129424659D01*
X76099233Y-129729496D01*
X76111075Y-129748343D01*
X76279251Y-130015994D01*
X76490213Y-130280532D01*
X76729468Y-130519787D01*
X76994006Y-130730749D01*
X77280501Y-130910765D01*
X77585350Y-131057573D01*
X77904719Y-131169325D01*
X78147095Y-131224645D01*
X78155742Y-131228809D01*
X78165301Y-131229706D01*
X78195938Y-131248167D01*
X78228168Y-131263688D01*
X78234154Y-131271194D01*
X78242378Y-131276150D01*
X78261970Y-131306073D01*
X78284275Y-131334043D01*
X78286411Y-131343404D01*
X78291670Y-131351436D01*
X78296338Y-131386898D01*
X78304299Y-131421774D01*
X78302162Y-131431133D01*
X78303416Y-131440653D01*
X78292234Y-131474632D01*
X78284275Y-131509506D01*
X78278288Y-131517012D01*
X78275288Y-131526132D01*
X78250472Y-131551892D01*
X78228169Y-131579861D01*
X78219518Y-131584026D01*
X78212858Y-131590941D01*
X78179322Y-131603384D01*
X78147093Y-131618905D01*
X78128491Y-131622245D01*
X77886047Y-131654163D01*
X77868475Y-131655701D01*
X77474397Y-131672908D01*
X77465577Y-131673100D01*
X30484423Y-131673100D01*
X30475603Y-131672908D01*
X30081524Y-131655701D01*
X30063952Y-131654163D01*
X29821508Y-131622245D01*
X29737141Y-131590941D01*
X29674711Y-131526132D01*
X29646583Y-131440653D01*
X29658329Y-131351436D01*
X29707621Y-131276150D01*
X29784698Y-131229706D01*
X29802886Y-131224649D01*
X30045281Y-131169325D01*
X30364650Y-131057573D01*
X30669499Y-130910765D01*
X30955994Y-130730749D01*
X31220532Y-130519787D01*
X31459787Y-130280532D01*
X31670749Y-130015994D01*
X31850765Y-129729499D01*
X31997573Y-129424650D01*
X32109325Y-129105281D01*
X32133972Y-128997294D01*
X32184613Y-128775423D01*
X32184614Y-128775417D01*
X32184614Y-128775416D01*
X32184616Y-128775408D01*
X32222500Y-128439178D01*
X32222500Y-128100822D01*
X32184616Y-127764592D01*
X32184614Y-127764582D01*
X32184613Y-127764576D01*
X32109326Y-127434722D01*
X32109325Y-127434719D01*
X32096643Y-127398475D01*
X31997573Y-127115350D01*
X31850765Y-126810501D01*
X31670749Y-126524006D01*
X31459787Y-126259468D01*
X31220532Y-126020213D01*
X30955994Y-125809251D01*
X30669499Y-125629235D01*
X30669496Y-125629233D01*
X30364659Y-125482431D01*
X30364655Y-125482429D01*
X30364650Y-125482427D01*
X30234106Y-125436747D01*
X30045280Y-125370674D01*
X30045277Y-125370673D01*
X29715423Y-125295386D01*
X29715417Y-125295385D01*
X29695675Y-125293160D01*
X29379178Y-125257500D01*
X29040822Y-125257500D01*
X28825611Y-125281748D01*
X28704582Y-125295385D01*
X28704576Y-125295386D01*
X28374722Y-125370673D01*
X28374719Y-125370674D01*
X28084254Y-125472312D01*
X28055350Y-125482427D01*
X28055347Y-125482428D01*
X28055340Y-125482431D01*
X27750503Y-125629233D01*
X27554810Y-125752194D01*
X27464006Y-125809251D01*
X27464003Y-125809252D01*
X27463997Y-125809257D01*
X27199469Y-126020212D01*
X26960212Y-126259469D01*
X26749257Y-126523997D01*
X26569233Y-126810503D01*
X26422431Y-127115340D01*
X26422425Y-127115356D01*
X26310674Y-127434719D01*
X26310673Y-127434722D01*
X26255354Y-127677093D01*
X26251189Y-127685740D01*
X26250293Y-127695301D01*
X26231829Y-127725942D01*
X26216310Y-127758169D01*
X26208804Y-127764154D01*
X26203849Y-127772378D01*
X26173922Y-127791971D01*
X26145955Y-127814275D01*
X26136594Y-127816411D01*
X26128563Y-127821670D01*
X26093098Y-127826339D01*
X26058224Y-127834299D01*
X26048864Y-127832162D01*
X26039346Y-127833416D01*
X26005368Y-127822235D01*
X25970492Y-127814275D01*
X25962985Y-127808288D01*
X25953867Y-127805288D01*
X25928104Y-127780471D01*
X25900138Y-127758168D01*
X25895972Y-127749518D01*
X25889058Y-127742858D01*
X25876613Y-127709320D01*
X25861094Y-127677093D01*
X25857754Y-127658491D01*
X25830074Y-127448241D01*
X25825835Y-127416043D01*
X25824298Y-127398475D01*
X25817151Y-127234793D01*
X25807092Y-127004397D01*
X25806900Y-126995577D01*
X25806900Y-118082207D01*
X25826924Y-117994476D01*
X25883030Y-117924121D01*
X25964106Y-117885077D01*
X26054094Y-117885077D01*
X26135170Y-117924121D01*
X26152077Y-117939230D01*
X28558277Y-120345430D01*
X28606153Y-120421625D01*
X28617500Y-120488407D01*
X28617500Y-121800805D01*
X28617501Y-121800811D01*
X28628168Y-121905238D01*
X28628169Y-121905241D01*
X28684236Y-122074440D01*
X28777811Y-122226149D01*
X28903851Y-122352189D01*
X29055560Y-122445764D01*
X29224759Y-122501831D01*
X29329189Y-122512500D01*
X31630810Y-122512499D01*
X31735241Y-122501831D01*
X31904440Y-122445764D01*
X32056149Y-122352189D01*
X32182189Y-122226149D01*
X32275764Y-122074440D01*
X32331831Y-121905241D01*
X32342500Y-121800811D01*
X32342499Y-120857033D01*
X32362523Y-120769304D01*
X32418629Y-120698949D01*
X32499705Y-120659905D01*
X32589693Y-120659905D01*
X32670768Y-120698949D01*
X32687676Y-120714058D01*
X33368558Y-121394940D01*
X33495831Y-121522213D01*
X33641446Y-121628009D01*
X33801819Y-121709723D01*
X33843799Y-121723363D01*
X33973001Y-121765344D01*
X34150775Y-121793500D01*
X34150776Y-121793500D01*
X39070096Y-121793500D01*
X39157827Y-121813524D01*
X39228182Y-121869630D01*
X39230470Y-121872555D01*
X39236692Y-121880663D01*
X39236696Y-121880668D01*
X39409336Y-122053308D01*
X39603024Y-122201931D01*
X39603027Y-122201932D01*
X39603030Y-122201935D01*
X39814470Y-122324009D01*
X39870412Y-122347181D01*
X40040028Y-122417439D01*
X40040033Y-122417440D01*
X40040035Y-122417441D01*
X40275865Y-122480632D01*
X40517925Y-122512500D01*
X40517926Y-122512500D01*
X40762070Y-122512500D01*
X40762075Y-122512500D01*
X40797329Y-122507858D01*
X40886918Y-122516258D01*
X40963995Y-122562699D01*
X40966697Y-122565351D01*
X46438277Y-128036930D01*
X46486153Y-128113125D01*
X46497500Y-128179907D01*
X46497500Y-128815735D01*
X46512150Y-128964487D01*
X46512150Y-128964488D01*
X46570044Y-129155338D01*
X46570048Y-129155348D01*
X46664061Y-129331234D01*
X46714161Y-129392281D01*
X46790590Y-129485410D01*
X46944763Y-129611936D01*
X46944764Y-129611936D01*
X46944766Y-129611938D01*
X46944765Y-129611938D01*
X47120651Y-129705951D01*
X47120656Y-129705953D01*
X47120658Y-129705954D01*
X47311515Y-129763850D01*
X47460259Y-129778500D01*
X49059740Y-129778499D01*
X49208485Y-129763850D01*
X49399342Y-129705954D01*
X49431914Y-129688544D01*
X49575234Y-129611938D01*
X49575235Y-129611936D01*
X49575237Y-129611936D01*
X49658682Y-129543454D01*
X49739199Y-129503278D01*
X49829177Y-129502016D01*
X49888054Y-129524648D01*
X50018793Y-129600130D01*
X50135529Y-129648484D01*
X50232241Y-129688544D01*
X50232247Y-129688546D01*
X50455415Y-129748343D01*
X50684480Y-129778500D01*
X50684481Y-129778500D01*
X50915519Y-129778500D01*
X50915520Y-129778500D01*
X51144585Y-129748343D01*
X51367753Y-129688546D01*
X51581207Y-129600130D01*
X51781294Y-129484610D01*
X51964591Y-129343961D01*
X52127961Y-129180591D01*
X52268610Y-128997294D01*
X52384130Y-128797207D01*
X52472546Y-128583753D01*
X52532343Y-128360585D01*
X52562500Y-128131520D01*
X52562500Y-127900480D01*
X52532343Y-127671415D01*
X52472546Y-127448247D01*
X52466942Y-127434719D01*
X52384132Y-127234798D01*
X52384130Y-127234793D01*
X52268610Y-127034706D01*
X52127961Y-126851409D01*
X52002723Y-126726171D01*
X51954847Y-126649976D01*
X51943500Y-126583194D01*
X51943500Y-123221178D01*
X51963524Y-123133447D01*
X52002723Y-123078201D01*
X53228201Y-121852723D01*
X53304396Y-121804847D01*
X53371178Y-121793500D01*
X55580096Y-121793500D01*
X55667827Y-121813524D01*
X55738182Y-121869630D01*
X55740470Y-121872555D01*
X55746692Y-121880663D01*
X55746696Y-121880668D01*
X55919336Y-122053308D01*
X56113024Y-122201931D01*
X56113027Y-122201932D01*
X56113030Y-122201935D01*
X56324470Y-122324009D01*
X56380412Y-122347181D01*
X56550028Y-122417439D01*
X56550033Y-122417440D01*
X56550035Y-122417441D01*
X56785865Y-122480632D01*
X57027925Y-122512500D01*
X57027926Y-122512500D01*
X57272074Y-122512500D01*
X57272075Y-122512500D01*
X57514135Y-122480632D01*
X57749965Y-122417441D01*
X57749968Y-122417439D01*
X57749971Y-122417439D01*
X57833291Y-122382926D01*
X57975530Y-122324009D01*
X58186970Y-122201935D01*
X58380666Y-122053306D01*
X58553306Y-121880666D01*
X58701935Y-121686970D01*
X58824009Y-121475530D01*
X58917441Y-121249965D01*
X58980632Y-121014135D01*
X59012500Y-120772075D01*
X59012500Y-120527925D01*
X58980632Y-120285865D01*
X58917441Y-120050035D01*
X58917440Y-120050033D01*
X58917439Y-120050028D01*
X58824009Y-119824471D01*
X58824009Y-119824470D01*
X58701935Y-119613030D01*
X58701932Y-119613027D01*
X58701931Y-119613024D01*
X58553308Y-119419336D01*
X58380663Y-119246691D01*
X58186975Y-119098068D01*
X58107473Y-119052168D01*
X57975530Y-118975991D01*
X57975528Y-118975990D01*
X57749971Y-118882560D01*
X57749963Y-118882558D01*
X57514135Y-118819368D01*
X57272075Y-118787500D01*
X57027925Y-118787500D01*
X57027924Y-118787500D01*
X56785864Y-118819368D01*
X56550036Y-118882558D01*
X56550028Y-118882560D01*
X56324471Y-118975990D01*
X56113024Y-119098068D01*
X55919336Y-119246691D01*
X55746696Y-119419331D01*
X55746694Y-119419334D01*
X55740511Y-119427390D01*
X55671221Y-119484802D01*
X55583880Y-119506465D01*
X55580096Y-119506500D01*
X53371178Y-119506500D01*
X53283447Y-119486476D01*
X53228201Y-119447277D01*
X48706850Y-114925925D01*
X48658974Y-114849730D01*
X48648898Y-114760309D01*
X48669665Y-114691152D01*
X48700211Y-114631205D01*
X48774363Y-114402988D01*
X48811901Y-114165981D01*
X48811901Y-113926019D01*
X48774363Y-113689012D01*
X48700211Y-113460795D01*
X48695537Y-113451621D01*
X48673551Y-113364361D01*
X48673500Y-113359827D01*
X48673500Y-109499315D01*
X48693524Y-109411584D01*
X48732723Y-109356338D01*
X48770342Y-109318719D01*
X48898723Y-109190338D01*
X49043689Y-109001414D01*
X49089189Y-108922606D01*
X49162755Y-108795187D01*
X49253882Y-108575186D01*
X49253883Y-108575182D01*
X49253884Y-108575180D01*
X49315518Y-108345162D01*
X49346600Y-108109066D01*
X49346600Y-107870934D01*
X49315518Y-107634838D01*
X49253884Y-107404820D01*
X49253883Y-107404817D01*
X49253882Y-107404813D01*
X49162753Y-107184809D01*
X49043694Y-106978594D01*
X49043684Y-106978579D01*
X48898733Y-106789675D01*
X48898732Y-106789674D01*
X48898723Y-106789662D01*
X48730338Y-106621277D01*
X48703855Y-106600956D01*
X48541420Y-106476315D01*
X48541405Y-106476305D01*
X48335190Y-106357246D01*
X48115186Y-106266117D01*
X48115182Y-106266116D01*
X47885159Y-106204481D01*
X47649068Y-106173400D01*
X47649066Y-106173400D01*
X47410934Y-106173400D01*
X47410931Y-106173400D01*
X47174840Y-106204481D01*
X46944817Y-106266116D01*
X46944813Y-106266117D01*
X46724809Y-106357246D01*
X46518594Y-106476305D01*
X46518579Y-106476315D01*
X46329675Y-106621266D01*
X46329658Y-106621280D01*
X46161280Y-106789658D01*
X46161266Y-106789675D01*
X46016315Y-106978579D01*
X46016304Y-106978594D01*
X45970810Y-107057394D01*
X45909603Y-107123360D01*
X45825836Y-107156236D01*
X45736100Y-107149511D01*
X45658169Y-107104517D01*
X45607477Y-107030166D01*
X45593500Y-106956294D01*
X45593500Y-105056685D01*
X45613524Y-104968954D01*
X45652723Y-104913708D01*
X45910913Y-104655518D01*
X46180537Y-104385893D01*
X46256729Y-104338019D01*
X46346151Y-104327943D01*
X46431089Y-104357664D01*
X46446603Y-104368455D01*
X46518579Y-104423684D01*
X46518589Y-104423691D01*
X46518594Y-104423694D01*
X46724809Y-104542753D01*
X46944813Y-104633882D01*
X46944817Y-104633883D01*
X46944818Y-104633883D01*
X46944820Y-104633884D01*
X47174838Y-104695518D01*
X47410934Y-104726600D01*
X47410937Y-104726600D01*
X47649063Y-104726600D01*
X47649066Y-104726600D01*
X47885162Y-104695518D01*
X48115180Y-104633884D01*
X48115183Y-104633882D01*
X48115186Y-104633882D01*
X48275214Y-104567596D01*
X48335186Y-104542755D01*
X48335188Y-104542753D01*
X48335190Y-104542753D01*
X48541405Y-104423694D01*
X48541414Y-104423689D01*
X48730338Y-104278723D01*
X48898723Y-104110338D01*
X49043689Y-103921414D01*
X49120802Y-103787851D01*
X49162753Y-103715190D01*
X49174796Y-103686117D01*
X49213200Y-103593400D01*
X49253882Y-103495186D01*
X49253883Y-103495182D01*
X49253884Y-103495180D01*
X49315518Y-103265162D01*
X49346600Y-103029066D01*
X49346600Y-102790934D01*
X49315518Y-102554838D01*
X49253884Y-102324820D01*
X49253883Y-102324817D01*
X49253882Y-102324813D01*
X49162753Y-102104809D01*
X49043694Y-101898594D01*
X49043684Y-101898579D01*
X48898733Y-101709675D01*
X48898732Y-101709674D01*
X48898723Y-101709662D01*
X48730338Y-101541277D01*
X48678209Y-101501277D01*
X48541420Y-101396315D01*
X48541405Y-101396305D01*
X48335192Y-101277248D01*
X48335189Y-101277246D01*
X48335186Y-101277245D01*
X48258320Y-101245406D01*
X48184930Y-101193332D01*
X48141402Y-101114573D01*
X48133500Y-101058598D01*
X48133500Y-98113439D01*
X48153524Y-98025708D01*
X48172113Y-97994594D01*
X48293869Y-97827012D01*
X48402810Y-97613205D01*
X48476962Y-97384988D01*
X48514500Y-97147981D01*
X48514500Y-96908019D01*
X48476962Y-96671012D01*
X48402810Y-96442795D01*
X48402808Y-96442791D01*
X48293875Y-96228998D01*
X48293865Y-96228982D01*
X48172117Y-96061410D01*
X48136749Y-95978664D01*
X48133500Y-95942560D01*
X48133500Y-87468653D01*
X48153524Y-87380922D01*
X48192720Y-87325679D01*
X49225677Y-86292721D01*
X49301872Y-86244846D01*
X49368654Y-86233499D01*
X51783051Y-86233499D01*
X51783056Y-86233499D01*
X51887487Y-86222831D01*
X52056686Y-86166764D01*
X52208395Y-86073189D01*
X52334435Y-85947149D01*
X52428010Y-85795440D01*
X52484077Y-85626241D01*
X52494746Y-85521811D01*
X52494745Y-82118190D01*
X52484077Y-82013759D01*
X52428010Y-81844560D01*
X52334435Y-81692851D01*
X52208395Y-81566811D01*
X52056686Y-81473236D01*
X51887487Y-81417169D01*
X51887483Y-81417168D01*
X51887481Y-81417168D01*
X51783057Y-81406500D01*
X51346946Y-81406500D01*
X51259215Y-81386476D01*
X51188860Y-81330370D01*
X51149816Y-81249294D01*
X51144746Y-81204300D01*
X51144746Y-67385699D01*
X51164770Y-67297968D01*
X51220876Y-67227613D01*
X51301952Y-67188569D01*
X51346946Y-67183499D01*
X51823051Y-67183499D01*
X51823056Y-67183499D01*
X51927487Y-67172831D01*
X52096686Y-67116764D01*
X52248395Y-67023189D01*
X52374435Y-66897149D01*
X52468010Y-66745440D01*
X52524077Y-66576241D01*
X52534746Y-66471811D01*
X52534745Y-63068190D01*
X52524077Y-62963759D01*
X52468010Y-62794560D01*
X52374435Y-62642851D01*
X52248395Y-62516811D01*
X52096686Y-62423236D01*
X51927487Y-62367169D01*
X51927483Y-62367168D01*
X51927481Y-62367168D01*
X51823057Y-62356500D01*
X51346946Y-62356500D01*
X51259215Y-62336476D01*
X51188860Y-62280370D01*
X51149816Y-62199294D01*
X51144746Y-62154300D01*
X51144746Y-48335699D01*
X51164770Y-48247968D01*
X51220876Y-48177613D01*
X51301952Y-48138569D01*
X51346946Y-48133499D01*
X51703051Y-48133499D01*
X51703056Y-48133499D01*
X51807487Y-48122831D01*
X51976686Y-48066764D01*
X52128395Y-47973189D01*
X52254435Y-47847149D01*
X52348010Y-47695440D01*
X52404077Y-47526241D01*
X52414746Y-47421811D01*
X52414745Y-44018190D01*
X52404077Y-43913759D01*
X52348010Y-43744560D01*
X52254435Y-43592851D01*
X52128395Y-43466811D01*
X51976686Y-43373236D01*
X51807487Y-43317169D01*
X51807483Y-43317168D01*
X51807481Y-43317168D01*
X51703057Y-43306500D01*
X49288653Y-43306500D01*
X49200922Y-43286476D01*
X49145676Y-43247277D01*
X44382723Y-38484323D01*
X44334847Y-38408128D01*
X44323500Y-38341346D01*
X44323500Y-35054867D01*
X44343524Y-34967136D01*
X44399630Y-34896781D01*
X44462093Y-34862932D01*
X44604440Y-34815764D01*
X44756149Y-34722189D01*
X44882189Y-34596149D01*
X44975764Y-34444440D01*
X45031831Y-34275241D01*
X45042500Y-34170811D01*
X45042499Y-32897924D01*
X48937500Y-32897924D01*
X48937500Y-33142075D01*
X48969368Y-33384135D01*
X49032558Y-33619963D01*
X49032560Y-33619971D01*
X49125990Y-33845528D01*
X49248068Y-34056975D01*
X49396691Y-34250663D01*
X49569336Y-34423308D01*
X49763024Y-34571931D01*
X49763027Y-34571932D01*
X49763030Y-34571935D01*
X49974470Y-34694009D01*
X50042493Y-34722185D01*
X50200028Y-34787439D01*
X50200033Y-34787440D01*
X50200035Y-34787441D01*
X50435865Y-34850632D01*
X50677925Y-34882500D01*
X50677926Y-34882500D01*
X50922075Y-34882500D01*
X50932139Y-34881175D01*
X51021733Y-34889574D01*
X51098811Y-34936014D01*
X51101514Y-34938667D01*
X55007787Y-38844940D01*
X55135060Y-38972213D01*
X55280675Y-39078009D01*
X55441048Y-39159723D01*
X55483028Y-39173363D01*
X55612230Y-39215344D01*
X55790004Y-39243500D01*
X55790005Y-39243500D01*
X70816592Y-39243500D01*
X70904323Y-39263524D01*
X70959569Y-39302723D01*
X74700032Y-43043185D01*
X74718079Y-43071907D01*
X74739231Y-43098431D01*
X74741790Y-43109643D01*
X74747908Y-43119380D01*
X74759255Y-43186162D01*
X74759255Y-43476360D01*
X74739231Y-43564091D01*
X74683125Y-43634446D01*
X74664640Y-43647561D01*
X74503931Y-43748542D01*
X74503928Y-43748543D01*
X74503922Y-43748548D01*
X74291994Y-43917556D01*
X74100311Y-44109239D01*
X73931303Y-44321167D01*
X73931298Y-44321173D01*
X73931297Y-44321176D01*
X73787075Y-44550705D01*
X73684094Y-44764545D01*
X73669456Y-44794942D01*
X73579925Y-45050811D01*
X73579923Y-45050818D01*
X73519608Y-45315071D01*
X73519607Y-45315077D01*
X73489255Y-45584463D01*
X73489255Y-45855536D01*
X73519607Y-46124922D01*
X73519608Y-46124928D01*
X73579923Y-46389181D01*
X73579925Y-46389188D01*
X73579927Y-46389195D01*
X73669458Y-46645062D01*
X73787075Y-46889295D01*
X73931297Y-47118824D01*
X74100312Y-47330762D01*
X74291993Y-47522443D01*
X74296756Y-47526241D01*
X74503925Y-47691454D01*
X74503929Y-47691456D01*
X74503931Y-47691458D01*
X74664633Y-47792433D01*
X74728262Y-47856061D01*
X74757984Y-47940999D01*
X74759255Y-47963639D01*
X74759255Y-62526360D01*
X74739231Y-62614091D01*
X74683125Y-62684446D01*
X74664640Y-62697561D01*
X74503931Y-62798542D01*
X74503928Y-62798543D01*
X74503922Y-62798548D01*
X74291994Y-62967556D01*
X74100311Y-63159239D01*
X73931303Y-63371167D01*
X73931298Y-63371173D01*
X73931297Y-63371176D01*
X73787075Y-63600705D01*
X73684094Y-63814545D01*
X73669456Y-63844942D01*
X73579925Y-64100811D01*
X73579923Y-64100818D01*
X73519608Y-64365071D01*
X73519607Y-64365077D01*
X73489255Y-64634463D01*
X73489255Y-64905536D01*
X73519607Y-65174922D01*
X73519608Y-65174928D01*
X73579923Y-65439181D01*
X73579925Y-65439188D01*
X73579927Y-65439195D01*
X73669458Y-65695062D01*
X73787075Y-65939295D01*
X73931297Y-66168824D01*
X74100312Y-66380762D01*
X74291993Y-66572443D01*
X74296756Y-66576241D01*
X74503925Y-66741454D01*
X74503929Y-66741456D01*
X74503931Y-66741458D01*
X74664633Y-66842433D01*
X74728262Y-66906061D01*
X74757984Y-66990999D01*
X74759255Y-67013639D01*
X74759255Y-81651760D01*
X74739231Y-81739491D01*
X74683125Y-81809846D01*
X74664633Y-81822967D01*
X74623934Y-81848539D01*
X74623934Y-81848540D01*
X74623931Y-81848542D01*
X74484140Y-81960021D01*
X74411994Y-82017556D01*
X74220311Y-82209239D01*
X74051303Y-82421167D01*
X74051298Y-82421173D01*
X74051297Y-82421176D01*
X73907075Y-82650705D01*
X73804094Y-82864545D01*
X73789456Y-82894942D01*
X73699925Y-83150811D01*
X73699923Y-83150818D01*
X73639608Y-83415071D01*
X73639607Y-83415077D01*
X73609255Y-83684463D01*
X73609255Y-83955536D01*
X73639607Y-84224922D01*
X73639608Y-84224928D01*
X73699923Y-84489181D01*
X73699925Y-84489188D01*
X73699927Y-84489195D01*
X73789458Y-84745062D01*
X73907075Y-84989295D01*
X74051297Y-85218824D01*
X74220312Y-85430762D01*
X74411993Y-85622443D01*
X74416756Y-85626241D01*
X74623925Y-85791454D01*
X74623929Y-85791456D01*
X74623931Y-85791458D01*
X74784633Y-85892433D01*
X74848262Y-85956061D01*
X74877984Y-86040999D01*
X74879255Y-86063639D01*
X74879255Y-88023238D01*
X74859231Y-88110969D01*
X74820032Y-88166215D01*
X67534345Y-95451901D01*
X67458150Y-95499777D01*
X67422999Y-95508635D01*
X67218412Y-95541038D01*
X66990194Y-95615190D01*
X66990192Y-95615191D01*
X66776399Y-95724124D01*
X66776383Y-95724134D01*
X66582257Y-95865175D01*
X66412576Y-96034856D01*
X66271535Y-96228982D01*
X66271525Y-96228998D01*
X66162592Y-96442791D01*
X66162591Y-96442793D01*
X66088438Y-96671012D01*
X66065458Y-96816102D01*
X66050901Y-96908019D01*
X66050901Y-97147981D01*
X66065462Y-97239916D01*
X66088438Y-97384987D01*
X66162591Y-97613206D01*
X66162592Y-97613208D01*
X66271525Y-97827001D01*
X66271535Y-97827017D01*
X66412576Y-98021143D01*
X66582257Y-98190824D01*
X66776383Y-98331865D01*
X66776399Y-98331875D01*
X66953597Y-98422162D01*
X67022675Y-98479832D01*
X67059890Y-98561764D01*
X67064000Y-98602323D01*
X67064000Y-103453101D01*
X67043976Y-103540832D01*
X66987870Y-103611187D01*
X66906794Y-103650231D01*
X66816806Y-103650231D01*
X66809467Y-103648411D01*
X66720161Y-103624481D01*
X66484068Y-103593400D01*
X66484066Y-103593400D01*
X66245934Y-103593400D01*
X66245931Y-103593400D01*
X66009840Y-103624481D01*
X65779817Y-103686116D01*
X65779813Y-103686117D01*
X65559809Y-103777246D01*
X65353594Y-103896305D01*
X65353579Y-103896315D01*
X65164675Y-104041266D01*
X65164658Y-104041280D01*
X64996280Y-104209658D01*
X64996266Y-104209675D01*
X64851315Y-104398579D01*
X64851305Y-104398594D01*
X64732246Y-104604809D01*
X64641117Y-104824813D01*
X64641116Y-104824817D01*
X64579481Y-105054840D01*
X64548400Y-105290931D01*
X64548400Y-105529068D01*
X64579481Y-105765159D01*
X64641116Y-105995182D01*
X64641117Y-105995186D01*
X64732246Y-106215190D01*
X64851305Y-106421405D01*
X64851308Y-106421410D01*
X64955279Y-106556909D01*
X64992800Y-106638701D01*
X64991116Y-106728673D01*
X64955279Y-106803091D01*
X64851308Y-106938589D01*
X64851305Y-106938594D01*
X64732246Y-107144809D01*
X64641117Y-107364813D01*
X64641116Y-107364817D01*
X64579481Y-107594840D01*
X64548400Y-107830931D01*
X64548400Y-108069068D01*
X64579481Y-108305159D01*
X64641116Y-108535182D01*
X64641117Y-108535186D01*
X64732246Y-108755190D01*
X64851305Y-108961405D01*
X64851315Y-108961420D01*
X64899108Y-109023705D01*
X64996277Y-109150338D01*
X65164662Y-109318723D01*
X65164674Y-109318732D01*
X65164675Y-109318733D01*
X65353579Y-109463684D01*
X65353594Y-109463694D01*
X65559809Y-109582753D01*
X65779813Y-109673882D01*
X65779817Y-109673883D01*
X65779818Y-109673883D01*
X65779820Y-109673884D01*
X66009838Y-109735518D01*
X66009840Y-109735518D01*
X66016232Y-109737231D01*
X66015576Y-109739678D01*
X66085514Y-109770780D01*
X66143729Y-109839400D01*
X66166407Y-109926483D01*
X66166500Y-109932620D01*
X66166500Y-112706560D01*
X66146476Y-112794291D01*
X66127883Y-112825410D01*
X66006134Y-112992982D01*
X66006124Y-112992998D01*
X65897191Y-113206791D01*
X65897190Y-113206793D01*
X65823037Y-113435012D01*
X65818954Y-113460795D01*
X65785500Y-113672019D01*
X65785500Y-113911981D01*
X65803697Y-114026876D01*
X65823037Y-114148987D01*
X65897190Y-114377206D01*
X65897191Y-114377208D01*
X66006124Y-114591001D01*
X66006130Y-114591011D01*
X66006271Y-114591205D01*
X66127884Y-114758590D01*
X66163250Y-114841334D01*
X66166500Y-114877439D01*
X66166500Y-119354668D01*
X66146476Y-119442399D01*
X66090370Y-119512754D01*
X66009294Y-119551798D01*
X65919306Y-119551798D01*
X65838230Y-119512754D01*
X65792204Y-119460819D01*
X65710189Y-119327851D01*
X65584149Y-119201811D01*
X65432440Y-119108236D01*
X65263241Y-119052169D01*
X65263237Y-119052168D01*
X65263235Y-119052168D01*
X65180618Y-119043727D01*
X65158811Y-119041500D01*
X65158810Y-119041500D01*
X62857194Y-119041500D01*
X62857188Y-119041501D01*
X62752761Y-119052168D01*
X62583557Y-119108237D01*
X62431851Y-119201811D01*
X62305811Y-119327851D01*
X62212237Y-119479557D01*
X62212236Y-119479559D01*
X62212236Y-119479560D01*
X62168009Y-119613030D01*
X62156169Y-119648760D01*
X62156168Y-119648764D01*
X62145500Y-119753188D01*
X62145500Y-122054805D01*
X62145501Y-122054811D01*
X62156168Y-122159238D01*
X62156169Y-122159241D01*
X62197186Y-122283023D01*
X62212237Y-122328442D01*
X62237941Y-122370115D01*
X62305811Y-122480149D01*
X62431851Y-122606189D01*
X62583560Y-122699764D01*
X62752759Y-122755831D01*
X62857189Y-122766500D01*
X65158810Y-122766499D01*
X65263241Y-122755831D01*
X65432440Y-122699764D01*
X65584149Y-122606189D01*
X65710189Y-122480149D01*
X65792205Y-122347179D01*
X65855304Y-122283023D01*
X65939991Y-122252598D01*
X66029494Y-122261929D01*
X66106084Y-122309171D01*
X66154592Y-122384965D01*
X66166500Y-122453331D01*
X66166500Y-122886592D01*
X66146476Y-122974323D01*
X66107277Y-123029569D01*
X62098069Y-127038777D01*
X62021874Y-127086653D01*
X61955092Y-127098000D01*
X57496890Y-127098000D01*
X57409159Y-127077976D01*
X57338804Y-127021870D01*
X57336511Y-127018938D01*
X57207961Y-126851409D01*
X57044591Y-126688039D01*
X56861294Y-126547390D01*
X56661207Y-126431870D01*
X56661204Y-126431868D01*
X56661201Y-126431867D01*
X56447758Y-126343455D01*
X56447752Y-126343453D01*
X56224595Y-126283659D01*
X56224584Y-126283656D01*
X55995522Y-126253500D01*
X55995520Y-126253500D01*
X55764480Y-126253500D01*
X55764477Y-126253500D01*
X55535415Y-126283656D01*
X55535404Y-126283659D01*
X55312247Y-126343453D01*
X55312241Y-126343455D01*
X55098798Y-126431867D01*
X54898702Y-126547392D01*
X54715405Y-126688042D01*
X54552042Y-126851405D01*
X54411392Y-127034702D01*
X54295867Y-127234798D01*
X54207455Y-127448241D01*
X54207453Y-127448247D01*
X54147659Y-127671404D01*
X54147656Y-127671415D01*
X54117500Y-127900477D01*
X54117500Y-128131522D01*
X54147656Y-128360584D01*
X54147659Y-128360595D01*
X54207453Y-128583752D01*
X54207455Y-128583758D01*
X54295867Y-128797201D01*
X54295868Y-128797204D01*
X54295870Y-128797207D01*
X54411390Y-128997294D01*
X54552039Y-129180591D01*
X54715409Y-129343961D01*
X54898706Y-129484610D01*
X55098793Y-129600130D01*
X55098798Y-129600132D01*
X55312241Y-129688544D01*
X55312247Y-129688546D01*
X55535415Y-129748343D01*
X55764480Y-129778500D01*
X55764481Y-129778500D01*
X55995519Y-129778500D01*
X55995520Y-129778500D01*
X56224585Y-129748343D01*
X56447753Y-129688546D01*
X56661207Y-129600130D01*
X56861294Y-129484610D01*
X56936654Y-129426783D01*
X57018446Y-129389263D01*
X57059746Y-129385000D01*
X62602492Y-129385000D01*
X62602496Y-129385000D01*
X62780270Y-129356844D01*
X62909471Y-129314863D01*
X62951452Y-129301223D01*
X63111825Y-129219509D01*
X63111826Y-129219508D01*
X63257441Y-129113713D01*
X68182213Y-124188940D01*
X68288009Y-124043325D01*
X68366123Y-123890016D01*
X68369229Y-123884471D01*
X68369723Y-123882952D01*
X68369724Y-123882951D01*
X68425344Y-123711770D01*
X68453500Y-123533995D01*
X68453500Y-123354004D01*
X68453500Y-120306005D01*
X68453500Y-114877439D01*
X68473524Y-114789708D01*
X68492113Y-114758594D01*
X68613869Y-114591012D01*
X68722810Y-114377205D01*
X68796962Y-114148988D01*
X68834500Y-113911981D01*
X68834500Y-113672019D01*
X68796962Y-113435012D01*
X68722810Y-113206795D01*
X68644374Y-113052856D01*
X68613875Y-112992998D01*
X68613865Y-112992982D01*
X68492117Y-112825410D01*
X68456749Y-112742664D01*
X68453500Y-112706560D01*
X68453500Y-108805005D01*
X68451945Y-108795186D01*
X68425344Y-108627230D01*
X68369734Y-108456083D01*
X68369729Y-108456062D01*
X68369724Y-108456052D01*
X68369723Y-108456049D01*
X68369723Y-108456048D01*
X68288009Y-108295675D01*
X68219745Y-108201718D01*
X68184379Y-108118974D01*
X68181907Y-108075686D01*
X68181600Y-108075686D01*
X68181600Y-108070304D01*
X68181562Y-108069639D01*
X68181599Y-108069072D01*
X68181600Y-108069066D01*
X68181600Y-107830934D01*
X68150518Y-107594838D01*
X68088884Y-107364820D01*
X68088883Y-107364817D01*
X68088882Y-107364813D01*
X67997753Y-107144809D01*
X67878694Y-106938594D01*
X67878684Y-106938579D01*
X67829384Y-106874329D01*
X67817865Y-106849219D01*
X67802132Y-106826508D01*
X67799330Y-106808815D01*
X67791863Y-106792537D01*
X67792379Y-106764915D01*
X67788059Y-106737628D01*
X67793211Y-106720473D01*
X67793546Y-106702565D01*
X67805995Y-106677903D01*
X67813942Y-106651444D01*
X67826027Y-106638223D01*
X67834099Y-106622234D01*
X67856018Y-106605414D01*
X67874657Y-106585025D01*
X67891279Y-106578357D01*
X67905491Y-106567453D01*
X67958172Y-106551527D01*
X67964746Y-106550486D01*
X68054528Y-106556543D01*
X68132792Y-106600956D01*
X68139345Y-106607221D01*
X72965277Y-111433152D01*
X73013153Y-111509347D01*
X73024500Y-111576129D01*
X73024500Y-119334094D01*
X73004476Y-119421825D01*
X72948370Y-119492180D01*
X72945398Y-119494505D01*
X72937345Y-119500684D01*
X72937329Y-119500698D01*
X72764691Y-119673336D01*
X72616068Y-119867024D01*
X72493990Y-120078471D01*
X72400560Y-120304028D01*
X72400558Y-120304036D01*
X72337368Y-120539864D01*
X72305500Y-120781924D01*
X72305500Y-121026075D01*
X72337368Y-121268135D01*
X72400558Y-121503963D01*
X72400560Y-121503971D01*
X72493990Y-121729528D01*
X72616068Y-121940975D01*
X72764691Y-122134663D01*
X72937336Y-122307308D01*
X73131024Y-122455931D01*
X73131027Y-122455932D01*
X73131030Y-122455935D01*
X73342470Y-122578009D01*
X73410493Y-122606185D01*
X73568028Y-122671439D01*
X73568033Y-122671440D01*
X73568035Y-122671441D01*
X73803865Y-122734632D01*
X74045925Y-122766500D01*
X74045926Y-122766500D01*
X74290074Y-122766500D01*
X74290075Y-122766500D01*
X74532135Y-122734632D01*
X74767965Y-122671441D01*
X74767968Y-122671439D01*
X74767971Y-122671439D01*
X74851291Y-122636926D01*
X74993530Y-122578009D01*
X75204970Y-122455935D01*
X75398666Y-122307306D01*
X75571306Y-122134666D01*
X75719935Y-121940970D01*
X75842009Y-121729530D01*
X75927882Y-121522215D01*
X75935439Y-121503971D01*
X75935441Y-121503965D01*
X75998632Y-121268135D01*
X76030500Y-121026075D01*
X76030500Y-120781925D01*
X75998632Y-120539865D01*
X75935441Y-120304035D01*
X75935440Y-120304033D01*
X75935439Y-120304028D01*
X75842009Y-120078471D01*
X75842009Y-120078470D01*
X75719935Y-119867030D01*
X75719932Y-119867027D01*
X75719931Y-119867024D01*
X75571308Y-119673336D01*
X75398670Y-119500698D01*
X75398666Y-119500694D01*
X75398661Y-119500690D01*
X75398654Y-119500684D01*
X75390602Y-119494505D01*
X75333193Y-119425209D01*
X75311535Y-119337867D01*
X75311500Y-119334094D01*
X75311500Y-110928730D01*
X75311500Y-110928727D01*
X75311500Y-110928726D01*
X75283344Y-110750952D01*
X75230178Y-110587327D01*
X75228448Y-110581195D01*
X75227723Y-110579773D01*
X75227723Y-110579771D01*
X75227723Y-110579770D01*
X75146009Y-110419397D01*
X75040213Y-110273782D01*
X74912940Y-110146509D01*
X74912939Y-110146507D01*
X69410223Y-104643791D01*
X69362347Y-104567596D01*
X69351000Y-104500814D01*
X69351000Y-97570107D01*
X69351000Y-97570104D01*
X69351000Y-97570103D01*
X69322844Y-97392329D01*
X69267223Y-97221148D01*
X69267223Y-97221147D01*
X69241634Y-97170927D01*
X69239933Y-97167222D01*
X69231544Y-97127109D01*
X69221530Y-97087367D01*
X69222372Y-97083251D01*
X69221513Y-97079140D01*
X69231358Y-97039361D01*
X69239580Y-96999208D01*
X69242252Y-96995350D01*
X69243134Y-96991788D01*
X69252864Y-96980032D01*
X69280699Y-96939854D01*
X76894968Y-89325586D01*
X77000764Y-89179971D01*
X77078878Y-89026662D01*
X77081984Y-89021117D01*
X77082478Y-89019598D01*
X77082479Y-89019597D01*
X77138099Y-88848416D01*
X77166255Y-88670641D01*
X77166255Y-88490650D01*
X77166255Y-86063639D01*
X77186279Y-85975908D01*
X77242385Y-85905553D01*
X77260865Y-85892440D01*
X77421579Y-85791458D01*
X77633517Y-85622443D01*
X77825198Y-85430762D01*
X77994213Y-85218824D01*
X78138435Y-84989295D01*
X78256052Y-84745062D01*
X78345583Y-84489195D01*
X78405904Y-84224913D01*
X78436255Y-83955539D01*
X78436255Y-83684461D01*
X78405904Y-83415087D01*
X78405902Y-83415077D01*
X78405901Y-83415071D01*
X78345586Y-83150818D01*
X78345584Y-83150811D01*
X78345583Y-83150805D01*
X78256052Y-82894938D01*
X78138435Y-82650705D01*
X77994213Y-82421176D01*
X77825198Y-82209238D01*
X77633517Y-82017557D01*
X77421579Y-81848542D01*
X77192050Y-81704320D01*
X77160722Y-81689233D01*
X77090368Y-81633126D01*
X77051324Y-81552050D01*
X77046255Y-81507058D01*
X77046255Y-67013639D01*
X77066279Y-66925908D01*
X77122385Y-66855553D01*
X77140865Y-66842440D01*
X77301579Y-66741458D01*
X77513517Y-66572443D01*
X77705198Y-66380762D01*
X77874213Y-66168824D01*
X78018435Y-65939295D01*
X78136052Y-65695062D01*
X78225583Y-65439195D01*
X78285904Y-65174913D01*
X78316255Y-64905539D01*
X78316255Y-64634461D01*
X78285904Y-64365087D01*
X78285902Y-64365077D01*
X78285901Y-64365071D01*
X78225586Y-64100818D01*
X78225584Y-64100811D01*
X78225583Y-64100805D01*
X78136052Y-63844938D01*
X78018435Y-63600705D01*
X77874213Y-63371176D01*
X77705198Y-63159238D01*
X77513517Y-62967557D01*
X77301579Y-62798542D01*
X77140876Y-62697566D01*
X77077247Y-62633937D01*
X77047526Y-62548999D01*
X77046255Y-62526360D01*
X77046255Y-47963639D01*
X77066279Y-47875908D01*
X77122385Y-47805553D01*
X77140865Y-47792440D01*
X77301579Y-47691458D01*
X77513517Y-47522443D01*
X77705198Y-47330762D01*
X77874213Y-47118824D01*
X78018435Y-46889295D01*
X78136052Y-46645062D01*
X78225583Y-46389195D01*
X78285904Y-46124913D01*
X78316255Y-45855539D01*
X78316255Y-45584461D01*
X78285904Y-45315087D01*
X78285902Y-45315077D01*
X78285901Y-45315071D01*
X78225586Y-45050818D01*
X78225584Y-45050811D01*
X78225583Y-45050805D01*
X78136052Y-44794938D01*
X78018435Y-44550705D01*
X77874213Y-44321176D01*
X77705198Y-44109238D01*
X77513517Y-43917557D01*
X77301579Y-43748542D01*
X77140876Y-43647566D01*
X77077247Y-43583937D01*
X77047526Y-43498999D01*
X77046255Y-43476360D01*
X77046255Y-42538763D01*
X77046255Y-42538760D01*
X77018099Y-42360985D01*
X76964933Y-42197360D01*
X76963203Y-42191228D01*
X76962478Y-42189806D01*
X76962478Y-42189804D01*
X76962478Y-42189803D01*
X76880764Y-42029430D01*
X76774968Y-41883815D01*
X76647695Y-41756542D01*
X76647694Y-41756540D01*
X72118939Y-37227785D01*
X71973330Y-37121994D01*
X71973327Y-37121992D01*
X71973325Y-37121991D01*
X71812952Y-37040277D01*
X71812949Y-37040276D01*
X71812947Y-37040275D01*
X71812947Y-37040274D01*
X71770971Y-37026636D01*
X71641776Y-36984657D01*
X71641772Y-36984656D01*
X71582512Y-36975270D01*
X71463996Y-36956500D01*
X71463995Y-36956500D01*
X71463992Y-36956500D01*
X56437407Y-36956500D01*
X56349676Y-36936476D01*
X56294430Y-36897277D01*
X52718667Y-33321514D01*
X52670791Y-33245319D01*
X52660715Y-33155898D01*
X52661175Y-33152139D01*
X52662499Y-33142079D01*
X52662500Y-33142074D01*
X52662500Y-32897926D01*
X52662500Y-32897925D01*
X52630632Y-32655865D01*
X52567441Y-32420035D01*
X52567440Y-32420033D01*
X52567439Y-32420028D01*
X52503467Y-32265589D01*
X52474009Y-32194470D01*
X52351935Y-31983030D01*
X52351932Y-31983027D01*
X52351931Y-31983024D01*
X52203308Y-31789336D01*
X52030663Y-31616691D01*
X51836975Y-31468068D01*
X51625528Y-31345990D01*
X51399971Y-31252560D01*
X51399963Y-31252558D01*
X51164135Y-31189368D01*
X50922075Y-31157500D01*
X50677925Y-31157500D01*
X50677924Y-31157500D01*
X50435864Y-31189368D01*
X50200036Y-31252558D01*
X50200028Y-31252560D01*
X49974471Y-31345990D01*
X49763024Y-31468068D01*
X49569336Y-31616691D01*
X49396691Y-31789336D01*
X49248068Y-31983024D01*
X49125990Y-32194471D01*
X49032560Y-32420028D01*
X49032558Y-32420036D01*
X48969368Y-32655864D01*
X48937500Y-32897924D01*
X45042499Y-32897924D01*
X45042499Y-31869190D01*
X45031831Y-31764759D01*
X44975764Y-31595560D01*
X44882189Y-31443851D01*
X44756149Y-31317811D01*
X44604440Y-31224236D01*
X44435241Y-31168169D01*
X44435237Y-31168168D01*
X44435235Y-31168168D01*
X44352618Y-31159727D01*
X44330811Y-31157500D01*
X44330810Y-31157500D01*
X42029194Y-31157500D01*
X42029188Y-31157501D01*
X41924761Y-31168168D01*
X41755557Y-31224237D01*
X41603851Y-31317811D01*
X41477811Y-31443851D01*
X41384237Y-31595557D01*
X41328169Y-31764760D01*
X41328168Y-31764764D01*
X41317500Y-31869188D01*
X41317500Y-34170805D01*
X41317501Y-34170811D01*
X41328168Y-34275238D01*
X41328169Y-34275241D01*
X41384236Y-34444440D01*
X41477811Y-34596149D01*
X41603851Y-34722189D01*
X41755560Y-34815764D01*
X41897905Y-34862932D01*
X41974881Y-34909533D01*
X42024017Y-34984922D01*
X42036500Y-35054867D01*
X42036500Y-38808758D01*
X42036500Y-38988750D01*
X42050637Y-39078009D01*
X42064656Y-39166526D01*
X42064657Y-39166530D01*
X42089667Y-39243500D01*
X42106636Y-39295725D01*
X42120277Y-39337706D01*
X42201991Y-39498079D01*
X42201994Y-39498084D01*
X42307785Y-39643693D01*
X47528523Y-44864430D01*
X47576399Y-44940625D01*
X47587746Y-45007407D01*
X47587746Y-47421805D01*
X47587747Y-47421811D01*
X47598414Y-47526238D01*
X47598415Y-47526241D01*
X47654482Y-47695440D01*
X47748057Y-47847149D01*
X47874097Y-47973189D01*
X48025806Y-48066764D01*
X48195005Y-48122831D01*
X48299435Y-48133500D01*
X48655546Y-48133499D01*
X48743277Y-48153523D01*
X48813632Y-48209629D01*
X48852676Y-48290705D01*
X48857746Y-48335699D01*
X48857746Y-62154300D01*
X48837722Y-62242031D01*
X48781616Y-62312386D01*
X48700540Y-62351430D01*
X48655547Y-62356500D01*
X48419440Y-62356500D01*
X48419434Y-62356501D01*
X48315007Y-62367168D01*
X48145803Y-62423237D01*
X47994097Y-62516811D01*
X47868057Y-62642851D01*
X47774483Y-62794557D01*
X47774482Y-62794559D01*
X47774482Y-62794560D01*
X47773163Y-62798542D01*
X47718415Y-62963760D01*
X47718414Y-62963764D01*
X47707746Y-63068188D01*
X47707746Y-66471805D01*
X47707747Y-66471811D01*
X47718414Y-66576238D01*
X47718415Y-66576241D01*
X47774482Y-66745440D01*
X47868057Y-66897149D01*
X47994097Y-67023189D01*
X48145806Y-67116764D01*
X48315005Y-67172831D01*
X48419435Y-67183500D01*
X48655547Y-67183499D01*
X48743277Y-67203523D01*
X48813632Y-67259629D01*
X48852676Y-67340704D01*
X48857746Y-67385699D01*
X48857746Y-81204300D01*
X48837722Y-81292031D01*
X48781616Y-81362386D01*
X48700540Y-81401430D01*
X48655547Y-81406500D01*
X48379440Y-81406500D01*
X48379434Y-81406501D01*
X48275007Y-81417168D01*
X48105803Y-81473237D01*
X47954097Y-81566811D01*
X47828057Y-81692851D01*
X47734483Y-81844557D01*
X47734482Y-81844559D01*
X47734482Y-81844560D01*
X47733163Y-81848542D01*
X47678415Y-82013760D01*
X47678414Y-82013764D01*
X47667746Y-82118188D01*
X47667746Y-84532591D01*
X47647722Y-84620322D01*
X47608523Y-84675568D01*
X46117788Y-86166303D01*
X46083420Y-86213607D01*
X46083418Y-86213610D01*
X46076719Y-86222831D01*
X46011991Y-86311921D01*
X45930277Y-86472294D01*
X45930277Y-86472295D01*
X45921506Y-86499286D01*
X45921506Y-86499288D01*
X45874655Y-86643478D01*
X45874655Y-86643480D01*
X45846500Y-86821250D01*
X45846500Y-86821251D01*
X45846500Y-86821254D01*
X45846500Y-95942560D01*
X45826476Y-96030291D01*
X45807883Y-96061410D01*
X45686134Y-96228982D01*
X45686124Y-96228998D01*
X45577191Y-96442791D01*
X45577190Y-96442793D01*
X45503037Y-96671012D01*
X45480057Y-96816102D01*
X45465500Y-96908019D01*
X45465500Y-97147981D01*
X45480061Y-97239916D01*
X45503037Y-97384987D01*
X45577190Y-97613206D01*
X45577191Y-97613208D01*
X45686124Y-97827001D01*
X45686130Y-97827011D01*
X45716966Y-97869453D01*
X45807884Y-97994590D01*
X45843250Y-98077334D01*
X45846500Y-98113439D01*
X45846500Y-101623382D01*
X45826476Y-101711113D01*
X45770370Y-101781468D01*
X45706784Y-101815686D01*
X45600322Y-101850277D01*
X45534865Y-101883629D01*
X45534866Y-101883630D01*
X45439950Y-101931992D01*
X45345029Y-102000957D01*
X45294340Y-102037784D01*
X45294339Y-102037785D01*
X43577787Y-103754336D01*
X43560051Y-103778748D01*
X43560048Y-103778751D01*
X43553438Y-103787851D01*
X43471991Y-103899953D01*
X43390277Y-104060326D01*
X43383815Y-104080214D01*
X43377453Y-104099793D01*
X43377450Y-104099799D01*
X43334659Y-104231495D01*
X43334656Y-104231506D01*
X43319383Y-104327943D01*
X43309161Y-104392482D01*
X43306500Y-104409283D01*
X43306500Y-118020004D01*
X43306500Y-118199996D01*
X43326611Y-118326977D01*
X43334656Y-118377772D01*
X43334657Y-118377776D01*
X43376636Y-118506971D01*
X43390277Y-118548952D01*
X43471991Y-118709325D01*
X43471994Y-118709330D01*
X43577785Y-118854939D01*
X43577786Y-118854940D01*
X43577787Y-118854941D01*
X44335876Y-119613030D01*
X45068277Y-120345430D01*
X45116153Y-120421625D01*
X45127500Y-120488407D01*
X45127500Y-121800805D01*
X45127501Y-121800811D01*
X45138168Y-121905238D01*
X45138169Y-121905241D01*
X45194236Y-122074440D01*
X45287811Y-122226149D01*
X45413851Y-122352189D01*
X45565560Y-122445764D01*
X45734759Y-122501831D01*
X45839189Y-122512500D01*
X48140810Y-122512499D01*
X48245241Y-122501831D01*
X48414440Y-122445764D01*
X48566149Y-122352189D01*
X48692189Y-122226149D01*
X48785764Y-122074440D01*
X48841831Y-121905241D01*
X48852500Y-121800811D01*
X48852499Y-119499190D01*
X48841831Y-119394759D01*
X48785764Y-119225560D01*
X48692189Y-119073851D01*
X48566149Y-118947811D01*
X48414440Y-118854236D01*
X48245241Y-118798169D01*
X48245237Y-118798168D01*
X48245235Y-118798168D01*
X48140811Y-118787500D01*
X46828408Y-118787500D01*
X46740677Y-118767476D01*
X46685431Y-118728277D01*
X45652723Y-117695569D01*
X45604847Y-117619374D01*
X45593500Y-117552592D01*
X45593500Y-114921755D01*
X45600007Y-114893245D01*
X45601906Y-114864058D01*
X45609903Y-114849885D01*
X45613524Y-114834024D01*
X45631758Y-114811159D01*
X45646132Y-114785688D01*
X45659484Y-114776390D01*
X45669630Y-114763669D01*
X45695979Y-114750979D01*
X45719981Y-114734268D01*
X45736046Y-114731684D01*
X45750706Y-114724625D01*
X45779952Y-114724625D01*
X45808827Y-114719982D01*
X45824422Y-114724625D01*
X45840694Y-114724625D01*
X45867042Y-114737313D01*
X45895073Y-114745659D01*
X45904244Y-114755229D01*
X45921770Y-114763669D01*
X45961637Y-114806214D01*
X45969564Y-114817598D01*
X45983532Y-114845012D01*
X46106486Y-115014243D01*
X46107638Y-115015898D01*
X46123748Y-115055789D01*
X46140651Y-115095334D01*
X46140918Y-115098300D01*
X46141337Y-115099338D01*
X46141200Y-115101437D01*
X46143901Y-115131439D01*
X46143901Y-115213626D01*
X46165938Y-115352763D01*
X46172056Y-115391395D01*
X46172056Y-115391397D01*
X46205057Y-115492961D01*
X46205057Y-115492962D01*
X46227677Y-115562580D01*
X46250814Y-115607991D01*
X46309390Y-115722952D01*
X46309393Y-115722957D01*
X46415186Y-115868569D01*
X46415187Y-115868570D01*
X46415188Y-115868571D01*
X48746613Y-118199996D01*
X51053640Y-120507022D01*
X51101516Y-120583217D01*
X51111592Y-120672638D01*
X51081871Y-120757576D01*
X51053640Y-120792976D01*
X49927787Y-121918829D01*
X49849522Y-122026552D01*
X49849521Y-122026551D01*
X49821995Y-122064440D01*
X49821987Y-122064452D01*
X49739549Y-122226248D01*
X49737820Y-122232379D01*
X49684659Y-122395988D01*
X49684656Y-122396000D01*
X49667895Y-122501830D01*
X49666205Y-122512499D01*
X49657835Y-122565351D01*
X49656500Y-122573778D01*
X49656500Y-126131418D01*
X49636476Y-126219149D01*
X49580370Y-126289504D01*
X49499294Y-126328548D01*
X49409306Y-126328548D01*
X49395605Y-126324911D01*
X49208485Y-126268149D01*
X49059758Y-126253501D01*
X49059746Y-126253500D01*
X49059741Y-126253500D01*
X49059732Y-126253500D01*
X47972907Y-126253500D01*
X47885176Y-126233476D01*
X47829930Y-126194277D01*
X42561452Y-120925798D01*
X42513576Y-120849603D01*
X42503908Y-120778695D01*
X42502500Y-120778695D01*
X42502500Y-120527926D01*
X42502500Y-120527925D01*
X42470632Y-120285865D01*
X42407441Y-120050035D01*
X42407440Y-120050033D01*
X42407439Y-120050028D01*
X42314009Y-119824471D01*
X42314009Y-119824470D01*
X42191935Y-119613030D01*
X42191932Y-119613027D01*
X42191931Y-119613024D01*
X42043308Y-119419336D01*
X41870663Y-119246691D01*
X41676975Y-119098068D01*
X41597473Y-119052168D01*
X41465530Y-118975991D01*
X41465528Y-118975990D01*
X41239971Y-118882560D01*
X41239963Y-118882558D01*
X41004135Y-118819368D01*
X40762075Y-118787500D01*
X40517925Y-118787500D01*
X40517924Y-118787500D01*
X40275864Y-118819368D01*
X40040036Y-118882558D01*
X40040028Y-118882560D01*
X39814471Y-118975990D01*
X39603024Y-119098068D01*
X39409336Y-119246691D01*
X39236696Y-119419331D01*
X39236694Y-119419334D01*
X39230511Y-119427390D01*
X39161221Y-119484802D01*
X39073880Y-119506465D01*
X39070096Y-119506500D01*
X34798178Y-119506500D01*
X34710447Y-119486476D01*
X34655201Y-119447277D01*
X30093850Y-114885925D01*
X30045974Y-114809730D01*
X30035898Y-114720309D01*
X30056665Y-114651152D01*
X30087211Y-114591205D01*
X30161363Y-114362988D01*
X30198901Y-114125981D01*
X30198901Y-113886019D01*
X30161363Y-113649012D01*
X30087211Y-113420795D01*
X30002155Y-113253864D01*
X29978276Y-113206998D01*
X29978266Y-113206982D01*
X29837225Y-113012856D01*
X29667547Y-112843178D01*
X29662380Y-112838765D01*
X29608674Y-112766561D01*
X29591500Y-112685012D01*
X29591500Y-109883613D01*
X29611524Y-109795882D01*
X29667630Y-109725527D01*
X29741364Y-109688303D01*
X29795180Y-109673884D01*
X29795185Y-109673881D01*
X29795188Y-109673881D01*
X29900254Y-109630360D01*
X30015186Y-109582755D01*
X30015188Y-109582753D01*
X30015190Y-109582753D01*
X30221405Y-109463694D01*
X30221414Y-109463689D01*
X30410338Y-109318723D01*
X30578723Y-109150338D01*
X30723689Y-108961414D01*
X30778996Y-108865619D01*
X30842753Y-108755190D01*
X30933882Y-108535186D01*
X30933883Y-108535182D01*
X30933884Y-108535180D01*
X30995518Y-108305162D01*
X31026600Y-108069066D01*
X31026600Y-107830934D01*
X30995518Y-107594838D01*
X30933884Y-107364820D01*
X30933883Y-107364817D01*
X30933882Y-107364813D01*
X30842753Y-107144809D01*
X30723694Y-106938594D01*
X30723684Y-106938579D01*
X30578733Y-106749675D01*
X30578732Y-106749674D01*
X30578723Y-106749662D01*
X30410338Y-106581277D01*
X30406533Y-106578357D01*
X30221420Y-106436315D01*
X30221405Y-106436305D01*
X30015190Y-106317246D01*
X29795186Y-106226117D01*
X29795182Y-106226116D01*
X29565159Y-106164481D01*
X29329068Y-106133400D01*
X29329066Y-106133400D01*
X29090934Y-106133400D01*
X29090931Y-106133400D01*
X28854840Y-106164481D01*
X28624817Y-106226116D01*
X28624813Y-106226117D01*
X28404809Y-106317246D01*
X28198594Y-106436305D01*
X28198579Y-106436315D01*
X28009675Y-106581266D01*
X28009658Y-106581280D01*
X27904677Y-106686262D01*
X27828482Y-106734138D01*
X27739061Y-106744214D01*
X27654123Y-106714493D01*
X27590492Y-106650862D01*
X27560771Y-106565924D01*
X27559500Y-106543285D01*
X27559500Y-104784209D01*
X27567048Y-104751135D01*
X27570847Y-104717427D01*
X27576964Y-104707690D01*
X27579524Y-104696478D01*
X27618720Y-104641234D01*
X27890824Y-104369130D01*
X27967015Y-104321257D01*
X28056437Y-104311181D01*
X28141375Y-104340902D01*
X28156891Y-104351695D01*
X28198585Y-104383689D01*
X28198594Y-104383694D01*
X28404809Y-104502753D01*
X28624813Y-104593882D01*
X28624817Y-104593883D01*
X28624818Y-104593883D01*
X28624820Y-104593884D01*
X28854838Y-104655518D01*
X29090934Y-104686600D01*
X29090937Y-104686600D01*
X29329063Y-104686600D01*
X29329066Y-104686600D01*
X29565162Y-104655518D01*
X29795180Y-104593884D01*
X29795183Y-104593882D01*
X29795186Y-104593882D01*
X29924058Y-104540501D01*
X30015186Y-104502755D01*
X30015188Y-104502753D01*
X30015190Y-104502753D01*
X30152141Y-104423684D01*
X30221414Y-104383689D01*
X30410338Y-104238723D01*
X30578723Y-104070338D01*
X30723689Y-103881414D01*
X30842755Y-103675186D01*
X30933884Y-103455180D01*
X30995518Y-103225162D01*
X31026600Y-102989066D01*
X31026600Y-102750934D01*
X30995518Y-102514838D01*
X30933884Y-102284820D01*
X30933883Y-102284817D01*
X30933882Y-102284813D01*
X30842753Y-102064809D01*
X30723694Y-101858594D01*
X30723684Y-101858579D01*
X30578733Y-101669675D01*
X30578732Y-101669674D01*
X30578723Y-101669662D01*
X30410338Y-101501277D01*
X30410324Y-101501266D01*
X30221420Y-101356315D01*
X30221405Y-101356305D01*
X30015194Y-101237249D01*
X30015190Y-101237247D01*
X30015186Y-101237245D01*
X29795180Y-101146116D01*
X29795177Y-101146115D01*
X29795172Y-101146113D01*
X29784762Y-101143324D01*
X29705204Y-101101273D01*
X29651770Y-101028867D01*
X29634901Y-100948015D01*
X29634901Y-98113439D01*
X29654925Y-98025708D01*
X29673514Y-97994594D01*
X29795270Y-97827012D01*
X29904211Y-97613205D01*
X29978363Y-97384988D01*
X30015901Y-97147981D01*
X30015901Y-96908019D01*
X29978363Y-96671012D01*
X29904211Y-96442795D01*
X29904209Y-96442791D01*
X29795276Y-96228998D01*
X29795266Y-96228982D01*
X29673518Y-96061410D01*
X29638150Y-95978664D01*
X29634901Y-95942560D01*
X29634901Y-87676005D01*
X29654925Y-87588274D01*
X29694121Y-87533031D01*
X30934430Y-86292721D01*
X31010625Y-86244846D01*
X31077407Y-86233499D01*
X33491805Y-86233499D01*
X33491810Y-86233499D01*
X33596241Y-86222831D01*
X33765440Y-86166764D01*
X33917149Y-86073189D01*
X34043189Y-85947149D01*
X34136764Y-85795440D01*
X34192831Y-85626241D01*
X34203500Y-85521811D01*
X34203499Y-82118190D01*
X34192831Y-82013759D01*
X34136764Y-81844560D01*
X34043189Y-81692851D01*
X33917149Y-81566811D01*
X33765440Y-81473236D01*
X33596241Y-81417169D01*
X33596237Y-81417168D01*
X33596235Y-81417168D01*
X33491811Y-81406500D01*
X32975700Y-81406500D01*
X32887969Y-81386476D01*
X32817614Y-81330370D01*
X32778570Y-81249294D01*
X32773500Y-81204300D01*
X32773500Y-67385699D01*
X32793524Y-67297968D01*
X32849630Y-67227613D01*
X32930706Y-67188569D01*
X32975700Y-67183499D01*
X33491805Y-67183499D01*
X33491810Y-67183499D01*
X33596241Y-67172831D01*
X33765440Y-67116764D01*
X33917149Y-67023189D01*
X34043189Y-66897149D01*
X34136764Y-66745440D01*
X34192831Y-66576241D01*
X34203500Y-66471811D01*
X34203499Y-63068190D01*
X34192831Y-62963759D01*
X34136764Y-62794560D01*
X34043189Y-62642851D01*
X33917149Y-62516811D01*
X33765440Y-62423236D01*
X33596241Y-62367169D01*
X33596237Y-62367168D01*
X33596235Y-62367168D01*
X33491811Y-62356500D01*
X32975700Y-62356500D01*
X32887969Y-62336476D01*
X32817614Y-62280370D01*
X32778570Y-62199294D01*
X32773500Y-62154300D01*
X32773500Y-48335699D01*
X32793524Y-48247968D01*
X32849630Y-48177613D01*
X32930706Y-48138569D01*
X32975700Y-48133499D01*
X33331805Y-48133499D01*
X33331810Y-48133499D01*
X33436241Y-48122831D01*
X33605440Y-48066764D01*
X33757149Y-47973189D01*
X33883189Y-47847149D01*
X33976764Y-47695440D01*
X34032831Y-47526241D01*
X34043500Y-47421811D01*
X34043499Y-45007407D01*
X34063523Y-44919677D01*
X34102722Y-44864431D01*
X34416449Y-44550704D01*
X35162213Y-43804941D01*
X35268009Y-43659325D01*
X35301879Y-43592851D01*
X35349723Y-43498952D01*
X35363363Y-43456971D01*
X35405344Y-43327770D01*
X35433500Y-43149996D01*
X35433500Y-42970004D01*
X35433500Y-35054867D01*
X35453524Y-34967136D01*
X35509630Y-34896781D01*
X35572093Y-34862932D01*
X35714440Y-34815764D01*
X35866149Y-34722189D01*
X35992189Y-34596149D01*
X36085764Y-34444440D01*
X36141831Y-34275241D01*
X36152500Y-34170811D01*
X36152499Y-31869190D01*
X36141831Y-31764759D01*
X36085764Y-31595560D01*
X35992189Y-31443851D01*
X35866149Y-31317811D01*
X35714440Y-31224236D01*
X35545241Y-31168169D01*
X35545237Y-31168168D01*
X35545235Y-31168168D01*
X35462618Y-31159727D01*
X35440811Y-31157500D01*
X35440810Y-31157500D01*
X33139194Y-31157500D01*
X33139188Y-31157501D01*
X33034761Y-31168168D01*
X32865557Y-31224237D01*
X32713851Y-31317811D01*
X32587811Y-31443851D01*
X32494237Y-31595557D01*
X32438169Y-31764760D01*
X32438168Y-31764764D01*
X32427500Y-31869188D01*
X32427500Y-34170805D01*
X32427501Y-34170811D01*
X32438168Y-34275238D01*
X32438169Y-34275241D01*
X32494236Y-34444440D01*
X32587811Y-34596149D01*
X32713851Y-34722189D01*
X32865560Y-34815764D01*
X33007905Y-34862932D01*
X33084881Y-34909533D01*
X33134017Y-34984922D01*
X33146500Y-35054867D01*
X33146500Y-42502591D01*
X33126476Y-42590322D01*
X33087277Y-42645568D01*
X32485568Y-43247277D01*
X32409373Y-43295153D01*
X32342591Y-43306500D01*
X29928194Y-43306500D01*
X29928188Y-43306501D01*
X29823761Y-43317168D01*
X29654557Y-43373237D01*
X29502851Y-43466811D01*
X29376811Y-43592851D01*
X29283237Y-43744557D01*
X29283236Y-43744559D01*
X29283236Y-43744560D01*
X29263229Y-43804939D01*
X29227169Y-43913760D01*
X29227168Y-43913764D01*
X29216500Y-44018188D01*
X29216500Y-47421805D01*
X29216501Y-47421811D01*
X29227168Y-47526238D01*
X29227169Y-47526241D01*
X29283236Y-47695440D01*
X29376811Y-47847149D01*
X29502851Y-47973189D01*
X29654560Y-48066764D01*
X29823759Y-48122831D01*
X29928189Y-48133500D01*
X30284300Y-48133499D01*
X30372031Y-48153523D01*
X30442386Y-48209629D01*
X30481430Y-48290705D01*
X30486500Y-48335699D01*
X30486500Y-62154300D01*
X30466476Y-62242031D01*
X30410370Y-62312386D01*
X30329294Y-62351430D01*
X30284301Y-62356500D01*
X30088195Y-62356500D01*
X30088187Y-62356501D01*
X29983761Y-62367168D01*
X29814557Y-62423237D01*
X29662851Y-62516811D01*
X29536811Y-62642851D01*
X29443237Y-62794557D01*
X29443236Y-62794559D01*
X29443236Y-62794560D01*
X29441917Y-62798542D01*
X29387169Y-62963760D01*
X29387168Y-62963764D01*
X29376500Y-63068188D01*
X29376500Y-66471805D01*
X29376501Y-66471811D01*
X29387168Y-66576238D01*
X29387169Y-66576241D01*
X29443236Y-66745440D01*
X29536811Y-66897149D01*
X29662851Y-67023189D01*
X29814560Y-67116764D01*
X29983759Y-67172831D01*
X30088189Y-67183500D01*
X30284301Y-67183499D01*
X30372030Y-67203523D01*
X30442386Y-67259629D01*
X30481430Y-67340704D01*
X30486500Y-67385699D01*
X30486500Y-81204300D01*
X30466476Y-81292031D01*
X30410370Y-81362386D01*
X30329294Y-81401430D01*
X30284301Y-81406500D01*
X30088195Y-81406500D01*
X30088187Y-81406501D01*
X29983761Y-81417168D01*
X29814557Y-81473237D01*
X29662851Y-81566811D01*
X29536811Y-81692851D01*
X29443237Y-81844557D01*
X29443236Y-81844559D01*
X29443236Y-81844560D01*
X29441917Y-81848542D01*
X29387169Y-82013760D01*
X29387168Y-82013764D01*
X29376500Y-82118188D01*
X29376500Y-84532591D01*
X29356476Y-84620322D01*
X29317277Y-84675568D01*
X27619187Y-86373658D01*
X27555363Y-86461504D01*
X27555358Y-86461511D01*
X27547525Y-86472294D01*
X27513392Y-86519274D01*
X27431678Y-86679647D01*
X27431678Y-86679648D01*
X27423504Y-86704803D01*
X27423504Y-86704804D01*
X27376056Y-86850831D01*
X27376056Y-86850833D01*
X27347901Y-87028603D01*
X27347901Y-87028604D01*
X27347901Y-87028607D01*
X27347901Y-95942560D01*
X27327877Y-96030291D01*
X27309284Y-96061410D01*
X27187535Y-96228982D01*
X27187525Y-96228998D01*
X27078592Y-96442791D01*
X27078591Y-96442793D01*
X27004438Y-96671012D01*
X26981458Y-96816102D01*
X26966901Y-96908019D01*
X26966901Y-97147981D01*
X26981462Y-97239916D01*
X27004438Y-97384987D01*
X27078591Y-97613206D01*
X27078592Y-97613208D01*
X27187525Y-97827001D01*
X27187531Y-97827011D01*
X27218367Y-97869453D01*
X27309285Y-97994590D01*
X27344651Y-98077334D01*
X27347901Y-98113439D01*
X27347901Y-101593993D01*
X27327877Y-101681724D01*
X27288678Y-101736970D01*
X26152077Y-102873571D01*
X26075882Y-102921447D01*
X25986461Y-102931523D01*
X25901523Y-102901802D01*
X25837892Y-102838171D01*
X25808171Y-102753233D01*
X25806900Y-102730594D01*
X25806900Y-25404422D01*
X25807092Y-25395602D01*
X25811937Y-25284643D01*
X25824298Y-25001518D01*
X25825836Y-24983952D01*
X25828295Y-24965277D01*
X25857754Y-24741505D01*
X25889058Y-24657141D01*
X25953867Y-24594711D01*
X26039346Y-24566583D01*
X26128563Y-24578329D01*
X26203849Y-24627621D01*
X26250293Y-24704698D01*
X26255354Y-24722906D01*
X26310673Y-24965277D01*
X26310674Y-24965280D01*
X26376747Y-25154106D01*
X26422427Y-25284650D01*
X26422429Y-25284655D01*
X26422431Y-25284659D01*
X26569233Y-25589496D01*
X26569235Y-25589499D01*
X26749251Y-25875994D01*
X26960213Y-26140532D01*
X27199468Y-26379787D01*
X27464006Y-26590749D01*
X27750501Y-26770765D01*
X28055350Y-26917573D01*
X28374719Y-27029325D01*
X28374722Y-27029326D01*
X28704576Y-27104613D01*
X28704582Y-27104614D01*
X28704584Y-27104614D01*
X28704592Y-27104616D01*
X29040822Y-27142500D01*
X29040824Y-27142500D01*
X29379176Y-27142500D01*
X29379178Y-27142500D01*
X29715408Y-27104616D01*
X29715417Y-27104614D01*
X29715423Y-27104613D01*
X30045277Y-27029326D01*
X30045277Y-27029325D01*
X30045281Y-27029325D01*
X30364650Y-26917573D01*
X30669499Y-26770765D01*
X30955994Y-26590749D01*
X31220532Y-26379787D01*
X31459787Y-26140532D01*
X31670749Y-25875994D01*
X31850765Y-25589499D01*
X31997573Y-25284650D01*
X32109325Y-24965281D01*
X32109326Y-24965277D01*
X32184613Y-24635423D01*
X32184614Y-24635417D01*
X32184614Y-24635416D01*
X32184616Y-24635408D01*
X32222500Y-24299178D01*
X32222500Y-23960822D01*
X32193221Y-23700968D01*
X32203297Y-23611551D01*
X32251173Y-23535356D01*
X32327367Y-23487480D01*
X32416789Y-23477404D01*
X32501726Y-23507125D01*
X32565357Y-23570756D01*
X32580958Y-23600953D01*
X32615991Y-23685530D01*
X32738068Y-23896975D01*
X32886691Y-24090663D01*
X33059336Y-24263308D01*
X33253024Y-24411931D01*
X33253027Y-24411932D01*
X33253030Y-24411935D01*
X33464470Y-24534009D01*
X33532493Y-24562185D01*
X33690028Y-24627439D01*
X33690033Y-24627440D01*
X33690035Y-24627441D01*
X33925865Y-24690632D01*
X34167925Y-24722500D01*
X34167926Y-24722500D01*
X34412074Y-24722500D01*
X34412075Y-24722500D01*
X34654135Y-24690632D01*
X34889965Y-24627441D01*
X34889968Y-24627439D01*
X34889971Y-24627439D01*
X34976227Y-24591710D01*
X35115530Y-24534009D01*
X35326970Y-24411935D01*
X35371863Y-24377486D01*
X35473778Y-24299285D01*
X35555569Y-24261763D01*
X35596870Y-24257500D01*
X41873130Y-24257500D01*
X41960861Y-24277524D01*
X41996222Y-24299285D01*
X42143024Y-24411931D01*
X42143027Y-24411932D01*
X42143030Y-24411935D01*
X42354470Y-24534009D01*
X42422493Y-24562185D01*
X42580028Y-24627439D01*
X42580033Y-24627440D01*
X42580035Y-24627441D01*
X42815865Y-24690632D01*
X43057925Y-24722500D01*
X43057926Y-24722500D01*
X43302074Y-24722500D01*
X43302075Y-24722500D01*
X43544135Y-24690632D01*
X43779965Y-24627441D01*
X43779968Y-24627439D01*
X43779971Y-24627439D01*
X43866227Y-24591710D01*
X44005530Y-24534009D01*
X44216970Y-24411935D01*
X44261863Y-24377486D01*
X44363778Y-24299285D01*
X44445569Y-24261763D01*
X44486870Y-24257500D01*
X48874768Y-24257500D01*
X48962499Y-24277524D01*
X49032854Y-24333630D01*
X49046859Y-24353543D01*
X49097811Y-24436149D01*
X49223851Y-24562189D01*
X49375560Y-24655764D01*
X49544759Y-24711831D01*
X49649189Y-24722500D01*
X51950810Y-24722499D01*
X52055241Y-24711831D01*
X52224440Y-24655764D01*
X52376149Y-24562189D01*
X52502189Y-24436149D01*
X52553137Y-24353548D01*
X52616236Y-24289392D01*
X52700923Y-24258967D01*
X52725232Y-24257500D01*
X70457382Y-24257500D01*
X70545113Y-24277524D01*
X70600359Y-24316723D01*
X70933277Y-24649640D01*
X70981153Y-24725834D01*
X70992500Y-24792617D01*
X70992500Y-28547381D01*
X70972476Y-28635112D01*
X70933277Y-28690358D01*
X69457358Y-30166277D01*
X69381163Y-30214153D01*
X69314381Y-30225500D01*
X66497194Y-30225500D01*
X66497188Y-30225501D01*
X66392761Y-30236168D01*
X66223557Y-30292237D01*
X66071851Y-30385811D01*
X65945811Y-30511851D01*
X65852237Y-30663557D01*
X65796169Y-30832760D01*
X65796168Y-30832764D01*
X65785500Y-30937188D01*
X65785500Y-35102805D01*
X65785501Y-35102811D01*
X65796168Y-35207238D01*
X65796169Y-35207241D01*
X65852236Y-35376440D01*
X65945811Y-35528149D01*
X66071851Y-35654189D01*
X66223560Y-35747764D01*
X66392759Y-35803831D01*
X66497189Y-35814500D01*
X70662810Y-35814499D01*
X70767241Y-35803831D01*
X70936440Y-35747764D01*
X71088149Y-35654189D01*
X71214189Y-35528149D01*
X71307764Y-35376440D01*
X71363831Y-35207241D01*
X71374500Y-35102811D01*
X71374499Y-32285616D01*
X71394523Y-32197886D01*
X71433719Y-32142643D01*
X73455954Y-30120410D01*
X73585250Y-29942449D01*
X73591000Y-29931162D01*
X73651406Y-29812609D01*
X73651406Y-29812605D01*
X73685114Y-29746454D01*
X73753089Y-29537249D01*
X73787500Y-29319986D01*
X73787500Y-24020014D01*
X73753089Y-23802751D01*
X73685114Y-23593546D01*
X73611720Y-23449502D01*
X73585249Y-23397550D01*
X73455953Y-23219590D01*
X72030410Y-21794046D01*
X71852449Y-21664751D01*
X71852448Y-21664750D01*
X71852442Y-21664746D01*
X71656457Y-21564887D01*
X71656455Y-21564886D01*
X71447250Y-21496911D01*
X71403796Y-21490028D01*
X71229986Y-21462500D01*
X71229982Y-21462500D01*
X52725232Y-21462500D01*
X52637501Y-21442476D01*
X52567146Y-21386370D01*
X52553140Y-21366456D01*
X52502189Y-21283851D01*
X52376149Y-21157811D01*
X52284359Y-21101194D01*
X52220203Y-21038096D01*
X52189777Y-20953408D01*
X52199109Y-20863906D01*
X52246351Y-20787316D01*
X52322145Y-20738808D01*
X52390511Y-20726900D01*
X77411497Y-20726900D01*
X77465577Y-20726900D01*
X77474397Y-20727092D01*
G37*
%TD.AperFunction*%
%TD*%
M02*
