%TF.GenerationSoftware,KiCad,Pcbnew,9.0.1*%
%TF.CreationDate,2025-05-14T12:06:16-07:00*%
%TF.ProjectId,SynthPowerSupply,53796e74-6850-46f7-9765-72537570706c,rev?*%
%TF.SameCoordinates,Original*%
%TF.FileFunction,Soldermask,Bot*%
%TF.FilePolarity,Negative*%
%FSLAX46Y46*%
G04 Gerber Fmt 4.6, Leading zero omitted, Abs format (unit mm)*
G04 Created by KiCad (PCBNEW 9.0.1) date 2025-05-14 12:06:16*
%MOMM*%
%LPD*%
G01*
G04 APERTURE LIST*
G04 Aperture macros list*
%AMRoundRect*
0 Rectangle with rounded corners*
0 $1 Rounding radius*
0 $2 $3 $4 $5 $6 $7 $8 $9 X,Y pos of 4 corners*
0 Add a 4 corners polygon primitive as box body*
4,1,4,$2,$3,$4,$5,$6,$7,$8,$9,$2,$3,0*
0 Add four circle primitives for the rounded corners*
1,1,$1+$1,$2,$3*
1,1,$1+$1,$4,$5*
1,1,$1+$1,$6,$7*
1,1,$1+$1,$8,$9*
0 Add four rect primitives between the rounded corners*
20,1,$1+$1,$2,$3,$4,$5,0*
20,1,$1+$1,$4,$5,$6,$7,0*
20,1,$1+$1,$6,$7,$8,$9,0*
20,1,$1+$1,$8,$9,$2,$3,0*%
G04 Aperture macros list end*
%ADD10R,2.200000X2.200000*%
%ADD11O,2.200000X2.200000*%
%ADD12C,1.524000*%
%ADD13R,3.302000X3.302000*%
%ADD14C,3.302000*%
%ADD15C,3.100000*%
%ADD16C,4.500000*%
%ADD17C,2.108200*%
%ADD18R,4.064000X4.064000*%
%ADD19RoundRect,1.016000X-1.016000X1.016000X-1.016000X-1.016000X1.016000X-1.016000X1.016000X1.016000X0*%
%ADD20RoundRect,0.250000X-0.750000X-0.750000X0.750000X-0.750000X0.750000X0.750000X-0.750000X0.750000X0*%
%ADD21C,2.000000*%
G04 APERTURE END LIST*
D10*
%TO.C,D4*%
X64008000Y-120904000D03*
D11*
X74168000Y-120904000D03*
%TD*%
D10*
%TO.C,D2*%
X50800000Y-22860000D03*
D11*
X50800000Y-33020000D03*
%TD*%
D12*
%TO.C,C7*%
X28491401Y-97028000D03*
X30491401Y-97028000D03*
%TD*%
D13*
%TO.C,C6*%
X68402755Y-45720000D03*
D14*
X75902755Y-45720000D03*
%TD*%
D12*
%TO.C,C17*%
X47287401Y-114046000D03*
X49287401Y-114046000D03*
%TD*%
%TO.C,C8*%
X28674401Y-114006000D03*
X30674401Y-114006000D03*
%TD*%
D15*
%TO.C,REF\u002A\u002A*%
X29210000Y-24130000D03*
D16*
X29210000Y-24130000D03*
%TD*%
D12*
%TO.C,C9*%
X65575401Y-97028000D03*
X67575401Y-97028000D03*
%TD*%
D13*
%TO.C,C13*%
X50001246Y-45720000D03*
D14*
X57501246Y-45720000D03*
%TD*%
D10*
%TO.C,D1*%
X34290000Y-33020000D03*
D11*
X34290000Y-22860000D03*
%TD*%
D13*
%TO.C,C4*%
X68522755Y-83820000D03*
D14*
X76022755Y-83820000D03*
%TD*%
D15*
%TO.C,*%
X29210000Y-128270000D03*
%TD*%
D17*
%TO.C,U2*%
X66365000Y-102870000D03*
X66365000Y-105410000D03*
X66365000Y-107950000D03*
%TD*%
D12*
%TO.C,C16*%
X46990000Y-97028000D03*
X48990000Y-97028000D03*
%TD*%
D13*
%TO.C,C2*%
X31790000Y-64770000D03*
D14*
X39290000Y-64770000D03*
%TD*%
D15*
%TO.C,REF\u002A\u002A*%
X78740000Y-24130000D03*
D16*
X78740000Y-24130000D03*
%TD*%
D13*
%TO.C,C14*%
X50121246Y-64770000D03*
D14*
X57621246Y-64770000D03*
%TD*%
D15*
%TO.C,*%
X78740000Y-24130000D03*
%TD*%
D13*
%TO.C,C5*%
X68402755Y-64770000D03*
D14*
X75902755Y-64770000D03*
%TD*%
D13*
%TO.C,C15*%
X50081246Y-83820000D03*
D14*
X57581246Y-83820000D03*
%TD*%
D10*
%TO.C,D5*%
X43180000Y-33020000D03*
D11*
X43180000Y-22860000D03*
%TD*%
D17*
%TO.C,U5*%
X47530000Y-102910000D03*
X47530000Y-105450000D03*
X47530000Y-107990000D03*
%TD*%
D18*
%TO.C,J1*%
X68580000Y-33020000D03*
D19*
X68580000Y-27020000D03*
X63880000Y-30020000D03*
%TD*%
D20*
%TO.C,J2*%
X48260000Y-128016000D03*
D21*
X50800000Y-128016000D03*
X53340000Y-128016000D03*
X55880000Y-128016000D03*
%TD*%
D15*
%TO.C,*%
X29210000Y-24130000D03*
%TD*%
D10*
%TO.C,D6*%
X46990000Y-120650000D03*
D11*
X57150000Y-120650000D03*
%TD*%
D10*
%TO.C,D3*%
X30480000Y-120650000D03*
D11*
X40640000Y-120650000D03*
%TD*%
D12*
%TO.C,C10*%
X65310000Y-113792000D03*
X67310000Y-113792000D03*
%TD*%
D13*
%TO.C,C3*%
X31790000Y-83820000D03*
D14*
X39290000Y-83820000D03*
%TD*%
D13*
%TO.C,C1*%
X31630000Y-45720000D03*
D14*
X39130000Y-45720000D03*
%TD*%
D17*
%TO.C,U1*%
X29210000Y-102870000D03*
X29210000Y-105410000D03*
X29210000Y-107950000D03*
%TD*%
D15*
%TO.C,REF\u002A\u002A*%
X78740000Y-128270000D03*
D16*
X78740000Y-128270000D03*
%TD*%
D15*
%TO.C,REF\u002A\u002A*%
X29210000Y-128270000D03*
D16*
X29210000Y-128270000D03*
%TD*%
M02*
