%TF.GenerationSoftware,KiCad,Pcbnew,9.0.1*%
%TF.CreationDate,2025-05-14T12:06:16-07:00*%
%TF.ProjectId,SynthPowerSupply,53796e74-6850-46f7-9765-72537570706c,rev?*%
%TF.SameCoordinates,Original*%
%TF.FileFunction,Legend,Top*%
%TF.FilePolarity,Positive*%
%FSLAX46Y46*%
G04 Gerber Fmt 4.6, Leading zero omitted, Abs format (unit mm)*
G04 Created by KiCad (PCBNEW 9.0.1) date 2025-05-14 12:06:16*
%MOMM*%
%LPD*%
G01*
G04 APERTURE LIST*
%ADD10C,0.100000*%
%ADD11C,0.150000*%
%ADD12C,0.120000*%
G04 APERTURE END LIST*
D10*
X43942000Y-116967000D02*
X43942000Y-93853000D01*
X62318000Y-93893000D02*
X62318000Y-117007000D01*
X32480000Y-100290000D02*
X32512000Y-93853000D01*
X32512000Y-116967000D02*
X43942000Y-116967000D01*
X32480000Y-110530000D02*
X32512000Y-116967000D01*
X32512000Y-93853000D02*
X43942000Y-93853000D01*
X81153000Y-116967000D02*
X81153000Y-93853000D01*
X50800000Y-110570000D02*
X50888000Y-117007000D01*
X69723000Y-93853000D02*
X81153000Y-93853000D01*
X50888000Y-117007000D02*
X62318000Y-117007000D01*
X69723000Y-116967000D02*
X81153000Y-116967000D01*
X50800000Y-100330000D02*
X50888000Y-93893000D01*
X69635000Y-110530000D02*
X69723000Y-116967000D01*
X50888000Y-93893000D02*
X62318000Y-93893000D01*
X69635000Y-100290000D02*
X69723000Y-93853000D01*
D11*
X68349905Y-118888819D02*
X68349905Y-117888819D01*
X68349905Y-117888819D02*
X68588000Y-117888819D01*
X68588000Y-117888819D02*
X68730857Y-117936438D01*
X68730857Y-117936438D02*
X68826095Y-118031676D01*
X68826095Y-118031676D02*
X68873714Y-118126914D01*
X68873714Y-118126914D02*
X68921333Y-118317390D01*
X68921333Y-118317390D02*
X68921333Y-118460247D01*
X68921333Y-118460247D02*
X68873714Y-118650723D01*
X68873714Y-118650723D02*
X68826095Y-118745961D01*
X68826095Y-118745961D02*
X68730857Y-118841200D01*
X68730857Y-118841200D02*
X68588000Y-118888819D01*
X68588000Y-118888819D02*
X68349905Y-118888819D01*
X69778476Y-118222152D02*
X69778476Y-118888819D01*
X69540381Y-117841200D02*
X69302286Y-118555485D01*
X69302286Y-118555485D02*
X69921333Y-118555485D01*
X63746095Y-119258819D02*
X63746095Y-118258819D01*
X64317523Y-119258819D02*
X63888952Y-118687390D01*
X64317523Y-118258819D02*
X63746095Y-118830247D01*
X53724819Y-28678094D02*
X52724819Y-28678094D01*
X52724819Y-28678094D02*
X52724819Y-28439999D01*
X52724819Y-28439999D02*
X52772438Y-28297142D01*
X52772438Y-28297142D02*
X52867676Y-28201904D01*
X52867676Y-28201904D02*
X52962914Y-28154285D01*
X52962914Y-28154285D02*
X53153390Y-28106666D01*
X53153390Y-28106666D02*
X53296247Y-28106666D01*
X53296247Y-28106666D02*
X53486723Y-28154285D01*
X53486723Y-28154285D02*
X53581961Y-28201904D01*
X53581961Y-28201904D02*
X53677200Y-28297142D01*
X53677200Y-28297142D02*
X53724819Y-28439999D01*
X53724819Y-28439999D02*
X53724819Y-28678094D01*
X52820057Y-27725713D02*
X52772438Y-27678094D01*
X52772438Y-27678094D02*
X52724819Y-27582856D01*
X52724819Y-27582856D02*
X52724819Y-27344761D01*
X52724819Y-27344761D02*
X52772438Y-27249523D01*
X52772438Y-27249523D02*
X52820057Y-27201904D01*
X52820057Y-27201904D02*
X52915295Y-27154285D01*
X52915295Y-27154285D02*
X53010533Y-27154285D01*
X53010533Y-27154285D02*
X53153390Y-27201904D01*
X53153390Y-27201904D02*
X53724819Y-27773332D01*
X53724819Y-27773332D02*
X53724819Y-27154285D01*
X53354819Y-23121904D02*
X52354819Y-23121904D01*
X53354819Y-22550476D02*
X52783390Y-22979047D01*
X52354819Y-22550476D02*
X52926247Y-23121904D01*
X33887580Y-97194666D02*
X33935200Y-97242285D01*
X33935200Y-97242285D02*
X33982819Y-97385142D01*
X33982819Y-97385142D02*
X33982819Y-97480380D01*
X33982819Y-97480380D02*
X33935200Y-97623237D01*
X33935200Y-97623237D02*
X33839961Y-97718475D01*
X33839961Y-97718475D02*
X33744723Y-97766094D01*
X33744723Y-97766094D02*
X33554247Y-97813713D01*
X33554247Y-97813713D02*
X33411390Y-97813713D01*
X33411390Y-97813713D02*
X33220914Y-97766094D01*
X33220914Y-97766094D02*
X33125676Y-97718475D01*
X33125676Y-97718475D02*
X33030438Y-97623237D01*
X33030438Y-97623237D02*
X32982819Y-97480380D01*
X32982819Y-97480380D02*
X32982819Y-97385142D01*
X32982819Y-97385142D02*
X33030438Y-97242285D01*
X33030438Y-97242285D02*
X33078057Y-97194666D01*
X32982819Y-96861332D02*
X32982819Y-96194666D01*
X32982819Y-96194666D02*
X33982819Y-96623237D01*
X71792088Y-55223580D02*
X71744469Y-55271200D01*
X71744469Y-55271200D02*
X71601612Y-55318819D01*
X71601612Y-55318819D02*
X71506374Y-55318819D01*
X71506374Y-55318819D02*
X71363517Y-55271200D01*
X71363517Y-55271200D02*
X71268279Y-55175961D01*
X71268279Y-55175961D02*
X71220660Y-55080723D01*
X71220660Y-55080723D02*
X71173041Y-54890247D01*
X71173041Y-54890247D02*
X71173041Y-54747390D01*
X71173041Y-54747390D02*
X71220660Y-54556914D01*
X71220660Y-54556914D02*
X71268279Y-54461676D01*
X71268279Y-54461676D02*
X71363517Y-54366438D01*
X71363517Y-54366438D02*
X71506374Y-54318819D01*
X71506374Y-54318819D02*
X71601612Y-54318819D01*
X71601612Y-54318819D02*
X71744469Y-54366438D01*
X71744469Y-54366438D02*
X71792088Y-54414057D01*
X72649231Y-54318819D02*
X72458755Y-54318819D01*
X72458755Y-54318819D02*
X72363517Y-54366438D01*
X72363517Y-54366438D02*
X72315898Y-54414057D01*
X72315898Y-54414057D02*
X72220660Y-54556914D01*
X72220660Y-54556914D02*
X72173041Y-54747390D01*
X72173041Y-54747390D02*
X72173041Y-55128342D01*
X72173041Y-55128342D02*
X72220660Y-55223580D01*
X72220660Y-55223580D02*
X72268279Y-55271200D01*
X72268279Y-55271200D02*
X72363517Y-55318819D01*
X72363517Y-55318819D02*
X72553993Y-55318819D01*
X72553993Y-55318819D02*
X72649231Y-55271200D01*
X72649231Y-55271200D02*
X72696850Y-55223580D01*
X72696850Y-55223580D02*
X72744469Y-55128342D01*
X72744469Y-55128342D02*
X72744469Y-54890247D01*
X72744469Y-54890247D02*
X72696850Y-54795009D01*
X72696850Y-54795009D02*
X72649231Y-54747390D01*
X72649231Y-54747390D02*
X72553993Y-54699771D01*
X72553993Y-54699771D02*
X72363517Y-54699771D01*
X72363517Y-54699771D02*
X72268279Y-54747390D01*
X72268279Y-54747390D02*
X72220660Y-54795009D01*
X72220660Y-54795009D02*
X72173041Y-54890247D01*
X51921581Y-114688857D02*
X51969201Y-114736476D01*
X51969201Y-114736476D02*
X52016820Y-114879333D01*
X52016820Y-114879333D02*
X52016820Y-114974571D01*
X52016820Y-114974571D02*
X51969201Y-115117428D01*
X51969201Y-115117428D02*
X51873962Y-115212666D01*
X51873962Y-115212666D02*
X51778724Y-115260285D01*
X51778724Y-115260285D02*
X51588248Y-115307904D01*
X51588248Y-115307904D02*
X51445391Y-115307904D01*
X51445391Y-115307904D02*
X51254915Y-115260285D01*
X51254915Y-115260285D02*
X51159677Y-115212666D01*
X51159677Y-115212666D02*
X51064439Y-115117428D01*
X51064439Y-115117428D02*
X51016820Y-114974571D01*
X51016820Y-114974571D02*
X51016820Y-114879333D01*
X51016820Y-114879333D02*
X51064439Y-114736476D01*
X51064439Y-114736476D02*
X51112058Y-114688857D01*
X52016820Y-113736476D02*
X52016820Y-114307904D01*
X52016820Y-114022190D02*
X51016820Y-114022190D01*
X51016820Y-114022190D02*
X51159677Y-114117428D01*
X51159677Y-114117428D02*
X51254915Y-114212666D01*
X51254915Y-114212666D02*
X51302534Y-114307904D01*
X51016820Y-113403142D02*
X51016820Y-112736476D01*
X51016820Y-112736476D02*
X52016820Y-113165047D01*
X33887580Y-114172666D02*
X33935200Y-114220285D01*
X33935200Y-114220285D02*
X33982819Y-114363142D01*
X33982819Y-114363142D02*
X33982819Y-114458380D01*
X33982819Y-114458380D02*
X33935200Y-114601237D01*
X33935200Y-114601237D02*
X33839961Y-114696475D01*
X33839961Y-114696475D02*
X33744723Y-114744094D01*
X33744723Y-114744094D02*
X33554247Y-114791713D01*
X33554247Y-114791713D02*
X33411390Y-114791713D01*
X33411390Y-114791713D02*
X33220914Y-114744094D01*
X33220914Y-114744094D02*
X33125676Y-114696475D01*
X33125676Y-114696475D02*
X33030438Y-114601237D01*
X33030438Y-114601237D02*
X32982819Y-114458380D01*
X32982819Y-114458380D02*
X32982819Y-114363142D01*
X32982819Y-114363142D02*
X33030438Y-114220285D01*
X33030438Y-114220285D02*
X33078057Y-114172666D01*
X33411390Y-113601237D02*
X33363771Y-113696475D01*
X33363771Y-113696475D02*
X33316152Y-113744094D01*
X33316152Y-113744094D02*
X33220914Y-113791713D01*
X33220914Y-113791713D02*
X33173295Y-113791713D01*
X33173295Y-113791713D02*
X33078057Y-113744094D01*
X33078057Y-113744094D02*
X33030438Y-113696475D01*
X33030438Y-113696475D02*
X32982819Y-113601237D01*
X32982819Y-113601237D02*
X32982819Y-113410761D01*
X32982819Y-113410761D02*
X33030438Y-113315523D01*
X33030438Y-113315523D02*
X33078057Y-113267904D01*
X33078057Y-113267904D02*
X33173295Y-113220285D01*
X33173295Y-113220285D02*
X33220914Y-113220285D01*
X33220914Y-113220285D02*
X33316152Y-113267904D01*
X33316152Y-113267904D02*
X33363771Y-113315523D01*
X33363771Y-113315523D02*
X33411390Y-113410761D01*
X33411390Y-113410761D02*
X33411390Y-113601237D01*
X33411390Y-113601237D02*
X33459009Y-113696475D01*
X33459009Y-113696475D02*
X33506628Y-113744094D01*
X33506628Y-113744094D02*
X33601866Y-113791713D01*
X33601866Y-113791713D02*
X33792342Y-113791713D01*
X33792342Y-113791713D02*
X33887580Y-113744094D01*
X33887580Y-113744094D02*
X33935200Y-113696475D01*
X33935200Y-113696475D02*
X33982819Y-113601237D01*
X33982819Y-113601237D02*
X33982819Y-113410761D01*
X33982819Y-113410761D02*
X33935200Y-113315523D01*
X33935200Y-113315523D02*
X33887580Y-113267904D01*
X33887580Y-113267904D02*
X33792342Y-113220285D01*
X33792342Y-113220285D02*
X33601866Y-113220285D01*
X33601866Y-113220285D02*
X33506628Y-113267904D01*
X33506628Y-113267904D02*
X33459009Y-113315523D01*
X33459009Y-113315523D02*
X33411390Y-113410761D01*
X71225580Y-97448666D02*
X71273200Y-97496285D01*
X71273200Y-97496285D02*
X71320819Y-97639142D01*
X71320819Y-97639142D02*
X71320819Y-97734380D01*
X71320819Y-97734380D02*
X71273200Y-97877237D01*
X71273200Y-97877237D02*
X71177961Y-97972475D01*
X71177961Y-97972475D02*
X71082723Y-98020094D01*
X71082723Y-98020094D02*
X70892247Y-98067713D01*
X70892247Y-98067713D02*
X70749390Y-98067713D01*
X70749390Y-98067713D02*
X70558914Y-98020094D01*
X70558914Y-98020094D02*
X70463676Y-97972475D01*
X70463676Y-97972475D02*
X70368438Y-97877237D01*
X70368438Y-97877237D02*
X70320819Y-97734380D01*
X70320819Y-97734380D02*
X70320819Y-97639142D01*
X70320819Y-97639142D02*
X70368438Y-97496285D01*
X70368438Y-97496285D02*
X70416057Y-97448666D01*
X71320819Y-96972475D02*
X71320819Y-96781999D01*
X71320819Y-96781999D02*
X71273200Y-96686761D01*
X71273200Y-96686761D02*
X71225580Y-96639142D01*
X71225580Y-96639142D02*
X71082723Y-96543904D01*
X71082723Y-96543904D02*
X70892247Y-96496285D01*
X70892247Y-96496285D02*
X70511295Y-96496285D01*
X70511295Y-96496285D02*
X70416057Y-96543904D01*
X70416057Y-96543904D02*
X70368438Y-96591523D01*
X70368438Y-96591523D02*
X70320819Y-96686761D01*
X70320819Y-96686761D02*
X70320819Y-96877237D01*
X70320819Y-96877237D02*
X70368438Y-96972475D01*
X70368438Y-96972475D02*
X70416057Y-97020094D01*
X70416057Y-97020094D02*
X70511295Y-97067713D01*
X70511295Y-97067713D02*
X70749390Y-97067713D01*
X70749390Y-97067713D02*
X70844628Y-97020094D01*
X70844628Y-97020094D02*
X70892247Y-96972475D01*
X70892247Y-96972475D02*
X70939866Y-96877237D01*
X70939866Y-96877237D02*
X70939866Y-96686761D01*
X70939866Y-96686761D02*
X70892247Y-96591523D01*
X70892247Y-96591523D02*
X70844628Y-96543904D01*
X70844628Y-96543904D02*
X70749390Y-96496285D01*
X53108388Y-36829580D02*
X53060769Y-36877200D01*
X53060769Y-36877200D02*
X52917912Y-36924819D01*
X52917912Y-36924819D02*
X52822674Y-36924819D01*
X52822674Y-36924819D02*
X52679817Y-36877200D01*
X52679817Y-36877200D02*
X52584579Y-36781961D01*
X52584579Y-36781961D02*
X52536960Y-36686723D01*
X52536960Y-36686723D02*
X52489341Y-36496247D01*
X52489341Y-36496247D02*
X52489341Y-36353390D01*
X52489341Y-36353390D02*
X52536960Y-36162914D01*
X52536960Y-36162914D02*
X52584579Y-36067676D01*
X52584579Y-36067676D02*
X52679817Y-35972438D01*
X52679817Y-35972438D02*
X52822674Y-35924819D01*
X52822674Y-35924819D02*
X52917912Y-35924819D01*
X52917912Y-35924819D02*
X53060769Y-35972438D01*
X53060769Y-35972438D02*
X53108388Y-36020057D01*
X54060769Y-36924819D02*
X53489341Y-36924819D01*
X53775055Y-36924819D02*
X53775055Y-35924819D01*
X53775055Y-35924819D02*
X53679817Y-36067676D01*
X53679817Y-36067676D02*
X53584579Y-36162914D01*
X53584579Y-36162914D02*
X53489341Y-36210533D01*
X54394103Y-35924819D02*
X55013150Y-35924819D01*
X55013150Y-35924819D02*
X54679817Y-36305771D01*
X54679817Y-36305771D02*
X54822674Y-36305771D01*
X54822674Y-36305771D02*
X54917912Y-36353390D01*
X54917912Y-36353390D02*
X54965531Y-36401009D01*
X54965531Y-36401009D02*
X55013150Y-36496247D01*
X55013150Y-36496247D02*
X55013150Y-36734342D01*
X55013150Y-36734342D02*
X54965531Y-36829580D01*
X54965531Y-36829580D02*
X54917912Y-36877200D01*
X54917912Y-36877200D02*
X54822674Y-36924819D01*
X54822674Y-36924819D02*
X54536960Y-36924819D01*
X54536960Y-36924819D02*
X54441722Y-36877200D01*
X54441722Y-36877200D02*
X54394103Y-36829580D01*
X32274819Y-28678094D02*
X31274819Y-28678094D01*
X31274819Y-28678094D02*
X31274819Y-28439999D01*
X31274819Y-28439999D02*
X31322438Y-28297142D01*
X31322438Y-28297142D02*
X31417676Y-28201904D01*
X31417676Y-28201904D02*
X31512914Y-28154285D01*
X31512914Y-28154285D02*
X31703390Y-28106666D01*
X31703390Y-28106666D02*
X31846247Y-28106666D01*
X31846247Y-28106666D02*
X32036723Y-28154285D01*
X32036723Y-28154285D02*
X32131961Y-28201904D01*
X32131961Y-28201904D02*
X32227200Y-28297142D01*
X32227200Y-28297142D02*
X32274819Y-28439999D01*
X32274819Y-28439999D02*
X32274819Y-28678094D01*
X32274819Y-27154285D02*
X32274819Y-27725713D01*
X32274819Y-27439999D02*
X31274819Y-27439999D01*
X31274819Y-27439999D02*
X31417676Y-27535237D01*
X31417676Y-27535237D02*
X31512914Y-27630475D01*
X31512914Y-27630475D02*
X31560533Y-27725713D01*
X32644819Y-33281904D02*
X31644819Y-33281904D01*
X32644819Y-32710476D02*
X32073390Y-33139047D01*
X31644819Y-32710476D02*
X32216247Y-33281904D01*
X71792088Y-93323580D02*
X71744469Y-93371200D01*
X71744469Y-93371200D02*
X71601612Y-93418819D01*
X71601612Y-93418819D02*
X71506374Y-93418819D01*
X71506374Y-93418819D02*
X71363517Y-93371200D01*
X71363517Y-93371200D02*
X71268279Y-93275961D01*
X71268279Y-93275961D02*
X71220660Y-93180723D01*
X71220660Y-93180723D02*
X71173041Y-92990247D01*
X71173041Y-92990247D02*
X71173041Y-92847390D01*
X71173041Y-92847390D02*
X71220660Y-92656914D01*
X71220660Y-92656914D02*
X71268279Y-92561676D01*
X71268279Y-92561676D02*
X71363517Y-92466438D01*
X71363517Y-92466438D02*
X71506374Y-92418819D01*
X71506374Y-92418819D02*
X71601612Y-92418819D01*
X71601612Y-92418819D02*
X71744469Y-92466438D01*
X71744469Y-92466438D02*
X71792088Y-92514057D01*
X72649231Y-92752152D02*
X72649231Y-93418819D01*
X72411136Y-92371200D02*
X72173041Y-93085485D01*
X72173041Y-93085485D02*
X72792088Y-93085485D01*
X70089819Y-106171904D02*
X70899342Y-106171904D01*
X70899342Y-106171904D02*
X70994580Y-106124285D01*
X70994580Y-106124285D02*
X71042200Y-106076666D01*
X71042200Y-106076666D02*
X71089819Y-105981428D01*
X71089819Y-105981428D02*
X71089819Y-105790952D01*
X71089819Y-105790952D02*
X71042200Y-105695714D01*
X71042200Y-105695714D02*
X70994580Y-105648095D01*
X70994580Y-105648095D02*
X70899342Y-105600476D01*
X70899342Y-105600476D02*
X70089819Y-105600476D01*
X70185057Y-105171904D02*
X70137438Y-105124285D01*
X70137438Y-105124285D02*
X70089819Y-105029047D01*
X70089819Y-105029047D02*
X70089819Y-104790952D01*
X70089819Y-104790952D02*
X70137438Y-104695714D01*
X70137438Y-104695714D02*
X70185057Y-104648095D01*
X70185057Y-104648095D02*
X70280295Y-104600476D01*
X70280295Y-104600476D02*
X70375533Y-104600476D01*
X70375533Y-104600476D02*
X70518390Y-104648095D01*
X70518390Y-104648095D02*
X71089819Y-105219523D01*
X71089819Y-105219523D02*
X71089819Y-104600476D01*
X52175580Y-97924857D02*
X52223200Y-97972476D01*
X52223200Y-97972476D02*
X52270819Y-98115333D01*
X52270819Y-98115333D02*
X52270819Y-98210571D01*
X52270819Y-98210571D02*
X52223200Y-98353428D01*
X52223200Y-98353428D02*
X52127961Y-98448666D01*
X52127961Y-98448666D02*
X52032723Y-98496285D01*
X52032723Y-98496285D02*
X51842247Y-98543904D01*
X51842247Y-98543904D02*
X51699390Y-98543904D01*
X51699390Y-98543904D02*
X51508914Y-98496285D01*
X51508914Y-98496285D02*
X51413676Y-98448666D01*
X51413676Y-98448666D02*
X51318438Y-98353428D01*
X51318438Y-98353428D02*
X51270819Y-98210571D01*
X51270819Y-98210571D02*
X51270819Y-98115333D01*
X51270819Y-98115333D02*
X51318438Y-97972476D01*
X51318438Y-97972476D02*
X51366057Y-97924857D01*
X52270819Y-96972476D02*
X52270819Y-97543904D01*
X52270819Y-97258190D02*
X51270819Y-97258190D01*
X51270819Y-97258190D02*
X51413676Y-97353428D01*
X51413676Y-97353428D02*
X51508914Y-97448666D01*
X51508914Y-97448666D02*
X51556533Y-97543904D01*
X51270819Y-96115333D02*
X51270819Y-96305809D01*
X51270819Y-96305809D02*
X51318438Y-96401047D01*
X51318438Y-96401047D02*
X51366057Y-96448666D01*
X51366057Y-96448666D02*
X51508914Y-96543904D01*
X51508914Y-96543904D02*
X51699390Y-96591523D01*
X51699390Y-96591523D02*
X52080342Y-96591523D01*
X52080342Y-96591523D02*
X52175580Y-96543904D01*
X52175580Y-96543904D02*
X52223200Y-96496285D01*
X52223200Y-96496285D02*
X52270819Y-96401047D01*
X52270819Y-96401047D02*
X52270819Y-96210571D01*
X52270819Y-96210571D02*
X52223200Y-96115333D01*
X52223200Y-96115333D02*
X52175580Y-96067714D01*
X52175580Y-96067714D02*
X52080342Y-96020095D01*
X52080342Y-96020095D02*
X51842247Y-96020095D01*
X51842247Y-96020095D02*
X51747009Y-96067714D01*
X51747009Y-96067714D02*
X51699390Y-96115333D01*
X51699390Y-96115333D02*
X51651771Y-96210571D01*
X51651771Y-96210571D02*
X51651771Y-96401047D01*
X51651771Y-96401047D02*
X51699390Y-96496285D01*
X51699390Y-96496285D02*
X51747009Y-96543904D01*
X51747009Y-96543904D02*
X51842247Y-96591523D01*
X35373333Y-55879580D02*
X35325714Y-55927200D01*
X35325714Y-55927200D02*
X35182857Y-55974819D01*
X35182857Y-55974819D02*
X35087619Y-55974819D01*
X35087619Y-55974819D02*
X34944762Y-55927200D01*
X34944762Y-55927200D02*
X34849524Y-55831961D01*
X34849524Y-55831961D02*
X34801905Y-55736723D01*
X34801905Y-55736723D02*
X34754286Y-55546247D01*
X34754286Y-55546247D02*
X34754286Y-55403390D01*
X34754286Y-55403390D02*
X34801905Y-55212914D01*
X34801905Y-55212914D02*
X34849524Y-55117676D01*
X34849524Y-55117676D02*
X34944762Y-55022438D01*
X34944762Y-55022438D02*
X35087619Y-54974819D01*
X35087619Y-54974819D02*
X35182857Y-54974819D01*
X35182857Y-54974819D02*
X35325714Y-55022438D01*
X35325714Y-55022438D02*
X35373333Y-55070057D01*
X35754286Y-55070057D02*
X35801905Y-55022438D01*
X35801905Y-55022438D02*
X35897143Y-54974819D01*
X35897143Y-54974819D02*
X36135238Y-54974819D01*
X36135238Y-54974819D02*
X36230476Y-55022438D01*
X36230476Y-55022438D02*
X36278095Y-55070057D01*
X36278095Y-55070057D02*
X36325714Y-55165295D01*
X36325714Y-55165295D02*
X36325714Y-55260533D01*
X36325714Y-55260533D02*
X36278095Y-55403390D01*
X36278095Y-55403390D02*
X35706667Y-55974819D01*
X35706667Y-55974819D02*
X36325714Y-55974819D01*
X53228388Y-55879580D02*
X53180769Y-55927200D01*
X53180769Y-55927200D02*
X53037912Y-55974819D01*
X53037912Y-55974819D02*
X52942674Y-55974819D01*
X52942674Y-55974819D02*
X52799817Y-55927200D01*
X52799817Y-55927200D02*
X52704579Y-55831961D01*
X52704579Y-55831961D02*
X52656960Y-55736723D01*
X52656960Y-55736723D02*
X52609341Y-55546247D01*
X52609341Y-55546247D02*
X52609341Y-55403390D01*
X52609341Y-55403390D02*
X52656960Y-55212914D01*
X52656960Y-55212914D02*
X52704579Y-55117676D01*
X52704579Y-55117676D02*
X52799817Y-55022438D01*
X52799817Y-55022438D02*
X52942674Y-54974819D01*
X52942674Y-54974819D02*
X53037912Y-54974819D01*
X53037912Y-54974819D02*
X53180769Y-55022438D01*
X53180769Y-55022438D02*
X53228388Y-55070057D01*
X54180769Y-55974819D02*
X53609341Y-55974819D01*
X53895055Y-55974819D02*
X53895055Y-54974819D01*
X53895055Y-54974819D02*
X53799817Y-55117676D01*
X53799817Y-55117676D02*
X53704579Y-55212914D01*
X53704579Y-55212914D02*
X53609341Y-55260533D01*
X55037912Y-55308152D02*
X55037912Y-55974819D01*
X54799817Y-54927200D02*
X54561722Y-55641485D01*
X54561722Y-55641485D02*
X55180769Y-55641485D01*
X71986088Y-74273580D02*
X71938469Y-74321200D01*
X71938469Y-74321200D02*
X71795612Y-74368819D01*
X71795612Y-74368819D02*
X71700374Y-74368819D01*
X71700374Y-74368819D02*
X71557517Y-74321200D01*
X71557517Y-74321200D02*
X71462279Y-74225961D01*
X71462279Y-74225961D02*
X71414660Y-74130723D01*
X71414660Y-74130723D02*
X71367041Y-73940247D01*
X71367041Y-73940247D02*
X71367041Y-73797390D01*
X71367041Y-73797390D02*
X71414660Y-73606914D01*
X71414660Y-73606914D02*
X71462279Y-73511676D01*
X71462279Y-73511676D02*
X71557517Y-73416438D01*
X71557517Y-73416438D02*
X71700374Y-73368819D01*
X71700374Y-73368819D02*
X71795612Y-73368819D01*
X71795612Y-73368819D02*
X71938469Y-73416438D01*
X71938469Y-73416438D02*
X71986088Y-73464057D01*
X72890850Y-73368819D02*
X72414660Y-73368819D01*
X72414660Y-73368819D02*
X72367041Y-73845009D01*
X72367041Y-73845009D02*
X72414660Y-73797390D01*
X72414660Y-73797390D02*
X72509898Y-73749771D01*
X72509898Y-73749771D02*
X72747993Y-73749771D01*
X72747993Y-73749771D02*
X72843231Y-73797390D01*
X72843231Y-73797390D02*
X72890850Y-73845009D01*
X72890850Y-73845009D02*
X72938469Y-73940247D01*
X72938469Y-73940247D02*
X72938469Y-74178342D01*
X72938469Y-74178342D02*
X72890850Y-74273580D01*
X72890850Y-74273580D02*
X72843231Y-74321200D01*
X72843231Y-74321200D02*
X72747993Y-74368819D01*
X72747993Y-74368819D02*
X72509898Y-74368819D01*
X72509898Y-74368819D02*
X72414660Y-74321200D01*
X72414660Y-74321200D02*
X72367041Y-74273580D01*
X53188388Y-74929580D02*
X53140769Y-74977200D01*
X53140769Y-74977200D02*
X52997912Y-75024819D01*
X52997912Y-75024819D02*
X52902674Y-75024819D01*
X52902674Y-75024819D02*
X52759817Y-74977200D01*
X52759817Y-74977200D02*
X52664579Y-74881961D01*
X52664579Y-74881961D02*
X52616960Y-74786723D01*
X52616960Y-74786723D02*
X52569341Y-74596247D01*
X52569341Y-74596247D02*
X52569341Y-74453390D01*
X52569341Y-74453390D02*
X52616960Y-74262914D01*
X52616960Y-74262914D02*
X52664579Y-74167676D01*
X52664579Y-74167676D02*
X52759817Y-74072438D01*
X52759817Y-74072438D02*
X52902674Y-74024819D01*
X52902674Y-74024819D02*
X52997912Y-74024819D01*
X52997912Y-74024819D02*
X53140769Y-74072438D01*
X53140769Y-74072438D02*
X53188388Y-74120057D01*
X54140769Y-75024819D02*
X53569341Y-75024819D01*
X53855055Y-75024819D02*
X53855055Y-74024819D01*
X53855055Y-74024819D02*
X53759817Y-74167676D01*
X53759817Y-74167676D02*
X53664579Y-74262914D01*
X53664579Y-74262914D02*
X53569341Y-74310533D01*
X55045531Y-74024819D02*
X54569341Y-74024819D01*
X54569341Y-74024819D02*
X54521722Y-74501009D01*
X54521722Y-74501009D02*
X54569341Y-74453390D01*
X54569341Y-74453390D02*
X54664579Y-74405771D01*
X54664579Y-74405771D02*
X54902674Y-74405771D01*
X54902674Y-74405771D02*
X54997912Y-74453390D01*
X54997912Y-74453390D02*
X55045531Y-74501009D01*
X55045531Y-74501009D02*
X55093150Y-74596247D01*
X55093150Y-74596247D02*
X55093150Y-74834342D01*
X55093150Y-74834342D02*
X55045531Y-74929580D01*
X55045531Y-74929580D02*
X54997912Y-74977200D01*
X54997912Y-74977200D02*
X54902674Y-75024819D01*
X54902674Y-75024819D02*
X54664579Y-75024819D01*
X54664579Y-75024819D02*
X54569341Y-74977200D01*
X54569341Y-74977200D02*
X54521722Y-74929580D01*
X41164819Y-28678094D02*
X40164819Y-28678094D01*
X40164819Y-28678094D02*
X40164819Y-28439999D01*
X40164819Y-28439999D02*
X40212438Y-28297142D01*
X40212438Y-28297142D02*
X40307676Y-28201904D01*
X40307676Y-28201904D02*
X40402914Y-28154285D01*
X40402914Y-28154285D02*
X40593390Y-28106666D01*
X40593390Y-28106666D02*
X40736247Y-28106666D01*
X40736247Y-28106666D02*
X40926723Y-28154285D01*
X40926723Y-28154285D02*
X41021961Y-28201904D01*
X41021961Y-28201904D02*
X41117200Y-28297142D01*
X41117200Y-28297142D02*
X41164819Y-28439999D01*
X41164819Y-28439999D02*
X41164819Y-28678094D01*
X40164819Y-27201904D02*
X40164819Y-27678094D01*
X40164819Y-27678094D02*
X40641009Y-27725713D01*
X40641009Y-27725713D02*
X40593390Y-27678094D01*
X40593390Y-27678094D02*
X40545771Y-27582856D01*
X40545771Y-27582856D02*
X40545771Y-27344761D01*
X40545771Y-27344761D02*
X40593390Y-27249523D01*
X40593390Y-27249523D02*
X40641009Y-27201904D01*
X40641009Y-27201904D02*
X40736247Y-27154285D01*
X40736247Y-27154285D02*
X40974342Y-27154285D01*
X40974342Y-27154285D02*
X41069580Y-27201904D01*
X41069580Y-27201904D02*
X41117200Y-27249523D01*
X41117200Y-27249523D02*
X41164819Y-27344761D01*
X41164819Y-27344761D02*
X41164819Y-27582856D01*
X41164819Y-27582856D02*
X41117200Y-27678094D01*
X41117200Y-27678094D02*
X41069580Y-27725713D01*
X41534819Y-33281904D02*
X40534819Y-33281904D01*
X41534819Y-32710476D02*
X40963390Y-33139047D01*
X40534819Y-32710476D02*
X41106247Y-33281904D01*
X51254819Y-106211904D02*
X52064342Y-106211904D01*
X52064342Y-106211904D02*
X52159580Y-106164285D01*
X52159580Y-106164285D02*
X52207200Y-106116666D01*
X52207200Y-106116666D02*
X52254819Y-106021428D01*
X52254819Y-106021428D02*
X52254819Y-105830952D01*
X52254819Y-105830952D02*
X52207200Y-105735714D01*
X52207200Y-105735714D02*
X52159580Y-105688095D01*
X52159580Y-105688095D02*
X52064342Y-105640476D01*
X52064342Y-105640476D02*
X51254819Y-105640476D01*
X51254819Y-104688095D02*
X51254819Y-105164285D01*
X51254819Y-105164285D02*
X51731009Y-105211904D01*
X51731009Y-105211904D02*
X51683390Y-105164285D01*
X51683390Y-105164285D02*
X51635771Y-105069047D01*
X51635771Y-105069047D02*
X51635771Y-104830952D01*
X51635771Y-104830952D02*
X51683390Y-104735714D01*
X51683390Y-104735714D02*
X51731009Y-104688095D01*
X51731009Y-104688095D02*
X51826247Y-104640476D01*
X51826247Y-104640476D02*
X52064342Y-104640476D01*
X52064342Y-104640476D02*
X52159580Y-104688095D01*
X52159580Y-104688095D02*
X52207200Y-104735714D01*
X52207200Y-104735714D02*
X52254819Y-104830952D01*
X52254819Y-104830952D02*
X52254819Y-105069047D01*
X52254819Y-105069047D02*
X52207200Y-105164285D01*
X52207200Y-105164285D02*
X52159580Y-105211904D01*
X62284819Y-24903333D02*
X62999104Y-24903333D01*
X62999104Y-24903333D02*
X63141961Y-24950952D01*
X63141961Y-24950952D02*
X63237200Y-25046190D01*
X63237200Y-25046190D02*
X63284819Y-25189047D01*
X63284819Y-25189047D02*
X63284819Y-25284285D01*
X63284819Y-23903333D02*
X63284819Y-24474761D01*
X63284819Y-24189047D02*
X62284819Y-24189047D01*
X62284819Y-24189047D02*
X62427676Y-24284285D01*
X62427676Y-24284285D02*
X62522914Y-24379523D01*
X62522914Y-24379523D02*
X62570533Y-24474761D01*
X51736666Y-123250819D02*
X51736666Y-123965104D01*
X51736666Y-123965104D02*
X51689047Y-124107961D01*
X51689047Y-124107961D02*
X51593809Y-124203200D01*
X51593809Y-124203200D02*
X51450952Y-124250819D01*
X51450952Y-124250819D02*
X51355714Y-124250819D01*
X52165238Y-123346057D02*
X52212857Y-123298438D01*
X52212857Y-123298438D02*
X52308095Y-123250819D01*
X52308095Y-123250819D02*
X52546190Y-123250819D01*
X52546190Y-123250819D02*
X52641428Y-123298438D01*
X52641428Y-123298438D02*
X52689047Y-123346057D01*
X52689047Y-123346057D02*
X52736666Y-123441295D01*
X52736666Y-123441295D02*
X52736666Y-123536533D01*
X52736666Y-123536533D02*
X52689047Y-123679390D01*
X52689047Y-123679390D02*
X52117619Y-124250819D01*
X52117619Y-124250819D02*
X52736666Y-124250819D01*
X51331905Y-118564819D02*
X51331905Y-117564819D01*
X51331905Y-117564819D02*
X51570000Y-117564819D01*
X51570000Y-117564819D02*
X51712857Y-117612438D01*
X51712857Y-117612438D02*
X51808095Y-117707676D01*
X51808095Y-117707676D02*
X51855714Y-117802914D01*
X51855714Y-117802914D02*
X51903333Y-117993390D01*
X51903333Y-117993390D02*
X51903333Y-118136247D01*
X51903333Y-118136247D02*
X51855714Y-118326723D01*
X51855714Y-118326723D02*
X51808095Y-118421961D01*
X51808095Y-118421961D02*
X51712857Y-118517200D01*
X51712857Y-118517200D02*
X51570000Y-118564819D01*
X51570000Y-118564819D02*
X51331905Y-118564819D01*
X52760476Y-117564819D02*
X52570000Y-117564819D01*
X52570000Y-117564819D02*
X52474762Y-117612438D01*
X52474762Y-117612438D02*
X52427143Y-117660057D01*
X52427143Y-117660057D02*
X52331905Y-117802914D01*
X52331905Y-117802914D02*
X52284286Y-117993390D01*
X52284286Y-117993390D02*
X52284286Y-118374342D01*
X52284286Y-118374342D02*
X52331905Y-118469580D01*
X52331905Y-118469580D02*
X52379524Y-118517200D01*
X52379524Y-118517200D02*
X52474762Y-118564819D01*
X52474762Y-118564819D02*
X52665238Y-118564819D01*
X52665238Y-118564819D02*
X52760476Y-118517200D01*
X52760476Y-118517200D02*
X52808095Y-118469580D01*
X52808095Y-118469580D02*
X52855714Y-118374342D01*
X52855714Y-118374342D02*
X52855714Y-118136247D01*
X52855714Y-118136247D02*
X52808095Y-118041009D01*
X52808095Y-118041009D02*
X52760476Y-117993390D01*
X52760476Y-117993390D02*
X52665238Y-117945771D01*
X52665238Y-117945771D02*
X52474762Y-117945771D01*
X52474762Y-117945771D02*
X52379524Y-117993390D01*
X52379524Y-117993390D02*
X52331905Y-118041009D01*
X52331905Y-118041009D02*
X52284286Y-118136247D01*
X46728095Y-119004819D02*
X46728095Y-118004819D01*
X47299523Y-119004819D02*
X46870952Y-118433390D01*
X47299523Y-118004819D02*
X46728095Y-118576247D01*
X34821905Y-118564819D02*
X34821905Y-117564819D01*
X34821905Y-117564819D02*
X35060000Y-117564819D01*
X35060000Y-117564819D02*
X35202857Y-117612438D01*
X35202857Y-117612438D02*
X35298095Y-117707676D01*
X35298095Y-117707676D02*
X35345714Y-117802914D01*
X35345714Y-117802914D02*
X35393333Y-117993390D01*
X35393333Y-117993390D02*
X35393333Y-118136247D01*
X35393333Y-118136247D02*
X35345714Y-118326723D01*
X35345714Y-118326723D02*
X35298095Y-118421961D01*
X35298095Y-118421961D02*
X35202857Y-118517200D01*
X35202857Y-118517200D02*
X35060000Y-118564819D01*
X35060000Y-118564819D02*
X34821905Y-118564819D01*
X35726667Y-117564819D02*
X36345714Y-117564819D01*
X36345714Y-117564819D02*
X36012381Y-117945771D01*
X36012381Y-117945771D02*
X36155238Y-117945771D01*
X36155238Y-117945771D02*
X36250476Y-117993390D01*
X36250476Y-117993390D02*
X36298095Y-118041009D01*
X36298095Y-118041009D02*
X36345714Y-118136247D01*
X36345714Y-118136247D02*
X36345714Y-118374342D01*
X36345714Y-118374342D02*
X36298095Y-118469580D01*
X36298095Y-118469580D02*
X36250476Y-118517200D01*
X36250476Y-118517200D02*
X36155238Y-118564819D01*
X36155238Y-118564819D02*
X35869524Y-118564819D01*
X35869524Y-118564819D02*
X35774286Y-118517200D01*
X35774286Y-118517200D02*
X35726667Y-118469580D01*
X30218095Y-119004819D02*
X30218095Y-118004819D01*
X30789523Y-119004819D02*
X30360952Y-118433390D01*
X30789523Y-118004819D02*
X30218095Y-118576247D01*
X65667142Y-117453580D02*
X65619523Y-117501200D01*
X65619523Y-117501200D02*
X65476666Y-117548819D01*
X65476666Y-117548819D02*
X65381428Y-117548819D01*
X65381428Y-117548819D02*
X65238571Y-117501200D01*
X65238571Y-117501200D02*
X65143333Y-117405961D01*
X65143333Y-117405961D02*
X65095714Y-117310723D01*
X65095714Y-117310723D02*
X65048095Y-117120247D01*
X65048095Y-117120247D02*
X65048095Y-116977390D01*
X65048095Y-116977390D02*
X65095714Y-116786914D01*
X65095714Y-116786914D02*
X65143333Y-116691676D01*
X65143333Y-116691676D02*
X65238571Y-116596438D01*
X65238571Y-116596438D02*
X65381428Y-116548819D01*
X65381428Y-116548819D02*
X65476666Y-116548819D01*
X65476666Y-116548819D02*
X65619523Y-116596438D01*
X65619523Y-116596438D02*
X65667142Y-116644057D01*
X66619523Y-117548819D02*
X66048095Y-117548819D01*
X66333809Y-117548819D02*
X66333809Y-116548819D01*
X66333809Y-116548819D02*
X66238571Y-116691676D01*
X66238571Y-116691676D02*
X66143333Y-116786914D01*
X66143333Y-116786914D02*
X66048095Y-116834533D01*
X67238571Y-116548819D02*
X67333809Y-116548819D01*
X67333809Y-116548819D02*
X67429047Y-116596438D01*
X67429047Y-116596438D02*
X67476666Y-116644057D01*
X67476666Y-116644057D02*
X67524285Y-116739295D01*
X67524285Y-116739295D02*
X67571904Y-116929771D01*
X67571904Y-116929771D02*
X67571904Y-117167866D01*
X67571904Y-117167866D02*
X67524285Y-117358342D01*
X67524285Y-117358342D02*
X67476666Y-117453580D01*
X67476666Y-117453580D02*
X67429047Y-117501200D01*
X67429047Y-117501200D02*
X67333809Y-117548819D01*
X67333809Y-117548819D02*
X67238571Y-117548819D01*
X67238571Y-117548819D02*
X67143333Y-117501200D01*
X67143333Y-117501200D02*
X67095714Y-117453580D01*
X67095714Y-117453580D02*
X67048095Y-117358342D01*
X67048095Y-117358342D02*
X67000476Y-117167866D01*
X67000476Y-117167866D02*
X67000476Y-116929771D01*
X67000476Y-116929771D02*
X67048095Y-116739295D01*
X67048095Y-116739295D02*
X67095714Y-116644057D01*
X67095714Y-116644057D02*
X67143333Y-116596438D01*
X67143333Y-116596438D02*
X67238571Y-116548819D01*
X35373333Y-74929580D02*
X35325714Y-74977200D01*
X35325714Y-74977200D02*
X35182857Y-75024819D01*
X35182857Y-75024819D02*
X35087619Y-75024819D01*
X35087619Y-75024819D02*
X34944762Y-74977200D01*
X34944762Y-74977200D02*
X34849524Y-74881961D01*
X34849524Y-74881961D02*
X34801905Y-74786723D01*
X34801905Y-74786723D02*
X34754286Y-74596247D01*
X34754286Y-74596247D02*
X34754286Y-74453390D01*
X34754286Y-74453390D02*
X34801905Y-74262914D01*
X34801905Y-74262914D02*
X34849524Y-74167676D01*
X34849524Y-74167676D02*
X34944762Y-74072438D01*
X34944762Y-74072438D02*
X35087619Y-74024819D01*
X35087619Y-74024819D02*
X35182857Y-74024819D01*
X35182857Y-74024819D02*
X35325714Y-74072438D01*
X35325714Y-74072438D02*
X35373333Y-74120057D01*
X35706667Y-74024819D02*
X36325714Y-74024819D01*
X36325714Y-74024819D02*
X35992381Y-74405771D01*
X35992381Y-74405771D02*
X36135238Y-74405771D01*
X36135238Y-74405771D02*
X36230476Y-74453390D01*
X36230476Y-74453390D02*
X36278095Y-74501009D01*
X36278095Y-74501009D02*
X36325714Y-74596247D01*
X36325714Y-74596247D02*
X36325714Y-74834342D01*
X36325714Y-74834342D02*
X36278095Y-74929580D01*
X36278095Y-74929580D02*
X36230476Y-74977200D01*
X36230476Y-74977200D02*
X36135238Y-75024819D01*
X36135238Y-75024819D02*
X35849524Y-75024819D01*
X35849524Y-75024819D02*
X35754286Y-74977200D01*
X35754286Y-74977200D02*
X35706667Y-74929580D01*
X35213333Y-36829580D02*
X35165714Y-36877200D01*
X35165714Y-36877200D02*
X35022857Y-36924819D01*
X35022857Y-36924819D02*
X34927619Y-36924819D01*
X34927619Y-36924819D02*
X34784762Y-36877200D01*
X34784762Y-36877200D02*
X34689524Y-36781961D01*
X34689524Y-36781961D02*
X34641905Y-36686723D01*
X34641905Y-36686723D02*
X34594286Y-36496247D01*
X34594286Y-36496247D02*
X34594286Y-36353390D01*
X34594286Y-36353390D02*
X34641905Y-36162914D01*
X34641905Y-36162914D02*
X34689524Y-36067676D01*
X34689524Y-36067676D02*
X34784762Y-35972438D01*
X34784762Y-35972438D02*
X34927619Y-35924819D01*
X34927619Y-35924819D02*
X35022857Y-35924819D01*
X35022857Y-35924819D02*
X35165714Y-35972438D01*
X35165714Y-35972438D02*
X35213333Y-36020057D01*
X36165714Y-36924819D02*
X35594286Y-36924819D01*
X35880000Y-36924819D02*
X35880000Y-35924819D01*
X35880000Y-35924819D02*
X35784762Y-36067676D01*
X35784762Y-36067676D02*
X35689524Y-36162914D01*
X35689524Y-36162914D02*
X35594286Y-36210533D01*
X32934819Y-106171904D02*
X33744342Y-106171904D01*
X33744342Y-106171904D02*
X33839580Y-106124285D01*
X33839580Y-106124285D02*
X33887200Y-106076666D01*
X33887200Y-106076666D02*
X33934819Y-105981428D01*
X33934819Y-105981428D02*
X33934819Y-105790952D01*
X33934819Y-105790952D02*
X33887200Y-105695714D01*
X33887200Y-105695714D02*
X33839580Y-105648095D01*
X33839580Y-105648095D02*
X33744342Y-105600476D01*
X33744342Y-105600476D02*
X32934819Y-105600476D01*
X33934819Y-104600476D02*
X33934819Y-105171904D01*
X33934819Y-104886190D02*
X32934819Y-104886190D01*
X32934819Y-104886190D02*
X33077676Y-104981428D01*
X33077676Y-104981428D02*
X33172914Y-105076666D01*
X33172914Y-105076666D02*
X33220533Y-105171904D01*
D12*
%TO.C,D4*%
X65348000Y-120904000D02*
X66368000Y-120904000D01*
X66368000Y-119434000D02*
X66368000Y-122374000D01*
X66368000Y-122374000D02*
X71808000Y-122374000D01*
X67148000Y-119434000D02*
X67148000Y-122374000D01*
X67268000Y-119434000D02*
X67268000Y-122374000D01*
X67388000Y-119434000D02*
X67388000Y-122374000D01*
X71808000Y-119434000D02*
X66368000Y-119434000D01*
X71808000Y-122374000D02*
X71808000Y-119434000D01*
X72828000Y-120904000D02*
X71808000Y-120904000D01*
%TO.C,D2*%
X49330000Y-25220000D02*
X49330000Y-30660000D01*
X49330000Y-30660000D02*
X52270000Y-30660000D01*
X50800000Y-24200000D02*
X50800000Y-25220000D01*
X50800000Y-31680000D02*
X50800000Y-30660000D01*
X52270000Y-25220000D02*
X49330000Y-25220000D01*
X52270000Y-26000000D02*
X49330000Y-26000000D01*
X52270000Y-26120000D02*
X49330000Y-26120000D01*
X52270000Y-26240000D02*
X49330000Y-26240000D01*
X52270000Y-30660000D02*
X52270000Y-25220000D01*
%TO.C,C7*%
X27221600Y-95833000D02*
X27621600Y-95833000D01*
X27421600Y-95633000D02*
X27421600Y-96033000D01*
X29491401Y-94948000D02*
X29491401Y-99108000D01*
X29531401Y-94948000D02*
X29531401Y-99108000D01*
X29571401Y-94950000D02*
X29571401Y-99106000D01*
X29611401Y-94951000D02*
X29611401Y-99105000D01*
X29651401Y-94954000D02*
X29651401Y-99102000D01*
X29691401Y-94957000D02*
X29691401Y-96188000D01*
X29691401Y-97868000D02*
X29691401Y-99099000D01*
X29731401Y-94962000D02*
X29731401Y-96188000D01*
X29731401Y-97868000D02*
X29731401Y-99094000D01*
X29771401Y-94967000D02*
X29771401Y-96188000D01*
X29771401Y-97868000D02*
X29771401Y-99089000D01*
X29811401Y-94972000D02*
X29811401Y-96188000D01*
X29811401Y-97868000D02*
X29811401Y-99084000D01*
X29851401Y-94979000D02*
X29851401Y-96188000D01*
X29851401Y-97868000D02*
X29851401Y-99077000D01*
X29891401Y-94986000D02*
X29891401Y-96188000D01*
X29891401Y-97868000D02*
X29891401Y-99070000D01*
X29931401Y-94994000D02*
X29931401Y-96188000D01*
X29931401Y-97868000D02*
X29931401Y-99062000D01*
X29971401Y-95003000D02*
X29971401Y-96188000D01*
X29971401Y-97868000D02*
X29971401Y-99053000D01*
X30011401Y-95013000D02*
X30011401Y-96188000D01*
X30011401Y-97868000D02*
X30011401Y-99043000D01*
X30051401Y-95023000D02*
X30051401Y-96188000D01*
X30051401Y-97868000D02*
X30051401Y-99033000D01*
X30091401Y-95035000D02*
X30091401Y-96188000D01*
X30091401Y-97868000D02*
X30091401Y-99021000D01*
X30131401Y-95047000D02*
X30131401Y-96188000D01*
X30131401Y-97868000D02*
X30131401Y-99009000D01*
X30171401Y-95060000D02*
X30171401Y-96188000D01*
X30171401Y-97868000D02*
X30171401Y-98996000D01*
X30211401Y-95074000D02*
X30211401Y-96188000D01*
X30211401Y-97868000D02*
X30211401Y-98982000D01*
X30251401Y-95089000D02*
X30251401Y-96188000D01*
X30251401Y-97868000D02*
X30251401Y-98967000D01*
X30291401Y-95105000D02*
X30291401Y-96188000D01*
X30291401Y-97868000D02*
X30291401Y-98951000D01*
X30331401Y-95122000D02*
X30331401Y-96188000D01*
X30331401Y-97868000D02*
X30331401Y-98934000D01*
X30371401Y-95139000D02*
X30371401Y-96188000D01*
X30371401Y-97868000D02*
X30371401Y-98917000D01*
X30411401Y-95158000D02*
X30411401Y-96188000D01*
X30411401Y-97868000D02*
X30411401Y-98898000D01*
X30451401Y-95178000D02*
X30451401Y-96188000D01*
X30451401Y-97868000D02*
X30451401Y-98878000D01*
X30491401Y-95199000D02*
X30491401Y-96188000D01*
X30491401Y-97868000D02*
X30491401Y-98857000D01*
X30531401Y-95221000D02*
X30531401Y-96188000D01*
X30531401Y-97868000D02*
X30531401Y-98835000D01*
X30571401Y-95244000D02*
X30571401Y-96188000D01*
X30571401Y-97868000D02*
X30571401Y-98812000D01*
X30611401Y-95268000D02*
X30611401Y-96188000D01*
X30611401Y-97868000D02*
X30611401Y-98788000D01*
X30651401Y-95294000D02*
X30651401Y-96188000D01*
X30651401Y-97868000D02*
X30651401Y-98762000D01*
X30691401Y-95320000D02*
X30691401Y-96188000D01*
X30691401Y-97868000D02*
X30691401Y-98736000D01*
X30731401Y-95348000D02*
X30731401Y-96188000D01*
X30731401Y-97868000D02*
X30731401Y-98708000D01*
X30771401Y-95378000D02*
X30771401Y-96188000D01*
X30771401Y-97868000D02*
X30771401Y-98678000D01*
X30811401Y-95409000D02*
X30811401Y-96188000D01*
X30811401Y-97868000D02*
X30811401Y-98647000D01*
X30851401Y-95442000D02*
X30851401Y-96188000D01*
X30851401Y-97868000D02*
X30851401Y-98614000D01*
X30891401Y-95476000D02*
X30891401Y-96188000D01*
X30891401Y-97868000D02*
X30891401Y-98580000D01*
X30931401Y-95512000D02*
X30931401Y-96188000D01*
X30931401Y-97868000D02*
X30931401Y-98544000D01*
X30971401Y-95550000D02*
X30971401Y-96188000D01*
X30971401Y-97868000D02*
X30971401Y-98506000D01*
X31011401Y-95590000D02*
X31011401Y-96188000D01*
X31011401Y-97868000D02*
X31011401Y-98466000D01*
X31051401Y-95632000D02*
X31051401Y-96188000D01*
X31051401Y-97868000D02*
X31051401Y-98424000D01*
X31091401Y-95677000D02*
X31091401Y-96188000D01*
X31091401Y-97868000D02*
X31091401Y-98379000D01*
X31131401Y-95725000D02*
X31131401Y-96188000D01*
X31131401Y-97868000D02*
X31131401Y-98331000D01*
X31171401Y-95775000D02*
X31171401Y-96188000D01*
X31171401Y-97868000D02*
X31171401Y-98281000D01*
X31211401Y-95829000D02*
X31211401Y-96188000D01*
X31211401Y-97868000D02*
X31211401Y-98227000D01*
X31251401Y-95886000D02*
X31251401Y-96188000D01*
X31251401Y-97868000D02*
X31251401Y-98170000D01*
X31291401Y-95948000D02*
X31291401Y-96188000D01*
X31291401Y-97868000D02*
X31291401Y-98108000D01*
X31331401Y-96015000D02*
X31331401Y-98041000D01*
X31371401Y-96088000D02*
X31371401Y-97968000D01*
X31411401Y-96169000D02*
X31411401Y-97887000D01*
X31451401Y-96260000D02*
X31451401Y-97796000D01*
X31491401Y-96365000D02*
X31491401Y-97691000D01*
X31531401Y-96491000D02*
X31531401Y-97565000D01*
X31571401Y-96658000D02*
X31571401Y-97398000D01*
X31611401Y-97028000D02*
G75*
G02*
X27371401Y-97028000I-2120000J0D01*
G01*
X27371401Y-97028000D02*
G75*
G02*
X31611401Y-97028000I2120000J0D01*
G01*
%TO.C,C6*%
X63463264Y-41165000D02*
X65063264Y-41165000D01*
X64263264Y-40365000D02*
X64263264Y-41965000D01*
X72152755Y-37640000D02*
X72152755Y-53800000D01*
X72192755Y-37640000D02*
X72192755Y-53800000D01*
X72232755Y-37640000D02*
X72232755Y-53800000D01*
X72272755Y-37641000D02*
X72272755Y-53799000D01*
X72312755Y-37642000D02*
X72312755Y-53798000D01*
X72352755Y-37642000D02*
X72352755Y-53798000D01*
X72392755Y-37644000D02*
X72392755Y-53796000D01*
X72432755Y-37645000D02*
X72432755Y-53795000D01*
X72472755Y-37646000D02*
X72472755Y-53794000D01*
X72512755Y-37648000D02*
X72512755Y-53792000D01*
X72552755Y-37650000D02*
X72552755Y-53790000D01*
X72592755Y-37652000D02*
X72592755Y-53788000D01*
X72632755Y-37654000D02*
X72632755Y-53786000D01*
X72672755Y-37657000D02*
X72672755Y-53783000D01*
X72712755Y-37659000D02*
X72712755Y-53781000D01*
X72752755Y-37662000D02*
X72752755Y-53778000D01*
X72792755Y-37665000D02*
X72792755Y-53775000D01*
X72832755Y-37669000D02*
X72832755Y-53771000D01*
X72872755Y-37672000D02*
X72872755Y-53768000D01*
X72912755Y-37676000D02*
X72912755Y-53764000D01*
X72952755Y-37680000D02*
X72952755Y-53760000D01*
X72992755Y-37684000D02*
X72992755Y-53756000D01*
X73032755Y-37688000D02*
X73032755Y-53752000D01*
X73072755Y-37692000D02*
X73072755Y-53748000D01*
X73112755Y-37697000D02*
X73112755Y-53743000D01*
X73152755Y-37702000D02*
X73152755Y-53738000D01*
X73192755Y-37707000D02*
X73192755Y-53733000D01*
X73232755Y-37712000D02*
X73232755Y-53728000D01*
X73272755Y-37718000D02*
X73272755Y-53722000D01*
X73312755Y-37723000D02*
X73312755Y-53717000D01*
X73352755Y-37729000D02*
X73352755Y-53711000D01*
X73392755Y-37735000D02*
X73392755Y-53705000D01*
X73432755Y-37742000D02*
X73432755Y-53698000D01*
X73472755Y-37748000D02*
X73472755Y-53692000D01*
X73512755Y-37755000D02*
X73512755Y-53685000D01*
X73552755Y-37762000D02*
X73552755Y-53678000D01*
X73592755Y-37769000D02*
X73592755Y-53671000D01*
X73632755Y-37776000D02*
X73632755Y-53664000D01*
X73672755Y-37784000D02*
X73672755Y-53656000D01*
X73712755Y-37791000D02*
X73712755Y-53649000D01*
X73752755Y-37799000D02*
X73752755Y-53641000D01*
X73792755Y-37807000D02*
X73792755Y-53633000D01*
X73832755Y-37816000D02*
X73832755Y-53624000D01*
X73872755Y-37824000D02*
X73872755Y-53616000D01*
X73912755Y-37833000D02*
X73912755Y-53607000D01*
X73952755Y-37842000D02*
X73952755Y-53598000D01*
X73992755Y-37851000D02*
X73992755Y-53589000D01*
X74032755Y-37861000D02*
X74032755Y-53579000D01*
X74072755Y-37870000D02*
X74072755Y-53570000D01*
X74112755Y-37880000D02*
X74112755Y-53560000D01*
X74152755Y-37890000D02*
X74152755Y-53550000D01*
X74192755Y-37900000D02*
X74192755Y-53540000D01*
X74232755Y-37911000D02*
X74232755Y-53529000D01*
X74272755Y-37922000D02*
X74272755Y-53518000D01*
X74312755Y-37933000D02*
X74312755Y-53507000D01*
X74352755Y-37944000D02*
X74352755Y-53496000D01*
X74392755Y-37955000D02*
X74392755Y-53485000D01*
X74432755Y-37967000D02*
X74432755Y-53473000D01*
X74472755Y-37978000D02*
X74472755Y-44280000D01*
X74472755Y-47160000D02*
X74472755Y-53462000D01*
X74512755Y-37991000D02*
X74512755Y-44280000D01*
X74512755Y-47160000D02*
X74512755Y-53449000D01*
X74552755Y-38003000D02*
X74552755Y-44280000D01*
X74552755Y-47160000D02*
X74552755Y-53437000D01*
X74592755Y-38015000D02*
X74592755Y-44280000D01*
X74592755Y-47160000D02*
X74592755Y-53425000D01*
X74632755Y-38028000D02*
X74632755Y-44280000D01*
X74632755Y-47160000D02*
X74632755Y-53412000D01*
X74672755Y-38041000D02*
X74672755Y-44280000D01*
X74672755Y-47160000D02*
X74672755Y-53399000D01*
X74712755Y-38054000D02*
X74712755Y-44280000D01*
X74712755Y-47160000D02*
X74712755Y-53386000D01*
X74752755Y-38068000D02*
X74752755Y-44280000D01*
X74752755Y-47160000D02*
X74752755Y-53372000D01*
X74792755Y-38081000D02*
X74792755Y-44280000D01*
X74792755Y-47160000D02*
X74792755Y-53359000D01*
X74832755Y-38095000D02*
X74832755Y-44280000D01*
X74832755Y-47160000D02*
X74832755Y-53345000D01*
X74872755Y-38109000D02*
X74872755Y-44280000D01*
X74872755Y-47160000D02*
X74872755Y-53331000D01*
X74912755Y-38123000D02*
X74912755Y-44280000D01*
X74912755Y-47160000D02*
X74912755Y-53317000D01*
X74952755Y-38138000D02*
X74952755Y-44280000D01*
X74952755Y-47160000D02*
X74952755Y-53302000D01*
X74992755Y-38153000D02*
X74992755Y-44280000D01*
X74992755Y-47160000D02*
X74992755Y-53287000D01*
X75032755Y-38168000D02*
X75032755Y-44280000D01*
X75032755Y-47160000D02*
X75032755Y-53272000D01*
X75072755Y-38183000D02*
X75072755Y-44280000D01*
X75072755Y-47160000D02*
X75072755Y-53257000D01*
X75112755Y-38199000D02*
X75112755Y-44280000D01*
X75112755Y-47160000D02*
X75112755Y-53241000D01*
X75152755Y-38215000D02*
X75152755Y-44280000D01*
X75152755Y-47160000D02*
X75152755Y-53225000D01*
X75192755Y-38231000D02*
X75192755Y-44280000D01*
X75192755Y-47160000D02*
X75192755Y-53209000D01*
X75232755Y-38247000D02*
X75232755Y-44280000D01*
X75232755Y-47160000D02*
X75232755Y-53193000D01*
X75272755Y-38263000D02*
X75272755Y-44280000D01*
X75272755Y-47160000D02*
X75272755Y-53177000D01*
X75312755Y-38280000D02*
X75312755Y-44280000D01*
X75312755Y-47160000D02*
X75312755Y-53160000D01*
X75352755Y-38297000D02*
X75352755Y-44280000D01*
X75352755Y-47160000D02*
X75352755Y-53143000D01*
X75392755Y-38314000D02*
X75392755Y-44280000D01*
X75392755Y-47160000D02*
X75392755Y-53126000D01*
X75432755Y-38332000D02*
X75432755Y-44280000D01*
X75432755Y-47160000D02*
X75432755Y-53108000D01*
X75472755Y-38350000D02*
X75472755Y-44280000D01*
X75472755Y-47160000D02*
X75472755Y-53090000D01*
X75512755Y-38368000D02*
X75512755Y-44280000D01*
X75512755Y-47160000D02*
X75512755Y-53072000D01*
X75552755Y-38386000D02*
X75552755Y-44280000D01*
X75552755Y-47160000D02*
X75552755Y-53054000D01*
X75592755Y-38405000D02*
X75592755Y-44280000D01*
X75592755Y-47160000D02*
X75592755Y-53035000D01*
X75632755Y-38424000D02*
X75632755Y-44280000D01*
X75632755Y-47160000D02*
X75632755Y-53016000D01*
X75672755Y-38443000D02*
X75672755Y-44280000D01*
X75672755Y-47160000D02*
X75672755Y-52997000D01*
X75712755Y-38462000D02*
X75712755Y-44280000D01*
X75712755Y-47160000D02*
X75712755Y-52978000D01*
X75752755Y-38482000D02*
X75752755Y-44280000D01*
X75752755Y-47160000D02*
X75752755Y-52958000D01*
X75792755Y-38502000D02*
X75792755Y-44280000D01*
X75792755Y-47160000D02*
X75792755Y-52938000D01*
X75832755Y-38522000D02*
X75832755Y-44280000D01*
X75832755Y-47160000D02*
X75832755Y-52918000D01*
X75872755Y-38542000D02*
X75872755Y-44280000D01*
X75872755Y-47160000D02*
X75872755Y-52898000D01*
X75912755Y-38563000D02*
X75912755Y-44280000D01*
X75912755Y-47160000D02*
X75912755Y-52877000D01*
X75952755Y-38584000D02*
X75952755Y-44280000D01*
X75952755Y-47160000D02*
X75952755Y-52856000D01*
X75992755Y-38605000D02*
X75992755Y-44280000D01*
X75992755Y-47160000D02*
X75992755Y-52835000D01*
X76032755Y-38627000D02*
X76032755Y-44280000D01*
X76032755Y-47160000D02*
X76032755Y-52813000D01*
X76072755Y-38649000D02*
X76072755Y-44280000D01*
X76072755Y-47160000D02*
X76072755Y-52791000D01*
X76112755Y-38671000D02*
X76112755Y-44280000D01*
X76112755Y-47160000D02*
X76112755Y-52769000D01*
X76152755Y-38694000D02*
X76152755Y-44280000D01*
X76152755Y-47160000D02*
X76152755Y-52746000D01*
X76192755Y-38716000D02*
X76192755Y-44280000D01*
X76192755Y-47160000D02*
X76192755Y-52724000D01*
X76232755Y-38739000D02*
X76232755Y-44280000D01*
X76232755Y-47160000D02*
X76232755Y-52701000D01*
X76272755Y-38763000D02*
X76272755Y-44280000D01*
X76272755Y-47160000D02*
X76272755Y-52677000D01*
X76312755Y-38787000D02*
X76312755Y-44280000D01*
X76312755Y-47160000D02*
X76312755Y-52653000D01*
X76352755Y-38811000D02*
X76352755Y-44280000D01*
X76352755Y-47160000D02*
X76352755Y-52629000D01*
X76392755Y-38835000D02*
X76392755Y-44280000D01*
X76392755Y-47160000D02*
X76392755Y-52605000D01*
X76432755Y-38860000D02*
X76432755Y-44280000D01*
X76432755Y-47160000D02*
X76432755Y-52580000D01*
X76472755Y-38885000D02*
X76472755Y-44280000D01*
X76472755Y-47160000D02*
X76472755Y-52555000D01*
X76512755Y-38910000D02*
X76512755Y-44280000D01*
X76512755Y-47160000D02*
X76512755Y-52530000D01*
X76552755Y-38935000D02*
X76552755Y-44280000D01*
X76552755Y-47160000D02*
X76552755Y-52505000D01*
X76592755Y-38961000D02*
X76592755Y-44280000D01*
X76592755Y-47160000D02*
X76592755Y-52479000D01*
X76632755Y-38988000D02*
X76632755Y-44280000D01*
X76632755Y-47160000D02*
X76632755Y-52452000D01*
X76672755Y-39014000D02*
X76672755Y-44280000D01*
X76672755Y-47160000D02*
X76672755Y-52426000D01*
X76712755Y-39041000D02*
X76712755Y-44280000D01*
X76712755Y-47160000D02*
X76712755Y-52399000D01*
X76752755Y-39069000D02*
X76752755Y-44280000D01*
X76752755Y-47160000D02*
X76752755Y-52371000D01*
X76792755Y-39096000D02*
X76792755Y-44280000D01*
X76792755Y-47160000D02*
X76792755Y-52344000D01*
X76832755Y-39124000D02*
X76832755Y-44280000D01*
X76832755Y-47160000D02*
X76832755Y-52316000D01*
X76872755Y-39153000D02*
X76872755Y-44280000D01*
X76872755Y-47160000D02*
X76872755Y-52287000D01*
X76912755Y-39181000D02*
X76912755Y-44280000D01*
X76912755Y-47160000D02*
X76912755Y-52259000D01*
X76952755Y-39211000D02*
X76952755Y-44280000D01*
X76952755Y-47160000D02*
X76952755Y-52229000D01*
X76992755Y-39240000D02*
X76992755Y-44280000D01*
X76992755Y-47160000D02*
X76992755Y-52200000D01*
X77032755Y-39270000D02*
X77032755Y-44280000D01*
X77032755Y-47160000D02*
X77032755Y-52170000D01*
X77072755Y-39300000D02*
X77072755Y-44280000D01*
X77072755Y-47160000D02*
X77072755Y-52140000D01*
X77112755Y-39331000D02*
X77112755Y-44280000D01*
X77112755Y-47160000D02*
X77112755Y-52109000D01*
X77152755Y-39362000D02*
X77152755Y-44280000D01*
X77152755Y-47160000D02*
X77152755Y-52078000D01*
X77192755Y-39393000D02*
X77192755Y-44280000D01*
X77192755Y-47160000D02*
X77192755Y-52047000D01*
X77232755Y-39425000D02*
X77232755Y-44280000D01*
X77232755Y-47160000D02*
X77232755Y-52015000D01*
X77272755Y-39458000D02*
X77272755Y-44280000D01*
X77272755Y-47160000D02*
X77272755Y-51982000D01*
X77312755Y-39490000D02*
X77312755Y-44280000D01*
X77312755Y-47160000D02*
X77312755Y-51950000D01*
X77352755Y-39523000D02*
X77352755Y-51917000D01*
X77392755Y-39557000D02*
X77392755Y-51883000D01*
X77432755Y-39591000D02*
X77432755Y-51849000D01*
X77472755Y-39626000D02*
X77472755Y-51814000D01*
X77512755Y-39660000D02*
X77512755Y-51780000D01*
X77552755Y-39696000D02*
X77552755Y-51744000D01*
X77592755Y-39732000D02*
X77592755Y-51708000D01*
X77632755Y-39768000D02*
X77632755Y-51672000D01*
X77672755Y-39805000D02*
X77672755Y-51635000D01*
X77712755Y-39842000D02*
X77712755Y-51598000D01*
X77752755Y-39880000D02*
X77752755Y-51560000D01*
X77792755Y-39918000D02*
X77792755Y-51522000D01*
X77832755Y-39957000D02*
X77832755Y-51483000D01*
X77872755Y-39997000D02*
X77872755Y-51443000D01*
X77912755Y-40037000D02*
X77912755Y-51403000D01*
X77952755Y-40077000D02*
X77952755Y-51363000D01*
X77992755Y-40118000D02*
X77992755Y-51322000D01*
X78032755Y-40160000D02*
X78032755Y-51280000D01*
X78072755Y-40202000D02*
X78072755Y-51238000D01*
X78112755Y-40245000D02*
X78112755Y-51195000D01*
X78152755Y-40289000D02*
X78152755Y-51151000D01*
X78192755Y-40333000D02*
X78192755Y-51107000D01*
X78232755Y-40378000D02*
X78232755Y-51062000D01*
X78272755Y-40423000D02*
X78272755Y-51017000D01*
X78312755Y-40470000D02*
X78312755Y-50970000D01*
X78352755Y-40516000D02*
X78352755Y-50924000D01*
X78392755Y-40564000D02*
X78392755Y-50876000D01*
X78432755Y-40613000D02*
X78432755Y-50827000D01*
X78472755Y-40662000D02*
X78472755Y-50778000D01*
X78512755Y-40712000D02*
X78512755Y-50728000D01*
X78552755Y-40763000D02*
X78552755Y-50677000D01*
X78592755Y-40814000D02*
X78592755Y-50626000D01*
X78632755Y-40867000D02*
X78632755Y-50573000D01*
X78672755Y-40920000D02*
X78672755Y-50520000D01*
X78712755Y-40975000D02*
X78712755Y-50465000D01*
X78752755Y-41030000D02*
X78752755Y-50410000D01*
X78792755Y-41086000D02*
X78792755Y-50354000D01*
X78832755Y-41144000D02*
X78832755Y-50296000D01*
X78872755Y-41202000D02*
X78872755Y-50238000D01*
X78912755Y-41261000D02*
X78912755Y-50179000D01*
X78952755Y-41322000D02*
X78952755Y-50118000D01*
X78992755Y-41384000D02*
X78992755Y-50056000D01*
X79032755Y-41447000D02*
X79032755Y-49993000D01*
X79072755Y-41512000D02*
X79072755Y-49928000D01*
X79112755Y-41578000D02*
X79112755Y-49862000D01*
X79152755Y-41645000D02*
X79152755Y-49795000D01*
X79192755Y-41714000D02*
X79192755Y-49726000D01*
X79232755Y-41784000D02*
X79232755Y-49656000D01*
X79272755Y-41856000D02*
X79272755Y-49584000D01*
X79312755Y-41930000D02*
X79312755Y-49510000D01*
X79352755Y-42006000D02*
X79352755Y-49434000D01*
X79392755Y-42083000D02*
X79392755Y-49357000D01*
X79432755Y-42163000D02*
X79432755Y-49277000D01*
X79472755Y-42245000D02*
X79472755Y-49195000D01*
X79512755Y-42330000D02*
X79512755Y-49110000D01*
X79552755Y-42417000D02*
X79552755Y-49023000D01*
X79592755Y-42507000D02*
X79592755Y-48933000D01*
X79632755Y-42600000D02*
X79632755Y-48840000D01*
X79672755Y-42697000D02*
X79672755Y-48743000D01*
X79712755Y-42797000D02*
X79712755Y-48643000D01*
X79752755Y-42901000D02*
X79752755Y-48539000D01*
X79792755Y-43010000D02*
X79792755Y-48430000D01*
X79832755Y-43123000D02*
X79832755Y-48317000D01*
X79872755Y-43243000D02*
X79872755Y-48197000D01*
X79912755Y-43369000D02*
X79912755Y-48071000D01*
X79952755Y-43503000D02*
X79952755Y-47937000D01*
X79992755Y-43646000D02*
X79992755Y-47794000D01*
X80032755Y-43800000D02*
X80032755Y-47640000D01*
X80072755Y-43969000D02*
X80072755Y-47471000D01*
X80112755Y-44156000D02*
X80112755Y-47284000D01*
X80152755Y-44369000D02*
X80152755Y-47071000D01*
X80192755Y-44623000D02*
X80192755Y-46817000D01*
X80232755Y-44955000D02*
X80232755Y-46485000D01*
X80272755Y-45720000D02*
G75*
G02*
X64032755Y-45720000I-8120000J0D01*
G01*
X64032755Y-45720000D02*
G75*
G02*
X80272755Y-45720000I8120000J0D01*
G01*
%TO.C,C17*%
X46017600Y-112851000D02*
X46417600Y-112851000D01*
X46217600Y-112651000D02*
X46217600Y-113051000D01*
X48287401Y-111966000D02*
X48287401Y-116126000D01*
X48327401Y-111966000D02*
X48327401Y-116126000D01*
X48367401Y-111968000D02*
X48367401Y-116124000D01*
X48407401Y-111969000D02*
X48407401Y-116123000D01*
X48447401Y-111972000D02*
X48447401Y-116120000D01*
X48487401Y-111975000D02*
X48487401Y-113206000D01*
X48487401Y-114886000D02*
X48487401Y-116117000D01*
X48527401Y-111980000D02*
X48527401Y-113206000D01*
X48527401Y-114886000D02*
X48527401Y-116112000D01*
X48567401Y-111985000D02*
X48567401Y-113206000D01*
X48567401Y-114886000D02*
X48567401Y-116107000D01*
X48607401Y-111990000D02*
X48607401Y-113206000D01*
X48607401Y-114886000D02*
X48607401Y-116102000D01*
X48647401Y-111997000D02*
X48647401Y-113206000D01*
X48647401Y-114886000D02*
X48647401Y-116095000D01*
X48687401Y-112004000D02*
X48687401Y-113206000D01*
X48687401Y-114886000D02*
X48687401Y-116088000D01*
X48727401Y-112012000D02*
X48727401Y-113206000D01*
X48727401Y-114886000D02*
X48727401Y-116080000D01*
X48767401Y-112021000D02*
X48767401Y-113206000D01*
X48767401Y-114886000D02*
X48767401Y-116071000D01*
X48807401Y-112031000D02*
X48807401Y-113206000D01*
X48807401Y-114886000D02*
X48807401Y-116061000D01*
X48847401Y-112041000D02*
X48847401Y-113206000D01*
X48847401Y-114886000D02*
X48847401Y-116051000D01*
X48887401Y-112053000D02*
X48887401Y-113206000D01*
X48887401Y-114886000D02*
X48887401Y-116039000D01*
X48927401Y-112065000D02*
X48927401Y-113206000D01*
X48927401Y-114886000D02*
X48927401Y-116027000D01*
X48967401Y-112078000D02*
X48967401Y-113206000D01*
X48967401Y-114886000D02*
X48967401Y-116014000D01*
X49007401Y-112092000D02*
X49007401Y-113206000D01*
X49007401Y-114886000D02*
X49007401Y-116000000D01*
X49047401Y-112107000D02*
X49047401Y-113206000D01*
X49047401Y-114886000D02*
X49047401Y-115985000D01*
X49087401Y-112123000D02*
X49087401Y-113206000D01*
X49087401Y-114886000D02*
X49087401Y-115969000D01*
X49127401Y-112140000D02*
X49127401Y-113206000D01*
X49127401Y-114886000D02*
X49127401Y-115952000D01*
X49167401Y-112157000D02*
X49167401Y-113206000D01*
X49167401Y-114886000D02*
X49167401Y-115935000D01*
X49207401Y-112176000D02*
X49207401Y-113206000D01*
X49207401Y-114886000D02*
X49207401Y-115916000D01*
X49247401Y-112196000D02*
X49247401Y-113206000D01*
X49247401Y-114886000D02*
X49247401Y-115896000D01*
X49287401Y-112217000D02*
X49287401Y-113206000D01*
X49287401Y-114886000D02*
X49287401Y-115875000D01*
X49327401Y-112239000D02*
X49327401Y-113206000D01*
X49327401Y-114886000D02*
X49327401Y-115853000D01*
X49367401Y-112262000D02*
X49367401Y-113206000D01*
X49367401Y-114886000D02*
X49367401Y-115830000D01*
X49407401Y-112286000D02*
X49407401Y-113206000D01*
X49407401Y-114886000D02*
X49407401Y-115806000D01*
X49447401Y-112312000D02*
X49447401Y-113206000D01*
X49447401Y-114886000D02*
X49447401Y-115780000D01*
X49487401Y-112338000D02*
X49487401Y-113206000D01*
X49487401Y-114886000D02*
X49487401Y-115754000D01*
X49527401Y-112366000D02*
X49527401Y-113206000D01*
X49527401Y-114886000D02*
X49527401Y-115726000D01*
X49567401Y-112396000D02*
X49567401Y-113206000D01*
X49567401Y-114886000D02*
X49567401Y-115696000D01*
X49607401Y-112427000D02*
X49607401Y-113206000D01*
X49607401Y-114886000D02*
X49607401Y-115665000D01*
X49647401Y-112460000D02*
X49647401Y-113206000D01*
X49647401Y-114886000D02*
X49647401Y-115632000D01*
X49687401Y-112494000D02*
X49687401Y-113206000D01*
X49687401Y-114886000D02*
X49687401Y-115598000D01*
X49727401Y-112530000D02*
X49727401Y-113206000D01*
X49727401Y-114886000D02*
X49727401Y-115562000D01*
X49767401Y-112568000D02*
X49767401Y-113206000D01*
X49767401Y-114886000D02*
X49767401Y-115524000D01*
X49807401Y-112608000D02*
X49807401Y-113206000D01*
X49807401Y-114886000D02*
X49807401Y-115484000D01*
X49847401Y-112650000D02*
X49847401Y-113206000D01*
X49847401Y-114886000D02*
X49847401Y-115442000D01*
X49887401Y-112695000D02*
X49887401Y-113206000D01*
X49887401Y-114886000D02*
X49887401Y-115397000D01*
X49927401Y-112743000D02*
X49927401Y-113206000D01*
X49927401Y-114886000D02*
X49927401Y-115349000D01*
X49967401Y-112793000D02*
X49967401Y-113206000D01*
X49967401Y-114886000D02*
X49967401Y-115299000D01*
X50007401Y-112847000D02*
X50007401Y-113206000D01*
X50007401Y-114886000D02*
X50007401Y-115245000D01*
X50047401Y-112904000D02*
X50047401Y-113206000D01*
X50047401Y-114886000D02*
X50047401Y-115188000D01*
X50087401Y-112966000D02*
X50087401Y-113206000D01*
X50087401Y-114886000D02*
X50087401Y-115126000D01*
X50127401Y-113033000D02*
X50127401Y-115059000D01*
X50167401Y-113106000D02*
X50167401Y-114986000D01*
X50207401Y-113187000D02*
X50207401Y-114905000D01*
X50247401Y-113278000D02*
X50247401Y-114814000D01*
X50287401Y-113383000D02*
X50287401Y-114709000D01*
X50327401Y-113509000D02*
X50327401Y-114583000D01*
X50367401Y-113676000D02*
X50367401Y-114416000D01*
X50407401Y-114046000D02*
G75*
G02*
X46167401Y-114046000I-2120000J0D01*
G01*
X46167401Y-114046000D02*
G75*
G02*
X50407401Y-114046000I2120000J0D01*
G01*
%TO.C,C8*%
X27404600Y-112811000D02*
X27804600Y-112811000D01*
X27604600Y-112611000D02*
X27604600Y-113011000D01*
X29674401Y-111926000D02*
X29674401Y-116086000D01*
X29714401Y-111926000D02*
X29714401Y-116086000D01*
X29754401Y-111928000D02*
X29754401Y-116084000D01*
X29794401Y-111929000D02*
X29794401Y-116083000D01*
X29834401Y-111932000D02*
X29834401Y-116080000D01*
X29874401Y-111935000D02*
X29874401Y-113166000D01*
X29874401Y-114846000D02*
X29874401Y-116077000D01*
X29914401Y-111940000D02*
X29914401Y-113166000D01*
X29914401Y-114846000D02*
X29914401Y-116072000D01*
X29954401Y-111945000D02*
X29954401Y-113166000D01*
X29954401Y-114846000D02*
X29954401Y-116067000D01*
X29994401Y-111950000D02*
X29994401Y-113166000D01*
X29994401Y-114846000D02*
X29994401Y-116062000D01*
X30034401Y-111957000D02*
X30034401Y-113166000D01*
X30034401Y-114846000D02*
X30034401Y-116055000D01*
X30074401Y-111964000D02*
X30074401Y-113166000D01*
X30074401Y-114846000D02*
X30074401Y-116048000D01*
X30114401Y-111972000D02*
X30114401Y-113166000D01*
X30114401Y-114846000D02*
X30114401Y-116040000D01*
X30154401Y-111981000D02*
X30154401Y-113166000D01*
X30154401Y-114846000D02*
X30154401Y-116031000D01*
X30194401Y-111991000D02*
X30194401Y-113166000D01*
X30194401Y-114846000D02*
X30194401Y-116021000D01*
X30234401Y-112001000D02*
X30234401Y-113166000D01*
X30234401Y-114846000D02*
X30234401Y-116011000D01*
X30274401Y-112013000D02*
X30274401Y-113166000D01*
X30274401Y-114846000D02*
X30274401Y-115999000D01*
X30314401Y-112025000D02*
X30314401Y-113166000D01*
X30314401Y-114846000D02*
X30314401Y-115987000D01*
X30354401Y-112038000D02*
X30354401Y-113166000D01*
X30354401Y-114846000D02*
X30354401Y-115974000D01*
X30394401Y-112052000D02*
X30394401Y-113166000D01*
X30394401Y-114846000D02*
X30394401Y-115960000D01*
X30434401Y-112067000D02*
X30434401Y-113166000D01*
X30434401Y-114846000D02*
X30434401Y-115945000D01*
X30474401Y-112083000D02*
X30474401Y-113166000D01*
X30474401Y-114846000D02*
X30474401Y-115929000D01*
X30514401Y-112100000D02*
X30514401Y-113166000D01*
X30514401Y-114846000D02*
X30514401Y-115912000D01*
X30554401Y-112117000D02*
X30554401Y-113166000D01*
X30554401Y-114846000D02*
X30554401Y-115895000D01*
X30594401Y-112136000D02*
X30594401Y-113166000D01*
X30594401Y-114846000D02*
X30594401Y-115876000D01*
X30634401Y-112156000D02*
X30634401Y-113166000D01*
X30634401Y-114846000D02*
X30634401Y-115856000D01*
X30674401Y-112177000D02*
X30674401Y-113166000D01*
X30674401Y-114846000D02*
X30674401Y-115835000D01*
X30714401Y-112199000D02*
X30714401Y-113166000D01*
X30714401Y-114846000D02*
X30714401Y-115813000D01*
X30754401Y-112222000D02*
X30754401Y-113166000D01*
X30754401Y-114846000D02*
X30754401Y-115790000D01*
X30794401Y-112246000D02*
X30794401Y-113166000D01*
X30794401Y-114846000D02*
X30794401Y-115766000D01*
X30834401Y-112272000D02*
X30834401Y-113166000D01*
X30834401Y-114846000D02*
X30834401Y-115740000D01*
X30874401Y-112298000D02*
X30874401Y-113166000D01*
X30874401Y-114846000D02*
X30874401Y-115714000D01*
X30914401Y-112326000D02*
X30914401Y-113166000D01*
X30914401Y-114846000D02*
X30914401Y-115686000D01*
X30954401Y-112356000D02*
X30954401Y-113166000D01*
X30954401Y-114846000D02*
X30954401Y-115656000D01*
X30994401Y-112387000D02*
X30994401Y-113166000D01*
X30994401Y-114846000D02*
X30994401Y-115625000D01*
X31034401Y-112420000D02*
X31034401Y-113166000D01*
X31034401Y-114846000D02*
X31034401Y-115592000D01*
X31074401Y-112454000D02*
X31074401Y-113166000D01*
X31074401Y-114846000D02*
X31074401Y-115558000D01*
X31114401Y-112490000D02*
X31114401Y-113166000D01*
X31114401Y-114846000D02*
X31114401Y-115522000D01*
X31154401Y-112528000D02*
X31154401Y-113166000D01*
X31154401Y-114846000D02*
X31154401Y-115484000D01*
X31194401Y-112568000D02*
X31194401Y-113166000D01*
X31194401Y-114846000D02*
X31194401Y-115444000D01*
X31234401Y-112610000D02*
X31234401Y-113166000D01*
X31234401Y-114846000D02*
X31234401Y-115402000D01*
X31274401Y-112655000D02*
X31274401Y-113166000D01*
X31274401Y-114846000D02*
X31274401Y-115357000D01*
X31314401Y-112703000D02*
X31314401Y-113166000D01*
X31314401Y-114846000D02*
X31314401Y-115309000D01*
X31354401Y-112753000D02*
X31354401Y-113166000D01*
X31354401Y-114846000D02*
X31354401Y-115259000D01*
X31394401Y-112807000D02*
X31394401Y-113166000D01*
X31394401Y-114846000D02*
X31394401Y-115205000D01*
X31434401Y-112864000D02*
X31434401Y-113166000D01*
X31434401Y-114846000D02*
X31434401Y-115148000D01*
X31474401Y-112926000D02*
X31474401Y-113166000D01*
X31474401Y-114846000D02*
X31474401Y-115086000D01*
X31514401Y-112993000D02*
X31514401Y-115019000D01*
X31554401Y-113066000D02*
X31554401Y-114946000D01*
X31594401Y-113147000D02*
X31594401Y-114865000D01*
X31634401Y-113238000D02*
X31634401Y-114774000D01*
X31674401Y-113343000D02*
X31674401Y-114669000D01*
X31714401Y-113469000D02*
X31714401Y-114543000D01*
X31754401Y-113636000D02*
X31754401Y-114376000D01*
X31794401Y-114006000D02*
G75*
G02*
X27554401Y-114006000I-2120000J0D01*
G01*
X27554401Y-114006000D02*
G75*
G02*
X31794401Y-114006000I2120000J0D01*
G01*
%TO.C,C9*%
X64305600Y-95833000D02*
X64705600Y-95833000D01*
X64505600Y-95633000D02*
X64505600Y-96033000D01*
X66575401Y-94948000D02*
X66575401Y-99108000D01*
X66615401Y-94948000D02*
X66615401Y-99108000D01*
X66655401Y-94950000D02*
X66655401Y-99106000D01*
X66695401Y-94951000D02*
X66695401Y-99105000D01*
X66735401Y-94954000D02*
X66735401Y-99102000D01*
X66775401Y-94957000D02*
X66775401Y-96188000D01*
X66775401Y-97868000D02*
X66775401Y-99099000D01*
X66815401Y-94962000D02*
X66815401Y-96188000D01*
X66815401Y-97868000D02*
X66815401Y-99094000D01*
X66855401Y-94967000D02*
X66855401Y-96188000D01*
X66855401Y-97868000D02*
X66855401Y-99089000D01*
X66895401Y-94972000D02*
X66895401Y-96188000D01*
X66895401Y-97868000D02*
X66895401Y-99084000D01*
X66935401Y-94979000D02*
X66935401Y-96188000D01*
X66935401Y-97868000D02*
X66935401Y-99077000D01*
X66975401Y-94986000D02*
X66975401Y-96188000D01*
X66975401Y-97868000D02*
X66975401Y-99070000D01*
X67015401Y-94994000D02*
X67015401Y-96188000D01*
X67015401Y-97868000D02*
X67015401Y-99062000D01*
X67055401Y-95003000D02*
X67055401Y-96188000D01*
X67055401Y-97868000D02*
X67055401Y-99053000D01*
X67095401Y-95013000D02*
X67095401Y-96188000D01*
X67095401Y-97868000D02*
X67095401Y-99043000D01*
X67135401Y-95023000D02*
X67135401Y-96188000D01*
X67135401Y-97868000D02*
X67135401Y-99033000D01*
X67175401Y-95035000D02*
X67175401Y-96188000D01*
X67175401Y-97868000D02*
X67175401Y-99021000D01*
X67215401Y-95047000D02*
X67215401Y-96188000D01*
X67215401Y-97868000D02*
X67215401Y-99009000D01*
X67255401Y-95060000D02*
X67255401Y-96188000D01*
X67255401Y-97868000D02*
X67255401Y-98996000D01*
X67295401Y-95074000D02*
X67295401Y-96188000D01*
X67295401Y-97868000D02*
X67295401Y-98982000D01*
X67335401Y-95089000D02*
X67335401Y-96188000D01*
X67335401Y-97868000D02*
X67335401Y-98967000D01*
X67375401Y-95105000D02*
X67375401Y-96188000D01*
X67375401Y-97868000D02*
X67375401Y-98951000D01*
X67415401Y-95122000D02*
X67415401Y-96188000D01*
X67415401Y-97868000D02*
X67415401Y-98934000D01*
X67455401Y-95139000D02*
X67455401Y-96188000D01*
X67455401Y-97868000D02*
X67455401Y-98917000D01*
X67495401Y-95158000D02*
X67495401Y-96188000D01*
X67495401Y-97868000D02*
X67495401Y-98898000D01*
X67535401Y-95178000D02*
X67535401Y-96188000D01*
X67535401Y-97868000D02*
X67535401Y-98878000D01*
X67575401Y-95199000D02*
X67575401Y-96188000D01*
X67575401Y-97868000D02*
X67575401Y-98857000D01*
X67615401Y-95221000D02*
X67615401Y-96188000D01*
X67615401Y-97868000D02*
X67615401Y-98835000D01*
X67655401Y-95244000D02*
X67655401Y-96188000D01*
X67655401Y-97868000D02*
X67655401Y-98812000D01*
X67695401Y-95268000D02*
X67695401Y-96188000D01*
X67695401Y-97868000D02*
X67695401Y-98788000D01*
X67735401Y-95294000D02*
X67735401Y-96188000D01*
X67735401Y-97868000D02*
X67735401Y-98762000D01*
X67775401Y-95320000D02*
X67775401Y-96188000D01*
X67775401Y-97868000D02*
X67775401Y-98736000D01*
X67815401Y-95348000D02*
X67815401Y-96188000D01*
X67815401Y-97868000D02*
X67815401Y-98708000D01*
X67855401Y-95378000D02*
X67855401Y-96188000D01*
X67855401Y-97868000D02*
X67855401Y-98678000D01*
X67895401Y-95409000D02*
X67895401Y-96188000D01*
X67895401Y-97868000D02*
X67895401Y-98647000D01*
X67935401Y-95442000D02*
X67935401Y-96188000D01*
X67935401Y-97868000D02*
X67935401Y-98614000D01*
X67975401Y-95476000D02*
X67975401Y-96188000D01*
X67975401Y-97868000D02*
X67975401Y-98580000D01*
X68015401Y-95512000D02*
X68015401Y-96188000D01*
X68015401Y-97868000D02*
X68015401Y-98544000D01*
X68055401Y-95550000D02*
X68055401Y-96188000D01*
X68055401Y-97868000D02*
X68055401Y-98506000D01*
X68095401Y-95590000D02*
X68095401Y-96188000D01*
X68095401Y-97868000D02*
X68095401Y-98466000D01*
X68135401Y-95632000D02*
X68135401Y-96188000D01*
X68135401Y-97868000D02*
X68135401Y-98424000D01*
X68175401Y-95677000D02*
X68175401Y-96188000D01*
X68175401Y-97868000D02*
X68175401Y-98379000D01*
X68215401Y-95725000D02*
X68215401Y-96188000D01*
X68215401Y-97868000D02*
X68215401Y-98331000D01*
X68255401Y-95775000D02*
X68255401Y-96188000D01*
X68255401Y-97868000D02*
X68255401Y-98281000D01*
X68295401Y-95829000D02*
X68295401Y-96188000D01*
X68295401Y-97868000D02*
X68295401Y-98227000D01*
X68335401Y-95886000D02*
X68335401Y-96188000D01*
X68335401Y-97868000D02*
X68335401Y-98170000D01*
X68375401Y-95948000D02*
X68375401Y-96188000D01*
X68375401Y-97868000D02*
X68375401Y-98108000D01*
X68415401Y-96015000D02*
X68415401Y-98041000D01*
X68455401Y-96088000D02*
X68455401Y-97968000D01*
X68495401Y-96169000D02*
X68495401Y-97887000D01*
X68535401Y-96260000D02*
X68535401Y-97796000D01*
X68575401Y-96365000D02*
X68575401Y-97691000D01*
X68615401Y-96491000D02*
X68615401Y-97565000D01*
X68655401Y-96658000D02*
X68655401Y-97398000D01*
X68695401Y-97028000D02*
G75*
G02*
X64455401Y-97028000I-2120000J0D01*
G01*
X64455401Y-97028000D02*
G75*
G02*
X68695401Y-97028000I2120000J0D01*
G01*
%TO.C,C13*%
X45061755Y-41165000D02*
X46661755Y-41165000D01*
X45861755Y-40365000D02*
X45861755Y-41965000D01*
X53751246Y-37640000D02*
X53751246Y-53800000D01*
X53791246Y-37640000D02*
X53791246Y-53800000D01*
X53831246Y-37640000D02*
X53831246Y-53800000D01*
X53871246Y-37641000D02*
X53871246Y-53799000D01*
X53911246Y-37642000D02*
X53911246Y-53798000D01*
X53951246Y-37642000D02*
X53951246Y-53798000D01*
X53991246Y-37644000D02*
X53991246Y-53796000D01*
X54031246Y-37645000D02*
X54031246Y-53795000D01*
X54071246Y-37646000D02*
X54071246Y-53794000D01*
X54111246Y-37648000D02*
X54111246Y-53792000D01*
X54151246Y-37650000D02*
X54151246Y-53790000D01*
X54191246Y-37652000D02*
X54191246Y-53788000D01*
X54231246Y-37654000D02*
X54231246Y-53786000D01*
X54271246Y-37657000D02*
X54271246Y-53783000D01*
X54311246Y-37659000D02*
X54311246Y-53781000D01*
X54351246Y-37662000D02*
X54351246Y-53778000D01*
X54391246Y-37665000D02*
X54391246Y-53775000D01*
X54431246Y-37669000D02*
X54431246Y-53771000D01*
X54471246Y-37672000D02*
X54471246Y-53768000D01*
X54511246Y-37676000D02*
X54511246Y-53764000D01*
X54551246Y-37680000D02*
X54551246Y-53760000D01*
X54591246Y-37684000D02*
X54591246Y-53756000D01*
X54631246Y-37688000D02*
X54631246Y-53752000D01*
X54671246Y-37692000D02*
X54671246Y-53748000D01*
X54711246Y-37697000D02*
X54711246Y-53743000D01*
X54751246Y-37702000D02*
X54751246Y-53738000D01*
X54791246Y-37707000D02*
X54791246Y-53733000D01*
X54831246Y-37712000D02*
X54831246Y-53728000D01*
X54871246Y-37718000D02*
X54871246Y-53722000D01*
X54911246Y-37723000D02*
X54911246Y-53717000D01*
X54951246Y-37729000D02*
X54951246Y-53711000D01*
X54991246Y-37735000D02*
X54991246Y-53705000D01*
X55031246Y-37742000D02*
X55031246Y-53698000D01*
X55071246Y-37748000D02*
X55071246Y-53692000D01*
X55111246Y-37755000D02*
X55111246Y-53685000D01*
X55151246Y-37762000D02*
X55151246Y-53678000D01*
X55191246Y-37769000D02*
X55191246Y-53671000D01*
X55231246Y-37776000D02*
X55231246Y-53664000D01*
X55271246Y-37784000D02*
X55271246Y-53656000D01*
X55311246Y-37791000D02*
X55311246Y-53649000D01*
X55351246Y-37799000D02*
X55351246Y-53641000D01*
X55391246Y-37807000D02*
X55391246Y-53633000D01*
X55431246Y-37816000D02*
X55431246Y-53624000D01*
X55471246Y-37824000D02*
X55471246Y-53616000D01*
X55511246Y-37833000D02*
X55511246Y-53607000D01*
X55551246Y-37842000D02*
X55551246Y-53598000D01*
X55591246Y-37851000D02*
X55591246Y-53589000D01*
X55631246Y-37861000D02*
X55631246Y-53579000D01*
X55671246Y-37870000D02*
X55671246Y-53570000D01*
X55711246Y-37880000D02*
X55711246Y-53560000D01*
X55751246Y-37890000D02*
X55751246Y-53550000D01*
X55791246Y-37900000D02*
X55791246Y-53540000D01*
X55831246Y-37911000D02*
X55831246Y-53529000D01*
X55871246Y-37922000D02*
X55871246Y-53518000D01*
X55911246Y-37933000D02*
X55911246Y-53507000D01*
X55951246Y-37944000D02*
X55951246Y-53496000D01*
X55991246Y-37955000D02*
X55991246Y-53485000D01*
X56031246Y-37967000D02*
X56031246Y-53473000D01*
X56071246Y-37978000D02*
X56071246Y-44280000D01*
X56071246Y-47160000D02*
X56071246Y-53462000D01*
X56111246Y-37991000D02*
X56111246Y-44280000D01*
X56111246Y-47160000D02*
X56111246Y-53449000D01*
X56151246Y-38003000D02*
X56151246Y-44280000D01*
X56151246Y-47160000D02*
X56151246Y-53437000D01*
X56191246Y-38015000D02*
X56191246Y-44280000D01*
X56191246Y-47160000D02*
X56191246Y-53425000D01*
X56231246Y-38028000D02*
X56231246Y-44280000D01*
X56231246Y-47160000D02*
X56231246Y-53412000D01*
X56271246Y-38041000D02*
X56271246Y-44280000D01*
X56271246Y-47160000D02*
X56271246Y-53399000D01*
X56311246Y-38054000D02*
X56311246Y-44280000D01*
X56311246Y-47160000D02*
X56311246Y-53386000D01*
X56351246Y-38068000D02*
X56351246Y-44280000D01*
X56351246Y-47160000D02*
X56351246Y-53372000D01*
X56391246Y-38081000D02*
X56391246Y-44280000D01*
X56391246Y-47160000D02*
X56391246Y-53359000D01*
X56431246Y-38095000D02*
X56431246Y-44280000D01*
X56431246Y-47160000D02*
X56431246Y-53345000D01*
X56471246Y-38109000D02*
X56471246Y-44280000D01*
X56471246Y-47160000D02*
X56471246Y-53331000D01*
X56511246Y-38123000D02*
X56511246Y-44280000D01*
X56511246Y-47160000D02*
X56511246Y-53317000D01*
X56551246Y-38138000D02*
X56551246Y-44280000D01*
X56551246Y-47160000D02*
X56551246Y-53302000D01*
X56591246Y-38153000D02*
X56591246Y-44280000D01*
X56591246Y-47160000D02*
X56591246Y-53287000D01*
X56631246Y-38168000D02*
X56631246Y-44280000D01*
X56631246Y-47160000D02*
X56631246Y-53272000D01*
X56671246Y-38183000D02*
X56671246Y-44280000D01*
X56671246Y-47160000D02*
X56671246Y-53257000D01*
X56711246Y-38199000D02*
X56711246Y-44280000D01*
X56711246Y-47160000D02*
X56711246Y-53241000D01*
X56751246Y-38215000D02*
X56751246Y-44280000D01*
X56751246Y-47160000D02*
X56751246Y-53225000D01*
X56791246Y-38231000D02*
X56791246Y-44280000D01*
X56791246Y-47160000D02*
X56791246Y-53209000D01*
X56831246Y-38247000D02*
X56831246Y-44280000D01*
X56831246Y-47160000D02*
X56831246Y-53193000D01*
X56871246Y-38263000D02*
X56871246Y-44280000D01*
X56871246Y-47160000D02*
X56871246Y-53177000D01*
X56911246Y-38280000D02*
X56911246Y-44280000D01*
X56911246Y-47160000D02*
X56911246Y-53160000D01*
X56951246Y-38297000D02*
X56951246Y-44280000D01*
X56951246Y-47160000D02*
X56951246Y-53143000D01*
X56991246Y-38314000D02*
X56991246Y-44280000D01*
X56991246Y-47160000D02*
X56991246Y-53126000D01*
X57031246Y-38332000D02*
X57031246Y-44280000D01*
X57031246Y-47160000D02*
X57031246Y-53108000D01*
X57071246Y-38350000D02*
X57071246Y-44280000D01*
X57071246Y-47160000D02*
X57071246Y-53090000D01*
X57111246Y-38368000D02*
X57111246Y-44280000D01*
X57111246Y-47160000D02*
X57111246Y-53072000D01*
X57151246Y-38386000D02*
X57151246Y-44280000D01*
X57151246Y-47160000D02*
X57151246Y-53054000D01*
X57191246Y-38405000D02*
X57191246Y-44280000D01*
X57191246Y-47160000D02*
X57191246Y-53035000D01*
X57231246Y-38424000D02*
X57231246Y-44280000D01*
X57231246Y-47160000D02*
X57231246Y-53016000D01*
X57271246Y-38443000D02*
X57271246Y-44280000D01*
X57271246Y-47160000D02*
X57271246Y-52997000D01*
X57311246Y-38462000D02*
X57311246Y-44280000D01*
X57311246Y-47160000D02*
X57311246Y-52978000D01*
X57351246Y-38482000D02*
X57351246Y-44280000D01*
X57351246Y-47160000D02*
X57351246Y-52958000D01*
X57391246Y-38502000D02*
X57391246Y-44280000D01*
X57391246Y-47160000D02*
X57391246Y-52938000D01*
X57431246Y-38522000D02*
X57431246Y-44280000D01*
X57431246Y-47160000D02*
X57431246Y-52918000D01*
X57471246Y-38542000D02*
X57471246Y-44280000D01*
X57471246Y-47160000D02*
X57471246Y-52898000D01*
X57511246Y-38563000D02*
X57511246Y-44280000D01*
X57511246Y-47160000D02*
X57511246Y-52877000D01*
X57551246Y-38584000D02*
X57551246Y-44280000D01*
X57551246Y-47160000D02*
X57551246Y-52856000D01*
X57591246Y-38605000D02*
X57591246Y-44280000D01*
X57591246Y-47160000D02*
X57591246Y-52835000D01*
X57631246Y-38627000D02*
X57631246Y-44280000D01*
X57631246Y-47160000D02*
X57631246Y-52813000D01*
X57671246Y-38649000D02*
X57671246Y-44280000D01*
X57671246Y-47160000D02*
X57671246Y-52791000D01*
X57711246Y-38671000D02*
X57711246Y-44280000D01*
X57711246Y-47160000D02*
X57711246Y-52769000D01*
X57751246Y-38694000D02*
X57751246Y-44280000D01*
X57751246Y-47160000D02*
X57751246Y-52746000D01*
X57791246Y-38716000D02*
X57791246Y-44280000D01*
X57791246Y-47160000D02*
X57791246Y-52724000D01*
X57831246Y-38739000D02*
X57831246Y-44280000D01*
X57831246Y-47160000D02*
X57831246Y-52701000D01*
X57871246Y-38763000D02*
X57871246Y-44280000D01*
X57871246Y-47160000D02*
X57871246Y-52677000D01*
X57911246Y-38787000D02*
X57911246Y-44280000D01*
X57911246Y-47160000D02*
X57911246Y-52653000D01*
X57951246Y-38811000D02*
X57951246Y-44280000D01*
X57951246Y-47160000D02*
X57951246Y-52629000D01*
X57991246Y-38835000D02*
X57991246Y-44280000D01*
X57991246Y-47160000D02*
X57991246Y-52605000D01*
X58031246Y-38860000D02*
X58031246Y-44280000D01*
X58031246Y-47160000D02*
X58031246Y-52580000D01*
X58071246Y-38885000D02*
X58071246Y-44280000D01*
X58071246Y-47160000D02*
X58071246Y-52555000D01*
X58111246Y-38910000D02*
X58111246Y-44280000D01*
X58111246Y-47160000D02*
X58111246Y-52530000D01*
X58151246Y-38935000D02*
X58151246Y-44280000D01*
X58151246Y-47160000D02*
X58151246Y-52505000D01*
X58191246Y-38961000D02*
X58191246Y-44280000D01*
X58191246Y-47160000D02*
X58191246Y-52479000D01*
X58231246Y-38988000D02*
X58231246Y-44280000D01*
X58231246Y-47160000D02*
X58231246Y-52452000D01*
X58271246Y-39014000D02*
X58271246Y-44280000D01*
X58271246Y-47160000D02*
X58271246Y-52426000D01*
X58311246Y-39041000D02*
X58311246Y-44280000D01*
X58311246Y-47160000D02*
X58311246Y-52399000D01*
X58351246Y-39069000D02*
X58351246Y-44280000D01*
X58351246Y-47160000D02*
X58351246Y-52371000D01*
X58391246Y-39096000D02*
X58391246Y-44280000D01*
X58391246Y-47160000D02*
X58391246Y-52344000D01*
X58431246Y-39124000D02*
X58431246Y-44280000D01*
X58431246Y-47160000D02*
X58431246Y-52316000D01*
X58471246Y-39153000D02*
X58471246Y-44280000D01*
X58471246Y-47160000D02*
X58471246Y-52287000D01*
X58511246Y-39181000D02*
X58511246Y-44280000D01*
X58511246Y-47160000D02*
X58511246Y-52259000D01*
X58551246Y-39211000D02*
X58551246Y-44280000D01*
X58551246Y-47160000D02*
X58551246Y-52229000D01*
X58591246Y-39240000D02*
X58591246Y-44280000D01*
X58591246Y-47160000D02*
X58591246Y-52200000D01*
X58631246Y-39270000D02*
X58631246Y-44280000D01*
X58631246Y-47160000D02*
X58631246Y-52170000D01*
X58671246Y-39300000D02*
X58671246Y-44280000D01*
X58671246Y-47160000D02*
X58671246Y-52140000D01*
X58711246Y-39331000D02*
X58711246Y-44280000D01*
X58711246Y-47160000D02*
X58711246Y-52109000D01*
X58751246Y-39362000D02*
X58751246Y-44280000D01*
X58751246Y-47160000D02*
X58751246Y-52078000D01*
X58791246Y-39393000D02*
X58791246Y-44280000D01*
X58791246Y-47160000D02*
X58791246Y-52047000D01*
X58831246Y-39425000D02*
X58831246Y-44280000D01*
X58831246Y-47160000D02*
X58831246Y-52015000D01*
X58871246Y-39458000D02*
X58871246Y-44280000D01*
X58871246Y-47160000D02*
X58871246Y-51982000D01*
X58911246Y-39490000D02*
X58911246Y-44280000D01*
X58911246Y-47160000D02*
X58911246Y-51950000D01*
X58951246Y-39523000D02*
X58951246Y-51917000D01*
X58991246Y-39557000D02*
X58991246Y-51883000D01*
X59031246Y-39591000D02*
X59031246Y-51849000D01*
X59071246Y-39626000D02*
X59071246Y-51814000D01*
X59111246Y-39660000D02*
X59111246Y-51780000D01*
X59151246Y-39696000D02*
X59151246Y-51744000D01*
X59191246Y-39732000D02*
X59191246Y-51708000D01*
X59231246Y-39768000D02*
X59231246Y-51672000D01*
X59271246Y-39805000D02*
X59271246Y-51635000D01*
X59311246Y-39842000D02*
X59311246Y-51598000D01*
X59351246Y-39880000D02*
X59351246Y-51560000D01*
X59391246Y-39918000D02*
X59391246Y-51522000D01*
X59431246Y-39957000D02*
X59431246Y-51483000D01*
X59471246Y-39997000D02*
X59471246Y-51443000D01*
X59511246Y-40037000D02*
X59511246Y-51403000D01*
X59551246Y-40077000D02*
X59551246Y-51363000D01*
X59591246Y-40118000D02*
X59591246Y-51322000D01*
X59631246Y-40160000D02*
X59631246Y-51280000D01*
X59671246Y-40202000D02*
X59671246Y-51238000D01*
X59711246Y-40245000D02*
X59711246Y-51195000D01*
X59751246Y-40289000D02*
X59751246Y-51151000D01*
X59791246Y-40333000D02*
X59791246Y-51107000D01*
X59831246Y-40378000D02*
X59831246Y-51062000D01*
X59871246Y-40423000D02*
X59871246Y-51017000D01*
X59911246Y-40470000D02*
X59911246Y-50970000D01*
X59951246Y-40516000D02*
X59951246Y-50924000D01*
X59991246Y-40564000D02*
X59991246Y-50876000D01*
X60031246Y-40613000D02*
X60031246Y-50827000D01*
X60071246Y-40662000D02*
X60071246Y-50778000D01*
X60111246Y-40712000D02*
X60111246Y-50728000D01*
X60151246Y-40763000D02*
X60151246Y-50677000D01*
X60191246Y-40814000D02*
X60191246Y-50626000D01*
X60231246Y-40867000D02*
X60231246Y-50573000D01*
X60271246Y-40920000D02*
X60271246Y-50520000D01*
X60311246Y-40975000D02*
X60311246Y-50465000D01*
X60351246Y-41030000D02*
X60351246Y-50410000D01*
X60391246Y-41086000D02*
X60391246Y-50354000D01*
X60431246Y-41144000D02*
X60431246Y-50296000D01*
X60471246Y-41202000D02*
X60471246Y-50238000D01*
X60511246Y-41261000D02*
X60511246Y-50179000D01*
X60551246Y-41322000D02*
X60551246Y-50118000D01*
X60591246Y-41384000D02*
X60591246Y-50056000D01*
X60631246Y-41447000D02*
X60631246Y-49993000D01*
X60671246Y-41512000D02*
X60671246Y-49928000D01*
X60711246Y-41578000D02*
X60711246Y-49862000D01*
X60751246Y-41645000D02*
X60751246Y-49795000D01*
X60791246Y-41714000D02*
X60791246Y-49726000D01*
X60831246Y-41784000D02*
X60831246Y-49656000D01*
X60871246Y-41856000D02*
X60871246Y-49584000D01*
X60911246Y-41930000D02*
X60911246Y-49510000D01*
X60951246Y-42006000D02*
X60951246Y-49434000D01*
X60991246Y-42083000D02*
X60991246Y-49357000D01*
X61031246Y-42163000D02*
X61031246Y-49277000D01*
X61071246Y-42245000D02*
X61071246Y-49195000D01*
X61111246Y-42330000D02*
X61111246Y-49110000D01*
X61151246Y-42417000D02*
X61151246Y-49023000D01*
X61191246Y-42507000D02*
X61191246Y-48933000D01*
X61231246Y-42600000D02*
X61231246Y-48840000D01*
X61271246Y-42697000D02*
X61271246Y-48743000D01*
X61311246Y-42797000D02*
X61311246Y-48643000D01*
X61351246Y-42901000D02*
X61351246Y-48539000D01*
X61391246Y-43010000D02*
X61391246Y-48430000D01*
X61431246Y-43123000D02*
X61431246Y-48317000D01*
X61471246Y-43243000D02*
X61471246Y-48197000D01*
X61511246Y-43369000D02*
X61511246Y-48071000D01*
X61551246Y-43503000D02*
X61551246Y-47937000D01*
X61591246Y-43646000D02*
X61591246Y-47794000D01*
X61631246Y-43800000D02*
X61631246Y-47640000D01*
X61671246Y-43969000D02*
X61671246Y-47471000D01*
X61711246Y-44156000D02*
X61711246Y-47284000D01*
X61751246Y-44369000D02*
X61751246Y-47071000D01*
X61791246Y-44623000D02*
X61791246Y-46817000D01*
X61831246Y-44955000D02*
X61831246Y-46485000D01*
X61871246Y-45720000D02*
G75*
G02*
X45631246Y-45720000I-8120000J0D01*
G01*
X45631246Y-45720000D02*
G75*
G02*
X61871246Y-45720000I8120000J0D01*
G01*
%TO.C,D1*%
X32820000Y-25220000D02*
X32820000Y-30660000D01*
X32820000Y-29640000D02*
X35760000Y-29640000D01*
X32820000Y-29760000D02*
X35760000Y-29760000D01*
X32820000Y-29880000D02*
X35760000Y-29880000D01*
X32820000Y-30660000D02*
X35760000Y-30660000D01*
X34290000Y-24200000D02*
X34290000Y-25220000D01*
X34290000Y-31680000D02*
X34290000Y-30660000D01*
X35760000Y-25220000D02*
X32820000Y-25220000D01*
X35760000Y-30660000D02*
X35760000Y-25220000D01*
%TO.C,C4*%
X63583264Y-79265000D02*
X65183264Y-79265000D01*
X64383264Y-78465000D02*
X64383264Y-80065000D01*
X72272755Y-75740000D02*
X72272755Y-91900000D01*
X72312755Y-75740000D02*
X72312755Y-91900000D01*
X72352755Y-75740000D02*
X72352755Y-91900000D01*
X72392755Y-75741000D02*
X72392755Y-91899000D01*
X72432755Y-75742000D02*
X72432755Y-91898000D01*
X72472755Y-75742000D02*
X72472755Y-91898000D01*
X72512755Y-75744000D02*
X72512755Y-91896000D01*
X72552755Y-75745000D02*
X72552755Y-91895000D01*
X72592755Y-75746000D02*
X72592755Y-91894000D01*
X72632755Y-75748000D02*
X72632755Y-91892000D01*
X72672755Y-75750000D02*
X72672755Y-91890000D01*
X72712755Y-75752000D02*
X72712755Y-91888000D01*
X72752755Y-75754000D02*
X72752755Y-91886000D01*
X72792755Y-75757000D02*
X72792755Y-91883000D01*
X72832755Y-75759000D02*
X72832755Y-91881000D01*
X72872755Y-75762000D02*
X72872755Y-91878000D01*
X72912755Y-75765000D02*
X72912755Y-91875000D01*
X72952755Y-75769000D02*
X72952755Y-91871000D01*
X72992755Y-75772000D02*
X72992755Y-91868000D01*
X73032755Y-75776000D02*
X73032755Y-91864000D01*
X73072755Y-75780000D02*
X73072755Y-91860000D01*
X73112755Y-75784000D02*
X73112755Y-91856000D01*
X73152755Y-75788000D02*
X73152755Y-91852000D01*
X73192755Y-75792000D02*
X73192755Y-91848000D01*
X73232755Y-75797000D02*
X73232755Y-91843000D01*
X73272755Y-75802000D02*
X73272755Y-91838000D01*
X73312755Y-75807000D02*
X73312755Y-91833000D01*
X73352755Y-75812000D02*
X73352755Y-91828000D01*
X73392755Y-75818000D02*
X73392755Y-91822000D01*
X73432755Y-75823000D02*
X73432755Y-91817000D01*
X73472755Y-75829000D02*
X73472755Y-91811000D01*
X73512755Y-75835000D02*
X73512755Y-91805000D01*
X73552755Y-75842000D02*
X73552755Y-91798000D01*
X73592755Y-75848000D02*
X73592755Y-91792000D01*
X73632755Y-75855000D02*
X73632755Y-91785000D01*
X73672755Y-75862000D02*
X73672755Y-91778000D01*
X73712755Y-75869000D02*
X73712755Y-91771000D01*
X73752755Y-75876000D02*
X73752755Y-91764000D01*
X73792755Y-75884000D02*
X73792755Y-91756000D01*
X73832755Y-75891000D02*
X73832755Y-91749000D01*
X73872755Y-75899000D02*
X73872755Y-91741000D01*
X73912755Y-75907000D02*
X73912755Y-91733000D01*
X73952755Y-75916000D02*
X73952755Y-91724000D01*
X73992755Y-75924000D02*
X73992755Y-91716000D01*
X74032755Y-75933000D02*
X74032755Y-91707000D01*
X74072755Y-75942000D02*
X74072755Y-91698000D01*
X74112755Y-75951000D02*
X74112755Y-91689000D01*
X74152755Y-75961000D02*
X74152755Y-91679000D01*
X74192755Y-75970000D02*
X74192755Y-91670000D01*
X74232755Y-75980000D02*
X74232755Y-91660000D01*
X74272755Y-75990000D02*
X74272755Y-91650000D01*
X74312755Y-76000000D02*
X74312755Y-91640000D01*
X74352755Y-76011000D02*
X74352755Y-91629000D01*
X74392755Y-76022000D02*
X74392755Y-91618000D01*
X74432755Y-76033000D02*
X74432755Y-91607000D01*
X74472755Y-76044000D02*
X74472755Y-91596000D01*
X74512755Y-76055000D02*
X74512755Y-91585000D01*
X74552755Y-76067000D02*
X74552755Y-91573000D01*
X74592755Y-76078000D02*
X74592755Y-82380000D01*
X74592755Y-85260000D02*
X74592755Y-91562000D01*
X74632755Y-76091000D02*
X74632755Y-82380000D01*
X74632755Y-85260000D02*
X74632755Y-91549000D01*
X74672755Y-76103000D02*
X74672755Y-82380000D01*
X74672755Y-85260000D02*
X74672755Y-91537000D01*
X74712755Y-76115000D02*
X74712755Y-82380000D01*
X74712755Y-85260000D02*
X74712755Y-91525000D01*
X74752755Y-76128000D02*
X74752755Y-82380000D01*
X74752755Y-85260000D02*
X74752755Y-91512000D01*
X74792755Y-76141000D02*
X74792755Y-82380000D01*
X74792755Y-85260000D02*
X74792755Y-91499000D01*
X74832755Y-76154000D02*
X74832755Y-82380000D01*
X74832755Y-85260000D02*
X74832755Y-91486000D01*
X74872755Y-76168000D02*
X74872755Y-82380000D01*
X74872755Y-85260000D02*
X74872755Y-91472000D01*
X74912755Y-76181000D02*
X74912755Y-82380000D01*
X74912755Y-85260000D02*
X74912755Y-91459000D01*
X74952755Y-76195000D02*
X74952755Y-82380000D01*
X74952755Y-85260000D02*
X74952755Y-91445000D01*
X74992755Y-76209000D02*
X74992755Y-82380000D01*
X74992755Y-85260000D02*
X74992755Y-91431000D01*
X75032755Y-76223000D02*
X75032755Y-82380000D01*
X75032755Y-85260000D02*
X75032755Y-91417000D01*
X75072755Y-76238000D02*
X75072755Y-82380000D01*
X75072755Y-85260000D02*
X75072755Y-91402000D01*
X75112755Y-76253000D02*
X75112755Y-82380000D01*
X75112755Y-85260000D02*
X75112755Y-91387000D01*
X75152755Y-76268000D02*
X75152755Y-82380000D01*
X75152755Y-85260000D02*
X75152755Y-91372000D01*
X75192755Y-76283000D02*
X75192755Y-82380000D01*
X75192755Y-85260000D02*
X75192755Y-91357000D01*
X75232755Y-76299000D02*
X75232755Y-82380000D01*
X75232755Y-85260000D02*
X75232755Y-91341000D01*
X75272755Y-76315000D02*
X75272755Y-82380000D01*
X75272755Y-85260000D02*
X75272755Y-91325000D01*
X75312755Y-76331000D02*
X75312755Y-82380000D01*
X75312755Y-85260000D02*
X75312755Y-91309000D01*
X75352755Y-76347000D02*
X75352755Y-82380000D01*
X75352755Y-85260000D02*
X75352755Y-91293000D01*
X75392755Y-76363000D02*
X75392755Y-82380000D01*
X75392755Y-85260000D02*
X75392755Y-91277000D01*
X75432755Y-76380000D02*
X75432755Y-82380000D01*
X75432755Y-85260000D02*
X75432755Y-91260000D01*
X75472755Y-76397000D02*
X75472755Y-82380000D01*
X75472755Y-85260000D02*
X75472755Y-91243000D01*
X75512755Y-76414000D02*
X75512755Y-82380000D01*
X75512755Y-85260000D02*
X75512755Y-91226000D01*
X75552755Y-76432000D02*
X75552755Y-82380000D01*
X75552755Y-85260000D02*
X75552755Y-91208000D01*
X75592755Y-76450000D02*
X75592755Y-82380000D01*
X75592755Y-85260000D02*
X75592755Y-91190000D01*
X75632755Y-76468000D02*
X75632755Y-82380000D01*
X75632755Y-85260000D02*
X75632755Y-91172000D01*
X75672755Y-76486000D02*
X75672755Y-82380000D01*
X75672755Y-85260000D02*
X75672755Y-91154000D01*
X75712755Y-76505000D02*
X75712755Y-82380000D01*
X75712755Y-85260000D02*
X75712755Y-91135000D01*
X75752755Y-76524000D02*
X75752755Y-82380000D01*
X75752755Y-85260000D02*
X75752755Y-91116000D01*
X75792755Y-76543000D02*
X75792755Y-82380000D01*
X75792755Y-85260000D02*
X75792755Y-91097000D01*
X75832755Y-76562000D02*
X75832755Y-82380000D01*
X75832755Y-85260000D02*
X75832755Y-91078000D01*
X75872755Y-76582000D02*
X75872755Y-82380000D01*
X75872755Y-85260000D02*
X75872755Y-91058000D01*
X75912755Y-76602000D02*
X75912755Y-82380000D01*
X75912755Y-85260000D02*
X75912755Y-91038000D01*
X75952755Y-76622000D02*
X75952755Y-82380000D01*
X75952755Y-85260000D02*
X75952755Y-91018000D01*
X75992755Y-76642000D02*
X75992755Y-82380000D01*
X75992755Y-85260000D02*
X75992755Y-90998000D01*
X76032755Y-76663000D02*
X76032755Y-82380000D01*
X76032755Y-85260000D02*
X76032755Y-90977000D01*
X76072755Y-76684000D02*
X76072755Y-82380000D01*
X76072755Y-85260000D02*
X76072755Y-90956000D01*
X76112755Y-76705000D02*
X76112755Y-82380000D01*
X76112755Y-85260000D02*
X76112755Y-90935000D01*
X76152755Y-76727000D02*
X76152755Y-82380000D01*
X76152755Y-85260000D02*
X76152755Y-90913000D01*
X76192755Y-76749000D02*
X76192755Y-82380000D01*
X76192755Y-85260000D02*
X76192755Y-90891000D01*
X76232755Y-76771000D02*
X76232755Y-82380000D01*
X76232755Y-85260000D02*
X76232755Y-90869000D01*
X76272755Y-76794000D02*
X76272755Y-82380000D01*
X76272755Y-85260000D02*
X76272755Y-90846000D01*
X76312755Y-76816000D02*
X76312755Y-82380000D01*
X76312755Y-85260000D02*
X76312755Y-90824000D01*
X76352755Y-76839000D02*
X76352755Y-82380000D01*
X76352755Y-85260000D02*
X76352755Y-90801000D01*
X76392755Y-76863000D02*
X76392755Y-82380000D01*
X76392755Y-85260000D02*
X76392755Y-90777000D01*
X76432755Y-76887000D02*
X76432755Y-82380000D01*
X76432755Y-85260000D02*
X76432755Y-90753000D01*
X76472755Y-76911000D02*
X76472755Y-82380000D01*
X76472755Y-85260000D02*
X76472755Y-90729000D01*
X76512755Y-76935000D02*
X76512755Y-82380000D01*
X76512755Y-85260000D02*
X76512755Y-90705000D01*
X76552755Y-76960000D02*
X76552755Y-82380000D01*
X76552755Y-85260000D02*
X76552755Y-90680000D01*
X76592755Y-76985000D02*
X76592755Y-82380000D01*
X76592755Y-85260000D02*
X76592755Y-90655000D01*
X76632755Y-77010000D02*
X76632755Y-82380000D01*
X76632755Y-85260000D02*
X76632755Y-90630000D01*
X76672755Y-77035000D02*
X76672755Y-82380000D01*
X76672755Y-85260000D02*
X76672755Y-90605000D01*
X76712755Y-77061000D02*
X76712755Y-82380000D01*
X76712755Y-85260000D02*
X76712755Y-90579000D01*
X76752755Y-77088000D02*
X76752755Y-82380000D01*
X76752755Y-85260000D02*
X76752755Y-90552000D01*
X76792755Y-77114000D02*
X76792755Y-82380000D01*
X76792755Y-85260000D02*
X76792755Y-90526000D01*
X76832755Y-77141000D02*
X76832755Y-82380000D01*
X76832755Y-85260000D02*
X76832755Y-90499000D01*
X76872755Y-77169000D02*
X76872755Y-82380000D01*
X76872755Y-85260000D02*
X76872755Y-90471000D01*
X76912755Y-77196000D02*
X76912755Y-82380000D01*
X76912755Y-85260000D02*
X76912755Y-90444000D01*
X76952755Y-77224000D02*
X76952755Y-82380000D01*
X76952755Y-85260000D02*
X76952755Y-90416000D01*
X76992755Y-77253000D02*
X76992755Y-82380000D01*
X76992755Y-85260000D02*
X76992755Y-90387000D01*
X77032755Y-77281000D02*
X77032755Y-82380000D01*
X77032755Y-85260000D02*
X77032755Y-90359000D01*
X77072755Y-77311000D02*
X77072755Y-82380000D01*
X77072755Y-85260000D02*
X77072755Y-90329000D01*
X77112755Y-77340000D02*
X77112755Y-82380000D01*
X77112755Y-85260000D02*
X77112755Y-90300000D01*
X77152755Y-77370000D02*
X77152755Y-82380000D01*
X77152755Y-85260000D02*
X77152755Y-90270000D01*
X77192755Y-77400000D02*
X77192755Y-82380000D01*
X77192755Y-85260000D02*
X77192755Y-90240000D01*
X77232755Y-77431000D02*
X77232755Y-82380000D01*
X77232755Y-85260000D02*
X77232755Y-90209000D01*
X77272755Y-77462000D02*
X77272755Y-82380000D01*
X77272755Y-85260000D02*
X77272755Y-90178000D01*
X77312755Y-77493000D02*
X77312755Y-82380000D01*
X77312755Y-85260000D02*
X77312755Y-90147000D01*
X77352755Y-77525000D02*
X77352755Y-82380000D01*
X77352755Y-85260000D02*
X77352755Y-90115000D01*
X77392755Y-77558000D02*
X77392755Y-82380000D01*
X77392755Y-85260000D02*
X77392755Y-90082000D01*
X77432755Y-77590000D02*
X77432755Y-82380000D01*
X77432755Y-85260000D02*
X77432755Y-90050000D01*
X77472755Y-77623000D02*
X77472755Y-90017000D01*
X77512755Y-77657000D02*
X77512755Y-89983000D01*
X77552755Y-77691000D02*
X77552755Y-89949000D01*
X77592755Y-77726000D02*
X77592755Y-89914000D01*
X77632755Y-77760000D02*
X77632755Y-89880000D01*
X77672755Y-77796000D02*
X77672755Y-89844000D01*
X77712755Y-77832000D02*
X77712755Y-89808000D01*
X77752755Y-77868000D02*
X77752755Y-89772000D01*
X77792755Y-77905000D02*
X77792755Y-89735000D01*
X77832755Y-77942000D02*
X77832755Y-89698000D01*
X77872755Y-77980000D02*
X77872755Y-89660000D01*
X77912755Y-78018000D02*
X77912755Y-89622000D01*
X77952755Y-78057000D02*
X77952755Y-89583000D01*
X77992755Y-78097000D02*
X77992755Y-89543000D01*
X78032755Y-78137000D02*
X78032755Y-89503000D01*
X78072755Y-78177000D02*
X78072755Y-89463000D01*
X78112755Y-78218000D02*
X78112755Y-89422000D01*
X78152755Y-78260000D02*
X78152755Y-89380000D01*
X78192755Y-78302000D02*
X78192755Y-89338000D01*
X78232755Y-78345000D02*
X78232755Y-89295000D01*
X78272755Y-78389000D02*
X78272755Y-89251000D01*
X78312755Y-78433000D02*
X78312755Y-89207000D01*
X78352755Y-78478000D02*
X78352755Y-89162000D01*
X78392755Y-78523000D02*
X78392755Y-89117000D01*
X78432755Y-78570000D02*
X78432755Y-89070000D01*
X78472755Y-78616000D02*
X78472755Y-89024000D01*
X78512755Y-78664000D02*
X78512755Y-88976000D01*
X78552755Y-78713000D02*
X78552755Y-88927000D01*
X78592755Y-78762000D02*
X78592755Y-88878000D01*
X78632755Y-78812000D02*
X78632755Y-88828000D01*
X78672755Y-78863000D02*
X78672755Y-88777000D01*
X78712755Y-78914000D02*
X78712755Y-88726000D01*
X78752755Y-78967000D02*
X78752755Y-88673000D01*
X78792755Y-79020000D02*
X78792755Y-88620000D01*
X78832755Y-79075000D02*
X78832755Y-88565000D01*
X78872755Y-79130000D02*
X78872755Y-88510000D01*
X78912755Y-79186000D02*
X78912755Y-88454000D01*
X78952755Y-79244000D02*
X78952755Y-88396000D01*
X78992755Y-79302000D02*
X78992755Y-88338000D01*
X79032755Y-79361000D02*
X79032755Y-88279000D01*
X79072755Y-79422000D02*
X79072755Y-88218000D01*
X79112755Y-79484000D02*
X79112755Y-88156000D01*
X79152755Y-79547000D02*
X79152755Y-88093000D01*
X79192755Y-79612000D02*
X79192755Y-88028000D01*
X79232755Y-79678000D02*
X79232755Y-87962000D01*
X79272755Y-79745000D02*
X79272755Y-87895000D01*
X79312755Y-79814000D02*
X79312755Y-87826000D01*
X79352755Y-79884000D02*
X79352755Y-87756000D01*
X79392755Y-79956000D02*
X79392755Y-87684000D01*
X79432755Y-80030000D02*
X79432755Y-87610000D01*
X79472755Y-80106000D02*
X79472755Y-87534000D01*
X79512755Y-80183000D02*
X79512755Y-87457000D01*
X79552755Y-80263000D02*
X79552755Y-87377000D01*
X79592755Y-80345000D02*
X79592755Y-87295000D01*
X79632755Y-80430000D02*
X79632755Y-87210000D01*
X79672755Y-80517000D02*
X79672755Y-87123000D01*
X79712755Y-80607000D02*
X79712755Y-87033000D01*
X79752755Y-80700000D02*
X79752755Y-86940000D01*
X79792755Y-80797000D02*
X79792755Y-86843000D01*
X79832755Y-80897000D02*
X79832755Y-86743000D01*
X79872755Y-81001000D02*
X79872755Y-86639000D01*
X79912755Y-81110000D02*
X79912755Y-86530000D01*
X79952755Y-81223000D02*
X79952755Y-86417000D01*
X79992755Y-81343000D02*
X79992755Y-86297000D01*
X80032755Y-81469000D02*
X80032755Y-86171000D01*
X80072755Y-81603000D02*
X80072755Y-86037000D01*
X80112755Y-81746000D02*
X80112755Y-85894000D01*
X80152755Y-81900000D02*
X80152755Y-85740000D01*
X80192755Y-82069000D02*
X80192755Y-85571000D01*
X80232755Y-82256000D02*
X80232755Y-85384000D01*
X80272755Y-82469000D02*
X80272755Y-85171000D01*
X80312755Y-82723000D02*
X80312755Y-84917000D01*
X80352755Y-83055000D02*
X80352755Y-84585000D01*
X80392755Y-83820000D02*
G75*
G02*
X64152755Y-83820000I-8120000J0D01*
G01*
X64152755Y-83820000D02*
G75*
G02*
X80392755Y-83820000I8120000J0D01*
G01*
%TO.C,U2*%
X64994000Y-100290000D02*
X64994000Y-110530000D01*
X68125000Y-100290000D02*
X68125000Y-110530000D01*
X69635000Y-100290000D02*
X64994000Y-100290000D01*
X69635000Y-100290000D02*
X69635000Y-110530000D01*
X69635000Y-103560000D02*
X68125000Y-103560000D01*
X69635000Y-107261000D02*
X68125000Y-107261000D01*
X69635000Y-110530000D02*
X64994000Y-110530000D01*
%TO.C,C16*%
X45720199Y-95833000D02*
X46120199Y-95833000D01*
X45920199Y-95633000D02*
X45920199Y-96033000D01*
X47990000Y-94948000D02*
X47990000Y-99108000D01*
X48030000Y-94948000D02*
X48030000Y-99108000D01*
X48070000Y-94950000D02*
X48070000Y-99106000D01*
X48110000Y-94951000D02*
X48110000Y-99105000D01*
X48150000Y-94954000D02*
X48150000Y-99102000D01*
X48190000Y-94957000D02*
X48190000Y-96188000D01*
X48190000Y-97868000D02*
X48190000Y-99099000D01*
X48230000Y-94962000D02*
X48230000Y-96188000D01*
X48230000Y-97868000D02*
X48230000Y-99094000D01*
X48270000Y-94967000D02*
X48270000Y-96188000D01*
X48270000Y-97868000D02*
X48270000Y-99089000D01*
X48310000Y-94972000D02*
X48310000Y-96188000D01*
X48310000Y-97868000D02*
X48310000Y-99084000D01*
X48350000Y-94979000D02*
X48350000Y-96188000D01*
X48350000Y-97868000D02*
X48350000Y-99077000D01*
X48390000Y-94986000D02*
X48390000Y-96188000D01*
X48390000Y-97868000D02*
X48390000Y-99070000D01*
X48430000Y-94994000D02*
X48430000Y-96188000D01*
X48430000Y-97868000D02*
X48430000Y-99062000D01*
X48470000Y-95003000D02*
X48470000Y-96188000D01*
X48470000Y-97868000D02*
X48470000Y-99053000D01*
X48510000Y-95013000D02*
X48510000Y-96188000D01*
X48510000Y-97868000D02*
X48510000Y-99043000D01*
X48550000Y-95023000D02*
X48550000Y-96188000D01*
X48550000Y-97868000D02*
X48550000Y-99033000D01*
X48590000Y-95035000D02*
X48590000Y-96188000D01*
X48590000Y-97868000D02*
X48590000Y-99021000D01*
X48630000Y-95047000D02*
X48630000Y-96188000D01*
X48630000Y-97868000D02*
X48630000Y-99009000D01*
X48670000Y-95060000D02*
X48670000Y-96188000D01*
X48670000Y-97868000D02*
X48670000Y-98996000D01*
X48710000Y-95074000D02*
X48710000Y-96188000D01*
X48710000Y-97868000D02*
X48710000Y-98982000D01*
X48750000Y-95089000D02*
X48750000Y-96188000D01*
X48750000Y-97868000D02*
X48750000Y-98967000D01*
X48790000Y-95105000D02*
X48790000Y-96188000D01*
X48790000Y-97868000D02*
X48790000Y-98951000D01*
X48830000Y-95122000D02*
X48830000Y-96188000D01*
X48830000Y-97868000D02*
X48830000Y-98934000D01*
X48870000Y-95139000D02*
X48870000Y-96188000D01*
X48870000Y-97868000D02*
X48870000Y-98917000D01*
X48910000Y-95158000D02*
X48910000Y-96188000D01*
X48910000Y-97868000D02*
X48910000Y-98898000D01*
X48950000Y-95178000D02*
X48950000Y-96188000D01*
X48950000Y-97868000D02*
X48950000Y-98878000D01*
X48990000Y-95199000D02*
X48990000Y-96188000D01*
X48990000Y-97868000D02*
X48990000Y-98857000D01*
X49030000Y-95221000D02*
X49030000Y-96188000D01*
X49030000Y-97868000D02*
X49030000Y-98835000D01*
X49070000Y-95244000D02*
X49070000Y-96188000D01*
X49070000Y-97868000D02*
X49070000Y-98812000D01*
X49110000Y-95268000D02*
X49110000Y-96188000D01*
X49110000Y-97868000D02*
X49110000Y-98788000D01*
X49150000Y-95294000D02*
X49150000Y-96188000D01*
X49150000Y-97868000D02*
X49150000Y-98762000D01*
X49190000Y-95320000D02*
X49190000Y-96188000D01*
X49190000Y-97868000D02*
X49190000Y-98736000D01*
X49230000Y-95348000D02*
X49230000Y-96188000D01*
X49230000Y-97868000D02*
X49230000Y-98708000D01*
X49270000Y-95378000D02*
X49270000Y-96188000D01*
X49270000Y-97868000D02*
X49270000Y-98678000D01*
X49310000Y-95409000D02*
X49310000Y-96188000D01*
X49310000Y-97868000D02*
X49310000Y-98647000D01*
X49350000Y-95442000D02*
X49350000Y-96188000D01*
X49350000Y-97868000D02*
X49350000Y-98614000D01*
X49390000Y-95476000D02*
X49390000Y-96188000D01*
X49390000Y-97868000D02*
X49390000Y-98580000D01*
X49430000Y-95512000D02*
X49430000Y-96188000D01*
X49430000Y-97868000D02*
X49430000Y-98544000D01*
X49470000Y-95550000D02*
X49470000Y-96188000D01*
X49470000Y-97868000D02*
X49470000Y-98506000D01*
X49510000Y-95590000D02*
X49510000Y-96188000D01*
X49510000Y-97868000D02*
X49510000Y-98466000D01*
X49550000Y-95632000D02*
X49550000Y-96188000D01*
X49550000Y-97868000D02*
X49550000Y-98424000D01*
X49590000Y-95677000D02*
X49590000Y-96188000D01*
X49590000Y-97868000D02*
X49590000Y-98379000D01*
X49630000Y-95725000D02*
X49630000Y-96188000D01*
X49630000Y-97868000D02*
X49630000Y-98331000D01*
X49670000Y-95775000D02*
X49670000Y-96188000D01*
X49670000Y-97868000D02*
X49670000Y-98281000D01*
X49710000Y-95829000D02*
X49710000Y-96188000D01*
X49710000Y-97868000D02*
X49710000Y-98227000D01*
X49750000Y-95886000D02*
X49750000Y-96188000D01*
X49750000Y-97868000D02*
X49750000Y-98170000D01*
X49790000Y-95948000D02*
X49790000Y-96188000D01*
X49790000Y-97868000D02*
X49790000Y-98108000D01*
X49830000Y-96015000D02*
X49830000Y-98041000D01*
X49870000Y-96088000D02*
X49870000Y-97968000D01*
X49910000Y-96169000D02*
X49910000Y-97887000D01*
X49950000Y-96260000D02*
X49950000Y-97796000D01*
X49990000Y-96365000D02*
X49990000Y-97691000D01*
X50030000Y-96491000D02*
X50030000Y-97565000D01*
X50070000Y-96658000D02*
X50070000Y-97398000D01*
X50110000Y-97028000D02*
G75*
G02*
X45870000Y-97028000I-2120000J0D01*
G01*
X45870000Y-97028000D02*
G75*
G02*
X50110000Y-97028000I2120000J0D01*
G01*
%TO.C,C2*%
X26850509Y-60215000D02*
X28450509Y-60215000D01*
X27650509Y-59415000D02*
X27650509Y-61015000D01*
X35540000Y-56690000D02*
X35540000Y-72850000D01*
X35580000Y-56690000D02*
X35580000Y-72850000D01*
X35620000Y-56690000D02*
X35620000Y-72850000D01*
X35660000Y-56691000D02*
X35660000Y-72849000D01*
X35700000Y-56692000D02*
X35700000Y-72848000D01*
X35740000Y-56692000D02*
X35740000Y-72848000D01*
X35780000Y-56694000D02*
X35780000Y-72846000D01*
X35820000Y-56695000D02*
X35820000Y-72845000D01*
X35860000Y-56696000D02*
X35860000Y-72844000D01*
X35900000Y-56698000D02*
X35900000Y-72842000D01*
X35940000Y-56700000D02*
X35940000Y-72840000D01*
X35980000Y-56702000D02*
X35980000Y-72838000D01*
X36020000Y-56704000D02*
X36020000Y-72836000D01*
X36060000Y-56707000D02*
X36060000Y-72833000D01*
X36100000Y-56709000D02*
X36100000Y-72831000D01*
X36140000Y-56712000D02*
X36140000Y-72828000D01*
X36180000Y-56715000D02*
X36180000Y-72825000D01*
X36220000Y-56719000D02*
X36220000Y-72821000D01*
X36260000Y-56722000D02*
X36260000Y-72818000D01*
X36300000Y-56726000D02*
X36300000Y-72814000D01*
X36340000Y-56730000D02*
X36340000Y-72810000D01*
X36380000Y-56734000D02*
X36380000Y-72806000D01*
X36420000Y-56738000D02*
X36420000Y-72802000D01*
X36460000Y-56742000D02*
X36460000Y-72798000D01*
X36500000Y-56747000D02*
X36500000Y-72793000D01*
X36540000Y-56752000D02*
X36540000Y-72788000D01*
X36580000Y-56757000D02*
X36580000Y-72783000D01*
X36620000Y-56762000D02*
X36620000Y-72778000D01*
X36660000Y-56768000D02*
X36660000Y-72772000D01*
X36700000Y-56773000D02*
X36700000Y-72767000D01*
X36740000Y-56779000D02*
X36740000Y-72761000D01*
X36780000Y-56785000D02*
X36780000Y-72755000D01*
X36820000Y-56792000D02*
X36820000Y-72748000D01*
X36860000Y-56798000D02*
X36860000Y-72742000D01*
X36900000Y-56805000D02*
X36900000Y-72735000D01*
X36940000Y-56812000D02*
X36940000Y-72728000D01*
X36980000Y-56819000D02*
X36980000Y-72721000D01*
X37020000Y-56826000D02*
X37020000Y-72714000D01*
X37060000Y-56834000D02*
X37060000Y-72706000D01*
X37100000Y-56841000D02*
X37100000Y-72699000D01*
X37140000Y-56849000D02*
X37140000Y-72691000D01*
X37180000Y-56857000D02*
X37180000Y-72683000D01*
X37220000Y-56866000D02*
X37220000Y-72674000D01*
X37260000Y-56874000D02*
X37260000Y-72666000D01*
X37300000Y-56883000D02*
X37300000Y-72657000D01*
X37340000Y-56892000D02*
X37340000Y-72648000D01*
X37380000Y-56901000D02*
X37380000Y-72639000D01*
X37420000Y-56911000D02*
X37420000Y-72629000D01*
X37460000Y-56920000D02*
X37460000Y-72620000D01*
X37500000Y-56930000D02*
X37500000Y-72610000D01*
X37540000Y-56940000D02*
X37540000Y-72600000D01*
X37580000Y-56950000D02*
X37580000Y-72590000D01*
X37620000Y-56961000D02*
X37620000Y-72579000D01*
X37660000Y-56972000D02*
X37660000Y-72568000D01*
X37700000Y-56983000D02*
X37700000Y-72557000D01*
X37740000Y-56994000D02*
X37740000Y-72546000D01*
X37780000Y-57005000D02*
X37780000Y-72535000D01*
X37820000Y-57017000D02*
X37820000Y-72523000D01*
X37860000Y-57028000D02*
X37860000Y-63330000D01*
X37860000Y-66210000D02*
X37860000Y-72512000D01*
X37900000Y-57041000D02*
X37900000Y-63330000D01*
X37900000Y-66210000D02*
X37900000Y-72499000D01*
X37940000Y-57053000D02*
X37940000Y-63330000D01*
X37940000Y-66210000D02*
X37940000Y-72487000D01*
X37980000Y-57065000D02*
X37980000Y-63330000D01*
X37980000Y-66210000D02*
X37980000Y-72475000D01*
X38020000Y-57078000D02*
X38020000Y-63330000D01*
X38020000Y-66210000D02*
X38020000Y-72462000D01*
X38060000Y-57091000D02*
X38060000Y-63330000D01*
X38060000Y-66210000D02*
X38060000Y-72449000D01*
X38100000Y-57104000D02*
X38100000Y-63330000D01*
X38100000Y-66210000D02*
X38100000Y-72436000D01*
X38140000Y-57118000D02*
X38140000Y-63330000D01*
X38140000Y-66210000D02*
X38140000Y-72422000D01*
X38180000Y-57131000D02*
X38180000Y-63330000D01*
X38180000Y-66210000D02*
X38180000Y-72409000D01*
X38220000Y-57145000D02*
X38220000Y-63330000D01*
X38220000Y-66210000D02*
X38220000Y-72395000D01*
X38260000Y-57159000D02*
X38260000Y-63330000D01*
X38260000Y-66210000D02*
X38260000Y-72381000D01*
X38300000Y-57173000D02*
X38300000Y-63330000D01*
X38300000Y-66210000D02*
X38300000Y-72367000D01*
X38340000Y-57188000D02*
X38340000Y-63330000D01*
X38340000Y-66210000D02*
X38340000Y-72352000D01*
X38380000Y-57203000D02*
X38380000Y-63330000D01*
X38380000Y-66210000D02*
X38380000Y-72337000D01*
X38420000Y-57218000D02*
X38420000Y-63330000D01*
X38420000Y-66210000D02*
X38420000Y-72322000D01*
X38460000Y-57233000D02*
X38460000Y-63330000D01*
X38460000Y-66210000D02*
X38460000Y-72307000D01*
X38500000Y-57249000D02*
X38500000Y-63330000D01*
X38500000Y-66210000D02*
X38500000Y-72291000D01*
X38540000Y-57265000D02*
X38540000Y-63330000D01*
X38540000Y-66210000D02*
X38540000Y-72275000D01*
X38580000Y-57281000D02*
X38580000Y-63330000D01*
X38580000Y-66210000D02*
X38580000Y-72259000D01*
X38620000Y-57297000D02*
X38620000Y-63330000D01*
X38620000Y-66210000D02*
X38620000Y-72243000D01*
X38660000Y-57313000D02*
X38660000Y-63330000D01*
X38660000Y-66210000D02*
X38660000Y-72227000D01*
X38700000Y-57330000D02*
X38700000Y-63330000D01*
X38700000Y-66210000D02*
X38700000Y-72210000D01*
X38740000Y-57347000D02*
X38740000Y-63330000D01*
X38740000Y-66210000D02*
X38740000Y-72193000D01*
X38780000Y-57364000D02*
X38780000Y-63330000D01*
X38780000Y-66210000D02*
X38780000Y-72176000D01*
X38820000Y-57382000D02*
X38820000Y-63330000D01*
X38820000Y-66210000D02*
X38820000Y-72158000D01*
X38860000Y-57400000D02*
X38860000Y-63330000D01*
X38860000Y-66210000D02*
X38860000Y-72140000D01*
X38900000Y-57418000D02*
X38900000Y-63330000D01*
X38900000Y-66210000D02*
X38900000Y-72122000D01*
X38940000Y-57436000D02*
X38940000Y-63330000D01*
X38940000Y-66210000D02*
X38940000Y-72104000D01*
X38980000Y-57455000D02*
X38980000Y-63330000D01*
X38980000Y-66210000D02*
X38980000Y-72085000D01*
X39020000Y-57474000D02*
X39020000Y-63330000D01*
X39020000Y-66210000D02*
X39020000Y-72066000D01*
X39060000Y-57493000D02*
X39060000Y-63330000D01*
X39060000Y-66210000D02*
X39060000Y-72047000D01*
X39100000Y-57512000D02*
X39100000Y-63330000D01*
X39100000Y-66210000D02*
X39100000Y-72028000D01*
X39140000Y-57532000D02*
X39140000Y-63330000D01*
X39140000Y-66210000D02*
X39140000Y-72008000D01*
X39180000Y-57552000D02*
X39180000Y-63330000D01*
X39180000Y-66210000D02*
X39180000Y-71988000D01*
X39220000Y-57572000D02*
X39220000Y-63330000D01*
X39220000Y-66210000D02*
X39220000Y-71968000D01*
X39260000Y-57592000D02*
X39260000Y-63330000D01*
X39260000Y-66210000D02*
X39260000Y-71948000D01*
X39300000Y-57613000D02*
X39300000Y-63330000D01*
X39300000Y-66210000D02*
X39300000Y-71927000D01*
X39340000Y-57634000D02*
X39340000Y-63330000D01*
X39340000Y-66210000D02*
X39340000Y-71906000D01*
X39380000Y-57655000D02*
X39380000Y-63330000D01*
X39380000Y-66210000D02*
X39380000Y-71885000D01*
X39420000Y-57677000D02*
X39420000Y-63330000D01*
X39420000Y-66210000D02*
X39420000Y-71863000D01*
X39460000Y-57699000D02*
X39460000Y-63330000D01*
X39460000Y-66210000D02*
X39460000Y-71841000D01*
X39500000Y-57721000D02*
X39500000Y-63330000D01*
X39500000Y-66210000D02*
X39500000Y-71819000D01*
X39540000Y-57744000D02*
X39540000Y-63330000D01*
X39540000Y-66210000D02*
X39540000Y-71796000D01*
X39580000Y-57766000D02*
X39580000Y-63330000D01*
X39580000Y-66210000D02*
X39580000Y-71774000D01*
X39620000Y-57789000D02*
X39620000Y-63330000D01*
X39620000Y-66210000D02*
X39620000Y-71751000D01*
X39660000Y-57813000D02*
X39660000Y-63330000D01*
X39660000Y-66210000D02*
X39660000Y-71727000D01*
X39700000Y-57837000D02*
X39700000Y-63330000D01*
X39700000Y-66210000D02*
X39700000Y-71703000D01*
X39740000Y-57861000D02*
X39740000Y-63330000D01*
X39740000Y-66210000D02*
X39740000Y-71679000D01*
X39780000Y-57885000D02*
X39780000Y-63330000D01*
X39780000Y-66210000D02*
X39780000Y-71655000D01*
X39820000Y-57910000D02*
X39820000Y-63330000D01*
X39820000Y-66210000D02*
X39820000Y-71630000D01*
X39860000Y-57935000D02*
X39860000Y-63330000D01*
X39860000Y-66210000D02*
X39860000Y-71605000D01*
X39900000Y-57960000D02*
X39900000Y-63330000D01*
X39900000Y-66210000D02*
X39900000Y-71580000D01*
X39940000Y-57985000D02*
X39940000Y-63330000D01*
X39940000Y-66210000D02*
X39940000Y-71555000D01*
X39980000Y-58011000D02*
X39980000Y-63330000D01*
X39980000Y-66210000D02*
X39980000Y-71529000D01*
X40020000Y-58038000D02*
X40020000Y-63330000D01*
X40020000Y-66210000D02*
X40020000Y-71502000D01*
X40060000Y-58064000D02*
X40060000Y-63330000D01*
X40060000Y-66210000D02*
X40060000Y-71476000D01*
X40100000Y-58091000D02*
X40100000Y-63330000D01*
X40100000Y-66210000D02*
X40100000Y-71449000D01*
X40140000Y-58119000D02*
X40140000Y-63330000D01*
X40140000Y-66210000D02*
X40140000Y-71421000D01*
X40180000Y-58146000D02*
X40180000Y-63330000D01*
X40180000Y-66210000D02*
X40180000Y-71394000D01*
X40220000Y-58174000D02*
X40220000Y-63330000D01*
X40220000Y-66210000D02*
X40220000Y-71366000D01*
X40260000Y-58203000D02*
X40260000Y-63330000D01*
X40260000Y-66210000D02*
X40260000Y-71337000D01*
X40300000Y-58231000D02*
X40300000Y-63330000D01*
X40300000Y-66210000D02*
X40300000Y-71309000D01*
X40340000Y-58261000D02*
X40340000Y-63330000D01*
X40340000Y-66210000D02*
X40340000Y-71279000D01*
X40380000Y-58290000D02*
X40380000Y-63330000D01*
X40380000Y-66210000D02*
X40380000Y-71250000D01*
X40420000Y-58320000D02*
X40420000Y-63330000D01*
X40420000Y-66210000D02*
X40420000Y-71220000D01*
X40460000Y-58350000D02*
X40460000Y-63330000D01*
X40460000Y-66210000D02*
X40460000Y-71190000D01*
X40500000Y-58381000D02*
X40500000Y-63330000D01*
X40500000Y-66210000D02*
X40500000Y-71159000D01*
X40540000Y-58412000D02*
X40540000Y-63330000D01*
X40540000Y-66210000D02*
X40540000Y-71128000D01*
X40580000Y-58443000D02*
X40580000Y-63330000D01*
X40580000Y-66210000D02*
X40580000Y-71097000D01*
X40620000Y-58475000D02*
X40620000Y-63330000D01*
X40620000Y-66210000D02*
X40620000Y-71065000D01*
X40660000Y-58508000D02*
X40660000Y-63330000D01*
X40660000Y-66210000D02*
X40660000Y-71032000D01*
X40700000Y-58540000D02*
X40700000Y-63330000D01*
X40700000Y-66210000D02*
X40700000Y-71000000D01*
X40740000Y-58573000D02*
X40740000Y-70967000D01*
X40780000Y-58607000D02*
X40780000Y-70933000D01*
X40820000Y-58641000D02*
X40820000Y-70899000D01*
X40860000Y-58676000D02*
X40860000Y-70864000D01*
X40900000Y-58710000D02*
X40900000Y-70830000D01*
X40940000Y-58746000D02*
X40940000Y-70794000D01*
X40980000Y-58782000D02*
X40980000Y-70758000D01*
X41020000Y-58818000D02*
X41020000Y-70722000D01*
X41060000Y-58855000D02*
X41060000Y-70685000D01*
X41100000Y-58892000D02*
X41100000Y-70648000D01*
X41140000Y-58930000D02*
X41140000Y-70610000D01*
X41180000Y-58968000D02*
X41180000Y-70572000D01*
X41220000Y-59007000D02*
X41220000Y-70533000D01*
X41260000Y-59047000D02*
X41260000Y-70493000D01*
X41300000Y-59087000D02*
X41300000Y-70453000D01*
X41340000Y-59127000D02*
X41340000Y-70413000D01*
X41380000Y-59168000D02*
X41380000Y-70372000D01*
X41420000Y-59210000D02*
X41420000Y-70330000D01*
X41460000Y-59252000D02*
X41460000Y-70288000D01*
X41500000Y-59295000D02*
X41500000Y-70245000D01*
X41540000Y-59339000D02*
X41540000Y-70201000D01*
X41580000Y-59383000D02*
X41580000Y-70157000D01*
X41620000Y-59428000D02*
X41620000Y-70112000D01*
X41660000Y-59473000D02*
X41660000Y-70067000D01*
X41700000Y-59520000D02*
X41700000Y-70020000D01*
X41740000Y-59566000D02*
X41740000Y-69974000D01*
X41780000Y-59614000D02*
X41780000Y-69926000D01*
X41820000Y-59663000D02*
X41820000Y-69877000D01*
X41860000Y-59712000D02*
X41860000Y-69828000D01*
X41900000Y-59762000D02*
X41900000Y-69778000D01*
X41940000Y-59813000D02*
X41940000Y-69727000D01*
X41980000Y-59864000D02*
X41980000Y-69676000D01*
X42020000Y-59917000D02*
X42020000Y-69623000D01*
X42060000Y-59970000D02*
X42060000Y-69570000D01*
X42100000Y-60025000D02*
X42100000Y-69515000D01*
X42140000Y-60080000D02*
X42140000Y-69460000D01*
X42180000Y-60136000D02*
X42180000Y-69404000D01*
X42220000Y-60194000D02*
X42220000Y-69346000D01*
X42260000Y-60252000D02*
X42260000Y-69288000D01*
X42300000Y-60311000D02*
X42300000Y-69229000D01*
X42340000Y-60372000D02*
X42340000Y-69168000D01*
X42380000Y-60434000D02*
X42380000Y-69106000D01*
X42420000Y-60497000D02*
X42420000Y-69043000D01*
X42460000Y-60562000D02*
X42460000Y-68978000D01*
X42500000Y-60628000D02*
X42500000Y-68912000D01*
X42540000Y-60695000D02*
X42540000Y-68845000D01*
X42580000Y-60764000D02*
X42580000Y-68776000D01*
X42620000Y-60834000D02*
X42620000Y-68706000D01*
X42660000Y-60906000D02*
X42660000Y-68634000D01*
X42700000Y-60980000D02*
X42700000Y-68560000D01*
X42740000Y-61056000D02*
X42740000Y-68484000D01*
X42780000Y-61133000D02*
X42780000Y-68407000D01*
X42820000Y-61213000D02*
X42820000Y-68327000D01*
X42860000Y-61295000D02*
X42860000Y-68245000D01*
X42900000Y-61380000D02*
X42900000Y-68160000D01*
X42940000Y-61467000D02*
X42940000Y-68073000D01*
X42980000Y-61557000D02*
X42980000Y-67983000D01*
X43020000Y-61650000D02*
X43020000Y-67890000D01*
X43060000Y-61747000D02*
X43060000Y-67793000D01*
X43100000Y-61847000D02*
X43100000Y-67693000D01*
X43140000Y-61951000D02*
X43140000Y-67589000D01*
X43180000Y-62060000D02*
X43180000Y-67480000D01*
X43220000Y-62173000D02*
X43220000Y-67367000D01*
X43260000Y-62293000D02*
X43260000Y-67247000D01*
X43300000Y-62419000D02*
X43300000Y-67121000D01*
X43340000Y-62553000D02*
X43340000Y-66987000D01*
X43380000Y-62696000D02*
X43380000Y-66844000D01*
X43420000Y-62850000D02*
X43420000Y-66690000D01*
X43460000Y-63019000D02*
X43460000Y-66521000D01*
X43500000Y-63206000D02*
X43500000Y-66334000D01*
X43540000Y-63419000D02*
X43540000Y-66121000D01*
X43580000Y-63673000D02*
X43580000Y-65867000D01*
X43620000Y-64005000D02*
X43620000Y-65535000D01*
X43660000Y-64770000D02*
G75*
G02*
X27420000Y-64770000I-8120000J0D01*
G01*
X27420000Y-64770000D02*
G75*
G02*
X43660000Y-64770000I8120000J0D01*
G01*
%TO.C,C14*%
X45181755Y-60215000D02*
X46781755Y-60215000D01*
X45981755Y-59415000D02*
X45981755Y-61015000D01*
X53871246Y-56690000D02*
X53871246Y-72850000D01*
X53911246Y-56690000D02*
X53911246Y-72850000D01*
X53951246Y-56690000D02*
X53951246Y-72850000D01*
X53991246Y-56691000D02*
X53991246Y-72849000D01*
X54031246Y-56692000D02*
X54031246Y-72848000D01*
X54071246Y-56692000D02*
X54071246Y-72848000D01*
X54111246Y-56694000D02*
X54111246Y-72846000D01*
X54151246Y-56695000D02*
X54151246Y-72845000D01*
X54191246Y-56696000D02*
X54191246Y-72844000D01*
X54231246Y-56698000D02*
X54231246Y-72842000D01*
X54271246Y-56700000D02*
X54271246Y-72840000D01*
X54311246Y-56702000D02*
X54311246Y-72838000D01*
X54351246Y-56704000D02*
X54351246Y-72836000D01*
X54391246Y-56707000D02*
X54391246Y-72833000D01*
X54431246Y-56709000D02*
X54431246Y-72831000D01*
X54471246Y-56712000D02*
X54471246Y-72828000D01*
X54511246Y-56715000D02*
X54511246Y-72825000D01*
X54551246Y-56719000D02*
X54551246Y-72821000D01*
X54591246Y-56722000D02*
X54591246Y-72818000D01*
X54631246Y-56726000D02*
X54631246Y-72814000D01*
X54671246Y-56730000D02*
X54671246Y-72810000D01*
X54711246Y-56734000D02*
X54711246Y-72806000D01*
X54751246Y-56738000D02*
X54751246Y-72802000D01*
X54791246Y-56742000D02*
X54791246Y-72798000D01*
X54831246Y-56747000D02*
X54831246Y-72793000D01*
X54871246Y-56752000D02*
X54871246Y-72788000D01*
X54911246Y-56757000D02*
X54911246Y-72783000D01*
X54951246Y-56762000D02*
X54951246Y-72778000D01*
X54991246Y-56768000D02*
X54991246Y-72772000D01*
X55031246Y-56773000D02*
X55031246Y-72767000D01*
X55071246Y-56779000D02*
X55071246Y-72761000D01*
X55111246Y-56785000D02*
X55111246Y-72755000D01*
X55151246Y-56792000D02*
X55151246Y-72748000D01*
X55191246Y-56798000D02*
X55191246Y-72742000D01*
X55231246Y-56805000D02*
X55231246Y-72735000D01*
X55271246Y-56812000D02*
X55271246Y-72728000D01*
X55311246Y-56819000D02*
X55311246Y-72721000D01*
X55351246Y-56826000D02*
X55351246Y-72714000D01*
X55391246Y-56834000D02*
X55391246Y-72706000D01*
X55431246Y-56841000D02*
X55431246Y-72699000D01*
X55471246Y-56849000D02*
X55471246Y-72691000D01*
X55511246Y-56857000D02*
X55511246Y-72683000D01*
X55551246Y-56866000D02*
X55551246Y-72674000D01*
X55591246Y-56874000D02*
X55591246Y-72666000D01*
X55631246Y-56883000D02*
X55631246Y-72657000D01*
X55671246Y-56892000D02*
X55671246Y-72648000D01*
X55711246Y-56901000D02*
X55711246Y-72639000D01*
X55751246Y-56911000D02*
X55751246Y-72629000D01*
X55791246Y-56920000D02*
X55791246Y-72620000D01*
X55831246Y-56930000D02*
X55831246Y-72610000D01*
X55871246Y-56940000D02*
X55871246Y-72600000D01*
X55911246Y-56950000D02*
X55911246Y-72590000D01*
X55951246Y-56961000D02*
X55951246Y-72579000D01*
X55991246Y-56972000D02*
X55991246Y-72568000D01*
X56031246Y-56983000D02*
X56031246Y-72557000D01*
X56071246Y-56994000D02*
X56071246Y-72546000D01*
X56111246Y-57005000D02*
X56111246Y-72535000D01*
X56151246Y-57017000D02*
X56151246Y-72523000D01*
X56191246Y-57028000D02*
X56191246Y-63330000D01*
X56191246Y-66210000D02*
X56191246Y-72512000D01*
X56231246Y-57041000D02*
X56231246Y-63330000D01*
X56231246Y-66210000D02*
X56231246Y-72499000D01*
X56271246Y-57053000D02*
X56271246Y-63330000D01*
X56271246Y-66210000D02*
X56271246Y-72487000D01*
X56311246Y-57065000D02*
X56311246Y-63330000D01*
X56311246Y-66210000D02*
X56311246Y-72475000D01*
X56351246Y-57078000D02*
X56351246Y-63330000D01*
X56351246Y-66210000D02*
X56351246Y-72462000D01*
X56391246Y-57091000D02*
X56391246Y-63330000D01*
X56391246Y-66210000D02*
X56391246Y-72449000D01*
X56431246Y-57104000D02*
X56431246Y-63330000D01*
X56431246Y-66210000D02*
X56431246Y-72436000D01*
X56471246Y-57118000D02*
X56471246Y-63330000D01*
X56471246Y-66210000D02*
X56471246Y-72422000D01*
X56511246Y-57131000D02*
X56511246Y-63330000D01*
X56511246Y-66210000D02*
X56511246Y-72409000D01*
X56551246Y-57145000D02*
X56551246Y-63330000D01*
X56551246Y-66210000D02*
X56551246Y-72395000D01*
X56591246Y-57159000D02*
X56591246Y-63330000D01*
X56591246Y-66210000D02*
X56591246Y-72381000D01*
X56631246Y-57173000D02*
X56631246Y-63330000D01*
X56631246Y-66210000D02*
X56631246Y-72367000D01*
X56671246Y-57188000D02*
X56671246Y-63330000D01*
X56671246Y-66210000D02*
X56671246Y-72352000D01*
X56711246Y-57203000D02*
X56711246Y-63330000D01*
X56711246Y-66210000D02*
X56711246Y-72337000D01*
X56751246Y-57218000D02*
X56751246Y-63330000D01*
X56751246Y-66210000D02*
X56751246Y-72322000D01*
X56791246Y-57233000D02*
X56791246Y-63330000D01*
X56791246Y-66210000D02*
X56791246Y-72307000D01*
X56831246Y-57249000D02*
X56831246Y-63330000D01*
X56831246Y-66210000D02*
X56831246Y-72291000D01*
X56871246Y-57265000D02*
X56871246Y-63330000D01*
X56871246Y-66210000D02*
X56871246Y-72275000D01*
X56911246Y-57281000D02*
X56911246Y-63330000D01*
X56911246Y-66210000D02*
X56911246Y-72259000D01*
X56951246Y-57297000D02*
X56951246Y-63330000D01*
X56951246Y-66210000D02*
X56951246Y-72243000D01*
X56991246Y-57313000D02*
X56991246Y-63330000D01*
X56991246Y-66210000D02*
X56991246Y-72227000D01*
X57031246Y-57330000D02*
X57031246Y-63330000D01*
X57031246Y-66210000D02*
X57031246Y-72210000D01*
X57071246Y-57347000D02*
X57071246Y-63330000D01*
X57071246Y-66210000D02*
X57071246Y-72193000D01*
X57111246Y-57364000D02*
X57111246Y-63330000D01*
X57111246Y-66210000D02*
X57111246Y-72176000D01*
X57151246Y-57382000D02*
X57151246Y-63330000D01*
X57151246Y-66210000D02*
X57151246Y-72158000D01*
X57191246Y-57400000D02*
X57191246Y-63330000D01*
X57191246Y-66210000D02*
X57191246Y-72140000D01*
X57231246Y-57418000D02*
X57231246Y-63330000D01*
X57231246Y-66210000D02*
X57231246Y-72122000D01*
X57271246Y-57436000D02*
X57271246Y-63330000D01*
X57271246Y-66210000D02*
X57271246Y-72104000D01*
X57311246Y-57455000D02*
X57311246Y-63330000D01*
X57311246Y-66210000D02*
X57311246Y-72085000D01*
X57351246Y-57474000D02*
X57351246Y-63330000D01*
X57351246Y-66210000D02*
X57351246Y-72066000D01*
X57391246Y-57493000D02*
X57391246Y-63330000D01*
X57391246Y-66210000D02*
X57391246Y-72047000D01*
X57431246Y-57512000D02*
X57431246Y-63330000D01*
X57431246Y-66210000D02*
X57431246Y-72028000D01*
X57471246Y-57532000D02*
X57471246Y-63330000D01*
X57471246Y-66210000D02*
X57471246Y-72008000D01*
X57511246Y-57552000D02*
X57511246Y-63330000D01*
X57511246Y-66210000D02*
X57511246Y-71988000D01*
X57551246Y-57572000D02*
X57551246Y-63330000D01*
X57551246Y-66210000D02*
X57551246Y-71968000D01*
X57591246Y-57592000D02*
X57591246Y-63330000D01*
X57591246Y-66210000D02*
X57591246Y-71948000D01*
X57631246Y-57613000D02*
X57631246Y-63330000D01*
X57631246Y-66210000D02*
X57631246Y-71927000D01*
X57671246Y-57634000D02*
X57671246Y-63330000D01*
X57671246Y-66210000D02*
X57671246Y-71906000D01*
X57711246Y-57655000D02*
X57711246Y-63330000D01*
X57711246Y-66210000D02*
X57711246Y-71885000D01*
X57751246Y-57677000D02*
X57751246Y-63330000D01*
X57751246Y-66210000D02*
X57751246Y-71863000D01*
X57791246Y-57699000D02*
X57791246Y-63330000D01*
X57791246Y-66210000D02*
X57791246Y-71841000D01*
X57831246Y-57721000D02*
X57831246Y-63330000D01*
X57831246Y-66210000D02*
X57831246Y-71819000D01*
X57871246Y-57744000D02*
X57871246Y-63330000D01*
X57871246Y-66210000D02*
X57871246Y-71796000D01*
X57911246Y-57766000D02*
X57911246Y-63330000D01*
X57911246Y-66210000D02*
X57911246Y-71774000D01*
X57951246Y-57789000D02*
X57951246Y-63330000D01*
X57951246Y-66210000D02*
X57951246Y-71751000D01*
X57991246Y-57813000D02*
X57991246Y-63330000D01*
X57991246Y-66210000D02*
X57991246Y-71727000D01*
X58031246Y-57837000D02*
X58031246Y-63330000D01*
X58031246Y-66210000D02*
X58031246Y-71703000D01*
X58071246Y-57861000D02*
X58071246Y-63330000D01*
X58071246Y-66210000D02*
X58071246Y-71679000D01*
X58111246Y-57885000D02*
X58111246Y-63330000D01*
X58111246Y-66210000D02*
X58111246Y-71655000D01*
X58151246Y-57910000D02*
X58151246Y-63330000D01*
X58151246Y-66210000D02*
X58151246Y-71630000D01*
X58191246Y-57935000D02*
X58191246Y-63330000D01*
X58191246Y-66210000D02*
X58191246Y-71605000D01*
X58231246Y-57960000D02*
X58231246Y-63330000D01*
X58231246Y-66210000D02*
X58231246Y-71580000D01*
X58271246Y-57985000D02*
X58271246Y-63330000D01*
X58271246Y-66210000D02*
X58271246Y-71555000D01*
X58311246Y-58011000D02*
X58311246Y-63330000D01*
X58311246Y-66210000D02*
X58311246Y-71529000D01*
X58351246Y-58038000D02*
X58351246Y-63330000D01*
X58351246Y-66210000D02*
X58351246Y-71502000D01*
X58391246Y-58064000D02*
X58391246Y-63330000D01*
X58391246Y-66210000D02*
X58391246Y-71476000D01*
X58431246Y-58091000D02*
X58431246Y-63330000D01*
X58431246Y-66210000D02*
X58431246Y-71449000D01*
X58471246Y-58119000D02*
X58471246Y-63330000D01*
X58471246Y-66210000D02*
X58471246Y-71421000D01*
X58511246Y-58146000D02*
X58511246Y-63330000D01*
X58511246Y-66210000D02*
X58511246Y-71394000D01*
X58551246Y-58174000D02*
X58551246Y-63330000D01*
X58551246Y-66210000D02*
X58551246Y-71366000D01*
X58591246Y-58203000D02*
X58591246Y-63330000D01*
X58591246Y-66210000D02*
X58591246Y-71337000D01*
X58631246Y-58231000D02*
X58631246Y-63330000D01*
X58631246Y-66210000D02*
X58631246Y-71309000D01*
X58671246Y-58261000D02*
X58671246Y-63330000D01*
X58671246Y-66210000D02*
X58671246Y-71279000D01*
X58711246Y-58290000D02*
X58711246Y-63330000D01*
X58711246Y-66210000D02*
X58711246Y-71250000D01*
X58751246Y-58320000D02*
X58751246Y-63330000D01*
X58751246Y-66210000D02*
X58751246Y-71220000D01*
X58791246Y-58350000D02*
X58791246Y-63330000D01*
X58791246Y-66210000D02*
X58791246Y-71190000D01*
X58831246Y-58381000D02*
X58831246Y-63330000D01*
X58831246Y-66210000D02*
X58831246Y-71159000D01*
X58871246Y-58412000D02*
X58871246Y-63330000D01*
X58871246Y-66210000D02*
X58871246Y-71128000D01*
X58911246Y-58443000D02*
X58911246Y-63330000D01*
X58911246Y-66210000D02*
X58911246Y-71097000D01*
X58951246Y-58475000D02*
X58951246Y-63330000D01*
X58951246Y-66210000D02*
X58951246Y-71065000D01*
X58991246Y-58508000D02*
X58991246Y-63330000D01*
X58991246Y-66210000D02*
X58991246Y-71032000D01*
X59031246Y-58540000D02*
X59031246Y-63330000D01*
X59031246Y-66210000D02*
X59031246Y-71000000D01*
X59071246Y-58573000D02*
X59071246Y-70967000D01*
X59111246Y-58607000D02*
X59111246Y-70933000D01*
X59151246Y-58641000D02*
X59151246Y-70899000D01*
X59191246Y-58676000D02*
X59191246Y-70864000D01*
X59231246Y-58710000D02*
X59231246Y-70830000D01*
X59271246Y-58746000D02*
X59271246Y-70794000D01*
X59311246Y-58782000D02*
X59311246Y-70758000D01*
X59351246Y-58818000D02*
X59351246Y-70722000D01*
X59391246Y-58855000D02*
X59391246Y-70685000D01*
X59431246Y-58892000D02*
X59431246Y-70648000D01*
X59471246Y-58930000D02*
X59471246Y-70610000D01*
X59511246Y-58968000D02*
X59511246Y-70572000D01*
X59551246Y-59007000D02*
X59551246Y-70533000D01*
X59591246Y-59047000D02*
X59591246Y-70493000D01*
X59631246Y-59087000D02*
X59631246Y-70453000D01*
X59671246Y-59127000D02*
X59671246Y-70413000D01*
X59711246Y-59168000D02*
X59711246Y-70372000D01*
X59751246Y-59210000D02*
X59751246Y-70330000D01*
X59791246Y-59252000D02*
X59791246Y-70288000D01*
X59831246Y-59295000D02*
X59831246Y-70245000D01*
X59871246Y-59339000D02*
X59871246Y-70201000D01*
X59911246Y-59383000D02*
X59911246Y-70157000D01*
X59951246Y-59428000D02*
X59951246Y-70112000D01*
X59991246Y-59473000D02*
X59991246Y-70067000D01*
X60031246Y-59520000D02*
X60031246Y-70020000D01*
X60071246Y-59566000D02*
X60071246Y-69974000D01*
X60111246Y-59614000D02*
X60111246Y-69926000D01*
X60151246Y-59663000D02*
X60151246Y-69877000D01*
X60191246Y-59712000D02*
X60191246Y-69828000D01*
X60231246Y-59762000D02*
X60231246Y-69778000D01*
X60271246Y-59813000D02*
X60271246Y-69727000D01*
X60311246Y-59864000D02*
X60311246Y-69676000D01*
X60351246Y-59917000D02*
X60351246Y-69623000D01*
X60391246Y-59970000D02*
X60391246Y-69570000D01*
X60431246Y-60025000D02*
X60431246Y-69515000D01*
X60471246Y-60080000D02*
X60471246Y-69460000D01*
X60511246Y-60136000D02*
X60511246Y-69404000D01*
X60551246Y-60194000D02*
X60551246Y-69346000D01*
X60591246Y-60252000D02*
X60591246Y-69288000D01*
X60631246Y-60311000D02*
X60631246Y-69229000D01*
X60671246Y-60372000D02*
X60671246Y-69168000D01*
X60711246Y-60434000D02*
X60711246Y-69106000D01*
X60751246Y-60497000D02*
X60751246Y-69043000D01*
X60791246Y-60562000D02*
X60791246Y-68978000D01*
X60831246Y-60628000D02*
X60831246Y-68912000D01*
X60871246Y-60695000D02*
X60871246Y-68845000D01*
X60911246Y-60764000D02*
X60911246Y-68776000D01*
X60951246Y-60834000D02*
X60951246Y-68706000D01*
X60991246Y-60906000D02*
X60991246Y-68634000D01*
X61031246Y-60980000D02*
X61031246Y-68560000D01*
X61071246Y-61056000D02*
X61071246Y-68484000D01*
X61111246Y-61133000D02*
X61111246Y-68407000D01*
X61151246Y-61213000D02*
X61151246Y-68327000D01*
X61191246Y-61295000D02*
X61191246Y-68245000D01*
X61231246Y-61380000D02*
X61231246Y-68160000D01*
X61271246Y-61467000D02*
X61271246Y-68073000D01*
X61311246Y-61557000D02*
X61311246Y-67983000D01*
X61351246Y-61650000D02*
X61351246Y-67890000D01*
X61391246Y-61747000D02*
X61391246Y-67793000D01*
X61431246Y-61847000D02*
X61431246Y-67693000D01*
X61471246Y-61951000D02*
X61471246Y-67589000D01*
X61511246Y-62060000D02*
X61511246Y-67480000D01*
X61551246Y-62173000D02*
X61551246Y-67367000D01*
X61591246Y-62293000D02*
X61591246Y-67247000D01*
X61631246Y-62419000D02*
X61631246Y-67121000D01*
X61671246Y-62553000D02*
X61671246Y-66987000D01*
X61711246Y-62696000D02*
X61711246Y-66844000D01*
X61751246Y-62850000D02*
X61751246Y-66690000D01*
X61791246Y-63019000D02*
X61791246Y-66521000D01*
X61831246Y-63206000D02*
X61831246Y-66334000D01*
X61871246Y-63419000D02*
X61871246Y-66121000D01*
X61911246Y-63673000D02*
X61911246Y-65867000D01*
X61951246Y-64005000D02*
X61951246Y-65535000D01*
X61991246Y-64770000D02*
G75*
G02*
X45751246Y-64770000I-8120000J0D01*
G01*
X45751246Y-64770000D02*
G75*
G02*
X61991246Y-64770000I8120000J0D01*
G01*
%TO.C,C5*%
X63463264Y-60215000D02*
X65063264Y-60215000D01*
X64263264Y-59415000D02*
X64263264Y-61015000D01*
X72152755Y-56690000D02*
X72152755Y-72850000D01*
X72192755Y-56690000D02*
X72192755Y-72850000D01*
X72232755Y-56690000D02*
X72232755Y-72850000D01*
X72272755Y-56691000D02*
X72272755Y-72849000D01*
X72312755Y-56692000D02*
X72312755Y-72848000D01*
X72352755Y-56692000D02*
X72352755Y-72848000D01*
X72392755Y-56694000D02*
X72392755Y-72846000D01*
X72432755Y-56695000D02*
X72432755Y-72845000D01*
X72472755Y-56696000D02*
X72472755Y-72844000D01*
X72512755Y-56698000D02*
X72512755Y-72842000D01*
X72552755Y-56700000D02*
X72552755Y-72840000D01*
X72592755Y-56702000D02*
X72592755Y-72838000D01*
X72632755Y-56704000D02*
X72632755Y-72836000D01*
X72672755Y-56707000D02*
X72672755Y-72833000D01*
X72712755Y-56709000D02*
X72712755Y-72831000D01*
X72752755Y-56712000D02*
X72752755Y-72828000D01*
X72792755Y-56715000D02*
X72792755Y-72825000D01*
X72832755Y-56719000D02*
X72832755Y-72821000D01*
X72872755Y-56722000D02*
X72872755Y-72818000D01*
X72912755Y-56726000D02*
X72912755Y-72814000D01*
X72952755Y-56730000D02*
X72952755Y-72810000D01*
X72992755Y-56734000D02*
X72992755Y-72806000D01*
X73032755Y-56738000D02*
X73032755Y-72802000D01*
X73072755Y-56742000D02*
X73072755Y-72798000D01*
X73112755Y-56747000D02*
X73112755Y-72793000D01*
X73152755Y-56752000D02*
X73152755Y-72788000D01*
X73192755Y-56757000D02*
X73192755Y-72783000D01*
X73232755Y-56762000D02*
X73232755Y-72778000D01*
X73272755Y-56768000D02*
X73272755Y-72772000D01*
X73312755Y-56773000D02*
X73312755Y-72767000D01*
X73352755Y-56779000D02*
X73352755Y-72761000D01*
X73392755Y-56785000D02*
X73392755Y-72755000D01*
X73432755Y-56792000D02*
X73432755Y-72748000D01*
X73472755Y-56798000D02*
X73472755Y-72742000D01*
X73512755Y-56805000D02*
X73512755Y-72735000D01*
X73552755Y-56812000D02*
X73552755Y-72728000D01*
X73592755Y-56819000D02*
X73592755Y-72721000D01*
X73632755Y-56826000D02*
X73632755Y-72714000D01*
X73672755Y-56834000D02*
X73672755Y-72706000D01*
X73712755Y-56841000D02*
X73712755Y-72699000D01*
X73752755Y-56849000D02*
X73752755Y-72691000D01*
X73792755Y-56857000D02*
X73792755Y-72683000D01*
X73832755Y-56866000D02*
X73832755Y-72674000D01*
X73872755Y-56874000D02*
X73872755Y-72666000D01*
X73912755Y-56883000D02*
X73912755Y-72657000D01*
X73952755Y-56892000D02*
X73952755Y-72648000D01*
X73992755Y-56901000D02*
X73992755Y-72639000D01*
X74032755Y-56911000D02*
X74032755Y-72629000D01*
X74072755Y-56920000D02*
X74072755Y-72620000D01*
X74112755Y-56930000D02*
X74112755Y-72610000D01*
X74152755Y-56940000D02*
X74152755Y-72600000D01*
X74192755Y-56950000D02*
X74192755Y-72590000D01*
X74232755Y-56961000D02*
X74232755Y-72579000D01*
X74272755Y-56972000D02*
X74272755Y-72568000D01*
X74312755Y-56983000D02*
X74312755Y-72557000D01*
X74352755Y-56994000D02*
X74352755Y-72546000D01*
X74392755Y-57005000D02*
X74392755Y-72535000D01*
X74432755Y-57017000D02*
X74432755Y-72523000D01*
X74472755Y-57028000D02*
X74472755Y-63330000D01*
X74472755Y-66210000D02*
X74472755Y-72512000D01*
X74512755Y-57041000D02*
X74512755Y-63330000D01*
X74512755Y-66210000D02*
X74512755Y-72499000D01*
X74552755Y-57053000D02*
X74552755Y-63330000D01*
X74552755Y-66210000D02*
X74552755Y-72487000D01*
X74592755Y-57065000D02*
X74592755Y-63330000D01*
X74592755Y-66210000D02*
X74592755Y-72475000D01*
X74632755Y-57078000D02*
X74632755Y-63330000D01*
X74632755Y-66210000D02*
X74632755Y-72462000D01*
X74672755Y-57091000D02*
X74672755Y-63330000D01*
X74672755Y-66210000D02*
X74672755Y-72449000D01*
X74712755Y-57104000D02*
X74712755Y-63330000D01*
X74712755Y-66210000D02*
X74712755Y-72436000D01*
X74752755Y-57118000D02*
X74752755Y-63330000D01*
X74752755Y-66210000D02*
X74752755Y-72422000D01*
X74792755Y-57131000D02*
X74792755Y-63330000D01*
X74792755Y-66210000D02*
X74792755Y-72409000D01*
X74832755Y-57145000D02*
X74832755Y-63330000D01*
X74832755Y-66210000D02*
X74832755Y-72395000D01*
X74872755Y-57159000D02*
X74872755Y-63330000D01*
X74872755Y-66210000D02*
X74872755Y-72381000D01*
X74912755Y-57173000D02*
X74912755Y-63330000D01*
X74912755Y-66210000D02*
X74912755Y-72367000D01*
X74952755Y-57188000D02*
X74952755Y-63330000D01*
X74952755Y-66210000D02*
X74952755Y-72352000D01*
X74992755Y-57203000D02*
X74992755Y-63330000D01*
X74992755Y-66210000D02*
X74992755Y-72337000D01*
X75032755Y-57218000D02*
X75032755Y-63330000D01*
X75032755Y-66210000D02*
X75032755Y-72322000D01*
X75072755Y-57233000D02*
X75072755Y-63330000D01*
X75072755Y-66210000D02*
X75072755Y-72307000D01*
X75112755Y-57249000D02*
X75112755Y-63330000D01*
X75112755Y-66210000D02*
X75112755Y-72291000D01*
X75152755Y-57265000D02*
X75152755Y-63330000D01*
X75152755Y-66210000D02*
X75152755Y-72275000D01*
X75192755Y-57281000D02*
X75192755Y-63330000D01*
X75192755Y-66210000D02*
X75192755Y-72259000D01*
X75232755Y-57297000D02*
X75232755Y-63330000D01*
X75232755Y-66210000D02*
X75232755Y-72243000D01*
X75272755Y-57313000D02*
X75272755Y-63330000D01*
X75272755Y-66210000D02*
X75272755Y-72227000D01*
X75312755Y-57330000D02*
X75312755Y-63330000D01*
X75312755Y-66210000D02*
X75312755Y-72210000D01*
X75352755Y-57347000D02*
X75352755Y-63330000D01*
X75352755Y-66210000D02*
X75352755Y-72193000D01*
X75392755Y-57364000D02*
X75392755Y-63330000D01*
X75392755Y-66210000D02*
X75392755Y-72176000D01*
X75432755Y-57382000D02*
X75432755Y-63330000D01*
X75432755Y-66210000D02*
X75432755Y-72158000D01*
X75472755Y-57400000D02*
X75472755Y-63330000D01*
X75472755Y-66210000D02*
X75472755Y-72140000D01*
X75512755Y-57418000D02*
X75512755Y-63330000D01*
X75512755Y-66210000D02*
X75512755Y-72122000D01*
X75552755Y-57436000D02*
X75552755Y-63330000D01*
X75552755Y-66210000D02*
X75552755Y-72104000D01*
X75592755Y-57455000D02*
X75592755Y-63330000D01*
X75592755Y-66210000D02*
X75592755Y-72085000D01*
X75632755Y-57474000D02*
X75632755Y-63330000D01*
X75632755Y-66210000D02*
X75632755Y-72066000D01*
X75672755Y-57493000D02*
X75672755Y-63330000D01*
X75672755Y-66210000D02*
X75672755Y-72047000D01*
X75712755Y-57512000D02*
X75712755Y-63330000D01*
X75712755Y-66210000D02*
X75712755Y-72028000D01*
X75752755Y-57532000D02*
X75752755Y-63330000D01*
X75752755Y-66210000D02*
X75752755Y-72008000D01*
X75792755Y-57552000D02*
X75792755Y-63330000D01*
X75792755Y-66210000D02*
X75792755Y-71988000D01*
X75832755Y-57572000D02*
X75832755Y-63330000D01*
X75832755Y-66210000D02*
X75832755Y-71968000D01*
X75872755Y-57592000D02*
X75872755Y-63330000D01*
X75872755Y-66210000D02*
X75872755Y-71948000D01*
X75912755Y-57613000D02*
X75912755Y-63330000D01*
X75912755Y-66210000D02*
X75912755Y-71927000D01*
X75952755Y-57634000D02*
X75952755Y-63330000D01*
X75952755Y-66210000D02*
X75952755Y-71906000D01*
X75992755Y-57655000D02*
X75992755Y-63330000D01*
X75992755Y-66210000D02*
X75992755Y-71885000D01*
X76032755Y-57677000D02*
X76032755Y-63330000D01*
X76032755Y-66210000D02*
X76032755Y-71863000D01*
X76072755Y-57699000D02*
X76072755Y-63330000D01*
X76072755Y-66210000D02*
X76072755Y-71841000D01*
X76112755Y-57721000D02*
X76112755Y-63330000D01*
X76112755Y-66210000D02*
X76112755Y-71819000D01*
X76152755Y-57744000D02*
X76152755Y-63330000D01*
X76152755Y-66210000D02*
X76152755Y-71796000D01*
X76192755Y-57766000D02*
X76192755Y-63330000D01*
X76192755Y-66210000D02*
X76192755Y-71774000D01*
X76232755Y-57789000D02*
X76232755Y-63330000D01*
X76232755Y-66210000D02*
X76232755Y-71751000D01*
X76272755Y-57813000D02*
X76272755Y-63330000D01*
X76272755Y-66210000D02*
X76272755Y-71727000D01*
X76312755Y-57837000D02*
X76312755Y-63330000D01*
X76312755Y-66210000D02*
X76312755Y-71703000D01*
X76352755Y-57861000D02*
X76352755Y-63330000D01*
X76352755Y-66210000D02*
X76352755Y-71679000D01*
X76392755Y-57885000D02*
X76392755Y-63330000D01*
X76392755Y-66210000D02*
X76392755Y-71655000D01*
X76432755Y-57910000D02*
X76432755Y-63330000D01*
X76432755Y-66210000D02*
X76432755Y-71630000D01*
X76472755Y-57935000D02*
X76472755Y-63330000D01*
X76472755Y-66210000D02*
X76472755Y-71605000D01*
X76512755Y-57960000D02*
X76512755Y-63330000D01*
X76512755Y-66210000D02*
X76512755Y-71580000D01*
X76552755Y-57985000D02*
X76552755Y-63330000D01*
X76552755Y-66210000D02*
X76552755Y-71555000D01*
X76592755Y-58011000D02*
X76592755Y-63330000D01*
X76592755Y-66210000D02*
X76592755Y-71529000D01*
X76632755Y-58038000D02*
X76632755Y-63330000D01*
X76632755Y-66210000D02*
X76632755Y-71502000D01*
X76672755Y-58064000D02*
X76672755Y-63330000D01*
X76672755Y-66210000D02*
X76672755Y-71476000D01*
X76712755Y-58091000D02*
X76712755Y-63330000D01*
X76712755Y-66210000D02*
X76712755Y-71449000D01*
X76752755Y-58119000D02*
X76752755Y-63330000D01*
X76752755Y-66210000D02*
X76752755Y-71421000D01*
X76792755Y-58146000D02*
X76792755Y-63330000D01*
X76792755Y-66210000D02*
X76792755Y-71394000D01*
X76832755Y-58174000D02*
X76832755Y-63330000D01*
X76832755Y-66210000D02*
X76832755Y-71366000D01*
X76872755Y-58203000D02*
X76872755Y-63330000D01*
X76872755Y-66210000D02*
X76872755Y-71337000D01*
X76912755Y-58231000D02*
X76912755Y-63330000D01*
X76912755Y-66210000D02*
X76912755Y-71309000D01*
X76952755Y-58261000D02*
X76952755Y-63330000D01*
X76952755Y-66210000D02*
X76952755Y-71279000D01*
X76992755Y-58290000D02*
X76992755Y-63330000D01*
X76992755Y-66210000D02*
X76992755Y-71250000D01*
X77032755Y-58320000D02*
X77032755Y-63330000D01*
X77032755Y-66210000D02*
X77032755Y-71220000D01*
X77072755Y-58350000D02*
X77072755Y-63330000D01*
X77072755Y-66210000D02*
X77072755Y-71190000D01*
X77112755Y-58381000D02*
X77112755Y-63330000D01*
X77112755Y-66210000D02*
X77112755Y-71159000D01*
X77152755Y-58412000D02*
X77152755Y-63330000D01*
X77152755Y-66210000D02*
X77152755Y-71128000D01*
X77192755Y-58443000D02*
X77192755Y-63330000D01*
X77192755Y-66210000D02*
X77192755Y-71097000D01*
X77232755Y-58475000D02*
X77232755Y-63330000D01*
X77232755Y-66210000D02*
X77232755Y-71065000D01*
X77272755Y-58508000D02*
X77272755Y-63330000D01*
X77272755Y-66210000D02*
X77272755Y-71032000D01*
X77312755Y-58540000D02*
X77312755Y-63330000D01*
X77312755Y-66210000D02*
X77312755Y-71000000D01*
X77352755Y-58573000D02*
X77352755Y-70967000D01*
X77392755Y-58607000D02*
X77392755Y-70933000D01*
X77432755Y-58641000D02*
X77432755Y-70899000D01*
X77472755Y-58676000D02*
X77472755Y-70864000D01*
X77512755Y-58710000D02*
X77512755Y-70830000D01*
X77552755Y-58746000D02*
X77552755Y-70794000D01*
X77592755Y-58782000D02*
X77592755Y-70758000D01*
X77632755Y-58818000D02*
X77632755Y-70722000D01*
X77672755Y-58855000D02*
X77672755Y-70685000D01*
X77712755Y-58892000D02*
X77712755Y-70648000D01*
X77752755Y-58930000D02*
X77752755Y-70610000D01*
X77792755Y-58968000D02*
X77792755Y-70572000D01*
X77832755Y-59007000D02*
X77832755Y-70533000D01*
X77872755Y-59047000D02*
X77872755Y-70493000D01*
X77912755Y-59087000D02*
X77912755Y-70453000D01*
X77952755Y-59127000D02*
X77952755Y-70413000D01*
X77992755Y-59168000D02*
X77992755Y-70372000D01*
X78032755Y-59210000D02*
X78032755Y-70330000D01*
X78072755Y-59252000D02*
X78072755Y-70288000D01*
X78112755Y-59295000D02*
X78112755Y-70245000D01*
X78152755Y-59339000D02*
X78152755Y-70201000D01*
X78192755Y-59383000D02*
X78192755Y-70157000D01*
X78232755Y-59428000D02*
X78232755Y-70112000D01*
X78272755Y-59473000D02*
X78272755Y-70067000D01*
X78312755Y-59520000D02*
X78312755Y-70020000D01*
X78352755Y-59566000D02*
X78352755Y-69974000D01*
X78392755Y-59614000D02*
X78392755Y-69926000D01*
X78432755Y-59663000D02*
X78432755Y-69877000D01*
X78472755Y-59712000D02*
X78472755Y-69828000D01*
X78512755Y-59762000D02*
X78512755Y-69778000D01*
X78552755Y-59813000D02*
X78552755Y-69727000D01*
X78592755Y-59864000D02*
X78592755Y-69676000D01*
X78632755Y-59917000D02*
X78632755Y-69623000D01*
X78672755Y-59970000D02*
X78672755Y-69570000D01*
X78712755Y-60025000D02*
X78712755Y-69515000D01*
X78752755Y-60080000D02*
X78752755Y-69460000D01*
X78792755Y-60136000D02*
X78792755Y-69404000D01*
X78832755Y-60194000D02*
X78832755Y-69346000D01*
X78872755Y-60252000D02*
X78872755Y-69288000D01*
X78912755Y-60311000D02*
X78912755Y-69229000D01*
X78952755Y-60372000D02*
X78952755Y-69168000D01*
X78992755Y-60434000D02*
X78992755Y-69106000D01*
X79032755Y-60497000D02*
X79032755Y-69043000D01*
X79072755Y-60562000D02*
X79072755Y-68978000D01*
X79112755Y-60628000D02*
X79112755Y-68912000D01*
X79152755Y-60695000D02*
X79152755Y-68845000D01*
X79192755Y-60764000D02*
X79192755Y-68776000D01*
X79232755Y-60834000D02*
X79232755Y-68706000D01*
X79272755Y-60906000D02*
X79272755Y-68634000D01*
X79312755Y-60980000D02*
X79312755Y-68560000D01*
X79352755Y-61056000D02*
X79352755Y-68484000D01*
X79392755Y-61133000D02*
X79392755Y-68407000D01*
X79432755Y-61213000D02*
X79432755Y-68327000D01*
X79472755Y-61295000D02*
X79472755Y-68245000D01*
X79512755Y-61380000D02*
X79512755Y-68160000D01*
X79552755Y-61467000D02*
X79552755Y-68073000D01*
X79592755Y-61557000D02*
X79592755Y-67983000D01*
X79632755Y-61650000D02*
X79632755Y-67890000D01*
X79672755Y-61747000D02*
X79672755Y-67793000D01*
X79712755Y-61847000D02*
X79712755Y-67693000D01*
X79752755Y-61951000D02*
X79752755Y-67589000D01*
X79792755Y-62060000D02*
X79792755Y-67480000D01*
X79832755Y-62173000D02*
X79832755Y-67367000D01*
X79872755Y-62293000D02*
X79872755Y-67247000D01*
X79912755Y-62419000D02*
X79912755Y-67121000D01*
X79952755Y-62553000D02*
X79952755Y-66987000D01*
X79992755Y-62696000D02*
X79992755Y-66844000D01*
X80032755Y-62850000D02*
X80032755Y-66690000D01*
X80072755Y-63019000D02*
X80072755Y-66521000D01*
X80112755Y-63206000D02*
X80112755Y-66334000D01*
X80152755Y-63419000D02*
X80152755Y-66121000D01*
X80192755Y-63673000D02*
X80192755Y-65867000D01*
X80232755Y-64005000D02*
X80232755Y-65535000D01*
X80272755Y-64770000D02*
G75*
G02*
X64032755Y-64770000I-8120000J0D01*
G01*
X64032755Y-64770000D02*
G75*
G02*
X80272755Y-64770000I8120000J0D01*
G01*
%TO.C,C15*%
X45141755Y-79265000D02*
X46741755Y-79265000D01*
X45941755Y-78465000D02*
X45941755Y-80065000D01*
X53831246Y-75740000D02*
X53831246Y-91900000D01*
X53871246Y-75740000D02*
X53871246Y-91900000D01*
X53911246Y-75740000D02*
X53911246Y-91900000D01*
X53951246Y-75741000D02*
X53951246Y-91899000D01*
X53991246Y-75742000D02*
X53991246Y-91898000D01*
X54031246Y-75742000D02*
X54031246Y-91898000D01*
X54071246Y-75744000D02*
X54071246Y-91896000D01*
X54111246Y-75745000D02*
X54111246Y-91895000D01*
X54151246Y-75746000D02*
X54151246Y-91894000D01*
X54191246Y-75748000D02*
X54191246Y-91892000D01*
X54231246Y-75750000D02*
X54231246Y-91890000D01*
X54271246Y-75752000D02*
X54271246Y-91888000D01*
X54311246Y-75754000D02*
X54311246Y-91886000D01*
X54351246Y-75757000D02*
X54351246Y-91883000D01*
X54391246Y-75759000D02*
X54391246Y-91881000D01*
X54431246Y-75762000D02*
X54431246Y-91878000D01*
X54471246Y-75765000D02*
X54471246Y-91875000D01*
X54511246Y-75769000D02*
X54511246Y-91871000D01*
X54551246Y-75772000D02*
X54551246Y-91868000D01*
X54591246Y-75776000D02*
X54591246Y-91864000D01*
X54631246Y-75780000D02*
X54631246Y-91860000D01*
X54671246Y-75784000D02*
X54671246Y-91856000D01*
X54711246Y-75788000D02*
X54711246Y-91852000D01*
X54751246Y-75792000D02*
X54751246Y-91848000D01*
X54791246Y-75797000D02*
X54791246Y-91843000D01*
X54831246Y-75802000D02*
X54831246Y-91838000D01*
X54871246Y-75807000D02*
X54871246Y-91833000D01*
X54911246Y-75812000D02*
X54911246Y-91828000D01*
X54951246Y-75818000D02*
X54951246Y-91822000D01*
X54991246Y-75823000D02*
X54991246Y-91817000D01*
X55031246Y-75829000D02*
X55031246Y-91811000D01*
X55071246Y-75835000D02*
X55071246Y-91805000D01*
X55111246Y-75842000D02*
X55111246Y-91798000D01*
X55151246Y-75848000D02*
X55151246Y-91792000D01*
X55191246Y-75855000D02*
X55191246Y-91785000D01*
X55231246Y-75862000D02*
X55231246Y-91778000D01*
X55271246Y-75869000D02*
X55271246Y-91771000D01*
X55311246Y-75876000D02*
X55311246Y-91764000D01*
X55351246Y-75884000D02*
X55351246Y-91756000D01*
X55391246Y-75891000D02*
X55391246Y-91749000D01*
X55431246Y-75899000D02*
X55431246Y-91741000D01*
X55471246Y-75907000D02*
X55471246Y-91733000D01*
X55511246Y-75916000D02*
X55511246Y-91724000D01*
X55551246Y-75924000D02*
X55551246Y-91716000D01*
X55591246Y-75933000D02*
X55591246Y-91707000D01*
X55631246Y-75942000D02*
X55631246Y-91698000D01*
X55671246Y-75951000D02*
X55671246Y-91689000D01*
X55711246Y-75961000D02*
X55711246Y-91679000D01*
X55751246Y-75970000D02*
X55751246Y-91670000D01*
X55791246Y-75980000D02*
X55791246Y-91660000D01*
X55831246Y-75990000D02*
X55831246Y-91650000D01*
X55871246Y-76000000D02*
X55871246Y-91640000D01*
X55911246Y-76011000D02*
X55911246Y-91629000D01*
X55951246Y-76022000D02*
X55951246Y-91618000D01*
X55991246Y-76033000D02*
X55991246Y-91607000D01*
X56031246Y-76044000D02*
X56031246Y-91596000D01*
X56071246Y-76055000D02*
X56071246Y-91585000D01*
X56111246Y-76067000D02*
X56111246Y-91573000D01*
X56151246Y-76078000D02*
X56151246Y-82380000D01*
X56151246Y-85260000D02*
X56151246Y-91562000D01*
X56191246Y-76091000D02*
X56191246Y-82380000D01*
X56191246Y-85260000D02*
X56191246Y-91549000D01*
X56231246Y-76103000D02*
X56231246Y-82380000D01*
X56231246Y-85260000D02*
X56231246Y-91537000D01*
X56271246Y-76115000D02*
X56271246Y-82380000D01*
X56271246Y-85260000D02*
X56271246Y-91525000D01*
X56311246Y-76128000D02*
X56311246Y-82380000D01*
X56311246Y-85260000D02*
X56311246Y-91512000D01*
X56351246Y-76141000D02*
X56351246Y-82380000D01*
X56351246Y-85260000D02*
X56351246Y-91499000D01*
X56391246Y-76154000D02*
X56391246Y-82380000D01*
X56391246Y-85260000D02*
X56391246Y-91486000D01*
X56431246Y-76168000D02*
X56431246Y-82380000D01*
X56431246Y-85260000D02*
X56431246Y-91472000D01*
X56471246Y-76181000D02*
X56471246Y-82380000D01*
X56471246Y-85260000D02*
X56471246Y-91459000D01*
X56511246Y-76195000D02*
X56511246Y-82380000D01*
X56511246Y-85260000D02*
X56511246Y-91445000D01*
X56551246Y-76209000D02*
X56551246Y-82380000D01*
X56551246Y-85260000D02*
X56551246Y-91431000D01*
X56591246Y-76223000D02*
X56591246Y-82380000D01*
X56591246Y-85260000D02*
X56591246Y-91417000D01*
X56631246Y-76238000D02*
X56631246Y-82380000D01*
X56631246Y-85260000D02*
X56631246Y-91402000D01*
X56671246Y-76253000D02*
X56671246Y-82380000D01*
X56671246Y-85260000D02*
X56671246Y-91387000D01*
X56711246Y-76268000D02*
X56711246Y-82380000D01*
X56711246Y-85260000D02*
X56711246Y-91372000D01*
X56751246Y-76283000D02*
X56751246Y-82380000D01*
X56751246Y-85260000D02*
X56751246Y-91357000D01*
X56791246Y-76299000D02*
X56791246Y-82380000D01*
X56791246Y-85260000D02*
X56791246Y-91341000D01*
X56831246Y-76315000D02*
X56831246Y-82380000D01*
X56831246Y-85260000D02*
X56831246Y-91325000D01*
X56871246Y-76331000D02*
X56871246Y-82380000D01*
X56871246Y-85260000D02*
X56871246Y-91309000D01*
X56911246Y-76347000D02*
X56911246Y-82380000D01*
X56911246Y-85260000D02*
X56911246Y-91293000D01*
X56951246Y-76363000D02*
X56951246Y-82380000D01*
X56951246Y-85260000D02*
X56951246Y-91277000D01*
X56991246Y-76380000D02*
X56991246Y-82380000D01*
X56991246Y-85260000D02*
X56991246Y-91260000D01*
X57031246Y-76397000D02*
X57031246Y-82380000D01*
X57031246Y-85260000D02*
X57031246Y-91243000D01*
X57071246Y-76414000D02*
X57071246Y-82380000D01*
X57071246Y-85260000D02*
X57071246Y-91226000D01*
X57111246Y-76432000D02*
X57111246Y-82380000D01*
X57111246Y-85260000D02*
X57111246Y-91208000D01*
X57151246Y-76450000D02*
X57151246Y-82380000D01*
X57151246Y-85260000D02*
X57151246Y-91190000D01*
X57191246Y-76468000D02*
X57191246Y-82380000D01*
X57191246Y-85260000D02*
X57191246Y-91172000D01*
X57231246Y-76486000D02*
X57231246Y-82380000D01*
X57231246Y-85260000D02*
X57231246Y-91154000D01*
X57271246Y-76505000D02*
X57271246Y-82380000D01*
X57271246Y-85260000D02*
X57271246Y-91135000D01*
X57311246Y-76524000D02*
X57311246Y-82380000D01*
X57311246Y-85260000D02*
X57311246Y-91116000D01*
X57351246Y-76543000D02*
X57351246Y-82380000D01*
X57351246Y-85260000D02*
X57351246Y-91097000D01*
X57391246Y-76562000D02*
X57391246Y-82380000D01*
X57391246Y-85260000D02*
X57391246Y-91078000D01*
X57431246Y-76582000D02*
X57431246Y-82380000D01*
X57431246Y-85260000D02*
X57431246Y-91058000D01*
X57471246Y-76602000D02*
X57471246Y-82380000D01*
X57471246Y-85260000D02*
X57471246Y-91038000D01*
X57511246Y-76622000D02*
X57511246Y-82380000D01*
X57511246Y-85260000D02*
X57511246Y-91018000D01*
X57551246Y-76642000D02*
X57551246Y-82380000D01*
X57551246Y-85260000D02*
X57551246Y-90998000D01*
X57591246Y-76663000D02*
X57591246Y-82380000D01*
X57591246Y-85260000D02*
X57591246Y-90977000D01*
X57631246Y-76684000D02*
X57631246Y-82380000D01*
X57631246Y-85260000D02*
X57631246Y-90956000D01*
X57671246Y-76705000D02*
X57671246Y-82380000D01*
X57671246Y-85260000D02*
X57671246Y-90935000D01*
X57711246Y-76727000D02*
X57711246Y-82380000D01*
X57711246Y-85260000D02*
X57711246Y-90913000D01*
X57751246Y-76749000D02*
X57751246Y-82380000D01*
X57751246Y-85260000D02*
X57751246Y-90891000D01*
X57791246Y-76771000D02*
X57791246Y-82380000D01*
X57791246Y-85260000D02*
X57791246Y-90869000D01*
X57831246Y-76794000D02*
X57831246Y-82380000D01*
X57831246Y-85260000D02*
X57831246Y-90846000D01*
X57871246Y-76816000D02*
X57871246Y-82380000D01*
X57871246Y-85260000D02*
X57871246Y-90824000D01*
X57911246Y-76839000D02*
X57911246Y-82380000D01*
X57911246Y-85260000D02*
X57911246Y-90801000D01*
X57951246Y-76863000D02*
X57951246Y-82380000D01*
X57951246Y-85260000D02*
X57951246Y-90777000D01*
X57991246Y-76887000D02*
X57991246Y-82380000D01*
X57991246Y-85260000D02*
X57991246Y-90753000D01*
X58031246Y-76911000D02*
X58031246Y-82380000D01*
X58031246Y-85260000D02*
X58031246Y-90729000D01*
X58071246Y-76935000D02*
X58071246Y-82380000D01*
X58071246Y-85260000D02*
X58071246Y-90705000D01*
X58111246Y-76960000D02*
X58111246Y-82380000D01*
X58111246Y-85260000D02*
X58111246Y-90680000D01*
X58151246Y-76985000D02*
X58151246Y-82380000D01*
X58151246Y-85260000D02*
X58151246Y-90655000D01*
X58191246Y-77010000D02*
X58191246Y-82380000D01*
X58191246Y-85260000D02*
X58191246Y-90630000D01*
X58231246Y-77035000D02*
X58231246Y-82380000D01*
X58231246Y-85260000D02*
X58231246Y-90605000D01*
X58271246Y-77061000D02*
X58271246Y-82380000D01*
X58271246Y-85260000D02*
X58271246Y-90579000D01*
X58311246Y-77088000D02*
X58311246Y-82380000D01*
X58311246Y-85260000D02*
X58311246Y-90552000D01*
X58351246Y-77114000D02*
X58351246Y-82380000D01*
X58351246Y-85260000D02*
X58351246Y-90526000D01*
X58391246Y-77141000D02*
X58391246Y-82380000D01*
X58391246Y-85260000D02*
X58391246Y-90499000D01*
X58431246Y-77169000D02*
X58431246Y-82380000D01*
X58431246Y-85260000D02*
X58431246Y-90471000D01*
X58471246Y-77196000D02*
X58471246Y-82380000D01*
X58471246Y-85260000D02*
X58471246Y-90444000D01*
X58511246Y-77224000D02*
X58511246Y-82380000D01*
X58511246Y-85260000D02*
X58511246Y-90416000D01*
X58551246Y-77253000D02*
X58551246Y-82380000D01*
X58551246Y-85260000D02*
X58551246Y-90387000D01*
X58591246Y-77281000D02*
X58591246Y-82380000D01*
X58591246Y-85260000D02*
X58591246Y-90359000D01*
X58631246Y-77311000D02*
X58631246Y-82380000D01*
X58631246Y-85260000D02*
X58631246Y-90329000D01*
X58671246Y-77340000D02*
X58671246Y-82380000D01*
X58671246Y-85260000D02*
X58671246Y-90300000D01*
X58711246Y-77370000D02*
X58711246Y-82380000D01*
X58711246Y-85260000D02*
X58711246Y-90270000D01*
X58751246Y-77400000D02*
X58751246Y-82380000D01*
X58751246Y-85260000D02*
X58751246Y-90240000D01*
X58791246Y-77431000D02*
X58791246Y-82380000D01*
X58791246Y-85260000D02*
X58791246Y-90209000D01*
X58831246Y-77462000D02*
X58831246Y-82380000D01*
X58831246Y-85260000D02*
X58831246Y-90178000D01*
X58871246Y-77493000D02*
X58871246Y-82380000D01*
X58871246Y-85260000D02*
X58871246Y-90147000D01*
X58911246Y-77525000D02*
X58911246Y-82380000D01*
X58911246Y-85260000D02*
X58911246Y-90115000D01*
X58951246Y-77558000D02*
X58951246Y-82380000D01*
X58951246Y-85260000D02*
X58951246Y-90082000D01*
X58991246Y-77590000D02*
X58991246Y-82380000D01*
X58991246Y-85260000D02*
X58991246Y-90050000D01*
X59031246Y-77623000D02*
X59031246Y-90017000D01*
X59071246Y-77657000D02*
X59071246Y-89983000D01*
X59111246Y-77691000D02*
X59111246Y-89949000D01*
X59151246Y-77726000D02*
X59151246Y-89914000D01*
X59191246Y-77760000D02*
X59191246Y-89880000D01*
X59231246Y-77796000D02*
X59231246Y-89844000D01*
X59271246Y-77832000D02*
X59271246Y-89808000D01*
X59311246Y-77868000D02*
X59311246Y-89772000D01*
X59351246Y-77905000D02*
X59351246Y-89735000D01*
X59391246Y-77942000D02*
X59391246Y-89698000D01*
X59431246Y-77980000D02*
X59431246Y-89660000D01*
X59471246Y-78018000D02*
X59471246Y-89622000D01*
X59511246Y-78057000D02*
X59511246Y-89583000D01*
X59551246Y-78097000D02*
X59551246Y-89543000D01*
X59591246Y-78137000D02*
X59591246Y-89503000D01*
X59631246Y-78177000D02*
X59631246Y-89463000D01*
X59671246Y-78218000D02*
X59671246Y-89422000D01*
X59711246Y-78260000D02*
X59711246Y-89380000D01*
X59751246Y-78302000D02*
X59751246Y-89338000D01*
X59791246Y-78345000D02*
X59791246Y-89295000D01*
X59831246Y-78389000D02*
X59831246Y-89251000D01*
X59871246Y-78433000D02*
X59871246Y-89207000D01*
X59911246Y-78478000D02*
X59911246Y-89162000D01*
X59951246Y-78523000D02*
X59951246Y-89117000D01*
X59991246Y-78570000D02*
X59991246Y-89070000D01*
X60031246Y-78616000D02*
X60031246Y-89024000D01*
X60071246Y-78664000D02*
X60071246Y-88976000D01*
X60111246Y-78713000D02*
X60111246Y-88927000D01*
X60151246Y-78762000D02*
X60151246Y-88878000D01*
X60191246Y-78812000D02*
X60191246Y-88828000D01*
X60231246Y-78863000D02*
X60231246Y-88777000D01*
X60271246Y-78914000D02*
X60271246Y-88726000D01*
X60311246Y-78967000D02*
X60311246Y-88673000D01*
X60351246Y-79020000D02*
X60351246Y-88620000D01*
X60391246Y-79075000D02*
X60391246Y-88565000D01*
X60431246Y-79130000D02*
X60431246Y-88510000D01*
X60471246Y-79186000D02*
X60471246Y-88454000D01*
X60511246Y-79244000D02*
X60511246Y-88396000D01*
X60551246Y-79302000D02*
X60551246Y-88338000D01*
X60591246Y-79361000D02*
X60591246Y-88279000D01*
X60631246Y-79422000D02*
X60631246Y-88218000D01*
X60671246Y-79484000D02*
X60671246Y-88156000D01*
X60711246Y-79547000D02*
X60711246Y-88093000D01*
X60751246Y-79612000D02*
X60751246Y-88028000D01*
X60791246Y-79678000D02*
X60791246Y-87962000D01*
X60831246Y-79745000D02*
X60831246Y-87895000D01*
X60871246Y-79814000D02*
X60871246Y-87826000D01*
X60911246Y-79884000D02*
X60911246Y-87756000D01*
X60951246Y-79956000D02*
X60951246Y-87684000D01*
X60991246Y-80030000D02*
X60991246Y-87610000D01*
X61031246Y-80106000D02*
X61031246Y-87534000D01*
X61071246Y-80183000D02*
X61071246Y-87457000D01*
X61111246Y-80263000D02*
X61111246Y-87377000D01*
X61151246Y-80345000D02*
X61151246Y-87295000D01*
X61191246Y-80430000D02*
X61191246Y-87210000D01*
X61231246Y-80517000D02*
X61231246Y-87123000D01*
X61271246Y-80607000D02*
X61271246Y-87033000D01*
X61311246Y-80700000D02*
X61311246Y-86940000D01*
X61351246Y-80797000D02*
X61351246Y-86843000D01*
X61391246Y-80897000D02*
X61391246Y-86743000D01*
X61431246Y-81001000D02*
X61431246Y-86639000D01*
X61471246Y-81110000D02*
X61471246Y-86530000D01*
X61511246Y-81223000D02*
X61511246Y-86417000D01*
X61551246Y-81343000D02*
X61551246Y-86297000D01*
X61591246Y-81469000D02*
X61591246Y-86171000D01*
X61631246Y-81603000D02*
X61631246Y-86037000D01*
X61671246Y-81746000D02*
X61671246Y-85894000D01*
X61711246Y-81900000D02*
X61711246Y-85740000D01*
X61751246Y-82069000D02*
X61751246Y-85571000D01*
X61791246Y-82256000D02*
X61791246Y-85384000D01*
X61831246Y-82469000D02*
X61831246Y-85171000D01*
X61871246Y-82723000D02*
X61871246Y-84917000D01*
X61911246Y-83055000D02*
X61911246Y-84585000D01*
X61951246Y-83820000D02*
G75*
G02*
X45711246Y-83820000I-8120000J0D01*
G01*
X45711246Y-83820000D02*
G75*
G02*
X61951246Y-83820000I8120000J0D01*
G01*
%TO.C,D5*%
X41710000Y-25220000D02*
X41710000Y-30660000D01*
X41710000Y-29640000D02*
X44650000Y-29640000D01*
X41710000Y-29760000D02*
X44650000Y-29760000D01*
X41710000Y-29880000D02*
X44650000Y-29880000D01*
X41710000Y-30660000D02*
X44650000Y-30660000D01*
X43180000Y-24200000D02*
X43180000Y-25220000D01*
X43180000Y-31680000D02*
X43180000Y-30660000D01*
X44650000Y-25220000D02*
X41710000Y-25220000D01*
X44650000Y-30660000D02*
X44650000Y-25220000D01*
%TO.C,U5*%
X46159000Y-100330000D02*
X46159000Y-110570000D01*
X49290000Y-100330000D02*
X49290000Y-110570000D01*
X50800000Y-100330000D02*
X46159000Y-100330000D01*
X50800000Y-100330000D02*
X50800000Y-110570000D01*
X50800000Y-103600000D02*
X49290000Y-103600000D01*
X50800000Y-107301000D02*
X49290000Y-107301000D01*
X50800000Y-110570000D02*
X46159000Y-110570000D01*
%TO.C,J1*%
X63980000Y-19220000D02*
X73180000Y-19220000D01*
X63980000Y-28020000D02*
X63980000Y-19220000D01*
X63980000Y-33920000D02*
X63980000Y-32020000D01*
X66680000Y-33920000D02*
X63980000Y-33920000D01*
X72330000Y-34120000D02*
X73380000Y-34120000D01*
X73180000Y-19220000D02*
X73180000Y-33920000D01*
X73180000Y-33920000D02*
X70580000Y-33920000D01*
X73380000Y-33070000D02*
X73380000Y-34120000D01*
%TO.C,J2*%
X46620000Y-124796000D02*
X46620000Y-131536000D01*
X46620000Y-124796000D02*
X57520000Y-124796000D01*
X46620000Y-126516000D02*
X57520000Y-126516000D01*
X46620000Y-129616000D02*
X57520000Y-129616000D01*
X46620000Y-130616000D02*
X57520000Y-130616000D01*
X46620000Y-131536000D02*
X47960000Y-131536000D01*
X48560000Y-131536000D02*
X57520000Y-131536000D01*
X57520000Y-124796000D02*
X57520000Y-131536000D01*
X48700000Y-132146000D02*
X47820000Y-132146000D01*
X48260000Y-131536000D01*
X48700000Y-132146000D01*
G36*
X48700000Y-132146000D02*
G01*
X47820000Y-132146000D01*
X48260000Y-131536000D01*
X48700000Y-132146000D01*
G37*
%TO.C,D6*%
X48330000Y-120650000D02*
X49350000Y-120650000D01*
X49350000Y-119180000D02*
X49350000Y-122120000D01*
X49350000Y-122120000D02*
X54790000Y-122120000D01*
X50130000Y-119180000D02*
X50130000Y-122120000D01*
X50250000Y-119180000D02*
X50250000Y-122120000D01*
X50370000Y-119180000D02*
X50370000Y-122120000D01*
X54790000Y-119180000D02*
X49350000Y-119180000D01*
X54790000Y-122120000D02*
X54790000Y-119180000D01*
X55810000Y-120650000D02*
X54790000Y-120650000D01*
%TO.C,D3*%
X31820000Y-120650000D02*
X32840000Y-120650000D01*
X32840000Y-119180000D02*
X32840000Y-122120000D01*
X32840000Y-122120000D02*
X38280000Y-122120000D01*
X33620000Y-119180000D02*
X33620000Y-122120000D01*
X33740000Y-119180000D02*
X33740000Y-122120000D01*
X33860000Y-119180000D02*
X33860000Y-122120000D01*
X38280000Y-119180000D02*
X32840000Y-119180000D01*
X38280000Y-122120000D02*
X38280000Y-119180000D01*
X39300000Y-120650000D02*
X38280000Y-120650000D01*
%TO.C,C10*%
X64040199Y-112597000D02*
X64440199Y-112597000D01*
X64240199Y-112397000D02*
X64240199Y-112797000D01*
X66310000Y-111712000D02*
X66310000Y-115872000D01*
X66350000Y-111712000D02*
X66350000Y-115872000D01*
X66390000Y-111714000D02*
X66390000Y-115870000D01*
X66430000Y-111715000D02*
X66430000Y-115869000D01*
X66470000Y-111718000D02*
X66470000Y-115866000D01*
X66510000Y-111721000D02*
X66510000Y-112952000D01*
X66510000Y-114632000D02*
X66510000Y-115863000D01*
X66550000Y-111726000D02*
X66550000Y-112952000D01*
X66550000Y-114632000D02*
X66550000Y-115858000D01*
X66590000Y-111731000D02*
X66590000Y-112952000D01*
X66590000Y-114632000D02*
X66590000Y-115853000D01*
X66630000Y-111736000D02*
X66630000Y-112952000D01*
X66630000Y-114632000D02*
X66630000Y-115848000D01*
X66670000Y-111743000D02*
X66670000Y-112952000D01*
X66670000Y-114632000D02*
X66670000Y-115841000D01*
X66710000Y-111750000D02*
X66710000Y-112952000D01*
X66710000Y-114632000D02*
X66710000Y-115834000D01*
X66750000Y-111758000D02*
X66750000Y-112952000D01*
X66750000Y-114632000D02*
X66750000Y-115826000D01*
X66790000Y-111767000D02*
X66790000Y-112952000D01*
X66790000Y-114632000D02*
X66790000Y-115817000D01*
X66830000Y-111777000D02*
X66830000Y-112952000D01*
X66830000Y-114632000D02*
X66830000Y-115807000D01*
X66870000Y-111787000D02*
X66870000Y-112952000D01*
X66870000Y-114632000D02*
X66870000Y-115797000D01*
X66910000Y-111799000D02*
X66910000Y-112952000D01*
X66910000Y-114632000D02*
X66910000Y-115785000D01*
X66950000Y-111811000D02*
X66950000Y-112952000D01*
X66950000Y-114632000D02*
X66950000Y-115773000D01*
X66990000Y-111824000D02*
X66990000Y-112952000D01*
X66990000Y-114632000D02*
X66990000Y-115760000D01*
X67030000Y-111838000D02*
X67030000Y-112952000D01*
X67030000Y-114632000D02*
X67030000Y-115746000D01*
X67070000Y-111853000D02*
X67070000Y-112952000D01*
X67070000Y-114632000D02*
X67070000Y-115731000D01*
X67110000Y-111869000D02*
X67110000Y-112952000D01*
X67110000Y-114632000D02*
X67110000Y-115715000D01*
X67150000Y-111886000D02*
X67150000Y-112952000D01*
X67150000Y-114632000D02*
X67150000Y-115698000D01*
X67190000Y-111903000D02*
X67190000Y-112952000D01*
X67190000Y-114632000D02*
X67190000Y-115681000D01*
X67230000Y-111922000D02*
X67230000Y-112952000D01*
X67230000Y-114632000D02*
X67230000Y-115662000D01*
X67270000Y-111942000D02*
X67270000Y-112952000D01*
X67270000Y-114632000D02*
X67270000Y-115642000D01*
X67310000Y-111963000D02*
X67310000Y-112952000D01*
X67310000Y-114632000D02*
X67310000Y-115621000D01*
X67350000Y-111985000D02*
X67350000Y-112952000D01*
X67350000Y-114632000D02*
X67350000Y-115599000D01*
X67390000Y-112008000D02*
X67390000Y-112952000D01*
X67390000Y-114632000D02*
X67390000Y-115576000D01*
X67430000Y-112032000D02*
X67430000Y-112952000D01*
X67430000Y-114632000D02*
X67430000Y-115552000D01*
X67470000Y-112058000D02*
X67470000Y-112952000D01*
X67470000Y-114632000D02*
X67470000Y-115526000D01*
X67510000Y-112084000D02*
X67510000Y-112952000D01*
X67510000Y-114632000D02*
X67510000Y-115500000D01*
X67550000Y-112112000D02*
X67550000Y-112952000D01*
X67550000Y-114632000D02*
X67550000Y-115472000D01*
X67590000Y-112142000D02*
X67590000Y-112952000D01*
X67590000Y-114632000D02*
X67590000Y-115442000D01*
X67630000Y-112173000D02*
X67630000Y-112952000D01*
X67630000Y-114632000D02*
X67630000Y-115411000D01*
X67670000Y-112206000D02*
X67670000Y-112952000D01*
X67670000Y-114632000D02*
X67670000Y-115378000D01*
X67710000Y-112240000D02*
X67710000Y-112952000D01*
X67710000Y-114632000D02*
X67710000Y-115344000D01*
X67750000Y-112276000D02*
X67750000Y-112952000D01*
X67750000Y-114632000D02*
X67750000Y-115308000D01*
X67790000Y-112314000D02*
X67790000Y-112952000D01*
X67790000Y-114632000D02*
X67790000Y-115270000D01*
X67830000Y-112354000D02*
X67830000Y-112952000D01*
X67830000Y-114632000D02*
X67830000Y-115230000D01*
X67870000Y-112396000D02*
X67870000Y-112952000D01*
X67870000Y-114632000D02*
X67870000Y-115188000D01*
X67910000Y-112441000D02*
X67910000Y-112952000D01*
X67910000Y-114632000D02*
X67910000Y-115143000D01*
X67950000Y-112489000D02*
X67950000Y-112952000D01*
X67950000Y-114632000D02*
X67950000Y-115095000D01*
X67990000Y-112539000D02*
X67990000Y-112952000D01*
X67990000Y-114632000D02*
X67990000Y-115045000D01*
X68030000Y-112593000D02*
X68030000Y-112952000D01*
X68030000Y-114632000D02*
X68030000Y-114991000D01*
X68070000Y-112650000D02*
X68070000Y-112952000D01*
X68070000Y-114632000D02*
X68070000Y-114934000D01*
X68110000Y-112712000D02*
X68110000Y-112952000D01*
X68110000Y-114632000D02*
X68110000Y-114872000D01*
X68150000Y-112779000D02*
X68150000Y-114805000D01*
X68190000Y-112852000D02*
X68190000Y-114732000D01*
X68230000Y-112933000D02*
X68230000Y-114651000D01*
X68270000Y-113024000D02*
X68270000Y-114560000D01*
X68310000Y-113129000D02*
X68310000Y-114455000D01*
X68350000Y-113255000D02*
X68350000Y-114329000D01*
X68390000Y-113422000D02*
X68390000Y-114162000D01*
X68430000Y-113792000D02*
G75*
G02*
X64190000Y-113792000I-2120000J0D01*
G01*
X64190000Y-113792000D02*
G75*
G02*
X68430000Y-113792000I2120000J0D01*
G01*
%TO.C,C3*%
X26850509Y-79265000D02*
X28450509Y-79265000D01*
X27650509Y-78465000D02*
X27650509Y-80065000D01*
X35540000Y-75740000D02*
X35540000Y-91900000D01*
X35580000Y-75740000D02*
X35580000Y-91900000D01*
X35620000Y-75740000D02*
X35620000Y-91900000D01*
X35660000Y-75741000D02*
X35660000Y-91899000D01*
X35700000Y-75742000D02*
X35700000Y-91898000D01*
X35740000Y-75742000D02*
X35740000Y-91898000D01*
X35780000Y-75744000D02*
X35780000Y-91896000D01*
X35820000Y-75745000D02*
X35820000Y-91895000D01*
X35860000Y-75746000D02*
X35860000Y-91894000D01*
X35900000Y-75748000D02*
X35900000Y-91892000D01*
X35940000Y-75750000D02*
X35940000Y-91890000D01*
X35980000Y-75752000D02*
X35980000Y-91888000D01*
X36020000Y-75754000D02*
X36020000Y-91886000D01*
X36060000Y-75757000D02*
X36060000Y-91883000D01*
X36100000Y-75759000D02*
X36100000Y-91881000D01*
X36140000Y-75762000D02*
X36140000Y-91878000D01*
X36180000Y-75765000D02*
X36180000Y-91875000D01*
X36220000Y-75769000D02*
X36220000Y-91871000D01*
X36260000Y-75772000D02*
X36260000Y-91868000D01*
X36300000Y-75776000D02*
X36300000Y-91864000D01*
X36340000Y-75780000D02*
X36340000Y-91860000D01*
X36380000Y-75784000D02*
X36380000Y-91856000D01*
X36420000Y-75788000D02*
X36420000Y-91852000D01*
X36460000Y-75792000D02*
X36460000Y-91848000D01*
X36500000Y-75797000D02*
X36500000Y-91843000D01*
X36540000Y-75802000D02*
X36540000Y-91838000D01*
X36580000Y-75807000D02*
X36580000Y-91833000D01*
X36620000Y-75812000D02*
X36620000Y-91828000D01*
X36660000Y-75818000D02*
X36660000Y-91822000D01*
X36700000Y-75823000D02*
X36700000Y-91817000D01*
X36740000Y-75829000D02*
X36740000Y-91811000D01*
X36780000Y-75835000D02*
X36780000Y-91805000D01*
X36820000Y-75842000D02*
X36820000Y-91798000D01*
X36860000Y-75848000D02*
X36860000Y-91792000D01*
X36900000Y-75855000D02*
X36900000Y-91785000D01*
X36940000Y-75862000D02*
X36940000Y-91778000D01*
X36980000Y-75869000D02*
X36980000Y-91771000D01*
X37020000Y-75876000D02*
X37020000Y-91764000D01*
X37060000Y-75884000D02*
X37060000Y-91756000D01*
X37100000Y-75891000D02*
X37100000Y-91749000D01*
X37140000Y-75899000D02*
X37140000Y-91741000D01*
X37180000Y-75907000D02*
X37180000Y-91733000D01*
X37220000Y-75916000D02*
X37220000Y-91724000D01*
X37260000Y-75924000D02*
X37260000Y-91716000D01*
X37300000Y-75933000D02*
X37300000Y-91707000D01*
X37340000Y-75942000D02*
X37340000Y-91698000D01*
X37380000Y-75951000D02*
X37380000Y-91689000D01*
X37420000Y-75961000D02*
X37420000Y-91679000D01*
X37460000Y-75970000D02*
X37460000Y-91670000D01*
X37500000Y-75980000D02*
X37500000Y-91660000D01*
X37540000Y-75990000D02*
X37540000Y-91650000D01*
X37580000Y-76000000D02*
X37580000Y-91640000D01*
X37620000Y-76011000D02*
X37620000Y-91629000D01*
X37660000Y-76022000D02*
X37660000Y-91618000D01*
X37700000Y-76033000D02*
X37700000Y-91607000D01*
X37740000Y-76044000D02*
X37740000Y-91596000D01*
X37780000Y-76055000D02*
X37780000Y-91585000D01*
X37820000Y-76067000D02*
X37820000Y-91573000D01*
X37860000Y-76078000D02*
X37860000Y-82380000D01*
X37860000Y-85260000D02*
X37860000Y-91562000D01*
X37900000Y-76091000D02*
X37900000Y-82380000D01*
X37900000Y-85260000D02*
X37900000Y-91549000D01*
X37940000Y-76103000D02*
X37940000Y-82380000D01*
X37940000Y-85260000D02*
X37940000Y-91537000D01*
X37980000Y-76115000D02*
X37980000Y-82380000D01*
X37980000Y-85260000D02*
X37980000Y-91525000D01*
X38020000Y-76128000D02*
X38020000Y-82380000D01*
X38020000Y-85260000D02*
X38020000Y-91512000D01*
X38060000Y-76141000D02*
X38060000Y-82380000D01*
X38060000Y-85260000D02*
X38060000Y-91499000D01*
X38100000Y-76154000D02*
X38100000Y-82380000D01*
X38100000Y-85260000D02*
X38100000Y-91486000D01*
X38140000Y-76168000D02*
X38140000Y-82380000D01*
X38140000Y-85260000D02*
X38140000Y-91472000D01*
X38180000Y-76181000D02*
X38180000Y-82380000D01*
X38180000Y-85260000D02*
X38180000Y-91459000D01*
X38220000Y-76195000D02*
X38220000Y-82380000D01*
X38220000Y-85260000D02*
X38220000Y-91445000D01*
X38260000Y-76209000D02*
X38260000Y-82380000D01*
X38260000Y-85260000D02*
X38260000Y-91431000D01*
X38300000Y-76223000D02*
X38300000Y-82380000D01*
X38300000Y-85260000D02*
X38300000Y-91417000D01*
X38340000Y-76238000D02*
X38340000Y-82380000D01*
X38340000Y-85260000D02*
X38340000Y-91402000D01*
X38380000Y-76253000D02*
X38380000Y-82380000D01*
X38380000Y-85260000D02*
X38380000Y-91387000D01*
X38420000Y-76268000D02*
X38420000Y-82380000D01*
X38420000Y-85260000D02*
X38420000Y-91372000D01*
X38460000Y-76283000D02*
X38460000Y-82380000D01*
X38460000Y-85260000D02*
X38460000Y-91357000D01*
X38500000Y-76299000D02*
X38500000Y-82380000D01*
X38500000Y-85260000D02*
X38500000Y-91341000D01*
X38540000Y-76315000D02*
X38540000Y-82380000D01*
X38540000Y-85260000D02*
X38540000Y-91325000D01*
X38580000Y-76331000D02*
X38580000Y-82380000D01*
X38580000Y-85260000D02*
X38580000Y-91309000D01*
X38620000Y-76347000D02*
X38620000Y-82380000D01*
X38620000Y-85260000D02*
X38620000Y-91293000D01*
X38660000Y-76363000D02*
X38660000Y-82380000D01*
X38660000Y-85260000D02*
X38660000Y-91277000D01*
X38700000Y-76380000D02*
X38700000Y-82380000D01*
X38700000Y-85260000D02*
X38700000Y-91260000D01*
X38740000Y-76397000D02*
X38740000Y-82380000D01*
X38740000Y-85260000D02*
X38740000Y-91243000D01*
X38780000Y-76414000D02*
X38780000Y-82380000D01*
X38780000Y-85260000D02*
X38780000Y-91226000D01*
X38820000Y-76432000D02*
X38820000Y-82380000D01*
X38820000Y-85260000D02*
X38820000Y-91208000D01*
X38860000Y-76450000D02*
X38860000Y-82380000D01*
X38860000Y-85260000D02*
X38860000Y-91190000D01*
X38900000Y-76468000D02*
X38900000Y-82380000D01*
X38900000Y-85260000D02*
X38900000Y-91172000D01*
X38940000Y-76486000D02*
X38940000Y-82380000D01*
X38940000Y-85260000D02*
X38940000Y-91154000D01*
X38980000Y-76505000D02*
X38980000Y-82380000D01*
X38980000Y-85260000D02*
X38980000Y-91135000D01*
X39020000Y-76524000D02*
X39020000Y-82380000D01*
X39020000Y-85260000D02*
X39020000Y-91116000D01*
X39060000Y-76543000D02*
X39060000Y-82380000D01*
X39060000Y-85260000D02*
X39060000Y-91097000D01*
X39100000Y-76562000D02*
X39100000Y-82380000D01*
X39100000Y-85260000D02*
X39100000Y-91078000D01*
X39140000Y-76582000D02*
X39140000Y-82380000D01*
X39140000Y-85260000D02*
X39140000Y-91058000D01*
X39180000Y-76602000D02*
X39180000Y-82380000D01*
X39180000Y-85260000D02*
X39180000Y-91038000D01*
X39220000Y-76622000D02*
X39220000Y-82380000D01*
X39220000Y-85260000D02*
X39220000Y-91018000D01*
X39260000Y-76642000D02*
X39260000Y-82380000D01*
X39260000Y-85260000D02*
X39260000Y-90998000D01*
X39300000Y-76663000D02*
X39300000Y-82380000D01*
X39300000Y-85260000D02*
X39300000Y-90977000D01*
X39340000Y-76684000D02*
X39340000Y-82380000D01*
X39340000Y-85260000D02*
X39340000Y-90956000D01*
X39380000Y-76705000D02*
X39380000Y-82380000D01*
X39380000Y-85260000D02*
X39380000Y-90935000D01*
X39420000Y-76727000D02*
X39420000Y-82380000D01*
X39420000Y-85260000D02*
X39420000Y-90913000D01*
X39460000Y-76749000D02*
X39460000Y-82380000D01*
X39460000Y-85260000D02*
X39460000Y-90891000D01*
X39500000Y-76771000D02*
X39500000Y-82380000D01*
X39500000Y-85260000D02*
X39500000Y-90869000D01*
X39540000Y-76794000D02*
X39540000Y-82380000D01*
X39540000Y-85260000D02*
X39540000Y-90846000D01*
X39580000Y-76816000D02*
X39580000Y-82380000D01*
X39580000Y-85260000D02*
X39580000Y-90824000D01*
X39620000Y-76839000D02*
X39620000Y-82380000D01*
X39620000Y-85260000D02*
X39620000Y-90801000D01*
X39660000Y-76863000D02*
X39660000Y-82380000D01*
X39660000Y-85260000D02*
X39660000Y-90777000D01*
X39700000Y-76887000D02*
X39700000Y-82380000D01*
X39700000Y-85260000D02*
X39700000Y-90753000D01*
X39740000Y-76911000D02*
X39740000Y-82380000D01*
X39740000Y-85260000D02*
X39740000Y-90729000D01*
X39780000Y-76935000D02*
X39780000Y-82380000D01*
X39780000Y-85260000D02*
X39780000Y-90705000D01*
X39820000Y-76960000D02*
X39820000Y-82380000D01*
X39820000Y-85260000D02*
X39820000Y-90680000D01*
X39860000Y-76985000D02*
X39860000Y-82380000D01*
X39860000Y-85260000D02*
X39860000Y-90655000D01*
X39900000Y-77010000D02*
X39900000Y-82380000D01*
X39900000Y-85260000D02*
X39900000Y-90630000D01*
X39940000Y-77035000D02*
X39940000Y-82380000D01*
X39940000Y-85260000D02*
X39940000Y-90605000D01*
X39980000Y-77061000D02*
X39980000Y-82380000D01*
X39980000Y-85260000D02*
X39980000Y-90579000D01*
X40020000Y-77088000D02*
X40020000Y-82380000D01*
X40020000Y-85260000D02*
X40020000Y-90552000D01*
X40060000Y-77114000D02*
X40060000Y-82380000D01*
X40060000Y-85260000D02*
X40060000Y-90526000D01*
X40100000Y-77141000D02*
X40100000Y-82380000D01*
X40100000Y-85260000D02*
X40100000Y-90499000D01*
X40140000Y-77169000D02*
X40140000Y-82380000D01*
X40140000Y-85260000D02*
X40140000Y-90471000D01*
X40180000Y-77196000D02*
X40180000Y-82380000D01*
X40180000Y-85260000D02*
X40180000Y-90444000D01*
X40220000Y-77224000D02*
X40220000Y-82380000D01*
X40220000Y-85260000D02*
X40220000Y-90416000D01*
X40260000Y-77253000D02*
X40260000Y-82380000D01*
X40260000Y-85260000D02*
X40260000Y-90387000D01*
X40300000Y-77281000D02*
X40300000Y-82380000D01*
X40300000Y-85260000D02*
X40300000Y-90359000D01*
X40340000Y-77311000D02*
X40340000Y-82380000D01*
X40340000Y-85260000D02*
X40340000Y-90329000D01*
X40380000Y-77340000D02*
X40380000Y-82380000D01*
X40380000Y-85260000D02*
X40380000Y-90300000D01*
X40420000Y-77370000D02*
X40420000Y-82380000D01*
X40420000Y-85260000D02*
X40420000Y-90270000D01*
X40460000Y-77400000D02*
X40460000Y-82380000D01*
X40460000Y-85260000D02*
X40460000Y-90240000D01*
X40500000Y-77431000D02*
X40500000Y-82380000D01*
X40500000Y-85260000D02*
X40500000Y-90209000D01*
X40540000Y-77462000D02*
X40540000Y-82380000D01*
X40540000Y-85260000D02*
X40540000Y-90178000D01*
X40580000Y-77493000D02*
X40580000Y-82380000D01*
X40580000Y-85260000D02*
X40580000Y-90147000D01*
X40620000Y-77525000D02*
X40620000Y-82380000D01*
X40620000Y-85260000D02*
X40620000Y-90115000D01*
X40660000Y-77558000D02*
X40660000Y-82380000D01*
X40660000Y-85260000D02*
X40660000Y-90082000D01*
X40700000Y-77590000D02*
X40700000Y-82380000D01*
X40700000Y-85260000D02*
X40700000Y-90050000D01*
X40740000Y-77623000D02*
X40740000Y-90017000D01*
X40780000Y-77657000D02*
X40780000Y-89983000D01*
X40820000Y-77691000D02*
X40820000Y-89949000D01*
X40860000Y-77726000D02*
X40860000Y-89914000D01*
X40900000Y-77760000D02*
X40900000Y-89880000D01*
X40940000Y-77796000D02*
X40940000Y-89844000D01*
X40980000Y-77832000D02*
X40980000Y-89808000D01*
X41020000Y-77868000D02*
X41020000Y-89772000D01*
X41060000Y-77905000D02*
X41060000Y-89735000D01*
X41100000Y-77942000D02*
X41100000Y-89698000D01*
X41140000Y-77980000D02*
X41140000Y-89660000D01*
X41180000Y-78018000D02*
X41180000Y-89622000D01*
X41220000Y-78057000D02*
X41220000Y-89583000D01*
X41260000Y-78097000D02*
X41260000Y-89543000D01*
X41300000Y-78137000D02*
X41300000Y-89503000D01*
X41340000Y-78177000D02*
X41340000Y-89463000D01*
X41380000Y-78218000D02*
X41380000Y-89422000D01*
X41420000Y-78260000D02*
X41420000Y-89380000D01*
X41460000Y-78302000D02*
X41460000Y-89338000D01*
X41500000Y-78345000D02*
X41500000Y-89295000D01*
X41540000Y-78389000D02*
X41540000Y-89251000D01*
X41580000Y-78433000D02*
X41580000Y-89207000D01*
X41620000Y-78478000D02*
X41620000Y-89162000D01*
X41660000Y-78523000D02*
X41660000Y-89117000D01*
X41700000Y-78570000D02*
X41700000Y-89070000D01*
X41740000Y-78616000D02*
X41740000Y-89024000D01*
X41780000Y-78664000D02*
X41780000Y-88976000D01*
X41820000Y-78713000D02*
X41820000Y-88927000D01*
X41860000Y-78762000D02*
X41860000Y-88878000D01*
X41900000Y-78812000D02*
X41900000Y-88828000D01*
X41940000Y-78863000D02*
X41940000Y-88777000D01*
X41980000Y-78914000D02*
X41980000Y-88726000D01*
X42020000Y-78967000D02*
X42020000Y-88673000D01*
X42060000Y-79020000D02*
X42060000Y-88620000D01*
X42100000Y-79075000D02*
X42100000Y-88565000D01*
X42140000Y-79130000D02*
X42140000Y-88510000D01*
X42180000Y-79186000D02*
X42180000Y-88454000D01*
X42220000Y-79244000D02*
X42220000Y-88396000D01*
X42260000Y-79302000D02*
X42260000Y-88338000D01*
X42300000Y-79361000D02*
X42300000Y-88279000D01*
X42340000Y-79422000D02*
X42340000Y-88218000D01*
X42380000Y-79484000D02*
X42380000Y-88156000D01*
X42420000Y-79547000D02*
X42420000Y-88093000D01*
X42460000Y-79612000D02*
X42460000Y-88028000D01*
X42500000Y-79678000D02*
X42500000Y-87962000D01*
X42540000Y-79745000D02*
X42540000Y-87895000D01*
X42580000Y-79814000D02*
X42580000Y-87826000D01*
X42620000Y-79884000D02*
X42620000Y-87756000D01*
X42660000Y-79956000D02*
X42660000Y-87684000D01*
X42700000Y-80030000D02*
X42700000Y-87610000D01*
X42740000Y-80106000D02*
X42740000Y-87534000D01*
X42780000Y-80183000D02*
X42780000Y-87457000D01*
X42820000Y-80263000D02*
X42820000Y-87377000D01*
X42860000Y-80345000D02*
X42860000Y-87295000D01*
X42900000Y-80430000D02*
X42900000Y-87210000D01*
X42940000Y-80517000D02*
X42940000Y-87123000D01*
X42980000Y-80607000D02*
X42980000Y-87033000D01*
X43020000Y-80700000D02*
X43020000Y-86940000D01*
X43060000Y-80797000D02*
X43060000Y-86843000D01*
X43100000Y-80897000D02*
X43100000Y-86743000D01*
X43140000Y-81001000D02*
X43140000Y-86639000D01*
X43180000Y-81110000D02*
X43180000Y-86530000D01*
X43220000Y-81223000D02*
X43220000Y-86417000D01*
X43260000Y-81343000D02*
X43260000Y-86297000D01*
X43300000Y-81469000D02*
X43300000Y-86171000D01*
X43340000Y-81603000D02*
X43340000Y-86037000D01*
X43380000Y-81746000D02*
X43380000Y-85894000D01*
X43420000Y-81900000D02*
X43420000Y-85740000D01*
X43460000Y-82069000D02*
X43460000Y-85571000D01*
X43500000Y-82256000D02*
X43500000Y-85384000D01*
X43540000Y-82469000D02*
X43540000Y-85171000D01*
X43580000Y-82723000D02*
X43580000Y-84917000D01*
X43620000Y-83055000D02*
X43620000Y-84585000D01*
X43660000Y-83820000D02*
G75*
G02*
X27420000Y-83820000I-8120000J0D01*
G01*
X27420000Y-83820000D02*
G75*
G02*
X43660000Y-83820000I8120000J0D01*
G01*
%TO.C,C1*%
X26690509Y-41165000D02*
X28290509Y-41165000D01*
X27490509Y-40365000D02*
X27490509Y-41965000D01*
X35380000Y-37640000D02*
X35380000Y-53800000D01*
X35420000Y-37640000D02*
X35420000Y-53800000D01*
X35460000Y-37640000D02*
X35460000Y-53800000D01*
X35500000Y-37641000D02*
X35500000Y-53799000D01*
X35540000Y-37642000D02*
X35540000Y-53798000D01*
X35580000Y-37642000D02*
X35580000Y-53798000D01*
X35620000Y-37644000D02*
X35620000Y-53796000D01*
X35660000Y-37645000D02*
X35660000Y-53795000D01*
X35700000Y-37646000D02*
X35700000Y-53794000D01*
X35740000Y-37648000D02*
X35740000Y-53792000D01*
X35780000Y-37650000D02*
X35780000Y-53790000D01*
X35820000Y-37652000D02*
X35820000Y-53788000D01*
X35860000Y-37654000D02*
X35860000Y-53786000D01*
X35900000Y-37657000D02*
X35900000Y-53783000D01*
X35940000Y-37659000D02*
X35940000Y-53781000D01*
X35980000Y-37662000D02*
X35980000Y-53778000D01*
X36020000Y-37665000D02*
X36020000Y-53775000D01*
X36060000Y-37669000D02*
X36060000Y-53771000D01*
X36100000Y-37672000D02*
X36100000Y-53768000D01*
X36140000Y-37676000D02*
X36140000Y-53764000D01*
X36180000Y-37680000D02*
X36180000Y-53760000D01*
X36220000Y-37684000D02*
X36220000Y-53756000D01*
X36260000Y-37688000D02*
X36260000Y-53752000D01*
X36300000Y-37692000D02*
X36300000Y-53748000D01*
X36340000Y-37697000D02*
X36340000Y-53743000D01*
X36380000Y-37702000D02*
X36380000Y-53738000D01*
X36420000Y-37707000D02*
X36420000Y-53733000D01*
X36460000Y-37712000D02*
X36460000Y-53728000D01*
X36500000Y-37718000D02*
X36500000Y-53722000D01*
X36540000Y-37723000D02*
X36540000Y-53717000D01*
X36580000Y-37729000D02*
X36580000Y-53711000D01*
X36620000Y-37735000D02*
X36620000Y-53705000D01*
X36660000Y-37742000D02*
X36660000Y-53698000D01*
X36700000Y-37748000D02*
X36700000Y-53692000D01*
X36740000Y-37755000D02*
X36740000Y-53685000D01*
X36780000Y-37762000D02*
X36780000Y-53678000D01*
X36820000Y-37769000D02*
X36820000Y-53671000D01*
X36860000Y-37776000D02*
X36860000Y-53664000D01*
X36900000Y-37784000D02*
X36900000Y-53656000D01*
X36940000Y-37791000D02*
X36940000Y-53649000D01*
X36980000Y-37799000D02*
X36980000Y-53641000D01*
X37020000Y-37807000D02*
X37020000Y-53633000D01*
X37060000Y-37816000D02*
X37060000Y-53624000D01*
X37100000Y-37824000D02*
X37100000Y-53616000D01*
X37140000Y-37833000D02*
X37140000Y-53607000D01*
X37180000Y-37842000D02*
X37180000Y-53598000D01*
X37220000Y-37851000D02*
X37220000Y-53589000D01*
X37260000Y-37861000D02*
X37260000Y-53579000D01*
X37300000Y-37870000D02*
X37300000Y-53570000D01*
X37340000Y-37880000D02*
X37340000Y-53560000D01*
X37380000Y-37890000D02*
X37380000Y-53550000D01*
X37420000Y-37900000D02*
X37420000Y-53540000D01*
X37460000Y-37911000D02*
X37460000Y-53529000D01*
X37500000Y-37922000D02*
X37500000Y-53518000D01*
X37540000Y-37933000D02*
X37540000Y-53507000D01*
X37580000Y-37944000D02*
X37580000Y-53496000D01*
X37620000Y-37955000D02*
X37620000Y-53485000D01*
X37660000Y-37967000D02*
X37660000Y-53473000D01*
X37700000Y-37978000D02*
X37700000Y-44280000D01*
X37700000Y-47160000D02*
X37700000Y-53462000D01*
X37740000Y-37991000D02*
X37740000Y-44280000D01*
X37740000Y-47160000D02*
X37740000Y-53449000D01*
X37780000Y-38003000D02*
X37780000Y-44280000D01*
X37780000Y-47160000D02*
X37780000Y-53437000D01*
X37820000Y-38015000D02*
X37820000Y-44280000D01*
X37820000Y-47160000D02*
X37820000Y-53425000D01*
X37860000Y-38028000D02*
X37860000Y-44280000D01*
X37860000Y-47160000D02*
X37860000Y-53412000D01*
X37900000Y-38041000D02*
X37900000Y-44280000D01*
X37900000Y-47160000D02*
X37900000Y-53399000D01*
X37940000Y-38054000D02*
X37940000Y-44280000D01*
X37940000Y-47160000D02*
X37940000Y-53386000D01*
X37980000Y-38068000D02*
X37980000Y-44280000D01*
X37980000Y-47160000D02*
X37980000Y-53372000D01*
X38020000Y-38081000D02*
X38020000Y-44280000D01*
X38020000Y-47160000D02*
X38020000Y-53359000D01*
X38060000Y-38095000D02*
X38060000Y-44280000D01*
X38060000Y-47160000D02*
X38060000Y-53345000D01*
X38100000Y-38109000D02*
X38100000Y-44280000D01*
X38100000Y-47160000D02*
X38100000Y-53331000D01*
X38140000Y-38123000D02*
X38140000Y-44280000D01*
X38140000Y-47160000D02*
X38140000Y-53317000D01*
X38180000Y-38138000D02*
X38180000Y-44280000D01*
X38180000Y-47160000D02*
X38180000Y-53302000D01*
X38220000Y-38153000D02*
X38220000Y-44280000D01*
X38220000Y-47160000D02*
X38220000Y-53287000D01*
X38260000Y-38168000D02*
X38260000Y-44280000D01*
X38260000Y-47160000D02*
X38260000Y-53272000D01*
X38300000Y-38183000D02*
X38300000Y-44280000D01*
X38300000Y-47160000D02*
X38300000Y-53257000D01*
X38340000Y-38199000D02*
X38340000Y-44280000D01*
X38340000Y-47160000D02*
X38340000Y-53241000D01*
X38380000Y-38215000D02*
X38380000Y-44280000D01*
X38380000Y-47160000D02*
X38380000Y-53225000D01*
X38420000Y-38231000D02*
X38420000Y-44280000D01*
X38420000Y-47160000D02*
X38420000Y-53209000D01*
X38460000Y-38247000D02*
X38460000Y-44280000D01*
X38460000Y-47160000D02*
X38460000Y-53193000D01*
X38500000Y-38263000D02*
X38500000Y-44280000D01*
X38500000Y-47160000D02*
X38500000Y-53177000D01*
X38540000Y-38280000D02*
X38540000Y-44280000D01*
X38540000Y-47160000D02*
X38540000Y-53160000D01*
X38580000Y-38297000D02*
X38580000Y-44280000D01*
X38580000Y-47160000D02*
X38580000Y-53143000D01*
X38620000Y-38314000D02*
X38620000Y-44280000D01*
X38620000Y-47160000D02*
X38620000Y-53126000D01*
X38660000Y-38332000D02*
X38660000Y-44280000D01*
X38660000Y-47160000D02*
X38660000Y-53108000D01*
X38700000Y-38350000D02*
X38700000Y-44280000D01*
X38700000Y-47160000D02*
X38700000Y-53090000D01*
X38740000Y-38368000D02*
X38740000Y-44280000D01*
X38740000Y-47160000D02*
X38740000Y-53072000D01*
X38780000Y-38386000D02*
X38780000Y-44280000D01*
X38780000Y-47160000D02*
X38780000Y-53054000D01*
X38820000Y-38405000D02*
X38820000Y-44280000D01*
X38820000Y-47160000D02*
X38820000Y-53035000D01*
X38860000Y-38424000D02*
X38860000Y-44280000D01*
X38860000Y-47160000D02*
X38860000Y-53016000D01*
X38900000Y-38443000D02*
X38900000Y-44280000D01*
X38900000Y-47160000D02*
X38900000Y-52997000D01*
X38940000Y-38462000D02*
X38940000Y-44280000D01*
X38940000Y-47160000D02*
X38940000Y-52978000D01*
X38980000Y-38482000D02*
X38980000Y-44280000D01*
X38980000Y-47160000D02*
X38980000Y-52958000D01*
X39020000Y-38502000D02*
X39020000Y-44280000D01*
X39020000Y-47160000D02*
X39020000Y-52938000D01*
X39060000Y-38522000D02*
X39060000Y-44280000D01*
X39060000Y-47160000D02*
X39060000Y-52918000D01*
X39100000Y-38542000D02*
X39100000Y-44280000D01*
X39100000Y-47160000D02*
X39100000Y-52898000D01*
X39140000Y-38563000D02*
X39140000Y-44280000D01*
X39140000Y-47160000D02*
X39140000Y-52877000D01*
X39180000Y-38584000D02*
X39180000Y-44280000D01*
X39180000Y-47160000D02*
X39180000Y-52856000D01*
X39220000Y-38605000D02*
X39220000Y-44280000D01*
X39220000Y-47160000D02*
X39220000Y-52835000D01*
X39260000Y-38627000D02*
X39260000Y-44280000D01*
X39260000Y-47160000D02*
X39260000Y-52813000D01*
X39300000Y-38649000D02*
X39300000Y-44280000D01*
X39300000Y-47160000D02*
X39300000Y-52791000D01*
X39340000Y-38671000D02*
X39340000Y-44280000D01*
X39340000Y-47160000D02*
X39340000Y-52769000D01*
X39380000Y-38694000D02*
X39380000Y-44280000D01*
X39380000Y-47160000D02*
X39380000Y-52746000D01*
X39420000Y-38716000D02*
X39420000Y-44280000D01*
X39420000Y-47160000D02*
X39420000Y-52724000D01*
X39460000Y-38739000D02*
X39460000Y-44280000D01*
X39460000Y-47160000D02*
X39460000Y-52701000D01*
X39500000Y-38763000D02*
X39500000Y-44280000D01*
X39500000Y-47160000D02*
X39500000Y-52677000D01*
X39540000Y-38787000D02*
X39540000Y-44280000D01*
X39540000Y-47160000D02*
X39540000Y-52653000D01*
X39580000Y-38811000D02*
X39580000Y-44280000D01*
X39580000Y-47160000D02*
X39580000Y-52629000D01*
X39620000Y-38835000D02*
X39620000Y-44280000D01*
X39620000Y-47160000D02*
X39620000Y-52605000D01*
X39660000Y-38860000D02*
X39660000Y-44280000D01*
X39660000Y-47160000D02*
X39660000Y-52580000D01*
X39700000Y-38885000D02*
X39700000Y-44280000D01*
X39700000Y-47160000D02*
X39700000Y-52555000D01*
X39740000Y-38910000D02*
X39740000Y-44280000D01*
X39740000Y-47160000D02*
X39740000Y-52530000D01*
X39780000Y-38935000D02*
X39780000Y-44280000D01*
X39780000Y-47160000D02*
X39780000Y-52505000D01*
X39820000Y-38961000D02*
X39820000Y-44280000D01*
X39820000Y-47160000D02*
X39820000Y-52479000D01*
X39860000Y-38988000D02*
X39860000Y-44280000D01*
X39860000Y-47160000D02*
X39860000Y-52452000D01*
X39900000Y-39014000D02*
X39900000Y-44280000D01*
X39900000Y-47160000D02*
X39900000Y-52426000D01*
X39940000Y-39041000D02*
X39940000Y-44280000D01*
X39940000Y-47160000D02*
X39940000Y-52399000D01*
X39980000Y-39069000D02*
X39980000Y-44280000D01*
X39980000Y-47160000D02*
X39980000Y-52371000D01*
X40020000Y-39096000D02*
X40020000Y-44280000D01*
X40020000Y-47160000D02*
X40020000Y-52344000D01*
X40060000Y-39124000D02*
X40060000Y-44280000D01*
X40060000Y-47160000D02*
X40060000Y-52316000D01*
X40100000Y-39153000D02*
X40100000Y-44280000D01*
X40100000Y-47160000D02*
X40100000Y-52287000D01*
X40140000Y-39181000D02*
X40140000Y-44280000D01*
X40140000Y-47160000D02*
X40140000Y-52259000D01*
X40180000Y-39211000D02*
X40180000Y-44280000D01*
X40180000Y-47160000D02*
X40180000Y-52229000D01*
X40220000Y-39240000D02*
X40220000Y-44280000D01*
X40220000Y-47160000D02*
X40220000Y-52200000D01*
X40260000Y-39270000D02*
X40260000Y-44280000D01*
X40260000Y-47160000D02*
X40260000Y-52170000D01*
X40300000Y-39300000D02*
X40300000Y-44280000D01*
X40300000Y-47160000D02*
X40300000Y-52140000D01*
X40340000Y-39331000D02*
X40340000Y-44280000D01*
X40340000Y-47160000D02*
X40340000Y-52109000D01*
X40380000Y-39362000D02*
X40380000Y-44280000D01*
X40380000Y-47160000D02*
X40380000Y-52078000D01*
X40420000Y-39393000D02*
X40420000Y-44280000D01*
X40420000Y-47160000D02*
X40420000Y-52047000D01*
X40460000Y-39425000D02*
X40460000Y-44280000D01*
X40460000Y-47160000D02*
X40460000Y-52015000D01*
X40500000Y-39458000D02*
X40500000Y-44280000D01*
X40500000Y-47160000D02*
X40500000Y-51982000D01*
X40540000Y-39490000D02*
X40540000Y-44280000D01*
X40540000Y-47160000D02*
X40540000Y-51950000D01*
X40580000Y-39523000D02*
X40580000Y-51917000D01*
X40620000Y-39557000D02*
X40620000Y-51883000D01*
X40660000Y-39591000D02*
X40660000Y-51849000D01*
X40700000Y-39626000D02*
X40700000Y-51814000D01*
X40740000Y-39660000D02*
X40740000Y-51780000D01*
X40780000Y-39696000D02*
X40780000Y-51744000D01*
X40820000Y-39732000D02*
X40820000Y-51708000D01*
X40860000Y-39768000D02*
X40860000Y-51672000D01*
X40900000Y-39805000D02*
X40900000Y-51635000D01*
X40940000Y-39842000D02*
X40940000Y-51598000D01*
X40980000Y-39880000D02*
X40980000Y-51560000D01*
X41020000Y-39918000D02*
X41020000Y-51522000D01*
X41060000Y-39957000D02*
X41060000Y-51483000D01*
X41100000Y-39997000D02*
X41100000Y-51443000D01*
X41140000Y-40037000D02*
X41140000Y-51403000D01*
X41180000Y-40077000D02*
X41180000Y-51363000D01*
X41220000Y-40118000D02*
X41220000Y-51322000D01*
X41260000Y-40160000D02*
X41260000Y-51280000D01*
X41300000Y-40202000D02*
X41300000Y-51238000D01*
X41340000Y-40245000D02*
X41340000Y-51195000D01*
X41380000Y-40289000D02*
X41380000Y-51151000D01*
X41420000Y-40333000D02*
X41420000Y-51107000D01*
X41460000Y-40378000D02*
X41460000Y-51062000D01*
X41500000Y-40423000D02*
X41500000Y-51017000D01*
X41540000Y-40470000D02*
X41540000Y-50970000D01*
X41580000Y-40516000D02*
X41580000Y-50924000D01*
X41620000Y-40564000D02*
X41620000Y-50876000D01*
X41660000Y-40613000D02*
X41660000Y-50827000D01*
X41700000Y-40662000D02*
X41700000Y-50778000D01*
X41740000Y-40712000D02*
X41740000Y-50728000D01*
X41780000Y-40763000D02*
X41780000Y-50677000D01*
X41820000Y-40814000D02*
X41820000Y-50626000D01*
X41860000Y-40867000D02*
X41860000Y-50573000D01*
X41900000Y-40920000D02*
X41900000Y-50520000D01*
X41940000Y-40975000D02*
X41940000Y-50465000D01*
X41980000Y-41030000D02*
X41980000Y-50410000D01*
X42020000Y-41086000D02*
X42020000Y-50354000D01*
X42060000Y-41144000D02*
X42060000Y-50296000D01*
X42100000Y-41202000D02*
X42100000Y-50238000D01*
X42140000Y-41261000D02*
X42140000Y-50179000D01*
X42180000Y-41322000D02*
X42180000Y-50118000D01*
X42220000Y-41384000D02*
X42220000Y-50056000D01*
X42260000Y-41447000D02*
X42260000Y-49993000D01*
X42300000Y-41512000D02*
X42300000Y-49928000D01*
X42340000Y-41578000D02*
X42340000Y-49862000D01*
X42380000Y-41645000D02*
X42380000Y-49795000D01*
X42420000Y-41714000D02*
X42420000Y-49726000D01*
X42460000Y-41784000D02*
X42460000Y-49656000D01*
X42500000Y-41856000D02*
X42500000Y-49584000D01*
X42540000Y-41930000D02*
X42540000Y-49510000D01*
X42580000Y-42006000D02*
X42580000Y-49434000D01*
X42620000Y-42083000D02*
X42620000Y-49357000D01*
X42660000Y-42163000D02*
X42660000Y-49277000D01*
X42700000Y-42245000D02*
X42700000Y-49195000D01*
X42740000Y-42330000D02*
X42740000Y-49110000D01*
X42780000Y-42417000D02*
X42780000Y-49023000D01*
X42820000Y-42507000D02*
X42820000Y-48933000D01*
X42860000Y-42600000D02*
X42860000Y-48840000D01*
X42900000Y-42697000D02*
X42900000Y-48743000D01*
X42940000Y-42797000D02*
X42940000Y-48643000D01*
X42980000Y-42901000D02*
X42980000Y-48539000D01*
X43020000Y-43010000D02*
X43020000Y-48430000D01*
X43060000Y-43123000D02*
X43060000Y-48317000D01*
X43100000Y-43243000D02*
X43100000Y-48197000D01*
X43140000Y-43369000D02*
X43140000Y-48071000D01*
X43180000Y-43503000D02*
X43180000Y-47937000D01*
X43220000Y-43646000D02*
X43220000Y-47794000D01*
X43260000Y-43800000D02*
X43260000Y-47640000D01*
X43300000Y-43969000D02*
X43300000Y-47471000D01*
X43340000Y-44156000D02*
X43340000Y-47284000D01*
X43380000Y-44369000D02*
X43380000Y-47071000D01*
X43420000Y-44623000D02*
X43420000Y-46817000D01*
X43460000Y-44955000D02*
X43460000Y-46485000D01*
X43500000Y-45720000D02*
G75*
G02*
X27260000Y-45720000I-8120000J0D01*
G01*
X27260000Y-45720000D02*
G75*
G02*
X43500000Y-45720000I8120000J0D01*
G01*
%TO.C,U1*%
X27839000Y-100290000D02*
X27839000Y-110530000D01*
X30970000Y-100290000D02*
X30970000Y-110530000D01*
X32480000Y-100290000D02*
X27839000Y-100290000D01*
X32480000Y-100290000D02*
X32480000Y-110530000D01*
X32480000Y-103560000D02*
X30970000Y-103560000D01*
X32480000Y-107261000D02*
X30970000Y-107261000D01*
X32480000Y-110530000D02*
X27839000Y-110530000D01*
%TD*%
M02*
