M48
; DRILL file {KiCad 9.0.1} date 2025-05-14T12:04:35-0700
; FORMAT={-:-/ absolute / metric / decimal}
; #@! TF.CreationDate,2025-05-14T12:04:35-07:00
; #@! TF.GenerationSoftware,Kicad,Pcbnew,9.0.1
; #@! TF.FileFunction,Plated,1,2,PTH
FMAT,2
METRIC
; #@! TA.AperFunction,Plated,PTH,ComponentDrill
T1C0.635
; #@! TA.AperFunction,Plated,PTH,ComponentDrill
T2C1.000
; #@! TA.AperFunction,Plated,PTH,ComponentDrill
T3C1.100
; #@! TA.AperFunction,Plated,PTH,ComponentDrill
T4C1.143
; #@! TA.AperFunction,Plated,PTH,ComponentDrill
T5C1.200
; #@! TA.AperFunction,Plated,PTH,ComponentDrill
T6C1.270
; #@! TA.AperFunction,Plated,PTH,ComponentDrill
T7C2.700
%
G90
G05
T1
X28.491Y-97.028
X28.674Y-114.006
X30.491Y-97.028
X30.674Y-114.006
X46.99Y-97.028
X47.287Y-114.046
X48.99Y-97.028
X49.287Y-114.046
X65.31Y-113.792
X65.575Y-97.028
X67.31Y-113.792
X67.575Y-97.028
T3
X30.48Y-120.65
X34.29Y-22.86
X34.29Y-33.02
X40.64Y-120.65
X43.18Y-22.86
X43.18Y-33.02
X46.99Y-120.65
X50.8Y-22.86
X50.8Y-33.02
X57.15Y-120.65
X64.008Y-120.904
X74.168Y-120.904
T4
X29.21Y-102.87
X29.21Y-105.41
X29.21Y-107.95
X47.53Y-102.91
X47.53Y-105.45
X47.53Y-107.99
X66.365Y-102.87
X66.365Y-105.41
X66.365Y-107.95
T5
X48.26Y-128.016
X50.8Y-128.016
X53.34Y-128.016
X55.88Y-128.016
T6
X31.63Y-45.72
X31.79Y-64.77
X31.79Y-83.82
X39.13Y-45.72
X39.29Y-64.77
X39.29Y-83.82
X50.001Y-45.72
X50.081Y-83.82
X50.121Y-64.77
X57.501Y-45.72
X57.581Y-83.82
X57.621Y-64.77
X68.403Y-45.72
X68.403Y-64.77
X68.523Y-83.82
X75.903Y-45.72
X75.903Y-64.77
X76.023Y-83.82
T7
X29.21Y-24.13
X29.21Y-24.13
X29.21Y-128.27
X29.21Y-128.27
X78.74Y-24.13
X78.74Y-24.13
X78.74Y-128.27
T2
G00X63.88Y-29.02
M15
G01X63.88Y-31.02
M16
G05
G00X69.58Y-27.02
M15
G01X67.58Y-27.02
M16
G05
G00X69.58Y-33.02
M15
G01X67.58Y-33.02
M16
G05
M30
