M48
; DRILL file {KiCad 9.0.6} date 2026-04-19T17:15:30-0700
; FORMAT={-:-/ absolute / metric / decimal}
; #@! TF.CreationDate,2026-04-19T17:15:30-07:00
; #@! TF.GenerationSoftware,Kicad,Pcbnew,9.0.6
; #@! TF.FileFunction,Plated,1,2,PTH
FMAT,2
METRIC
; #@! TA.AperFunction,Plated,PTH,ViaDrill
T1C0.813
; #@! TA.AperFunction,Plated,PTH,ComponentDrill
T2C0.813
; #@! TA.AperFunction,Plated,PTH,ComponentDrill
T3C1.016
; #@! TA.AperFunction,Plated,PTH,ComponentDrill
T4C1.270
; #@! TA.AperFunction,Plated,PTH,ComponentDrill
T5C1.397
; #@! TA.AperFunction,Plated,PTH,ComponentDrill
T6C2.500
; #@! TA.AperFunction,Plated,PTH,ComponentDrill
T7C2.794
; #@! TA.AperFunction,Plated,PTH,ComponentDrill
T8C3.300
; #@! TA.AperFunction,Plated,PTH,ComponentDrill
T9C7.000
%
G90
G05
T1
X28.168Y-173.482
X29.892Y-67.183
X36.372Y-170.307
X36.83Y-182.88
X38.608Y-71.501
X40.64Y-161.163
X40.753Y-80.885
X46.99Y-169.587
X53.721Y-25.781
X63.754Y-26.416
T2
X26.717Y-60.071
X29.718Y-159.385
X29.718Y-167.005
X29.718Y-169.672
X29.718Y-179.832
X29.845Y-40.894
X31.115Y-96.393
X32.94Y-91.186
X33.02Y-101.346
X33.02Y-164.502
X33.02Y-167.042
X33.02Y-169.582
X33.02Y-172.122
X33.02Y-174.662
X33.02Y-177.202
X33.02Y-179.742
X33.1Y-106.426
X33.274Y-121.433
X33.528Y-129.667
X33.528Y-132.207
X33.528Y-134.747
X33.528Y-137.287
X33.528Y-140.716
X33.528Y-148.336
X33.575Y-67.183
X34.076Y-155.321
X35.306Y-37.719
X35.433Y-46.122
X35.48Y-91.186
X35.56Y-101.346
X35.814Y-109.347
X35.814Y-116.967
X35.814Y-121.433
X36.115Y-67.183
X36.877Y-60.071
X37.973Y-46.122
X38.02Y-91.186
X38.1Y-101.346
X38.1Y-106.426
X38.354Y-121.433
X38.655Y-67.183
X38.735Y-96.393
X38.735Y-141.351
X38.735Y-143.891
X38.735Y-146.431
X39.076Y-155.321
X40.005Y-40.894
X40.513Y-46.122
X40.64Y-164.502
X40.64Y-167.042
X40.64Y-169.582
X40.64Y-172.122
X40.64Y-174.662
X40.64Y-177.202
X40.64Y-179.742
X40.687Y-51.943
X40.687Y-62.103
X41.148Y-129.667
X41.148Y-132.207
X41.148Y-134.747
X41.148Y-137.287
X41.402Y-88.265
X41.402Y-95.885
X41.402Y-98.425
X41.402Y-106.045
X41.402Y-108.585
X41.402Y-116.205
X42.686Y-34.101
X44.45Y-159.258
X44.45Y-166.878
X44.45Y-169.622
X44.45Y-174.622
X44.45Y-177.292
X44.45Y-184.912
X45.466Y-37.719
X46.242Y-41.848
X46.242Y-52.008
X49.417Y-37.128
X49.417Y-41.806
X49.417Y-46.547
X51.449Y-51.5
X51.449Y-61.66
X51.957Y-41.806
X51.957Y-46.547
X52.846Y-34.101
X54.497Y-41.806
X54.497Y-46.547
X54.499Y-51.5
X55.64Y-34.101
X55.88Y-72.009
X55.88Y-101.6
X55.88Y-132.08
X55.88Y-161.29
X57.037Y-37.128
X57.039Y-51.5
X59.323Y-42.229
X59.323Y-44.769
X59.323Y-47.309
X65.8Y-34.101
X66.04Y-72.009
X66.04Y-101.6
X66.04Y-132.08
X66.04Y-161.29
T3
X33.02Y-109.347
X33.02Y-116.967
X72.39Y-76.2
X72.39Y-86.36
X72.39Y-137.16
X72.39Y-147.32
X72.39Y-165.1
X72.39Y-175.26
T4
X55.88Y-76.2
X55.88Y-106.38
X55.88Y-136.86
X55.88Y-165.1
X60.96Y-76.2
X60.96Y-106.38
X60.96Y-136.86
X60.96Y-165.1
X66.04Y-76.2
X66.04Y-106.38
X66.04Y-136.86
X66.04Y-165.1
T5
X37.752Y-20.32
X42.752Y-20.32
X47.752Y-20.32
X53.754Y-20.066
X58.754Y-20.066
X63.754Y-20.066
T6
X52.96Y-89.2
T7
X52.96Y-119.38
X52.96Y-149.86
X52.96Y-178.1
T8
X30.48Y-20.32
X30.48Y-187.96
X50.8Y-101.6
X71.12Y-20.32
X71.12Y-187.96
T9
X60.96Y-89.2
X60.96Y-89.2
X60.96Y-119.38
X60.96Y-119.38
X60.96Y-149.86
X60.96Y-149.86
X60.96Y-178.1
X60.96Y-178.1
M30
