%TF.GenerationSoftware,KiCad,Pcbnew,9.0.6*%
%TF.CreationDate,2026-04-19T17:15:24-07:00*%
%TF.ProjectId,modulinEnvelope,6d6f6475-6c69-46e4-956e-76656c6f7065,rev?*%
%TF.SameCoordinates,Original*%
%TF.FileFunction,Soldermask,Bot*%
%TF.FilePolarity,Negative*%
%FSLAX46Y46*%
G04 Gerber Fmt 4.6, Leading zero omitted, Abs format (unit mm)*
G04 Created by KiCad (PCBNEW 9.0.6) date 2026-04-19 17:15:24*
%MOMM*%
%LPD*%
G01*
G04 APERTURE LIST*
G04 Aperture macros list*
%AMRoundRect*
0 Rectangle with rounded corners*
0 $1 Rounding radius*
0 $2 $3 $4 $5 $6 $7 $8 $9 X,Y pos of 4 corners*
0 Add a 4 corners polygon primitive as box body*
4,1,4,$2,$3,$4,$5,$6,$7,$8,$9,$2,$3,0*
0 Add four circle primitives for the rounded corners*
1,1,$1+$1,$2,$3*
1,1,$1+$1,$4,$5*
1,1,$1+$1,$6,$7*
1,1,$1+$1,$8,$9*
0 Add four rect primitives between the rounded corners*
20,1,$1+$1,$2,$3,$4,$5,0*
20,1,$1+$1,$4,$5,$6,$7,0*
20,1,$1+$1,$6,$7,$8,$9,0*
20,1,$1+$1,$8,$9,$2,$3,0*%
G04 Aperture macros list end*
%ADD10R,1.727200X1.727200*%
%ADD11C,1.727200*%
%ADD12C,0.812800*%
%ADD13C,1.676400*%
%ADD14RoundRect,0.250000X0.613600X1.020000X-0.613600X1.020000X-0.613600X-1.020000X0.613600X-1.020000X0*%
%ADD15O,1.727200X2.540000*%
%ADD16RoundRect,0.250000X1.020000X0.613600X-1.020000X0.613600X-1.020000X-0.613600X1.020000X-0.613600X0*%
%ADD17O,2.540000X1.727200*%
%ADD18C,1.397000*%
%ADD19C,2.794000*%
%ADD20RoundRect,0.250000X-1.020000X-0.613600X1.020000X-0.613600X1.020000X0.613600X-1.020000X0.613600X0*%
%ADD21C,6.000000*%
%ADD22RoundRect,0.250000X-0.613600X-1.020000X0.613600X-1.020000X0.613600X1.020000X-0.613600X1.020000X0*%
%ADD23RoundRect,0.250000X-1.020000X0.613600X-1.020000X-0.613600X1.020000X-0.613600X1.020000X0.613600X0*%
%ADD24C,1.270000*%
%ADD25C,7.000000*%
%ADD26C,12.000000*%
%ADD27C,2.500000*%
G04 APERTURE END LIST*
D10*
%TO.C,D1*%
X33020000Y-109347000D03*
D11*
X33020000Y-116967000D03*
%TD*%
D10*
%TO.C,D2*%
X72390000Y-76200000D03*
D11*
X72390000Y-86360000D03*
%TD*%
%TO.C,R13*%
X41402000Y-88265000D03*
X41402000Y-95885000D03*
%TD*%
%TO.C,R16*%
X35814000Y-116967000D03*
X35814000Y-109347000D03*
%TD*%
%TO.C,R4*%
X54499194Y-51500494D03*
X57039194Y-51500494D03*
%TD*%
%TO.C,R9*%
X46241694Y-52008494D03*
X46241694Y-41848494D03*
%TD*%
D12*
%TO.C,RV2*%
X38655000Y-67183000D03*
D13*
X38655000Y-67183000D03*
D12*
X36115000Y-67183000D03*
D13*
X36155000Y-67183000D03*
D12*
X33575000Y-67183000D03*
D13*
X33655000Y-67183000D03*
%TD*%
D14*
%TO.C,Q2*%
X54496694Y-46547494D03*
D15*
X51956694Y-46547494D03*
X49416694Y-46547494D03*
%TD*%
D11*
%TO.C,R8*%
X40687000Y-51943000D03*
X40687000Y-62103000D03*
%TD*%
D12*
%TO.C,C2*%
X34076000Y-155321000D03*
D11*
X34076000Y-155321000D03*
D12*
X39076000Y-155321000D03*
D11*
X39076000Y-155321000D03*
%TD*%
D15*
%TO.C,Q6*%
X38354000Y-121433000D03*
X35814000Y-121433000D03*
D14*
X33274000Y-121433000D03*
%TD*%
D11*
%TO.C,R22*%
X66040000Y-132080000D03*
X55880000Y-132080000D03*
%TD*%
D15*
%TO.C,Q5*%
X38100000Y-101346000D03*
X35560000Y-101346000D03*
D14*
X33020000Y-101346000D03*
%TD*%
D11*
%TO.C,R10*%
X51448694Y-61660494D03*
X51448694Y-51500494D03*
%TD*%
D12*
%TO.C,U1*%
X40640000Y-179742188D03*
D16*
X40640000Y-179742188D03*
D12*
X40640000Y-177202188D03*
D17*
X40640000Y-177202188D03*
D12*
X40640000Y-174662188D03*
D17*
X40640000Y-174662188D03*
D12*
X40640000Y-172122188D03*
D17*
X40640000Y-172122188D03*
D12*
X40640000Y-169582188D03*
D17*
X40640000Y-169582188D03*
D12*
X40640000Y-167042188D03*
D17*
X40640000Y-167042188D03*
D12*
X40640000Y-164502188D03*
D17*
X40640000Y-164502188D03*
D12*
X33020000Y-164502188D03*
D17*
X33020000Y-164502188D03*
D12*
X33020000Y-167042188D03*
D17*
X33020000Y-167042188D03*
D12*
X33020000Y-169582188D03*
D17*
X33020000Y-169582188D03*
D12*
X33020000Y-172122188D03*
D17*
X33020000Y-172122188D03*
D12*
X33020000Y-174662188D03*
D17*
X33020000Y-174662188D03*
D12*
X33020000Y-177202188D03*
D17*
X33020000Y-177202188D03*
D12*
X33020000Y-179742188D03*
D17*
X33020000Y-179742188D03*
%TD*%
D11*
%TO.C,R6*%
X29845000Y-40894000D03*
X40005000Y-40894000D03*
%TD*%
%TO.C,R14*%
X38735000Y-96393000D03*
X31115000Y-96393000D03*
%TD*%
D10*
%TO.C,D3*%
X72390000Y-175260000D03*
D11*
X72390000Y-165100000D03*
%TD*%
D12*
%TO.C,C1*%
X38100000Y-106426000D03*
D11*
X38100000Y-106426000D03*
D12*
X33100000Y-106426000D03*
D11*
X33100000Y-106426000D03*
%TD*%
%TO.C,R5*%
X35306000Y-37719000D03*
X45466000Y-37719000D03*
%TD*%
D18*
%TO.C,J2*%
X63754000Y-20066000D03*
D19*
X63754000Y-20066000D03*
D18*
X58754000Y-20066000D03*
D19*
X58754000Y-20066000D03*
D18*
X53754000Y-20066000D03*
D19*
X53754000Y-20066000D03*
%TD*%
D12*
%TO.C,U2*%
X33528000Y-129667000D03*
D20*
X33528000Y-129667000D03*
D12*
X33528000Y-132207000D03*
D17*
X33528000Y-132207000D03*
D12*
X33528000Y-134747000D03*
D17*
X33528000Y-134747000D03*
D12*
X33528000Y-137287000D03*
D17*
X33528000Y-137287000D03*
D12*
X41148000Y-137287000D03*
D17*
X41148000Y-137287000D03*
D12*
X41148000Y-134747000D03*
D17*
X41148000Y-134747000D03*
D12*
X41148000Y-132207000D03*
D17*
X41148000Y-132207000D03*
D12*
X41148000Y-129667000D03*
D17*
X41148000Y-129667000D03*
%TD*%
D11*
%TO.C,R12*%
X29718000Y-169672000D03*
X29718000Y-179832000D03*
%TD*%
D12*
%TO.C,RV1*%
X59322694Y-42229494D03*
D13*
X59322694Y-42229494D03*
D12*
X59322694Y-44769494D03*
D13*
X59322694Y-44729494D03*
D12*
X59322694Y-47309494D03*
D13*
X59322694Y-47229494D03*
%TD*%
D11*
%TO.C,R23*%
X44450000Y-166878000D03*
X44450000Y-159258000D03*
%TD*%
%TO.C,R21*%
X55880000Y-101600000D03*
X66040000Y-101600000D03*
%TD*%
%TO.C,R11*%
X29718000Y-159385000D03*
X29718000Y-167005000D03*
%TD*%
%TO.C,R24*%
X44450000Y-184912000D03*
X44450000Y-177292000D03*
%TD*%
%TO.C,R17*%
X41402000Y-116205000D03*
X41402000Y-108585000D03*
%TD*%
%TO.C,R18*%
X33528000Y-148336000D03*
X33528000Y-140716000D03*
%TD*%
D18*
%TO.C,J1*%
X37752000Y-20320000D03*
D19*
X37752000Y-20320000D03*
D18*
X42752000Y-20320000D03*
D19*
X42752000Y-20320000D03*
D18*
X47752000Y-20320000D03*
D19*
X47752000Y-20320000D03*
%TD*%
D21*
%TO.C,REF\u002A\u002A*%
X30480000Y-20320000D03*
%TD*%
D11*
%TO.C,R3*%
X49416694Y-37128494D03*
X57036694Y-37128494D03*
%TD*%
D21*
%TO.C,REF\u002A\u002A*%
X50800000Y-101600000D03*
%TD*%
D14*
%TO.C,Q3*%
X40513000Y-46122000D03*
D15*
X37973000Y-46122000D03*
X35433000Y-46122000D03*
%TD*%
D11*
%TO.C,R19*%
X66040000Y-72009000D03*
X55880000Y-72009000D03*
%TD*%
D10*
%TO.C,D4*%
X72390000Y-137160000D03*
D11*
X72390000Y-147320000D03*
%TD*%
D15*
%TO.C,Q4*%
X38020000Y-91186000D03*
X35480000Y-91186000D03*
D14*
X32940000Y-91186000D03*
%TD*%
D11*
%TO.C,R1*%
X55639694Y-34101494D03*
X65799694Y-34101494D03*
%TD*%
%TO.C,R7*%
X36877000Y-60071000D03*
X26717000Y-60071000D03*
%TD*%
D21*
%TO.C,REF\u002A\u002A*%
X71120000Y-187960000D03*
%TD*%
%TO.C,REF\u002A\u002A*%
X30480000Y-187960000D03*
%TD*%
D11*
%TO.C,R15*%
X41402000Y-98425000D03*
X41402000Y-106045000D03*
%TD*%
%TO.C,R2*%
X42685694Y-34101494D03*
X52845694Y-34101494D03*
%TD*%
D21*
%TO.C,REF\u002A\u002A*%
X71120000Y-20320000D03*
%TD*%
D11*
%TO.C,R20*%
X66040000Y-161290000D03*
X55880000Y-161290000D03*
%TD*%
D22*
%TO.C,Q1*%
X49416694Y-41806494D03*
D15*
X51956694Y-41806494D03*
X54496694Y-41806494D03*
%TD*%
D12*
%TO.C,C3*%
X44450000Y-174622188D03*
D11*
X44450000Y-174622188D03*
D12*
X44450000Y-169622188D03*
D11*
X44450000Y-169622188D03*
%TD*%
D23*
%TO.C,Q7*%
X38735000Y-141351000D03*
D17*
X38735000Y-143891000D03*
X38735000Y-146431000D03*
%TD*%
D24*
%TO.C,RV6*%
X55880000Y-136860000D03*
X60960000Y-136860000D03*
X66040000Y-136860000D03*
D19*
X52960000Y-149860000D03*
D25*
X60960000Y-149860000D03*
D26*
X60960000Y-149860000D03*
%TD*%
D24*
%TO.C,RV4*%
X55880000Y-165100000D03*
X60960000Y-165100000D03*
X66040000Y-165100000D03*
D19*
X52960000Y-178100000D03*
D25*
X60960000Y-178100000D03*
D26*
X60960000Y-178100000D03*
%TD*%
D24*
%TO.C,RV5*%
X55880000Y-106380000D03*
X60960000Y-106380000D03*
X66040000Y-106380000D03*
D19*
X52960000Y-119380000D03*
D25*
X60960000Y-119380000D03*
D26*
X60960000Y-119380000D03*
%TD*%
D24*
%TO.C,RV3*%
X55880000Y-76200000D03*
X60960000Y-76200000D03*
X66040000Y-76200000D03*
D27*
X52960000Y-89200000D03*
D25*
X60960000Y-89200000D03*
D26*
X60960000Y-89200000D03*
%TD*%
M02*
