%TF.GenerationSoftware,KiCad,Pcbnew,9.0.6*%
%TF.CreationDate,2026-04-19T17:15:23-07:00*%
%TF.ProjectId,modulinEnvelope,6d6f6475-6c69-46e4-956e-76656c6f7065,rev?*%
%TF.SameCoordinates,Original*%
%TF.FileFunction,Legend,Bot*%
%TF.FilePolarity,Positive*%
%FSLAX46Y46*%
G04 Gerber Fmt 4.6, Leading zero omitted, Abs format (unit mm)*
G04 Created by KiCad (PCBNEW 9.0.6) date 2026-04-19 17:15:23*
%MOMM*%
%LPD*%
G01*
G04 APERTURE LIST*
%ADD10C,0.150000*%
G04 APERTURE END LIST*
D10*
X60364761Y-140846180D02*
X60031428Y-141322371D01*
X59793333Y-140846180D02*
X59793333Y-141846180D01*
X59793333Y-141846180D02*
X60174285Y-141846180D01*
X60174285Y-141846180D02*
X60269523Y-141798561D01*
X60269523Y-141798561D02*
X60317142Y-141750942D01*
X60317142Y-141750942D02*
X60364761Y-141655704D01*
X60364761Y-141655704D02*
X60364761Y-141512847D01*
X60364761Y-141512847D02*
X60317142Y-141417609D01*
X60317142Y-141417609D02*
X60269523Y-141369990D01*
X60269523Y-141369990D02*
X60174285Y-141322371D01*
X60174285Y-141322371D02*
X59793333Y-141322371D01*
X60650476Y-141846180D02*
X60983809Y-140846180D01*
X60983809Y-140846180D02*
X61317142Y-141846180D01*
X62079047Y-141846180D02*
X61888571Y-141846180D01*
X61888571Y-141846180D02*
X61793333Y-141798561D01*
X61793333Y-141798561D02*
X61745714Y-141750942D01*
X61745714Y-141750942D02*
X61650476Y-141608085D01*
X61650476Y-141608085D02*
X61602857Y-141417609D01*
X61602857Y-141417609D02*
X61602857Y-141036657D01*
X61602857Y-141036657D02*
X61650476Y-140941419D01*
X61650476Y-140941419D02*
X61698095Y-140893800D01*
X61698095Y-140893800D02*
X61793333Y-140846180D01*
X61793333Y-140846180D02*
X61983809Y-140846180D01*
X61983809Y-140846180D02*
X62079047Y-140893800D01*
X62079047Y-140893800D02*
X62126666Y-140941419D01*
X62126666Y-140941419D02*
X62174285Y-141036657D01*
X62174285Y-141036657D02*
X62174285Y-141274752D01*
X62174285Y-141274752D02*
X62126666Y-141369990D01*
X62126666Y-141369990D02*
X62079047Y-141417609D01*
X62079047Y-141417609D02*
X61983809Y-141465228D01*
X61983809Y-141465228D02*
X61793333Y-141465228D01*
X61793333Y-141465228D02*
X61698095Y-141417609D01*
X61698095Y-141417609D02*
X61650476Y-141369990D01*
X61650476Y-141369990D02*
X61602857Y-141274752D01*
X60364761Y-169086180D02*
X60031428Y-169562371D01*
X59793333Y-169086180D02*
X59793333Y-170086180D01*
X59793333Y-170086180D02*
X60174285Y-170086180D01*
X60174285Y-170086180D02*
X60269523Y-170038561D01*
X60269523Y-170038561D02*
X60317142Y-169990942D01*
X60317142Y-169990942D02*
X60364761Y-169895704D01*
X60364761Y-169895704D02*
X60364761Y-169752847D01*
X60364761Y-169752847D02*
X60317142Y-169657609D01*
X60317142Y-169657609D02*
X60269523Y-169609990D01*
X60269523Y-169609990D02*
X60174285Y-169562371D01*
X60174285Y-169562371D02*
X59793333Y-169562371D01*
X60650476Y-170086180D02*
X60983809Y-169086180D01*
X60983809Y-169086180D02*
X61317142Y-170086180D01*
X62079047Y-169752847D02*
X62079047Y-169086180D01*
X61840952Y-170133800D02*
X61602857Y-169419514D01*
X61602857Y-169419514D02*
X62221904Y-169419514D01*
X60364761Y-110366180D02*
X60031428Y-110842371D01*
X59793333Y-110366180D02*
X59793333Y-111366180D01*
X59793333Y-111366180D02*
X60174285Y-111366180D01*
X60174285Y-111366180D02*
X60269523Y-111318561D01*
X60269523Y-111318561D02*
X60317142Y-111270942D01*
X60317142Y-111270942D02*
X60364761Y-111175704D01*
X60364761Y-111175704D02*
X60364761Y-111032847D01*
X60364761Y-111032847D02*
X60317142Y-110937609D01*
X60317142Y-110937609D02*
X60269523Y-110889990D01*
X60269523Y-110889990D02*
X60174285Y-110842371D01*
X60174285Y-110842371D02*
X59793333Y-110842371D01*
X60650476Y-111366180D02*
X60983809Y-110366180D01*
X60983809Y-110366180D02*
X61317142Y-111366180D01*
X62126666Y-111366180D02*
X61650476Y-111366180D01*
X61650476Y-111366180D02*
X61602857Y-110889990D01*
X61602857Y-110889990D02*
X61650476Y-110937609D01*
X61650476Y-110937609D02*
X61745714Y-110985228D01*
X61745714Y-110985228D02*
X61983809Y-110985228D01*
X61983809Y-110985228D02*
X62079047Y-110937609D01*
X62079047Y-110937609D02*
X62126666Y-110889990D01*
X62126666Y-110889990D02*
X62174285Y-110794752D01*
X62174285Y-110794752D02*
X62174285Y-110556657D01*
X62174285Y-110556657D02*
X62126666Y-110461419D01*
X62126666Y-110461419D02*
X62079047Y-110413800D01*
X62079047Y-110413800D02*
X61983809Y-110366180D01*
X61983809Y-110366180D02*
X61745714Y-110366180D01*
X61745714Y-110366180D02*
X61650476Y-110413800D01*
X61650476Y-110413800D02*
X61602857Y-110461419D01*
X60364761Y-80186180D02*
X60031428Y-80662371D01*
X59793333Y-80186180D02*
X59793333Y-81186180D01*
X59793333Y-81186180D02*
X60174285Y-81186180D01*
X60174285Y-81186180D02*
X60269523Y-81138561D01*
X60269523Y-81138561D02*
X60317142Y-81090942D01*
X60317142Y-81090942D02*
X60364761Y-80995704D01*
X60364761Y-80995704D02*
X60364761Y-80852847D01*
X60364761Y-80852847D02*
X60317142Y-80757609D01*
X60317142Y-80757609D02*
X60269523Y-80709990D01*
X60269523Y-80709990D02*
X60174285Y-80662371D01*
X60174285Y-80662371D02*
X59793333Y-80662371D01*
X60650476Y-81186180D02*
X60983809Y-80186180D01*
X60983809Y-80186180D02*
X61317142Y-81186180D01*
X61555238Y-81186180D02*
X62174285Y-81186180D01*
X62174285Y-81186180D02*
X61840952Y-80805228D01*
X61840952Y-80805228D02*
X61983809Y-80805228D01*
X61983809Y-80805228D02*
X62079047Y-80757609D01*
X62079047Y-80757609D02*
X62126666Y-80709990D01*
X62126666Y-80709990D02*
X62174285Y-80614752D01*
X62174285Y-80614752D02*
X62174285Y-80376657D01*
X62174285Y-80376657D02*
X62126666Y-80281419D01*
X62126666Y-80281419D02*
X62079047Y-80233800D01*
X62079047Y-80233800D02*
X61983809Y-80186180D01*
X61983809Y-80186180D02*
X61698095Y-80186180D01*
X61698095Y-80186180D02*
X61602857Y-80233800D01*
X61602857Y-80233800D02*
X61555238Y-80281419D01*
M02*
